<svg version="1.1" xmlns="http://www.w3.org/2000/svg" xmlns:xlink="http://www.w3.org/1999/xlink" width="774" height="763"><defs/><g><g/><g/><g/><g/><g/><g/><g/><g/><g/><g><rect fill="white" stroke="none" x="0" y="0" width="774" height="763"/></g><g><text fill="black" stroke="none" font-family="sans-serif" font-size="16.5pt" font-style="normal" font-weight="normal" text-decoration="normal" x="268.77870991384964" y="26.3876361" text-anchor="start" dominant-baseline="alphabetic">Add A New Room BCE</text></g><g/><g><path fill="none" stroke="black" paint-order="fill stroke markers" d=" M 24.840976051074218 139.67855375599999 L 24.840976051074218 763.7637392784001" stroke-miterlimit="10" stroke-width="1.4659797833333332" stroke-dasharray="13.532121076923076,5.863919133333333"/><path fill="none" stroke="black" paint-order="fill stroke markers" d=" M 241.6362968069987 139.67855375599999 L 241.6362968069987 763.7637392784001" stroke-miterlimit="10" stroke-width="1.4659797833333332" stroke-dasharray="13.532121076923076,5.863919133333333"/><path fill="none" stroke="black" paint-order="fill stroke markers" d=" M 467.2274962629232 139.67855375599999 L 467.2274962629232 763.7637392784001" stroke-miterlimit="10" stroke-width="1.4659797833333332" stroke-dasharray="13.532121076923076,5.863919133333333"/><path fill="none" stroke="black" paint-order="fill stroke markers" d=" M 737.5887710721993 487.57314809839994 L 737.5887710721993 763.7637392784001" stroke-miterlimit="10" stroke-width="1.4659797833333332" stroke-dasharray="13.532121076923076,5.863919133333333"/></g><g><g><path fill="white" stroke="black" paint-order="fill stroke markers" d=" M 34.86827776907422 65.265419954 A 10.027301717999999 10.027301717999999 0 1 1 34.868272755423774 65.25539265395321 M 24.840976051074218 75.29272167199998 L 24.840976051074218 96.75466569999998 M 12.17491072307422 83.033094928 L 37.50704137907422 83.033094928 M 24.840976051074218 96.75466569999998 L 12.17491072307422 116.80926913599998 M 24.840976051074218 96.75466569999998 L 37.50704137907422 116.80926913599998" stroke-miterlimit="10" stroke-width="2.990598758" stroke-dasharray=""/></g><g><g/><text fill="black" stroke="none" font-family="sans-serif" font-size="11pt" font-style="normal" font-weight="normal" text-decoration="normal" x="8.7958787" y="134.401026536" text-anchor="start" dominant-baseline="alphabetic">Boss</text></g><g><path fill="white" stroke="black" paint-order="fill stroke markers" d=" M 267.7600565459987 89.19021001799997 A 26.123759739 26.123759739 0 1 1 267.76004348411993 89.16408626261492 M 238.1179453269987 63.06645027899997 L 248.6729997669987 54.27057157899998 M 238.1179453269987 63.06645027899997 L 248.6729997669987 71.86232897899997" stroke-miterlimit="10" stroke-width="2.990598758" stroke-dasharray=""/></g><g><g/><text fill="black" stroke="none" font-family="sans-serif" font-size="11pt" font-style="normal" font-weight="normal" text-decoration="normal" x="175.32276683873698" y="134.401026536" text-anchor="start" dominant-baseline="alphabetic">ReservationSystem</text></g><path fill="none" stroke="none"/><g><path fill="white" stroke="black" paint-order="fill stroke markers" d=" M 428.97078463773175 92.18080877599999 L 505.48420788811455 92.18080877599999 L 505.48420788811455 139.67855375599999 L 428.97078463773175 139.67855375599999 L 428.97078463773175 92.18080877599999 Z" stroke-miterlimit="10" stroke-width="2.814681184" stroke-dasharray=""/></g><g><g/><text fill="black" stroke="none" font-family="sans-serif" font-size="11pt" font-style="normal" font-weight="normal" text-decoration="normal" x="448.0578414167318" y="122.08679635600001" text-anchor="start" dominant-baseline="alphabetic">Hotel</text></g></g><g><path fill="white" stroke="black" paint-order="fill stroke markers" d=" M 232.8404181069987 197.73135317599997 L 250.4321755069987 197.73135317599997 L 250.4321755069987 702.1925883784 L 232.8404181069987 702.1925883784 L 232.8404181069987 197.73135317599997" stroke-miterlimit="10" stroke-width="1.4659797833333332" stroke-dasharray=""/><path fill="white" stroke="black" paint-order="fill stroke markers" d=" M 458.4316175629232 246.98827389599995 L 476.0233749629232 246.98827389599995 L 476.0233749629232 586.0869895384 L 458.4316175629232 586.0869895384 L 458.4316175629232 246.98827389599995" stroke-miterlimit="10" stroke-width="1.4659797833333332" stroke-dasharray=""/><path fill="white" stroke="black" paint-order="fill stroke markers" d=" M 728.7928923721993 487.57314809839994 L 746.3846497721993 487.57314809839994 L 746.3846497721993 536.8300688183999 L 728.7928923721993 536.8300688183999 L 728.7928923721993 487.57314809839994" stroke-miterlimit="10" stroke-width="1.4659797833333332" stroke-dasharray=""/><g><g><rect fill="white" stroke="none" x="45.657888974407555" y="174.86206855599997" width="166.3656162092578" height="22.86928462"/></g><text fill="black" stroke="none" font-family="sans-serif" font-size="11pt" font-style="normal" font-weight="normal" text-decoration="normal" x="48.29665258440755" y="190.69465021599999" text-anchor="start" dominant-baseline="alphabetic">addRoom(information)</text></g><g><path fill="none" stroke="black" paint-order="fill stroke markers" d=" M 24.840976051074218 197.73135317599997 L 229.90845854033202 197.73135317599997" stroke-miterlimit="10" stroke-width="1.4659797833333332" stroke-dasharray=""/><g transform="translate(232.8404181069987,197.73135317599997) translate(-232.8404181069987,-197.73135317599997)"><path fill="black" stroke="none" paint-order="stroke fill markers" d=" M 218.18062027366537 190.4014542593333 L 232.8404181069987 197.73135317599997 L 218.18062027366537 205.06125209266665 Z"/></g></g><g><g><rect fill="white" stroke="none" x="271.24908843033205" y="224.11898927599995" width="166.3656162092578" height="22.86928462"/></g><text fill="black" stroke="none" font-family="sans-serif" font-size="11pt" font-style="normal" font-weight="normal" text-decoration="normal" x="273.88785204033206" y="239.95157093599997" text-anchor="start" dominant-baseline="alphabetic">addRoom(information)</text></g><g><path fill="none" stroke="black" paint-order="fill stroke markers" d=" M 250.4321755069987 246.98827389599995 L 455.49965799625653 246.98827389599995" stroke-miterlimit="10" stroke-width="1.4659797833333332" stroke-dasharray=""/><g transform="translate(458.4316175629232,246.98827389599995) translate(-458.4316175629232,-246.98827389599995)"><path fill="black" stroke="none" paint-order="stroke fill markers" d=" M 443.7718197295898 239.65837497933327 L 458.4316175629232 246.98827389599995 L 443.7718197295898 254.31817281266663 Z"/></g></g><g><g><rect fill="white" stroke="none" x="496.84028788625653" y="273.37590999599996" width="185.14152563308593" height="22.86928462"/></g><text fill="black" stroke="none" font-family="sans-serif" font-size="11pt" font-style="normal" font-weight="normal" text-decoration="normal" x="499.47905149625655" y="289.208491656" text-anchor="start" dominant-baseline="alphabetic">t:= getType(typeNumber)</text></g><g><path fill="none" stroke="black" paint-order="fill stroke markers" d=" M 476.0233749629232 296.24519461599994 L 546.3904045629232 296.24519461599994 L 546.3904045629232 313.83695201599994 L 478.95533452958983 313.83695201599994" stroke-miterlimit="10" stroke-width="1.4659797833333332" stroke-dasharray=""/><g transform="translate(476.0233749629232,313.83695201599994) translate(-476.0233749629232,-313.83695201599994)"><path fill="black" stroke="none" paint-order="stroke fill markers" d=" M 490.68317279625654 306.5070530993333 L 476.0233749629232 313.83695201599994 L 490.68317279625654 321.1668509326666 Z"/></g></g><g><g><rect fill="white" stroke="none" x="496.84028788625653" y="340.22458811599995" width="189.33622778152343" height="22.86928462"/></g><text fill="black" stroke="none" font-family="sans-serif" font-size="11pt" font-style="normal" font-weight="normal" text-decoration="normal" x="499.47905149625655" y="356.05716977599997" text-anchor="start" dominant-baseline="alphabetic">p:= getPrice(typeNumber)</text></g><g><path fill="none" stroke="black" paint-order="fill stroke markers" d=" M 476.0233749629232 363.0938727359999 L 546.3904045629232 363.0938727359999 L 546.3904045629232 380.68563013599993 L 478.95533452958983 380.68563013599993" stroke-miterlimit="10" stroke-width="1.4659797833333332" stroke-dasharray=""/><g transform="translate(476.0233749629232,380.68563013599993) translate(-476.0233749629232,-380.68563013599993)"><path fill="black" stroke="none" paint-order="stroke fill markers" d=" M 490.68317279625654 373.3557312193333 L 476.0233749629232 380.68563013599993 L 490.68317279625654 388.0155290526666 Z"/></g></g><g><path fill="white" stroke="black" paint-order="fill stroke markers" d=" M 763.7125308111993 433.1970259749999 A 26.123759739 26.123759739 0 1 1 763.7125177493205 433.17090221961485 M 709.9697119541993 461.7132647203999 L 762.2172314321992 461.7132647203999" stroke-miterlimit="10" stroke-width="2.990598758" stroke-dasharray=""/></g><g><g/><text fill="black" stroke="none" font-family="sans-serif" font-size="11pt" font-style="normal" font-weight="normal" text-decoration="normal" x="716.6152450712227" y="480.80032149939984" text-anchor="start" dominant-baseline="alphabetic">Room</text></g><g><g><rect fill="white" stroke="none" x="501.2382272362566" y="424.45392254719997" width="183.51663244460937" height="22.86928462"/></g><text fill="black" stroke="none" font-family="sans-serif" font-size="11pt" font-style="normal" font-weight="normal" text-decoration="normal" x="503.8769908462566" y="440.2865042072" text-anchor="start" dominant-baseline="alphabetic">Room(roomNumber, t, p)</text></g><g><path fill="none" stroke="black" paint-order="fill stroke markers" d=" M 476.0233749629232 447.32320716719994 L 707.0377523875326 447.32320716719994" stroke-miterlimit="10" stroke-width="1.4659797833333332" stroke-dasharray=""/><g transform="translate(709.9697119541993,447.32320716719994) translate(-709.9697119541993,-447.32320716719994)"><path fill="black" stroke="none" paint-order="stroke fill markers" d=" M 695.309914120866 439.9933082505333 L 709.9697119541993 447.32320716719994 L 695.309914120866 454.6531060838666 Z"/></g></g><g><g><rect fill="white" stroke="none" x="599.7693700575613" y="513.9607841983999" width="5.27752722" height="22.86928462"/></g><text fill="black" stroke="none" font-family="sans-serif" font-size="11pt" font-style="normal" font-weight="normal" text-decoration="normal" x="602.4081336675613" y="529.7933658583999" text-anchor="start" dominant-baseline="alphabetic"></text></g><g><path fill="none" stroke="black" paint-order="fill stroke markers" d=" M 728.7928923721993 536.8300688183999 L 478.95533452958983 536.8300688183999" stroke-miterlimit="10" stroke-width="1.4659797833333332" stroke-dasharray="7.0367029599999995"/><g transform="translate(476.0233749629232,536.8300688183999) translate(-476.0233749629232,-536.8300688183999)"><path fill="black" stroke="none" paint-order="stroke fill markers" d=" M 490.68317279625654 529.5001699017332 L 476.0233749629232 536.8300688183999 L 490.68317279625654 544.1599677350666 Z"/></g></g><g><g><rect fill="white" stroke="none" x="351.79313292496096" y="563.2177049183999" width="5.27752722" height="22.86928462"/></g><text fill="black" stroke="none" font-family="sans-serif" font-size="11pt" font-style="normal" font-weight="normal" text-decoration="normal" x="354.43189653496097" y="579.0502865783999" text-anchor="start" dominant-baseline="alphabetic"></text></g><g><path fill="none" stroke="black" paint-order="fill stroke markers" d=" M 458.4316175629232 586.0869895384 L 253.36413507366538 586.0869895384" stroke-miterlimit="10" stroke-width="1.4659797833333332" stroke-dasharray="7.0367029599999995"/><g transform="translate(250.4321755069987,586.0869895384) translate(-250.4321755069987,-586.0869895384)"><path fill="black" stroke="none" paint-order="stroke fill markers" d=" M 265.09197334033206 578.7570906217333 L 250.4321755069987 586.0869895384 L 265.09197334033206 593.4168884550667 Z"/></g></g><g><g><rect fill="white" stroke="none" x="271.24908843033205" y="612.4746256384" width="105.91459692214843" height="22.86928462"/></g><text fill="black" stroke="none" font-family="sans-serif" font-size="11pt" font-style="normal" font-weight="normal" text-decoration="normal" x="273.88785204033206" y="628.3072072983999" text-anchor="start" dominant-baseline="alphabetic">updateDisplay</text></g><g><path fill="none" stroke="black" paint-order="fill stroke markers" d=" M 250.4321755069987 635.3439102584 L 320.79920510699867 635.3439102584 L 320.79920510699867 652.9356676584 L 253.36413507366538 652.9356676584" stroke-miterlimit="10" stroke-width="1.4659797833333332" stroke-dasharray=""/><g transform="translate(250.4321755069987,652.9356676584) translate(-250.4321755069987,-652.9356676584)"><path fill="black" stroke="none" paint-order="stroke fill markers" d=" M 265.09197334033206 645.6057687417333 L 250.4321755069987 652.9356676584 L 265.09197334033206 660.2655665750667 Z"/></g></g><g><g><rect fill="white" stroke="none" x="126.20193346903646" y="679.3233037584" width="5.27752722" height="22.86928462"/></g><text fill="black" stroke="none" font-family="sans-serif" font-size="11pt" font-style="normal" font-weight="normal" text-decoration="normal" x="128.84069707903646" y="695.1558854184" text-anchor="start" dominant-baseline="alphabetic"></text></g><g><path fill="none" stroke="black" paint-order="fill stroke markers" d=" M 232.8404181069987 702.1925883784 L 27.772935617740885 702.1925883784" stroke-miterlimit="10" stroke-width="1.4659797833333332" stroke-dasharray="7.0367029599999995"/><g transform="translate(24.840976051074218,702.1925883784) translate(-24.840976051074218,-702.1925883784)"><path fill="black" stroke="none" paint-order="stroke fill markers" d=" M 39.50077388440755 694.8626894617333 L 24.840976051074218 702.1925883784 L 39.50077388440755 709.5224872950668 Z"/></g></g></g><g/><g/><g/></g></svg>