<svg version="1.1" xmlns="http://www.w3.org/2000/svg" xmlns:xlink="http://www.w3.org/1999/xlink" width="554" height="473"><defs/><g><g/><g/><g/><g/><g/><g><rect fill="white" stroke="none" x="0" y="0" width="554" height="473"/></g><g><text fill="black" stroke="none" font-family="sans-serif" font-size="16.5pt" font-style="normal" font-weight="normal" text-decoration="normal" x="142.6939161187305" y="26.3876361" text-anchor="start" dominant-baseline="alphabetic">Add A New Room ECE (1)</text></g><g/><g><path fill="none" stroke="black" paint-order="fill stroke markers" d=" M 24.840976051074218 139.67855375599999 L 24.840976051074218 473.9219443559999" stroke-miterlimit="10" stroke-width="1.4659797833333332" stroke-dasharray="13.532121076923076,5.863919133333333"/><path fill="none" stroke="black" paint-order="fill stroke markers" d=" M 250.4321755069987 139.67855375599999 L 250.4321755069987 473.9219443559999" stroke-miterlimit="10" stroke-width="1.4659797833333332" stroke-dasharray="13.532121076923076,5.863919133333333"/><path fill="none" stroke="black" paint-order="fill stroke markers" d=" M 434.35009283876957 139.67855375599999 L 434.35009283876957 473.9219443559999" stroke-miterlimit="10" stroke-width="1.4659797833333332" stroke-dasharray="13.532121076923076,5.863919133333333"/><path fill="none" stroke="black" paint-order="fill stroke markers" d=" M 517.817620981961 139.67855375599999 L 517.817620981961 473.9219443559999" stroke-miterlimit="10" stroke-width="1.4659797833333332" stroke-dasharray="13.532121076923076,5.863919133333333"/></g><g><g><path fill="white" stroke="black" paint-order="fill stroke markers" d=" M 34.86827776907422 65.265419954 A 10.027301717999999 10.027301717999999 0 1 1 34.868272755423774 65.25539265395321 M 24.840976051074218 75.29272167199998 L 24.840976051074218 96.75466569999998 M 12.17491072307422 83.033094928 L 37.50704137907422 83.033094928 M 24.840976051074218 96.75466569999998 L 12.17491072307422 116.80926913599998 M 24.840976051074218 96.75466569999998 L 37.50704137907422 116.80926913599998" stroke-miterlimit="10" stroke-width="2.990598758" stroke-dasharray=""/></g><g><g/><text fill="black" stroke="none" font-family="sans-serif" font-size="11pt" font-style="normal" font-weight="normal" text-decoration="normal" x="8.7958787" y="134.401026536" text-anchor="start" dominant-baseline="alphabetic">Boss</text></g><g><path fill="white" stroke="black" paint-order="fill stroke markers" d=" M 276.5559352459987 89.19021001799997 A 26.123759739 26.123759739 0 1 1 276.55592218411994 89.16408626261492 M 246.9138240269987 63.06645027899997 L 257.4688784669987 54.27057157899998 M 246.9138240269987 63.06645027899997 L 257.4688784669987 71.86232897899997" stroke-miterlimit="10" stroke-width="2.990598758" stroke-dasharray=""/></g><g><g/><text fill="black" stroke="none" font-family="sans-serif" font-size="11pt" font-style="normal" font-weight="normal" text-decoration="normal" x="184.11864553873698" y="134.401026536" text-anchor="start" dominant-baseline="alphabetic">ReservationSystem</text></g><path fill="none" stroke="none"/><g><path fill="white" stroke="black" paint-order="fill stroke markers" d=" M 396.09338121357814 92.18080877599999 L 472.60680446396094 92.18080877599999 L 472.60680446396094 139.67855375599999 L 396.09338121357814 139.67855375599999 L 396.09338121357814 92.18080877599999 Z" stroke-miterlimit="10" stroke-width="2.814681184" stroke-dasharray=""/></g><g><g/><text fill="black" stroke="none" font-family="sans-serif" font-size="11pt" font-style="normal" font-weight="normal" text-decoration="normal" x="415.18043799257816" y="122.08679635600001" text-anchor="start" dominant-baseline="alphabetic">Hotel</text></g><g><path fill="white" stroke="black" paint-order="fill stroke markers" d=" M 543.941380720961 86.79773101159998 A 26.123759739 26.123759739 0 1 1 543.9413676590822 86.77160725621492 M 490.198561863961 115.31396975699997 L 542.446081341961 115.31396975699997" stroke-miterlimit="10" stroke-width="2.990598758" stroke-dasharray=""/></g><g><g/><text fill="black" stroke="none" font-family="sans-serif" font-size="11pt" font-style="normal" font-weight="normal" text-decoration="normal" x="496.84409498098444" y="134.401026536" text-anchor="start" dominant-baseline="alphabetic">Room</text></g></g><g><path fill="white" stroke="black" paint-order="fill stroke markers" d=" M 241.6362968069987 197.73135317599997 L 259.2280542069987 197.73135317599997 L 259.2280542069987 412.3507934559999 L 241.6362968069987 412.3507934559999 L 241.6362968069987 197.73135317599997" stroke-miterlimit="10" stroke-width="1.4659797833333332" stroke-dasharray=""/><path fill="white" stroke="black" paint-order="fill stroke markers" d=" M 16.04509735107422 313.83695201599994 L 33.63685475107422 313.83695201599994 L 33.63685475107422 363.0938727359999 L 16.04509735107422 363.0938727359999 L 16.04509735107422 313.83695201599994" stroke-miterlimit="10" stroke-width="1.4659797833333332" stroke-dasharray=""/><g><g><rect fill="white" stroke="none" x="50.05582832440756" y="174.86206855599997" width="166.3656162092578" height="22.86928462"/></g><text fill="black" stroke="none" font-family="sans-serif" font-size="11pt" font-style="normal" font-weight="normal" text-decoration="normal" x="52.694591934407555" y="190.69465021599999" text-anchor="start" dominant-baseline="alphabetic">addRoom(information)</text></g><g><path fill="none" stroke="black" paint-order="fill stroke markers" d=" M 24.840976051074218 197.73135317599997 L 238.70433724033202 197.73135317599997" stroke-miterlimit="10" stroke-width="1.4659797833333332" stroke-dasharray=""/><g transform="translate(241.6362968069987,197.73135317599997) translate(-241.6362968069987,-197.73135317599997)"><path fill="black" stroke="none" paint-order="stroke fill markers" d=" M 226.97649897366537 190.4014542593333 L 241.6362968069987 197.73135317599997 L 226.97649897366537 205.06125209266665 Z"/></g></g><g><g><rect fill="white" stroke="none" x="280.04496713033205" y="224.11898927599998" width="148.1480106184375" height="22.86928462"/></g><text fill="black" stroke="none" font-family="sans-serif" font-size="11pt" font-style="normal" font-weight="normal" text-decoration="normal" x="282.68373074033207" y="239.951570936" text-anchor="start" dominant-baseline="alphabetic">checkDoubleRoom()</text></g><g><path fill="none" stroke="black" paint-order="fill stroke markers" d=" M 259.2280542069987 246.98827389599995 L 329.5950838069987 246.98827389599995 L 329.5950838069987 264.58003129599996 L 262.16001377366536 264.58003129599996" stroke-miterlimit="10" stroke-width="1.4659797833333332" stroke-dasharray=""/><g transform="translate(259.2280542069987,264.58003129599996) translate(-259.2280542069987,-264.58003129599996)"><path fill="black" stroke="none" paint-order="stroke fill markers" d=" M 273.88785204033206 257.2501323793333 L 259.2280542069987 264.58003129599996 L 273.88785204033206 271.9099302126666 Z"/></g></g><g><g><rect fill="white" stroke="none" x="67.88613309188803" y="290.96766739599997" width="139.50088537429687" height="22.86928462"/></g><text fill="black" stroke="none" font-family="sans-serif" font-size="11pt" font-style="normal" font-weight="normal" text-decoration="normal" x="70.52489670188803" y="306.800249056" text-anchor="start" dominant-baseline="alphabetic">alertDoubleRoom()</text></g><g><path fill="none" stroke="black" paint-order="fill stroke markers" d=" M 241.6362968069987 313.83695201599994 L 36.56881431774089 313.83695201599994" stroke-miterlimit="10" stroke-width="1.4659797833333332" stroke-dasharray=""/><g transform="translate(33.63685475107422,313.83695201599994) translate(-33.63685475107422,-313.83695201599994)"><path fill="black" stroke="none" paint-order="stroke fill markers" d=" M 48.29665258440755 306.5070530993333 L 33.63685475107422 313.83695201599994 L 48.29665258440755 321.1668509326666 Z"/></g></g><g><g><rect fill="white" stroke="none" x="134.99781216903645" y="340.22458811599995" width="5.27752722" height="22.86928462"/></g><text fill="black" stroke="none" font-family="sans-serif" font-size="11pt" font-style="normal" font-weight="normal" text-decoration="normal" x="137.63657577903646" y="356.05716977599997" text-anchor="start" dominant-baseline="alphabetic"></text></g><g><path fill="none" stroke="black" paint-order="fill stroke markers" d=" M 33.63685475107422 363.0938727359999 L 238.70433724033202 363.0938727359999" stroke-miterlimit="10" stroke-width="1.4659797833333332" stroke-dasharray="7.0367029599999995"/><g transform="translate(241.6362968069987,363.0938727359999) translate(-241.6362968069987,-363.0938727359999)"><path fill="black" stroke="none" paint-order="stroke fill markers" d=" M 226.97649897366537 355.7639738193333 L 241.6362968069987 363.0938727359999 L 226.97649897366537 370.4237716526666 Z"/></g></g><g><g><rect fill="white" stroke="none" x="130.59987281903645" y="389.48150883599993" width="5.27752722" height="22.86928462"/></g><text fill="black" stroke="none" font-family="sans-serif" font-size="11pt" font-style="normal" font-weight="normal" text-decoration="normal" x="133.23863642903646" y="405.31409049599995" text-anchor="start" dominant-baseline="alphabetic"></text></g><g><path fill="none" stroke="black" paint-order="fill stroke markers" d=" M 241.6362968069987 412.3507934559999 L 27.772935617740885 412.3507934559999" stroke-miterlimit="10" stroke-width="1.4659797833333332" stroke-dasharray="7.0367029599999995"/><g transform="translate(24.840976051074218,412.3507934559999) translate(-24.840976051074218,-412.3507934559999)"><path fill="black" stroke="none" paint-order="stroke fill markers" d=" M 39.50077388440755 405.02089453933326 L 24.840976051074218 412.3507934559999 L 39.50077388440755 419.68069237266656 Z"/></g></g></g><g/><g/><g/><g/></g></svg>