<svg version="1.1" xmlns="http://www.w3.org/2000/svg" xmlns:xlink="http://www.w3.org/1999/xlink" width="956" height="763"><defs/><g><g/><g/><g/><g/><g/><g/><g/><g/><g/><g><rect fill="white" stroke="none" x="0" y="0" width="956" height="763"/></g><g><text fill="black" stroke="none" font-family="sans-serif" font-size="16.5pt" font-style="normal" font-weight="normal" text-decoration="normal" x="388.8141422204102" y="26.3876361" text-anchor="start" dominant-baseline="alphabetic">Add Walk-in BCE</text></g><g/><g><path fill="none" stroke="black" paint-order="fill stroke markers" d=" M 24.891078284960937 139.67855375599999 L 24.891078284960937 763.7637392784001" stroke-miterlimit="10" stroke-width="1.4659797833333332" stroke-dasharray="13.532121076923076,5.863919133333333"/><path fill="none" stroke="black" paint-order="fill stroke markers" d=" M 189.85386425084636 139.67855375599999 L 189.85386425084636 763.7637392784001" stroke-miterlimit="10" stroke-width="1.4659797833333332" stroke-dasharray="13.532121076923076,5.863919133333333"/><path fill="none" stroke="black" paint-order="fill stroke markers" d=" M 435.1945143903646 139.67855375599999 L 435.1945143903646 763.7637392784001" stroke-miterlimit="10" stroke-width="1.4659797833333332" stroke-dasharray="13.532121076923076,5.863919133333333"/><path fill="none" stroke="black" paint-order="fill stroke markers" d=" M 918.3339239903321 487.57314809839994 L 918.3339239903321 763.7637392784001" stroke-miterlimit="10" stroke-width="1.4659797833333332" stroke-dasharray="13.532121076923076,5.863919133333333"/></g><g><g><path fill="white" stroke="black" paint-order="fill stroke markers" d=" M 34.91838000296094 65.265419954 A 10.027301717999999 10.027301717999999 0 1 1 34.91837498931049 65.25539265395321 M 24.891078284960937 75.29272167199998 L 24.891078284960937 96.75466569999998 M 12.225012956960938 83.033094928 L 37.557143612960935 83.033094928 M 24.891078284960937 96.75466569999998 L 12.225012956960938 116.80926913599998 M 24.891078284960937 96.75466569999998 L 37.557143612960935 116.80926913599998" stroke-miterlimit="10" stroke-width="2.990598758" stroke-dasharray=""/></g><g><g/><text fill="black" stroke="none" font-family="sans-serif" font-size="11pt" font-style="normal" font-weight="normal" text-decoration="normal" x="8.7958787" y="134.401026536" text-anchor="start" dominant-baseline="alphabetic">Staff</text></g><g><path fill="white" stroke="black" paint-order="fill stroke markers" d=" M 215.97762398984636 89.19021001799997 A 26.123759739 26.123759739 0 1 1 215.9776109279676 89.16408626261492 M 186.33551277084635 63.06645027899997 L 196.89056721084634 54.27057157899998 M 186.33551277084635 63.06645027899997 L 196.89056721084634 71.86232897899997" stroke-miterlimit="10" stroke-width="2.990598758" stroke-dasharray=""/></g><g><g/><text fill="black" stroke="none" font-family="sans-serif" font-size="11pt" font-style="normal" font-weight="normal" text-decoration="normal" x="135.5267234427409" y="134.401026536" text-anchor="start" dominant-baseline="alphabetic">BookingSystem</text></g><path fill="none" stroke="none"/><g><path fill="white" stroke="black" paint-order="fill stroke markers" d=" M 396.93780276517316 92.18080877599999 L 473.45122601555596 92.18080877599999 L 473.45122601555596 139.67855375599999 L 396.93780276517316 139.67855375599999 L 396.93780276517316 92.18080877599999 Z" stroke-miterlimit="10" stroke-width="2.814681184" stroke-dasharray=""/></g><g><g/><text fill="black" stroke="none" font-family="sans-serif" font-size="11pt" font-style="normal" font-weight="normal" text-decoration="normal" x="416.0248595441732" y="122.08679635600001" text-anchor="start" dominant-baseline="alphabetic">Hotel</text></g></g><g><path fill="white" stroke="black" paint-order="fill stroke markers" d=" M 181.05798555084635 197.73135317599997 L 198.64974295084636 197.73135317599997 L 198.64974295084636 702.1925883784 L 181.05798555084635 702.1925883784 L 181.05798555084635 197.73135317599997" stroke-miterlimit="10" stroke-width="1.4659797833333332" stroke-dasharray=""/><path fill="white" stroke="black" paint-order="fill stroke markers" d=" M 426.3986356903646 246.98827389599995 L 443.9903930903646 246.98827389599995 L 443.9903930903646 586.0869895384 L 426.3986356903646 586.0869895384 L 426.3986356903646 246.98827389599995" stroke-miterlimit="10" stroke-width="1.4659797833333332" stroke-dasharray=""/><path fill="white" stroke="black" paint-order="fill stroke markers" d=" M 909.5380452903321 487.57314809839994 L 927.1298026903321 487.57314809839994 L 927.1298026903321 536.8300688183999 L 909.5380452903321 536.8300688183999 L 909.5380452903321 487.57314809839994" stroke-miterlimit="10" stroke-width="1.4659797833333332" stroke-dasharray=""/><g><g><rect fill="white" stroke="none" x="45.707991208294274" y="174.86206855599997" width="114.53308141921875" height="22.86928462"/></g><text fill="black" stroke="none" font-family="sans-serif" font-size="11pt" font-style="normal" font-weight="normal" text-decoration="normal" x="48.34675481829427" y="190.69465021599999" text-anchor="start" dominant-baseline="alphabetic">displayAllRoom</text></g><g><path fill="none" stroke="black" paint-order="fill stroke markers" d=" M 24.891078284960937 197.73135317599997 L 178.12602598417968 197.73135317599997" stroke-miterlimit="10" stroke-width="1.4659797833333332" stroke-dasharray=""/><g transform="translate(181.05798555084635,197.73135317599997) translate(-181.05798555084635,-197.73135317599997)"><path fill="black" stroke="none" paint-order="stroke fill markers" d=" M 166.39818771751303 190.4014542593333 L 181.05798555084635 197.73135317599997 L 166.39818771751303 205.06125209266665 Z"/></g></g><g><g><rect fill="white" stroke="none" x="219.4666558741797" y="224.11898927599995" width="186.11506689285156" height="22.86928462"/></g><text fill="black" stroke="none" font-family="sans-serif" font-size="11pt" font-style="normal" font-weight="normal" text-decoration="normal" x="222.10541948417972" y="239.95157093599997" text-anchor="start" dominant-baseline="alphabetic">addWalkIn(roomNumber)</text></g><g><path fill="none" stroke="black" paint-order="fill stroke markers" d=" M 198.64974295084636 246.98827389599995 L 423.46667612369794 246.98827389599995" stroke-miterlimit="10" stroke-width="1.4659797833333332" stroke-dasharray=""/><g transform="translate(426.3986356903646,246.98827389599995) translate(-426.3986356903646,-246.98827389599995)"><path fill="black" stroke="none" paint-order="stroke fill markers" d=" M 411.7388378570312 239.65837497933327 L 426.3986356903646 246.98827389599995 L 411.7388378570312 254.31817281266663 Z"/></g></g><g><g><rect fill="white" stroke="none" x="464.80730601369794" y="273.37590999599996" width="196.11508215164062" height="22.86928462"/></g><text fill="black" stroke="none" font-family="sans-serif" font-size="11pt" font-style="normal" font-weight="normal" text-decoration="normal" x="467.44606962369795" y="289.208491656" text-anchor="start" dominant-baseline="alphabetic">r:=getRoom(roomNumber)</text></g><g><path fill="none" stroke="black" paint-order="fill stroke markers" d=" M 443.9903930903646 296.24519461599994 L 514.3574226903646 296.24519461599994 L 514.3574226903646 313.83695201599994 L 446.92235265703124 313.83695201599994" stroke-miterlimit="10" stroke-width="1.4659797833333332" stroke-dasharray=""/><g transform="translate(443.9903930903646,313.83695201599994) translate(-443.9903930903646,-313.83695201599994)"><path fill="black" stroke="none" paint-order="stroke fill markers" d=" M 458.65019092369795 306.5070530993333 L 443.9903930903646 313.83695201599994 L 458.65019092369795 321.1668509326666 Z"/></g></g><g><g><rect fill="white" stroke="none" x="464.80730601369794" y="340.22458811599995" width="278.1265262434375" height="22.86928462"/></g><text fill="black" stroke="none" font-family="sans-serif" font-size="11pt" font-style="normal" font-weight="normal" text-decoration="normal" x="467.44606962369795" y="356.05716977599997" text-anchor="start" dominant-baseline="alphabetic">c:=getCustomer(name, phoneNumber)</text></g><g><path fill="none" stroke="black" paint-order="fill stroke markers" d=" M 443.9903930903646 363.0938727359999 L 514.3574226903646 363.0938727359999 L 514.3574226903646 380.68563013599993 L 446.92235265703124 380.68563013599993" stroke-miterlimit="10" stroke-width="1.4659797833333332" stroke-dasharray=""/><g transform="translate(443.9903930903646,380.68563013599993) translate(-443.9903930903646,-380.68563013599993)"><path fill="black" stroke="none" paint-order="stroke fill markers" d=" M 458.65019092369795 373.3557312193333 L 443.9903930903646 380.68563013599993 L 458.65019092369795 388.0155290526666 Z"/></g></g><g><path fill="white" stroke="black" paint-order="fill stroke markers" d=" M 944.4576837293321 433.1970259749999 A 26.123759739 26.123759739 0 1 1 944.4576706674533 433.17090221961485 M 890.7148648723321 461.7132647203999 L 942.9623843503321 461.7132647203999" stroke-miterlimit="10" stroke-width="2.990598758" stroke-dasharray=""/></g><g><g/><text fill="black" stroke="none" font-family="sans-serif" font-size="11pt" font-style="normal" font-weight="normal" text-decoration="normal" x="889.2680594273438" y="480.80032149939984" text-anchor="start" dominant-baseline="alphabetic">Booking</text></g><g><g><rect fill="white" stroke="none" x="469.205245363698" y="424.45392254719997" width="394.8479617903125" height="22.86928462"/></g><text fill="black" stroke="none" font-family="sans-serif" font-size="11pt" font-style="normal" font-weight="normal" text-decoration="normal" x="471.844008973698" y="440.2865042072" text-anchor="start" dominant-baseline="alphabetic">WalkIn(startDate, endDate r, c, arrivalTime, roomStatus)</text></g><g><path fill="none" stroke="black" paint-order="fill stroke markers" d=" M 443.9903930903646 447.32320716719994 L 886.3360998606771 447.32320716719994" stroke-miterlimit="10" stroke-width="1.4659797833333332" stroke-dasharray=""/><g transform="translate(889.2680594273438,447.32320716719994) translate(-889.2680594273438,-447.32320716719994)"><path fill="black" stroke="none" paint-order="stroke fill markers" d=" M 874.6082615940105 439.9933082505333 L 889.2680594273438 447.32320716719994 L 874.6082615940105 454.6531060838666 Z"/></g></g><g><g><rect fill="white" stroke="none" x="674.1254555803483" y="513.9607841983999" width="5.27752722" height="22.86928462"/></g><text fill="black" stroke="none" font-family="sans-serif" font-size="11pt" font-style="normal" font-weight="normal" text-decoration="normal" x="676.7642191903483" y="529.7933658583999" text-anchor="start" dominant-baseline="alphabetic"></text></g><g><path fill="none" stroke="black" paint-order="fill stroke markers" d=" M 909.5380452903321 536.8300688183999 L 446.92235265703124 536.8300688183999" stroke-miterlimit="10" stroke-width="1.4659797833333332" stroke-dasharray="7.0367029599999995"/><g transform="translate(443.9903930903646,536.8300688183999) translate(-443.9903930903646,-536.8300688183999)"><path fill="black" stroke="none" paint-order="stroke fill markers" d=" M 458.65019092369795 529.5001699017332 L 443.9903930903646 536.8300688183999 L 458.65019092369795 544.1599677350666 Z"/></g></g><g><g><rect fill="white" stroke="none" x="309.8854257106055" y="563.2177049183999" width="5.27752722" height="22.86928462"/></g><text fill="black" stroke="none" font-family="sans-serif" font-size="11pt" font-style="normal" font-weight="normal" text-decoration="normal" x="312.5241893206055" y="579.0502865783999" text-anchor="start" dominant-baseline="alphabetic"></text></g><g><path fill="none" stroke="black" paint-order="fill stroke markers" d=" M 426.3986356903646 586.0869895384 L 201.58170251751304 586.0869895384" stroke-miterlimit="10" stroke-width="1.4659797833333332" stroke-dasharray="7.0367029599999995"/><g transform="translate(198.64974295084636,586.0869895384) translate(-198.64974295084636,-586.0869895384)"><path fill="black" stroke="none" paint-order="stroke fill markers" d=" M 213.3095407841797 578.7570906217333 L 198.64974295084636 586.0869895384 L 213.3095407841797 593.4168884550667 Z"/></g></g><g><g><rect fill="white" stroke="none" x="219.46665587417968" y="612.4746256384" width="108.46290624832031" height="22.86928462"/></g><text fill="black" stroke="none" font-family="sans-serif" font-size="11pt" font-style="normal" font-weight="normal" text-decoration="normal" x="222.1054194841797" y="628.3072072983999" text-anchor="start" dominant-baseline="alphabetic">update display</text></g><g><path fill="none" stroke="black" paint-order="fill stroke markers" d=" M 198.64974295084636 635.3439102584 L 269.0167725508463 635.3439102584 L 269.0167725508463 652.9356676584 L 201.58170251751304 652.9356676584" stroke-miterlimit="10" stroke-width="1.4659797833333332" stroke-dasharray=""/><g transform="translate(198.64974295084636,652.9356676584) translate(-198.64974295084636,-652.9356676584)"><path fill="black" stroke="none" paint-order="stroke fill markers" d=" M 213.3095407841797 645.6057687417333 L 198.64974295084636 652.9356676584 L 213.3095407841797 660.2655665750667 Z"/></g></g><g><g><rect fill="white" stroke="none" x="100.33576830790365" y="679.3233037584" width="5.27752722" height="22.86928462"/></g><text fill="black" stroke="none" font-family="sans-serif" font-size="11pt" font-style="normal" font-weight="normal" text-decoration="normal" x="102.97453191790365" y="695.1558854184" text-anchor="start" dominant-baseline="alphabetic"></text></g><g><path fill="none" stroke="black" paint-order="fill stroke markers" d=" M 181.05798555084635 702.1925883784 L 27.823037851627603 702.1925883784" stroke-miterlimit="10" stroke-width="1.4659797833333332" stroke-dasharray="7.0367029599999995"/><g transform="translate(24.891078284960937,702.1925883784) translate(-24.891078284960937,-702.1925883784)"><path fill="black" stroke="none" paint-order="stroke fill markers" d=" M 39.55087611829427 694.8626894617333 L 24.891078284960937 702.1925883784 L 39.55087611829427 709.5224872950668 Z"/></g></g></g><g/><g/><g/></g></svg>