<svg version="1.1" xmlns="http://www.w3.org/2000/svg" xmlns:xlink="http://www.w3.org/1999/xlink" width="501" height="473"><defs/><g><g/><g/><g/><g/><g/><g><rect fill="white" stroke="none" x="0" y="0" width="501" height="473"/></g><g><text fill="black" stroke="none" font-family="sans-serif" font-size="16.5pt" font-style="normal" font-weight="normal" text-decoration="normal" x="146.98029447021293" y="26.3876361" text-anchor="start" dominant-baseline="alphabetic">Add Walk-in ACE(2)</text></g><g/><g><path fill="none" stroke="black" paint-order="fill stroke markers" d=" M 24.891078284960937 139.67855375599999 L 24.891078284960937 473.9219443559999" stroke-miterlimit="10" stroke-width="1.4659797833333332" stroke-dasharray="13.532121076923076,5.863919133333333"/><path fill="none" stroke="black" paint-order="fill stroke markers" d=" M 206.25891958658855 139.67855375599999 L 206.25891958658855 473.9219443559999" stroke-miterlimit="10" stroke-width="1.4659797833333332" stroke-dasharray="13.532121076923076,5.863919133333333"/><path fill="none" stroke="black" paint-order="fill stroke markers" d=" M 379.02435583925785 139.67855375599999 L 379.02435583925785 473.9219443559999" stroke-miterlimit="10" stroke-width="1.4659797833333332" stroke-dasharray="13.532121076923076,5.863919133333333"/><path fill="none" stroke="black" paint-order="fill stroke markers" d=" M 463.93868942743757 139.67855375599999 L 463.93868942743757 473.9219443559999" stroke-miterlimit="10" stroke-width="1.4659797833333332" stroke-dasharray="13.532121076923076,5.863919133333333"/></g><g><g><path fill="white" stroke="black" paint-order="fill stroke markers" d=" M 34.91838000296094 65.265419954 A 10.027301717999999 10.027301717999999 0 1 1 34.91837498931049 65.25539265395321 M 24.891078284960937 75.29272167199998 L 24.891078284960937 96.75466569999998 M 12.225012956960938 83.033094928 L 37.557143612960935 83.033094928 M 24.891078284960937 96.75466569999998 L 12.225012956960938 116.80926913599998 M 24.891078284960937 96.75466569999998 L 37.557143612960935 116.80926913599998" stroke-miterlimit="10" stroke-width="2.990598758" stroke-dasharray=""/></g><g><g/><text fill="black" stroke="none" font-family="sans-serif" font-size="11pt" font-style="normal" font-weight="normal" text-decoration="normal" x="8.7958787" y="134.401026536" text-anchor="start" dominant-baseline="alphabetic">Staff</text></g><g><path fill="white" stroke="black" paint-order="fill stroke markers" d=" M 232.38267932558855 89.19021001799997 A 26.123759739 26.123759739 0 1 1 232.38266626370978 89.16408626261492 M 202.74056810658854 63.06645027899997 L 213.29562254658853 54.27057157899998 M 202.74056810658854 63.06645027899997 L 213.29562254658853 71.86232897899997" stroke-miterlimit="10" stroke-width="2.990598758" stroke-dasharray=""/></g><g><g/><text fill="black" stroke="none" font-family="sans-serif" font-size="11pt" font-style="normal" font-weight="normal" text-decoration="normal" x="151.93177877848308" y="134.401026536" text-anchor="start" dominant-baseline="alphabetic">BookingSystem</text></g><path fill="none" stroke="none"/><g><path fill="white" stroke="black" paint-order="fill stroke markers" d=" M 340.7676442140664 92.18080877599999 L 417.2810674644492 92.18080877599999 L 417.2810674644492 139.67855375599999 L 340.7676442140664 139.67855375599999 L 340.7676442140664 92.18080877599999 Z" stroke-miterlimit="10" stroke-width="2.814681184" stroke-dasharray=""/></g><g><g/><text fill="black" stroke="none" font-family="sans-serif" font-size="11pt" font-style="normal" font-weight="normal" text-decoration="normal" x="359.85470099306644" y="122.08679635600001" text-anchor="start" dominant-baseline="alphabetic">Hotel</text></g><g><path fill="white" stroke="black" paint-order="fill stroke markers" d=" M 490.06244916643755 86.79773101159998 A 26.123759739 26.123759739 0 1 1 490.0624361045588 86.77160725621492 M 436.31963030943757 115.31396975699997 L 488.56714978743753 115.31396975699997" stroke-miterlimit="10" stroke-width="2.990598758" stroke-dasharray=""/></g><g><g/><text fill="black" stroke="none" font-family="sans-serif" font-size="11pt" font-style="normal" font-weight="normal" text-decoration="normal" x="434.8728248644493" y="134.401026536" text-anchor="start" dominant-baseline="alphabetic">Booking</text></g></g><g><path fill="white" stroke="black" paint-order="fill stroke markers" d=" M 197.46304088658854 197.73135317599997 L 215.05479828658855 197.73135317599997 L 215.05479828658855 412.3507934559999 L 197.46304088658854 412.3507934559999 L 197.46304088658854 197.73135317599997" stroke-miterlimit="10" stroke-width="1.4659797833333332" stroke-dasharray=""/><path fill="white" stroke="black" paint-order="fill stroke markers" d=" M 16.095199584960938 313.83695201599994 L 33.686956984960936 313.83695201599994 L 33.686956984960936 363.0938727359999 L 16.095199584960938 363.0938727359999 L 16.095199584960938 313.83695201599994" stroke-miterlimit="10" stroke-width="1.4659797833333332" stroke-dasharray=""/><g><g><rect fill="white" stroke="none" x="53.91051887616537" y="174.86206855599997" width="114.53308141921875" height="22.86928462"/></g><text fill="black" stroke="none" font-family="sans-serif" font-size="11pt" font-style="normal" font-weight="normal" text-decoration="normal" x="56.54928248616537" y="190.69465021599999" text-anchor="start" dominant-baseline="alphabetic">displayAllRoom</text></g><g><path fill="none" stroke="black" paint-order="fill stroke markers" d=" M 24.891078284960937 197.73135317599997 L 194.53108131992187 197.73135317599997" stroke-miterlimit="10" stroke-width="1.4659797833333332" stroke-dasharray=""/><g transform="translate(197.46304088658854,197.73135317599997) translate(-197.46304088658854,-197.73135317599997)"><path fill="black" stroke="none" paint-order="stroke fill markers" d=" M 182.80324305325522 190.4014542593333 L 197.46304088658854 197.73135317599997 L 182.80324305325522 205.06125209266665 Z"/></g></g><g><g><rect fill="white" stroke="none" x="235.87171120992187" y="224.11898927599998" width="136.99552953933593" height="22.86928462"/></g><text fill="black" stroke="none" font-family="sans-serif" font-size="11pt" font-style="normal" font-weight="normal" text-decoration="normal" x="238.51047481992188" y="239.951570936" text-anchor="start" dominant-baseline="alphabetic">checkOverBooking</text></g><g><path fill="none" stroke="black" paint-order="fill stroke markers" d=" M 215.05479828658855 246.98827389599995 L 285.4218278865885 246.98827389599995 L 285.4218278865885 264.58003129599996 L 217.98675785325523 264.58003129599996" stroke-miterlimit="10" stroke-width="1.4659797833333332" stroke-dasharray=""/><g transform="translate(215.05479828658855,264.58003129599996) translate(-215.05479828658855,-264.58003129599996)"><path fill="black" stroke="none" paint-order="stroke fill markers" d=" M 229.71459611992188 257.2501323793333 L 215.05479828658855 264.58003129599996 L 229.71459611992188 271.9099302126666 Z"/></g></g><g><g><rect fill="white" stroke="none" x="54.50386990829428" y="290.96766739599997" width="122.14225805496093" height="22.86928462"/></g><text fill="black" stroke="none" font-family="sans-serif" font-size="11pt" font-style="normal" font-weight="normal" text-decoration="normal" x="57.142633518294275" y="306.800249056" text-anchor="start" dominant-baseline="alphabetic">confirmOverFill()</text></g><g><path fill="none" stroke="black" paint-order="fill stroke markers" d=" M 197.46304088658854 313.83695201599994 L 36.618916551627606 313.83695201599994" stroke-miterlimit="10" stroke-width="1.4659797833333332" stroke-dasharray=""/><g transform="translate(33.686956984960936,313.83695201599994) translate(-33.686956984960936,-313.83695201599994)"><path fill="black" stroke="none" paint-order="stroke fill markers" d=" M 48.34675481829427 306.5070530993333 L 33.686956984960936 313.83695201599994 L 48.34675481829427 321.1668509326666 Z"/></g></g><g><g><rect fill="white" stroke="none" x="73.1509951524349" y="340.22458811599995" width="84.84800756667968" height="22.86928462"/></g><text fill="black" stroke="none" font-family="sans-serif" font-size="11pt" font-style="normal" font-weight="normal" text-decoration="normal" x="75.7897587624349" y="356.05716977599997" text-anchor="start" dominant-baseline="alphabetic">return false</text></g><g><path fill="none" stroke="black" paint-order="fill stroke markers" d=" M 33.686956984960936 363.0938727359999 L 194.53108131992187 363.0938727359999" stroke-miterlimit="10" stroke-width="1.4659797833333332" stroke-dasharray="7.0367029599999995"/><g transform="translate(197.46304088658854,363.0938727359999) translate(-197.46304088658854,-363.0938727359999)"><path fill="black" stroke="none" paint-order="stroke fill markers" d=" M 182.80324305325522 355.7639738193333 L 197.46304088658854 363.0938727359999 L 182.80324305325522 370.4237716526666 Z"/></g></g><g><g><rect fill="white" stroke="none" x="108.53829597577474" y="389.48150883599993" width="5.27752722" height="22.86928462"/></g><text fill="black" stroke="none" font-family="sans-serif" font-size="11pt" font-style="normal" font-weight="normal" text-decoration="normal" x="111.17705958577474" y="405.31409049599995" text-anchor="start" dominant-baseline="alphabetic"></text></g><g><path fill="none" stroke="black" paint-order="fill stroke markers" d=" M 197.46304088658854 412.3507934559999 L 27.823037851627603 412.3507934559999" stroke-miterlimit="10" stroke-width="1.4659797833333332" stroke-dasharray="7.0367029599999995"/><g transform="translate(24.891078284960937,412.3507934559999) translate(-24.891078284960937,-412.3507934559999)"><path fill="black" stroke="none" paint-order="stroke fill markers" d=" M 39.55087611829427 405.02089453933326 L 24.891078284960937 412.3507934559999 L 39.55087611829427 419.68069237266656 Z"/></g></g></g><g/><g/><g/><g/></g></svg>