<svg version="1.1" xmlns="http://www.w3.org/2000/svg" xmlns:xlink="http://www.w3.org/1999/xlink" width="752" height="769"><defs/><g><g/><g/><g/><g/><g/><g/><g/><g/><g/><g/><g/><g><rect fill="white" stroke="none" x="0" y="0" width="752" height="769"/></g><g><text fill="black" stroke="none" font-family="sans-serif" font-size="16.5pt" font-style="normal" font-weight="normal" text-decoration="normal" x="242.91997112729496" y="26.3876361" text-anchor="start" dominant-baseline="alphabetic">Administrator Log-in BCE</text></g><g/><g><path fill="none" stroke="black" paint-order="fill stroke markers" d=" M 40.22394113896485 139.67855375599999 L 40.22394113896485 769.4634686759999" stroke-miterlimit="10" stroke-width="1.4659797833333332" stroke-dasharray="13.532121076923076,5.863919133333333"/><path fill="none" stroke="black" paint-order="fill stroke markers" d=" M 219.01478659098308 139.67855375599999 L 219.01478659098308 769.4634686759999" stroke-miterlimit="10" stroke-width="1.4659797833333332" stroke-dasharray="13.532121076923076,5.863919133333333"/><path fill="none" stroke="black" paint-order="fill stroke markers" d=" M 431.7068771601888 139.67855375599999 L 431.7068771601888 769.4634686759999" stroke-miterlimit="10" stroke-width="1.4659797833333332" stroke-dasharray="13.532121076923076,5.863919133333333"/><path fill="none" stroke="black" paint-order="fill stroke markers" d=" M 667.942272172754 139.67855375599999 L 667.942272172754 769.4634686759999" stroke-miterlimit="10" stroke-width="1.4659797833333332" stroke-dasharray="13.532121076923076,5.863919133333333"/></g><g><g><path fill="white" stroke="black" paint-order="fill stroke markers" d=" M 50.25124285696484 65.265419954 A 10.027301717999999 10.027301717999999 0 1 1 50.25123784331441 65.25539265395321 M 40.22394113896485 75.29272167199998 L 40.22394113896485 96.75466569999998 M 27.55787581096485 83.033094928 L 52.89000646696485 83.033094928 M 40.22394113896485 96.75466569999998 L 27.55787581096485 116.80926913599998 M 40.22394113896485 96.75466569999998 L 52.89000646696485 116.80926913599998" stroke-miterlimit="10" stroke-width="2.990598758" stroke-dasharray=""/></g><g><g/><text fill="black" stroke="none" font-family="sans-serif" font-size="11pt" font-style="normal" font-weight="normal" text-decoration="normal" x="8.795878700000003" y="134.401026536" text-anchor="start" dominant-baseline="alphabetic">Manager</text></g><g><path fill="white" stroke="black" paint-order="fill stroke markers" d=" M 245.1385463299831 89.19021001799997 A 26.123759739 26.123759739 0 1 1 245.1385332681043 89.16408626261492 M 215.49643511098307 63.06645027899997 L 226.05148955098306 54.27057157899998 M 215.49643511098307 63.06645027899997 L 226.05148955098306 71.86232897899997" stroke-miterlimit="10" stroke-width="2.990598758" stroke-dasharray=""/></g><g><g/><text fill="black" stroke="none" font-family="sans-serif" font-size="11pt" font-style="normal" font-weight="normal" text-decoration="normal" x="164.6876457828776" y="134.401026536" text-anchor="start" dominant-baseline="alphabetic">BookingSystem</text></g><path fill="none" stroke="none"/><g><path fill="white" stroke="black" paint-order="fill stroke markers" d=" M 393.4501655349974 92.18080877599999 L 469.9635887853802 92.18080877599999 L 469.9635887853802 139.67855375599999 L 393.4501655349974 139.67855375599999 L 393.4501655349974 92.18080877599999 Z" stroke-miterlimit="10" stroke-width="2.814681184" stroke-dasharray=""/></g><g><g/><text fill="black" stroke="none" font-family="sans-serif" font-size="11pt" font-style="normal" font-weight="normal" text-decoration="normal" x="412.5372223139974" y="122.08679635600001" text-anchor="start" dominant-baseline="alphabetic">Hotel</text></g><g><path fill="white" stroke="black" paint-order="fill stroke markers" d=" M 694.066031911754 86.79773101159998 A 26.123759739 26.123759739 0 1 1 694.0660188498751 86.77160725621492 M 640.323213054754 115.31396975699997 L 692.5707325327539 115.31396975699997" stroke-miterlimit="10" stroke-width="2.990598758" stroke-dasharray=""/></g><g><g/><text fill="black" stroke="none" font-family="sans-serif" font-size="11pt" font-style="normal" font-weight="normal" text-decoration="normal" x="591.972316728418" y="134.401026536" text-anchor="start" dominant-baseline="alphabetic">BookingManagement</text></g></g><g><path fill="white" stroke="black" paint-order="fill stroke markers" d=" M 210.21890789098308 197.73135317599997 L 227.81066529098308 197.73135317599997 L 227.81066529098308 707.8923177759999 L 210.21890789098308 707.8923177759999 L 210.21890789098308 197.73135317599997" stroke-miterlimit="10" stroke-width="1.4659797833333332" stroke-dasharray=""/><path fill="white" stroke="black" paint-order="fill stroke markers" d=" M 31.428062438964847 246.98827389599995 L 49.01981983896485 246.98827389599995 L 49.01981983896485 394.7590360559999 L 31.428062438964847 394.7590360559999 L 31.428062438964847 246.98827389599995" stroke-miterlimit="10" stroke-width="1.4659797833333332" stroke-dasharray=""/><path fill="white" stroke="black" paint-order="fill stroke markers" d=" M 422.9109984601888 394.7590360559999 L 440.5027558601888 394.7590360559999 L 440.5027558601888 591.7867189359999 L 422.9109984601888 591.7867189359999 L 422.9109984601888 394.7590360559999" stroke-miterlimit="10" stroke-width="1.4659797833333332" stroke-dasharray=""/><path fill="white" stroke="black" paint-order="fill stroke markers" d=" M 659.146393472754 493.27287749599986 L 676.738150872754 493.27287749599986 L 676.738150872754 542.5297982159999 L 659.146393472754 542.5297982159999 L 659.146393472754 493.27287749599986" stroke-miterlimit="10" stroke-width="1.4659797833333332" stroke-dasharray=""/><g><g><rect fill="white" stroke="none" x="99.9198038493099" y="174.86206855599997" width="50.60324133132812" height="22.86928462"/></g><text fill="black" stroke="none" font-family="sans-serif" font-size="11pt" font-style="normal" font-weight="normal" text-decoration="normal" x="102.5585674593099" y="190.69465021599999" text-anchor="start" dominant-baseline="alphabetic">login()</text></g><g><path fill="none" stroke="black" paint-order="fill stroke markers" d=" M 40.22394113896485 197.73135317599997 L 207.2869483243164 197.73135317599997" stroke-miterlimit="10" stroke-width="1.4659797833333332" stroke-dasharray=""/><g transform="translate(210.21890789098308,197.73135317599997) translate(-210.21890789098308,-197.73135317599997)"><path fill="black" stroke="none" paint-order="stroke fill markers" d=" M 195.55911005764975 190.4014542593333 L 210.21890789098308 197.73135317599997 L 195.55911005764975 205.06125209266665 Z"/></g></g><g><g><rect fill="white" stroke="none" x="81.57257260604818" y="224.11898927599995" width="96.09358251785156" height="22.86928462"/></g><text fill="black" stroke="none" font-family="sans-serif" font-size="11pt" font-style="normal" font-weight="normal" text-decoration="normal" x="84.21133621604818" y="239.95157093599997" text-anchor="start" dominant-baseline="alphabetic">getAccount()</text></g><g><path fill="none" stroke="black" paint-order="fill stroke markers" d=" M 210.21890789098308 246.98827389599995 L 51.95177940563151 246.98827389599995" stroke-miterlimit="10" stroke-width="1.4659797833333332" stroke-dasharray=""/><g transform="translate(49.01981983896485,246.98827389599995) translate(-49.01981983896485,-246.98827389599995)"><path fill="black" stroke="none" paint-order="stroke fill markers" d=" M 63.67961767229818 239.65837497933327 L 49.01981983896485 246.98827389599995 L 63.67961767229818 254.31817281266663 Z"/></g></g><g><g><rect fill="white" stroke="none" x="75.46306790634115" y="273.37590999599996" width="108.31259191726562" height="22.86928462"/></g><text fill="black" stroke="none" font-family="sans-serif" font-size="11pt" font-style="normal" font-weight="normal" text-decoration="normal" x="78.10183151634115" y="289.208491656" text-anchor="start" dominant-baseline="alphabetic">return account</text></g><g><path fill="none" stroke="black" paint-order="fill stroke markers" d=" M 49.01981983896485 296.24519461599994 L 207.2869483243164 296.24519461599994" stroke-miterlimit="10" stroke-width="1.4659797833333332" stroke-dasharray="7.0367029599999995"/><g transform="translate(210.21890789098308,296.24519461599994) translate(-210.21890789098308,-296.24519461599994)"><path fill="black" stroke="none" paint-order="stroke fill markers" d=" M 195.55911005764975 288.9152956993333 L 210.21890789098308 296.24519461599994 L 195.55911005764975 303.5750935326666 Z"/></g></g><g><g><rect fill="white" stroke="none" x="77.24902524276693" y="322.63283071599994" width="104.74067724441406" height="22.86928462"/></g><text fill="black" stroke="none" font-family="sans-serif" font-size="11pt" font-style="normal" font-weight="normal" text-decoration="normal" x="79.88778885276693" y="338.46541237599996" text-anchor="start" dominant-baseline="alphabetic">getPassword()</text></g><g><path fill="none" stroke="black" paint-order="fill stroke markers" d=" M 210.21890789098308 345.5021153359999 L 51.95177940563151 345.5021153359999" stroke-miterlimit="10" stroke-width="1.4659797833333332" stroke-dasharray=""/><g transform="translate(49.01981983896485,345.5021153359999) translate(-49.01981983896485,-345.5021153359999)"><path fill="black" stroke="none" paint-order="stroke fill markers" d=" M 63.67961767229818 338.17221641933327 L 49.01981983896485 345.5021153359999 L 63.67961767229818 352.83201425266657 Z"/></g></g><g><g><rect fill="white" stroke="none" x="69.83673276229818" y="371.8897514359999" width="119.56526220535156" height="22.86928462"/></g><text fill="black" stroke="none" font-family="sans-serif" font-size="11pt" font-style="normal" font-weight="normal" text-decoration="normal" x="72.47549637229818" y="387.72233309599994" text-anchor="start" dominant-baseline="alphabetic">return password</text></g><g><path fill="none" stroke="black" paint-order="fill stroke markers" d=" M 49.01981983896485 394.7590360559999 L 207.2869483243164 394.7590360559999" stroke-miterlimit="10" stroke-width="1.4659797833333332" stroke-dasharray="7.0367029599999995"/><g transform="translate(210.21890789098308,394.7590360559999) translate(-210.21890789098308,-394.7590360559999)"><path fill="black" stroke="none" paint-order="stroke fill markers" d=" M 195.55911005764975 387.42913713933325 L 210.21890789098308 394.7590360559999 L 195.55911005764975 402.08893497266655 Z"/></g></g><g><g><rect fill="white" stroke="none" x="248.62757821431643" y="421.1466721559999" width="153.46650732253906" height="22.86928462"/></g><text fill="black" stroke="none" font-family="sans-serif" font-size="11pt" font-style="normal" font-weight="normal" text-decoration="normal" x="251.26634182431644" y="436.9792538159999" text-anchor="start" dominant-baseline="alphabetic">getAccount(acc,pass)</text></g><g><path fill="none" stroke="black" paint-order="fill stroke markers" d=" M 227.81066529098308 444.0159567759999 L 419.97903889352216 444.0159567759999" stroke-miterlimit="10" stroke-width="1.4659797833333332" stroke-dasharray=""/><g transform="translate(422.9109984601888,444.0159567759999) translate(-422.9109984601888,-444.0159567759999)"><path fill="black" stroke="none" paint-order="stroke fill markers" d=" M 408.25120062685545 436.68605785933323 L 422.9109984601888 444.0159567759999 L 408.25120062685545 451.34585569266653 Z"/></g></g><g><g><rect fill="white" stroke="none" x="461.3196687835221" y="470.4035928759999" width="177.00981176589843" height="22.86928462"/></g><text fill="black" stroke="none" font-family="sans-serif" font-size="11pt" font-style="normal" font-weight="normal" text-decoration="normal" x="463.9584323935221" y="486.2361745359999" text-anchor="start" dominant-baseline="alphabetic">*checkAccount(acc,pass)</text></g><g><path fill="none" stroke="black" paint-order="fill stroke markers" d=" M 440.5027558601888 493.27287749599986 L 656.2144339060873 493.27287749599986" stroke-miterlimit="10" stroke-width="1.4659797833333332" stroke-dasharray=""/><g transform="translate(659.146393472754,493.27287749599986) translate(-659.146393472754,-493.27287749599986)"><path fill="black" stroke="none" paint-order="stroke fill markers" d=" M 644.4865956394207 485.9429785793332 L 659.146393472754 493.27287749599986 L 644.4865956394207 500.6027764126665 Z"/></g></g><g><g><rect fill="white" stroke="none" x="509.29033376154945" y="519.6605135959999" width="81.06848180984375" height="22.86928462"/></g><text fill="black" stroke="none" font-family="sans-serif" font-size="11pt" font-style="normal" font-weight="normal" text-decoration="normal" x="511.92909737154946" y="535.4930952559998" text-anchor="start" dominant-baseline="alphabetic">return ture</text></g><g><path fill="none" stroke="black" paint-order="fill stroke markers" d=" M 659.146393472754 542.5297982159999 L 443.43471542685546 542.5297982159999" stroke-miterlimit="10" stroke-width="1.4659797833333332" stroke-dasharray="7.0367029599999995"/><g transform="translate(440.5027558601888,542.5297982159999) translate(-440.5027558601888,-542.5297982159999)"><path fill="black" stroke="none" paint-order="stroke fill markers" d=" M 455.16255369352217 535.1998992993332 L 440.5027558601888 542.5297982159999 L 455.16255369352217 549.8596971326666 Z"/></g></g><g><g><rect fill="white" stroke="none" x="284.8265909706641" y="568.9174343159999" width="81.06848180984375" height="22.86928462"/></g><text fill="black" stroke="none" font-family="sans-serif" font-size="11pt" font-style="normal" font-weight="normal" text-decoration="normal" x="287.4653545806641" y="584.7500159759999" text-anchor="start" dominant-baseline="alphabetic">return ture</text></g><g><path fill="none" stroke="black" paint-order="fill stroke markers" d=" M 422.9109984601888 591.7867189359999 L 230.74262485764976 591.7867189359999" stroke-miterlimit="10" stroke-width="1.4659797833333332" stroke-dasharray="7.0367029599999995"/><g transform="translate(227.81066529098308,591.7867189359999) translate(-227.81066529098308,-591.7867189359999)"><path fill="black" stroke="none" paint-order="stroke fill markers" d=" M 242.4704631243164 584.4568200193332 L 227.81066529098308 591.7867189359999 L 242.4704631243164 599.1166178526666 Z"/></g></g><g><g><rect fill="white" stroke="none" x="248.6275782143164" y="618.1743550359998" width="92.48587072585937" height="22.86928462"/></g><text fill="black" stroke="none" font-family="sans-serif" font-size="11pt" font-style="normal" font-weight="normal" text-decoration="normal" x="251.2663418243164" y="634.0069366959998" text-anchor="start" dominant-baseline="alphabetic">showMenu()</text></g><g><path fill="none" stroke="black" paint-order="fill stroke markers" d=" M 227.81066529098308 641.0436396559999 L 298.17769489098305 641.0436396559999 L 298.17769489098305 658.6353970559999 L 230.74262485764976 658.6353970559999" stroke-miterlimit="10" stroke-width="1.4659797833333332" stroke-dasharray=""/><g transform="translate(227.81066529098308,658.6353970559999) translate(-227.81066529098308,-658.6353970559999)"><path fill="black" stroke="none" paint-order="stroke fill markers" d=" M 242.4704631243164 651.3054981393332 L 227.81066529098308 658.6353970559999 L 242.4704631243164 665.9652959726666 Z"/></g></g><g><g><rect fill="white" stroke="none" x="122.58266090497396" y="685.0230331559999" width="5.27752722" height="22.86928462"/></g><text fill="black" stroke="none" font-family="sans-serif" font-size="11pt" font-style="normal" font-weight="normal" text-decoration="normal" x="125.22142451497396" y="700.8556148159998" text-anchor="start" dominant-baseline="alphabetic"></text></g><g><path fill="none" stroke="black" paint-order="fill stroke markers" d=" M 210.21890789098308 707.8923177759999 L 43.15590070563151 707.8923177759999" stroke-miterlimit="10" stroke-width="1.4659797833333332" stroke-dasharray="7.0367029599999995"/><g transform="translate(40.22394113896485,707.8923177759999) translate(-40.22394113896485,-707.8923177759999)"><path fill="black" stroke="none" paint-order="stroke fill markers" d=" M 54.883738972298175 700.5624188593332 L 40.22394113896485 707.8923177759999 L 54.883738972298175 715.2222166926666 Z"/></g></g></g><g/><g/><g/><g/></g></svg>