<svg version="1.1" xmlns="http://www.w3.org/2000/svg" xmlns:xlink="http://www.w3.org/1999/xlink" width="597" height="540"><defs/><g><g/><g/><g/><g/><g/><g/><g><rect fill="white" stroke="none" x="0" y="0" width="597" height="540"/></g><g><text fill="black" stroke="none" font-family="sans-serif" font-size="16.5pt" font-style="normal" font-weight="normal" text-decoration="normal" x="156.98997998657035" y="26.3876361" text-anchor="start" dominant-baseline="alphabetic">Administrator Log-out BCE</text></g><g/><g><path fill="none" stroke="black" paint-order="fill stroke markers" d=" M 40.22394113896485 139.67855375599999 L 40.22394113896485 540.7706224759999" stroke-miterlimit="10" stroke-width="1.4659797833333332" stroke-dasharray="13.532121076923076,5.863919133333333"/><path fill="none" stroke="black" paint-order="fill stroke markers" d=" M 218.90028463785808 139.67855375599999 L 218.90028463785808 540.7706224759999" stroke-miterlimit="10" stroke-width="1.4659797833333332" stroke-dasharray="13.532121076923076,5.863919133333333"/><path fill="none" stroke="black" paint-order="fill stroke markers" d=" M 380.5919904217774 139.67855375599999 L 380.5919904217774 540.7706224759999" stroke-miterlimit="10" stroke-width="1.4659797833333332" stroke-dasharray="13.532121076923076,5.863919133333333"/><path fill="none" stroke="black" paint-order="fill stroke markers" d=" M 512.4104148913048 139.67855375599999 L 512.4104148913048 540.7706224759999" stroke-miterlimit="10" stroke-width="1.4659797833333332" stroke-dasharray="13.532121076923076,5.863919133333333"/></g><g><g><path fill="white" stroke="black" paint-order="fill stroke markers" d=" M 50.25124285696484 65.265419954 A 10.027301717999999 10.027301717999999 0 1 1 50.25123784331441 65.25539265395321 M 40.22394113896485 75.29272167199998 L 40.22394113896485 96.75466569999998 M 27.55787581096485 83.033094928 L 52.89000646696485 83.033094928 M 40.22394113896485 96.75466569999998 L 27.55787581096485 116.80926913599998 M 40.22394113896485 96.75466569999998 L 52.89000646696485 116.80926913599998" stroke-miterlimit="10" stroke-width="2.990598758" stroke-dasharray=""/></g><g><g/><text fill="black" stroke="none" font-family="sans-serif" font-size="11pt" font-style="normal" font-weight="normal" text-decoration="normal" x="8.795878700000003" y="134.401026536" text-anchor="start" dominant-baseline="alphabetic">Manager</text></g><g><path fill="white" stroke="black" paint-order="fill stroke markers" d=" M 245.0240443768581 89.19021001799997 A 26.123759739 26.123759739 0 1 1 245.0240313149793 89.16408626261492 M 215.38193315785807 63.06645027899997 L 225.93698759785806 54.27057157899998 M 215.38193315785807 63.06645027899997 L 225.93698759785806 71.86232897899997" stroke-miterlimit="10" stroke-width="2.990598758" stroke-dasharray=""/></g><g><g/><text fill="black" stroke="none" font-family="sans-serif" font-size="11pt" font-style="normal" font-weight="normal" text-decoration="normal" x="164.5731438297526" y="134.401026536" text-anchor="start" dominant-baseline="alphabetic">BookingSystem</text></g><path fill="none" stroke="none"/><g><path fill="white" stroke="black" paint-order="fill stroke markers" d=" M 342.33527879658595 92.18080877599999 L 418.84870204696875 92.18080877599999 L 418.84870204696875 139.67855375599999 L 342.33527879658595 139.67855375599999 L 342.33527879658595 92.18080877599999 Z" stroke-miterlimit="10" stroke-width="2.814681184" stroke-dasharray=""/></g><g><g/><text fill="black" stroke="none" font-family="sans-serif" font-size="11pt" font-style="normal" font-weight="normal" text-decoration="normal" x="361.422335575586" y="122.08679635600001" text-anchor="start" dominant-baseline="alphabetic">Hotel</text></g><g><path fill="white" stroke="black" paint-order="fill stroke markers" d=" M 538.5341746303047 86.79773101159998 A 26.123759739 26.123759739 0 1 1 538.5341615684259 86.77160725621492 M 484.79135577330476 115.31396975699997 L 537.0388752513047 115.31396975699997" stroke-miterlimit="10" stroke-width="2.990598758" stroke-dasharray=""/></g><g><g/><text fill="black" stroke="none" font-family="sans-serif" font-size="11pt" font-style="normal" font-weight="normal" text-decoration="normal" x="436.4404594469688" y="134.401026536" text-anchor="start" dominant-baseline="alphabetic">BookingManagement</text></g></g><g><path fill="white" stroke="black" paint-order="fill stroke markers" d=" M 210.10440593785808 197.73135317599997 L 227.69616333785808 197.73135317599997 L 227.69616333785808 479.1994715759999 L 210.10440593785808 479.1994715759999 L 210.10440593785808 197.73135317599997" stroke-miterlimit="10" stroke-width="1.4659797833333332" stroke-dasharray=""/><path fill="white" stroke="black" paint-order="fill stroke markers" d=" M 31.428062438964847 246.98827389599995 L 49.01981983896485 246.98827389599995 L 49.01981983896485 296.24519461599994 L 31.428062438964847 296.24519461599994 L 31.428062438964847 246.98827389599995" stroke-miterlimit="10" stroke-width="1.4659797833333332" stroke-dasharray=""/><g><g><rect fill="white" stroke="none" x="94.42232154950521" y="174.86206855599997" width="61.483703977812496" height="22.86928462"/></g><text fill="black" stroke="none" font-family="sans-serif" font-size="11pt" font-style="normal" font-weight="normal" text-decoration="normal" x="97.06108515950521" y="190.69465021599999" text-anchor="start" dominant-baseline="alphabetic">logout()</text></g><g><path fill="none" stroke="black" paint-order="fill stroke markers" d=" M 40.22394113896485 197.73135317599997 L 207.1724463711914 197.73135317599997" stroke-miterlimit="10" stroke-width="1.4659797833333332" stroke-dasharray=""/><g transform="translate(210.10440593785808,197.73135317599997) translate(-210.10440593785808,-197.73135317599997)"><path fill="black" stroke="none" paint-order="stroke fill markers" d=" M 195.44460810452475 190.4014542593333 L 210.10440593785808 197.73135317599997 L 195.44460810452475 205.06125209266665 Z"/></g></g><g><g><rect fill="white" stroke="none" x="69.83673276229818" y="224.11898927599995" width="119.45076025222656" height="22.86928462"/></g><text fill="black" stroke="none" font-family="sans-serif" font-size="11pt" font-style="normal" font-weight="normal" text-decoration="normal" x="72.47549637229818" y="239.95157093599997" text-anchor="start" dominant-baseline="alphabetic">acruireConfirm()</text></g><g><path fill="none" stroke="black" paint-order="fill stroke markers" d=" M 210.10440593785808 246.98827389599995 L 51.95177940563151 246.98827389599995" stroke-miterlimit="10" stroke-width="1.4659797833333332" stroke-dasharray=""/><g transform="translate(49.01981983896485,246.98827389599995) translate(-49.01981983896485,-246.98827389599995)"><path fill="black" stroke="none" paint-order="stroke fill markers" d=" M 63.67961767229818 239.65837497933327 L 49.01981983896485 246.98827389599995 L 63.67961767229818 254.31817281266663 Z"/></g></g><g><g><rect fill="white" stroke="none" x="89.02787198348959" y="273.37590999599996" width="81.06848180984375" height="22.86928462"/></g><text fill="black" stroke="none" font-family="sans-serif" font-size="11pt" font-style="normal" font-weight="normal" text-decoration="normal" x="91.66663559348959" y="289.208491656" text-anchor="start" dominant-baseline="alphabetic">return true</text></g><g><path fill="none" stroke="black" paint-order="fill stroke markers" d=" M 49.01981983896485 296.24519461599994 L 207.1724463711914 296.24519461599994" stroke-miterlimit="10" stroke-width="1.4659797833333332" stroke-dasharray="7.0367029599999995"/><g transform="translate(210.10440593785808,296.24519461599994) translate(-210.10440593785808,-296.24519461599994)"><path fill="black" stroke="none" paint-order="stroke fill markers" d=" M 195.44460810452475 288.9152956993333 L 210.10440593785808 296.24519461599994 L 195.44460810452475 303.5750935326666 Z"/></g></g><g><g><rect fill="white" stroke="none" x="248.5130762611914" y="322.63283071599994" width="125.92179907058593" height="22.86928462"/></g><text fill="black" stroke="none" font-family="sans-serif" font-size="11pt" font-style="normal" font-weight="normal" text-decoration="normal" x="251.1518398711914" y="338.46541237599996" text-anchor="start" dominant-baseline="alphabetic">removeAccount()</text></g><g><path fill="none" stroke="black" paint-order="fill stroke markers" d=" M 227.69616333785808 345.5021153359999 L 298.06319293785805 345.5021153359999 L 298.06319293785805 363.0938727359999 L 230.62812290452476 363.0938727359999" stroke-miterlimit="10" stroke-width="1.4659797833333332" stroke-dasharray=""/><g transform="translate(227.69616333785808,363.0938727359999) translate(-227.69616333785808,-363.0938727359999)"><path fill="black" stroke="none" paint-order="stroke fill markers" d=" M 242.3559611711914 355.7639738193333 L 227.69616333785808 363.0938727359999 L 242.3559611711914 370.4237716526666 Z"/></g></g><g><g><rect fill="white" stroke="none" x="248.5130762611914" y="389.48150883599993" width="90.93254125808593" height="22.86928462"/></g><text fill="black" stroke="none" font-family="sans-serif" font-size="11pt" font-style="normal" font-weight="normal" text-decoration="normal" x="251.1518398711914" y="405.31409049599995" text-anchor="start" dominant-baseline="alphabetic">showLogin()</text></g><g><path fill="none" stroke="black" paint-order="fill stroke markers" d=" M 227.69616333785808 412.3507934559999 L 298.06319293785805 412.3507934559999 L 298.06319293785805 429.9425508559999 L 230.62812290452476 429.9425508559999" stroke-miterlimit="10" stroke-width="1.4659797833333332" stroke-dasharray=""/><g transform="translate(227.69616333785808,429.9425508559999) translate(-227.69616333785808,-429.9425508559999)"><path fill="black" stroke="none" paint-order="stroke fill markers" d=" M 242.3559611711914 422.61265193933326 L 227.69616333785808 429.9425508559999 L 242.3559611711914 437.27244977266656 Z"/></g></g><g><g><rect fill="white" stroke="none" x="122.52540992841146" y="456.3301869559999" width="5.27752722" height="22.86928462"/></g><text fill="black" stroke="none" font-family="sans-serif" font-size="11pt" font-style="normal" font-weight="normal" text-decoration="normal" x="125.16417353841146" y="472.16276861599994" text-anchor="start" dominant-baseline="alphabetic"></text></g><g><path fill="none" stroke="black" paint-order="fill stroke markers" d=" M 210.10440593785808 479.1994715759999 L 43.15590070563151 479.1994715759999" stroke-miterlimit="10" stroke-width="1.4659797833333332" stroke-dasharray="7.0367029599999995"/><g transform="translate(40.22394113896485,479.1994715759999) translate(-40.22394113896485,-479.1994715759999)"><path fill="black" stroke="none" paint-order="stroke fill markers" d=" M 54.883738972298175 471.86957265933324 L 40.22394113896485 479.1994715759999 L 54.883738972298175 486.52937049266654 Z"/></g></g></g><g/><g/><g/><g/></g></svg>