<svg version="1.1" xmlns="http://www.w3.org/2000/svg" xmlns:xlink="http://www.w3.org/1999/xlink" width="733" height="670"><defs/><g><g/><g/><g/><g/><g/><g/><g/><g/><g/><g><rect fill="white" stroke="none" x="0" y="0" width="733" height="670"/></g><g><text fill="black" stroke="none" font-family="sans-serif" font-size="16.5pt" font-style="normal" font-weight="normal" text-decoration="normal" x="245.70468172172855" y="26.3876361" text-anchor="start" dominant-baseline="alphabetic">Clear Room Status BCE</text></g><g/><g><path fill="none" stroke="black" paint-order="fill stroke markers" d=" M 24.891078284960937 139.67855375599999 L 24.891078284960937 670.949627236" stroke-miterlimit="10" stroke-width="1.4659797833333332" stroke-dasharray="13.532121076923076,5.863919133333333"/><path fill="none" stroke="black" paint-order="fill stroke markers" d=" M 286.2747932059245 139.67855375599999 L 286.2747932059245 670.949627236" stroke-miterlimit="10" stroke-width="1.4659797833333332" stroke-dasharray="13.532121076923076,5.863919133333333"/><path fill="none" stroke="black" paint-order="fill stroke markers" d=" M 489.94758140696615 139.67855375599999 L 489.94758140696615 670.949627236" stroke-miterlimit="10" stroke-width="1.4659797833333332" stroke-dasharray="13.532121076923076,5.863919133333333"/><path fill="none" stroke="black" paint-order="fill stroke markers" d=" M 695.2468389304688 139.67855375599999 L 695.2468389304688 670.949627236" stroke-miterlimit="10" stroke-width="1.4659797833333332" stroke-dasharray="13.532121076923076,5.863919133333333"/></g><g><g><path fill="white" stroke="black" paint-order="fill stroke markers" d=" M 34.91838000296094 65.265419954 A 10.027301717999999 10.027301717999999 0 1 1 34.91837498931049 65.25539265395321 M 24.891078284960937 75.29272167199998 L 24.891078284960937 96.75466569999998 M 12.225012956960938 83.033094928 L 37.557143612960935 83.033094928 M 24.891078284960937 96.75466569999998 L 12.225012956960938 116.80926913599998 M 24.891078284960937 96.75466569999998 L 37.557143612960935 116.80926913599998" stroke-miterlimit="10" stroke-width="2.990598758" stroke-dasharray=""/></g><g><g/><text fill="black" stroke="none" font-family="sans-serif" font-size="11pt" font-style="normal" font-weight="normal" text-decoration="normal" x="8.7958787" y="134.401026536" text-anchor="start" dominant-baseline="alphabetic">Staff</text></g><g><path fill="white" stroke="black" paint-order="fill stroke markers" d=" M 312.39855294492446 89.19021001799997 A 26.123759739 26.123759739 0 1 1 312.3985398830457 89.16408626261492 M 282.7564417259245 63.06645027899997 L 293.3114961659245 54.27057157899998 M 282.7564417259245 63.06645027899997 L 293.3114961659245 71.86232897899997" stroke-miterlimit="10" stroke-width="2.990598758" stroke-dasharray=""/></g><g><g/><text fill="black" stroke="none" font-family="sans-serif" font-size="11pt" font-style="normal" font-weight="normal" text-decoration="normal" x="231.947652397819" y="134.401026536" text-anchor="start" dominant-baseline="alphabetic">BookingSystem</text></g><path fill="none" stroke="none"/><g><path fill="white" stroke="black" paint-order="fill stroke markers" d=" M 451.6908697817747 92.18080877599999 L 528.2042930321576 92.18080877599999 L 528.2042930321576 139.67855375599999 L 451.6908697817747 139.67855375599999 L 451.6908697817747 92.18080877599999 Z" stroke-miterlimit="10" stroke-width="2.814681184" stroke-dasharray=""/></g><g><g/><text fill="black" stroke="none" font-family="sans-serif" font-size="11pt" font-style="normal" font-weight="normal" text-decoration="normal" x="470.77792656077474" y="122.08679635600001" text-anchor="start" dominant-baseline="alphabetic">Hotel</text></g><g><path fill="white" stroke="black" paint-order="fill stroke markers" d=" M 721.3705986694688 86.79773101159998 A 26.123759739 26.123759739 0 1 1 721.37058560759 86.77160725621492 M 667.6277798124688 115.31396975699997 L 719.8752992904688 115.31396975699997" stroke-miterlimit="10" stroke-width="2.990598758" stroke-dasharray=""/></g><g><g/><text fill="black" stroke="none" font-family="sans-serif" font-size="11pt" font-style="normal" font-weight="normal" text-decoration="normal" x="666.1809743674805" y="134.401026536" text-anchor="start" dominant-baseline="alphabetic">Booking</text></g></g><g><path fill="white" stroke="black" paint-order="fill stroke markers" d=" M 277.4789145059245 197.73135317599997 L 295.0706719059245 197.73135317599997 L 295.0706719059245 296.24519461599994 L 277.4789145059245 296.24519461599994 L 277.4789145059245 197.73135317599997" stroke-miterlimit="10" stroke-width="1.4659797833333332" stroke-dasharray=""/><path fill="white" stroke="black" paint-order="fill stroke markers" d=" M 277.4789145059245 345.5021153359999 L 295.0706719059245 345.5021153359999 L 295.0706719059245 609.378476336 L 277.4789145059245 609.378476336 L 277.4789145059245 345.5021153359999" stroke-miterlimit="10" stroke-width="1.4659797833333332" stroke-dasharray=""/><path fill="white" stroke="black" paint-order="fill stroke markers" d=" M 481.15170270696615 394.7590360559999 L 498.74346010696615 394.7590360559999 L 498.74346010696615 560.1215556159999 L 481.15170270696615 560.1215556159999 L 481.15170270696615 394.7590360559999" stroke-miterlimit="10" stroke-width="1.4659797833333332" stroke-dasharray=""/><g><g><rect fill="white" stroke="none" x="45.707991208294274" y="174.86206855599997" width="210.95401037429687" height="22.86928462"/></g><text fill="black" stroke="none" font-family="sans-serif" font-size="11pt" font-style="normal" font-weight="normal" text-decoration="normal" x="48.34675481829427" y="190.69465021599999" text-anchor="start" dominant-baseline="alphabetic">SelectBooking(roomNumber)</text></g><g><path fill="none" stroke="black" paint-order="fill stroke markers" d=" M 24.891078284960937 197.73135317599997 L 274.54695493925783 197.73135317599997" stroke-miterlimit="10" stroke-width="1.4659797833333332" stroke-dasharray=""/><g transform="translate(277.4789145059245,197.73135317599997) translate(-277.4789145059245,-197.73135317599997)"><path fill="black" stroke="none" paint-order="stroke fill markers" d=" M 262.8191166725911 190.4014542593333 L 277.4789145059245 197.73135317599997 L 262.8191166725911 205.06125209266665 Z"/></g></g><g><g><rect fill="white" stroke="none" x="448.8907880118099" y="224.11898927599995" width="92.53593481277343" height="22.86928462"/></g><text fill="black" stroke="none" font-family="sans-serif" font-size="11pt" font-style="normal" font-weight="normal" text-decoration="normal" x="451.5295516218099" y="239.95157093599997" text-anchor="start" dominant-baseline="alphabetic">*getDetails()</text></g><g><path fill="none" stroke="black" paint-order="fill stroke markers" d=" M 295.0706719059245 246.98827389599995 L 692.3148793638021 246.98827389599995" stroke-miterlimit="10" stroke-width="1.4659797833333332" stroke-dasharray=""/><g transform="translate(695.2468389304688,246.98827389599995) translate(-695.2468389304688,-246.98827389599995)"><path fill="black" stroke="none" paint-order="stroke fill markers" d=" M 680.5870410971355 239.65837497933327 L 695.2468389304688 246.98827389599995 L 680.5870410971355 254.31817281266663 Z"/></g></g><g><g><rect fill="white" stroke="none" x="148.5462327854427" y="273.37590999599996" width="5.27752722" height="22.86928462"/></g><text fill="black" stroke="none" font-family="sans-serif" font-size="11pt" font-style="normal" font-weight="normal" text-decoration="normal" x="151.1849963954427" y="289.208491656" text-anchor="start" dominant-baseline="alphabetic"></text></g><g><path fill="none" stroke="black" paint-order="fill stroke markers" d=" M 277.4789145059245 296.24519461599994 L 27.823037851627603 296.24519461599994" stroke-miterlimit="10" stroke-width="1.4659797833333332" stroke-dasharray="7.0367029599999995"/><g transform="translate(24.891078284960937,296.24519461599994) translate(-24.891078284960937,-296.24519461599994)"><path fill="black" stroke="none" paint-order="stroke fill markers" d=" M 39.55087611829427 288.9152956993333 L 24.891078284960937 296.24519461599994 L 39.55087611829427 303.5750935326666 Z"/></g></g><g><g><rect fill="white" stroke="none" x="86.37372454569662" y="322.63283071599994" width="129.62254369949218" height="22.86928462"/></g><text fill="black" stroke="none" font-family="sans-serif" font-size="11pt" font-style="normal" font-weight="normal" text-decoration="normal" x="89.01248815569662" y="338.46541237599996" text-anchor="start" dominant-baseline="alphabetic">clearStatus(room)</text></g><g><path fill="none" stroke="black" paint-order="fill stroke markers" d=" M 24.891078284960937 345.5021153359999 L 274.54695493925783 345.5021153359999" stroke-miterlimit="10" stroke-width="1.4659797833333332" stroke-dasharray=""/><g transform="translate(277.4789145059245,345.5021153359999) translate(-277.4789145059245,-345.5021153359999)"><path fill="black" stroke="none" paint-order="stroke fill markers" d=" M 262.8191166725911 338.17221641933327 L 277.4789145059245 345.5021153359999 L 262.8191166725911 352.83201425266657 Z"/></g></g><g><g><rect fill="white" stroke="none" x="315.88758482925783" y="371.8897514359999" width="144.447204954375" height="22.86928462"/></g><text fill="black" stroke="none" font-family="sans-serif" font-size="11pt" font-style="normal" font-weight="normal" text-decoration="normal" x="318.52634843925784" y="387.72233309599994" text-anchor="start" dominant-baseline="alphabetic">clearBooking(room)</text></g><g><path fill="none" stroke="black" paint-order="fill stroke markers" d=" M 295.0706719059245 394.7590360559999 L 478.2197431402995 394.7590360559999" stroke-miterlimit="10" stroke-width="1.4659797833333332" stroke-dasharray=""/><g transform="translate(481.15170270696615,394.7590360559999) translate(-481.15170270696615,-394.7590360559999)"><path fill="black" stroke="none" paint-order="stroke fill markers" d=" M 466.4919048736328 387.42913713933325 L 481.15170270696615 394.7590360559999 L 466.4919048736328 402.08893497266655 Z"/></g></g><g><g><rect fill="white" stroke="none" x="519.5603730302995" y="421.1466721559999" width="154.86955297683593" height="22.86928462"/></g><text fill="black" stroke="none" font-family="sans-serif" font-size="11pt" font-style="normal" font-weight="normal" text-decoration="normal" x="522.1991366402995" y="436.9792538159999" text-anchor="start" dominant-baseline="alphabetic">deleteBooking(room)</text></g><g><path fill="none" stroke="black" paint-order="fill stroke markers" d=" M 498.74346010696615 444.0159567759999 L 692.3148793638021 444.0159567759999" stroke-miterlimit="10" stroke-width="1.4659797833333332" stroke-dasharray=""/><g transform="translate(695.2468389304688,444.0159567759999) translate(-695.2468389304688,-444.0159567759999)"><path fill="black" stroke="none" paint-order="stroke fill markers" d=" M 680.5870410971355 436.68605785933323 L 695.2468389304688 444.0159567759999 L 680.5870410971355 451.34585569266653 Z"/></g></g><g><g><rect fill="white" stroke="none" x="519.5603730302995" y="470.4035928759999" width="146.00766027664062" height="22.86928462"/></g><text fill="black" stroke="none" font-family="sans-serif" font-size="11pt" font-style="normal" font-weight="normal" text-decoration="normal" x="522.1991366402995" y="486.2361745359999" text-anchor="start" dominant-baseline="alphabetic">updateStatus(room)</text></g><g><path fill="none" stroke="black" paint-order="fill stroke markers" d=" M 498.74346010696615 493.27287749599986 L 569.1104897069662 493.27287749599986 L 569.1104897069662 510.86463489599987 L 501.6754196736328 510.86463489599987" stroke-miterlimit="10" stroke-width="1.4659797833333332" stroke-dasharray=""/><g transform="translate(498.74346010696615,510.86463489599987) translate(-498.74346010696615,-510.86463489599987)"><path fill="black" stroke="none" paint-order="stroke fill markers" d=" M 513.4032579402995 503.5347359793332 L 498.74346010696615 510.86463489599987 L 513.4032579402995 518.1945338126666 Z"/></g></g><g><g><rect fill="white" stroke="none" x="385.47242369644533" y="537.2522709959999" width="5.27752722" height="22.86928462"/></g><text fill="black" stroke="none" font-family="sans-serif" font-size="11pt" font-style="normal" font-weight="normal" text-decoration="normal" x="388.11118730644534" y="553.0848526559998" text-anchor="start" dominant-baseline="alphabetic"></text></g><g><path fill="none" stroke="black" paint-order="fill stroke markers" d=" M 481.15170270696615 560.1215556159999 L 298.00263147259113 560.1215556159999" stroke-miterlimit="10" stroke-width="1.4659797833333332" stroke-dasharray="7.0367029599999995"/><g transform="translate(295.0706719059245,560.1215556159999) translate(-295.0706719059245,-560.1215556159999)"><path fill="black" stroke="none" paint-order="stroke fill markers" d=" M 309.73046973925784 552.7916566993332 L 295.0706719059245 560.1215556159999 L 309.73046973925784 567.4514545326666 Z"/></g></g><g><g><rect fill="white" stroke="none" x="148.5462327854427" y="586.5091917159999" width="5.27752722" height="22.86928462"/></g><text fill="black" stroke="none" font-family="sans-serif" font-size="11pt" font-style="normal" font-weight="normal" text-decoration="normal" x="151.1849963954427" y="602.3417733759999" text-anchor="start" dominant-baseline="alphabetic"></text></g><g><path fill="none" stroke="black" paint-order="fill stroke markers" d=" M 277.4789145059245 609.378476336 L 27.823037851627603 609.378476336" stroke-miterlimit="10" stroke-width="1.4659797833333332" stroke-dasharray="7.0367029599999995"/><g transform="translate(24.891078284960937,609.378476336) translate(-24.891078284960937,-609.378476336)"><path fill="black" stroke="none" paint-order="stroke fill markers" d=" M 39.55087611829427 602.0485774193332 L 24.891078284960937 609.378476336 L 39.55087611829427 616.7083752526667 Z"/></g></g></g><g/><g/><g/><g/></g></svg>