<svg version="1.1" xmlns="http://www.w3.org/2000/svg" xmlns:xlink="http://www.w3.org/1999/xlink" width="990" height="1265"><defs/><g><g/><g/><g/><g/><g/><g/><g/><g/><g/><g/><g/><g/><g/><g/><g/><g/><g/><g/><g/><g/><g><rect fill="white" stroke="none" x="0" y="0" width="990" height="1265"/></g><g><text fill="black" stroke="none" font-family="sans-serif" font-size="16.5pt" font-style="normal" font-weight="normal" text-decoration="normal" x="379.01576641896816" y="26.3876361" text-anchor="start" dominant-baseline="alphabetic">Cancel A Booking BCE</text></g><g/><g><path fill="none" stroke="black" paint-order="fill stroke markers" d=" M 24.0535691296875 139.67855375599999 L 24.0535691296875 1265.5510273559998" stroke-miterlimit="10" stroke-width="1.4659797833333332" stroke-dasharray="13.532121076923076,5.863919133333333"/><path fill="none" stroke="black" paint-order="fill stroke markers" d=" M 249.78792654459636 139.67855375599999 L 249.78792654459636 1265.5510273559998" stroke-miterlimit="10" stroke-width="1.4659797833333332" stroke-dasharray="13.532121076923076,5.863919133333333"/><path fill="none" stroke="black" paint-order="fill stroke markers" d=" M 503.49648134720053 139.67855375599999 L 503.49648134720053 1265.5510273559998" stroke-miterlimit="10" stroke-width="1.4659797833333332" stroke-dasharray="13.532121076923076,5.863919133333333"/><path fill="none" stroke="black" paint-order="fill stroke markers" d=" M 712.2088430527995 139.67855375599999 L 712.2088430527995 1265.5510273559998" stroke-miterlimit="10" stroke-width="1.4659797833333332" stroke-dasharray="13.532121076923076,5.863919133333333"/><path fill="none" stroke="black" paint-order="fill stroke markers" d=" M 818.0141045747644 139.67855375599999 L 818.0141045747644 1265.5510273559998" stroke-miterlimit="10" stroke-width="1.4659797833333332" stroke-dasharray="13.532121076923076,5.863919133333333"/><path fill="none" stroke="black" paint-order="fill stroke markers" d=" M 928.7835689775886 139.67855375599999 L 928.7835689775886 1265.5510273559998" stroke-miterlimit="10" stroke-width="1.4659797833333332" stroke-dasharray="13.532121076923076,5.863919133333333"/></g><g><g><path fill="white" stroke="black" paint-order="fill stroke markers" d=" M 34.0808708476875 65.265419954 A 10.027301717999999 10.027301717999999 0 1 1 34.080865834037056 65.25539265395321 M 24.0535691296875 75.29272167199998 L 24.0535691296875 96.75466569999998 M 11.387503801687501 83.033094928 L 36.7196344576875 83.033094928 M 24.0535691296875 96.75466569999998 L 11.387503801687501 116.80926913599998 M 24.0535691296875 96.75466569999998 L 36.7196344576875 116.80926913599998" stroke-miterlimit="10" stroke-width="2.990598758" stroke-dasharray=""/></g><g><g/><text fill="black" stroke="none" font-family="sans-serif" font-size="11pt" font-style="normal" font-weight="normal" text-decoration="normal" x="8.7958787" y="134.401026536" text-anchor="start" dominant-baseline="alphabetic">staff</text></g><g><path fill="white" stroke="black" paint-order="fill stroke markers" d=" M 275.91168628359634 86.79773101159998 A 26.123759739 26.123759739 0 1 1 275.9116732217176 86.77160725621492 M 222.16886742659636 115.31396975699997 L 274.4163869045963 115.31396975699997" stroke-miterlimit="10" stroke-width="2.990598758" stroke-dasharray=""/></g><g><g/><text fill="black" stroke="none" font-family="sans-serif" font-size="11pt" font-style="normal" font-weight="normal" text-decoration="normal" x="176.72778402750652" y="134.401026536" text-anchor="start" dominant-baseline="alphabetic">HotelManageSystem</text></g><g><path fill="white" stroke="black" paint-order="fill stroke markers" d=" M 529.6202410862005 89.19021001799997 A 26.123759739 26.123759739 0 1 1 529.6202280243217 89.16408626261492 M 499.97812986720055 63.06645027899997 L 510.53318430720054 54.27057157899998 M 499.97812986720055 63.06645027899997 L 510.53318430720054 71.86232897899997" stroke-miterlimit="10" stroke-width="2.990598758" stroke-dasharray=""/></g><g><g/><text fill="black" stroke="none" font-family="sans-serif" font-size="11pt" font-style="normal" font-weight="normal" text-decoration="normal" x="484.3268265010091" y="134.401026536" text-anchor="start" dominant-baseline="alphabetic">Hotel</text></g><path fill="none" stroke="none"/><g><path fill="white" stroke="black" paint-order="fill stroke markers" d=" M 664.0559217108112 92.18080877599999 L 760.3617643947878 92.18080877599999 L 760.3617643947878 139.67855375599999 L 664.0559217108112 139.67855375599999 L 664.0559217108112 92.18080877599999 Z" stroke-miterlimit="10" stroke-width="2.814681184" stroke-dasharray=""/></g><g><g/><text fill="black" stroke="none" font-family="sans-serif" font-size="11pt" font-style="normal" font-weight="normal" text-decoration="normal" x="683.1429784898112" y="122.08679635600001" text-anchor="start" dominant-baseline="alphabetic">Booking</text></g><path fill="none" stroke="none"/><g><path fill="white" stroke="black" paint-order="fill stroke markers" d=" M 777.9535217947878 92.18080877599999 L 858.074687354741 92.18080877599999 L 858.074687354741 139.67855375599999 L 777.9535217947878 139.67855375599999 L 777.9535217947878 92.18080877599999 Z" stroke-miterlimit="10" stroke-width="2.814681184" stroke-dasharray=""/></g><g><g/><text fill="black" stroke="none" font-family="sans-serif" font-size="11pt" font-style="normal" font-weight="normal" text-decoration="normal" x="797.0405785737878" y="122.08679635600001" text-anchor="start" dominant-baseline="alphabetic">Room</text></g><path fill="none" stroke="none"/><g><path fill="white" stroke="black" paint-order="fill stroke markers" d=" M 875.666444754741 92.18080877599999 L 981.9006932004363 92.18080877599999 L 981.9006932004363 139.67855375599999 L 875.666444754741 139.67855375599999 L 875.666444754741 92.18080877599999 Z" stroke-miterlimit="10" stroke-width="2.814681184" stroke-dasharray=""/></g><g><g/><text fill="black" stroke="none" font-family="sans-serif" font-size="11pt" font-style="normal" font-weight="normal" text-decoration="normal" x="894.753501533741" y="122.08679635600001" text-anchor="start" dominant-baseline="alphabetic">Customer</text></g></g><g><path fill="white" stroke="black" paint-order="fill stroke markers" d=" M 240.99204784459636 197.73135317599997 L 258.58380524459636 197.73135317599997 L 258.58380524459636 1203.9798764559998 L 240.99204784459636 1203.9798764559998 L 240.99204784459636 197.73135317599997" stroke-miterlimit="10" stroke-width="1.4659797833333332" stroke-dasharray=""/><path fill="white" stroke="black" paint-order="fill stroke markers" d=" M 494.7006026472005 246.98827389599995 L 512.2923600472005 246.98827389599995 L 512.2923600472005 560.1215556159999 L 494.7006026472005 560.1215556159999 L 494.7006026472005 246.98827389599995" stroke-miterlimit="10" stroke-width="1.4659797833333332" stroke-dasharray=""/><path fill="white" stroke="black" paint-order="fill stroke markers" d=" M 703.4129643527995 296.24519461599994 L 721.0047217527995 296.24519461599994 L 721.0047217527995 345.5021153359999 L 703.4129643527995 345.5021153359999 L 703.4129643527995 296.24519461599994" stroke-miterlimit="10" stroke-width="1.4659797833333332" stroke-dasharray=""/><path fill="white" stroke="black" paint-order="fill stroke markers" d=" M 809.2182258747644 394.7590360559999 L 826.8099832747644 394.7590360559999 L 826.8099832747644 444.0159567759999 L 809.2182258747644 444.0159567759999 L 809.2182258747644 394.7590360559999" stroke-miterlimit="10" stroke-width="1.4659797833333332" stroke-dasharray=""/><path fill="white" stroke="black" paint-order="fill stroke markers" d=" M 15.2576904296875 676.227154456 L 32.8494478296875 676.227154456 L 32.8494478296875 725.484075176 L 15.2576904296875 725.484075176 L 15.2576904296875 676.227154456" stroke-miterlimit="10" stroke-width="1.4659797833333332" stroke-dasharray=""/><path fill="white" stroke="black" paint-order="fill stroke markers" d=" M 15.2576904296875 841.589674016 L 32.8494478296875 841.589674016 L 32.8494478296875 890.846594736 L 15.2576904296875 890.846594736 L 15.2576904296875 841.589674016" stroke-miterlimit="10" stroke-width="1.4659797833333332" stroke-dasharray=""/><path fill="white" stroke="black" paint-order="fill stroke markers" d=" M 703.4129643527995 940.1035154560001 L 721.0047217527995 940.1035154560001 L 721.0047217527995 989.3604361760001 L 703.4129643527995 989.3604361760001 L 703.4129643527995 940.1035154560001" stroke-miterlimit="10" stroke-width="1.4659797833333332" stroke-dasharray=""/><path fill="white" stroke="black" paint-order="fill stroke markers" d=" M 919.9876902775886 1038.617356896 L 937.5794476775886 1038.617356896 L 937.5794476775886 1087.874277616 L 919.9876902775886 1087.874277616 L 919.9876902775886 1038.617356896" stroke-miterlimit="10" stroke-width="1.4659797833333332" stroke-dasharray=""/><g><g><rect fill="white" stroke="none" x="49.26842140302084" y="174.86206855599997" width="166.50877416824218" height="22.86928462"/></g><text fill="black" stroke="none" font-family="sans-serif" font-size="11pt" font-style="normal" font-weight="normal" text-decoration="normal" x="51.907185013020836" y="190.69465021599999" text-anchor="start" dominant-baseline="alphabetic">displayBookedRooms()</text></g><g><path fill="none" stroke="black" paint-order="fill stroke markers" d=" M 24.0535691296875 197.73135317599997 L 238.06008827792968 197.73135317599997" stroke-miterlimit="10" stroke-width="1.4659797833333332" stroke-dasharray=""/><g transform="translate(240.99204784459636,197.73135317599997) translate(-240.99204784459636,-197.73135317599997)"><path fill="black" stroke="none" paint-order="stroke fill markers" d=" M 226.33225001126303 190.4014542593333 L 240.99204784459636 197.73135317599997 L 226.33225001126303 205.06125209266665 Z"/></g></g><g><g><rect fill="white" stroke="none" x="306.4049906288672" y="224.11898927599995" width="140.4744266340625" height="22.86928462"/></g><text fill="black" stroke="none" font-family="sans-serif" font-size="11pt" font-style="normal" font-weight="normal" text-decoration="normal" x="309.0437542388672" y="239.95157093599997" text-anchor="start" dominant-baseline="alphabetic">getBookedRooms()</text></g><g><path fill="none" stroke="black" paint-order="fill stroke markers" d=" M 258.58380524459636 246.98827389599995 L 491.7686430805339 246.98827389599995" stroke-miterlimit="10" stroke-width="1.4659797833333332" stroke-dasharray=""/><g transform="translate(494.7006026472005,246.98827389599995) translate(-494.7006026472005,-246.98827389599995)"><path fill="black" stroke="none" paint-order="stroke fill markers" d=" M 480.04080481386717 239.65837497933327 L 494.7006026472005 246.98827389599995 L 480.04080481386717 254.31817281266663 Z"/></g></g><g><g><rect fill="white" stroke="none" x="547.2217644957617" y="273.37590999599996" width="121.26179540847656" height="22.86928462"/></g><text fill="black" stroke="none" font-family="sans-serif" font-size="11pt" font-style="normal" font-weight="normal" text-decoration="normal" x="549.8605281057617" y="289.208491656" text-anchor="start" dominant-baseline="alphabetic">getAllBookings()</text></g><g><path fill="none" stroke="black" paint-order="fill stroke markers" d=" M 512.2923600472005 296.24519461599994 L 700.4810047861328 296.24519461599994" stroke-miterlimit="10" stroke-width="1.4659797833333332" stroke-dasharray=""/><g transform="translate(703.4129643527995,296.24519461599994) translate(-703.4129643527995,-296.24519461599994)"><path fill="black" stroke="none" paint-order="stroke fill markers" d=" M 688.7531665194662 288.9152956993333 L 703.4129643527995 296.24519461599994 L 688.7531665194662 303.5750935326666 Z"/></g></g><g><g><rect fill="white" stroke="none" x="548.982697418125" y="322.63283071599994" width="117.73992956375" height="22.86928462"/></g><text fill="black" stroke="none" font-family="sans-serif" font-size="11pt" font-style="normal" font-weight="normal" text-decoration="normal" x="551.6214610281249" y="338.46541237599996" text-anchor="start" dominant-baseline="alphabetic">return bookings</text></g><g><path fill="none" stroke="black" paint-order="fill stroke markers" d=" M 703.4129643527995 345.5021153359999 L 515.2243196138672 345.5021153359999" stroke-miterlimit="10" stroke-width="1.4659797833333332" stroke-dasharray="7.0367029599999995"/><g transform="translate(512.2923600472005,345.5021153359999) translate(-512.2923600472005,-345.5021153359999)"><path fill="black" stroke="none" paint-order="stroke fill markers" d=" M 526.9521578805338 338.17221641933327 L 512.2923600472005 345.5021153359999 L 526.9521578805338 352.83201425266657 Z"/></g></g><g><g><rect fill="white" stroke="none" x="608.2167338187559" y="371.8897514359999" width="105.07711828445312" height="22.86928462"/></g><text fill="black" stroke="none" font-family="sans-serif" font-size="11pt" font-style="normal" font-weight="normal" text-decoration="normal" x="610.8554974287558" y="387.72233309599994" text-anchor="start" dominant-baseline="alphabetic">getAllRooms()</text></g><g><path fill="none" stroke="black" paint-order="fill stroke markers" d=" M 512.2923600472005 394.7590360559999 L 806.2862663080977 394.7590360559999" stroke-miterlimit="10" stroke-width="1.4659797833333332" stroke-dasharray=""/><g transform="translate(809.2182258747644,394.7590360559999) translate(-809.2182258747644,-394.7590360559999)"><path fill="black" stroke="none" paint-order="stroke fill markers" d=" M 794.5584280414311 387.42913713933325 L 809.2182258747644 394.7590360559999 L 794.5584280414311 402.08893497266655 Z"/></g></g><g><g><rect fill="white" stroke="none" x="612.0463846976621" y="421.1466721559999" width="97.41781652664062" height="22.86928462"/></g><text fill="black" stroke="none" font-family="sans-serif" font-size="11pt" font-style="normal" font-weight="normal" text-decoration="normal" x="614.6851483076621" y="436.9792538159999" text-anchor="start" dominant-baseline="alphabetic">return rooms</text></g><g><path fill="none" stroke="black" paint-order="fill stroke markers" d=" M 809.2182258747644 444.0159567759999 L 515.2243196138672 444.0159567759999" stroke-miterlimit="10" stroke-width="1.4659797833333332" stroke-dasharray="7.0367029599999995"/><g transform="translate(512.2923600472005,444.0159567759999) translate(-512.2923600472005,-444.0159567759999)"><path fill="black" stroke="none" paint-order="stroke fill markers" d=" M 526.9521578805338 436.68605785933323 L 512.2923600472005 444.0159567759999 L 526.9521578805338 451.34585569266653 Z"/></g></g><g><g><rect fill="white" stroke="none" x="533.1092729705339" y="470.4035928759999" width="164.14657629226562" height="22.86928462"/></g><text fill="black" stroke="none" font-family="sans-serif" font-size="11pt" font-style="normal" font-weight="normal" text-decoration="normal" x="535.7480365805338" y="486.2361745359999" text-anchor="start" dominant-baseline="alphabetic">getBookedRoomsList()</text></g><g><path fill="none" stroke="black" paint-order="fill stroke markers" d=" M 512.2923600472005 493.27287749599986 L 582.6593896472006 493.27287749599986 L 582.6593896472006 510.86463489599987 L 515.2243196138672 510.86463489599987" stroke-miterlimit="10" stroke-width="1.4659797833333332" stroke-dasharray=""/><g transform="translate(512.2923600472005,510.86463489599987) translate(-512.2923600472005,-510.86463489599987)"><path fill="black" stroke="none" paint-order="stroke fill markers" d=" M 526.9521578805338 503.5347359793332 L 512.2923600472005 510.86463489599987 L 526.9521578805338 518.1945338126666 Z"/></g></g><g><g><rect fill="white" stroke="none" x="279.4007181679297" y="537.2522709959999" width="194.4829715559375" height="22.86928462"/></g><text fill="black" stroke="none" font-family="sans-serif" font-size="11pt" font-style="normal" font-weight="normal" text-decoration="normal" x="282.0394817779297" y="553.0848526559998" text-anchor="start" dominant-baseline="alphabetic">return allBookedRoomsList</text></g><g><path fill="none" stroke="black" paint-order="fill stroke markers" d=" M 494.7006026472005 560.1215556159999 L 261.515764811263 560.1215556159999" stroke-miterlimit="10" stroke-width="1.4659797833333332" stroke-dasharray="7.0367029599999995"/><g transform="translate(258.58380524459636,560.1215556159999) translate(-258.58380524459636,-560.1215556159999)"><path fill="black" stroke="none" paint-order="stroke fill markers" d=" M 273.2436030779297 552.7916566993332 L 258.58380524459636 560.1215556159999 L 273.2436030779297 567.4514545326666 Z"/></g></g><g><g><rect fill="white" stroke="none" x="279.4007181679297" y="586.5091917159999" width="92.48587072585937" height="22.86928462"/></g><text fill="black" stroke="none" font-family="sans-serif" font-size="11pt" font-style="normal" font-weight="normal" text-decoration="normal" x="282.0394817779297" y="602.3417733759999" text-anchor="start" dominant-baseline="alphabetic">showMenu()</text></g><g><path fill="none" stroke="black" paint-order="fill stroke markers" d=" M 258.58380524459636 609.378476336 L 328.95083484459633 609.378476336 L 328.95083484459633 626.970233736 L 261.515764811263 626.970233736" stroke-miterlimit="10" stroke-width="1.4659797833333332" stroke-dasharray=""/><g transform="translate(258.58380524459636,626.970233736) translate(-258.58380524459636,-626.970233736)"><path fill="black" stroke="none" paint-order="stroke fill markers" d=" M 273.2436030779297 619.6403348193332 L 258.58380524459636 626.970233736 L 273.2436030779297 634.3001326526667 Z"/></g></g><g><g><rect fill="white" stroke="none" x="59.38577451034506" y="653.357869836" width="155.06994665359375" height="22.86928462"/></g><text fill="black" stroke="none" font-family="sans-serif" font-size="11pt" font-style="normal" font-weight="normal" text-decoration="normal" x="62.024538120345056" y="669.1904514959999" text-anchor="start" dominant-baseline="alphabetic">return bookedRooms</text></g><g><path fill="none" stroke="black" paint-order="fill stroke markers" d=" M 240.99204784459636 676.227154456 L 35.78140739635417 676.227154456" stroke-miterlimit="10" stroke-width="1.4659797833333332" stroke-dasharray="7.0367029599999995"/><g transform="translate(32.8494478296875,676.227154456) translate(-32.8494478296875,-676.227154456)"><path fill="black" stroke="none" paint-order="stroke fill markers" d=" M 47.509245663020835 668.8972555393333 L 32.8494478296875 676.227154456 L 47.509245663020835 683.5570533726667 Z"/></g></g><g><g><rect fill="white" stroke="none" x="57.45662869735678" y="702.614790556" width="158.9282382795703" height="22.86928462"/></g><text fill="black" stroke="none" font-family="sans-serif" font-size="11pt" font-style="normal" font-weight="normal" text-decoration="normal" x="60.095392307356775" y="718.447372216" text-anchor="start" dominant-baseline="alphabetic">selectRoomAndDate()</text></g><g><path fill="none" stroke="black" paint-order="fill stroke markers" d=" M 32.8494478296875 725.484075176 L 238.06008827792968 725.484075176" stroke-miterlimit="10" stroke-width="1.4659797833333332" stroke-dasharray=""/><g transform="translate(240.99204784459636,725.484075176) translate(-240.99204784459636,-725.484075176)"><path fill="black" stroke="none" paint-order="stroke fill markers" d=" M 226.33225001126303 718.1541762593333 L 240.99204784459636 725.484075176 L 226.33225001126303 732.8139740926667 Z"/></g></g><g><g><rect fill="white" stroke="none" x="279.4007181679297" y="751.8717112759999" width="92.48587072585937" height="22.86928462"/></g><text fill="black" stroke="none" font-family="sans-serif" font-size="11pt" font-style="normal" font-weight="normal" text-decoration="normal" x="282.0394817779297" y="767.7042929359999" text-anchor="start" dominant-baseline="alphabetic">showMenu()</text></g><g><path fill="none" stroke="black" paint-order="fill stroke markers" d=" M 258.58380524459636 774.740995896 L 328.95083484459633 774.740995896 L 328.95083484459633 792.332753296 L 261.515764811263 792.332753296" stroke-miterlimit="10" stroke-width="1.4659797833333332" stroke-dasharray=""/><g transform="translate(258.58380524459636,792.332753296) translate(-258.58380524459636,-792.332753296)"><path fill="black" stroke="none" paint-order="stroke fill markers" d=" M 273.2436030779297 785.0028543793333 L 258.58380524459636 792.332753296 L 273.2436030779297 799.6626522126667 Z"/></g></g><g><g><rect fill="white" stroke="none" x="57.449472325286465" y="818.720389396" width="158.94255102371093" height="22.86928462"/></g><text fill="black" stroke="none" font-family="sans-serif" font-size="11pt" font-style="normal" font-weight="normal" text-decoration="normal" x="60.08823593528646" y="834.5529710559999" text-anchor="start" dominant-baseline="alphabetic">getConfirmToCancel()</text></g><g><path fill="none" stroke="black" paint-order="fill stroke markers" d=" M 240.99204784459636 841.589674016 L 35.78140739635417 841.589674016" stroke-miterlimit="10" stroke-width="1.4659797833333332" stroke-dasharray=""/><g transform="translate(32.8494478296875,841.589674016) translate(-32.8494478296875,-841.589674016)"><path fill="black" stroke="none" paint-order="stroke fill markers" d=" M 47.509245663020835 834.2597750993333 L 32.8494478296875 841.589674016 L 47.509245663020835 848.9195729326667 Z"/></g></g><g><g><rect fill="white" stroke="none" x="83.58048428817709" y="867.977310116" width="106.68052709792968" height="22.86928462"/></g><text fill="black" stroke="none" font-family="sans-serif" font-size="11pt" font-style="normal" font-weight="normal" text-decoration="normal" x="86.21924789817709" y="883.809891776" text-anchor="start" dominant-baseline="alphabetic">return confirm</text></g><g><path fill="none" stroke="black" paint-order="fill stroke markers" d=" M 32.8494478296875 890.846594736 L 238.06008827792968 890.846594736" stroke-miterlimit="10" stroke-width="1.4659797833333332" stroke-dasharray="7.0367029599999995"/><g transform="translate(240.99204784459636,890.846594736) translate(-240.99204784459636,-890.846594736)"><path fill="black" stroke="none" paint-order="stroke fill markers" d=" M 226.33225001126303 883.5166958193333 L 240.99204784459636 890.846594736 L 226.33225001126303 898.1764936526667 Z"/></g></g><g><g><rect fill="white" stroke="none" x="381.2550908542252" y="917.234230836" width="199.4865878889453" height="22.86928462"/></g><text fill="black" stroke="none" font-family="sans-serif" font-size="11pt" font-style="normal" font-weight="normal" text-decoration="normal" x="383.8938544642252" y="933.066812496" text-anchor="start" dominant-baseline="alphabetic">removeAnExistingBooking()</text></g><g><path fill="none" stroke="black" paint-order="fill stroke markers" d=" M 258.58380524459636 940.1035154560001 L 700.4810047861328 940.1035154560001" stroke-miterlimit="10" stroke-width="1.4659797833333332" stroke-dasharray=""/><g transform="translate(703.4129643527995,940.1035154560001) translate(-703.4129643527995,-940.1035154560001)"><path fill="black" stroke="none" paint-order="stroke fill markers" d=" M 688.7531665194662 932.7736165393334 L 703.4129643527995 940.1035154560001 L 688.7531665194662 947.4334143726668 Z"/></g></g><g><g><rect fill="white" stroke="none" x="428.46342673069006" y="966.4911515560001" width="105.06991613601562" height="22.86928462"/></g><text fill="black" stroke="none" font-family="sans-serif" font-size="11pt" font-style="normal" font-weight="normal" text-decoration="normal" x="431.1021903406901" y="982.323733216" text-anchor="start" dominant-baseline="alphabetic">return success</text></g><g><path fill="none" stroke="black" paint-order="fill stroke markers" d=" M 703.4129643527995 989.3604361760001 L 261.515764811263 989.3604361760001" stroke-miterlimit="10" stroke-width="1.4659797833333332" stroke-dasharray=""/><g transform="translate(258.58380524459636,989.3604361760001) translate(-258.58380524459636,-989.3604361760001)"><path fill="black" stroke="none" paint-order="stroke fill markers" d=" M 273.2436030779297 982.0305372593334 L 258.58380524459636 989.3604361760001 L 273.2436030779297 996.6903350926668 Z"/></g></g><g><g><rect fill="white" stroke="none" x="479.7786751300965" y="1015.748072276" width="219.01414526199218" height="22.86928462"/></g><text fill="black" stroke="none" font-family="sans-serif" font-size="11pt" font-style="normal" font-weight="normal" text-decoration="normal" x="482.4174387400965" y="1031.5806539359999" text-anchor="start" dominant-baseline="alphabetic">removeCustomerInformation()</text></g><g><path fill="none" stroke="black" paint-order="fill stroke markers" d=" M 258.58380524459636 1038.617356896 L 917.0557307109219 1038.617356896" stroke-miterlimit="10" stroke-width="1.4659797833333332" stroke-dasharray=""/><g transform="translate(919.9876902775886,1038.617356896) translate(-919.9876902775886,-1038.617356896)"><path fill="black" stroke="none" paint-order="stroke fill markers" d=" M 905.3278924442553 1031.2874579793333 L 919.9876902775886 1038.617356896 L 905.3278924442553 1045.9472558126668 Z"/></g></g><g><g><rect fill="white" stroke="none" x="536.7507896930848" y="1065.004992996" width="105.06991613601562" height="22.86928462"/></g><text fill="black" stroke="none" font-family="sans-serif" font-size="11pt" font-style="normal" font-weight="normal" text-decoration="normal" x="539.3895533030848" y="1080.837574656" text-anchor="start" dominant-baseline="alphabetic">return success</text></g><g><path fill="none" stroke="black" paint-order="fill stroke markers" d=" M 919.9876902775886 1087.874277616 L 261.515764811263 1087.874277616" stroke-miterlimit="10" stroke-width="1.4659797833333332" stroke-dasharray=""/><g transform="translate(258.58380524459636,1087.874277616) translate(-258.58380524459636,-1087.874277616)"><path fill="black" stroke="none" paint-order="stroke fill markers" d=" M 273.2436030779297 1080.5443786993333 L 258.58380524459636 1087.874277616 L 273.2436030779297 1095.2041765326667 Z"/></g></g><g><g><rect fill="white" stroke="none" x="279.4007181679297" y="1114.261913716" width="92.48587072585937" height="22.86928462"/></g><text fill="black" stroke="none" font-family="sans-serif" font-size="11pt" font-style="normal" font-weight="normal" text-decoration="normal" x="282.0394817779297" y="1130.094495376" text-anchor="start" dominant-baseline="alphabetic">showMenu()</text></g><g><path fill="none" stroke="black" paint-order="fill stroke markers" d=" M 258.58380524459636 1137.131198336 L 328.95083484459633 1137.131198336 L 328.95083484459633 1154.722955736 L 261.515764811263 1154.722955736" stroke-miterlimit="10" stroke-width="1.4659797833333332" stroke-dasharray=""/><g transform="translate(258.58380524459636,1154.722955736) translate(-258.58380524459636,-1154.722955736)"><path fill="black" stroke="none" paint-order="stroke fill markers" d=" M 273.2436030779297 1147.3930568193332 L 258.58380524459636 1154.722955736 L 273.2436030779297 1162.0528546526666 Z"/></g></g><g><g><rect fill="white" stroke="none" x="79.98785041913412" y="1181.110591836" width="105.06991613601562" height="22.86928462"/></g><text fill="black" stroke="none" font-family="sans-serif" font-size="11pt" font-style="normal" font-weight="normal" text-decoration="normal" x="82.62661402913412" y="1196.9431734959999" text-anchor="start" dominant-baseline="alphabetic">return success</text></g><g><path fill="none" stroke="black" paint-order="fill stroke markers" d=" M 240.99204784459636 1203.9798764559998 L 26.985528696354166 1203.9798764559998" stroke-miterlimit="10" stroke-width="1.4659797833333332" stroke-dasharray="7.0367029599999995"/><g transform="translate(24.0535691296875,1203.9798764559998) translate(-24.0535691296875,-1203.9798764559998)"><path fill="black" stroke="none" paint-order="stroke fill markers" d=" M 38.71336696302083 1196.6499775393331 L 24.0535691296875 1203.9798764559998 L 38.71336696302083 1211.3097753726665 Z"/></g></g></g><g/><g/><g/><g/><g/><g/></g></svg>