<svg version="1.1" xmlns="http://www.w3.org/2000/svg" xmlns:xlink="http://www.w3.org/1999/xlink" width="843" height="737"><defs/><g><g/><g/><g/><g/><g/><g/><g/><g/><g/><g/><g><rect fill="white" stroke="none" x="0" y="0" width="843" height="737"/></g><g><text fill="black" stroke="none" font-family="sans-serif" font-size="16.5pt" font-style="normal" font-weight="normal" text-decoration="normal" x="267.42801445373766" y="26.3876361" text-anchor="start" dominant-baseline="alphabetic">Display All Rooms Status BCE</text></g><g/><g><path fill="none" stroke="black" paint-order="fill stroke markers" d=" M 24.0535691296875 139.67855375599999 L 24.0535691296875 737.798305356" stroke-miterlimit="10" stroke-width="1.4659797833333332" stroke-dasharray="13.532121076923076,5.863919133333333"/><path fill="none" stroke="black" paint-order="fill stroke markers" d=" M 242.11584240026042 139.67855375599999 L 242.11584240026042 737.798305356" stroke-miterlimit="10" stroke-width="1.4659797833333332" stroke-dasharray="13.532121076923076,5.863919133333333"/><path fill="none" stroke="black" paint-order="fill stroke markers" d=" M 478.83080589427084 139.67855375599999 L 478.83080589427084 737.798305356" stroke-miterlimit="10" stroke-width="1.4659797833333332" stroke-dasharray="13.532121076923076,5.863919133333333"/><path fill="none" stroke="black" paint-order="fill stroke markers" d=" M 688.6669621555338 139.67855375599999 L 688.6669621555338 737.798305356" stroke-miterlimit="10" stroke-width="1.4659797833333332" stroke-dasharray="13.532121076923076,5.863919133333333"/><path fill="none" stroke="black" paint-order="fill stroke markers" d=" M 794.4722236774987 139.67855375599999 L 794.4722236774987 737.798305356" stroke-miterlimit="10" stroke-width="1.4659797833333332" stroke-dasharray="13.532121076923076,5.863919133333333"/></g><g><g><path fill="white" stroke="black" paint-order="fill stroke markers" d=" M 34.0808708476875 65.265419954 A 10.027301717999999 10.027301717999999 0 1 1 34.080865834037056 65.25539265395321 M 24.0535691296875 75.29272167199998 L 24.0535691296875 96.75466569999998 M 11.387503801687501 83.033094928 L 36.7196344576875 83.033094928 M 24.0535691296875 96.75466569999998 L 11.387503801687501 116.80926913599998 M 24.0535691296875 96.75466569999998 L 36.7196344576875 116.80926913599998" stroke-miterlimit="10" stroke-width="2.990598758" stroke-dasharray=""/></g><g><g/><text fill="black" stroke="none" font-family="sans-serif" font-size="11pt" font-style="normal" font-weight="normal" text-decoration="normal" x="8.7958787" y="134.401026536" text-anchor="start" dominant-baseline="alphabetic">staff</text></g><g><path fill="white" stroke="black" paint-order="fill stroke markers" d=" M 268.2396021392604 86.79773101159998 A 26.123759739 26.123759739 0 1 1 268.23958907738165 86.77160725621492 M 214.49678328226042 115.31396975699997 L 266.7443027602604 115.31396975699997" stroke-miterlimit="10" stroke-width="2.990598758" stroke-dasharray=""/></g><g><g/><text fill="black" stroke="none" font-family="sans-serif" font-size="11pt" font-style="normal" font-weight="normal" text-decoration="normal" x="169.05569988317058" y="134.401026536" text-anchor="start" dominant-baseline="alphabetic">HotelManageSystem</text></g><g><path fill="white" stroke="black" paint-order="fill stroke markers" d=" M 504.9545656332708 89.19021001799997 A 26.123759739 26.123759739 0 1 1 504.95455257139207 89.16408626261492 M 475.31245441427086 63.06645027899997 L 485.86750885427085 54.27057157899998 M 475.31245441427086 63.06645027899997 L 485.86750885427085 71.86232897899997" stroke-miterlimit="10" stroke-width="2.990598758" stroke-dasharray=""/></g><g><g/><text fill="black" stroke="none" font-family="sans-serif" font-size="11pt" font-style="normal" font-weight="normal" text-decoration="normal" x="459.66115104807943" y="134.401026536" text-anchor="start" dominant-baseline="alphabetic">Hotel</text></g><path fill="none" stroke="none"/><g><path fill="white" stroke="black" paint-order="fill stroke markers" d=" M 640.5140408135455 92.18080877599999 L 736.8198834975221 92.18080877599999 L 736.8198834975221 139.67855375599999 L 640.5140408135455 139.67855375599999 L 640.5140408135455 92.18080877599999 Z" stroke-miterlimit="10" stroke-width="2.814681184" stroke-dasharray=""/></g><g><g/><text fill="black" stroke="none" font-family="sans-serif" font-size="11pt" font-style="normal" font-weight="normal" text-decoration="normal" x="659.6010975925456" y="122.08679635600001" text-anchor="start" dominant-baseline="alphabetic">Booking</text></g><path fill="none" stroke="none"/><g><path fill="white" stroke="black" paint-order="fill stroke markers" d=" M 754.4116408975221 92.18080877599999 L 834.5328064574753 92.18080877599999 L 834.5328064574753 139.67855375599999 L 754.4116408975221 139.67855375599999 L 754.4116408975221 92.18080877599999 Z" stroke-miterlimit="10" stroke-width="2.814681184" stroke-dasharray=""/></g><g><g/><text fill="black" stroke="none" font-family="sans-serif" font-size="11pt" font-style="normal" font-weight="normal" text-decoration="normal" x="773.4986976765222" y="122.08679635600001" text-anchor="start" dominant-baseline="alphabetic">Room</text></g></g><g><path fill="white" stroke="black" paint-order="fill stroke markers" d=" M 233.31996370026042 197.73135317599997 L 250.91172110026042 197.73135317599997 L 250.91172110026042 676.227154456 L 233.31996370026042 676.227154456 L 233.31996370026042 197.73135317599997" stroke-miterlimit="10" stroke-width="1.4659797833333332" stroke-dasharray=""/><path fill="white" stroke="black" paint-order="fill stroke markers" d=" M 470.03492719427084 246.98827389599995 L 487.62668459427084 246.98827389599995 L 487.62668459427084 560.1215556159999 L 470.03492719427084 560.1215556159999 L 470.03492719427084 246.98827389599995" stroke-miterlimit="10" stroke-width="1.4659797833333332" stroke-dasharray=""/><path fill="white" stroke="black" paint-order="fill stroke markers" d=" M 679.8710834555338 296.24519461599994 L 697.4628408555338 296.24519461599994 L 697.4628408555338 345.5021153359999 L 679.8710834555338 345.5021153359999 L 679.8710834555338 296.24519461599994" stroke-miterlimit="10" stroke-width="1.4659797833333332" stroke-dasharray=""/><path fill="white" stroke="black" paint-order="fill stroke markers" d=" M 785.6763449774987 394.7590360559999 L 803.2681023774987 394.7590360559999 L 803.2681023774987 444.0159567759999 L 785.6763449774987 444.0159567759999 L 785.6763449774987 394.7590360559999" stroke-miterlimit="10" stroke-width="1.4659797833333332" stroke-dasharray=""/><g><g><rect fill="white" stroke="none" x="44.87048205302084" y="174.86206855599997" width="167.63256872390625" height="22.86928462"/></g><text fill="black" stroke="none" font-family="sans-serif" font-size="11pt" font-style="normal" font-weight="normal" text-decoration="normal" x="47.509245663020835" y="190.69465021599999" text-anchor="start" dominant-baseline="alphabetic">displayAllRoomStatus()</text></g><g><path fill="none" stroke="black" paint-order="fill stroke markers" d=" M 24.0535691296875 197.73135317599997 L 230.38800413359374 197.73135317599997" stroke-miterlimit="10" stroke-width="1.4659797833333332" stroke-dasharray=""/><g transform="translate(233.31996370026042,197.73135317599997) translate(-233.31996370026042,-197.73135317599997)"><path fill="black" stroke="none" paint-order="stroke fill markers" d=" M 218.6601658669271 190.4014542593333 L 233.31996370026042 197.73135317599997 L 218.6601658669271 205.06125209266665 Z"/></g></g><g><g><rect fill="white" stroke="none" x="289.67421355240236" y="224.11898927599995" width="141.59822118972656" height="22.86928462"/></g><text fill="black" stroke="none" font-family="sans-serif" font-size="11pt" font-style="normal" font-weight="normal" text-decoration="normal" x="292.3129771624024" y="239.95157093599997" text-anchor="start" dominant-baseline="alphabetic">getAllRoomStatus()</text></g><g><path fill="none" stroke="black" paint-order="fill stroke markers" d=" M 250.91172110026042 246.98827389599995 L 467.1029676276042 246.98827389599995" stroke-miterlimit="10" stroke-width="1.4659797833333332" stroke-dasharray=""/><g transform="translate(470.03492719427084,246.98827389599995) translate(-470.03492719427084,-246.98827389599995)"><path fill="black" stroke="none" paint-order="stroke fill markers" d=" M 455.3751293609375 239.65837497933327 L 470.03492719427084 246.98827389599995 L 455.3751293609375 254.31817281266663 Z"/></g></g><g><g><rect fill="white" stroke="none" x="523.117986320664" y="273.37590999599996" width="121.26179540847656" height="22.86928462"/></g><text fill="black" stroke="none" font-family="sans-serif" font-size="11pt" font-style="normal" font-weight="normal" text-decoration="normal" x="525.756749930664" y="289.208491656" text-anchor="start" dominant-baseline="alphabetic">getAllBookings()</text></g><g><path fill="none" stroke="black" paint-order="fill stroke markers" d=" M 487.62668459427084 296.24519461599994 L 676.9391238888671 296.24519461599994" stroke-miterlimit="10" stroke-width="1.4659797833333332" stroke-dasharray=""/><g transform="translate(679.8710834555338,296.24519461599994) translate(-679.8710834555338,-296.24519461599994)"><path fill="black" stroke="none" paint-order="stroke fill markers" d=" M 665.2112856222005 288.9152956993333 L 679.8710834555338 296.24519461599994 L 665.2112856222005 303.5750935326666 Z"/></g></g><g><g><rect fill="white" stroke="none" x="524.8789192430273" y="322.63283071599994" width="117.73992956375" height="22.86928462"/></g><text fill="black" stroke="none" font-family="sans-serif" font-size="11pt" font-style="normal" font-weight="normal" text-decoration="normal" x="527.5176828530273" y="338.46541237599996" text-anchor="start" dominant-baseline="alphabetic">return bookings</text></g><g><path fill="none" stroke="black" paint-order="fill stroke markers" d=" M 679.8710834555338 345.5021153359999 L 490.5586441609375 345.5021153359999" stroke-miterlimit="10" stroke-width="1.4659797833333332" stroke-dasharray="7.0367029599999995"/><g transform="translate(487.62668459427084,345.5021153359999) translate(-487.62668459427084,-345.5021153359999)"><path fill="black" stroke="none" paint-order="stroke fill markers" d=" M 502.2864824276042 338.17221641933327 L 487.62668459427084 345.5021153359999 L 502.2864824276042 352.83201425266657 Z"/></g></g><g><g><rect fill="white" stroke="none" x="584.1129556436582" y="371.8897514359999" width="105.07711828445312" height="22.86928462"/></g><text fill="black" stroke="none" font-family="sans-serif" font-size="11pt" font-style="normal" font-weight="normal" text-decoration="normal" x="586.7517192536582" y="387.72233309599994" text-anchor="start" dominant-baseline="alphabetic">getAllRooms()</text></g><g><path fill="none" stroke="black" paint-order="fill stroke markers" d=" M 487.62668459427084 394.7590360559999 L 782.744385410832 394.7590360559999" stroke-miterlimit="10" stroke-width="1.4659797833333332" stroke-dasharray=""/><g transform="translate(785.6763449774987,394.7590360559999) translate(-785.6763449774987,-394.7590360559999)"><path fill="black" stroke="none" paint-order="stroke fill markers" d=" M 771.0165471441654 387.42913713933325 L 785.6763449774987 394.7590360559999 L 771.0165471441654 402.08893497266655 Z"/></g></g><g><g><rect fill="white" stroke="none" x="587.9426065225645" y="421.1466721559999" width="97.41781652664062" height="22.86928462"/></g><text fill="black" stroke="none" font-family="sans-serif" font-size="11pt" font-style="normal" font-weight="normal" text-decoration="normal" x="590.5813701325644" y="436.9792538159999" text-anchor="start" dominant-baseline="alphabetic">return rooms</text></g><g><path fill="none" stroke="black" paint-order="fill stroke markers" d=" M 785.6763449774987 444.0159567759999 L 490.5586441609375 444.0159567759999" stroke-miterlimit="10" stroke-width="1.4659797833333332" stroke-dasharray="7.0367029599999995"/><g transform="translate(487.62668459427084,444.0159567759999) translate(-487.62668459427084,-444.0159567759999)"><path fill="black" stroke="none" paint-order="stroke fill markers" d=" M 502.2864824276042 436.68605785933323 L 487.62668459427084 444.0159567759999 L 502.2864824276042 451.34585569266653 Z"/></g></g><g><g><rect fill="white" stroke="none" x="508.4435975176042" y="470.4035928759999" width="165.27037084792968" height="22.86928462"/></g><text fill="black" stroke="none" font-family="sans-serif" font-size="11pt" font-style="normal" font-weight="normal" text-decoration="normal" x="511.0823611276042" y="486.2361745359999" text-anchor="start" dominant-baseline="alphabetic">getAllRoomStatusList()</text></g><g><path fill="none" stroke="black" paint-order="fill stroke markers" d=" M 487.62668459427084 493.27287749599986 L 557.9937141942709 493.27287749599986 L 557.9937141942709 510.86463489599987 L 490.5586441609375 510.86463489599987" stroke-miterlimit="10" stroke-width="1.4659797833333332" stroke-dasharray=""/><g transform="translate(487.62668459427084,510.86463489599987) translate(-487.62668459427084,-510.86463489599987)"><path fill="black" stroke="none" paint-order="stroke fill markers" d=" M 502.2864824276042 503.5347359793332 L 487.62668459427084 510.86463489599987 L 502.2864824276042 518.1945338126666 Z"/></g></g><g><g><rect fill="white" stroke="none" x="271.72863402359377" y="537.2522709959999" width="177.48938024734375" height="22.86928462"/></g><text fill="black" stroke="none" font-family="sans-serif" font-size="11pt" font-style="normal" font-weight="normal" text-decoration="normal" x="274.3673976335938" y="553.0848526559998" text-anchor="start" dominant-baseline="alphabetic">return allRoomStatusList</text></g><g><path fill="none" stroke="black" paint-order="fill stroke markers" d=" M 470.03492719427084 560.1215556159999 L 253.8436806669271 560.1215556159999" stroke-miterlimit="10" stroke-width="1.4659797833333332" stroke-dasharray="7.0367029599999995"/><g transform="translate(250.91172110026042,560.1215556159999) translate(-250.91172110026042,-560.1215556159999)"><path fill="black" stroke="none" paint-order="stroke fill markers" d=" M 265.5715189335938 552.7916566993332 L 250.91172110026042 560.1215556159999 L 265.5715189335938 567.4514545326666 Z"/></g></g><g><g><rect fill="white" stroke="none" x="271.72863402359377" y="586.5091917159999" width="92.48587072585937" height="22.86928462"/></g><text fill="black" stroke="none" font-family="sans-serif" font-size="11pt" font-style="normal" font-weight="normal" text-decoration="normal" x="274.3673976335938" y="602.3417733759999" text-anchor="start" dominant-baseline="alphabetic">showMenu()</text></g><g><path fill="none" stroke="black" paint-order="fill stroke markers" d=" M 250.91172110026042 609.378476336 L 321.2787507002604 609.378476336 L 321.2787507002604 626.970233736 L 253.8436806669271 626.970233736" stroke-miterlimit="10" stroke-width="1.4659797833333332" stroke-dasharray=""/><g transform="translate(250.91172110026042,626.970233736) translate(-250.91172110026042,-626.970233736)"><path fill="black" stroke="none" paint-order="stroke fill markers" d=" M 265.5715189335938 619.6403348193332 L 250.91172110026042 626.970233736 L 265.5715189335938 634.3001326526667 Z"/></g></g><g><g><rect fill="white" stroke="none" x="51.77815112040365" y="653.357869836" width="153.81723058914062" height="22.86928462"/></g><text fill="black" stroke="none" font-family="sans-serif" font-size="11pt" font-style="normal" font-weight="normal" text-decoration="normal" x="54.41691473040365" y="669.1904514959999" text-anchor="start" dominant-baseline="alphabetic">return allRoomStatus</text></g><g><path fill="none" stroke="black" paint-order="fill stroke markers" d=" M 233.31996370026042 676.227154456 L 26.985528696354166 676.227154456" stroke-miterlimit="10" stroke-width="1.4659797833333332" stroke-dasharray="7.0367029599999995"/><g transform="translate(24.0535691296875,676.227154456) translate(-24.0535691296875,-676.227154456)"><path fill="black" stroke="none" paint-order="stroke fill markers" d=" M 38.71336696302083 668.8972555393333 L 24.0535691296875 676.227154456 L 38.71336696302083 683.5570533726667 Z"/></g></g></g><g/><g/><g/><g/><g/></g></svg>