<svg version="1.1" xmlns="http://www.w3.org/2000/svg" xmlns:xlink="http://www.w3.org/1999/xlink" width="830" height="737"><defs/><g><g/><g/><g/><g/><g/><g/><g/><g/><g/><g/><g><rect fill="white" stroke="none" x="0" y="0" width="830" height="737"/></g><g><text fill="black" stroke="none" font-family="sans-serif" font-size="16.5pt" font-style="normal" font-weight="normal" text-decoration="normal" x="277.1436745489525" y="26.3876361" text-anchor="start" dominant-baseline="alphabetic">Display Empty Rooms BCE</text></g><g/><g><path fill="none" stroke="black" paint-order="fill stroke markers" d=" M 24.0535691296875 139.67855375599999 L 24.0535691296875 737.798305356" stroke-miterlimit="10" stroke-width="1.4659797833333332" stroke-dasharray="13.532121076923076,5.863919133333333"/><path fill="none" stroke="black" paint-order="fill stroke markers" d=" M 231.85818248815104 139.67855375599999 L 231.85818248815104 737.798305356" stroke-miterlimit="10" stroke-width="1.4659797833333332" stroke-dasharray="13.532121076923076,5.863919133333333"/><path fill="none" stroke="black" paint-order="fill stroke markers" d=" M 476.4328719343099 139.67855375599999 L 476.4328719343099 737.798305356" stroke-miterlimit="10" stroke-width="1.4659797833333332" stroke-dasharray="13.532121076923076,5.863919133333333"/><path fill="none" stroke="black" paint-order="fill stroke markers" d=" M 676.0113682834635 139.67855375599999 L 676.0113682834635 737.798305356" stroke-miterlimit="10" stroke-width="1.4659797833333332" stroke-dasharray="13.532121076923076,5.863919133333333"/><path fill="none" stroke="black" paint-order="fill stroke markers" d=" M 781.8166298054284 139.67855375599999 L 781.8166298054284 737.798305356" stroke-miterlimit="10" stroke-width="1.4659797833333332" stroke-dasharray="13.532121076923076,5.863919133333333"/></g><g><g><path fill="white" stroke="black" paint-order="fill stroke markers" d=" M 34.0808708476875 65.265419954 A 10.027301717999999 10.027301717999999 0 1 1 34.080865834037056 65.25539265395321 M 24.0535691296875 75.29272167199998 L 24.0535691296875 96.75466569999998 M 11.387503801687501 83.033094928 L 36.7196344576875 83.033094928 M 24.0535691296875 96.75466569999998 L 11.387503801687501 116.80926913599998 M 24.0535691296875 96.75466569999998 L 36.7196344576875 116.80926913599998" stroke-miterlimit="10" stroke-width="2.990598758" stroke-dasharray=""/></g><g><g/><text fill="black" stroke="none" font-family="sans-serif" font-size="11pt" font-style="normal" font-weight="normal" text-decoration="normal" x="8.7958787" y="134.401026536" text-anchor="start" dominant-baseline="alphabetic">staff</text></g><g><path fill="white" stroke="black" paint-order="fill stroke markers" d=" M 257.981942227151 86.79773101159998 A 26.123759739 26.123759739 0 1 1 257.9819291652723 86.77160725621492 M 204.23912337015105 115.31396975699997 L 256.486642848151 115.31396975699997" stroke-miterlimit="10" stroke-width="2.990598758" stroke-dasharray=""/></g><g><g/><text fill="black" stroke="none" font-family="sans-serif" font-size="11pt" font-style="normal" font-weight="normal" text-decoration="normal" x="158.7980399710612" y="134.401026536" text-anchor="start" dominant-baseline="alphabetic">HotelManageSystem</text></g><g><path fill="white" stroke="black" paint-order="fill stroke markers" d=" M 502.5566316733099 89.19021001799997 A 26.123759739 26.123759739 0 1 1 502.55661861143113 89.16408626261492 M 472.9145204543099 63.06645027899997 L 483.4695748943099 54.27057157899998 M 472.9145204543099 63.06645027899997 L 483.4695748943099 71.86232897899997" stroke-miterlimit="10" stroke-width="2.990598758" stroke-dasharray=""/></g><g><g/><text fill="black" stroke="none" font-family="sans-serif" font-size="11pt" font-style="normal" font-weight="normal" text-decoration="normal" x="457.2632170881185" y="134.401026536" text-anchor="start" dominant-baseline="alphabetic">Hotel</text></g><path fill="none" stroke="none"/><g><path fill="white" stroke="black" paint-order="fill stroke markers" d=" M 627.8584469414752 92.18080877599999 L 724.1642896254518 92.18080877599999 L 724.1642896254518 139.67855375599999 L 627.8584469414752 139.67855375599999 L 627.8584469414752 92.18080877599999 Z" stroke-miterlimit="10" stroke-width="2.814681184" stroke-dasharray=""/></g><g><g/><text fill="black" stroke="none" font-family="sans-serif" font-size="11pt" font-style="normal" font-weight="normal" text-decoration="normal" x="646.9455037204752" y="122.08679635600001" text-anchor="start" dominant-baseline="alphabetic">Booking</text></g><path fill="none" stroke="none"/><g><path fill="white" stroke="black" paint-order="fill stroke markers" d=" M 741.7560470254518 92.18080877599999 L 821.877212585405 92.18080877599999 L 821.877212585405 139.67855375599999 L 741.7560470254518 139.67855375599999 L 741.7560470254518 92.18080877599999 Z" stroke-miterlimit="10" stroke-width="2.814681184" stroke-dasharray=""/></g><g><g/><text fill="black" stroke="none" font-family="sans-serif" font-size="11pt" font-style="normal" font-weight="normal" text-decoration="normal" x="760.8431038044519" y="122.08679635600001" text-anchor="start" dominant-baseline="alphabetic">Room</text></g></g><g><path fill="white" stroke="black" paint-order="fill stroke markers" d=" M 223.06230378815104 197.73135317599997 L 240.65406118815105 197.73135317599997 L 240.65406118815105 676.227154456 L 223.06230378815104 676.227154456 L 223.06230378815104 197.73135317599997" stroke-miterlimit="10" stroke-width="1.4659797833333332" stroke-dasharray=""/><path fill="white" stroke="black" paint-order="fill stroke markers" d=" M 467.6369932343099 246.98827389599995 L 485.2287506343099 246.98827389599995 L 485.2287506343099 560.1215556159999 L 467.6369932343099 560.1215556159999 L 467.6369932343099 246.98827389599995" stroke-miterlimit="10" stroke-width="1.4659797833333332" stroke-dasharray=""/><path fill="white" stroke="black" paint-order="fill stroke markers" d=" M 667.2154895834635 296.24519461599994 L 684.8072469834635 296.24519461599994 L 684.8072469834635 345.5021153359999 L 667.2154895834635 345.5021153359999 L 667.2154895834635 296.24519461599994" stroke-miterlimit="10" stroke-width="1.4659797833333332" stroke-dasharray=""/><path fill="white" stroke="black" paint-order="fill stroke markers" d=" M 773.0207511054284 394.7590360559999 L 790.6125085054284 394.7590360559999 L 790.6125085054284 444.0159567759999 L 773.0207511054284 444.0159567759999 L 773.0207511054284 394.7590360559999" stroke-miterlimit="10" stroke-width="1.4659797833333332" stroke-dasharray=""/><g><g><rect fill="white" stroke="none" x="44.87048205302084" y="174.86206855599997" width="157.37490881179687" height="22.86928462"/></g><text fill="black" stroke="none" font-family="sans-serif" font-size="11pt" font-style="normal" font-weight="normal" text-decoration="normal" x="47.509245663020835" y="190.69465021599999" text-anchor="start" dominant-baseline="alphabetic">displayEmptyRooms()</text></g><g><path fill="none" stroke="black" paint-order="fill stroke markers" d=" M 24.0535691296875 197.73135317599997 L 220.13034422148436 197.73135317599997" stroke-miterlimit="10" stroke-width="1.4659797833333332" stroke-dasharray=""/><g transform="translate(223.06230378815104,197.73135317599997) translate(-223.06230378815104,-197.73135317599997)"><path fill="black" stroke="none" paint-order="stroke fill markers" d=" M 208.4025059548177 190.4014542593333 L 223.06230378815104 197.73135317599997 L 208.4025059548177 205.06125209266665 Z"/></g></g><g><g><rect fill="white" stroke="none" x="288.4752465724219" y="224.11898927599995" width="131.34056127761718" height="22.86928462"/></g><text fill="black" stroke="none" font-family="sans-serif" font-size="11pt" font-style="normal" font-weight="normal" text-decoration="normal" x="291.1140101824219" y="239.95157093599997" text-anchor="start" dominant-baseline="alphabetic">getEmptyRooms()</text></g><g><path fill="none" stroke="black" paint-order="fill stroke markers" d=" M 240.65406118815105 246.98827389599995 L 464.70503366764325 246.98827389599995" stroke-miterlimit="10" stroke-width="1.4659797833333332" stroke-dasharray=""/><g transform="translate(467.6369932343099,246.98827389599995) translate(-467.6369932343099,-246.98827389599995)"><path fill="black" stroke="none" paint-order="stroke fill markers" d=" M 452.97719540097654 239.65837497933327 L 467.6369932343099 246.98827389599995 L 452.97719540097654 254.31817281266663 Z"/></g></g><g><g><rect fill="white" stroke="none" x="515.5912224046484" y="273.37590999599996" width="121.26179540847656" height="22.86928462"/></g><text fill="black" stroke="none" font-family="sans-serif" font-size="11pt" font-style="normal" font-weight="normal" text-decoration="normal" x="518.2299860146484" y="289.208491656" text-anchor="start" dominant-baseline="alphabetic">getAllBookings()</text></g><g><path fill="none" stroke="black" paint-order="fill stroke markers" d=" M 485.2287506343099 296.24519461599994 L 664.2835300167968 296.24519461599994" stroke-miterlimit="10" stroke-width="1.4659797833333332" stroke-dasharray=""/><g transform="translate(667.2154895834635,296.24519461599994) translate(-667.2154895834635,-296.24519461599994)"><path fill="black" stroke="none" paint-order="stroke fill markers" d=" M 652.5556917501302 288.9152956993333 L 667.2154895834635 296.24519461599994 L 652.5556917501302 303.5750935326666 Z"/></g></g><g><g><rect fill="white" stroke="none" x="517.3521553270117" y="322.63283071599994" width="117.73992956375" height="22.86928462"/></g><text fill="black" stroke="none" font-family="sans-serif" font-size="11pt" font-style="normal" font-weight="normal" text-decoration="normal" x="519.9909189370117" y="338.46541237599996" text-anchor="start" dominant-baseline="alphabetic">return bookings</text></g><g><path fill="none" stroke="black" paint-order="fill stroke markers" d=" M 667.2154895834635 345.5021153359999 L 488.16071020097655 345.5021153359999" stroke-miterlimit="10" stroke-width="1.4659797833333332" stroke-dasharray="7.0367029599999995"/><g transform="translate(485.2287506343099,345.5021153359999) translate(-485.2287506343099,-345.5021153359999)"><path fill="black" stroke="none" paint-order="stroke fill markers" d=" M 499.88854846764326 338.17221641933327 L 485.2287506343099 345.5021153359999 L 499.88854846764326 352.83201425266657 Z"/></g></g><g><g><rect fill="white" stroke="none" x="576.5861917276426" y="371.8897514359999" width="105.07711828445312" height="22.86928462"/></g><text fill="black" stroke="none" font-family="sans-serif" font-size="11pt" font-style="normal" font-weight="normal" text-decoration="normal" x="579.2249553376425" y="387.72233309599994" text-anchor="start" dominant-baseline="alphabetic">getAllRooms()</text></g><g><path fill="none" stroke="black" paint-order="fill stroke markers" d=" M 485.2287506343099 394.7590360559999 L 770.0887915387617 394.7590360559999" stroke-miterlimit="10" stroke-width="1.4659797833333332" stroke-dasharray=""/><g transform="translate(773.0207511054284,394.7590360559999) translate(-773.0207511054284,-394.7590360559999)"><path fill="black" stroke="none" paint-order="stroke fill markers" d=" M 758.3609532720951 387.42913713933325 L 773.0207511054284 394.7590360559999 L 758.3609532720951 402.08893497266655 Z"/></g></g><g><g><rect fill="white" stroke="none" x="580.4158426065488" y="421.1466721559999" width="97.41781652664062" height="22.86928462"/></g><text fill="black" stroke="none" font-family="sans-serif" font-size="11pt" font-style="normal" font-weight="normal" text-decoration="normal" x="583.0546062165488" y="436.9792538159999" text-anchor="start" dominant-baseline="alphabetic">return rooms</text></g><g><path fill="none" stroke="black" paint-order="fill stroke markers" d=" M 773.0207511054284 444.0159567759999 L 488.16071020097655 444.0159567759999" stroke-miterlimit="10" stroke-width="1.4659797833333332" stroke-dasharray="7.0367029599999995"/><g transform="translate(485.2287506343099,444.0159567759999) translate(-485.2287506343099,-444.0159567759999)"><path fill="black" stroke="none" paint-order="stroke fill markers" d=" M 499.88854846764326 436.68605785933323 L 485.2287506343099 444.0159567759999 L 499.88854846764326 451.34585569266653 Z"/></g></g><g><g><rect fill="white" stroke="none" x="506.04566355764325" y="470.4035928759999" width="155.0127109358203" height="22.86928462"/></g><text fill="black" stroke="none" font-family="sans-serif" font-size="11pt" font-style="normal" font-weight="normal" text-decoration="normal" x="508.68442716764326" y="486.2361745359999" text-anchor="start" dominant-baseline="alphabetic">getEmptyRoomsList()</text></g><g><path fill="none" stroke="black" paint-order="fill stroke markers" d=" M 485.2287506343099 493.27287749599986 L 555.5957802343099 493.27287749599986 L 555.5957802343099 510.86463489599987 L 488.16071020097655 510.86463489599987" stroke-miterlimit="10" stroke-width="1.4659797833333332" stroke-dasharray=""/><g transform="translate(485.2287506343099,510.86463489599987) translate(-485.2287506343099,-510.86463489599987)"><path fill="black" stroke="none" paint-order="stroke fill markers" d=" M 499.88854846764326 503.5347359793332 L 485.2287506343099 510.86463489599987 L 499.88854846764326 518.1945338126666 Z"/></g></g><g><g><rect fill="white" stroke="none" x="261.4709741114844" y="537.2522709959999" width="185.34910619949218" height="22.86928462"/></g><text fill="black" stroke="none" font-family="sans-serif" font-size="11pt" font-style="normal" font-weight="normal" text-decoration="normal" x="264.1097377214844" y="553.0848526559998" text-anchor="start" dominant-baseline="alphabetic">return allEmptyRoomsList</text></g><g><path fill="none" stroke="black" paint-order="fill stroke markers" d=" M 467.6369932343099 560.1215556159999 L 243.58602075481772 560.1215556159999" stroke-miterlimit="10" stroke-width="1.4659797833333332" stroke-dasharray="7.0367029599999995"/><g transform="translate(240.65406118815105,560.1215556159999) translate(-240.65406118815105,-560.1215556159999)"><path fill="black" stroke="none" paint-order="stroke fill markers" d=" M 255.31385902148438 552.7916566993332 L 240.65406118815105 560.1215556159999 L 255.31385902148438 567.4514545326666 Z"/></g></g><g><g><rect fill="white" stroke="none" x="261.47097411148434" y="586.5091917159999" width="92.48587072585937" height="22.86928462"/></g><text fill="black" stroke="none" font-family="sans-serif" font-size="11pt" font-style="normal" font-weight="normal" text-decoration="normal" x="264.10973772148435" y="602.3417733759999" text-anchor="start" dominant-baseline="alphabetic">showMenu()</text></g><g><path fill="none" stroke="black" paint-order="fill stroke markers" d=" M 240.65406118815105 609.378476336 L 311.021090788151 609.378476336 L 311.021090788151 626.970233736 L 243.58602075481772 626.970233736" stroke-miterlimit="10" stroke-width="1.4659797833333332" stroke-dasharray=""/><g transform="translate(240.65406118815105,626.970233736) translate(-240.65406118815105,-626.970233736)"><path fill="black" stroke="none" paint-order="stroke fill markers" d=" M 255.31385902148438 619.6403348193332 L 240.65406118815105 626.970233736 L 255.31385902148438 634.3001326526667 Z"/></g></g><g><g><rect fill="white" stroke="none" x="50.54336413309896" y="653.357869836" width="146.02914465164062" height="22.86928462"/></g><text fill="black" stroke="none" font-family="sans-serif" font-size="11pt" font-style="normal" font-weight="normal" text-decoration="normal" x="53.18212774309896" y="669.1904514959999" text-anchor="start" dominant-baseline="alphabetic">return emptyRooms</text></g><g><path fill="none" stroke="black" paint-order="fill stroke markers" d=" M 223.06230378815104 676.227154456 L 26.985528696354166 676.227154456" stroke-miterlimit="10" stroke-width="1.4659797833333332" stroke-dasharray="7.0367029599999995"/><g transform="translate(24.0535691296875,676.227154456) translate(-24.0535691296875,-676.227154456)"><path fill="black" stroke="none" paint-order="stroke fill markers" d=" M 38.71336696302083 668.8972555393333 L 24.0535691296875 676.227154456 L 38.71336696302083 683.5570533726667 Z"/></g></g></g><g/><g/><g/><g/><g/></g></svg>