<svg version="1.1" xmlns="http://www.w3.org/2000/svg" xmlns:xlink="http://www.w3.org/1999/xlink" width="734" height="670"><defs/><g><g/><g/><g/><g/><g/><g/><g/><g/><g/><g><rect fill="white" stroke="none" x="0" y="0" width="734" height="670"/></g><g><text fill="black" stroke="none" font-family="sans-serif" font-size="16.5pt" font-style="normal" font-weight="normal" text-decoration="normal" x="195.5196971825684" y="26.3876361" text-anchor="start" dominant-baseline="alphabetic">Display Checked-in Room Status</text></g><g/><g><path fill="none" stroke="black" paint-order="fill stroke markers" d=" M 24.891078284960937 139.67855375599999 L 24.891078284960937 670.9496272359999" stroke-miterlimit="10" stroke-width="1.4659797833333332" stroke-dasharray="13.532121076923076,5.863919133333333"/><path fill="none" stroke="black" paint-order="fill stroke markers" d=" M 255.0507484061198 139.67855375599999 L 255.0507484061198 670.9496272359999" stroke-miterlimit="10" stroke-width="1.4659797833333332" stroke-dasharray="13.532121076923076,5.863919133333333"/><path fill="none" stroke="black" paint-order="fill stroke markers" d=" M 432.01626121653646 139.67855375599999 L 432.01626121653646 670.9496272359999" stroke-miterlimit="10" stroke-width="1.4659797833333332" stroke-dasharray="13.532121076923076,5.863919133333333"/><path fill="none" stroke="black" paint-order="fill stroke markers" d=" M 696.3905417271485 139.67855375599999 L 696.3905417271485 670.9496272359999" stroke-miterlimit="10" stroke-width="1.4659797833333332" stroke-dasharray="13.532121076923076,5.863919133333333"/></g><g><g><path fill="white" stroke="black" paint-order="fill stroke markers" d=" M 34.91838000296094 65.265419954 A 10.027301717999999 10.027301717999999 0 1 1 34.91837498931049 65.25539265395321 M 24.891078284960937 75.29272167199998 L 24.891078284960937 96.75466569999998 M 12.225012956960938 83.033094928 L 37.557143612960935 83.033094928 M 24.891078284960937 96.75466569999998 L 12.225012956960938 116.80926913599998 M 24.891078284960937 96.75466569999998 L 37.557143612960935 116.80926913599998" stroke-miterlimit="10" stroke-width="2.990598758" stroke-dasharray=""/></g><g><g/><text fill="black" stroke="none" font-family="sans-serif" font-size="11pt" font-style="normal" font-weight="normal" text-decoration="normal" x="8.7958787" y="134.401026536" text-anchor="start" dominant-baseline="alphabetic">Staff</text></g><g><path fill="white" stroke="black" paint-order="fill stroke markers" d=" M 281.1745081451198 89.19021001799997 A 26.123759739 26.123759739 0 1 1 281.174495083241 89.16408626261492 M 251.5323969261198 63.06645027899997 L 262.0874513661198 54.27057157899998 M 251.5323969261198 63.06645027899997 L 262.0874513661198 71.86232897899997" stroke-miterlimit="10" stroke-width="2.990598758" stroke-dasharray=""/></g><g><g/><text fill="black" stroke="none" font-family="sans-serif" font-size="11pt" font-style="normal" font-weight="normal" text-decoration="normal" x="200.72360759801433" y="134.401026536" text-anchor="start" dominant-baseline="alphabetic">BookingSystem</text></g><path fill="none" stroke="none"/><g><path fill="white" stroke="black" paint-order="fill stroke markers" d=" M 393.75954959134503 92.18080877599999 L 470.27297284172784 92.18080877599999 L 470.27297284172784 139.67855375599999 L 393.75954959134503 139.67855375599999 L 393.75954959134503 92.18080877599999 Z" stroke-miterlimit="10" stroke-width="2.814681184" stroke-dasharray=""/></g><g><g/><text fill="black" stroke="none" font-family="sans-serif" font-size="11pt" font-style="normal" font-weight="normal" text-decoration="normal" x="412.84660637034506" y="122.08679635600001" text-anchor="start" dominant-baseline="alphabetic">Hotel</text></g><g><path fill="white" stroke="black" paint-order="fill stroke markers" d=" M 722.5143014661485 86.79773101159998 A 26.123759739 26.123759739 0 1 1 722.5142884042697 86.77160725621492 M 668.7714826091485 115.31396975699997 L 721.0190020871485 115.31396975699997" stroke-miterlimit="10" stroke-width="2.990598758" stroke-dasharray=""/></g><g><g/><text fill="black" stroke="none" font-family="sans-serif" font-size="11pt" font-style="normal" font-weight="normal" text-decoration="normal" x="667.3246771641602" y="134.401026536" text-anchor="start" dominant-baseline="alphabetic">Booking</text></g></g><g><path fill="white" stroke="black" paint-order="fill stroke markers" d=" M 246.2548697061198 197.73135317599997 L 263.8466271061198 197.73135317599997 L 263.8466271061198 609.3784763359998 L 246.2548697061198 609.3784763359998 L 246.2548697061198 197.73135317599997" stroke-miterlimit="10" stroke-width="1.4659797833333332" stroke-dasharray=""/><path fill="white" stroke="black" paint-order="fill stroke markers" d=" M 423.22038251653646 246.98827389599995 L 440.81213991653647 246.98827389599995 L 440.81213991653647 493.27287749599986 L 423.22038251653646 493.27287749599986 L 423.22038251653646 246.98827389599995" stroke-miterlimit="10" stroke-width="1.4659797833333332" stroke-dasharray=""/><path fill="white" stroke="black" paint-order="fill stroke markers" d=" M 687.5946630271485 296.24519461599994 L 705.1864204271485 296.24519461599994 L 705.1864204271485 444.0159567759999 L 687.5946630271485 444.0159567759999 L 687.5946630271485 296.24519461599994" stroke-miterlimit="10" stroke-width="1.4659797833333332" stroke-dasharray=""/><g><g><rect fill="white" stroke="none" x="45.707991208294274" y="174.86206855599997" width="179.72996557449218" height="22.86928462"/></g><text fill="black" stroke="none" font-family="sans-serif" font-size="11pt" font-style="normal" font-weight="normal" text-decoration="normal" x="48.34675481829427" y="190.69465021599999" text-anchor="start" dominant-baseline="alphabetic">displayCheckedInRoom()</text></g><g><path fill="none" stroke="black" paint-order="fill stroke markers" d=" M 24.891078284960937 197.73135317599997 L 243.3229101394531 197.73135317599997" stroke-miterlimit="10" stroke-width="1.4659797833333332" stroke-dasharray=""/><g transform="translate(246.2548697061198,197.73135317599997) translate(-246.2548697061198,-197.73135317599997)"><path fill="black" stroke="none" paint-order="stroke fill markers" d=" M 231.59507187278646 190.4014542593333 L 246.2548697061198 197.73135317599997 L 231.59507187278646 205.06125209266665 Z"/></g></g><g><g><rect fill="white" stroke="none" x="291.96130003921877" y="224.11898927599995" width="103.14440954421875" height="22.86928462"/></g><text fill="black" stroke="none" font-family="sans-serif" font-size="11pt" font-style="normal" font-weight="normal" text-decoration="normal" x="294.6000636492188" y="239.95157093599997" text-anchor="start" dominant-baseline="alphabetic">getBookings()</text></g><g><path fill="none" stroke="black" paint-order="fill stroke markers" d=" M 263.8466271061198 246.98827389599995 L 420.2884229498698 246.98827389599995" stroke-miterlimit="10" stroke-width="1.4659797833333332" stroke-dasharray=""/><g transform="translate(423.22038251653646,246.98827389599995) translate(-423.22038251653646,-246.98827389599995)"><path fill="black" stroke="none" paint-order="stroke fill markers" d=" M 408.5605846832031 239.65837497933327 L 423.22038251653646 246.98827389599995 L 408.5605846832031 254.31817281266663 Z"/></g></g><g><g><rect fill="white" stroke="none" x="525.2296311479753" y="273.37590999599996" width="77.94754064773437" height="22.86928462"/></g><text fill="black" stroke="none" font-family="sans-serif" font-size="11pt" font-style="normal" font-weight="normal" text-decoration="normal" x="527.8683947579752" y="289.208491656" text-anchor="start" dominant-baseline="alphabetic">*getDate()</text></g><g><path fill="none" stroke="black" paint-order="fill stroke markers" d=" M 440.81213991653647 296.24519461599994 L 684.6627034604818 296.24519461599994" stroke-miterlimit="10" stroke-width="1.4659797833333332" stroke-dasharray=""/><g transform="translate(687.5946630271485,296.24519461599994) translate(-687.5946630271485,-296.24519461599994)"><path fill="black" stroke="none" paint-order="stroke fill markers" d=" M 672.9348651938152 288.9152956993333 L 687.5946630271485 296.24519461599994 L 672.9348651938152 303.5750935326666 Z"/></g></g><g><g><rect fill="white" stroke="none" x="522.2446763139909" y="322.63283071599994" width="83.91745031570312" height="22.86928462"/></g><text fill="black" stroke="none" font-family="sans-serif" font-size="11pt" font-style="normal" font-weight="normal" text-decoration="normal" x="524.8834399239909" y="338.46541237599996" text-anchor="start" dominant-baseline="alphabetic">return date</text></g><g><path fill="none" stroke="black" paint-order="fill stroke markers" d=" M 687.5946630271485 345.5021153359999 L 443.7440994832031 345.5021153359999" stroke-miterlimit="10" stroke-width="1.4659797833333332" stroke-dasharray="7.0367029599999995"/><g transform="translate(440.81213991653647,345.5021153359999) translate(-440.81213991653647,-345.5021153359999)"><path fill="black" stroke="none" paint-order="stroke fill markers" d=" M 455.4719377498698 338.17221641933327 L 440.81213991653647 345.5021153359999 L 455.4719377498698 352.83201425266657 Z"/></g></g><g><g><rect fill="white" stroke="none" x="461.62905283986976" y="371.8897514359999" width="205.1486972639453" height="22.86928462"/></g><text fill="black" stroke="none" font-family="sans-serif" font-size="11pt" font-style="normal" font-weight="normal" text-decoration="normal" x="464.26781644986977" y="387.72233309599994" text-anchor="start" dominant-baseline="alphabetic">*getRoomStatus(checked in)</text></g><g><path fill="none" stroke="black" paint-order="fill stroke markers" d=" M 440.81213991653647 394.7590360559999 L 684.6627034604818 394.7590360559999" stroke-miterlimit="10" stroke-width="1.4659797833333332" stroke-dasharray=""/><g transform="translate(687.5946630271485,394.7590360559999) translate(-687.5946630271485,-394.7590360559999)"><path fill="black" stroke="none" paint-order="stroke fill markers" d=" M 672.9348651938152 387.42913713933325 L 687.5946630271485 394.7590360559999 L 672.9348651938152 402.08893497266655 Z"/></g></g><g><g><rect fill="white" stroke="none" x="478.2181794267838" y="421.1466721559999" width="171.97044409011718" height="22.86928462"/></g><text fill="black" stroke="none" font-family="sans-serif" font-size="11pt" font-style="normal" font-weight="normal" text-decoration="normal" x="480.85694303678383" y="436.9792538159999" text-anchor="start" dominant-baseline="alphabetic">return checked-in room</text></g><g><path fill="none" stroke="black" paint-order="fill stroke markers" d=" M 687.5946630271485 444.0159567759999 L 443.7440994832031 444.0159567759999" stroke-miterlimit="10" stroke-width="1.4659797833333332" stroke-dasharray="7.0367029599999995"/><g transform="translate(440.81213991653647,444.0159567759999) translate(-440.81213991653647,-444.0159567759999)"><path fill="black" stroke="none" paint-order="stroke fill markers" d=" M 455.4719377498698 436.68605785933323 L 440.81213991653647 444.0159567759999 L 455.4719377498698 451.34585569266653 Z"/></g></g><g><g><rect fill="white" stroke="none" x="284.66354002945315" y="470.4035928759999" width="117.73992956375" height="22.86928462"/></g><text fill="black" stroke="none" font-family="sans-serif" font-size="11pt" font-style="normal" font-weight="normal" text-decoration="normal" x="287.30230363945316" y="486.2361745359999" text-anchor="start" dominant-baseline="alphabetic">return bookings</text></g><g><path fill="none" stroke="black" paint-order="fill stroke markers" d=" M 423.22038251653646 493.27287749599986 L 266.77858667278645 493.27287749599986" stroke-miterlimit="10" stroke-width="1.4659797833333332" stroke-dasharray="7.0367029599999995"/><g transform="translate(263.8466271061198,493.27287749599986) translate(-263.8466271061198,-493.27287749599986)"><path fill="black" stroke="none" paint-order="stroke fill markers" d=" M 278.50642493945315 485.9429785793332 L 263.8466271061198 493.27287749599986 L 278.50642493945315 500.6027764126665 Z"/></g></g><g><g><rect fill="white" stroke="none" x="284.66354002945315" y="519.6605135959998" width="105.91459692214843" height="22.86928462"/></g><text fill="black" stroke="none" font-family="sans-serif" font-size="11pt" font-style="normal" font-weight="normal" text-decoration="normal" x="287.30230363945316" y="535.4930952559997" text-anchor="start" dominant-baseline="alphabetic">updateDisplay</text></g><g><path fill="none" stroke="black" paint-order="fill stroke markers" d=" M 263.8466271061198 542.5297982159998 L 334.21365670611976 542.5297982159998 L 334.21365670611976 560.1215556159998 L 266.77858667278645 560.1215556159998" stroke-miterlimit="10" stroke-width="1.4659797833333332" stroke-dasharray=""/><g transform="translate(263.8466271061198,560.1215556159998) translate(-263.8466271061198,-560.1215556159998)"><path fill="black" stroke="none" paint-order="stroke fill markers" d=" M 278.50642493945315 552.7916566993331 L 263.8466271061198 560.1215556159998 L 278.50642493945315 567.4514545326665 Z"/></g></g><g><g><rect fill="white" stroke="none" x="132.93421038554035" y="586.5091917159998" width="5.27752722" height="22.86928462"/></g><text fill="black" stroke="none" font-family="sans-serif" font-size="11pt" font-style="normal" font-weight="normal" text-decoration="normal" x="135.57297399554037" y="602.3417733759998" text-anchor="start" dominant-baseline="alphabetic"></text></g><g><path fill="none" stroke="black" paint-order="fill stroke markers" d=" M 246.2548697061198 609.3784763359998 L 27.823037851627603 609.3784763359998" stroke-miterlimit="10" stroke-width="1.4659797833333332" stroke-dasharray="7.0367029599999995"/><g transform="translate(24.891078284960937,609.3784763359998) translate(-24.891078284960937,-609.3784763359998)"><path fill="black" stroke="none" paint-order="stroke fill markers" d=" M 39.55087611829427 602.0485774193331 L 24.891078284960937 609.3784763359998 L 39.55087611829427 616.7083752526665 Z"/></g></g></g><g/><g/><g/><g/></g></svg>