<svg version="1.1" xmlns="http://www.w3.org/2000/svg" xmlns:xlink="http://www.w3.org/1999/xlink" width="837" height="604"><defs/><g><g/><g/><g/><g/><g/><g/><g/><g/><g><rect fill="white" stroke="none" x="0" y="0" width="837" height="604"/></g><g><text fill="black" stroke="none" font-family="sans-serif" font-size="16.5pt" font-style="normal" font-weight="normal" text-decoration="normal" x="294.0523268171042" y="26.3876361" text-anchor="start" dominant-baseline="alphabetic">Modify Room Price BCE</text></g><g/><g><path fill="none" stroke="black" paint-order="fill stroke markers" d=" M 24.840976051074218 139.67855375599999 L 24.840976051074218 604.1009491159999" stroke-miterlimit="10" stroke-width="1.4659797833333332" stroke-dasharray="13.532121076923076,5.863919133333333"/><path fill="none" stroke="black" paint-order="fill stroke markers" d=" M 268.36499553746745 139.67855375599999 L 268.36499553746745 604.1009491159999" stroke-miterlimit="10" stroke-width="1.4659797833333332" stroke-dasharray="13.532121076923076,5.863919133333333"/><path fill="none" stroke="black" paint-order="fill stroke markers" d=" M 534.4930297101888 139.67855375599999 L 534.4930297101888 604.1009491159999" stroke-miterlimit="10" stroke-width="1.4659797833333332" stroke-dasharray="13.532121076923076,5.863919133333333"/><path fill="none" stroke="black" paint-order="fill stroke markers" d=" M 643.5770105151654 139.67855375599999 L 643.5770105151654 604.1009491159999" stroke-miterlimit="10" stroke-width="1.4659797833333332" stroke-dasharray="13.532121076923076,5.863919133333333"/><path fill="none" stroke="black" paint-order="fill stroke markers" d=" M 771.3584804395795 139.67855375599999 L 771.3584804395795 604.1009491159999" stroke-miterlimit="10" stroke-width="1.4659797833333332" stroke-dasharray="13.532121076923076,5.863919133333333"/></g><g><g><path fill="white" stroke="black" paint-order="fill stroke markers" d=" M 34.86827776907422 65.265419954 A 10.027301717999999 10.027301717999999 0 1 1 34.868272755423774 65.25539265395321 M 24.840976051074218 75.29272167199998 L 24.840976051074218 96.75466569999998 M 12.17491072307422 83.033094928 L 37.50704137907422 83.033094928 M 24.840976051074218 96.75466569999998 L 12.17491072307422 116.80926913599998 M 24.840976051074218 96.75466569999998 L 37.50704137907422 116.80926913599998" stroke-miterlimit="10" stroke-width="2.990598758" stroke-dasharray=""/></g><g><g/><text fill="black" stroke="none" font-family="sans-serif" font-size="11pt" font-style="normal" font-weight="normal" text-decoration="normal" x="8.7958787" y="134.401026536" text-anchor="start" dominant-baseline="alphabetic">Boss</text></g><g><path fill="white" stroke="black" paint-order="fill stroke markers" d=" M 294.48875527646743 89.19021001799997 A 26.123759739 26.123759739 0 1 1 294.4887422145887 89.16408626261492 M 264.8466440574675 63.06645027899997 L 275.40169849746746 54.27057157899998 M 264.8466440574675 63.06645027899997 L 275.40169849746746 71.86232897899997" stroke-miterlimit="10" stroke-width="2.990598758" stroke-dasharray=""/></g><g><g/><text fill="black" stroke="none" font-family="sans-serif" font-size="11pt" font-style="normal" font-weight="normal" text-decoration="normal" x="202.05146556920573" y="134.401026536" text-anchor="start" dominant-baseline="alphabetic">ReservationSystem</text></g><path fill="none" stroke="none"/><g><path fill="white" stroke="black" paint-order="fill stroke markers" d=" M 496.2363180849974 92.18080877599999 L 572.7497413353802 92.18080877599999 L 572.7497413353802 139.67855375599999 L 496.2363180849974 139.67855375599999 L 496.2363180849974 92.18080877599999 Z" stroke-miterlimit="10" stroke-width="2.814681184" stroke-dasharray=""/></g><g><g/><text fill="black" stroke="none" font-family="sans-serif" font-size="11pt" font-style="normal" font-weight="normal" text-decoration="normal" x="515.3233748639974" y="122.08679635600001" text-anchor="start" dominant-baseline="alphabetic">Hotel</text></g><g><path fill="white" stroke="black" paint-order="fill stroke markers" d=" M 669.7007702541654 86.79773101159998 A 26.123759739 26.123759739 0 1 1 669.7007571922866 86.77160725621492 M 615.9579513971654 115.31396975699997 L 668.2054708751654 115.31396975699997" stroke-miterlimit="10" stroke-width="2.990598758" stroke-dasharray=""/></g><g><g/><text fill="black" stroke="none" font-family="sans-serif" font-size="11pt" font-style="normal" font-weight="normal" text-decoration="normal" x="590.3414987353802" y="134.401026536" text-anchor="start" dominant-baseline="alphabetic">Room (current)</text></g><g><path fill="white" stroke="black" paint-order="fill stroke markers" d=" M 797.4822401785794 86.79773101159998 A 26.123759739 26.123759739 0 1 1 797.4822271167006 86.77160725621492 M 743.7394213215795 115.31396975699997 L 795.9869407995794 115.31396975699997" stroke-miterlimit="10" stroke-width="2.990598758" stroke-dasharray=""/></g><g><g/><text fill="black" stroke="none" font-family="sans-serif" font-size="11pt" font-style="normal" font-weight="normal" text-decoration="normal" x="714.4042796949506" y="134.401026536" text-anchor="start" dominant-baseline="alphabetic">Room (selected)</text></g></g><g><path fill="white" stroke="black" paint-order="fill stroke markers" d=" M 259.56911683746745 197.73135317599997 L 277.16087423746745 197.73135317599997 L 277.16087423746745 296.24519461599994 L 259.56911683746745 296.24519461599994 L 259.56911683746745 197.73135317599997" stroke-miterlimit="10" stroke-width="1.4659797833333332" stroke-dasharray=""/><path fill="white" stroke="black" paint-order="fill stroke markers" d=" M 259.56911683746745 345.5021153359999 L 277.16087423746745 345.5021153359999 L 277.16087423746745 542.5297982159999 L 259.56911683746745 542.5297982159999 L 259.56911683746745 345.5021153359999" stroke-miterlimit="10" stroke-width="1.4659797833333332" stroke-dasharray=""/><path fill="white" stroke="black" paint-order="fill stroke markers" d=" M 525.6971510101888 394.7590360559999 L 543.2889084101888 394.7590360559999 L 543.2889084101888 493.27287749599986 L 525.6971510101888 493.27287749599986 L 525.6971510101888 394.7590360559999" stroke-miterlimit="10" stroke-width="1.4659797833333332" stroke-dasharray=""/><g><g><rect fill="white" stroke="none" x="45.657888974407555" y="174.86206855599997" width="193.09431493972656" height="22.86928462"/></g><text fill="black" stroke="none" font-family="sans-serif" font-size="11pt" font-style="normal" font-weight="normal" text-decoration="normal" x="48.29665258440755" y="190.69465021599999" text-anchor="start" dominant-baseline="alphabetic">selectRoom(roomNumber)</text></g><g><path fill="none" stroke="black" paint-order="fill stroke markers" d=" M 24.840976051074218 197.73135317599997 L 256.6371572708008 197.73135317599997" stroke-miterlimit="10" stroke-width="1.4659797833333332" stroke-dasharray=""/><g transform="translate(259.56911683746745,197.73135317599997) translate(-259.56911683746745,-197.73135317599997)"><path fill="black" stroke="none" paint-order="stroke fill markers" d=" M 244.90931900413412 190.4014542593333 L 259.56911683746745 197.73135317599997 L 244.90931900413412 205.06125209266665 Z"/></g></g><g><g><rect fill="white" stroke="none" x="424.0472792912188" y="224.11898927599995" width="72.64332617019531" height="22.86928462"/></g><text fill="black" stroke="none" font-family="sans-serif" font-size="11pt" font-style="normal" font-weight="normal" text-decoration="normal" x="426.6860429012188" y="239.95157093599997" text-anchor="start" dominant-baseline="alphabetic">*getInfo()</text></g><g><path fill="none" stroke="black" paint-order="fill stroke markers" d=" M 277.16087423746745 246.98827389599995 L 640.6450509484987 246.98827389599995" stroke-miterlimit="10" stroke-width="1.4659797833333332" stroke-dasharray=""/><g transform="translate(643.5770105151654,246.98827389599995) translate(-643.5770105151654,-246.98827389599995)"><path fill="black" stroke="none" paint-order="stroke fill markers" d=" M 628.9172126818321 239.65837497933327 L 643.5770105151654 246.98827389599995 L 628.9172126818321 254.31817281266663 Z"/></g></g><g><g><rect fill="white" stroke="none" x="139.56628283427082" y="273.37590999599996" width="5.27752722" height="22.86928462"/></g><text fill="black" stroke="none" font-family="sans-serif" font-size="11pt" font-style="normal" font-weight="normal" text-decoration="normal" x="142.20504644427083" y="289.208491656" text-anchor="start" dominant-baseline="alphabetic"></text></g><g><path fill="none" stroke="black" paint-order="fill stroke markers" d=" M 259.56911683746745 296.24519461599994 L 27.772935617740885 296.24519461599994" stroke-miterlimit="10" stroke-width="1.4659797833333332" stroke-dasharray="7.0367029599999995"/><g transform="translate(24.840976051074218,296.24519461599994) translate(-24.840976051074218,-296.24519461599994)"><path fill="black" stroke="none" paint-order="stroke fill markers" d=" M 39.50077388440755 288.9152956993333 L 24.840976051074218 296.24519461599994 L 39.50077388440755 303.5750935326666 Z"/></g></g><g><g><rect fill="white" stroke="none" x="70.82610949442709" y="322.63283071599994" width="142.7578738996875" height="22.86928462"/></g><text fill="black" stroke="none" font-family="sans-serif" font-size="11pt" font-style="normal" font-weight="normal" text-decoration="normal" x="73.46487310442708" y="338.46541237599996" text-anchor="start" dominant-baseline="alphabetic">changeRoom(price)</text></g><g><path fill="none" stroke="black" paint-order="fill stroke markers" d=" M 24.840976051074218 345.5021153359999 L 256.6371572708008 345.5021153359999" stroke-miterlimit="10" stroke-width="1.4659797833333332" stroke-dasharray=""/><g transform="translate(259.56911683746745,345.5021153359999) translate(-259.56911683746745,-345.5021153359999)"><path fill="black" stroke="none" paint-order="stroke fill markers" d=" M 244.90931900413412 338.17221641933327 L 259.56911683746745 345.5021153359999 L 244.90931900413412 352.83201425266657 Z"/></g></g><g><g><rect fill="white" stroke="none" x="297.9777871608008" y="371.8897514359999" width="206.90245092605468" height="22.86928462"/></g><text fill="black" stroke="none" font-family="sans-serif" font-size="11pt" font-style="normal" font-weight="normal" text-decoration="normal" x="300.6165507708008" y="387.72233309599994" text-anchor="start" dominant-baseline="alphabetic">updateRoom(selected, price)</text></g><g><path fill="none" stroke="black" paint-order="fill stroke markers" d=" M 277.16087423746745 394.7590360559999 L 522.7651914435221 394.7590360559999" stroke-miterlimit="10" stroke-width="1.4659797833333332" stroke-dasharray=""/><g transform="translate(525.6971510101888,394.7590360559999) translate(-525.6971510101888,-394.7590360559999)"><path fill="black" stroke="none" paint-order="stroke fill markers" d=" M 511.03735317685545 387.42913713933325 L 525.6971510101888 394.7590360559999 L 511.03735317685545 402.08893497266655 Z"/></g></g><g><g><rect fill="white" stroke="none" x="605.1716938153725" y="421.1466721559999" width="104.30400121902343" height="22.86928462"/></g><text fill="black" stroke="none" font-family="sans-serif" font-size="11pt" font-style="normal" font-weight="normal" text-decoration="normal" x="607.8104574253724" y="436.9792538159999" text-anchor="start" dominant-baseline="alphabetic">setPrice(price)</text></g><g><path fill="none" stroke="black" paint-order="fill stroke markers" d=" M 543.2889084101888 444.0159567759999 L 768.4265208729128 444.0159567759999" stroke-miterlimit="10" stroke-width="1.4659797833333332" stroke-dasharray=""/><g transform="translate(771.3584804395795,444.0159567759999) translate(-771.3584804395795,-444.0159567759999)"><path fill="black" stroke="none" paint-order="stroke fill markers" d=" M 756.6986826062462 436.68605785933323 L 771.3584804395795 444.0159567759999 L 756.6986826062462 451.34585569266653 Z"/></g></g><g><g><rect fill="white" stroke="none" x="398.79024901382815" y="470.4035928759999" width="5.27752722" height="22.86928462"/></g><text fill="black" stroke="none" font-family="sans-serif" font-size="11pt" font-style="normal" font-weight="normal" text-decoration="normal" x="401.42901262382816" y="486.2361745359999" text-anchor="start" dominant-baseline="alphabetic"></text></g><g><path fill="none" stroke="black" paint-order="fill stroke markers" d=" M 525.6971510101888 493.27287749599986 L 280.0928338041341 493.27287749599986" stroke-miterlimit="10" stroke-width="1.4659797833333332" stroke-dasharray="7.0367029599999995"/><g transform="translate(277.16087423746745,493.27287749599986) translate(-277.16087423746745,-493.27287749599986)"><path fill="black" stroke="none" paint-order="stroke fill markers" d=" M 291.8206720708008 485.9429785793332 L 277.16087423746745 493.27287749599986 L 291.8206720708008 500.6027764126665 Z"/></g></g><g><g><rect fill="white" stroke="none" x="139.56628283427082" y="519.6605135959999" width="5.27752722" height="22.86928462"/></g><text fill="black" stroke="none" font-family="sans-serif" font-size="11pt" font-style="normal" font-weight="normal" text-decoration="normal" x="142.20504644427083" y="535.4930952559998" text-anchor="start" dominant-baseline="alphabetic"></text></g><g><path fill="none" stroke="black" paint-order="fill stroke markers" d=" M 259.56911683746745 542.5297982159999 L 27.772935617740885 542.5297982159999" stroke-miterlimit="10" stroke-width="1.4659797833333332" stroke-dasharray="7.0367029599999995"/><g transform="translate(24.840976051074218,542.5297982159999) translate(-24.840976051074218,-542.5297982159999)"><path fill="black" stroke="none" paint-order="stroke fill markers" d=" M 39.50077388440755 535.1998992993332 L 24.840976051074218 542.5297982159999 L 39.50077388440755 549.8596971326666 Z"/></g></g></g><g/><g/><g/><g/><g/></g></svg>