<svg version="1.1" xmlns="http://www.w3.org/2000/svg" xmlns:xlink="http://www.w3.org/1999/xlink" width="731" height="670"><defs/><g><g/><g/><g/><g/><g/><g/><g/><g/><g/><g><rect fill="white" stroke="none" x="0" y="0" width="731" height="670"/></g><g><text fill="black" stroke="none" font-family="sans-serif" font-size="16.5pt" font-style="normal" font-weight="normal" text-decoration="normal" x="204.7462926465313" y="26.3876361" text-anchor="start" dominant-baseline="alphabetic">Remove an Existing Room BCE</text></g><g/><g><path fill="none" stroke="black" paint-order="fill stroke markers" d=" M 24.840976051074218 139.67855375599999 L 24.840976051074218 670.9496272359999" stroke-miterlimit="10" stroke-width="1.4659797833333332" stroke-dasharray="13.532121076923076,5.863919133333333"/><path fill="none" stroke="black" paint-order="fill stroke markers" d=" M 277.16087423746745 139.67855375599999 L 277.16087423746745 670.9496272359999" stroke-miterlimit="10" stroke-width="1.4659797833333332" stroke-dasharray="13.532121076923076,5.863919133333333"/><path fill="none" stroke="black" paint-order="fill stroke markers" d=" M 428.637797306543 139.67855375599999 L 428.637797306543 670.9496272359999" stroke-miterlimit="10" stroke-width="1.4659797833333332" stroke-dasharray="13.532121076923076,5.863919133333333"/><path fill="none" stroke="black" paint-order="fill stroke markers" d=" M 537.7217781115196 139.67855375599999 L 537.7217781115196 670.9496272359999" stroke-miterlimit="10" stroke-width="1.4659797833333332" stroke-dasharray="13.532121076923076,5.863919133333333"/><path fill="none" stroke="black" paint-order="fill stroke markers" d=" M 665.5032480359337 139.67855375599999 L 665.5032480359337 493.27287749599986" stroke-miterlimit="10" stroke-width="1.4659797833333332" stroke-dasharray="13.532121076923076,5.863919133333333"/></g><g><g><path fill="white" stroke="black" paint-order="fill stroke markers" d=" M 34.86827776907422 65.265419954 A 10.027301717999999 10.027301717999999 0 1 1 34.868272755423774 65.25539265395321 M 24.840976051074218 75.29272167199998 L 24.840976051074218 96.75466569999998 M 12.17491072307422 83.033094928 L 37.50704137907422 83.033094928 M 24.840976051074218 96.75466569999998 L 12.17491072307422 116.80926913599998 M 24.840976051074218 96.75466569999998 L 37.50704137907422 116.80926913599998" stroke-miterlimit="10" stroke-width="2.990598758" stroke-dasharray=""/></g><g><g/><text fill="black" stroke="none" font-family="sans-serif" font-size="11pt" font-style="normal" font-weight="normal" text-decoration="normal" x="8.7958787" y="134.401026536" text-anchor="start" dominant-baseline="alphabetic">Boss</text></g><g><path fill="white" stroke="black" paint-order="fill stroke markers" d=" M 303.28463397646743 89.19021001799997 A 26.123759739 26.123759739 0 1 1 303.2846209145887 89.16408626261492 M 273.6425227574675 63.06645027899997 L 284.19757719746747 54.27057157899998 M 273.6425227574675 63.06645027899997 L 284.19757719746747 71.86232897899997" stroke-miterlimit="10" stroke-width="2.990598758" stroke-dasharray=""/></g><g><g/><text fill="black" stroke="none" font-family="sans-serif" font-size="11pt" font-style="normal" font-weight="normal" text-decoration="normal" x="210.84734426920573" y="134.401026536" text-anchor="start" dominant-baseline="alphabetic">ReservationSystem</text></g><path fill="none" stroke="none"/><g><path fill="white" stroke="black" paint-order="fill stroke markers" d=" M 390.3810856813516 92.18080877599999 L 466.8945089317344 92.18080877599999 L 466.8945089317344 139.67855375599999 L 390.3810856813516 139.67855375599999 L 390.3810856813516 92.18080877599999 Z" stroke-miterlimit="10" stroke-width="2.814681184" stroke-dasharray=""/></g><g><g/><text fill="black" stroke="none" font-family="sans-serif" font-size="11pt" font-style="normal" font-weight="normal" text-decoration="normal" x="409.4681424603516" y="122.08679635600001" text-anchor="start" dominant-baseline="alphabetic">Hotel</text></g><g><path fill="white" stroke="black" paint-order="fill stroke markers" d=" M 563.8455378505196 86.79773101159998 A 26.123759739 26.123759739 0 1 1 563.8455247886408 86.77160725621492 M 510.1027189935196 115.31396975699997 L 562.3502384715196 115.31396975699997" stroke-miterlimit="10" stroke-width="2.990598758" stroke-dasharray=""/></g><g><g/><text fill="black" stroke="none" font-family="sans-serif" font-size="11pt" font-style="normal" font-weight="normal" text-decoration="normal" x="484.48626633173444" y="134.401026536" text-anchor="start" dominant-baseline="alphabetic">Room (current)</text></g><g><path fill="white" stroke="black" paint-order="fill stroke markers" d=" M 691.6270077749336 86.79773101159998 A 26.123759739 26.123759739 0 1 1 691.6269947130548 86.77160725621492 M 637.8841889179337 115.31396975699997 L 690.1317083959336 115.31396975699997" stroke-miterlimit="10" stroke-width="2.990598758" stroke-dasharray=""/></g><g><g/><text fill="black" stroke="none" font-family="sans-serif" font-size="11pt" font-style="normal" font-weight="normal" text-decoration="normal" x="608.5490472913048" y="134.401026536" text-anchor="start" dominant-baseline="alphabetic">Room (selected)</text></g></g><g><path fill="white" stroke="black" paint-order="fill stroke markers" d=" M 268.36499553746745 197.73135317599997 L 285.95675293746746 197.73135317599997 L 285.95675293746746 296.24519461599994 L 268.36499553746745 296.24519461599994 L 268.36499553746745 197.73135317599997" stroke-miterlimit="10" stroke-width="1.4659797833333332" stroke-dasharray=""/><path fill="white" stroke="black" paint-order="fill stroke markers" d=" M 268.36499553746745 345.5021153359999 L 285.95675293746746 345.5021153359999 L 285.95675293746746 609.3784763359998 L 268.36499553746745 609.3784763359998 L 268.36499553746745 345.5021153359999" stroke-miterlimit="10" stroke-width="1.4659797833333332" stroke-dasharray=""/><path fill="white" stroke="black" paint-order="fill stroke markers" d=" M 16.04509735107422 394.7590360559999 L 33.63685475107422 394.7590360559999 L 33.63685475107422 444.0159567759999 L 16.04509735107422 444.0159567759999 L 16.04509735107422 394.7590360559999" stroke-miterlimit="10" stroke-width="1.4659797833333332" stroke-dasharray=""/><g><g><rect fill="white" stroke="none" x="50.05582832440756" y="174.86206855599997" width="193.09431493972656" height="22.86928462"/></g><text fill="black" stroke="none" font-family="sans-serif" font-size="11pt" font-style="normal" font-weight="normal" text-decoration="normal" x="52.694591934407555" y="190.69465021599999" text-anchor="start" dominant-baseline="alphabetic">selectRoom(roomNumber)</text></g><g><path fill="none" stroke="black" paint-order="fill stroke markers" d=" M 24.840976051074218 197.73135317599997 L 265.4330359708008 197.73135317599997" stroke-miterlimit="10" stroke-width="1.4659797833333332" stroke-dasharray=""/><g transform="translate(268.36499553746745,197.73135317599997) translate(-268.36499553746745,-197.73135317599997)"><path fill="black" stroke="none" paint-order="stroke fill markers" d=" M 253.70519770413412 190.4014542593333 L 268.36499553746745 197.73135317599997 L 253.70519770413412 205.06125209266665 Z"/></g></g><g><g><rect fill="white" stroke="none" x="375.51760243939583" y="224.11898927599995" width="72.64332617019531" height="22.86928462"/></g><text fill="black" stroke="none" font-family="sans-serif" font-size="11pt" font-style="normal" font-weight="normal" text-decoration="normal" x="378.15636604939584" y="239.95157093599997" text-anchor="start" dominant-baseline="alphabetic">*getInfo()</text></g><g><path fill="none" stroke="black" paint-order="fill stroke markers" d=" M 285.95675293746746 246.98827389599995 L 534.7898185448529 246.98827389599995" stroke-miterlimit="10" stroke-width="1.4659797833333332" stroke-dasharray=""/><g transform="translate(537.7217781115196,246.98827389599995) translate(-537.7217781115196,-246.98827389599995)"><path fill="black" stroke="none" paint-order="stroke fill markers" d=" M 523.0619802781863 239.65837497933327 L 537.7217781115196 246.98827389599995 L 523.0619802781863 254.31817281266663 Z"/></g></g><g><g><rect fill="white" stroke="none" x="143.96422218427082" y="273.37590999599996" width="5.27752722" height="22.86928462"/></g><text fill="black" stroke="none" font-family="sans-serif" font-size="11pt" font-style="normal" font-weight="normal" text-decoration="normal" x="146.60298579427084" y="289.208491656" text-anchor="start" dominant-baseline="alphabetic"></text></g><g><path fill="none" stroke="black" paint-order="fill stroke markers" d=" M 268.36499553746745 296.24519461599994 L 27.772935617740885 296.24519461599994" stroke-miterlimit="10" stroke-width="1.4659797833333332" stroke-dasharray="7.0367029599999995"/><g transform="translate(24.840976051074218,296.24519461599994) translate(-24.840976051074218,-296.24519461599994)"><path fill="black" stroke="none" paint-order="stroke fill markers" d=" M 39.50077388440755 288.9152956993333 L 24.840976051074218 296.24519461599994 L 39.50077388440755 303.5750935326666 Z"/></g></g><g><g><rect fill="white" stroke="none" x="87.28561805829428" y="322.63283071599994" width="118.63473547195312" height="22.86928462"/></g><text fill="black" stroke="none" font-family="sans-serif" font-size="11pt" font-style="normal" font-weight="normal" text-decoration="normal" x="89.92438166829427" y="338.46541237599996" text-anchor="start" dominant-baseline="alphabetic">cancelSelected()</text></g><g><path fill="none" stroke="black" paint-order="fill stroke markers" d=" M 24.840976051074218 345.5021153359999 L 265.4330359708008 345.5021153359999" stroke-miterlimit="10" stroke-width="1.4659797833333332" stroke-dasharray=""/><g transform="translate(268.36499553746745,345.5021153359999) translate(-268.36499553746745,-345.5021153359999)"><path fill="black" stroke="none" paint-order="stroke fill markers" d=" M 253.70519770413412 338.17221641933327 L 268.36499553746745 345.5021153359999 L 253.70519770413412 352.83201425266657 Z"/></g></g><g><g><rect fill="white" stroke="none" x="116.45449246688803" y="371.8897514359999" width="69.09286535476562" height="22.86928462"/></g><text fill="black" stroke="none" font-family="sans-serif" font-size="11pt" font-style="normal" font-weight="normal" text-decoration="normal" x="119.09325607688803" y="387.72233309599994" text-anchor="start" dominant-baseline="alphabetic">confirm()</text></g><g><path fill="none" stroke="black" paint-order="fill stroke markers" d=" M 268.36499553746745 394.7590360559999 L 36.56881431774089 394.7590360559999" stroke-miterlimit="10" stroke-width="1.4659797833333332" stroke-dasharray=""/><g transform="translate(33.63685475107422,394.7590360559999) translate(-33.63685475107422,-394.7590360559999)"><path fill="black" stroke="none" paint-order="stroke fill markers" d=" M 48.29665258440755 387.42913713933325 L 33.63685475107422 394.7590360559999 L 48.29665258440755 402.08893497266655 Z"/></g></g><g><g><rect fill="white" stroke="none" x="110.46668423934896" y="421.1466721559999" width="81.06848180984375" height="22.86928462"/></g><text fill="black" stroke="none" font-family="sans-serif" font-size="11pt" font-style="normal" font-weight="normal" text-decoration="normal" x="113.10544784934896" y="436.9792538159999" text-anchor="start" dominant-baseline="alphabetic">return true</text></g><g><path fill="none" stroke="black" paint-order="fill stroke markers" d=" M 33.63685475107422 444.0159567759999 L 265.4330359708008 444.0159567759999" stroke-miterlimit="10" stroke-width="1.4659797833333332" stroke-dasharray="7.0367029599999995"/><g transform="translate(268.36499553746745,444.0159567759999) translate(-268.36499553746745,-444.0159567759999)"><path fill="black" stroke="none" paint-order="stroke fill markers" d=" M 253.70519770413412 436.68605785933323 L 268.36499553746745 444.0159567759999 L 253.70519770413412 451.34585569266653 Z"/></g></g><g><g><rect fill="white" stroke="none" x="425.03467254564583" y="470.4035928759999" width="101.39065588210937" height="22.86928462"/></g><text fill="black" stroke="none" font-family="sans-serif" font-size="11pt" font-style="normal" font-weight="normal" text-decoration="normal" x="427.67343615564585" y="486.2361745359999" text-anchor="start" dominant-baseline="alphabetic">&lt;&lt;destroy&gt;&gt;</text></g><g><path fill="none" stroke="black" paint-order="fill stroke markers" d=" M 285.95675293746746 493.27287749599986 L 662.571288469267 493.27287749599986" stroke-miterlimit="10" stroke-width="1.4659797833333332" stroke-dasharray=""/><g transform="translate(665.5032480359337,493.27287749599986) translate(-665.5032480359337,-493.27287749599986)"><path fill="black" stroke="none" paint-order="stroke fill markers" d=" M 650.8434502026004 485.9429785793332 L 665.5032480359337 493.27287749599986 L 650.8434502026004 500.6027764126665 Z"/></g></g><g><path fill="none" stroke="black" paint-order="fill stroke markers" d=" M 649.6706663759337 477.44029583599985 L 681.3358296959336 509.1054591559999 M 681.3358296959336 477.44029583599985 L 649.6706663759337 509.1054591559999" stroke-miterlimit="10" stroke-width="2.814681184" stroke-dasharray=""/></g><g><g><rect fill="white" stroke="none" x="306.7736658608008" y="519.6605135959998" width="115.70701635574218" height="22.86928462"/></g><text fill="black" stroke="none" font-family="sans-serif" font-size="11pt" font-style="normal" font-weight="normal" text-decoration="normal" x="309.4124294708008" y="535.4930952559997" text-anchor="start" dominant-baseline="alphabetic">updateDisplay()</text></g><g><path fill="none" stroke="black" paint-order="fill stroke markers" d=" M 285.95675293746746 542.5297982159998 L 356.3237825374674 542.5297982159998 L 356.3237825374674 560.1215556159998 L 288.8887125041341 560.1215556159998" stroke-miterlimit="10" stroke-width="1.4659797833333332" stroke-dasharray=""/><g transform="translate(285.95675293746746,560.1215556159998) translate(-285.95675293746746,-560.1215556159998)"><path fill="black" stroke="none" paint-order="stroke fill markers" d=" M 300.6165507708008 552.7916566993331 L 285.95675293746746 560.1215556159998 L 300.6165507708008 567.4514545326665 Z"/></g></g><g><g><rect fill="white" stroke="none" x="143.96422218427082" y="586.5091917159998" width="5.27752722" height="22.86928462"/></g><text fill="black" stroke="none" font-family="sans-serif" font-size="11pt" font-style="normal" font-weight="normal" text-decoration="normal" x="146.60298579427084" y="602.3417733759998" text-anchor="start" dominant-baseline="alphabetic"></text></g><g><path fill="none" stroke="black" paint-order="fill stroke markers" d=" M 268.36499553746745 609.3784763359998 L 27.772935617740885 609.3784763359998" stroke-miterlimit="10" stroke-width="1.4659797833333332" stroke-dasharray="7.0367029599999995"/><g transform="translate(24.840976051074218,609.3784763359998) translate(-24.840976051074218,-609.3784763359998)"><path fill="black" stroke="none" paint-order="stroke fill markers" d=" M 39.50077388440755 602.0485774193331 L 24.840976051074218 609.3784763359998 L 39.50077388440755 616.7083752526665 Z"/></g></g></g><g/><g/><g/><g/><g/></g></svg>