<svg version="1.1" xmlns="http://www.w3.org/2000/svg" xmlns:xlink="http://www.w3.org/1999/xlink" width="904" height="929"><defs/><g><g/><g/><g/><g/><g/><g/><g/><g/><g/><g/><g/><g/><g><rect fill="white" stroke="none" x="0" y="0" width="904" height="929"/></g><g><text fill="black" stroke="none" font-family="sans-serif" font-size="16.5pt" font-style="normal" font-weight="normal" text-decoration="normal" x="348.36829342343754" y="26.3876361" text-anchor="start" dominant-baseline="alphabetic">Add Walk-in ACE(1)</text></g><g/><g><path fill="none" stroke="black" paint-order="fill stroke markers" d=" M 24.891078284960937 139.67855375599999 L 24.891078284960937 929.1262588384001" stroke-miterlimit="10" stroke-width="1.4659797833333332" stroke-dasharray="13.532121076923076,5.863919133333333"/><path fill="none" stroke="black" paint-order="fill stroke markers" d=" M 206.25891958658855 139.67855375599999 L 206.25891958658855 929.1262588384001" stroke-miterlimit="10" stroke-width="1.4659797833333332" stroke-dasharray="13.532121076923076,5.863919133333333"/><path fill="none" stroke="black" paint-order="fill stroke markers" d=" M 451.5995697261068 139.67855375599999 L 451.5995697261068 929.1262588384001" stroke-miterlimit="10" stroke-width="1.4659797833333332" stroke-dasharray="13.532121076923076,5.863919133333333"/><path fill="none" stroke="black" paint-order="fill stroke markers" d=" M 866.7146873338868 652.9356676583999 L 866.7146873338868 929.1262588384001" stroke-miterlimit="10" stroke-width="1.4659797833333332" stroke-dasharray="13.532121076923076,5.863919133333333"/></g><g><g><path fill="white" stroke="black" paint-order="fill stroke markers" d=" M 34.91838000296094 65.265419954 A 10.027301717999999 10.027301717999999 0 1 1 34.91837498931049 65.25539265395321 M 24.891078284960937 75.29272167199998 L 24.891078284960937 96.75466569999998 M 12.225012956960938 83.033094928 L 37.557143612960935 83.033094928 M 24.891078284960937 96.75466569999998 L 12.225012956960938 116.80926913599998 M 24.891078284960937 96.75466569999998 L 37.557143612960935 116.80926913599998" stroke-miterlimit="10" stroke-width="2.990598758" stroke-dasharray=""/></g><g><g/><text fill="black" stroke="none" font-family="sans-serif" font-size="11pt" font-style="normal" font-weight="normal" text-decoration="normal" x="8.7958787" y="134.401026536" text-anchor="start" dominant-baseline="alphabetic">Staff</text></g><g><path fill="white" stroke="black" paint-order="fill stroke markers" d=" M 232.38267932558855 89.19021001799997 A 26.123759739 26.123759739 0 1 1 232.38266626370978 89.16408626261492 M 202.74056810658854 63.06645027899997 L 213.29562254658853 54.27057157899998 M 202.74056810658854 63.06645027899997 L 213.29562254658853 71.86232897899997" stroke-miterlimit="10" stroke-width="2.990598758" stroke-dasharray=""/></g><g><g/><text fill="black" stroke="none" font-family="sans-serif" font-size="11pt" font-style="normal" font-weight="normal" text-decoration="normal" x="151.93177877848308" y="134.401026536" text-anchor="start" dominant-baseline="alphabetic">BookingSystem</text></g><path fill="none" stroke="none"/><g><path fill="white" stroke="black" paint-order="fill stroke markers" d=" M 413.34285810091535 92.18080877599999 L 489.85628135129815 92.18080877599999 L 489.85628135129815 139.67855375599999 L 413.34285810091535 139.67855375599999 L 413.34285810091535 92.18080877599999 Z" stroke-miterlimit="10" stroke-width="2.814681184" stroke-dasharray=""/></g><g><g/><text fill="black" stroke="none" font-family="sans-serif" font-size="11pt" font-style="normal" font-weight="normal" text-decoration="normal" x="432.4299148799154" y="122.08679635600001" text-anchor="start" dominant-baseline="alphabetic">Hotel</text></g></g><g><path fill="white" stroke="black" paint-order="fill stroke markers" d=" M 197.46304088658854 197.73135317599997 L 215.05479828658855 197.73135317599997 L 215.05479828658855 867.5551079384 L 197.46304088658854 867.5551079384 L 197.46304088658854 197.73135317599997" stroke-miterlimit="10" stroke-width="1.4659797833333332" stroke-dasharray=""/><path fill="white" stroke="black" paint-order="fill stroke markers" d=" M 16.095199584960938 313.83695201599994 L 33.686956984960936 313.83695201599994 L 33.686956984960936 363.0938727359999 L 16.095199584960938 363.0938727359999 L 16.095199584960938 313.83695201599994" stroke-miterlimit="10" stroke-width="1.4659797833333332" stroke-dasharray=""/><path fill="white" stroke="black" paint-order="fill stroke markers" d=" M 442.8036910261068 412.3507934559999 L 460.3954484261068 412.3507934559999 L 460.3954484261068 751.4495090984 L 442.8036910261068 751.4495090984 L 442.8036910261068 412.3507934559999" stroke-miterlimit="10" stroke-width="1.4659797833333332" stroke-dasharray=""/><path fill="white" stroke="black" paint-order="fill stroke markers" d=" M 857.9188086338868 652.9356676583999 L 875.5105660338868 652.9356676583999 L 875.5105660338868 702.1925883783999 L 857.9188086338868 702.1925883783999 L 857.9188086338868 652.9356676583999" stroke-miterlimit="10" stroke-width="1.4659797833333332" stroke-dasharray=""/><g><g><rect fill="white" stroke="none" x="53.91051887616537" y="174.86206855599997" width="114.53308141921875" height="22.86928462"/></g><text fill="black" stroke="none" font-family="sans-serif" font-size="11pt" font-style="normal" font-weight="normal" text-decoration="normal" x="56.54928248616537" y="190.69465021599999" text-anchor="start" dominant-baseline="alphabetic">displayAllRoom</text></g><g><path fill="none" stroke="black" paint-order="fill stroke markers" d=" M 24.891078284960937 197.73135317599997 L 194.53108131992187 197.73135317599997" stroke-miterlimit="10" stroke-width="1.4659797833333332" stroke-dasharray=""/><g transform="translate(197.46304088658854,197.73135317599997) translate(-197.46304088658854,-197.73135317599997)"><path fill="black" stroke="none" paint-order="stroke fill markers" d=" M 182.80324305325522 190.4014542593333 L 197.46304088658854 197.73135317599997 L 182.80324305325522 205.06125209266665 Z"/></g></g><g><g><rect fill="white" stroke="none" x="235.87171120992187" y="224.11898927599998" width="136.99552953933593" height="22.86928462"/></g><text fill="black" stroke="none" font-family="sans-serif" font-size="11pt" font-style="normal" font-weight="normal" text-decoration="normal" x="238.51047481992188" y="239.951570936" text-anchor="start" dominant-baseline="alphabetic">checkOverBooking</text></g><g><path fill="none" stroke="black" paint-order="fill stroke markers" d=" M 215.05479828658855 246.98827389599995 L 285.4218278865885 246.98827389599995 L 285.4218278865885 264.58003129599996 L 217.98675785325523 264.58003129599996" stroke-miterlimit="10" stroke-width="1.4659797833333332" stroke-dasharray=""/><g transform="translate(215.05479828658855,264.58003129599996) translate(-215.05479828658855,-264.58003129599996)"><path fill="black" stroke="none" paint-order="stroke fill markers" d=" M 229.71459611992188 257.2501323793333 L 215.05479828658855 264.58003129599996 L 229.71459611992188 271.9099302126666 Z"/></g></g><g><g><rect fill="white" stroke="none" x="54.50386990829428" y="290.96766739599997" width="122.14225805496093" height="22.86928462"/></g><text fill="black" stroke="none" font-family="sans-serif" font-size="11pt" font-style="normal" font-weight="normal" text-decoration="normal" x="57.142633518294275" y="306.800249056" text-anchor="start" dominant-baseline="alphabetic">confirmOverFill()</text></g><g><path fill="none" stroke="black" paint-order="fill stroke markers" d=" M 197.46304088658854 313.83695201599994 L 36.618916551627606 313.83695201599994" stroke-miterlimit="10" stroke-width="1.4659797833333332" stroke-dasharray=""/><g transform="translate(33.686956984960936,313.83695201599994) translate(-33.686956984960936,-313.83695201599994)"><path fill="black" stroke="none" paint-order="stroke fill markers" d=" M 48.34675481829427 306.5070530993333 L 33.686956984960936 313.83695201599994 L 48.34675481829427 321.1668509326666 Z"/></g></g><g><g><rect fill="white" stroke="none" x="75.04075803085287" y="340.22458811599995" width="81.06848180984375" height="22.86928462"/></g><text fill="black" stroke="none" font-family="sans-serif" font-size="11pt" font-style="normal" font-weight="normal" text-decoration="normal" x="77.67952164085287" y="356.05716977599997" text-anchor="start" dominant-baseline="alphabetic">return true</text></g><g><path fill="none" stroke="black" paint-order="fill stroke markers" d=" M 33.686956984960936 363.0938727359999 L 194.53108131992187 363.0938727359999" stroke-miterlimit="10" stroke-width="1.4659797833333332" stroke-dasharray="7.0367029599999995"/><g transform="translate(197.46304088658854,363.0938727359999) translate(-197.46304088658854,-363.0938727359999)"><path fill="black" stroke="none" paint-order="stroke fill markers" d=" M 182.80324305325522 355.7639738193333 L 197.46304088658854 363.0938727359999 L 182.80324305325522 370.4237716526666 Z"/></g></g><g><g><rect fill="white" stroke="none" x="235.8717112099219" y="389.48150883599993" width="186.11506689285156" height="22.86928462"/></g><text fill="black" stroke="none" font-family="sans-serif" font-size="11pt" font-style="normal" font-weight="normal" text-decoration="normal" x="238.5104748199219" y="405.31409049599995" text-anchor="start" dominant-baseline="alphabetic">addWalkIn(roomNumber)</text></g><g><path fill="none" stroke="black" paint-order="fill stroke markers" d=" M 215.05479828658855 412.3507934559999 L 439.8717314594401 412.3507934559999" stroke-miterlimit="10" stroke-width="1.4659797833333332" stroke-dasharray=""/><g transform="translate(442.8036910261068,412.3507934559999) translate(-442.8036910261068,-412.3507934559999)"><path fill="black" stroke="none" paint-order="stroke fill markers" d=" M 428.1438931927734 405.02089453933326 L 442.8036910261068 412.3507934559999 L 428.1438931927734 419.68069237266656 Z"/></g></g><g><g><rect fill="white" stroke="none" x="481.21236134944013" y="438.7384295559999" width="196.11508215164062" height="22.86928462"/></g><text fill="black" stroke="none" font-family="sans-serif" font-size="11pt" font-style="normal" font-weight="normal" text-decoration="normal" x="483.85112495944014" y="454.57101121599993" text-anchor="start" dominant-baseline="alphabetic">r:=getRoom(roomNumber)</text></g><g><path fill="none" stroke="black" paint-order="fill stroke markers" d=" M 460.3954484261068 461.6077141759999 L 530.7624780261068 461.6077141759999 L 530.7624780261068 479.1994715759999 L 463.32740799277343 479.1994715759999" stroke-miterlimit="10" stroke-width="1.4659797833333332" stroke-dasharray=""/><g transform="translate(460.3954484261068,479.1994715759999) translate(-460.3954484261068,-479.1994715759999)"><path fill="black" stroke="none" paint-order="stroke fill markers" d=" M 475.05524625944014 471.86957265933324 L 460.3954484261068 479.1994715759999 L 475.05524625944014 486.52937049266654 Z"/></g></g><g><g><rect fill="white" stroke="none" x="481.21236134944013" y="505.5871076759999" width="278.1265262434375" height="22.86928462"/></g><text fill="black" stroke="none" font-family="sans-serif" font-size="11pt" font-style="normal" font-weight="normal" text-decoration="normal" x="483.85112495944014" y="521.4196893359999" text-anchor="start" dominant-baseline="alphabetic">c:=getCustomer(name, phoneNumber)</text></g><g><path fill="none" stroke="black" paint-order="fill stroke markers" d=" M 460.3954484261068 528.4563922959999 L 530.7624780261068 528.4563922959999 L 530.7624780261068 546.0481496959999 L 463.32740799277343 546.0481496959999" stroke-miterlimit="10" stroke-width="1.4659797833333332" stroke-dasharray=""/><g transform="translate(460.3954484261068,546.0481496959999) translate(-460.3954484261068,-546.0481496959999)"><path fill="black" stroke="none" paint-order="stroke fill markers" d=" M 475.05524625944014 538.7182507793332 L 460.3954484261068 546.0481496959999 L 475.05524625944014 553.3780486126666 Z"/></g></g><g><path fill="white" stroke="black" paint-order="fill stroke markers" d=" M 892.8384470728868 598.5595455349999 A 26.123759739 26.123759739 0 1 1 892.838434011008 598.5334217796149 M 839.0956282158868 627.0757842803998 L 891.3431476938867 627.0757842803998" stroke-miterlimit="10" stroke-width="2.990598758" stroke-dasharray=""/></g><g><g/><text fill="black" stroke="none" font-family="sans-serif" font-size="11pt" font-style="normal" font-weight="normal" text-decoration="normal" x="837.6488227708985" y="646.1628410593999" text-anchor="start" dominant-baseline="alphabetic">Booking</text></g><g><g><rect fill="white" stroke="none" x="485.6103006994402" y="589.8164421071998" width="326.823669798125" height="22.86928462"/></g><text fill="black" stroke="none" font-family="sans-serif" font-size="11pt" font-style="normal" font-weight="normal" text-decoration="normal" x="488.2490643094402" y="605.6490237671998" text-anchor="start" dominant-baseline="alphabetic">WalkIn(date, r, c, peopleNumber, roomStatus)</text></g><g><path fill="none" stroke="black" paint-order="fill stroke markers" d=" M 460.3954484261068 612.6857267271998 L 834.7168632042318 612.6857267271998" stroke-miterlimit="10" stroke-width="1.4659797833333332" stroke-dasharray=""/><g transform="translate(837.6488227708985,612.6857267271998) translate(-837.6488227708985,-612.6857267271998)"><path fill="black" stroke="none" paint-order="stroke fill markers" d=" M 822.9890249375652 605.3558278105331 L 837.6488227708985 612.6857267271998 L 822.9890249375652 620.0156256438665 Z"/></g></g><g><g><rect fill="white" stroke="none" x="656.5183649199968" y="679.3233037583999" width="5.27752722" height="22.86928462"/></g><text fill="black" stroke="none" font-family="sans-serif" font-size="11pt" font-style="normal" font-weight="normal" text-decoration="normal" x="659.1571285299967" y="695.1558854183999" text-anchor="start" dominant-baseline="alphabetic"></text></g><g><path fill="none" stroke="black" paint-order="fill stroke markers" d=" M 857.9188086338868 702.1925883783999 L 463.32740799277343 702.1925883783999" stroke-miterlimit="10" stroke-width="1.4659797833333332" stroke-dasharray="7.0367029599999995"/><g transform="translate(460.3954484261068,702.1925883783999) translate(-460.3954484261068,-702.1925883783999)"><path fill="black" stroke="none" paint-order="stroke fill markers" d=" M 475.05524625944014 694.8626894617332 L 460.3954484261068 702.1925883783999 L 475.05524625944014 709.5224872950666 Z"/></g></g><g><g><rect fill="white" stroke="none" x="326.2904810463477" y="728.5802244783999" width="5.27752722" height="22.86928462"/></g><text fill="black" stroke="none" font-family="sans-serif" font-size="11pt" font-style="normal" font-weight="normal" text-decoration="normal" x="328.9292446563477" y="744.4128061383999" text-anchor="start" dominant-baseline="alphabetic"></text></g><g><path fill="none" stroke="black" paint-order="fill stroke markers" d=" M 442.8036910261068 751.4495090984 L 217.98675785325523 751.4495090984" stroke-miterlimit="10" stroke-width="1.4659797833333332" stroke-dasharray="7.0367029599999995"/><g transform="translate(215.05479828658855,751.4495090984) translate(-215.05479828658855,-751.4495090984)"><path fill="black" stroke="none" paint-order="stroke fill markers" d=" M 229.71459611992188 744.1196101817333 L 215.05479828658855 751.4495090984 L 229.71459611992188 758.7794080150667 Z"/></g></g><g><g><rect fill="white" stroke="none" x="235.87171120992187" y="777.8371451984" width="108.46290624832031" height="22.86928462"/></g><text fill="black" stroke="none" font-family="sans-serif" font-size="11pt" font-style="normal" font-weight="normal" text-decoration="normal" x="238.51047481992188" y="793.6697268583999" text-anchor="start" dominant-baseline="alphabetic">update display</text></g><g><path fill="none" stroke="black" paint-order="fill stroke markers" d=" M 215.05479828658855 800.7064298184 L 285.4218278865885 800.7064298184 L 285.4218278865885 818.2981872184 L 217.98675785325523 818.2981872184" stroke-miterlimit="10" stroke-width="1.4659797833333332" stroke-dasharray=""/><g transform="translate(215.05479828658855,818.2981872184) translate(-215.05479828658855,-818.2981872184)"><path fill="black" stroke="none" paint-order="stroke fill markers" d=" M 229.71459611992188 810.9682883017333 L 215.05479828658855 818.2981872184 L 229.71459611992188 825.6280861350667 Z"/></g></g><g><g><rect fill="white" stroke="none" x="108.53829597577474" y="844.6858233184" width="5.27752722" height="22.86928462"/></g><text fill="black" stroke="none" font-family="sans-serif" font-size="11pt" font-style="normal" font-weight="normal" text-decoration="normal" x="111.17705958577474" y="860.5184049784" text-anchor="start" dominant-baseline="alphabetic"></text></g><g><path fill="none" stroke="black" paint-order="fill stroke markers" d=" M 197.46304088658854 867.5551079384 L 27.823037851627603 867.5551079384" stroke-miterlimit="10" stroke-width="1.4659797833333332" stroke-dasharray="7.0367029599999995"/><g transform="translate(24.891078284960937,867.5551079384) translate(-24.891078284960937,-867.5551079384)"><path fill="black" stroke="none" paint-order="stroke fill markers" d=" M 39.55087611829427 860.2252090217333 L 24.891078284960937 867.5551079384 L 39.55087611829427 874.8850068550668 Z"/></g></g></g><g/><g/><g/></g></svg>