<svg version="1.1" xmlns="http://www.w3.org/2000/svg" xmlns:xlink="http://www.w3.org/1999/xlink" width="1033" height="1265"><defs/><g><g/><g/><g/><g/><g/><g/><g/><g/><g/><g/><g/><g/><g/><g/><g/><g/><g/><g/><g/><g/><g><rect fill="white" stroke="none" x="0" y="0" width="1033" height="1265"/></g><g><text fill="black" stroke="none" font-family="sans-serif" font-size="16.5pt" font-style="normal" font-weight="normal" text-decoration="normal" x="420.60866192678066" y="26.3876361" text-anchor="start" dominant-baseline="alphabetic">Book A Room BCE</text></g><g/><g><path fill="none" stroke="black" paint-order="fill stroke markers" d=" M 24.0535691296875 139.67855375599999 L 24.0535691296875 1265.5510273559998" stroke-miterlimit="10" stroke-width="1.4659797833333332" stroke-dasharray="13.532121076923076,5.863919133333333"/><path fill="none" stroke="black" paint-order="fill stroke markers" d=" M 272.465081085612 139.67855375599999 L 272.465081085612 1265.5510273559998" stroke-miterlimit="10" stroke-width="1.4659797833333332" stroke-dasharray="13.532121076923076,5.863919133333333"/><path fill="none" stroke="black" paint-order="fill stroke markers" d=" M 536.2594970942708 139.67855375599999 L 536.2594970942708 1265.5510273559998" stroke-miterlimit="10" stroke-width="1.4659797833333332" stroke-dasharray="13.532121076923076,5.863919133333333"/><path fill="none" stroke="black" paint-order="fill stroke markers" d=" M 755.0577200059245 139.67855375599999 L 755.0577200059245 1265.5510273559998" stroke-miterlimit="10" stroke-width="1.4659797833333332" stroke-dasharray="13.532121076923076,5.863919133333333"/><path fill="none" stroke="black" paint-order="fill stroke markers" d=" M 860.8629815278894 139.67855375599999 L 860.8629815278894 1265.5510273559998" stroke-miterlimit="10" stroke-width="1.4659797833333332" stroke-dasharray="13.532121076923076,5.863919133333333"/><path fill="none" stroke="black" paint-order="fill stroke markers" d=" M 971.6324459307136 139.67855375599999 L 971.6324459307136 1265.5510273559998" stroke-miterlimit="10" stroke-width="1.4659797833333332" stroke-dasharray="13.532121076923076,5.863919133333333"/></g><g><g><path fill="white" stroke="black" paint-order="fill stroke markers" d=" M 34.0808708476875 65.265419954 A 10.027301717999999 10.027301717999999 0 1 1 34.080865834037056 65.25539265395321 M 24.0535691296875 75.29272167199998 L 24.0535691296875 96.75466569999998 M 11.387503801687501 83.033094928 L 36.7196344576875 83.033094928 M 24.0535691296875 96.75466569999998 L 11.387503801687501 116.80926913599998 M 24.0535691296875 96.75466569999998 L 36.7196344576875 116.80926913599998" stroke-miterlimit="10" stroke-width="2.990598758" stroke-dasharray=""/></g><g><g/><text fill="black" stroke="none" font-family="sans-serif" font-size="11pt" font-style="normal" font-weight="normal" text-decoration="normal" x="8.7958787" y="134.401026536" text-anchor="start" dominant-baseline="alphabetic">staff</text></g><g><path fill="white" stroke="black" paint-order="fill stroke markers" d=" M 298.58884082461196 86.79773101159998 A 26.123759739 26.123759739 0 1 1 298.5888277627332 86.77160725621492 M 244.846021967612 115.31396975699997 L 297.09354144561195 115.31396975699997" stroke-miterlimit="10" stroke-width="2.990598758" stroke-dasharray=""/></g><g><g/><text fill="black" stroke="none" font-family="sans-serif" font-size="11pt" font-style="normal" font-weight="normal" text-decoration="normal" x="199.40493856852214" y="134.401026536" text-anchor="start" dominant-baseline="alphabetic">HotelManageSystem</text></g><g><path fill="white" stroke="black" paint-order="fill stroke markers" d=" M 562.3832568332708 89.19021001799997 A 26.123759739 26.123759739 0 1 1 562.383243771392 89.16408626261492 M 532.7411456142709 63.06645027899997 L 543.2962000542709 54.27057157899998 M 532.7411456142709 63.06645027899997 L 543.2962000542709 71.86232897899997" stroke-miterlimit="10" stroke-width="2.990598758" stroke-dasharray=""/></g><g><g/><text fill="black" stroke="none" font-family="sans-serif" font-size="11pt" font-style="normal" font-weight="normal" text-decoration="normal" x="517.0898422480794" y="134.401026536" text-anchor="start" dominant-baseline="alphabetic">Hotel</text></g><path fill="none" stroke="none"/><g><path fill="white" stroke="black" paint-order="fill stroke markers" d=" M 706.9047986639362 92.18080877599999 L 803.2106413479128 92.18080877599999 L 803.2106413479128 139.67855375599999 L 706.9047986639362 139.67855375599999 L 706.9047986639362 92.18080877599999 Z" stroke-miterlimit="10" stroke-width="2.814681184" stroke-dasharray=""/></g><g><g/><text fill="black" stroke="none" font-family="sans-serif" font-size="11pt" font-style="normal" font-weight="normal" text-decoration="normal" x="725.9918554429362" y="122.08679635600001" text-anchor="start" dominant-baseline="alphabetic">Booking</text></g><path fill="none" stroke="none"/><g><path fill="white" stroke="black" paint-order="fill stroke markers" d=" M 820.8023987479128 92.18080877599999 L 900.923564307866 92.18080877599999 L 900.923564307866 139.67855375599999 L 820.8023987479128 139.67855375599999 L 820.8023987479128 92.18080877599999 Z" stroke-miterlimit="10" stroke-width="2.814681184" stroke-dasharray=""/></g><g><g/><text fill="black" stroke="none" font-family="sans-serif" font-size="11pt" font-style="normal" font-weight="normal" text-decoration="normal" x="839.8894555269128" y="122.08679635600001" text-anchor="start" dominant-baseline="alphabetic">Room</text></g><path fill="none" stroke="none"/><g><path fill="white" stroke="black" paint-order="fill stroke markers" d=" M 918.515321707866 92.18080877599999 L 1024.7495701535613 92.18080877599999 L 1024.7495701535613 139.67855375599999 L 918.515321707866 139.67855375599999 L 918.515321707866 92.18080877599999 Z" stroke-miterlimit="10" stroke-width="2.814681184" stroke-dasharray=""/></g><g><g/><text fill="black" stroke="none" font-family="sans-serif" font-size="11pt" font-style="normal" font-weight="normal" text-decoration="normal" x="937.602378486866" y="122.08679635600001" text-anchor="start" dominant-baseline="alphabetic">Customer</text></g></g><g><path fill="white" stroke="black" paint-order="fill stroke markers" d=" M 263.669202385612 197.73135317599997 L 281.260959785612 197.73135317599997 L 281.260959785612 1203.9798764559998 L 263.669202385612 1203.9798764559998 L 263.669202385612 197.73135317599997" stroke-miterlimit="10" stroke-width="1.4659797833333332" stroke-dasharray=""/><path fill="white" stroke="black" paint-order="fill stroke markers" d=" M 527.4636183942708 246.98827389599995 L 545.0553757942708 246.98827389599995 L 545.0553757942708 560.1215556159999 L 527.4636183942708 560.1215556159999 L 527.4636183942708 246.98827389599995" stroke-miterlimit="10" stroke-width="1.4659797833333332" stroke-dasharray=""/><path fill="white" stroke="black" paint-order="fill stroke markers" d=" M 746.2618413059245 296.24519461599994 L 763.8535987059245 296.24519461599994 L 763.8535987059245 345.5021153359999 L 746.2618413059245 345.5021153359999 L 746.2618413059245 296.24519461599994" stroke-miterlimit="10" stroke-width="1.4659797833333332" stroke-dasharray=""/><path fill="white" stroke="black" paint-order="fill stroke markers" d=" M 852.0671028278894 394.7590360559999 L 869.6588602278894 394.7590360559999 L 869.6588602278894 444.0159567759999 L 852.0671028278894 444.0159567759999 L 852.0671028278894 394.7590360559999" stroke-miterlimit="10" stroke-width="1.4659797833333332" stroke-dasharray=""/><path fill="white" stroke="black" paint-order="fill stroke markers" d=" M 15.2576904296875 676.227154456 L 32.8494478296875 676.227154456 L 32.8494478296875 725.484075176 L 15.2576904296875 725.484075176 L 15.2576904296875 676.227154456" stroke-miterlimit="10" stroke-width="1.4659797833333332" stroke-dasharray=""/><path fill="white" stroke="black" paint-order="fill stroke markers" d=" M 15.2576904296875 841.589674016 L 32.8494478296875 841.589674016 L 32.8494478296875 890.846594736 L 15.2576904296875 890.846594736 L 15.2576904296875 841.589674016" stroke-miterlimit="10" stroke-width="1.4659797833333332" stroke-dasharray=""/><path fill="white" stroke="black" paint-order="fill stroke markers" d=" M 746.2618413059245 940.1035154560001 L 763.8535987059245 940.1035154560001 L 763.8535987059245 989.3604361760001 L 746.2618413059245 989.3604361760001 L 746.2618413059245 940.1035154560001" stroke-miterlimit="10" stroke-width="1.4659797833333332" stroke-dasharray=""/><path fill="white" stroke="black" paint-order="fill stroke markers" d=" M 962.8365672307136 1038.617356896 L 980.4283246307136 1038.617356896 L 980.4283246307136 1087.874277616 L 962.8365672307136 1087.874277616 L 962.8365672307136 1038.617356896" stroke-miterlimit="10" stroke-width="1.4659797833333332" stroke-dasharray=""/><g><g><rect fill="white" stroke="none" x="55.56406807050131" y="174.86206855599997" width="176.59463537429687" height="22.86928462"/></g><text fill="black" stroke="none" font-family="sans-serif" font-size="11pt" font-style="normal" font-weight="normal" text-decoration="normal" x="58.202831680501305" y="190.69465021599999" text-anchor="start" dominant-baseline="alphabetic">displayAvailableRooms()</text></g><g><path fill="none" stroke="black" paint-order="fill stroke markers" d=" M 24.0535691296875 197.73135317599997 L 260.73724281894533 197.73135317599997" stroke-miterlimit="10" stroke-width="1.4659797833333332" stroke-dasharray=""/><g transform="translate(263.669202385612,197.73135317599997) translate(-263.669202385612,-197.73135317599997)"><path fill="black" stroke="none" paint-order="stroke fill markers" d=" M 249.00940455227865 190.4014542593333 L 263.669202385612 197.73135317599997 L 249.00940455227865 205.06125209266665 Z"/></g></g><g><g><rect fill="white" stroke="none" x="329.08214516988284" y="224.11898927599995" width="150.56028784011718" height="22.86928462"/></g><text fill="black" stroke="none" font-family="sans-serif" font-size="11pt" font-style="normal" font-weight="normal" text-decoration="normal" x="331.72090877988285" y="239.95157093599997" text-anchor="start" dominant-baseline="alphabetic">getAvailableRooms()</text></g><g><path fill="none" stroke="black" paint-order="fill stroke markers" d=" M 281.260959785612 246.98827389599995 L 524.5316588276041 246.98827389599995" stroke-miterlimit="10" stroke-width="1.4659797833333332" stroke-dasharray=""/><g transform="translate(527.4636183942708,246.98827389599995) translate(-527.4636183942708,-246.98827389599995)"><path fill="black" stroke="none" paint-order="stroke fill markers" d=" M 512.8038205609375 239.65837497933327 L 527.4636183942708 246.98827389599995 L 512.8038205609375 254.31817281266663 Z"/></g></g><g><g><rect fill="white" stroke="none" x="585.0277108458594" y="273.37590999599996" width="121.26179540847656" height="22.86928462"/></g><text fill="black" stroke="none" font-family="sans-serif" font-size="11pt" font-style="normal" font-weight="normal" text-decoration="normal" x="587.6664744558593" y="289.208491656" text-anchor="start" dominant-baseline="alphabetic">getAllBookings()</text></g><g><path fill="none" stroke="black" paint-order="fill stroke markers" d=" M 545.0553757942708 296.24519461599994 L 743.3298817392578 296.24519461599994" stroke-miterlimit="10" stroke-width="1.4659797833333332" stroke-dasharray=""/><g transform="translate(746.2618413059245,296.24519461599994) translate(-746.2618413059245,-296.24519461599994)"><path fill="black" stroke="none" paint-order="stroke fill markers" d=" M 731.6020434725912 288.9152956993333 L 746.2618413059245 296.24519461599994 L 731.6020434725912 303.5750935326666 Z"/></g></g><g><g><rect fill="white" stroke="none" x="586.7886437682226" y="322.63283071599994" width="117.73992956375" height="22.86928462"/></g><text fill="black" stroke="none" font-family="sans-serif" font-size="11pt" font-style="normal" font-weight="normal" text-decoration="normal" x="589.4274073782226" y="338.46541237599996" text-anchor="start" dominant-baseline="alphabetic">return bookings</text></g><g><path fill="none" stroke="black" paint-order="fill stroke markers" d=" M 746.2618413059245 345.5021153359999 L 547.9873353609375 345.5021153359999" stroke-miterlimit="10" stroke-width="1.4659797833333332" stroke-dasharray="7.0367029599999995"/><g transform="translate(545.0553757942708,345.5021153359999) translate(-545.0553757942708,-345.5021153359999)"><path fill="black" stroke="none" paint-order="stroke fill markers" d=" M 559.7151736276041 338.17221641933327 L 545.0553757942708 345.5021153359999 L 559.7151736276041 352.83201425266657 Z"/></g></g><g><g><rect fill="white" stroke="none" x="646.0226801688535" y="371.8897514359999" width="105.07711828445312" height="22.86928462"/></g><text fill="black" stroke="none" font-family="sans-serif" font-size="11pt" font-style="normal" font-weight="normal" text-decoration="normal" x="648.6614437788535" y="387.72233309599994" text-anchor="start" dominant-baseline="alphabetic">getAllRooms()</text></g><g><path fill="none" stroke="black" paint-order="fill stroke markers" d=" M 545.0553757942708 394.7590360559999 L 849.1351432612227 394.7590360559999" stroke-miterlimit="10" stroke-width="1.4659797833333332" stroke-dasharray=""/><g transform="translate(852.0671028278894,394.7590360559999) translate(-852.0671028278894,-394.7590360559999)"><path fill="black" stroke="none" paint-order="stroke fill markers" d=" M 837.4073049945561 387.42913713933325 L 852.0671028278894 394.7590360559999 L 837.4073049945561 402.08893497266655 Z"/></g></g><g><g><rect fill="white" stroke="none" x="649.8523310477598" y="421.1466721559999" width="97.41781652664062" height="22.86928462"/></g><text fill="black" stroke="none" font-family="sans-serif" font-size="11pt" font-style="normal" font-weight="normal" text-decoration="normal" x="652.4910946577597" y="436.9792538159999" text-anchor="start" dominant-baseline="alphabetic">return rooms</text></g><g><path fill="none" stroke="black" paint-order="fill stroke markers" d=" M 852.0671028278894 444.0159567759999 L 547.9873353609375 444.0159567759999" stroke-miterlimit="10" stroke-width="1.4659797833333332" stroke-dasharray="7.0367029599999995"/><g transform="translate(545.0553757942708,444.0159567759999) translate(-545.0553757942708,-444.0159567759999)"><path fill="black" stroke="none" paint-order="stroke fill markers" d=" M 559.7151736276041 436.68605785933323 L 545.0553757942708 444.0159567759999 L 559.7151736276041 451.34585569266653 Z"/></g></g><g><g><rect fill="white" stroke="none" x="565.8722887176042" y="470.4035928759999" width="174.2324374983203" height="22.86928462"/></g><text fill="black" stroke="none" font-family="sans-serif" font-size="11pt" font-style="normal" font-weight="normal" text-decoration="normal" x="568.5110523276041" y="486.2361745359999" text-anchor="start" dominant-baseline="alphabetic">getAvailableRoomsList()</text></g><g><path fill="none" stroke="black" paint-order="fill stroke markers" d=" M 545.0553757942708 493.27287749599986 L 615.4224053942709 493.27287749599986 L 615.4224053942709 510.86463489599987 L 547.9873353609375 510.86463489599987" stroke-miterlimit="10" stroke-width="1.4659797833333332" stroke-dasharray=""/><g transform="translate(545.0553757942708,510.86463489599987) translate(-545.0553757942708,-510.86463489599987)"><path fill="black" stroke="none" paint-order="stroke fill markers" d=" M 559.7151736276041 503.5347359793332 L 545.0553757942708 510.86463489599987 L 559.7151736276041 518.1945338126666 Z"/></g></g><g><g><rect fill="white" stroke="none" x="302.07787270894534" y="537.2522709959999" width="204.56883276199218" height="22.86928462"/></g><text fill="black" stroke="none" font-family="sans-serif" font-size="11pt" font-style="normal" font-weight="normal" text-decoration="normal" x="304.71663631894535" y="553.0848526559998" text-anchor="start" dominant-baseline="alphabetic">return allAvailableRoomsList</text></g><g><path fill="none" stroke="black" paint-order="fill stroke markers" d=" M 527.4636183942708 560.1215556159999 L 284.19291935227864 560.1215556159999" stroke-miterlimit="10" stroke-width="1.4659797833333332" stroke-dasharray="7.0367029599999995"/><g transform="translate(281.260959785612,560.1215556159999) translate(-281.260959785612,-560.1215556159999)"><path fill="black" stroke="none" paint-order="stroke fill markers" d=" M 295.92075761894534 552.7916566993332 L 281.260959785612 560.1215556159999 L 295.92075761894534 567.4514545326666 Z"/></g></g><g><g><rect fill="white" stroke="none" x="302.07787270894534" y="586.5091917159999" width="92.48587072585937" height="22.86928462"/></g><text fill="black" stroke="none" font-family="sans-serif" font-size="11pt" font-style="normal" font-weight="normal" text-decoration="normal" x="304.71663631894535" y="602.3417733759999" text-anchor="start" dominant-baseline="alphabetic">showMenu()</text></g><g><path fill="none" stroke="black" paint-order="fill stroke markers" d=" M 281.260959785612 609.378476336 L 351.62798938561195 609.378476336 L 351.62798938561195 626.970233736 L 284.19291935227864 626.970233736" stroke-miterlimit="10" stroke-width="1.4659797833333332" stroke-dasharray=""/><g transform="translate(281.260959785612,626.970233736) translate(-281.260959785612,-626.970233736)"><path fill="black" stroke="none" paint-order="stroke fill markers" d=" M 295.92075761894534 619.6403348193332 L 281.260959785612 626.970233736 L 295.92075761894534 634.3001326526667 Z"/></g></g><g><g><rect fill="white" stroke="none" x="66.86967648788412" y="653.357869836" width="162.77929723953125" height="22.86928462"/></g><text fill="black" stroke="none" font-family="sans-serif" font-size="11pt" font-style="normal" font-weight="normal" text-decoration="normal" x="69.50844009788412" y="669.1904514959999" text-anchor="start" dominant-baseline="alphabetic">return availableRooms</text></g><g><path fill="none" stroke="black" paint-order="fill stroke markers" d=" M 263.669202385612 676.227154456 L 35.78140739635417 676.227154456" stroke-miterlimit="10" stroke-width="1.4659797833333332" stroke-dasharray="7.0367029599999995"/><g transform="translate(32.8494478296875,676.227154456) translate(-32.8494478296875,-676.227154456)"><path fill="black" stroke="none" paint-order="stroke fill markers" d=" M 47.509245663020835 668.8972555393333 L 32.8494478296875 676.227154456 L 47.509245663020835 683.5570533726667 Z"/></g></g><g><g><rect fill="white" stroke="none" x="68.79520596786459" y="702.614790556" width="158.9282382795703" height="22.86928462"/></g><text fill="black" stroke="none" font-family="sans-serif" font-size="11pt" font-style="normal" font-weight="normal" text-decoration="normal" x="71.43396957786459" y="718.447372216" text-anchor="start" dominant-baseline="alphabetic">selectRoomAndDate()</text></g><g><path fill="none" stroke="black" paint-order="fill stroke markers" d=" M 32.8494478296875 725.484075176 L 260.73724281894533 725.484075176" stroke-miterlimit="10" stroke-width="1.4659797833333332" stroke-dasharray=""/><g transform="translate(263.669202385612,725.484075176) translate(-263.669202385612,-725.484075176)"><path fill="black" stroke="none" paint-order="stroke fill markers" d=" M 249.00940455227865 718.1541762593333 L 263.669202385612 725.484075176 L 249.00940455227865 732.8139740926667 Z"/></g></g><g><g><rect fill="white" stroke="none" x="302.07787270894534" y="751.8717112759999" width="92.48587072585937" height="22.86928462"/></g><text fill="black" stroke="none" font-family="sans-serif" font-size="11pt" font-style="normal" font-weight="normal" text-decoration="normal" x="304.71663631894535" y="767.7042929359999" text-anchor="start" dominant-baseline="alphabetic">showMenu()</text></g><g><path fill="none" stroke="black" paint-order="fill stroke markers" d=" M 281.260959785612 774.740995896 L 351.62798938561195 774.740995896 L 351.62798938561195 792.332753296 L 284.19291935227864 792.332753296" stroke-miterlimit="10" stroke-width="1.4659797833333332" stroke-dasharray=""/><g transform="translate(281.260959785612,792.332753296) translate(-281.260959785612,-792.332753296)"><path fill="black" stroke="none" paint-order="stroke fill markers" d=" M 295.92075761894534 785.0028543793333 L 281.260959785612 792.332753296 L 295.92075761894534 799.6626522126667 Z"/></g></g><g><g><rect fill="white" stroke="none" x="53.66636075302084" y="818.720389396" width="189.1859287092578" height="22.86928462"/></g><text fill="black" stroke="none" font-family="sans-serif" font-size="11pt" font-style="normal" font-weight="normal" text-decoration="normal" x="56.30512436302084" y="834.5529710559999" text-anchor="start" dominant-baseline="alphabetic">getCustomerInformation()</text></g><g><path fill="none" stroke="black" paint-order="fill stroke markers" d=" M 263.669202385612 841.589674016 L 35.78140739635417 841.589674016" stroke-miterlimit="10" stroke-width="1.4659797833333332" stroke-dasharray=""/><g transform="translate(32.8494478296875,841.589674016) translate(-32.8494478296875,-841.589674016)"><path fill="black" stroke="none" paint-order="stroke fill markers" d=" M 47.509245663020835 834.2597750993333 L 32.8494478296875 841.589674016 L 47.509245663020835 848.9195729326667 Z"/></g></g><g><g><rect fill="white" stroke="none" x="80.68499173446615" y="867.977310116" width="135.14866674636718" height="22.86928462"/></g><text fill="black" stroke="none" font-family="sans-serif" font-size="11pt" font-style="normal" font-weight="normal" text-decoration="normal" x="83.32375534446615" y="883.809891776" text-anchor="start" dominant-baseline="alphabetic">return information</text></g><g><path fill="none" stroke="black" paint-order="fill stroke markers" d=" M 32.8494478296875 890.846594736 L 260.73724281894533 890.846594736" stroke-miterlimit="10" stroke-width="1.4659797833333332" stroke-dasharray="7.0367029599999995"/><g transform="translate(263.669202385612,890.846594736) translate(-263.669202385612,-890.846594736)"><path fill="black" stroke="none" paint-order="stroke fill markers" d=" M 249.00940455227865 883.5166958193333 L 263.669202385612 890.846594736 L 249.00940455227865 898.1764936526667 Z"/></g></g><g><g><rect fill="white" stroke="none" x="442.6687871432877" y="917.234230836" width="142.18522680496093" height="22.86928462"/></g><text fill="black" stroke="none" font-family="sans-serif" font-size="11pt" font-style="normal" font-weight="normal" text-decoration="normal" x="445.3075507532877" y="933.066812496" text-anchor="start" dominant-baseline="alphabetic">addANewBooking()</text></g><g><path fill="none" stroke="black" paint-order="fill stroke markers" d=" M 281.260959785612 940.1035154560001 L 743.3298817392578 940.1035154560001" stroke-miterlimit="10" stroke-width="1.4659797833333332" stroke-dasharray=""/><g transform="translate(746.2618413059245,940.1035154560001) translate(-746.2618413059245,-940.1035154560001)"><path fill="black" stroke="none" paint-order="stroke fill markers" d=" M 731.6020434725912 932.7736165393334 L 746.2618413059245 940.1035154560001 L 731.6020434725912 947.4334143726668 Z"/></g></g><g><g><rect fill="white" stroke="none" x="461.2264424777604" y="966.4911515560001" width="105.06991613601562" height="22.86928462"/></g><text fill="black" stroke="none" font-family="sans-serif" font-size="11pt" font-style="normal" font-weight="normal" text-decoration="normal" x="463.8652060877604" y="982.323733216" text-anchor="start" dominant-baseline="alphabetic">return success</text></g><g><path fill="none" stroke="black" paint-order="fill stroke markers" d=" M 746.2618413059245 989.3604361760001 L 284.19291935227864 989.3604361760001" stroke-miterlimit="10" stroke-width="1.4659797833333332" stroke-dasharray=""/><g transform="translate(281.260959785612,989.3604361760001) translate(-281.260959785612,-989.3604361760001)"><path fill="black" stroke="none" paint-order="stroke fill markers" d=" M 295.92075761894534 982.0305372593334 L 281.260959785612 989.3604361760001 L 295.92075761894534 996.6903350926668 Z"/></g></g><g><g><rect fill="white" stroke="none" x="545.9919472248231" y="1015.748072276" width="152.11363256667968" height="22.86928462"/></g><text fill="black" stroke="none" font-family="sans-serif" font-size="11pt" font-style="normal" font-weight="normal" text-decoration="normal" x="548.630710834823" y="1031.5806539359999" text-anchor="start" dominant-baseline="alphabetic">addANewCustomer()</text></g><g><path fill="none" stroke="black" paint-order="fill stroke markers" d=" M 281.260959785612 1038.617356896 L 959.9046076640469 1038.617356896" stroke-miterlimit="10" stroke-width="1.4659797833333332" stroke-dasharray=""/><g transform="translate(962.8365672307136,1038.617356896) translate(-962.8365672307136,-1038.617356896)"><path fill="black" stroke="none" paint-order="stroke fill markers" d=" M 948.1767693973803 1031.2874579793333 L 962.8365672307136 1038.617356896 L 948.1767693973803 1045.9472558126668 Z"/></g></g><g><g><rect fill="white" stroke="none" x="569.5138054401551" y="1065.004992996" width="105.06991613601562" height="22.86928462"/></g><text fill="black" stroke="none" font-family="sans-serif" font-size="11pt" font-style="normal" font-weight="normal" text-decoration="normal" x="572.1525690501551" y="1080.837574656" text-anchor="start" dominant-baseline="alphabetic">return success</text></g><g><path fill="none" stroke="black" paint-order="fill stroke markers" d=" M 962.8365672307136 1087.874277616 L 284.19291935227864 1087.874277616" stroke-miterlimit="10" stroke-width="1.4659797833333332" stroke-dasharray=""/><g transform="translate(281.260959785612,1087.874277616) translate(-281.260959785612,-1087.874277616)"><path fill="black" stroke="none" paint-order="stroke fill markers" d=" M 295.92075761894534 1080.5443786993333 L 281.260959785612 1087.874277616 L 295.92075761894534 1095.2041765326667 Z"/></g></g><g><g><rect fill="white" stroke="none" x="302.07787270894534" y="1114.261913716" width="92.48587072585937" height="22.86928462"/></g><text fill="black" stroke="none" font-family="sans-serif" font-size="11pt" font-style="normal" font-weight="normal" text-decoration="normal" x="304.71663631894535" y="1130.094495376" text-anchor="start" dominant-baseline="alphabetic">showMenu()</text></g><g><path fill="none" stroke="black" paint-order="fill stroke markers" d=" M 281.260959785612 1137.131198336 L 351.62798938561195 1137.131198336 L 351.62798938561195 1154.722955736 L 284.19291935227864 1154.722955736" stroke-miterlimit="10" stroke-width="1.4659797833333332" stroke-dasharray=""/><g transform="translate(281.260959785612,1154.722955736) translate(-281.260959785612,-1154.722955736)"><path fill="black" stroke="none" paint-order="stroke fill markers" d=" M 295.92075761894534 1147.3930568193332 L 281.260959785612 1154.722955736 L 295.92075761894534 1162.0528546526666 Z"/></g></g><g><g><rect fill="white" stroke="none" x="91.32642768964193" y="1181.110591836" width="105.06991613601562" height="22.86928462"/></g><text fill="black" stroke="none" font-family="sans-serif" font-size="11pt" font-style="normal" font-weight="normal" text-decoration="normal" x="93.96519129964193" y="1196.9431734959999" text-anchor="start" dominant-baseline="alphabetic">return success</text></g><g><path fill="none" stroke="black" paint-order="fill stroke markers" d=" M 263.669202385612 1203.9798764559998 L 26.985528696354166 1203.9798764559998" stroke-miterlimit="10" stroke-width="1.4659797833333332" stroke-dasharray="7.0367029599999995"/><g transform="translate(24.0535691296875,1203.9798764559998) translate(-24.0535691296875,-1203.9798764559998)"><path fill="black" stroke="none" paint-order="stroke fill markers" d=" M 38.71336696302083 1196.6499775393331 L 24.0535691296875 1203.9798764559998 L 38.71336696302083 1211.3097753726665 Z"/></g></g></g><g/><g/><g/><g/><g/><g/></g></svg>