<svg version="1.1" xmlns="http://www.w3.org/2000/svg" xmlns:xlink="http://www.w3.org/1999/xlink" width="1011" height="1462"><defs/><g><g/><g/><g/><g/><g/><g/><g/><g/><g/><g/><g/><g/><g/><g/><g/><g/><g/><g/><g/><g/><g/><g/><g/><g/><g><rect fill="white" stroke="none" x="0" y="0" width="1011" height="1462"/></g><g><text fill="black" stroke="none" font-family="sans-serif" font-size="16.5pt" font-style="normal" font-weight="normal" text-decoration="normal" x="436.03031530771483" y="26.3876361" text-anchor="start" dominant-baseline="alphabetic">Check-in BCE</text></g><g/><g><path fill="none" stroke="black" paint-order="fill stroke markers" d=" M 40.22394113896485 139.67855375599999 L 40.22394113896485 1462.5787102359998" stroke-miterlimit="10" stroke-width="1.4659797833333332" stroke-dasharray="13.532121076923076,5.863919133333333"/><path fill="none" stroke="black" paint-order="fill stroke markers" d=" M 248.26324545328777 139.67855375599999 L 248.26324545328777 1462.5787102359998" stroke-miterlimit="10" stroke-width="1.4659797833333332" stroke-dasharray="13.532121076923076,5.863919133333333"/><path fill="none" stroke="black" paint-order="fill stroke markers" d=" M 515.1214584590169 139.67855375599999 L 515.1214584590169 1462.5787102359998" stroke-miterlimit="10" stroke-width="1.4659797833333332" stroke-dasharray="13.532121076923076,5.863919133333333"/><path fill="none" stroke="black" paint-order="fill stroke markers" d=" M 703.6906316880534 139.67855375599999 L 703.6906316880534 1462.5787102359998" stroke-miterlimit="10" stroke-width="1.4659797833333332" stroke-dasharray="13.532121076923076,5.863919133333333"/><path fill="none" stroke="black" paint-order="fill stroke markers" d=" M 817.8125208826172 139.67855375599999 L 817.8125208826172 1462.5787102359998" stroke-miterlimit="10" stroke-width="1.4659797833333332" stroke-dasharray="13.532121076923076,5.863919133333333"/><path fill="none" stroke="black" paint-order="fill stroke markers" d=" M 940.196712975 139.67855375599999 L 940.196712975 1462.5787102359998" stroke-miterlimit="10" stroke-width="1.4659797833333332" stroke-dasharray="13.532121076923076,5.863919133333333"/></g><g><g><path fill="white" stroke="black" paint-order="fill stroke markers" d=" M 50.25124285696484 65.265419954 A 10.027301717999999 10.027301717999999 0 1 1 50.25123784331441 65.25539265395321 M 40.22394113896485 75.29272167199998 L 40.22394113896485 96.75466569999998 M 27.55787581096485 83.033094928 L 52.89000646696485 83.033094928 M 40.22394113896485 96.75466569999998 L 27.55787581096485 116.80926913599998 M 40.22394113896485 96.75466569999998 L 52.89000646696485 116.80926913599998" stroke-miterlimit="10" stroke-width="2.990598758" stroke-dasharray=""/></g><g><g/><text fill="black" stroke="none" font-family="sans-serif" font-size="11pt" font-style="normal" font-weight="normal" text-decoration="normal" x="8.795878700000003" y="134.401026536" text-anchor="start" dominant-baseline="alphabetic">Manager</text></g><g><path fill="white" stroke="black" paint-order="fill stroke markers" d=" M 274.38700519228775 89.19021001799997 A 26.123759739 26.123759739 0 1 1 274.386992130409 89.16408626261492 M 244.74489397328776 63.06645027899997 L 255.29994841328775 54.27057157899998 M 244.74489397328776 63.06645027899997 L 255.29994841328775 71.86232897899997" stroke-miterlimit="10" stroke-width="2.990598758" stroke-dasharray=""/></g><g><g/><text fill="black" stroke="none" font-family="sans-serif" font-size="11pt" font-style="normal" font-weight="normal" text-decoration="normal" x="193.9361046451823" y="134.401026536" text-anchor="start" dominant-baseline="alphabetic">BookingSystem</text></g><path fill="none" stroke="none"/><g><path fill="white" stroke="black" paint-order="fill stroke markers" d=" M 476.8647468338255 92.18080877599999 L 553.3781700842084 92.18080877599999 L 553.3781700842084 139.67855375599999 L 476.8647468338255 139.67855375599999 L 476.8647468338255 92.18080877599999 Z" stroke-miterlimit="10" stroke-width="2.814681184" stroke-dasharray=""/></g><g><g/><text fill="black" stroke="none" font-family="sans-serif" font-size="11pt" font-style="normal" font-weight="normal" text-decoration="normal" x="495.95180361282553" y="122.08679635600001" text-anchor="start" dominant-baseline="alphabetic">Hotel</text></g><g><path fill="white" stroke="black" paint-order="fill stroke markers" d=" M 729.8143914270534 86.79773101159998 A 26.123759739 26.123759739 0 1 1 729.8143783651745 86.77160725621492 M 676.0715725700534 115.31396975699997 L 728.3190920480533 115.31396975699997" stroke-miterlimit="10" stroke-width="2.990598758" stroke-dasharray=""/></g><g><g/><text fill="black" stroke="none" font-family="sans-serif" font-size="11pt" font-style="normal" font-weight="normal" text-decoration="normal" x="684.7035101060221" y="134.401026536" text-anchor="start" dominant-baseline="alphabetic">room</text></g><g><path fill="white" stroke="black" paint-order="fill stroke markers" d=" M 843.9362806216171 86.79773101159998 A 26.123759739 26.123759739 0 1 1 843.9362675597383 86.77160725621492 M 790.1934617646172 115.31396975699997 L 842.4409812426171 115.31396975699997" stroke-miterlimit="10" stroke-width="2.990598758" stroke-dasharray=""/></g><g><g/><text fill="black" stroke="none" font-family="sans-serif" font-size="11pt" font-style="normal" font-weight="normal" text-decoration="normal" x="775.897695443164" y="134.401026536" text-anchor="start" dominant-baseline="alphabetic">Booking(all)</text></g><g><path fill="white" stroke="black" paint-order="fill stroke markers" d=" M 966.320472714 86.79773101159998 A 26.123759739 26.123759739 0 1 1 966.3204596521211 86.77160725621492 M 912.577653857 115.31396975699997 L 964.8251733349999 115.31396975699997" stroke-miterlimit="10" stroke-width="2.990598758" stroke-dasharray=""/></g><g><g/><text fill="black" stroke="none" font-family="sans-serif" font-size="11pt" font-style="normal" font-weight="normal" text-decoration="normal" x="877.3191037220703" y="134.401026536" text-anchor="start" dominant-baseline="alphabetic">Booking(selected)</text></g></g><g><path fill="white" stroke="black" paint-order="fill stroke markers" d=" M 239.46736675328776 197.73135317599997 L 257.05912415328777 197.73135317599997 L 257.05912415328777 1401.0075593359998 L 239.46736675328776 1401.0075593359998 L 239.46736675328776 197.73135317599997" stroke-miterlimit="10" stroke-width="1.4659797833333332" stroke-dasharray=""/><path fill="white" stroke="black" paint-order="fill stroke markers" d=" M 506.32557975901693 246.98827389599995 L 523.9173371590169 246.98827389599995 L 523.9173371590169 1284.901960496 L 506.32557975901693 1284.901960496 L 506.32557975901693 246.98827389599995" stroke-miterlimit="10" stroke-width="1.4659797833333332" stroke-dasharray=""/><path fill="white" stroke="black" paint-order="fill stroke markers" d=" M 694.8947529880534 296.24519461599994 L 712.4865103880534 296.24519461599994 L 712.4865103880534 345.5021153359999 L 694.8947529880534 345.5021153359999 L 694.8947529880534 296.24519461599994" stroke-miterlimit="10" stroke-width="1.4659797833333332" stroke-dasharray=""/><path fill="white" stroke="black" paint-order="fill stroke markers" d=" M 809.0166421826171 394.7590360559999 L 826.6083995826172 394.7590360559999 L 826.6083995826172 444.0159567759999 L 809.0166421826171 444.0159567759999 L 809.0166421826171 394.7590360559999" stroke-miterlimit="10" stroke-width="1.4659797833333332" stroke-dasharray=""/><path fill="white" stroke="black" paint-order="fill stroke markers" d=" M 931.400834275 774.7409958960001 L 948.992591675 774.7409958960001 L 948.992591675 823.9979166160001 L 931.400834275 823.9979166160001 L 931.400834275 774.7409958960001" stroke-miterlimit="10" stroke-width="1.4659797833333332" stroke-dasharray=""/><path fill="white" stroke="black" paint-order="fill stroke markers" d=" M 31.428062438964847 1038.6173568960003 L 49.01981983896485 1038.6173568960003 L 49.01981983896485 1087.8742776160002 L 31.428062438964847 1087.8742776160002 L 31.428062438964847 1038.6173568960003" stroke-miterlimit="10" stroke-width="1.4659797833333332" stroke-dasharray=""/><path fill="white" stroke="black" paint-order="fill stroke markers" d=" M 931.400834275 1186.388119056 L 948.992591675 1186.388119056 L 948.992591675 1235.645039776 L 931.400834275 1235.645039776 L 931.400834275 1186.388119056" stroke-miterlimit="10" stroke-width="1.4659797833333332" stroke-dasharray=""/><g><g><rect fill="white" stroke="none" x="89.13959907636068" y="174.86206855599997" width="101.41210973953125" height="22.86928462"/></g><text fill="black" stroke="none" font-family="sans-serif" font-size="11pt" font-style="normal" font-weight="normal" text-decoration="normal" x="91.77836268636068" y="190.69465021599999" text-anchor="start" dominant-baseline="alphabetic">setTime(time)</text></g><g><path fill="none" stroke="black" paint-order="fill stroke markers" d=" M 40.22394113896485 197.73135317599997 L 236.5354071866211 197.73135317599997" stroke-miterlimit="10" stroke-width="1.4659797833333332" stroke-dasharray=""/><g transform="translate(239.46736675328776,197.73135317599997) translate(-239.46736675328776,-197.73135317599997)"><path fill="black" stroke="none" paint-order="stroke fill markers" d=" M 224.80756891995443 190.4014542593333 L 239.46736675328776 197.73135317599997 L 224.80756891995443 205.06125209266665 Z"/></g></g><g><g><rect fill="white" stroke="none" x="325.8968042885352" y="224.11898927599995" width="111.59109533523437" height="22.86928462"/></g><text fill="black" stroke="none" font-family="sans-serif" font-size="11pt" font-style="normal" font-weight="normal" text-decoration="normal" x="328.5355678985352" y="239.95157093599997" text-anchor="start" dominant-baseline="alphabetic">getRoom(time)</text></g><g><path fill="none" stroke="black" paint-order="fill stroke markers" d=" M 257.05912415328777 246.98827389599995 L 503.3936201923503 246.98827389599995" stroke-miterlimit="10" stroke-width="1.4659797833333332" stroke-dasharray=""/><g transform="translate(506.32557975901693,246.98827389599995) translate(-506.32557975901693,-246.98827389599995)"><path fill="black" stroke="none" paint-order="stroke fill markers" d=" M 491.6657819256836 239.65837497933327 L 506.32557975901693 246.98827389599995 L 491.6657819256836 254.31817281266663 Z"/></g></g><g><g><rect fill="white" stroke="none" x="569.4086617735937" y="273.37590999599996" width="79.99476659988281" height="22.86928462"/></g><text fill="black" stroke="none" font-family="sans-serif" font-size="11pt" font-style="normal" font-weight="normal" text-decoration="normal" x="572.0474253835937" y="289.208491656" text-anchor="start" dominant-baseline="alphabetic">*selectAll()</text></g><g><path fill="none" stroke="black" paint-order="fill stroke markers" d=" M 523.9173371590169 296.24519461599994 L 691.9627934213867 296.24519461599994" stroke-miterlimit="10" stroke-width="1.4659797833333332" stroke-dasharray=""/><g transform="translate(694.8947529880534,296.24519461599994) translate(-694.8947529880534,-296.24519461599994)"><path fill="black" stroke="none" paint-order="stroke fill markers" d=" M 680.2349551547201 288.9152956993333 L 694.8947529880534 296.24519461599994 L 680.2349551547201 303.5750935326666 Z"/></g></g><g><g><rect fill="white" stroke="none" x="554.1509637145117" y="322.63283071599994" width="110.51016271804687" height="22.86928462"/></g><text fill="black" stroke="none" font-family="sans-serif" font-size="11pt" font-style="normal" font-weight="normal" text-decoration="normal" x="556.7897273245117" y="338.46541237599996" text-anchor="start" dominant-baseline="alphabetic">return allRoom</text></g><g><path fill="none" stroke="black" paint-order="fill stroke markers" d=" M 694.8947529880534 345.5021153359999 L 526.8492967256836 345.5021153359999" stroke-miterlimit="10" stroke-width="1.4659797833333332" stroke-dasharray="7.0367029599999995"/><g transform="translate(523.9173371590169,345.5021153359999) translate(-523.9173371590169,-345.5021153359999)"><path fill="black" stroke="none" paint-order="stroke fill markers" d=" M 538.5771349923502 338.17221641933327 L 523.9173371590169 345.5021153359999 L 538.5771349923502 352.83201425266657 Z"/></g></g><g><g><rect fill="white" stroke="none" x="590.7537707995866" y="371.8897514359999" width="151.42643774246093" height="22.86928462"/></g><text fill="black" stroke="none" font-family="sans-serif" font-size="11pt" font-style="normal" font-weight="normal" text-decoration="normal" x="593.3925344095866" y="387.72233309599994" text-anchor="start" dominant-baseline="alphabetic">*selectBooking(time)</text></g><g><path fill="none" stroke="black" paint-order="fill stroke markers" d=" M 523.9173371590169 394.7590360559999 L 806.0846826159504 394.7590360559999" stroke-miterlimit="10" stroke-width="1.4659797833333332" stroke-dasharray=""/><g transform="translate(809.0166421826171,394.7590360559999) translate(-809.0166421826171,-394.7590360559999)"><path fill="black" stroke="none" paint-order="stroke fill markers" d=" M 794.3568443492838 387.42913713933325 L 809.0166421826171 394.7590360559999 L 794.3568443492838 402.08893497266655 Z"/></g></g><g><g><rect fill="white" stroke="none" x="603.1195697497819" y="421.1466721559999" width="126.69483984207031" height="22.86928462"/></g><text fill="black" stroke="none" font-family="sans-serif" font-size="11pt" font-style="normal" font-weight="normal" text-decoration="normal" x="605.7583333597819" y="436.9792538159999" text-anchor="start" dominant-baseline="alphabetic">return allBooking</text></g><g><path fill="none" stroke="black" paint-order="fill stroke markers" d=" M 809.0166421826171 444.0159567759999 L 526.8492967256836 444.0159567759999" stroke-miterlimit="10" stroke-width="1.4659797833333332" stroke-dasharray="7.0367029599999995"/><g transform="translate(523.9173371590169,444.0159567759999) translate(-523.9173371590169,-444.0159567759999)"><path fill="black" stroke="none" paint-order="stroke fill markers" d=" M 538.5771349923502 436.68605785933323 L 523.9173371590169 444.0159567759999 L 538.5771349923502 451.34585569266653 Z"/></g></g><g><g><rect fill="white" stroke="none" x="544.7342500823503" y="470.4035928759999" width="144.00338781570312" height="22.86928462"/></g><text fill="black" stroke="none" font-family="sans-serif" font-size="11pt" font-style="normal" font-weight="normal" text-decoration="normal" x="547.3730136923502" y="486.2361745359999" text-anchor="start" dominant-baseline="alphabetic">matchRoomStatus()</text></g><g><path fill="none" stroke="black" paint-order="fill stroke markers" d=" M 523.9173371590169 493.27287749599986 L 594.284366759017 493.27287749599986 L 594.284366759017 510.86463489599987 L 526.8492967256836 510.86463489599987" stroke-miterlimit="10" stroke-width="1.4659797833333332" stroke-dasharray=""/><g transform="translate(523.9173371590169,510.86463489599987) translate(-523.9173371590169,-510.86463489599987)"><path fill="black" stroke="none" paint-order="stroke fill markers" d=" M 538.5771349923502 503.5347359793332 L 523.9173371590169 510.86463489599987 L 538.5771349923502 518.1945338126666 Z"/></g></g><g><g><rect fill="white" stroke="none" x="301.3907541786719" y="537.2522709959999" width="160.60319555496093" height="22.86928462"/></g><text fill="black" stroke="none" font-family="sans-serif" font-size="11pt" font-style="normal" font-weight="normal" text-decoration="normal" x="304.0295177886719" y="553.0848526559998" text-anchor="start" dominant-baseline="alphabetic">return allRoomsStatus</text></g><g><path fill="none" stroke="black" paint-order="fill stroke markers" d=" M 506.32557975901693 560.1215556159999 L 259.9910837199544 560.1215556159999" stroke-miterlimit="10" stroke-width="1.4659797833333332" stroke-dasharray="7.0367029599999995"/><g transform="translate(257.05912415328777,560.1215556159999) translate(-257.05912415328777,-560.1215556159999)"><path fill="black" stroke="none" paint-order="stroke fill markers" d=" M 271.7189219866211 552.7916566993332 L 257.05912415328777 560.1215556159999 L 271.7189219866211 567.4514545326666 Z"/></g></g><g><g><rect fill="white" stroke="none" x="277.8760370766211" y="586.5091917159999" width="141.5481113264453" height="22.86928462"/></g><text fill="black" stroke="none" font-family="sans-serif" font-size="11pt" font-style="normal" font-weight="normal" text-decoration="normal" x="280.51480068662113" y="602.3417733759999" text-anchor="start" dominant-baseline="alphabetic">refreshRoomState()</text></g><g><path fill="none" stroke="black" paint-order="fill stroke markers" d=" M 257.05912415328777 609.378476336 L 327.42615375328774 609.378476336 L 327.42615375328774 626.970233736 L 259.9910837199544 626.970233736" stroke-miterlimit="10" stroke-width="1.4659797833333332" stroke-dasharray=""/><g transform="translate(257.05912415328777,626.970233736) translate(-257.05912415328777,-626.970233736)"><path fill="black" stroke="none" paint-order="stroke fill markers" d=" M 271.7189219866211 619.6403348193332 L 257.05912415328777 626.970233736 L 271.7189219866211 634.3001326526667 Z"/></g></g><g><g><rect fill="white" stroke="none" x="65.43879341229818" y="653.357869836" width="148.81372106765625" height="22.86928462"/></g><text fill="black" stroke="none" font-family="sans-serif" font-size="11pt" font-style="normal" font-weight="normal" text-decoration="normal" x="68.07755702229818" y="669.1904514959999" text-anchor="start" dominant-baseline="alphabetic">selectRoom(roomId)</text></g><g><path fill="none" stroke="black" paint-order="fill stroke markers" d=" M 40.22394113896485 676.227154456 L 236.5354071866211 676.227154456" stroke-miterlimit="10" stroke-width="1.4659797833333332" stroke-dasharray=""/><g transform="translate(239.46736675328776,676.227154456) translate(-239.46736675328776,-676.227154456)"><path fill="black" stroke="none" paint-order="stroke fill markers" d=" M 224.80756891995443 668.8972555393333 L 239.46736675328776 676.227154456 L 224.80756891995443 683.5570533726667 Z"/></g></g><g><g><rect fill="white" stroke="none" x="277.8760370766211" y="702.614790556" width="207.6326297590625" height="22.86928462"/></g><text fill="black" stroke="none" font-family="sans-serif" font-size="11pt" font-style="normal" font-weight="normal" text-decoration="normal" x="280.51480068662113" y="718.447372216" text-anchor="start" dominant-baseline="alphabetic">getRoomDetail(time,roomId)</text></g><g><path fill="none" stroke="black" paint-order="fill stroke markers" d=" M 257.05912415328777 725.484075176 L 503.3936201923503 725.484075176" stroke-miterlimit="10" stroke-width="1.4659797833333332" stroke-dasharray=""/><g transform="translate(506.32557975901693,725.484075176) translate(-506.32557975901693,-725.484075176)"><path fill="black" stroke="none" paint-order="stroke fill markers" d=" M 491.6657819256836 718.1541762593333 L 506.32557975901693 725.484075176 L 491.6657819256836 732.8139740926667 Z"/></g></g><g><g><rect fill="white" stroke="none" x="688.1198170410905" y="751.871711276" width="79.07853735183593" height="22.86928462"/></g><text fill="black" stroke="none" font-family="sans-serif" font-size="11pt" font-style="normal" font-weight="normal" text-decoration="normal" x="690.7585806510905" y="767.704292936" text-anchor="start" dominant-baseline="alphabetic">getDetail()</text></g><g><path fill="none" stroke="black" paint-order="fill stroke markers" d=" M 523.9173371590169 774.7409958960001 L 928.4688747083333 774.7409958960001" stroke-miterlimit="10" stroke-width="1.4659797833333332" stroke-dasharray=""/><g transform="translate(931.400834275,774.7409958960001) translate(-931.400834275,-774.7409958960001)"><path fill="black" stroke="none" paint-order="stroke fill markers" d=" M 916.7410364416667 767.4110969793334 L 931.400834275 774.7409958960001 L 916.7410364416667 782.0708948126668 Z"/></g></g><g><g><rect fill="white" stroke="none" x="681.7991459595476" y="801.1286319960001" width="91.71987951492187" height="22.86928462"/></g><text fill="black" stroke="none" font-family="sans-serif" font-size="11pt" font-style="normal" font-weight="normal" text-decoration="normal" x="684.4379095695475" y="816.961213656" text-anchor="start" dominant-baseline="alphabetic">return detail</text></g><g><path fill="none" stroke="black" paint-order="fill stroke markers" d=" M 931.400834275 823.9979166160001 L 526.8492967256836 823.9979166160001" stroke-miterlimit="10" stroke-width="1.4659797833333332" stroke-dasharray="7.0367029599999995"/><g transform="translate(523.9173371590169,823.9979166160001) translate(-523.9173371590169,-823.9979166160001)"><path fill="black" stroke="none" paint-order="stroke fill markers" d=" M 538.5771349923502 816.6680176993334 L 523.9173371590169 823.9979166160001 L 538.5771349923502 831.3278155326668 Z"/></g></g><g><g><rect fill="white" stroke="none" x="335.83241219869143" y="850.3855527160001" width="91.71987951492187" height="22.86928462"/></g><text fill="black" stroke="none" font-family="sans-serif" font-size="11pt" font-style="normal" font-weight="normal" text-decoration="normal" x="338.47117580869144" y="866.2181343760001" text-anchor="start" dominant-baseline="alphabetic">return detail</text></g><g><path fill="none" stroke="black" paint-order="fill stroke markers" d=" M 506.32557975901693 873.2548373360002 L 259.9910837199544 873.2548373360002" stroke-miterlimit="10" stroke-width="1.4659797833333332" stroke-dasharray="7.0367029599999995"/><g transform="translate(257.05912415328777,873.2548373360002) translate(-257.05912415328777,-873.2548373360002)"><path fill="black" stroke="none" paint-order="stroke fill markers" d=" M 271.7189219866211 865.9249384193334 L 257.05912415328777 873.2548373360002 L 271.7189219866211 880.5847362526669 Z"/></g></g><g><g><rect fill="white" stroke="none" x="277.8760370766211" y="899.6424734360002" width="134.5760654280078" height="22.86928462"/></g><text fill="black" stroke="none" font-family="sans-serif" font-size="11pt" font-style="normal" font-weight="normal" text-decoration="normal" x="280.51480068662113" y="915.4750550960001" text-anchor="start" dominant-baseline="alphabetic">showRoomDetail()</text></g><g><path fill="none" stroke="black" paint-order="fill stroke markers" d=" M 257.05912415328777 922.5117580560002 L 327.42615375328774 922.5117580560002 L 327.42615375328774 940.1035154560002 L 259.9910837199544 940.1035154560002" stroke-miterlimit="10" stroke-width="1.4659797833333332" stroke-dasharray=""/><g transform="translate(257.05912415328777,940.1035154560002) translate(-257.05912415328777,-940.1035154560002)"><path fill="black" stroke="none" paint-order="stroke fill markers" d=" M 271.7189219866211 932.7736165393335 L 257.05912415328777 940.1035154560002 L 271.7189219866211 947.4334143726669 Z"/></g></g><g><g><rect fill="white" stroke="none" x="105.82893013104818" y="966.4911515560002" width="68.03344763015625" height="22.86928462"/></g><text fill="black" stroke="none" font-family="sans-serif" font-size="11pt" font-style="normal" font-weight="normal" text-decoration="normal" x="108.46769374104818" y="982.3237332160002" text-anchor="start" dominant-baseline="alphabetic">checkin()</text></g><g><path fill="none" stroke="black" paint-order="fill stroke markers" d=" M 40.22394113896485 989.3604361760002 L 236.5354071866211 989.3604361760002" stroke-miterlimit="10" stroke-width="1.4659797833333332" stroke-dasharray=""/><g transform="translate(239.46736675328776,989.3604361760002) translate(-239.46736675328776,-989.3604361760002)"><path fill="black" stroke="none" paint-order="stroke fill markers" d=" M 224.80756891995443 982.0305372593335 L 239.46736675328776 989.3604361760002 L 224.80756891995443 996.6903350926669 Z"/></g></g><g><g><rect fill="white" stroke="none" x="97.0343188218685" y="1015.7480722760002" width="94.41854894851562" height="22.86928462"/></g><text fill="black" stroke="none" font-family="sans-serif" font-size="11pt" font-style="normal" font-weight="normal" text-decoration="normal" x="99.6730824318685" y="1031.580653936" text-anchor="start" dominant-baseline="alphabetic">askConfirm()</text></g><g><path fill="none" stroke="black" paint-order="fill stroke markers" d=" M 239.46736675328776 1038.6173568960003 L 51.95177940563151 1038.6173568960003" stroke-miterlimit="10" stroke-width="1.4659797833333332" stroke-dasharray=""/><g transform="translate(49.01981983896485,1038.6173568960003) translate(-49.01981983896485,-1038.6173568960003)"><path fill="black" stroke="none" paint-order="stroke fill markers" d=" M 63.67961767229818 1031.2874579793336 L 49.01981983896485 1038.6173568960003 L 63.67961767229818 1045.947255812667 Z"/></g></g><g><g><rect fill="white" stroke="none" x="88.55185879989584" y="1065.0049929960003" width="111.38346899246093" height="22.86928462"/></g><text fill="black" stroke="none" font-family="sans-serif" font-size="11pt" font-style="normal" font-weight="normal" text-decoration="normal" x="91.19062240989584" y="1080.8375746560002" text-anchor="start" dominant-baseline="alphabetic">return comfirm</text></g><g><path fill="none" stroke="black" paint-order="fill stroke markers" d=" M 49.01981983896485 1087.8742776160002 L 236.5354071866211 1087.8742776160002" stroke-miterlimit="10" stroke-width="1.4659797833333332" stroke-dasharray="7.0367029599999995"/><g transform="translate(239.46736675328776,1087.8742776160002) translate(-239.46736675328776,-1087.8742776160002)"><path fill="black" stroke="none" paint-order="stroke fill markers" d=" M 224.80756891995443 1080.5443786993335 L 239.46736675328776 1087.8742776160002 L 224.80756891995443 1095.204176532667 Z"/></g></g><g><g><rect fill="white" stroke="none" x="285.8860926186133" y="1114.2619137160002" width="191.61251867507812" height="22.86928462"/></g><text fill="black" stroke="none" font-family="sans-serif" font-size="11pt" font-style="normal" font-weight="normal" text-decoration="normal" x="288.5248562286133" y="1130.0944953760002" text-anchor="start" dominant-baseline="alphabetic">updateRoomStatus(status)</text></g><g><path fill="none" stroke="black" paint-order="fill stroke markers" d=" M 257.05912415328777 1137.1311983360001 L 503.3936201923503 1137.1311983360001" stroke-miterlimit="10" stroke-width="1.4659797833333332" stroke-dasharray=""/><g transform="translate(506.32557975901693,1137.1311983360001) translate(-506.32557975901693,-1137.1311983360001)"><path fill="black" stroke="none" paint-order="stroke fill markers" d=" M 491.6657819256836 1129.8012994193334 L 506.32557975901693 1137.1311983360001 L 491.6657819256836 1144.4610972526668 Z"/></g></g><g><g><rect fill="white" stroke="none" x="652.826352380446" y="1163.5188344360001" width="149.665466673125" height="22.86928462"/></g><text fill="black" stroke="none" font-family="sans-serif" font-size="11pt" font-style="normal" font-weight="normal" text-decoration="normal" x="655.465115990446" y="1179.351416096" text-anchor="start" dominant-baseline="alphabetic">updateStatus(status)</text></g><g><path fill="none" stroke="black" paint-order="fill stroke markers" d=" M 523.9173371590169 1186.388119056 L 928.4688747083333 1186.388119056" stroke-miterlimit="10" stroke-width="1.4659797833333332" stroke-dasharray=""/><g transform="translate(931.400834275,1186.388119056) translate(-931.400834275,-1186.388119056)"><path fill="black" stroke="none" paint-order="stroke fill markers" d=" M 916.7410364416667 1179.0582201393333 L 931.400834275 1186.388119056 L 916.7410364416667 1193.7180179726668 Z"/></g></g><g><g><rect fill="white" stroke="none" x="666.441228173903" y="1212.775755156" width="122.43571508621093" height="22.86928462"/></g><text fill="black" stroke="none" font-family="sans-serif" font-size="11pt" font-style="normal" font-weight="normal" text-decoration="normal" x="669.079991783903" y="1228.608336816" text-anchor="start" dominant-baseline="alphabetic">return newDetail</text></g><g><path fill="none" stroke="black" paint-order="fill stroke markers" d=" M 931.400834275 1235.645039776 L 526.8492967256836 1235.645039776" stroke-miterlimit="10" stroke-width="1.4659797833333332" stroke-dasharray="7.0367029599999995"/><g transform="translate(523.9173371590169,1235.645039776) translate(-523.9173371590169,-1235.645039776)"><path fill="black" stroke="none" paint-order="stroke fill markers" d=" M 538.5771349923502 1228.3151408593333 L 523.9173371590169 1235.645039776 L 538.5771349923502 1242.9749386926667 Z"/></g></g><g><g><rect fill="white" stroke="none" x="320.4744944130469" y="1262.032675876" width="122.43571508621093" height="22.86928462"/></g><text fill="black" stroke="none" font-family="sans-serif" font-size="11pt" font-style="normal" font-weight="normal" text-decoration="normal" x="323.1132580230469" y="1277.865257536" text-anchor="start" dominant-baseline="alphabetic">return newDetail</text></g><g><path fill="none" stroke="black" paint-order="fill stroke markers" d=" M 506.32557975901693 1284.901960496 L 259.9910837199544 1284.901960496" stroke-miterlimit="10" stroke-width="1.4659797833333332" stroke-dasharray="7.0367029599999995"/><g transform="translate(257.05912415328777,1284.901960496) translate(-257.05912415328777,-1284.901960496)"><path fill="black" stroke="none" paint-order="stroke fill markers" d=" M 271.7189219866211 1277.5720615793332 L 257.05912415328777 1284.901960496 L 271.7189219866211 1292.2318594126666 Z"/></g></g><g><g><rect fill="white" stroke="none" x="277.8760370766211" y="1311.289596596" width="149.04989660476562" height="22.86928462"/></g><text fill="black" stroke="none" font-family="sans-serif" font-size="11pt" font-style="normal" font-weight="normal" text-decoration="normal" x="280.51480068662113" y="1327.1221782559999" text-anchor="start" dominant-baseline="alphabetic">refreshRoomStatus()</text></g><g><path fill="none" stroke="black" paint-order="fill stroke markers" d=" M 257.05912415328777 1334.1588812159998 L 327.42615375328774 1334.1588812159998 L 327.42615375328774 1351.7506386159998 L 259.9910837199544 1351.7506386159998" stroke-miterlimit="10" stroke-width="1.4659797833333332" stroke-dasharray=""/><g transform="translate(257.05912415328777,1351.7506386159998) translate(-257.05912415328777,-1351.7506386159998)"><path fill="black" stroke="none" paint-order="stroke fill markers" d=" M 271.7189219866211 1344.4207396993331 L 257.05912415328777 1351.7506386159998 L 271.7189219866211 1359.0805375326665 Z"/></g></g><g><g><rect fill="white" stroke="none" x="137.2068903361263" y="1378.1382747159998" width="5.27752722" height="22.86928462"/></g><text fill="black" stroke="none" font-family="sans-serif" font-size="11pt" font-style="normal" font-weight="normal" text-decoration="normal" x="139.8456539461263" y="1393.9708563759998" text-anchor="start" dominant-baseline="alphabetic"></text></g><g><path fill="none" stroke="black" paint-order="fill stroke markers" d=" M 239.46736675328776 1401.0075593359998 L 43.15590070563151 1401.0075593359998" stroke-miterlimit="10" stroke-width="1.4659797833333332" stroke-dasharray="7.0367029599999995"/><g transform="translate(40.22394113896485,1401.0075593359998) translate(-40.22394113896485,-1401.0075593359998)"><path fill="black" stroke="none" paint-order="stroke fill markers" d=" M 54.883738972298175 1393.677660419333 L 40.22394113896485 1401.0075593359998 L 54.883738972298175 1408.3374582526665 Z"/></g></g></g><g/><g/><g/><g/><g/><g/></g></svg>