<svg version="1.1" xmlns="http://www.w3.org/2000/svg" xmlns:xlink="http://www.w3.org/1999/xlink" width="888" height="737"><defs/><g><g/><g/><g/><g/><g/><g/><g/><g/><g/><g/><g><rect fill="white" stroke="none" x="0" y="0" width="888" height="737"/></g><g><text fill="black" stroke="none" font-family="sans-serif" font-size="16.5pt" font-style="normal" font-weight="normal" text-decoration="normal" x="291.5518776739525" y="26.3876361" text-anchor="start" dominant-baseline="alphabetic">Display Available Rooms BCE</text></g><g/><g><path fill="none" stroke="black" paint-order="fill stroke markers" d=" M 24.0535691296875 139.67855375599999 L 24.0535691296875 737.798305356" stroke-miterlimit="10" stroke-width="1.4659797833333332" stroke-dasharray="13.532121076923076,5.863919133333333"/><path fill="none" stroke="black" paint-order="fill stroke markers" d=" M 251.07790905065104 139.67855375599999 L 251.07790905065104 737.798305356" stroke-miterlimit="10" stroke-width="1.4659797833333332" stroke-dasharray="13.532121076923076,5.863919133333333"/><path fill="none" stroke="black" paint-order="fill stroke markers" d=" M 514.8723250593099 139.67855375599999 L 514.8723250593099 737.798305356" stroke-miterlimit="10" stroke-width="1.4659797833333332" stroke-dasharray="13.532121076923076,5.863919133333333"/><path fill="none" stroke="black" paint-order="fill stroke markers" d=" M 733.6705479709635 139.67855375599999 L 733.6705479709635 737.798305356" stroke-miterlimit="10" stroke-width="1.4659797833333332" stroke-dasharray="13.532121076923076,5.863919133333333"/><path fill="none" stroke="black" paint-order="fill stroke markers" d=" M 839.4758094929284 139.67855375599999 L 839.4758094929284 737.798305356" stroke-miterlimit="10" stroke-width="1.4659797833333332" stroke-dasharray="13.532121076923076,5.863919133333333"/></g><g><g><path fill="white" stroke="black" paint-order="fill stroke markers" d=" M 34.0808708476875 65.265419954 A 10.027301717999999 10.027301717999999 0 1 1 34.080865834037056 65.25539265395321 M 24.0535691296875 75.29272167199998 L 24.0535691296875 96.75466569999998 M 11.387503801687501 83.033094928 L 36.7196344576875 83.033094928 M 24.0535691296875 96.75466569999998 L 11.387503801687501 116.80926913599998 M 24.0535691296875 96.75466569999998 L 36.7196344576875 116.80926913599998" stroke-miterlimit="10" stroke-width="2.990598758" stroke-dasharray=""/></g><g><g/><text fill="black" stroke="none" font-family="sans-serif" font-size="11pt" font-style="normal" font-weight="normal" text-decoration="normal" x="8.7958787" y="134.401026536" text-anchor="start" dominant-baseline="alphabetic">staff</text></g><g><path fill="white" stroke="black" paint-order="fill stroke markers" d=" M 277.201668789651 86.79773101159998 A 26.123759739 26.123759739 0 1 1 277.2016557277723 86.77160725621492 M 223.45884993265105 115.31396975699997 L 275.706369410651 115.31396975699997" stroke-miterlimit="10" stroke-width="2.990598758" stroke-dasharray=""/></g><g><g/><text fill="black" stroke="none" font-family="sans-serif" font-size="11pt" font-style="normal" font-weight="normal" text-decoration="normal" x="178.0177665335612" y="134.401026536" text-anchor="start" dominant-baseline="alphabetic">HotelManageSystem</text></g><g><path fill="white" stroke="black" paint-order="fill stroke markers" d=" M 540.9960847983099 89.19021001799997 A 26.123759739 26.123759739 0 1 1 540.9960717364311 89.16408626261492 M 511.3539735793099 63.06645027899997 L 521.90902801931 54.27057157899998 M 511.3539735793099 63.06645027899997 L 521.90902801931 71.86232897899997" stroke-miterlimit="10" stroke-width="2.990598758" stroke-dasharray=""/></g><g><g/><text fill="black" stroke="none" font-family="sans-serif" font-size="11pt" font-style="normal" font-weight="normal" text-decoration="normal" x="495.7026702131185" y="134.401026536" text-anchor="start" dominant-baseline="alphabetic">Hotel</text></g><path fill="none" stroke="none"/><g><path fill="white" stroke="black" paint-order="fill stroke markers" d=" M 685.5176266289752 92.18080877599999 L 781.8234693129518 92.18080877599999 L 781.8234693129518 139.67855375599999 L 685.5176266289752 139.67855375599999 L 685.5176266289752 92.18080877599999 Z" stroke-miterlimit="10" stroke-width="2.814681184" stroke-dasharray=""/></g><g><g/><text fill="black" stroke="none" font-family="sans-serif" font-size="11pt" font-style="normal" font-weight="normal" text-decoration="normal" x="704.6046834079752" y="122.08679635600001" text-anchor="start" dominant-baseline="alphabetic">Booking</text></g><path fill="none" stroke="none"/><g><path fill="white" stroke="black" paint-order="fill stroke markers" d=" M 799.4152267129518 92.18080877599999 L 879.536392272905 92.18080877599999 L 879.536392272905 139.67855375599999 L 799.4152267129518 139.67855375599999 L 799.4152267129518 92.18080877599999 Z" stroke-miterlimit="10" stroke-width="2.814681184" stroke-dasharray=""/></g><g><g/><text fill="black" stroke="none" font-family="sans-serif" font-size="11pt" font-style="normal" font-weight="normal" text-decoration="normal" x="818.5022834919519" y="122.08679635600001" text-anchor="start" dominant-baseline="alphabetic">Room</text></g></g><g><path fill="white" stroke="black" paint-order="fill stroke markers" d=" M 242.28203035065104 197.73135317599997 L 259.87378775065105 197.73135317599997 L 259.87378775065105 676.227154456 L 242.28203035065104 676.227154456 L 242.28203035065104 197.73135317599997" stroke-miterlimit="10" stroke-width="1.4659797833333332" stroke-dasharray=""/><path fill="white" stroke="black" paint-order="fill stroke markers" d=" M 506.0764463593099 246.98827389599995 L 523.6682037593099 246.98827389599995 L 523.6682037593099 560.1215556159999 L 506.0764463593099 560.1215556159999 L 506.0764463593099 246.98827389599995" stroke-miterlimit="10" stroke-width="1.4659797833333332" stroke-dasharray=""/><path fill="white" stroke="black" paint-order="fill stroke markers" d=" M 724.8746692709635 296.24519461599994 L 742.4664266709635 296.24519461599994 L 742.4664266709635 345.5021153359999 L 724.8746692709635 345.5021153359999 L 724.8746692709635 296.24519461599994" stroke-miterlimit="10" stroke-width="1.4659797833333332" stroke-dasharray=""/><path fill="white" stroke="black" paint-order="fill stroke markers" d=" M 830.6799307929284 394.7590360559999 L 848.2716881929284 394.7590360559999 L 848.2716881929284 444.0159567759999 L 830.6799307929284 444.0159567759999 L 830.6799307929284 394.7590360559999" stroke-miterlimit="10" stroke-width="1.4659797833333332" stroke-dasharray=""/><g><g><rect fill="white" stroke="none" x="44.87048205302084" y="174.86206855599997" width="176.59463537429687" height="22.86928462"/></g><text fill="black" stroke="none" font-family="sans-serif" font-size="11pt" font-style="normal" font-weight="normal" text-decoration="normal" x="47.509245663020835" y="190.69465021599999" text-anchor="start" dominant-baseline="alphabetic">displayAvailableRooms()</text></g><g><path fill="none" stroke="black" paint-order="fill stroke markers" d=" M 24.0535691296875 197.73135317599997 L 239.35007078398436 197.73135317599997" stroke-miterlimit="10" stroke-width="1.4659797833333332" stroke-dasharray=""/><g transform="translate(242.28203035065104,197.73135317599997) translate(-242.28203035065104,-197.73135317599997)"><path fill="black" stroke="none" paint-order="stroke fill markers" d=" M 227.6222325173177 190.4014542593333 L 242.28203035065104 197.73135317599997 L 227.6222325173177 205.06125209266665 Z"/></g></g><g><g><rect fill="white" stroke="none" x="307.6949731349219" y="224.11898927599995" width="150.56028784011718" height="22.86928462"/></g><text fill="black" stroke="none" font-family="sans-serif" font-size="11pt" font-style="normal" font-weight="normal" text-decoration="normal" x="310.3337367449219" y="239.95157093599997" text-anchor="start" dominant-baseline="alphabetic">getAvailableRooms()</text></g><g><path fill="none" stroke="black" paint-order="fill stroke markers" d=" M 259.87378775065105 246.98827389599995 L 503.14448679264325 246.98827389599995" stroke-miterlimit="10" stroke-width="1.4659797833333332" stroke-dasharray=""/><g transform="translate(506.0764463593099,246.98827389599995) translate(-506.0764463593099,-246.98827389599995)"><path fill="black" stroke="none" paint-order="stroke fill markers" d=" M 491.41664852597654 239.65837497933327 L 506.0764463593099 246.98827389599995 L 491.41664852597654 254.31817281266663 Z"/></g></g><g><g><rect fill="white" stroke="none" x="563.6405388108984" y="273.37590999599996" width="121.26179540847656" height="22.86928462"/></g><text fill="black" stroke="none" font-family="sans-serif" font-size="11pt" font-style="normal" font-weight="normal" text-decoration="normal" x="566.2793024208984" y="289.208491656" text-anchor="start" dominant-baseline="alphabetic">getAllBookings()</text></g><g><path fill="none" stroke="black" paint-order="fill stroke markers" d=" M 523.6682037593099 296.24519461599994 L 721.9427097042968 296.24519461599994" stroke-miterlimit="10" stroke-width="1.4659797833333332" stroke-dasharray=""/><g transform="translate(724.8746692709635,296.24519461599994) translate(-724.8746692709635,-296.24519461599994)"><path fill="black" stroke="none" paint-order="stroke fill markers" d=" M 710.2148714376302 288.9152956993333 L 724.8746692709635 296.24519461599994 L 710.2148714376302 303.5750935326666 Z"/></g></g><g><g><rect fill="white" stroke="none" x="565.4014717332617" y="322.63283071599994" width="117.73992956375" height="22.86928462"/></g><text fill="black" stroke="none" font-family="sans-serif" font-size="11pt" font-style="normal" font-weight="normal" text-decoration="normal" x="568.0402353432617" y="338.46541237599996" text-anchor="start" dominant-baseline="alphabetic">return bookings</text></g><g><path fill="none" stroke="black" paint-order="fill stroke markers" d=" M 724.8746692709635 345.5021153359999 L 526.6001633259766 345.5021153359999" stroke-miterlimit="10" stroke-width="1.4659797833333332" stroke-dasharray="7.0367029599999995"/><g transform="translate(523.6682037593099,345.5021153359999) translate(-523.6682037593099,-345.5021153359999)"><path fill="black" stroke="none" paint-order="stroke fill markers" d=" M 538.3280015926432 338.17221641933327 L 523.6682037593099 345.5021153359999 L 538.3280015926432 352.83201425266657 Z"/></g></g><g><g><rect fill="white" stroke="none" x="624.6355081338926" y="371.8897514359999" width="105.07711828445312" height="22.86928462"/></g><text fill="black" stroke="none" font-family="sans-serif" font-size="11pt" font-style="normal" font-weight="normal" text-decoration="normal" x="627.2742717438925" y="387.72233309599994" text-anchor="start" dominant-baseline="alphabetic">getAllRooms()</text></g><g><path fill="none" stroke="black" paint-order="fill stroke markers" d=" M 523.6682037593099 394.7590360559999 L 827.7479712262617 394.7590360559999" stroke-miterlimit="10" stroke-width="1.4659797833333332" stroke-dasharray=""/><g transform="translate(830.6799307929284,394.7590360559999) translate(-830.6799307929284,-394.7590360559999)"><path fill="black" stroke="none" paint-order="stroke fill markers" d=" M 816.0201329595951 387.42913713933325 L 830.6799307929284 394.7590360559999 L 816.0201329595951 402.08893497266655 Z"/></g></g><g><g><rect fill="white" stroke="none" x="628.4651590127988" y="421.1466721559999" width="97.41781652664062" height="22.86928462"/></g><text fill="black" stroke="none" font-family="sans-serif" font-size="11pt" font-style="normal" font-weight="normal" text-decoration="normal" x="631.1039226227988" y="436.9792538159999" text-anchor="start" dominant-baseline="alphabetic">return rooms</text></g><g><path fill="none" stroke="black" paint-order="fill stroke markers" d=" M 830.6799307929284 444.0159567759999 L 526.6001633259766 444.0159567759999" stroke-miterlimit="10" stroke-width="1.4659797833333332" stroke-dasharray="7.0367029599999995"/><g transform="translate(523.6682037593099,444.0159567759999) translate(-523.6682037593099,-444.0159567759999)"><path fill="black" stroke="none" paint-order="stroke fill markers" d=" M 538.3280015926432 436.68605785933323 L 523.6682037593099 444.0159567759999 L 538.3280015926432 451.34585569266653 Z"/></g></g><g><g><rect fill="white" stroke="none" x="544.4851166826433" y="470.4035928759999" width="174.2324374983203" height="22.86928462"/></g><text fill="black" stroke="none" font-family="sans-serif" font-size="11pt" font-style="normal" font-weight="normal" text-decoration="normal" x="547.1238802926432" y="486.2361745359999" text-anchor="start" dominant-baseline="alphabetic">getAvailableRoomsList()</text></g><g><path fill="none" stroke="black" paint-order="fill stroke markers" d=" M 523.6682037593099 493.27287749599986 L 594.0352333593099 493.27287749599986 L 594.0352333593099 510.86463489599987 L 526.6001633259766 510.86463489599987" stroke-miterlimit="10" stroke-width="1.4659797833333332" stroke-dasharray=""/><g transform="translate(523.6682037593099,510.86463489599987) translate(-523.6682037593099,-510.86463489599987)"><path fill="black" stroke="none" paint-order="stroke fill markers" d=" M 538.3280015926432 503.5347359793332 L 523.6682037593099 510.86463489599987 L 538.3280015926432 518.1945338126666 Z"/></g></g><g><g><rect fill="white" stroke="none" x="280.6907006739844" y="537.2522709959999" width="204.56883276199218" height="22.86928462"/></g><text fill="black" stroke="none" font-family="sans-serif" font-size="11pt" font-style="normal" font-weight="normal" text-decoration="normal" x="283.3294642839844" y="553.0848526559998" text-anchor="start" dominant-baseline="alphabetic">return allAvailableRoomsList</text></g><g><path fill="none" stroke="black" paint-order="fill stroke markers" d=" M 506.0764463593099 560.1215556159999 L 262.8057473173177 560.1215556159999" stroke-miterlimit="10" stroke-width="1.4659797833333332" stroke-dasharray="7.0367029599999995"/><g transform="translate(259.87378775065105,560.1215556159999) translate(-259.87378775065105,-560.1215556159999)"><path fill="black" stroke="none" paint-order="stroke fill markers" d=" M 274.5335855839844 552.7916566993332 L 259.87378775065105 560.1215556159999 L 274.5335855839844 567.4514545326666 Z"/></g></g><g><g><rect fill="white" stroke="none" x="280.6907006739844" y="586.5091917159999" width="92.48587072585937" height="22.86928462"/></g><text fill="black" stroke="none" font-family="sans-serif" font-size="11pt" font-style="normal" font-weight="normal" text-decoration="normal" x="283.3294642839844" y="602.3417733759999" text-anchor="start" dominant-baseline="alphabetic">showMenu()</text></g><g><path fill="none" stroke="black" paint-order="fill stroke markers" d=" M 259.87378775065105 609.378476336 L 330.240817350651 609.378476336 L 330.240817350651 626.970233736 L 262.8057473173177 626.970233736" stroke-miterlimit="10" stroke-width="1.4659797833333332" stroke-dasharray=""/><g transform="translate(259.87378775065105,626.970233736) translate(-259.87378775065105,-626.970233736)"><path fill="black" stroke="none" paint-order="stroke fill markers" d=" M 274.5335855839844 619.6403348193332 L 259.87378775065105 626.970233736 L 274.5335855839844 634.3001326526667 Z"/></g></g><g><g><rect fill="white" stroke="none" x="51.77815112040365" y="653.357869836" width="162.77929723953125" height="22.86928462"/></g><text fill="black" stroke="none" font-family="sans-serif" font-size="11pt" font-style="normal" font-weight="normal" text-decoration="normal" x="54.41691473040365" y="669.1904514959999" text-anchor="start" dominant-baseline="alphabetic">return availableRooms</text></g><g><path fill="none" stroke="black" paint-order="fill stroke markers" d=" M 242.28203035065104 676.227154456 L 26.985528696354166 676.227154456" stroke-miterlimit="10" stroke-width="1.4659797833333332" stroke-dasharray="7.0367029599999995"/><g transform="translate(24.0535691296875,676.227154456) translate(-24.0535691296875,-676.227154456)"><path fill="black" stroke="none" paint-order="stroke fill markers" d=" M 38.71336696302083 668.8972555393333 L 24.0535691296875 676.227154456 L 38.71336696302083 683.5570533726667 Z"/></g></g></g><g/><g/><g/><g/><g/></g></svg>