<svg version="1.1" xmlns="http://www.w3.org/2000/svg" xmlns:xlink="http://www.w3.org/1999/xlink" width="858" height="737"><defs/><g><g/><g/><g/><g/><g/><g/><g/><g/><g/><g/><g><rect fill="white" stroke="none" x="0" y="0" width="858" height="737"/></g><g><text fill="black" stroke="none" font-family="sans-serif" font-size="16.5pt" font-style="normal" font-weight="normal" text-decoration="normal" x="283.9909569586205" y="26.3876361" text-anchor="start" dominant-baseline="alphabetic">Display Booked Rooms BCE</text></g><g/><g><path fill="none" stroke="black" paint-order="fill stroke markers" d=" M 24.0535691296875 139.67855375599999 L 24.0535691296875 737.798305356" stroke-miterlimit="10" stroke-width="1.4659797833333332" stroke-dasharray="13.532121076923076,5.863919133333333"/><path fill="none" stroke="black" paint-order="fill stroke markers" d=" M 240.99204784459636 139.67855375599999 L 240.99204784459636 737.798305356" stroke-miterlimit="10" stroke-width="1.4659797833333332" stroke-dasharray="13.532121076923076,5.863919133333333"/><path fill="none" stroke="black" paint-order="fill stroke markers" d=" M 494.7006026472005 139.67855375599999 L 494.7006026472005 737.798305356" stroke-miterlimit="10" stroke-width="1.4659797833333332" stroke-dasharray="13.532121076923076,5.863919133333333"/><path fill="none" stroke="black" paint-order="fill stroke markers" d=" M 703.4129643527995 139.67855375599999 L 703.4129643527995 737.798305356" stroke-miterlimit="10" stroke-width="1.4659797833333332" stroke-dasharray="13.532121076923076,5.863919133333333"/><path fill="none" stroke="black" paint-order="fill stroke markers" d=" M 809.2182258747644 139.67855375599999 L 809.2182258747644 737.798305356" stroke-miterlimit="10" stroke-width="1.4659797833333332" stroke-dasharray="13.532121076923076,5.863919133333333"/></g><g><g><path fill="white" stroke="black" paint-order="fill stroke markers" d=" M 34.0808708476875 65.265419954 A 10.027301717999999 10.027301717999999 0 1 1 34.080865834037056 65.25539265395321 M 24.0535691296875 75.29272167199998 L 24.0535691296875 96.75466569999998 M 11.387503801687501 83.033094928 L 36.7196344576875 83.033094928 M 24.0535691296875 96.75466569999998 L 11.387503801687501 116.80926913599998 M 24.0535691296875 96.75466569999998 L 36.7196344576875 116.80926913599998" stroke-miterlimit="10" stroke-width="2.990598758" stroke-dasharray=""/></g><g><g/><text fill="black" stroke="none" font-family="sans-serif" font-size="11pt" font-style="normal" font-weight="normal" text-decoration="normal" x="8.7958787" y="134.401026536" text-anchor="start" dominant-baseline="alphabetic">staff</text></g><g><path fill="white" stroke="black" paint-order="fill stroke markers" d=" M 267.11580758359634 86.79773101159998 A 26.123759739 26.123759739 0 1 1 267.1157945217176 86.77160725621492 M 213.37298872659636 115.31396975699997 L 265.6205082045963 115.31396975699997" stroke-miterlimit="10" stroke-width="2.990598758" stroke-dasharray=""/></g><g><g/><text fill="black" stroke="none" font-family="sans-serif" font-size="11pt" font-style="normal" font-weight="normal" text-decoration="normal" x="167.9319053275065" y="134.401026536" text-anchor="start" dominant-baseline="alphabetic">HotelManageSystem</text></g><g><path fill="white" stroke="black" paint-order="fill stroke markers" d=" M 520.8243623862005 89.19021001799997 A 26.123759739 26.123759739 0 1 1 520.8243493243217 89.16408626261492 M 491.18225116720055 63.06645027899997 L 501.73730560720054 54.27057157899998 M 491.18225116720055 63.06645027899997 L 501.73730560720054 71.86232897899997" stroke-miterlimit="10" stroke-width="2.990598758" stroke-dasharray=""/></g><g><g/><text fill="black" stroke="none" font-family="sans-serif" font-size="11pt" font-style="normal" font-weight="normal" text-decoration="normal" x="475.5309478010091" y="134.401026536" text-anchor="start" dominant-baseline="alphabetic">Hotel</text></g><path fill="none" stroke="none"/><g><path fill="white" stroke="black" paint-order="fill stroke markers" d=" M 655.2600430108112 92.18080877599999 L 751.5658856947878 92.18080877599999 L 751.5658856947878 139.67855375599999 L 655.2600430108112 139.67855375599999 L 655.2600430108112 92.18080877599999 Z" stroke-miterlimit="10" stroke-width="2.814681184" stroke-dasharray=""/></g><g><g/><text fill="black" stroke="none" font-family="sans-serif" font-size="11pt" font-style="normal" font-weight="normal" text-decoration="normal" x="674.3470997898112" y="122.08679635600001" text-anchor="start" dominant-baseline="alphabetic">Booking</text></g><path fill="none" stroke="none"/><g><path fill="white" stroke="black" paint-order="fill stroke markers" d=" M 769.1576430947878 92.18080877599999 L 849.2788086547409 92.18080877599999 L 849.2788086547409 139.67855375599999 L 769.1576430947878 139.67855375599999 L 769.1576430947878 92.18080877599999 Z" stroke-miterlimit="10" stroke-width="2.814681184" stroke-dasharray=""/></g><g><g/><text fill="black" stroke="none" font-family="sans-serif" font-size="11pt" font-style="normal" font-weight="normal" text-decoration="normal" x="788.2446998737878" y="122.08679635600001" text-anchor="start" dominant-baseline="alphabetic">Room</text></g></g><g><path fill="white" stroke="black" paint-order="fill stroke markers" d=" M 232.19616914459635 197.73135317599997 L 249.78792654459636 197.73135317599997 L 249.78792654459636 676.227154456 L 232.19616914459635 676.227154456 L 232.19616914459635 197.73135317599997" stroke-miterlimit="10" stroke-width="1.4659797833333332" stroke-dasharray=""/><path fill="white" stroke="black" paint-order="fill stroke markers" d=" M 485.9047239472005 246.98827389599995 L 503.49648134720053 246.98827389599995 L 503.49648134720053 560.1215556159999 L 485.9047239472005 560.1215556159999 L 485.9047239472005 246.98827389599995" stroke-miterlimit="10" stroke-width="1.4659797833333332" stroke-dasharray=""/><path fill="white" stroke="black" paint-order="fill stroke markers" d=" M 694.6170856527995 296.24519461599994 L 712.2088430527995 296.24519461599994 L 712.2088430527995 345.5021153359999 L 694.6170856527995 345.5021153359999 L 694.6170856527995 296.24519461599994" stroke-miterlimit="10" stroke-width="1.4659797833333332" stroke-dasharray=""/><path fill="white" stroke="black" paint-order="fill stroke markers" d=" M 800.4223471747644 394.7590360559999 L 818.0141045747644 394.7590360559999 L 818.0141045747644 444.0159567759999 L 800.4223471747644 444.0159567759999 L 800.4223471747644 394.7590360559999" stroke-miterlimit="10" stroke-width="1.4659797833333332" stroke-dasharray=""/><g><g><rect fill="white" stroke="none" x="44.87048205302084" y="174.86206855599997" width="166.50877416824218" height="22.86928462"/></g><text fill="black" stroke="none" font-family="sans-serif" font-size="11pt" font-style="normal" font-weight="normal" text-decoration="normal" x="47.509245663020835" y="190.69465021599999" text-anchor="start" dominant-baseline="alphabetic">displayBookedRooms()</text></g><g><path fill="none" stroke="black" paint-order="fill stroke markers" d=" M 24.0535691296875 197.73135317599997 L 229.26420957792968 197.73135317599997" stroke-miterlimit="10" stroke-width="1.4659797833333332" stroke-dasharray=""/><g transform="translate(232.19616914459635,197.73135317599997) translate(-232.19616914459635,-197.73135317599997)"><path fill="black" stroke="none" paint-order="stroke fill markers" d=" M 217.53637131126303 190.4014542593333 L 232.19616914459635 197.73135317599997 L 217.53637131126303 205.06125209266665 Z"/></g></g><g><g><rect fill="white" stroke="none" x="297.6091119288672" y="224.11898927599995" width="140.4744266340625" height="22.86928462"/></g><text fill="black" stroke="none" font-family="sans-serif" font-size="11pt" font-style="normal" font-weight="normal" text-decoration="normal" x="300.2478755388672" y="239.95157093599997" text-anchor="start" dominant-baseline="alphabetic">getBookedRooms()</text></g><g><path fill="none" stroke="black" paint-order="fill stroke markers" d=" M 249.78792654459636 246.98827389599995 L 482.9727643805339 246.98827389599995" stroke-miterlimit="10" stroke-width="1.4659797833333332" stroke-dasharray=""/><g transform="translate(485.9047239472005,246.98827389599995) translate(-485.9047239472005,-246.98827389599995)"><path fill="black" stroke="none" paint-order="stroke fill markers" d=" M 471.24492611386717 239.65837497933327 L 485.9047239472005 246.98827389599995 L 471.24492611386717 254.31817281266663 Z"/></g></g><g><g><rect fill="white" stroke="none" x="538.4258857957617" y="273.37590999599996" width="121.26179540847656" height="22.86928462"/></g><text fill="black" stroke="none" font-family="sans-serif" font-size="11pt" font-style="normal" font-weight="normal" text-decoration="normal" x="541.0646494057617" y="289.208491656" text-anchor="start" dominant-baseline="alphabetic">getAllBookings()</text></g><g><path fill="none" stroke="black" paint-order="fill stroke markers" d=" M 503.49648134720053 296.24519461599994 L 691.6851260861328 296.24519461599994" stroke-miterlimit="10" stroke-width="1.4659797833333332" stroke-dasharray=""/><g transform="translate(694.6170856527995,296.24519461599994) translate(-694.6170856527995,-296.24519461599994)"><path fill="black" stroke="none" paint-order="stroke fill markers" d=" M 679.9572878194662 288.9152956993333 L 694.6170856527995 296.24519461599994 L 679.9572878194662 303.5750935326666 Z"/></g></g><g><g><rect fill="white" stroke="none" x="540.186818718125" y="322.63283071599994" width="117.73992956375" height="22.86928462"/></g><text fill="black" stroke="none" font-family="sans-serif" font-size="11pt" font-style="normal" font-weight="normal" text-decoration="normal" x="542.8255823281249" y="338.46541237599996" text-anchor="start" dominant-baseline="alphabetic">return bookings</text></g><g><path fill="none" stroke="black" paint-order="fill stroke markers" d=" M 694.6170856527995 345.5021153359999 L 506.4284409138672 345.5021153359999" stroke-miterlimit="10" stroke-width="1.4659797833333332" stroke-dasharray="7.0367029599999995"/><g transform="translate(503.49648134720053,345.5021153359999) translate(-503.49648134720053,-345.5021153359999)"><path fill="black" stroke="none" paint-order="stroke fill markers" d=" M 518.1562791805338 338.17221641933327 L 503.49648134720053 345.5021153359999 L 518.1562791805338 352.83201425266657 Z"/></g></g><g><g><rect fill="white" stroke="none" x="599.4208551187559" y="371.8897514359999" width="105.07711828445312" height="22.86928462"/></g><text fill="black" stroke="none" font-family="sans-serif" font-size="11pt" font-style="normal" font-weight="normal" text-decoration="normal" x="602.0596187287558" y="387.72233309599994" text-anchor="start" dominant-baseline="alphabetic">getAllRooms()</text></g><g><path fill="none" stroke="black" paint-order="fill stroke markers" d=" M 503.49648134720053 394.7590360559999 L 797.4903876080976 394.7590360559999" stroke-miterlimit="10" stroke-width="1.4659797833333332" stroke-dasharray=""/><g transform="translate(800.4223471747644,394.7590360559999) translate(-800.4223471747644,-394.7590360559999)"><path fill="black" stroke="none" paint-order="stroke fill markers" d=" M 785.762549341431 387.42913713933325 L 800.4223471747644 394.7590360559999 L 785.762549341431 402.08893497266655 Z"/></g></g><g><g><rect fill="white" stroke="none" x="603.2505059976621" y="421.1466721559999" width="97.41781652664062" height="22.86928462"/></g><text fill="black" stroke="none" font-family="sans-serif" font-size="11pt" font-style="normal" font-weight="normal" text-decoration="normal" x="605.8892696076621" y="436.9792538159999" text-anchor="start" dominant-baseline="alphabetic">return rooms</text></g><g><path fill="none" stroke="black" paint-order="fill stroke markers" d=" M 800.4223471747644 444.0159567759999 L 506.4284409138672 444.0159567759999" stroke-miterlimit="10" stroke-width="1.4659797833333332" stroke-dasharray="7.0367029599999995"/><g transform="translate(503.49648134720053,444.0159567759999) translate(-503.49648134720053,-444.0159567759999)"><path fill="black" stroke="none" paint-order="stroke fill markers" d=" M 518.1562791805338 436.68605785933323 L 503.49648134720053 444.0159567759999 L 518.1562791805338 451.34585569266653 Z"/></g></g><g><g><rect fill="white" stroke="none" x="524.3133942705339" y="470.4035928759999" width="164.14657629226562" height="22.86928462"/></g><text fill="black" stroke="none" font-family="sans-serif" font-size="11pt" font-style="normal" font-weight="normal" text-decoration="normal" x="526.9521578805338" y="486.2361745359999" text-anchor="start" dominant-baseline="alphabetic">getBookedRoomsList()</text></g><g><path fill="none" stroke="black" paint-order="fill stroke markers" d=" M 503.49648134720053 493.27287749599986 L 573.8635109472006 493.27287749599986 L 573.8635109472006 510.86463489599987 L 506.4284409138672 510.86463489599987" stroke-miterlimit="10" stroke-width="1.4659797833333332" stroke-dasharray=""/><g transform="translate(503.49648134720053,510.86463489599987) translate(-503.49648134720053,-510.86463489599987)"><path fill="black" stroke="none" paint-order="stroke fill markers" d=" M 518.1562791805338 503.5347359793332 L 503.49648134720053 510.86463489599987 L 518.1562791805338 518.1945338126666 Z"/></g></g><g><g><rect fill="white" stroke="none" x="270.6048394679297" y="537.2522709959999" width="194.4829715559375" height="22.86928462"/></g><text fill="black" stroke="none" font-family="sans-serif" font-size="11pt" font-style="normal" font-weight="normal" text-decoration="normal" x="273.2436030779297" y="553.0848526559998" text-anchor="start" dominant-baseline="alphabetic">return allBookedRoomsList</text></g><g><path fill="none" stroke="black" paint-order="fill stroke markers" d=" M 485.9047239472005 560.1215556159999 L 252.71988611126304 560.1215556159999" stroke-miterlimit="10" stroke-width="1.4659797833333332" stroke-dasharray="7.0367029599999995"/><g transform="translate(249.78792654459636,560.1215556159999) translate(-249.78792654459636,-560.1215556159999)"><path fill="black" stroke="none" paint-order="stroke fill markers" d=" M 264.4477243779297 552.7916566993332 L 249.78792654459636 560.1215556159999 L 264.4477243779297 567.4514545326666 Z"/></g></g><g><g><rect fill="white" stroke="none" x="270.6048394679297" y="586.5091917159999" width="92.48587072585937" height="22.86928462"/></g><text fill="black" stroke="none" font-family="sans-serif" font-size="11pt" font-style="normal" font-weight="normal" text-decoration="normal" x="273.2436030779297" y="602.3417733759999" text-anchor="start" dominant-baseline="alphabetic">showMenu()</text></g><g><path fill="none" stroke="black" paint-order="fill stroke markers" d=" M 249.78792654459636 609.378476336 L 320.1549561445963 609.378476336 L 320.1549561445963 626.970233736 L 252.71988611126304 626.970233736" stroke-miterlimit="10" stroke-width="1.4659797833333332" stroke-dasharray=""/><g transform="translate(249.78792654459636,626.970233736) translate(-249.78792654459636,-626.970233736)"><path fill="black" stroke="none" paint-order="stroke fill markers" d=" M 264.4477243779297 619.6403348193332 L 249.78792654459636 626.970233736 L 264.4477243779297 634.3001326526667 Z"/></g></g><g><g><rect fill="white" stroke="none" x="50.589895810345055" y="653.357869836" width="155.06994665359375" height="22.86928462"/></g><text fill="black" stroke="none" font-family="sans-serif" font-size="11pt" font-style="normal" font-weight="normal" text-decoration="normal" x="53.22865942034505" y="669.1904514959999" text-anchor="start" dominant-baseline="alphabetic">return bookedRooms</text></g><g><path fill="none" stroke="black" paint-order="fill stroke markers" d=" M 232.19616914459635 676.227154456 L 26.985528696354166 676.227154456" stroke-miterlimit="10" stroke-width="1.4659797833333332" stroke-dasharray="7.0367029599999995"/><g transform="translate(24.0535691296875,676.227154456) translate(-24.0535691296875,-676.227154456)"><path fill="black" stroke="none" paint-order="stroke fill markers" d=" M 38.71336696302083 668.8972555393333 L 24.0535691296875 676.227154456 L 38.71336696302083 683.5570533726667 Z"/></g></g></g><g/><g/><g/><g/><g/></g></svg>