<svg version="1.1" xmlns="http://www.w3.org/2000/svg" xmlns:xlink="http://www.w3.org/1999/xlink" width="1045" height="1167"><defs/><g><g/><g/><g/><g/><g/><g/><g/><g/><g/><g/><g/><g/><g/><g/><g/><g/><g/><g/><g><rect fill="white" stroke="none" x="0" y="0" width="1045" height="1167"/></g><g><text fill="black" stroke="none" font-family="sans-serif" font-size="16.5pt" font-style="normal" font-weight="normal" text-decoration="normal" x="403.82138470510097" y="26.3876361" text-anchor="start" dominant-baseline="alphabetic">Modify A Booking BCE</text></g><g/><g><path fill="none" stroke="black" paint-order="fill stroke markers" d=" M 24.0535691296875 139.67855375599999 L 24.0535691296875 1167.037185916" stroke-miterlimit="10" stroke-width="1.4659797833333332" stroke-dasharray="13.532121076923076,5.863919133333333"/><path fill="none" stroke="black" paint-order="fill stroke markers" d=" M 304.276116241862 139.67855375599999 L 304.276116241862 1167.037185916" stroke-miterlimit="10" stroke-width="1.4659797833333332" stroke-dasharray="13.532121076923076,5.863919133333333"/><path fill="none" stroke="black" paint-order="fill stroke markers" d=" M 557.9846710444662 139.67855375599999 L 557.9846710444662 1167.037185916" stroke-miterlimit="10" stroke-width="1.4659797833333332" stroke-dasharray="13.532121076923076,5.863919133333333"/><path fill="none" stroke="black" paint-order="fill stroke markers" d=" M 766.6970327500651 139.67855375599999 L 766.6970327500651 1167.037185916" stroke-miterlimit="10" stroke-width="1.4659797833333332" stroke-dasharray="13.532121076923076,5.863919133333333"/><path fill="none" stroke="black" paint-order="fill stroke markers" d=" M 872.50229427203 139.67855375599999 L 872.50229427203 1167.037185916" stroke-miterlimit="10" stroke-width="1.4659797833333332" stroke-dasharray="13.532121076923076,5.863919133333333"/><path fill="none" stroke="black" paint-order="fill stroke markers" d=" M 983.2717586748543 139.67855375599999 L 983.2717586748543 1167.037185916" stroke-miterlimit="10" stroke-width="1.4659797833333332" stroke-dasharray="13.532121076923076,5.863919133333333"/></g><g><g><path fill="white" stroke="black" paint-order="fill stroke markers" d=" M 34.0808708476875 65.265419954 A 10.027301717999999 10.027301717999999 0 1 1 34.080865834037056 65.25539265395321 M 24.0535691296875 75.29272167199998 L 24.0535691296875 96.75466569999998 M 11.387503801687501 83.033094928 L 36.7196344576875 83.033094928 M 24.0535691296875 96.75466569999998 L 11.387503801687501 116.80926913599998 M 24.0535691296875 96.75466569999998 L 36.7196344576875 116.80926913599998" stroke-miterlimit="10" stroke-width="2.990598758" stroke-dasharray=""/></g><g><g/><text fill="black" stroke="none" font-family="sans-serif" font-size="11pt" font-style="normal" font-weight="normal" text-decoration="normal" x="8.7958787" y="134.401026536" text-anchor="start" dominant-baseline="alphabetic">staff</text></g><g><path fill="white" stroke="black" paint-order="fill stroke markers" d=" M 330.39987598086196 86.79773101159998 A 26.123759739 26.123759739 0 1 1 330.3998629189832 86.77160725621492 M 276.657057123862 115.31396975699997 L 328.90457660186195 115.31396975699997" stroke-miterlimit="10" stroke-width="2.990598758" stroke-dasharray=""/></g><g><g/><text fill="black" stroke="none" font-family="sans-serif" font-size="11pt" font-style="normal" font-weight="normal" text-decoration="normal" x="231.21597372477214" y="134.401026536" text-anchor="start" dominant-baseline="alphabetic">HotelManageSystem</text></g><g><path fill="white" stroke="black" paint-order="fill stroke markers" d=" M 584.1084307834661 89.19021001799997 A 26.123759739 26.123759739 0 1 1 584.1084177215873 89.16408626261492 M 554.4663195644662 63.06645027899997 L 565.0213740044662 54.27057157899998 M 554.4663195644662 63.06645027899997 L 565.0213740044662 71.86232897899997" stroke-miterlimit="10" stroke-width="2.990598758" stroke-dasharray=""/></g><g><g/><text fill="black" stroke="none" font-family="sans-serif" font-size="11pt" font-style="normal" font-weight="normal" text-decoration="normal" x="538.8150161982747" y="134.401026536" text-anchor="start" dominant-baseline="alphabetic">Hotel</text></g><path fill="none" stroke="none"/><g><path fill="white" stroke="black" paint-order="fill stroke markers" d=" M 718.5441114080768 92.18080877599999 L 814.8499540920534 92.18080877599999 L 814.8499540920534 139.67855375599999 L 718.5441114080768 139.67855375599999 L 718.5441114080768 92.18080877599999 Z" stroke-miterlimit="10" stroke-width="2.814681184" stroke-dasharray=""/></g><g><g/><text fill="black" stroke="none" font-family="sans-serif" font-size="11pt" font-style="normal" font-weight="normal" text-decoration="normal" x="737.6311681870768" y="122.08679635600001" text-anchor="start" dominant-baseline="alphabetic">Booking</text></g><path fill="none" stroke="none"/><g><path fill="white" stroke="black" paint-order="fill stroke markers" d=" M 832.4417114920534 92.18080877599999 L 912.5628770520066 92.18080877599999 L 912.5628770520066 139.67855375599999 L 832.4417114920534 139.67855375599999 L 832.4417114920534 92.18080877599999 Z" stroke-miterlimit="10" stroke-width="2.814681184" stroke-dasharray=""/></g><g><g/><text fill="black" stroke="none" font-family="sans-serif" font-size="11pt" font-style="normal" font-weight="normal" text-decoration="normal" x="851.5287682710534" y="122.08679635600001" text-anchor="start" dominant-baseline="alphabetic">Room</text></g><path fill="none" stroke="none"/><g><path fill="white" stroke="black" paint-order="fill stroke markers" d=" M 930.1546344520066 92.18080877599999 L 1036.388882897702 92.18080877599999 L 1036.388882897702 139.67855375599999 L 930.1546344520066 139.67855375599999 L 930.1546344520066 92.18080877599999 Z" stroke-miterlimit="10" stroke-width="2.814681184" stroke-dasharray=""/></g><g><g/><text fill="black" stroke="none" font-family="sans-serif" font-size="11pt" font-style="normal" font-weight="normal" text-decoration="normal" x="949.2416912310066" y="122.08679635600001" text-anchor="start" dominant-baseline="alphabetic">Customer</text></g></g><g><path fill="white" stroke="black" paint-order="fill stroke markers" d=" M 295.480237541862 197.73135317599997 L 313.071994941862 197.73135317599997 L 313.071994941862 1105.466035016 L 295.480237541862 1105.466035016 L 295.480237541862 197.73135317599997" stroke-miterlimit="10" stroke-width="1.4659797833333332" stroke-dasharray=""/><path fill="white" stroke="black" paint-order="fill stroke markers" d=" M 549.1887923444662 246.98827389599995 L 566.7805497444662 246.98827389599995 L 566.7805497444662 560.1215556159999 L 549.1887923444662 560.1215556159999 L 549.1887923444662 246.98827389599995" stroke-miterlimit="10" stroke-width="1.4659797833333332" stroke-dasharray=""/><path fill="white" stroke="black" paint-order="fill stroke markers" d=" M 757.9011540500651 296.24519461599994 L 775.4929114500651 296.24519461599994 L 775.4929114500651 345.5021153359999 L 757.9011540500651 345.5021153359999 L 757.9011540500651 296.24519461599994" stroke-miterlimit="10" stroke-width="1.4659797833333332" stroke-dasharray=""/><path fill="white" stroke="black" paint-order="fill stroke markers" d=" M 863.70641557203 394.7590360559999 L 881.29817297203 394.7590360559999 L 881.29817297203 444.0159567759999 L 863.70641557203 444.0159567759999 L 863.70641557203 394.7590360559999" stroke-miterlimit="10" stroke-width="1.4659797833333332" stroke-dasharray=""/><path fill="white" stroke="black" paint-order="fill stroke markers" d=" M 15.2576904296875 676.227154456 L 32.8494478296875 676.227154456 L 32.8494478296875 725.484075176 L 15.2576904296875 725.484075176 L 15.2576904296875 676.227154456" stroke-miterlimit="10" stroke-width="1.4659797833333332" stroke-dasharray=""/><path fill="white" stroke="black" paint-order="fill stroke markers" d=" M 15.2576904296875 841.589674016 L 32.8494478296875 841.589674016 L 32.8494478296875 890.846594736 L 15.2576904296875 890.846594736 L 15.2576904296875 841.589674016" stroke-miterlimit="10" stroke-width="1.4659797833333332" stroke-dasharray=""/><path fill="white" stroke="black" paint-order="fill stroke markers" d=" M 974.4758799748543 940.1035154560001 L 992.0676373748543 940.1035154560001 L 992.0676373748543 989.3604361760001 L 974.4758799748543 989.3604361760001 L 974.4758799748543 940.1035154560001" stroke-miterlimit="10" stroke-width="1.4659797833333332" stroke-dasharray=""/><g><g><rect fill="white" stroke="none" x="76.51251625165365" y="174.86206855599997" width="166.50877416824218" height="22.86928462"/></g><text fill="black" stroke="none" font-family="sans-serif" font-size="11pt" font-style="normal" font-weight="normal" text-decoration="normal" x="79.15127986165365" y="190.69465021599999" text-anchor="start" dominant-baseline="alphabetic">displayBookedRooms()</text></g><g><path fill="none" stroke="black" paint-order="fill stroke markers" d=" M 24.0535691296875 197.73135317599997 L 292.54827797519533 197.73135317599997" stroke-miterlimit="10" stroke-width="1.4659797833333332" stroke-dasharray=""/><g transform="translate(295.480237541862,197.73135317599997) translate(-295.480237541862,-197.73135317599997)"><path fill="black" stroke="none" paint-order="stroke fill markers" d=" M 280.8204397085286 190.4014542593333 L 295.480237541862 197.73135317599997 L 280.8204397085286 205.06125209266665 Z"/></g></g><g><g><rect fill="white" stroke="none" x="360.89318032613284" y="224.11898927599995" width="140.4744266340625" height="22.86928462"/></g><text fill="black" stroke="none" font-family="sans-serif" font-size="11pt" font-style="normal" font-weight="normal" text-decoration="normal" x="363.53194393613285" y="239.95157093599997" text-anchor="start" dominant-baseline="alphabetic">getBookedRooms()</text></g><g><path fill="none" stroke="black" paint-order="fill stroke markers" d=" M 313.071994941862 246.98827389599995 L 546.2568327777994 246.98827389599995" stroke-miterlimit="10" stroke-width="1.4659797833333332" stroke-dasharray=""/><g transform="translate(549.1887923444662,246.98827389599995) translate(-549.1887923444662,-246.98827389599995)"><path fill="black" stroke="none" paint-order="stroke fill markers" d=" M 534.5289945111329 239.65837497933327 L 549.1887923444662 246.98827389599995 L 534.5289945111329 254.31817281266663 Z"/></g></g><g><g><rect fill="white" stroke="none" x="601.7099541930273" y="273.37590999599996" width="121.26179540847656" height="22.86928462"/></g><text fill="black" stroke="none" font-family="sans-serif" font-size="11pt" font-style="normal" font-weight="normal" text-decoration="normal" x="604.3487178030273" y="289.208491656" text-anchor="start" dominant-baseline="alphabetic">getAllBookings()</text></g><g><path fill="none" stroke="black" paint-order="fill stroke markers" d=" M 566.7805497444662 296.24519461599994 L 754.9691944833984 296.24519461599994" stroke-miterlimit="10" stroke-width="1.4659797833333332" stroke-dasharray=""/><g transform="translate(757.9011540500651,296.24519461599994) translate(-757.9011540500651,-296.24519461599994)"><path fill="black" stroke="none" paint-order="stroke fill markers" d=" M 743.2413562167318 288.9152956993333 L 757.9011540500651 296.24519461599994 L 743.2413562167318 303.5750935326666 Z"/></g></g><g><g><rect fill="white" stroke="none" x="603.4708871153906" y="322.63283071599994" width="117.73992956375" height="22.86928462"/></g><text fill="black" stroke="none" font-family="sans-serif" font-size="11pt" font-style="normal" font-weight="normal" text-decoration="normal" x="606.1096507253906" y="338.46541237599996" text-anchor="start" dominant-baseline="alphabetic">return bookings</text></g><g><path fill="none" stroke="black" paint-order="fill stroke markers" d=" M 757.9011540500651 345.5021153359999 L 569.7125093111329 345.5021153359999" stroke-miterlimit="10" stroke-width="1.4659797833333332" stroke-dasharray="7.0367029599999995"/><g transform="translate(566.7805497444662,345.5021153359999) translate(-566.7805497444662,-345.5021153359999)"><path fill="black" stroke="none" paint-order="stroke fill markers" d=" M 581.4403475777995 338.17221641933327 L 566.7805497444662 345.5021153359999 L 581.4403475777995 352.83201425266657 Z"/></g></g><g><g><rect fill="white" stroke="none" x="662.7049235160215" y="371.8897514359999" width="105.07711828445312" height="22.86928462"/></g><text fill="black" stroke="none" font-family="sans-serif" font-size="11pt" font-style="normal" font-weight="normal" text-decoration="normal" x="665.3436871260215" y="387.72233309599994" text-anchor="start" dominant-baseline="alphabetic">getAllRooms()</text></g><g><path fill="none" stroke="black" paint-order="fill stroke markers" d=" M 566.7805497444662 394.7590360559999 L 860.7744560053633 394.7590360559999" stroke-miterlimit="10" stroke-width="1.4659797833333332" stroke-dasharray=""/><g transform="translate(863.70641557203,394.7590360559999) translate(-863.70641557203,-394.7590360559999)"><path fill="black" stroke="none" paint-order="stroke fill markers" d=" M 849.0466177386967 387.42913713933325 L 863.70641557203 394.7590360559999 L 849.0466177386967 402.08893497266655 Z"/></g></g><g><g><rect fill="white" stroke="none" x="666.5345743949277" y="421.1466721559999" width="97.41781652664062" height="22.86928462"/></g><text fill="black" stroke="none" font-family="sans-serif" font-size="11pt" font-style="normal" font-weight="normal" text-decoration="normal" x="669.1733380049277" y="436.9792538159999" text-anchor="start" dominant-baseline="alphabetic">return rooms</text></g><g><path fill="none" stroke="black" paint-order="fill stroke markers" d=" M 863.70641557203 444.0159567759999 L 569.7125093111329 444.0159567759999" stroke-miterlimit="10" stroke-width="1.4659797833333332" stroke-dasharray="7.0367029599999995"/><g transform="translate(566.7805497444662,444.0159567759999) translate(-566.7805497444662,-444.0159567759999)"><path fill="black" stroke="none" paint-order="stroke fill markers" d=" M 581.4403475777995 436.68605785933323 L 566.7805497444662 444.0159567759999 L 581.4403475777995 451.34585569266653 Z"/></g></g><g><g><rect fill="white" stroke="none" x="587.5974626677995" y="470.4035928759999" width="164.14657629226562" height="22.86928462"/></g><text fill="black" stroke="none" font-family="sans-serif" font-size="11pt" font-style="normal" font-weight="normal" text-decoration="normal" x="590.2362262777995" y="486.2361745359999" text-anchor="start" dominant-baseline="alphabetic">getBookedRoomsList()</text></g><g><path fill="none" stroke="black" paint-order="fill stroke markers" d=" M 566.7805497444662 493.27287749599986 L 637.1475793444662 493.27287749599986 L 637.1475793444662 510.86463489599987 L 569.7125093111329 510.86463489599987" stroke-miterlimit="10" stroke-width="1.4659797833333332" stroke-dasharray=""/><g transform="translate(566.7805497444662,510.86463489599987) translate(-566.7805497444662,-510.86463489599987)"><path fill="black" stroke="none" paint-order="stroke fill markers" d=" M 581.4403475777995 503.5347359793332 L 566.7805497444662 510.86463489599987 L 581.4403475777995 518.1945338126666 Z"/></g></g><g><g><rect fill="white" stroke="none" x="333.88890786519534" y="537.2522709959999" width="194.4829715559375" height="22.86928462"/></g><text fill="black" stroke="none" font-family="sans-serif" font-size="11pt" font-style="normal" font-weight="normal" text-decoration="normal" x="336.52767147519535" y="553.0848526559998" text-anchor="start" dominant-baseline="alphabetic">return allBookedRoomsList</text></g><g><path fill="none" stroke="black" paint-order="fill stroke markers" d=" M 549.1887923444662 560.1215556159999 L 316.00395450852864 560.1215556159999" stroke-miterlimit="10" stroke-width="1.4659797833333332" stroke-dasharray="7.0367029599999995"/><g transform="translate(313.071994941862,560.1215556159999) translate(-313.071994941862,-560.1215556159999)"><path fill="black" stroke="none" paint-order="stroke fill markers" d=" M 327.73179277519534 552.7916566993332 L 313.071994941862 560.1215556159999 L 327.73179277519534 567.4514545326666 Z"/></g></g><g><g><rect fill="white" stroke="none" x="333.88890786519534" y="586.5091917159999" width="92.48587072585937" height="22.86928462"/></g><text fill="black" stroke="none" font-family="sans-serif" font-size="11pt" font-style="normal" font-weight="normal" text-decoration="normal" x="336.52767147519535" y="602.3417733759999" text-anchor="start" dominant-baseline="alphabetic">showMenu()</text></g><g><path fill="none" stroke="black" paint-order="fill stroke markers" d=" M 313.071994941862 609.378476336 L 383.43902454186195 609.378476336 L 383.43902454186195 626.970233736 L 316.00395450852864 626.970233736" stroke-miterlimit="10" stroke-width="1.4659797833333332" stroke-dasharray=""/><g transform="translate(313.071994941862,626.970233736) translate(-313.071994941862,-626.970233736)"><path fill="black" stroke="none" paint-order="stroke fill markers" d=" M 327.73179277519534 619.6403348193332 L 313.071994941862 626.970233736 L 327.73179277519534 634.3001326526667 Z"/></g></g><g><g><rect fill="white" stroke="none" x="86.62986935897787" y="653.357869836" width="155.06994665359375" height="22.86928462"/></g><text fill="black" stroke="none" font-family="sans-serif" font-size="11pt" font-style="normal" font-weight="normal" text-decoration="normal" x="89.26863296897787" y="669.1904514959999" text-anchor="start" dominant-baseline="alphabetic">return bookedRooms</text></g><g><path fill="none" stroke="black" paint-order="fill stroke markers" d=" M 295.480237541862 676.227154456 L 35.78140739635417 676.227154456" stroke-miterlimit="10" stroke-width="1.4659797833333332" stroke-dasharray="7.0367029599999995"/><g transform="translate(32.8494478296875,676.227154456) translate(-32.8494478296875,-676.227154456)"><path fill="black" stroke="none" paint-order="stroke fill markers" d=" M 47.509245663020835 668.8972555393333 L 32.8494478296875 676.227154456 L 47.509245663020835 683.5570533726667 Z"/></g></g><g><g><rect fill="white" stroke="none" x="97.8181094102474" y="702.614790556" width="132.69346655105468" height="22.86928462"/></g><text fill="black" stroke="none" font-family="sans-serif" font-size="11pt" font-style="normal" font-weight="normal" text-decoration="normal" x="100.4568730202474" y="718.447372216" text-anchor="start" dominant-baseline="alphabetic">modifyABooking()</text></g><g><path fill="none" stroke="black" paint-order="fill stroke markers" d=" M 32.8494478296875 725.484075176 L 292.54827797519533 725.484075176" stroke-miterlimit="10" stroke-width="1.4659797833333332" stroke-dasharray=""/><g transform="translate(295.480237541862,725.484075176) translate(-295.480237541862,-725.484075176)"><path fill="black" stroke="none" paint-order="stroke fill markers" d=" M 280.8204397085286 718.1541762593333 L 295.480237541862 725.484075176 L 280.8204397085286 732.8139740926667 Z"/></g></g><g><g><rect fill="white" stroke="none" x="333.88890786519534" y="751.8717112759999" width="92.48587072585937" height="22.86928462"/></g><text fill="black" stroke="none" font-family="sans-serif" font-size="11pt" font-style="normal" font-weight="normal" text-decoration="normal" x="336.52767147519535" y="767.7042929359999" text-anchor="start" dominant-baseline="alphabetic">showMenu()</text></g><g><path fill="none" stroke="black" paint-order="fill stroke markers" d=" M 313.071994941862 774.740995896 L 383.43902454186195 774.740995896 L 383.43902454186195 792.332753296 L 316.00395450852864 792.332753296" stroke-miterlimit="10" stroke-width="1.4659797833333332" stroke-dasharray=""/><g transform="translate(313.071994941862,792.332753296) translate(-313.071994941862,-792.332753296)"><path fill="black" stroke="none" paint-order="stroke fill markers" d=" M 327.73179277519534 785.0028543793333 L 313.071994941862 792.332753296 L 327.73179277519534 799.6626522126667 Z"/></g></g><g><g><rect fill="white" stroke="none" x="53.66636075302084" y="818.720389396" width="220.9969638655078" height="22.86928462"/></g><text fill="black" stroke="none" font-family="sans-serif" font-size="11pt" font-style="normal" font-weight="normal" text-decoration="normal" x="56.30512436302084" y="834.5529710559999" text-anchor="start" dominant-baseline="alphabetic">getNewCustomerInformation()</text></g><g><path fill="none" stroke="black" paint-order="fill stroke markers" d=" M 295.480237541862 841.589674016 L 35.78140739635417 841.589674016" stroke-miterlimit="10" stroke-width="1.4659797833333332" stroke-dasharray=""/><g transform="translate(32.8494478296875,841.589674016) translate(-32.8494478296875,-841.589674016)"><path fill="black" stroke="none" paint-order="stroke fill markers" d=" M 47.509245663020835 834.2597750993333 L 32.8494478296875 841.589674016 L 47.509245663020835 848.9195729326667 Z"/></g></g><g><g><rect fill="white" stroke="none" x="96.59050931259115" y="867.977310116" width="135.14866674636718" height="22.86928462"/></g><text fill="black" stroke="none" font-family="sans-serif" font-size="11pt" font-style="normal" font-weight="normal" text-decoration="normal" x="99.22927292259115" y="883.809891776" text-anchor="start" dominant-baseline="alphabetic">return information</text></g><g><path fill="none" stroke="black" paint-order="fill stroke markers" d=" M 32.8494478296875 890.846594736 L 292.54827797519533 890.846594736" stroke-miterlimit="10" stroke-width="1.4659797833333332" stroke-dasharray="7.0367029599999995"/><g transform="translate(295.480237541862,890.846594736) translate(-295.480237541862,-890.846594736)"><path fill="black" stroke="none" paint-order="stroke fill markers" d=" M 280.8204397085286 883.5166958193333 L 295.480237541862 890.846594736 L 280.8204397085286 898.1764936526667 Z"/></g></g><g><g><rect fill="white" stroke="none" x="535.9311562091981" y="917.234230836" width="215.6855624983203" height="22.86928462"/></g><text fill="black" stroke="none" font-family="sans-serif" font-size="11pt" font-style="normal" font-weight="normal" text-decoration="normal" x="538.569919819198" y="933.066812496" text-anchor="start" dominant-baseline="alphabetic">updateCustomerInformation()</text></g><g><path fill="none" stroke="black" paint-order="fill stroke markers" d=" M 313.071994941862 940.1035154560001 L 971.5439204081875 940.1035154560001" stroke-miterlimit="10" stroke-width="1.4659797833333332" stroke-dasharray=""/><g transform="translate(974.4758799748543,940.1035154560001) translate(-974.4758799748543,-940.1035154560001)"><path fill="black" stroke="none" paint-order="stroke fill markers" d=" M 959.816082141521 932.7736165393334 L 974.4758799748543 940.1035154560001 L 959.816082141521 947.4334143726668 Z"/></g></g><g><g><rect fill="white" stroke="none" x="591.2389793903504" y="966.4911515560001" width="105.06991613601562" height="22.86928462"/></g><text fill="black" stroke="none" font-family="sans-serif" font-size="11pt" font-style="normal" font-weight="normal" text-decoration="normal" x="593.8777430003504" y="982.323733216" text-anchor="start" dominant-baseline="alphabetic">return success</text></g><g><path fill="none" stroke="black" paint-order="fill stroke markers" d=" M 974.4758799748543 989.3604361760001 L 316.00395450852864 989.3604361760001" stroke-miterlimit="10" stroke-width="1.4659797833333332" stroke-dasharray=""/><g transform="translate(313.071994941862,989.3604361760001) translate(-313.071994941862,-989.3604361760001)"><path fill="black" stroke="none" paint-order="stroke fill markers" d=" M 327.73179277519534 982.0305372593334 L 313.071994941862 989.3604361760001 L 327.73179277519534 996.6903350926668 Z"/></g></g><g><g><rect fill="white" stroke="none" x="333.88890786519534" y="1015.748072276" width="92.48587072585937" height="22.86928462"/></g><text fill="black" stroke="none" font-family="sans-serif" font-size="11pt" font-style="normal" font-weight="normal" text-decoration="normal" x="336.52767147519535" y="1031.5806539359999" text-anchor="start" dominant-baseline="alphabetic">showMenu()</text></g><g><path fill="none" stroke="black" paint-order="fill stroke markers" d=" M 313.071994941862 1038.617356896 L 383.43902454186195 1038.617356896 L 383.43902454186195 1056.209114296 L 316.00395450852864 1056.209114296" stroke-miterlimit="10" stroke-width="1.4659797833333332" stroke-dasharray=""/><g transform="translate(313.071994941862,1056.209114296) translate(-313.071994941862,-1056.209114296)"><path fill="black" stroke="none" paint-order="stroke fill markers" d=" M 327.73179277519534 1048.8792153793333 L 313.071994941862 1056.209114296 L 327.73179277519534 1063.5390132126668 Z"/></g></g><g><g><rect fill="white" stroke="none" x="107.23194526776693" y="1082.596750396" width="105.06991613601562" height="22.86928462"/></g><text fill="black" stroke="none" font-family="sans-serif" font-size="11pt" font-style="normal" font-weight="normal" text-decoration="normal" x="109.87070887776693" y="1098.429332056" text-anchor="start" dominant-baseline="alphabetic">return success</text></g><g><path fill="none" stroke="black" paint-order="fill stroke markers" d=" M 295.480237541862 1105.466035016 L 26.985528696354166 1105.466035016" stroke-miterlimit="10" stroke-width="1.4659797833333332" stroke-dasharray="7.0367029599999995"/><g transform="translate(24.0535691296875,1105.466035016) translate(-24.0535691296875,-1105.466035016)"><path fill="black" stroke="none" paint-order="stroke fill markers" d=" M 38.71336696302083 1098.1361360993333 L 24.0535691296875 1105.466035016 L 38.71336696302083 1112.7959339326667 Z"/></g></g></g><g/><g/><g/><g/><g/><g/></g></svg>