<svg version="1.1" xmlns="http://www.w3.org/2000/svg" xmlns:xlink="http://www.w3.org/1999/xlink" width="746" height="621"><defs/><g><g/><g/><g/><g/><g/><g/><g/><g/><g><rect fill="white" stroke="none" x="0" y="0" width="746" height="621"/></g><g><text fill="black" stroke="none" font-family="sans-serif" font-size="16.5pt" font-style="normal" font-weight="normal" text-decoration="normal" x="249.64872794926566" y="26.3876361" text-anchor="start" dominant-baseline="alphabetic">Modify Room Price ECE</text></g><g/><g><path fill="none" stroke="black" paint-order="fill stroke markers" d=" M 24.840976051074218 139.67855375599999 L 24.840976051074218 621.6927065159999" stroke-miterlimit="10" stroke-width="1.4659797833333332" stroke-dasharray="13.532121076923076,5.863919133333333"/><path fill="none" stroke="black" paint-order="fill stroke markers" d=" M 277.16087423746745 139.67855375599999 L 277.16087423746745 621.6927065159999" stroke-miterlimit="10" stroke-width="1.4659797833333332" stroke-dasharray="13.532121076923076,5.863919133333333"/><path fill="none" stroke="black" paint-order="fill stroke markers" d=" M 443.97782416201176 139.67855375599999 L 443.97782416201176 621.6927065159999" stroke-miterlimit="10" stroke-width="1.4659797833333332" stroke-dasharray="13.532121076923076,5.863919133333333"/><path fill="none" stroke="black" paint-order="fill stroke markers" d=" M 553.0618049669883 139.67855375599999 L 553.0618049669883 621.6927065159999" stroke-miterlimit="10" stroke-width="1.4659797833333332" stroke-dasharray="13.532121076923076,5.863919133333333"/><path fill="none" stroke="black" paint-order="fill stroke markers" d=" M 680.8432748914024 139.67855375599999 L 680.8432748914024 621.6927065159999" stroke-miterlimit="10" stroke-width="1.4659797833333332" stroke-dasharray="13.532121076923076,5.863919133333333"/></g><g><g><path fill="white" stroke="black" paint-order="fill stroke markers" d=" M 34.86827776907422 65.265419954 A 10.027301717999999 10.027301717999999 0 1 1 34.868272755423774 65.25539265395321 M 24.840976051074218 75.29272167199998 L 24.840976051074218 96.75466569999998 M 12.17491072307422 83.033094928 L 37.50704137907422 83.033094928 M 24.840976051074218 96.75466569999998 L 12.17491072307422 116.80926913599998 M 24.840976051074218 96.75466569999998 L 37.50704137907422 116.80926913599998" stroke-miterlimit="10" stroke-width="2.990598758" stroke-dasharray=""/></g><g><g/><text fill="black" stroke="none" font-family="sans-serif" font-size="11pt" font-style="normal" font-weight="normal" text-decoration="normal" x="8.7958787" y="134.401026536" text-anchor="start" dominant-baseline="alphabetic">Boss</text></g><g><path fill="white" stroke="black" paint-order="fill stroke markers" d=" M 303.28463397646743 89.19021001799997 A 26.123759739 26.123759739 0 1 1 303.2846209145887 89.16408626261492 M 273.6425227574675 63.06645027899997 L 284.19757719746747 54.27057157899998 M 273.6425227574675 63.06645027899997 L 284.19757719746747 71.86232897899997" stroke-miterlimit="10" stroke-width="2.990598758" stroke-dasharray=""/></g><g><g/><text fill="black" stroke="none" font-family="sans-serif" font-size="11pt" font-style="normal" font-weight="normal" text-decoration="normal" x="210.84734426920573" y="134.401026536" text-anchor="start" dominant-baseline="alphabetic">ReservationSystem</text></g><path fill="none" stroke="none"/><g><path fill="white" stroke="black" paint-order="fill stroke markers" d=" M 405.7211125368203 92.18080877599999 L 482.23453578720313 92.18080877599999 L 482.23453578720313 139.67855375599999 L 405.7211125368203 139.67855375599999 L 405.7211125368203 92.18080877599999 Z" stroke-miterlimit="10" stroke-width="2.814681184" stroke-dasharray=""/></g><g><g/><text fill="black" stroke="none" font-family="sans-serif" font-size="11pt" font-style="normal" font-weight="normal" text-decoration="normal" x="424.80816931582035" y="122.08679635600001" text-anchor="start" dominant-baseline="alphabetic">Hotel</text></g><g><path fill="white" stroke="black" paint-order="fill stroke markers" d=" M 579.1855647059883 86.79773101159998 A 26.123759739 26.123759739 0 1 1 579.1855516441095 86.77160725621492 M 525.4427458489884 115.31396975699997 L 577.6902653269883 115.31396975699997" stroke-miterlimit="10" stroke-width="2.990598758" stroke-dasharray=""/></g><g><g/><text fill="black" stroke="none" font-family="sans-serif" font-size="11pt" font-style="normal" font-weight="normal" text-decoration="normal" x="499.8262931872032" y="134.401026536" text-anchor="start" dominant-baseline="alphabetic">Room (current)</text></g><g><path fill="white" stroke="black" paint-order="fill stroke markers" d=" M 706.9670346304024 86.79773101159998 A 26.123759739 26.123759739 0 1 1 706.9670215685236 86.77160725621492 M 653.2242157734024 115.31396975699997 L 705.4717352514024 115.31396975699997" stroke-miterlimit="10" stroke-width="2.990598758" stroke-dasharray=""/></g><g><g/><text fill="black" stroke="none" font-family="sans-serif" font-size="11pt" font-style="normal" font-weight="normal" text-decoration="normal" x="623.8890741467735" y="134.401026536" text-anchor="start" dominant-baseline="alphabetic">Room (selected)</text></g></g><g><path fill="white" stroke="black" paint-order="fill stroke markers" d=" M 268.36499553746745 197.73135317599997 L 285.95675293746746 197.73135317599997 L 285.95675293746746 296.24519461599994 L 268.36499553746745 296.24519461599994 L 268.36499553746745 197.73135317599997" stroke-miterlimit="10" stroke-width="1.4659797833333332" stroke-dasharray=""/><path fill="white" stroke="black" paint-order="fill stroke markers" d=" M 268.36499553746745 345.5021153359999 L 285.95675293746746 345.5021153359999 L 285.95675293746746 560.1215556159999 L 268.36499553746745 560.1215556159999 L 268.36499553746745 345.5021153359999" stroke-miterlimit="10" stroke-width="1.4659797833333332" stroke-dasharray=""/><path fill="white" stroke="black" paint-order="fill stroke markers" d=" M 16.04509735107422 461.6077141759999 L 33.63685475107422 461.6077141759999 L 33.63685475107422 510.86463489599987 L 16.04509735107422 510.86463489599987 L 16.04509735107422 461.6077141759999" stroke-miterlimit="10" stroke-width="1.4659797833333332" stroke-dasharray=""/><g><g><rect fill="white" stroke="none" x="50.05582832440756" y="174.86206855599997" width="193.09431493972656" height="22.86928462"/></g><text fill="black" stroke="none" font-family="sans-serif" font-size="11pt" font-style="normal" font-weight="normal" text-decoration="normal" x="52.694591934407555" y="190.69465021599999" text-anchor="start" dominant-baseline="alphabetic">selectRoom(roomNumber)</text></g><g><path fill="none" stroke="black" paint-order="fill stroke markers" d=" M 24.840976051074218 197.73135317599997 L 265.4330359708008 197.73135317599997" stroke-miterlimit="10" stroke-width="1.4659797833333332" stroke-dasharray=""/><g transform="translate(268.36499553746745,197.73135317599997) translate(-268.36499553746745,-197.73135317599997)"><path fill="black" stroke="none" paint-order="stroke fill markers" d=" M 253.70519770413412 190.4014542593333 L 268.36499553746745 197.73135317599997 L 253.70519770413412 205.06125209266665 Z"/></g></g><g><g><rect fill="white" stroke="none" x="383.1876158671302" y="224.11898927599995" width="72.64332617019531" height="22.86928462"/></g><text fill="black" stroke="none" font-family="sans-serif" font-size="11pt" font-style="normal" font-weight="normal" text-decoration="normal" x="385.8263794771302" y="239.95157093599997" text-anchor="start" dominant-baseline="alphabetic">*getInfo()</text></g><g><path fill="none" stroke="black" paint-order="fill stroke markers" d=" M 285.95675293746746 246.98827389599995 L 550.1298454003216 246.98827389599995" stroke-miterlimit="10" stroke-width="1.4659797833333332" stroke-dasharray=""/><g transform="translate(553.0618049669883,246.98827389599995) translate(-553.0618049669883,-246.98827389599995)"><path fill="black" stroke="none" paint-order="stroke fill markers" d=" M 538.402007133655 239.65837497933327 L 553.0618049669883 246.98827389599995 L 538.402007133655 254.31817281266663 Z"/></g></g><g><g><rect fill="white" stroke="none" x="143.96422218427082" y="273.37590999599996" width="5.27752722" height="22.86928462"/></g><text fill="black" stroke="none" font-family="sans-serif" font-size="11pt" font-style="normal" font-weight="normal" text-decoration="normal" x="146.60298579427084" y="289.208491656" text-anchor="start" dominant-baseline="alphabetic"></text></g><g><path fill="none" stroke="black" paint-order="fill stroke markers" d=" M 268.36499553746745 296.24519461599994 L 27.772935617740885 296.24519461599994" stroke-miterlimit="10" stroke-width="1.4659797833333332" stroke-dasharray="7.0367029599999995"/><g transform="translate(24.840976051074218,296.24519461599994) translate(-24.840976051074218,-296.24519461599994)"><path fill="black" stroke="none" paint-order="stroke fill markers" d=" M 39.50077388440755 288.9152956993333 L 24.840976051074218 296.24519461599994 L 39.50077388440755 303.5750935326666 Z"/></g></g><g><g><rect fill="white" stroke="none" x="75.22404884442709" y="322.63283071599994" width="142.7578738996875" height="22.86928462"/></g><text fill="black" stroke="none" font-family="sans-serif" font-size="11pt" font-style="normal" font-weight="normal" text-decoration="normal" x="77.86281245442709" y="338.46541237599996" text-anchor="start" dominant-baseline="alphabetic">changeRoom(price)</text></g><g><path fill="none" stroke="black" paint-order="fill stroke markers" d=" M 24.840976051074218 345.5021153359999 L 265.4330359708008 345.5021153359999" stroke-miterlimit="10" stroke-width="1.4659797833333332" stroke-dasharray=""/><g transform="translate(268.36499553746745,345.5021153359999) translate(-268.36499553746745,-345.5021153359999)"><path fill="black" stroke="none" paint-order="stroke fill markers" d=" M 253.70519770413412 338.17221641933327 L 268.36499553746745 345.5021153359999 L 253.70519770413412 352.83201425266657 Z"/></g></g><g><g><rect fill="white" stroke="none" x="306.7736658608008" y="371.8897514359999" width="131.04704321121093" height="22.86928462"/></g><text fill="black" stroke="none" font-family="sans-serif" font-size="11pt" font-style="normal" font-weight="normal" text-decoration="normal" x="309.4124294708008" y="387.72233309599994" text-anchor="start" dominant-baseline="alphabetic">checkIllegalPrice()</text></g><g><path fill="none" stroke="black" paint-order="fill stroke markers" d=" M 285.95675293746746 394.7590360559999 L 356.3237825374674 394.7590360559999 L 356.3237825374674 412.3507934559999 L 288.8887125041341 412.3507934559999" stroke-miterlimit="10" stroke-width="1.4659797833333332" stroke-dasharray=""/><g transform="translate(285.95675293746746,412.3507934559999) translate(-285.95675293746746,-412.3507934559999)"><path fill="black" stroke="none" paint-order="stroke fill markers" d=" M 300.6165507708008 405.02089453933326 L 285.95675293746746 412.3507934559999 L 300.6165507708008 419.68069237266656 Z"/></g></g><g><g><rect fill="white" stroke="none" x="89.80096616073568" y="438.7384295559999" width="122.39991796707031" height="22.86928462"/></g><text fill="black" stroke="none" font-family="sans-serif" font-size="11pt" font-style="normal" font-weight="normal" text-decoration="normal" x="92.43972977073568" y="454.57101121599993" text-anchor="start" dominant-baseline="alphabetic">alertIllegalPrice()</text></g><g><path fill="none" stroke="black" paint-order="fill stroke markers" d=" M 268.36499553746745 461.6077141759999 L 36.56881431774089 461.6077141759999" stroke-miterlimit="10" stroke-width="1.4659797833333332" stroke-dasharray=""/><g transform="translate(33.63685475107422,461.6077141759999) translate(-33.63685475107422,-461.6077141759999)"><path fill="black" stroke="none" paint-order="stroke fill markers" d=" M 48.29665258440755 454.27781525933324 L 33.63685475107422 461.6077141759999 L 48.29665258440755 468.93761309266654 Z"/></g></g><g><g><rect fill="white" stroke="none" x="148.36216153427083" y="487.9953502759999" width="5.27752722" height="22.86928462"/></g><text fill="black" stroke="none" font-family="sans-serif" font-size="11pt" font-style="normal" font-weight="normal" text-decoration="normal" x="151.00092514427084" y="503.8279319359999" text-anchor="start" dominant-baseline="alphabetic"></text></g><g><path fill="none" stroke="black" paint-order="fill stroke markers" d=" M 33.63685475107422 510.86463489599987 L 265.4330359708008 510.86463489599987" stroke-miterlimit="10" stroke-width="1.4659797833333332" stroke-dasharray="7.0367029599999995"/><g transform="translate(268.36499553746745,510.86463489599987) translate(-268.36499553746745,-510.86463489599987)"><path fill="black" stroke="none" paint-order="stroke fill markers" d=" M 253.70519770413412 503.5347359793332 L 268.36499553746745 510.86463489599987 L 253.70519770413412 518.1945338126666 Z"/></g></g><g><g><rect fill="white" stroke="none" x="143.96422218427082" y="537.2522709959999" width="5.27752722" height="22.86928462"/></g><text fill="black" stroke="none" font-family="sans-serif" font-size="11pt" font-style="normal" font-weight="normal" text-decoration="normal" x="146.60298579427084" y="553.0848526559998" text-anchor="start" dominant-baseline="alphabetic"></text></g><g><path fill="none" stroke="black" paint-order="fill stroke markers" d=" M 268.36499553746745 560.1215556159999 L 27.772935617740885 560.1215556159999" stroke-miterlimit="10" stroke-width="1.4659797833333332" stroke-dasharray="7.0367029599999995"/><g transform="translate(24.840976051074218,560.1215556159999) translate(-24.840976051074218,-560.1215556159999)"><path fill="black" stroke="none" paint-order="stroke fill markers" d=" M 39.50077388440755 552.7916566993332 L 24.840976051074218 560.1215556159999 L 39.50077388440755 567.4514545326666 Z"/></g></g></g><g/><g/><g/><g/><g/></g></svg>