<svg version="1.1" xmlns="http://www.w3.org/2000/svg" xmlns:xlink="http://www.w3.org/1999/xlink" width="2118" height="1937"><defs/><g><g/><g/><g/><g/><g/><g/><g/><g/><g/><g/><g/><g/><g/><g/><g/><g/><g/><g/><g/><g/><g/><g/><g/><g/><g/><g/><g/><g/><g/><g/><g/><g/><g><rect fill="white" stroke="none" x="0" y="0" width="2118" height="1937"/></g><g><text fill="black" stroke="none" font-family="sans-serif" font-size="16.5pt" font-style="normal" font-weight="normal" text-decoration="normal" x="941.2274414542956" y="26.3876361" text-anchor="start" dominant-baseline="alphabetic">Add A New Room BCE</text></g><g/><g><path fill="none" stroke="black" paint-order="fill stroke markers" d=" M 24.840976051074218 139.67855375599999 L 24.840976051074218 1937.8376281543988" stroke-miterlimit="10" stroke-width="1.4659797833333332" stroke-dasharray="13.532121076923076,5.863919133333333"/><path fill="none" stroke="black" paint-order="fill stroke markers" d=" M 102.33611479873048 302.22639213199994 L 102.33611479873048 1937.8376281543988" stroke-miterlimit="10" stroke-width="1.4659797833333332" stroke-dasharray="13.532121076923076,5.863919133333333"/><path fill="none" stroke="black" paint-order="fill stroke markers" d=" M 308.206496688737 139.67855375599999 L 308.206496688737 1937.8376281543988" stroke-miterlimit="10" stroke-width="1.4659797833333332" stroke-dasharray="13.532121076923076,5.863919133333333"/><path fill="none" stroke="black" paint-order="fill stroke markers" d=" M 726.4232104647787 139.67855375599999 L 726.4232104647787 1937.8376281543988" stroke-miterlimit="10" stroke-width="1.4659797833333332" stroke-dasharray="13.532121076923076,5.863919133333333"/><path fill="none" stroke="black" paint-order="fill stroke markers" d=" M 1153.4358029408204 139.67855375599999 L 1153.4358029408204 1937.8376281543988" stroke-miterlimit="10" stroke-width="1.4659797833333332" stroke-dasharray="13.532121076923076,5.863919133333333"/><path fill="none" stroke="black" paint-order="fill stroke markers" d=" M 1562.856638016862 139.67855375599999 L 1562.856638016862 1937.8376281543988" stroke-miterlimit="10" stroke-width="1.4659797833333332" stroke-dasharray="13.532121076923076,5.863919133333333"/><path fill="none" stroke="black" paint-order="fill stroke markers" d=" M 1827.0693754349766 139.67855375599999 L 1827.0693754349766 1937.8376281543988" stroke-miterlimit="10" stroke-width="1.4659797833333332" stroke-dasharray="13.532121076923076,5.863919133333333"/><path fill="none" stroke="black" paint-order="fill stroke markers" d=" M 2082.486234153091 1267.5916712143996 L 2082.486234153091 1937.8376281543988" stroke-miterlimit="10" stroke-width="1.4659797833333332" stroke-dasharray="13.532121076923076,5.863919133333333"/></g><g><g><path fill="white" stroke="black" paint-order="fill stroke markers" d=" M 34.86827776907422 65.265419954 A 10.027301717999999 10.027301717999999 0 1 1 34.868272755423774 65.25539265395321 M 24.840976051074218 75.29272167199998 L 24.840976051074218 96.75466569999998 M 12.17491072307422 83.033094928 L 37.50704137907422 83.033094928 M 24.840976051074218 96.75466569999998 L 12.17491072307422 116.80926913599998 M 24.840976051074218 96.75466569999998 L 37.50704137907422 116.80926913599998" stroke-miterlimit="10" stroke-width="2.990598758" stroke-dasharray=""/></g><g><g/><text fill="black" stroke="none" font-family="sans-serif" font-size="11pt" font-style="normal" font-weight="normal" text-decoration="normal" x="8.7958787" y="134.401026536" text-anchor="start" dominant-baseline="alphabetic">Boss</text></g><g><path fill="white" stroke="black" paint-order="fill stroke markers" d=" M 343.126135127737 89.19021001799997 A 26.123759739 26.123759739 0 1 1 343.1261220658582 89.16408626261492 M 274.782157628737 61.57115089999997 L 274.782157628737 116.80926913599997 M 273.286858249737 89.19021001799997 L 290.878615649737 89.19021001799997" stroke-miterlimit="10" stroke-width="2.990598758" stroke-dasharray=""/></g><g><g/><text fill="black" stroke="none" font-family="sans-serif" font-size="11pt" font-style="normal" font-weight="normal" text-decoration="normal" x="284.53433940113933" y="134.401026536" text-anchor="start" dominant-baseline="alphabetic">BossUI</text></g><g><path fill="white" stroke="black" paint-order="fill stroke markers" d=" M 752.5469702037786 89.19021001799997 A 26.123759739 26.123759739 0 1 1 752.5469571418998 89.16408626261492 M 722.9048589847787 63.06645027899997 L 733.4599134247787 54.27057157899998 M 722.9048589847787 63.06645027899997 L 733.4599134247787 71.86232897899997" stroke-miterlimit="10" stroke-width="2.990598758" stroke-dasharray=""/></g><g><g/><text fill="black" stroke="none" font-family="sans-serif" font-size="11pt" font-style="normal" font-weight="normal" text-decoration="normal" x="660.109680496517" y="134.401026536" text-anchor="start" dominant-baseline="alphabetic">ReservationSystem</text></g><path fill="none" stroke="none"/><g><path fill="white" stroke="black" paint-order="fill stroke markers" d=" M 1115.179091315629 92.18080877599999 L 1191.6925145660118 92.18080877599999 L 1191.6925145660118 139.67855375599999 L 1115.179091315629 139.67855375599999 L 1115.179091315629 92.18080877599999 Z" stroke-miterlimit="10" stroke-width="2.814681184" stroke-dasharray=""/></g><g><g/><text fill="black" stroke="none" font-family="sans-serif" font-size="11pt" font-style="normal" font-weight="normal" text-decoration="normal" x="1134.266148094629" y="122.08679635600001" text-anchor="start" dominant-baseline="alphabetic">Hotel</text></g><path fill="none" stroke="none"/><g><path fill="white" stroke="black" paint-order="fill stroke markers" d=" M 1475.1833309326862 92.18080877599999 L 1650.5299451010378 92.18080877599999 L 1650.5299451010378 139.67855375599999 L 1475.1833309326862 139.67855375599999 L 1475.1833309326862 92.18080877599999 Z" stroke-miterlimit="10" stroke-width="2.814681184" stroke-dasharray=""/></g><g><g/><text fill="black" stroke="none" font-family="sans-serif" font-size="11pt" font-style="normal" font-weight="normal" text-decoration="normal" x="1494.2703877116862" y="122.08679635600001" text-anchor="start" dominant-baseline="alphabetic">ReservationMapper</text></g><g><path fill="white" stroke="black" paint-order="fill stroke markers" d=" M 1801.3854096309765 105.19870925199999 L 1801.3854096309765 68.25601871199999 L 1852.7533412389766 68.25601871199999 L 1852.7533412389766 105.19870925199999" stroke-miterlimit="10" stroke-width="2.990598758" stroke-dasharray=""/><path fill="white" stroke="black" paint-order="fill stroke markers" d=" M 1852.7533412389766 66.97182042179999 L 1852.752057051388 67.08792408555635 L 1852.7482046170398 67.20401613904309 L 1852.7417843211726 67.3200849731516 L 1852.7327968058103 67.43611898109519 L 1852.721242969697 67.55210655956978 L 1852.7071239682066 67.66803610991414 L 1852.6904412132278 67.78389603926989 L 1852.671196373022 67.8996747617406 L 1852.649391372057 68.01536069955054 L 1852.625028390815 68.1309422842023 L 1852.5981098655736 68.24640795763378 L 1852.568638488163 68.3617461733738 L 1852.5366172056968 68.47694539769695 L 1852.5020492202757 68.59199411077678 L 1852.46493798867 68.70688080783783 L 1852.425287221972 68.82159400030618 L 1852.383100885225 68.93612221695814 L 1852.3383831970277 69.0504540050675 L 1852.2911386291116 69.16457793155072 L 1852.2413719058943 69.27848258411025 L 1852.1890880040064 69.39215657237577 L 1852.1342921517946 69.50558852904317 L 1852.0769898287986 69.61876711101131 L 1852.0171867652027 69.73168100051632 L 1851.9548889412636 69.84431890626333 L 1851.8901025867117 69.95666956455563 L 1851.8228341801284 70.06872174042103 L 1851.7530904482987 70.18046422873529 L 1851.6808783655372 70.29188585534273 L 1851.606205152992 70.40297547817353 L 1851.5290782779225 70.51372198835797 L 1851.4495054529516 70.62411431133734 L 1851.3674946352958 70.73414140797132 L 1851.283054025968 70.84379227564195 L 1851.1961920689594 70.95305594935381 L 1851.1069174503928 71.06192150283061 L 1851.015239097656 71.1703780496077 L 1850.9211661785077 71.27841474412082 L 1850.8247081001616 71.38602078279051 L 1850.725874508345 71.4931854051026 L 1850.6246752863347 71.59989789468413 L 1850.5211205539686 71.7061475803751 L 1850.4152206666336 71.81192383729548 L 1850.3069862142302 71.9172160879077 L 1850.1964280201137 72.02201380307447 L 1850.083557140011 72.12630650311159 L 1849.968384860916 72.23008375883597 L 1849.8509226999613 72.33333519260853 L 1849.7311824032645 72.43605047937191 L 1849.6091759447556 72.53821934768304 L 1849.4849155249788 72.63983158074024 L 1849.3584135698727 72.74087701740487 L 1849.229682729527 72.84134555321748 L 1849.098735876919 72.94122714140819 L 1848.9655861066244 73.04051179390143 L 1848.8302467335093 73.13918958231469 L 1848.6927312913986 73.23725063895135 L 1848.5530535317214 73.33468515778748 L 1848.4112274221377 73.43148339545236 L 1848.26726714514 73.52763567220293 L 1848.1211870966363 73.6231323728916 L 1847.9730018845094 73.71796394792793 L 1847.8227263271572 73.8121209142334 L 1847.6703754520101 73.90559385618985 L 1847.5159644940288 73.998373426581 L 1847.3595088941806 74.09045034752711 L 1847.2010242978945 74.18181541141281 L 1847.0405265534987 74.27245948180787 L 1846.8780317106334 74.36237349438078 L 1846.713556018648 74.45154845780519 L 1846.5471159249742 74.53997545465909 L 1846.3787280734825 74.62764564231648 L 1846.2084093028184 74.71455025383165 L 1846.0361766447165 74.80068059881587 L 1845.8620473222993 74.88602806430642 L 1845.6860387483537 74.97058411562787 L 1845.5081685235907 75.05434029724555 L 1845.3284544348846 75.13728823361109 L 1845.1469144534942 75.21941962999999 L 1844.9635667332666 75.30072627334106 L 1844.7784296088207 75.38120003303769 L 1844.5915215937152 75.46083286178099 L 1844.4028613785954 75.53961679635444 L 1844.212467829326 75.61754395843025 L 1844.0203599851027 75.69460655535714 L 1843.8265570565504 75.77079688093964 L 1843.6310784238 75.84610731620869 L 1843.4339436345524 75.9205303301835 L 1843.2351724021216 75.99405848062472 L 1843.0347846034658 76.06668441477855 L 1842.8328002771975 76.13840087011211 L 1842.629239621581 76.20920067503964 L 1842.4241229925126 76.27907674963963 L 1842.217470901484 76.34802210636286 L 1842.009304013532 76.4160298507311 L 1841.799643145172 76.48309318202661 L 1841.5885092623164 76.54920539397213 L 1841.3759234781771 76.61435987540155 L 1841.1619070511556 76.67855011092104 L 1840.9464813827162 76.74176968156053 L 1840.7296680152463 76.80401226541565 L 1840.5114886299018 76.86527163827986 L 1840.2919650444396 76.92554167426694 L 1840.0711192110352 76.98481634642351 L 1839.8489732140881 77.04308972733178 L 1839.6255492680127 77.10035598970217 L 1839.4008697150173 77.15660940695618 L 1839.17495702287 77.21184435379898 L 1838.9478337826522 77.26605530678191 L 1838.719522706498 77.31923684485484 L 1838.4900466253252 77.37138364990828 L 1838.2594284865506 77.42249050730518 L 1838.027691351796 77.4725523064024 L 1837.7948583945813 77.52156404106174 L 1837.5609528980087 77.56952081015058 L 1837.3259982524328 77.61641781803196 L 1837.0900179531222 77.6622503750442 L 1836.8530355979103 77.70701389796976 L 1836.6150748848352 77.75070391049368 L 1836.3761596097697 77.7933160436511 L 1836.1363136640423 77.83484603626422 L 1835.895561032048 77.87528973536838 L 1835.653925788849 77.91464309662739 L 1835.4114320977683 77.9529021847379 L 1835.168104207973 77.99006317382297 L 1834.9239664520496 78.02612234781469 L 1834.6790432435696 78.0610761008257 L 1834.4333590746503 78.09492093750981 L 1834.1869385135037 78.12765347341158 L 1833.9398062019804 78.15927043530469 L 1833.6919868531058 78.18976866151928 L 1833.4435052486083 78.21914510225817 L 1833.1943862364412 78.24739681990175 L 1832.944654728298 78.27452098930179 L 1832.6943356971215 78.30051489806398 L 1832.4434541746064 78.32537594681908 L 1832.1920352486954 78.34910164948295 L 1831.9401040610724 78.37168963350508 L 1831.6876858046453 78.39313764010592 L 1831.43480572103 78.41344352450264 L 1831.1814890980238 78.43260525612375 L 1830.927761267078 78.45062091881205 L 1830.6736476007645 78.46748871101629 L 1830.419173510238 78.48320694597129 L 1830.1643644426954 78.49777405186667 L 1829.909245878831 78.51118857200397 L 1829.653843330289 78.52344916494236 L 1829.398182337111 78.53455460463276 L 1829.1422884651836 78.54450378054045 L 1828.8861873036806 78.55329569775614 L 1828.6299044625046 78.56092947709544 L 1828.3734655697262 78.56740435518677 L 1828.1168962690213 78.57271968454769 L 1827.860222217106 78.57687493364975 L 1827.6034690811712 78.57986968697145 L 1827.3466625363171 78.58170364504 L 1827.089828262984 78.58237662446106 L 1826.8329919443847 78.58188855793732 L 1826.576179263938 78.58023949427498 L 1826.319415902697 78.57742959837903 L 1826.0627275367845 78.57345915123673 L 1825.806139834823 78.56832854988951 L 1825.5496784553686 78.56203830739318 L 1825.293369044346 78.5545890527668 L 1825.0372372324823 78.54598153092958 L 1824.7813086327455 78.53621660262655 L 1824.525608837782 78.5252952443424 L 1824.2701634173586 78.51321854820387 L 1824.0149979158043 78.4999877218705 L 1823.7601378494567 78.48560408841388 L 1823.5056087041098 78.4700690861854 L 1823.2514359324662 78.45338426867232 L 1822.9976449515912 78.4355513043425 L 1822.7442611403715 78.41657197647748 L 1822.491309836977 78.39644818299428 L 1822.2388163363273 78.37518193625543 L 1821.986805887562 78.35277536286792 L 1821.735303691516 78.32923070347039 L 1821.4843348981994 78.30455031250918 L 1821.233924604282 78.2787366580028 L 1820.9840978505852 78.2517923212952 L 1820.7348796195754 78.2237199967976 L 1820.4862948328687 78.19452249171906 L 1820.2383683487362 78.16420272578573 L 1819.9911249596198 78.13276373094897 L 1819.7445893896524 78.10020865108203 L 1819.4987862921857 78.0665407416658 L 1819.2537402473245 78.03176336946316 L 1819.0094757594688 77.99588001218234 L 1818.7660172548644 77.95889425812916 L 1818.5233890791583 77.92080980584822 L 1818.2816154949662 77.881630463753 L 1818.0407206794453 77.84136014974506 L 1817.8007287218757 77.80000289082224 L 1817.5616636212537 77.75756282267598 L 1817.32354928389 77.71404418927773 L 1817.08640952102 77.66945134245454 L 1816.8502680464223 77.62378874145395 L 1816.6151484740476 77.57706095249802 L 1816.3810743156569 77.52927264832667 L 1816.1480689784714 77.48042860773052 L 1815.9161557628306 77.43053371507293 L 1815.6853578598625 77.37959295980157 L 1815.4556983491655 77.32761143594954 L 1815.2272001964989 77.27459434162587 L 1814.9998862514876 77.22054697849586 L 1814.773779245337 77.16547475125074 L 1814.5489017885589 77.10938316706736 L 1814.3252763687117 77.0522778350574 L 1814.1029253481513 76.99416446570646 L 1813.881870961794 76.93504887030305 L 1813.6621353148946 76.87493696035746 L 1813.4437403808345 76.81383474701059 L 1813.2267079989253 76.75174834043284 L 1813.011059872224 76.68868394921314 L 1812.7968175653639 76.62464787973806 L 1812.584002502397 76.5596465355612 L 1812.372635964652 76.49368641676277 L 1812.1627390886072 76.42677411929971 L 1811.9543328637744 76.358916334346 L 1811.7474381306033 76.2901198476236 L 1811.5420755783941 76.22039153872383 L 1811.3382657432314 76.14973838041949 L 1811.1360290059288 76.07816743796754 L 1810.935385589991 76.00568586840255 L 1810.736355559593 75.9323009198211 L 1810.5389588175715 75.8580199306569 L 1810.3432151034367 75.78285032894695 L 1810.1491439913964 75.70679963158878 L 1809.9567648884006 75.62987544358876 L 1809.7660970321988 75.55208545730159 L 1809.577159489418 75.47343745166106 L 1809.3899711536549 75.3939392914022 L 1809.204550743587 75.31359892627479 L 1809.020916801101 75.2324243902484 L 1808.8390876894382 75.15042380070896 L 1808.659081591358 75.06760535764712 L 1808.4809165073204 74.98397734283817 L 1808.3046102536853 74.89954811901389 L 1808.130180460931 74.8143261290263 L 1807.9576445718913 74.72831989500338 L 1807.7870198400117 74.64153801749687 L 1807.6183233276229 74.5539891746222 L 1807.4515719042358 74.46568212119071 L 1807.2867822448536 74.37662568783415 L 1807.1239708283051 74.28682878012162 L 1806.963153935596 74.19630037766909 L 1806.8043476482817 74.10504953324134 L 1806.6475678468587 74.0130853718468 L 1806.4928302091764 73.92041708982494 L 1806.3401502088695 73.82705395392676 L 1806.189543113811 73.73300530038806 L 1806.0410239845849 73.63828053399578 L 1805.89460767298 73.54288912714766 L 1805.750308820506 73.44684061890487 L 1805.6081418569274 73.3501446140382 L 1805.4681209988225 73.25281078206757 L 1805.3302602481601 73.15484885629505 L 1805.1945733909006 73.05626863283157 L 1805.0610739956164 72.95707996961737 L 1804.9297754121362 72.85729278543607 L 1804.8006907702086 72.75691705892295 L 1804.6738329781901 72.65596282756702 L 1804.5492147217547 72.5544401867073 L 1804.4268484626236 72.45235928852324 L 1804.3067464373212 72.34973034101961 L 1804.1889206559497 72.24656360700563 L 1804.0733829009891 72.14286940306874 L 1803.9601447261186 72.03865809854291 L 1803.8492174550615 71.93394011447177 L 1803.7406121804522 71.82872592256643 L 1803.634339762728 71.72302604415843 L 1803.5304108290416 71.61685104914753 L 1803.4288357722003 71.51021155494473 L 1803.3296247496246 71.4031182254106 L 1803.2327876823347 71.29558176978884 L 1803.1383342539561 71.1876129416354 L 1803.0462739097532 71.07922253774314 L 1802.9566158556836 70.9704213970621 L 1802.869369057478 70.86122039961568 L 1802.7845422397436 70.75163046541265 L 1802.7021438850916 70.64166255335508 L 1802.6221822332884 70.53132766014255 L 1802.5446652804328 70.42063681917243 L 1802.4696007781554 70.30960109943658 L 1802.3969962328442 70.19823160441445 L 1802.3268589048928 70.0865394709627 L 1802.2591958079756 69.97453586820164 L 1802.1940137083461 69.86223199639821 L 1802.13131912416 69.74963908584596 L 1802.0711183248231 69.63676839574217 L 1802.0134173303657 69.52363121306175 L 1801.9582219108388 69.41023885142872 L 1801.9055375857383 69.29660264998472 L 1801.8553696234528 69.18273397225522 L 1801.807723040737 69.0686442050131 L 1801.7626026022094 68.95434475714 L 1801.720012819876 68.83984705848547 L 1801.6799579526798 68.72516255872397 L 1801.6424420060741 68.61030272620987 L 1801.6074687316222 68.49527904683073 L 1801.5750416266226 68.38010302285863 L 1801.5451639337584 68.2647861718 L 1801.5178386407745 68.14934002524383 L 1801.4930684801768 68.03377612770858 L 1801.4708559289613 67.9181060354877 L 1801.4512032083642 67.80234131549402 L 1801.4341122836415 67.68649354410306 L 1801.4195848638713 67.57057430599544 L 1801.4076224017833 67.45459519299835 L 1801.3982260936139 67.33856780292646 L 1801.3913968789861 67.22250373842208 L 1801.3871354408159 67.10641460579494 L 1801.3854422052432 66.99031201386155 L 1801.38631734159 66.87420757278437 L 1801.389760762344 66.75811289291076 L 1801.3957721231654 66.64203958361193 L 1801.4043508229236 66.52599925212212 L 1801.4154960037554 66.41000350237775 L 1801.4292065511522 66.29406393385715 L 1801.4454810940706 66.17819214042055 L 1801.46431800507 66.06239970915072 L 1801.485715400475 65.94669821919432 L 1801.5096711405638 65.8310992406039 L 1801.536182829782 65.71561433318102 L 1801.5652478169836 65.60025504532017 L 1801.5968631956935 65.48503291285398 L 1801.6310258044 65.36995945789971 L 1801.6677322268713 65.25504618770695 L 1801.7069787924954 65.14030459350695 L 1801.7487615766483 65.02574614936354 L 1801.7930764010869 64.91138231102563 L 1801.8399188343653 64.79722451478179 L 1801.889284192279 64.68328417631649 L 1801.941167538334 64.56957268956862 L 1801.9955636842383 64.45610142559212 L 1802.0524671904232 64.3428817314188 L 1802.111872366585 64.22992492892377 L 1802.1737732722556 64.1172423136931 L 1802.2381637173964 64.00484515389444 L 1802.3050372630164 63.89274468915009 L 1802.3743872218167 63.78095212941312 L 1802.4462066588592 63.66947865384635 L 1802.5204883922602 63.558335409704426 L 1802.597224993908 63.447533511219156 L 1802.6764087902063 63.337084038488044 L 1802.758031862842 63.226998036366325 L 1802.8420860495753 63.11728651336247 L 1802.928562945058 63.00796044053737 L 1803.0174539016723 62.899030750407185 L 1803.1087500303968 62.790508335850156 L 1803.2024422016946 62.682404049017315 L 1803.2985210464267 62.57472870024724 L 1803.3969769567886 62.4674930569851 L 1803.4978000872716 62.36070784270584 L 1803.6009803556462 62.25438373584191 L 1803.706507443972 62.148531368715396 L 1803.8143707996278 62.04316132647479 L 1803.924559636368 61.938284146036516 L 1804.0370629354009 61.83391031503122 L 1804.15186944649 61.73005027075502 L 1804.2689676890802 61.6267143991258 L 1804.3883459534447 61.52391303364461 L 1804.5099923018568 61.42165645436233 L 1804.6338945697826 61.31995488685167 L 1804.7600403670986 61.21881850118463 L 1804.8884170793306 61.1182574109155 L 1805.0190118689138 61.018281672069506 L 1805.1518116764787 60.91890128213721 L 1805.2868032221547 60.82012617907481 L 1805.4239730068998 60.72196624031029 L 1805.5633073138501 60.62443128175571 L 1805.7047922096908 60.52753105682567 L 1805.8484135460503 60.431275255461905 L 1805.9941569609146 60.33567350316434 L 1806.1420078800636 60.24073536002853 L 1806.2919515185288 60.14647031978968 L 1806.443972882071 60.05288780887326 L 1806.5980567686809 59.959997185452366 L 1806.754187770098 59.86780773851195 L 1806.9123502733523 59.77632868691987 L 1807.0725284623254 59.68556917850505 L 1807.2347063193315 59.59553828914271 L 1807.3988676267206 59.50624502184675 L 1807.5649959684984 59.41769830586949 L 1807.7330747319693 59.32990699580875 L 1807.903087109397 59.24287987072236 L 1808.0750160996852 59.15662563325033 L 1808.2488445100785 59.0711529087445 L 1808.4245549578804 58.986470244406114 L 1808.602129872193 58.90258610843103 L 1808.7815514956724 58.81950888916295 L 1808.962801886306 58.737246894254554 L 1809.1458629192057 58.65580834983679 L 1809.3307162884207 58.57520139969624 L 1809.5173435087681 58.49543410446074 L 1809.7057259176815 58.41651444079334 L 1809.895844677077 58.33845030059465 L 1810.0876807752372 58.26124949021362 L 1810.281215028712 58.18491972966697 L 1810.4764280842373 58.10946865186714 L 1810.67330042067 58.03490380185903 L 1810.8718123509411 57.96123263606552 L 1811.0719440240227 57.88846252154177 L 1811.2736754269142 57.816600735238616 L 1811.4769863866434 57.74565446327479 L 1811.6818565722838 57.67563080021837 L 1811.8882654969875 57.60653674837731 L 1812.0961925200343 57.53837921709922 L 1812.305616848895 57.47116502208042 L 1812.516517541311 57.40490088468441 L 1812.7288735073892 57.3395934312697 L 1812.9426635117097 57.27524919252721 L 1813.1578661754502 57.21187460282721 L 1813.3744599785239 57.14947599957584 L 1813.5924232617308 57.088059622581426 L 1813.8117342289245 57.02763161343051 L 1814.0323709491906 56.96819801487362 L 1814.2543113590411 56.9097647702211 L 1814.47753326462 56.85233772274873 L 1814.7020143439229 56.79592261511338 L 1814.9277321490288 56.74052508877882 L 1815.1546641083453 56.6861506834515 L 1815.3827875288655 56.63280483652666 L 1815.6120795984375 56.58049288254453 L 1815.8425173880455 56.52922005265691 L 1816.0740778541024 56.47899147410408 L 1816.3067378407547 56.42981216970201 L 1816.5404740821978 56.38168705734017 L 1816.775263205002 56.334620949489704 L 1817.0110817304505 56.28861855272216 L 1817.247906076888 56.24368446723889 L 1817.4857125620765 56.199823186410995 L 1817.7244774055662 56.157039096329996 L 1817.9641767310711 56.11533647536926 L 1818.204786568859 56.07471949375613 L 1818.4462828581463 56.035192213154914 L 1818.6886414495054 55.99675858626073 L 1818.9318381072792 55.959422456404255 L 1819.1758485120044 55.923187557167346 L 1819.420648262844 55.88805751200974 L 1819.666212880027 55.85403583390668 L 1819.9125178072961 55.82112592499761 L 1820.159538414364 55.78933107624601 L 1820.4072499993758 55.758654467110254 L 1820.6556277913794 55.72909916522569 L 1820.9046469528025 55.70066812609789 L 1821.1542825819367 55.67336419280706 L 1821.404509715427 55.64719009572377 L 1821.6553033307682 55.62214845223594 L 1821.9066383488084 55.598241766487035 L 1822.158489636255 55.57547242912571 L 1822.410832008189 55.55384271706673 L 1822.6636402305835 55.533354793263264 L 1822.916889022827 55.51401070649064 L 1823.1705530602515 55.4958123911414 L 1823.4246069766643 55.47876166703191 L 1823.6790253668858 55.46286023922039 L 1823.9337827892887 55.44810969783636 L 1824.188853768343 55.434511517921656 L 1824.4442127971638 55.42206705928295 L 1824.6998343400608 55.41077756635575 L 1824.9556928350923 55.40064416807991 L 1825.2117626966228 55.39166787778682 L 1825.468018317879 55.38384959309805 L 1825.7244340735124 55.37719009583553 L 1825.9809843221612 55.37169005194345 L 1826.2376434090143 55.36735001142162 L 1826.494385668377 55.36417040827046 L 1826.751185426237 55.36215156044765 L 1827.0080170028327 55.36129366983628 L 1827.2648547152207 55.3615968222247 L 1827.5216728798434 55.363060987297914 L 1827.7784458150986 55.36568601864066 L 1828.0351478439068 55.369471653751965 L 1828.2917532962786 55.37441751407148 L 1828.548236511883 55.3805231050173 L 1828.8045718426124 55.38778781603543 L 1829.0607336551468 55.39621092066079 L 1829.3166963335186 55.40579157658996 L 1829.5724342816734 55.41652882576533 L 1829.8279219260294 55.428421594470926 L 1830.083133718035 55.44146869343979 L 1830.3380441367237 55.45566881797289 L 1830.5926276912662 55.47102054806961 L 1830.8468589235192 55.48752234856974 L 1831.100712410571 55.50517256930697 L 1831.3541627672848 55.52396944527395 L 1831.6071846488362 55.54391109679874 L 1831.8597527532474 55.56499552973279 L 1832.111841823919 55.587220635650404 L 1832.3634266521535 55.61058419205949 L 1832.6144820796783 55.63508386262389 L 1832.8649830011593 55.660717197396956 L 1833.1149043667133 55.687481633066575 L 1833.3642211844121 55.715374493211485 L 1833.6129085227817 55.744392988568904 L 1833.8609415132955 55.7745342173135 L 1834.108295352861 55.8057951653475 L 1834.3549453063004 55.83817270660215 L 1834.600866708824 55.871663603350314 L 1834.8460349684965 55.90626450653023 L 1835.0904255686962 55.941971956080394 L 1835.3340140705666 55.97878238128563 L 1835.5767761154607 56.01669210113408 L 1835.818687427376 56.055697324685354 L 1836.0597238153834 56.095794151449596 L 1836.2998611760447 56.136978571777554 L 1836.539075495824 56.17924646726151 L 1836.7773428534883 56.22259361114713 L 1837.014639422501 56.267015668756166 L 1837.2509414734025 56.31250819791986 L 1837.4862253761846 56.35906664942321 L 1837.7204676026536 56.40668636745987 L 1837.9536447287815 56.455362590097714 L 1838.1857334370502 56.505090449755045 L 1838.4167105187823 56.55586497368733 L 1838.6465528764622 56.60768108448449 L 1838.8752375260456 56.66053360057863 L 1839.1027415992578 56.71441723676219 L 1839.3290423458816 56.76932660471643 L 1839.5541171360305 56.82525621355034 L 1839.7779434624133 56.88220047034963 L 1840.0004989425838 56.940153680736074 L 1840.2217613211794 56.999110049436936 L 1840.4417084721467 57.05906368086447 L 1840.660318400954 57.120008579705484 L 1840.8775692467902 57.1819386515209 L 1841.0934392847523 57.244847703355134 L 1841.3079069280159 57.308729444355436 L 1841.5209507299955 57.373577486400926 L 1841.7325493864887 57.439385344741446 L 1841.942681737806 57.506146438646006 L 1842.1513267708874 57.57385409206084 L 1842.3584636214034 57.642501534277045 L 1842.5640715758418 57.712081900607586 L 1842.768130073578 57.78258823307383 L 1842.9706187089328 57.854013481101276 L 1843.1715172332113 57.92635050222464 L 1843.370805556728 57.99959206280211 L 1843.5684637508175 58.07373083873863 L 1843.7644720498242 58.14875941621842 L 1843.9588108530822 58.224670292446234 L 1844.1514607268728 58.30145587639771 L 1844.3424024063693 58.379108489578456 L 1844.5316167975627 58.45762036679186 L 1844.7190849791716 58.53698365691561 L 1844.9047882045343 58.61719042368684 L 1845.0887079034826 58.698232646495725 L 1845.2708256842004 58.7801022211875 L 1845.4511233350609 58.86279096087293 L 1845.6295828264495 58.94629059674695 L 1845.8061863125658 59.03059277891555 L 1845.9809161332082 59.115689077230776 L 1846.1537548155404 59.2015709821337 L 1846.3246850758383 59.2882299055054 L 1846.493689821218 59.375657181525774 L 1846.6607521513458 59.46384406754005 L 1846.8258553601283 59.55278174493313 L 1846.988982937382 59.642461320011385 L 1847.1501185704847 59.73287382489204 L 1847.309246146008 59.82401021839995 L 1847.4663497513268 59.91586138697171 L 1847.6214136762112 60.008418145567006 L 1847.7744224143983 60.10167123858711 L 1847.9253606651414 60.195611340800426 L 1848.0742133347414 60.29022905827503 L 1848.2209655380557 60.385514929318006 L 1848.3656025999858 60.48145942542166 L 1848.508110056946 60.57805295221634 L 1848.6484736583097 60.67528585042985 L 1848.7866793678336 60.77314839685341 L 1848.922713365062 60.87163080531391 L 1849.0565620467084 60.97072322765259 L 1849.188212028016 61.07041575470979 L 1849.317650144097 61.170698417315876 L 1849.4448634512469 61.271561187288164 L 1849.5698392282416 61.3729939784337 L 1849.6925649776072 61.47498664755789 L 1849.8130284268711 61.577528995478836 L 1849.9312175297887 61.68061076804718 L 1850.0471204675484 61.78422165717158 L 1850.160725649953 61.88835130184945 L 1850.2720217165786 61.99298928920311 L 1850.3809975379118 62.09812515552101 L 1850.4876422164607 62.203748387304145 L 1850.5919450878469 62.30984842231735 L 1850.6938957218697 62.416414650645535 L 1850.7934839235509 62.52343641575468 L 1850.8906997341533 62.63090301555746 L 1850.9855334321767 62.73880370348344 L 1851.0779755343306 62.847127689553744 L 1851.1680167964814 62.95586414146005 L 1851.2556482145783 63.065002185647764 L 1851.3408610255526 63.174530908403426 L 1851.423646708194 63.28443935694603 L 1851.503996984003 63.39471654052231 L 1851.5819038180193 63.50535143150581 L 1851.6573594196243 63.61633296649962 L 1851.7303562433208 63.72765004744274 L 1851.8008869894873 63.83929154271982 L 1851.8689446051078 63.951246288274376 L 1851.9345222844775 64.06350308872516 L 1851.9976134698832 64.17605071848564 L 1852.0582118522589 64.28887792288667 L 1852.1163113718167 64.40197341930181 L 1852.1719062186532 64.51532589827566 L 1852.2249908333301 64.6289240246548 L 1852.27555990743 64.74275643872124 L 1852.323608384088 64.85681175732844 L 1852.369131458496 64.97107857503958 L 1852.412124578385 65.08554546526814 L 1852.452583444478 65.20020098142045 L 1852.4905040109231 65.31503365804045 L 1852.5258824856946 65.43003201195617 L 1852.5587153309748 65.54518454342806 L 1852.5889992635066 65.66047973729893 L 1852.6167312549217 65.77590606414547 L 1852.641908532044 65.89145198143119 L 1852.6645285771672 66.00710593466063 L 1852.6845891283053 66.12285635853486 L 1852.7020881794201 66.23869167810795 L 1852.7170239806208 66.35460030994449 L 1852.72939503834 66.47057066327784 L 1852.7392001154822 66.58659114116935 L 1852.7464382315477 66.70265014166789 L 1852.7511086627312 66.81873605897015 L 1852.753210941993 66.9348372845811 M 1852.7533412389766 103.91451096179999 L 1852.752057051388 104.03061462555635 L 1852.7482046170398 104.14670667904309 L 1852.7417843211726 104.2627755131516 L 1852.7327968058103 104.37880952109519 L 1852.721242969697 104.49479709956978 L 1852.7071239682066 104.61072664991414 L 1852.6904412132278 104.72658657926989 L 1852.671196373022 104.8423653017406 L 1852.649391372057 104.95805123955054 L 1852.625028390815 105.0736328242023 L 1852.5981098655736 105.18909849763378 L 1852.568638488163 105.3044367133738 L 1852.5366172056968 105.41963593769695 L 1852.5020492202757 105.53468465077678 L 1852.46493798867 105.64957134783783 L 1852.425287221972 105.76428454030618 L 1852.383100885225 105.87881275695814 L 1852.3383831970277 105.9931445450675 L 1852.2911386291116 106.10726847155073 L 1852.2413719058943 106.22117312411025 L 1852.1890880040064 106.33484711237577 L 1852.1342921517946 106.44827906904317 L 1852.0769898287986 106.56145765101131 L 1852.0171867652027 106.67437154051632 L 1851.9548889412636 106.78700944626333 L 1851.8901025867117 106.89936010455563 L 1851.8228341801284 107.01141228042103 L 1851.7530904482987 107.12315476873529 L 1851.6808783655372 107.23457639534273 L 1851.606205152992 107.34566601817353 L 1851.5290782779225 107.45641252835797 L 1851.4495054529516 107.56680485133734 L 1851.3674946352958 107.67683194797132 L 1851.283054025968 107.78648281564195 L 1851.1961920689594 107.89574648935381 L 1851.1069174503928 108.00461204283062 L 1851.015239097656 108.1130685896077 L 1850.9211661785077 108.22110528412082 L 1850.8247081001616 108.32871132279051 L 1850.725874508345 108.4358759451026 L 1850.6246752863347 108.54258843468413 L 1850.5211205539686 108.6488381203751 L 1850.4152206666336 108.75461437729548 L 1850.3069862142302 108.8599066279077 L 1850.1964280201137 108.96470434307447 L 1850.083557140011 109.0689970431116 L 1849.968384860916 109.17277429883598 L 1849.8509226999613 109.27602573260853 L 1849.7311824032645 109.37874101937192 L 1849.6091759447556 109.48090988768304 L 1849.4849155249788 109.58252212074024 L 1849.3584135698727 109.68356755740487 L 1849.229682729527 109.78403609321748 L 1849.098735876919 109.88391768140819 L 1848.9655861066244 109.98320233390143 L 1848.8302467335093 110.08188012231469 L 1848.6927312913986 110.17994117895135 L 1848.5530535317214 110.27737569778748 L 1848.4112274221377 110.37417393545236 L 1848.26726714514 110.47032621220293 L 1848.1211870966363 110.5658229128916 L 1847.9730018845094 110.66065448792793 L 1847.8227263271572 110.7548114542334 L 1847.6703754520101 110.84828439618985 L 1847.5159644940288 110.941063966581 L 1847.3595088941806 111.03314088752711 L 1847.2010242978945 111.12450595141281 L 1847.0405265534987 111.21515002180787 L 1846.8780317106334 111.30506403438078 L 1846.713556018648 111.39423899780519 L 1846.5471159249742 111.48266599465909 L 1846.3787280734825 111.57033618231648 L 1846.2084093028184 111.65724079383165 L 1846.0361766447165 111.74337113881587 L 1845.8620473222993 111.82871860430642 L 1845.6860387483537 111.91327465562787 L 1845.5081685235907 111.99703083724555 L 1845.3284544348846 112.07997877361109 L 1845.1469144534942 112.16211016999999 L 1844.9635667332666 112.24341681334106 L 1844.7784296088207 112.32389057303769 L 1844.5915215937152 112.40352340178099 L 1844.4028613785954 112.48230733635444 L 1844.212467829326 112.56023449843025 L 1844.0203599851027 112.63729709535714 L 1843.8265570565504 112.71348742093964 L 1843.6310784238 112.78879785620869 L 1843.4339436345524 112.8632208701835 L 1843.2351724021216 112.93674902062472 L 1843.0347846034658 113.00937495477855 L 1842.8328002771975 113.08109141011211 L 1842.629239621581 113.15189121503964 L 1842.4241229925126 113.22176728963963 L 1842.217470901484 113.29071264636286 L 1842.009304013532 113.35872039073111 L 1841.799643145172 113.42578372202661 L 1841.5885092623164 113.49189593397213 L 1841.3759234781771 113.55705041540155 L 1841.1619070511556 113.62124065092104 L 1840.9464813827162 113.68446022156053 L 1840.7296680152463 113.74670280541565 L 1840.5114886299018 113.80796217827987 L 1840.2919650444396 113.86823221426694 L 1840.0711192110352 113.92750688642352 L 1839.8489732140881 113.98578026733178 L 1839.6255492680127 114.04304652970217 L 1839.4008697150173 114.09929994695618 L 1839.17495702287 114.15453489379898 L 1838.9478337826522 114.20874584678191 L 1838.719522706498 114.26192738485484 L 1838.4900466253252 114.31407418990828 L 1838.2594284865506 114.36518104730519 L 1838.027691351796 114.4152428464024 L 1837.7948583945813 114.46425458106174 L 1837.5609528980087 114.51221135015058 L 1837.3259982524328 114.55910835803196 L 1837.0900179531222 114.6049409150442 L 1836.8530355979103 114.64970443796976 L 1836.6150748848352 114.69339445049368 L 1836.3761596097697 114.7360065836511 L 1836.1363136640423 114.77753657626423 L 1835.895561032048 114.81798027536838 L 1835.653925788849 114.85733363662739 L 1835.4114320977683 114.8955927247379 L 1835.168104207973 114.93275371382298 L 1834.9239664520496 114.96881288781469 L 1834.6790432435696 115.0037666408257 L 1834.4333590746503 115.03761147750981 L 1834.1869385135037 115.07034401341159 L 1833.9398062019804 115.10196097530469 L 1833.6919868531058 115.13245920151928 L 1833.4435052486083 115.16183564225817 L 1833.1943862364412 115.19008735990175 L 1832.944654728298 115.21721152930179 L 1832.6943356971215 115.24320543806398 L 1832.4434541746064 115.26806648681908 L 1832.1920352486954 115.29179218948295 L 1831.9401040610724 115.31438017350509 L 1831.6876858046453 115.33582818010592 L 1831.43480572103 115.35613406450264 L 1831.1814890980238 115.37529579612375 L 1830.927761267078 115.39331145881205 L 1830.6736476007645 115.41017925101629 L 1830.419173510238 115.42589748597129 L 1830.1643644426954 115.44046459186667 L 1829.909245878831 115.45387911200397 L 1829.653843330289 115.46613970494236 L 1829.398182337111 115.47724514463276 L 1829.1422884651836 115.48719432054045 L 1828.8861873036806 115.49598623775614 L 1828.6299044625046 115.50362001709544 L 1828.3734655697262 115.51009489518677 L 1828.1168962690213 115.5154102245477 L 1827.860222217106 115.51956547364975 L 1827.6034690811712 115.52256022697145 L 1827.3466625363171 115.52439418504 L 1827.089828262984 115.52506716446106 L 1826.8329919443847 115.52457909793732 L 1826.576179263938 115.52293003427498 L 1826.319415902697 115.52012013837903 L 1826.0627275367845 115.51614969123673 L 1825.806139834823 115.51101908988952 L 1825.5496784553686 115.50472884739318 L 1825.293369044346 115.4972795927668 L 1825.0372372324823 115.48867207092958 L 1824.7813086327455 115.47890714262655 L 1824.525608837782 115.4679857843424 L 1824.2701634173586 115.45590908820387 L 1824.0149979158043 115.4426782618705 L 1823.7601378494567 115.42829462841388 L 1823.5056087041098 115.4127596261854 L 1823.2514359324662 115.39607480867232 L 1822.9976449515912 115.3782418443425 L 1822.7442611403715 115.35926251647749 L 1822.491309836977 115.33913872299428 L 1822.2388163363273 115.31787247625543 L 1821.986805887562 115.29546590286792 L 1821.735303691516 115.27192124347039 L 1821.4843348981994 115.24724085250918 L 1821.233924604282 115.2214271980028 L 1820.9840978505852 115.1944828612952 L 1820.7348796195754 115.1664105367976 L 1820.4862948328687 115.13721303171906 L 1820.2383683487362 115.10689326578573 L 1819.9911249596198 115.07545427094897 L 1819.7445893896524 115.04289919108203 L 1819.4987862921857 115.0092312816658 L 1819.2537402473245 114.97445390946316 L 1819.0094757594688 114.93857055218234 L 1818.7660172548644 114.90158479812916 L 1818.5233890791583 114.86350034584822 L 1818.2816154949662 114.824321003753 L 1818.0407206794453 114.78405068974506 L 1817.8007287218757 114.74269343082224 L 1817.5616636212537 114.70025336267598 L 1817.32354928389 114.65673472927773 L 1817.08640952102 114.61214188245454 L 1816.8502680464223 114.56647928145395 L 1816.6151484740476 114.51975149249802 L 1816.3810743156569 114.47196318832667 L 1816.1480689784714 114.42311914773052 L 1815.9161557628306 114.37322425507293 L 1815.6853578598625 114.32228349980157 L 1815.4556983491655 114.27030197594954 L 1815.2272001964989 114.21728488162587 L 1814.9998862514876 114.16323751849586 L 1814.773779245337 114.10816529125074 L 1814.5489017885589 114.05207370706736 L 1814.3252763687117 113.9949683750574 L 1814.1029253481513 113.93685500570646 L 1813.881870961794 113.87773941030305 L 1813.6621353148946 113.81762750035746 L 1813.4437403808345 113.75652528701059 L 1813.2267079989253 113.69443888043284 L 1813.011059872224 113.63137448921314 L 1812.7968175653639 113.56733841973806 L 1812.584002502397 113.5023370755612 L 1812.372635964652 113.43637695676277 L 1812.1627390886072 113.36946465929971 L 1811.9543328637744 113.301606874346 L 1811.7474381306033 113.2328103876236 L 1811.5420755783941 113.16308207872383 L 1811.3382657432314 113.0924289204195 L 1811.1360290059288 113.02085797796754 L 1810.935385589991 112.94837640840255 L 1810.736355559593 112.8749914598211 L 1810.5389588175715 112.8007104706569 L 1810.3432151034367 112.72554086894695 L 1810.1491439913964 112.64949017158878 L 1809.9567648884006 112.57256598358876 L 1809.7660970321988 112.49477599730159 L 1809.577159489418 112.41612799166106 L 1809.3899711536549 112.3366298314022 L 1809.204550743587 112.2562894662748 L 1809.020916801101 112.1751149302484 L 1808.8390876894382 112.09311434070896 L 1808.659081591358 112.01029589764713 L 1808.4809165073204 111.92666788283817 L 1808.3046102536853 111.84223865901389 L 1808.130180460931 111.7570166690263 L 1807.9576445718913 111.67101043500338 L 1807.7870198400117 111.58422855749687 L 1807.6183233276229 111.4966797146222 L 1807.4515719042358 111.40837266119071 L 1807.2867822448536 111.31931622783415 L 1807.1239708283051 111.22951932012163 L 1806.963153935596 111.13899091766909 L 1806.8043476482817 111.04774007324134 L 1806.6475678468587 110.9557759118468 L 1806.4928302091764 110.86310762982494 L 1806.3401502088695 110.76974449392677 L 1806.189543113811 110.67569584038806 L 1806.0410239845849 110.58097107399578 L 1805.89460767298 110.48557966714766 L 1805.750308820506 110.38953115890487 L 1805.6081418569274 110.2928351540382 L 1805.4681209988225 110.19550132206757 L 1805.3302602481601 110.09753939629505 L 1805.1945733909006 109.99895917283158 L 1805.0610739956164 109.89977050961737 L 1804.9297754121362 109.79998332543607 L 1804.8006907702086 109.69960759892295 L 1804.6738329781901 109.59865336756702 L 1804.5492147217547 109.4971307267073 L 1804.4268484626236 109.39504982852324 L 1804.3067464373212 109.29242088101961 L 1804.1889206559497 109.18925414700563 L 1804.0733829009891 109.08555994306874 L 1803.9601447261186 108.98134863854291 L 1803.8492174550615 108.87663065447177 L 1803.7406121804522 108.77141646256644 L 1803.634339762728 108.66571658415843 L 1803.5304108290416 108.55954158914753 L 1803.4288357722003 108.45290209494473 L 1803.3296247496246 108.3458087654106 L 1803.2327876823347 108.23827230978884 L 1803.1383342539561 108.1303034816354 L 1803.0462739097532 108.02191307774314 L 1802.9566158556836 107.9131119370621 L 1802.869369057478 107.80391093961568 L 1802.7845422397436 107.69432100541265 L 1802.7021438850916 107.58435309335508 L 1802.6221822332884 107.47401820014255 L 1802.5446652804328 107.36332735917243 L 1802.4696007781554 107.25229163943658 L 1802.3969962328442 107.14092214441445 L 1802.3268589048928 107.0292300109627 L 1802.2591958079756 106.91722640820164 L 1802.1940137083461 106.80492253639821 L 1802.13131912416 106.69232962584596 L 1802.0711183248231 106.57945893574217 L 1802.0134173303657 106.46632175306175 L 1801.9582219108388 106.35292939142872 L 1801.9055375857383 106.23929318998472 L 1801.8553696234528 106.12542451225522 L 1801.807723040737 106.0113347450131 L 1801.7626026022094 105.89703529714001 L 1801.720012819876 105.78253759848548 L 1801.6799579526798 105.66785309872397 L 1801.6424420060741 105.55299326620987 L 1801.6074687316222 105.43796958683073 L 1801.5750416266226 105.32279356285864 L 1801.5451639337584 105.2074767118 L 1801.5178386407745 105.09203056524383 L 1801.4930684801768 104.97646666770858 L 1801.4708559289613 104.8607965754877 L 1801.4512032083642 104.74503185549402 L 1801.4341122836415 104.62918408410306 L 1801.4195848638713 104.51326484599544 L 1801.4076224017833 104.39728573299836 L 1801.3982260936139 104.28125834292646 L 1801.3913968789861 104.16519427842208 L 1801.3871354408159 104.04910514579494 L 1801.3854422052432 103.93300255386156" stroke-miterlimit="10" stroke-width="2.990598758" stroke-dasharray=""/></g><g><g/><text fill="black" stroke="none" font-family="sans-serif" font-size="11pt" font-style="normal" font-weight="normal" text-decoration="normal" x="1794.3671659623203" y="134.401026536" text-anchor="start" dominant-baseline="alphabetic">Database</text></g></g><g><path fill="white" stroke="black" paint-order="fill stroke markers" d=" M 299.410617988737 197.73135317599997 L 317.002375388737 197.73135317599997 L 317.002375388737 1876.2664772543988 L 299.410617988737 1876.2664772543988 L 299.410617988737 197.73135317599997" stroke-miterlimit="10" stroke-width="1.4659797833333332" stroke-dasharray=""/><path fill="white" stroke="black" paint-order="fill stroke markers" d=" M 93.54023609873047 302.22639213199994 L 111.13199349873048 302.22639213199994 L 111.13199349873048 351.4833128519999 L 93.54023609873047 351.4833128519999 L 93.54023609873047 302.22639213199994" stroke-miterlimit="10" stroke-width="1.4659797833333332" stroke-dasharray=""/><path fill="white" stroke="black" paint-order="fill stroke markers" d=" M 93.54023609873047 400.7402335719999 L 111.13199349873048 400.7402335719999 L 111.13199349873048 548.5109957319999 L 93.54023609873047 548.5109957319999 L 93.54023609873047 400.7402335719999" stroke-miterlimit="10" stroke-width="1.4659797833333332" stroke-dasharray=""/><path fill="white" stroke="black" paint-order="fill stroke markers" d=" M 717.6273317647787 597.7679164519999 L 735.2190891647787 597.7679164519999 L 735.2190891647787 1827.0095565343988 L 717.6273317647787 1827.0095565343988 L 717.6273317647787 597.7679164519999" stroke-miterlimit="10" stroke-width="1.4659797833333332" stroke-dasharray=""/><path fill="white" stroke="black" paint-order="fill stroke markers" d=" M 1144.6399242408204 928.4929555719999 L 1162.2316816408204 928.4929555719999 L 1162.2316816408204 1415.3624333743994 L 1144.6399242408204 1415.3624333743994 L 1144.6399242408204 928.4929555719999" stroke-miterlimit="10" stroke-width="1.4659797833333332" stroke-dasharray=""/><path fill="white" stroke="black" paint-order="fill stroke markers" d=" M 1554.060759316862 977.749876292 L 1571.652516716862 977.749876292 L 1571.652516716862 1366.1055126543995 L 1554.060759316862 1366.1055126543995 L 1554.060759316862 977.749876292" stroke-miterlimit="10" stroke-width="1.4659797833333332" stroke-dasharray=""/><path fill="white" stroke="black" paint-order="fill stroke markers" d=" M 1562.856638016862 1044.5985544119999 L 1580.448395416862 1044.5985544119999 L 1580.448395416862 1160.7041532519997 L 1562.856638016862 1160.7041532519997 L 1562.856638016862 1044.5985544119999" stroke-miterlimit="10" stroke-width="1.4659797833333332" stroke-dasharray=""/><path fill="white" stroke="black" paint-order="fill stroke markers" d=" M 2073.6903554530913 1267.5916712143996 L 2091.282112853091 1267.5916712143996 L 2091.282112853091 1316.8485919343996 L 2073.6903554530913 1316.8485919343996 L 2073.6903554530913 1267.5916712143996" stroke-miterlimit="10" stroke-width="1.4659797833333332" stroke-dasharray=""/><path fill="white" stroke="black" paint-order="fill stroke markers" d=" M 726.4232104647787 1482.2111114943993 L 744.0149678647787 1482.2111114943993 L 744.0149678647787 1798.862744694399 L 726.4232104647787 1798.862744694399 L 726.4232104647787 1482.2111114943993" stroke-miterlimit="10" stroke-width="1.4659797833333332" stroke-dasharray=""/><path fill="white" stroke="black" paint-order="fill stroke markers" d=" M 308.206496688737 1531.4680322143993 L 325.798254088737 1531.4680322143993 L 325.798254088737 1777.752635814399 L 308.206496688737 1777.752635814399 L 308.206496688737 1531.4680322143993" stroke-miterlimit="10" stroke-width="1.4659797833333332" stroke-dasharray=""/><path fill="white" stroke="black" paint-order="fill stroke markers" d=" M 735.2190891647787 1580.7249529343992 L 752.8108465647787 1580.7249529343992 L 752.8108465647787 1629.9818736543991 L 735.2190891647787 1629.9818736543991 L 735.2190891647787 1580.7249529343992" stroke-miterlimit="10" stroke-width="1.4659797833333332" stroke-dasharray=""/><path fill="white" stroke="black" paint-order="fill stroke markers" d=" M 735.2190891647787 1679.238794374399 L 752.8108465647787 1679.238794374399 L 752.8108465647787 1728.495715094399 L 735.2190891647787 1728.495715094399 L 735.2190891647787 1679.238794374399" stroke-miterlimit="10" stroke-width="1.4659797833333332" stroke-dasharray=""/><g><g><rect fill="white" stroke="none" x="120.18851809008139" y="174.86206855599997" width="83.87455785964843" height="22.86928462"/></g><text fill="black" stroke="none" font-family="sans-serif" font-size="11pt" font-style="normal" font-weight="normal" text-decoration="normal" x="122.82728170008139" y="190.69465021599999" text-anchor="start" dominant-baseline="alphabetic">addRoom()</text></g><g><path fill="none" stroke="black" paint-order="fill stroke markers" d=" M 24.840976051074218 197.73135317599997 L 296.47865842207034 197.73135317599997" stroke-miterlimit="10" stroke-width="1.4659797833333332" stroke-dasharray=""/><g transform="translate(299.410617988737,197.73135317599997) translate(-299.410617988737,-197.73135317599997)"><path fill="black" stroke="none" paint-order="stroke fill markers" d=" M 284.75082015540363 190.4014542593333 L 299.410617988737 197.73135317599997 L 284.75082015540363 205.06125209266665 Z"/></g></g><g><path fill="white" stroke="black" paint-order="fill stroke markers" d=" M 137.2557532377305 250.24274901499996 A 26.123759739 26.123759739 0 1 1 137.2557401758517 250.21662525961491 M 68.91177573873047 222.62368989699996 L 68.91177573873047 277.86180813299995 M 67.41647635973047 250.24274901499996 L 85.00823375973047 250.24274901499996" stroke-miterlimit="10" stroke-width="2.990598758" stroke-dasharray=""/></g><g><g/><text fill="black" stroke="none" font-family="sans-serif" font-size="11pt" font-style="normal" font-weight="normal" text-decoration="normal" x="58.477830802148446" y="295.4535655329999" text-anchor="start" dominant-baseline="alphabetic">RoomDialog</text></g><g><g><rect fill="white" stroke="none" x="171.40925106864583" y="240.30340608399993" width="102.78651464675781" height="22.86928462"/></g><text fill="black" stroke="none" font-family="sans-serif" font-size="11pt" font-style="normal" font-weight="normal" text-decoration="normal" x="174.04801467864584" y="256.1359877439999" text-anchor="start" dominant-baseline="alphabetic">RoomDialog()</text></g><g><path fill="none" stroke="black" paint-order="fill stroke markers" d=" M 299.410617988737 263.17269070399993 L 149.1263583619792 263.17269070399993" stroke-miterlimit="10" stroke-width="1.4659797833333332" stroke-dasharray=""/><g transform="translate(146.1943987953125,263.17269070399993) translate(-146.1943987953125,-263.17269070399993)"><path fill="black" stroke="none" paint-order="stroke fill markers" d=" M 160.85419662864584 255.84279178733325 L 146.1943987953125 263.17269070399993 L 160.85419662864584 270.5025896206666 Z"/></g></g><g><g><rect fill="white" stroke="none" x="202.63254213373372" y="328.61402823199995" width="5.27752722" height="22.86928462"/></g><text fill="black" stroke="none" font-family="sans-serif" font-size="11pt" font-style="normal" font-weight="normal" text-decoration="normal" x="205.27130574373373" y="344.44660989199997" text-anchor="start" dominant-baseline="alphabetic"></text></g><g><path fill="none" stroke="black" paint-order="fill stroke markers" d=" M 111.13199349873048 351.4833128519999 L 296.47865842207034 351.4833128519999" stroke-miterlimit="10" stroke-width="1.4659797833333332" stroke-dasharray="7.0367029599999995"/><g transform="translate(299.410617988737,351.4833128519999) translate(-299.410617988737,-351.4833128519999)"><path fill="black" stroke="none" paint-order="stroke fill markers" d=" M 284.75082015540363 344.1534139353333 L 299.410617988737 351.4833128519999 L 284.75082015540363 358.8132117686666 Z"/></g></g><g><g><rect fill="white" stroke="none" x="148.8279461864681" y="377.87094895199994" width="112.88671911453125" height="22.86928462"/></g><text fill="black" stroke="none" font-family="sans-serif" font-size="11pt" font-style="normal" font-weight="normal" text-decoration="normal" x="151.4667097964681" y="393.70353061199995" text-anchor="start" dominant-baseline="alphabetic">showAndWait()</text></g><g><path fill="none" stroke="black" paint-order="fill stroke markers" d=" M 299.410617988737 400.7402335719999 L 114.06395306539714 400.7402335719999" stroke-miterlimit="10" stroke-width="1.4659797833333332" stroke-dasharray=""/><g transform="translate(111.13199349873048,400.7402335719999) translate(-111.13199349873048,-400.7402335719999)"><path fill="black" stroke="none" paint-order="stroke fill markers" d=" M 125.79179133206381 393.41033465533326 L 111.13199349873048 400.7402335719999 L 125.79179133206381 408.07013248866656 Z"/></g></g><g><g><rect fill="white" stroke="none" x="56.55184246490235" y="427.1278696719999" width="5.27752722" height="22.86928462"/></g><text fill="black" stroke="none" font-family="sans-serif" font-size="11pt" font-style="normal" font-weight="normal" text-decoration="normal" x="59.19060607490235" y="442.96045133199993" text-anchor="start" dominant-baseline="alphabetic"></text></g><g><path fill="none" stroke="black" paint-order="fill stroke markers" d=" M 93.54023609873047 449.9971542919999 L 27.772935617740885 449.9971542919999" stroke-miterlimit="10" stroke-width="1.4659797833333332" stroke-dasharray=""/><g transform="translate(24.840976051074218,449.9971542919999) translate(-24.840976051074218,-449.9971542919999)"><path fill="black" stroke="none" paint-order="stroke fill markers" d=" M 39.50077388440755 442.66725537533324 L 24.840976051074218 449.9971542919999 L 39.50077388440755 457.32705320866654 Z"/></g></g><g><g><rect fill="white" stroke="none" x="56.55184246490235" y="476.3847903919999" width="5.27752722" height="22.86928462"/></g><text fill="black" stroke="none" font-family="sans-serif" font-size="11pt" font-style="normal" font-weight="normal" text-decoration="normal" x="59.19060607490235" y="492.2173720519999" text-anchor="start" dominant-baseline="alphabetic"></text></g><g><path fill="none" stroke="black" paint-order="fill stroke markers" d=" M 24.840976051074218 499.2540750119999 L 90.60827653206381 499.2540750119999" stroke-miterlimit="10" stroke-width="1.4659797833333332" stroke-dasharray="7.0367029599999995"/><g transform="translate(93.54023609873047,499.2540750119999) translate(-93.54023609873047,-499.2540750119999)"><path fill="black" stroke="none" paint-order="stroke fill markers" d=" M 78.88043826539715 491.9241760953332 L 93.54023609873047 499.2540750119999 L 78.88043826539715 506.5839739286665 Z"/></g></g><g><g><rect fill="white" stroke="none" x="202.63254213373372" y="525.6417111119998" width="5.27752722" height="22.86928462"/></g><text fill="black" stroke="none" font-family="sans-serif" font-size="11pt" font-style="normal" font-weight="normal" text-decoration="normal" x="205.27130574373373" y="541.4742927719998" text-anchor="start" dominant-baseline="alphabetic"></text></g><g><path fill="none" stroke="black" paint-order="fill stroke markers" d=" M 111.13199349873048 548.5109957319999 L 296.47865842207034 548.5109957319999" stroke-miterlimit="10" stroke-width="1.4659797833333332" stroke-dasharray="7.0367029599999995"/><g transform="translate(299.410617988737,548.5109957319999) translate(-299.410617988737,-548.5109957319999)"><path fill="black" stroke="none" paint-order="stroke fill markers" d=" M 284.75082015540363 541.1810968153331 L 299.410617988737 548.5109957319999 L 284.75082015540363 555.8408946486666 Z"/></g></g><g><g><rect fill="white" stroke="none" x="342.21722766207034" y="574.8986318319999" width="350.195251829375" height="22.86928462"/></g><text fill="black" stroke="none" font-family="sans-serif" font-size="11pt" font-style="normal" font-weight="normal" text-decoration="normal" x="344.85599127207036" y="590.7312134919998" text-anchor="start" dominant-baseline="alphabetic">addRoom(roomNumber:int, price:int, type:String)</text></g><g><path fill="none" stroke="black" paint-order="fill stroke markers" d=" M 317.002375388737 597.7679164519999 L 714.695372198112 597.7679164519999" stroke-miterlimit="10" stroke-width="1.4659797833333332" stroke-dasharray=""/><g transform="translate(717.6273317647787,597.7679164519999) translate(-717.6273317647787,-597.7679164519999)"><path fill="black" stroke="none" paint-order="stroke fill markers" d=" M 702.9675339314454 590.4380175353332 L 717.6273317647787 597.7679164519999 L 702.9675339314454 605.0978153686666 Z"/></g></g><g><g><rect fill="white" stroke="none" x="756.036002088112" y="671.6532975319998" width="269.9877017805469" height="22.86928462"/></g><text fill="black" stroke="none" font-family="sans-serif" font-size="11pt" font-style="normal" font-weight="normal" text-decoration="normal" x="758.674765698112" y="687.4858791919997" text-anchor="start" dominant-baseline="alphabetic">checkDoubleRoom(RoomNumber:int)</text></g><g><path fill="none" stroke="black" paint-order="fill stroke markers" d=" M 735.2190891647787 694.5225821519998 L 805.5861187647787 694.5225821519998 L 805.5861187647787 712.1143395519998 L 738.1510487314454 712.1143395519998" stroke-miterlimit="10" stroke-width="1.4659797833333332" stroke-dasharray=""/><g transform="translate(735.2190891647787,712.1143395519998) translate(-735.2190891647787,-712.1143395519998)"><path fill="black" stroke="none" paint-order="stroke fill markers" d=" M 749.878886998112 704.7844406353331 L 735.2190891647787 712.1143395519998 L 749.878886998112 719.4442384686665 Z"/></g></g><g><g><rect fill="white" stroke="none" x="756.036002088112" y="812.3873567319998" width="187.5037235090625" height="22.86928462"/></g><text fill="black" stroke="none" font-family="sans-serif" font-size="11pt" font-style="normal" font-weight="normal" text-decoration="normal" x="758.674765698112" y="828.2199383919998" text-anchor="start" dominant-baseline="alphabetic">checkIllegalPrice(price:int)</text></g><g><path fill="none" stroke="black" paint-order="fill stroke markers" d=" M 735.2190891647787 835.2566413519999 L 805.5861187647787 835.2566413519999 L 805.5861187647787 852.8483987519999 L 738.1510487314454 852.8483987519999" stroke-miterlimit="10" stroke-width="1.4659797833333332" stroke-dasharray=""/><g transform="translate(735.2190891647787,852.8483987519999) translate(-735.2190891647787,-852.8483987519999)"><path fill="black" stroke="none" paint-order="stroke fill markers" d=" M 749.878886998112 845.5184998353332 L 735.2190891647787 852.8483987519999 L 749.878886998112 860.1782976686666 Z"/></g></g><g><g><rect fill="white" stroke="none" x="764.831880788112" y="905.6236709519999" width="350.195251829375" height="22.86928462"/></g><text fill="black" stroke="none" font-family="sans-serif" font-size="11pt" font-style="normal" font-weight="normal" text-decoration="normal" x="767.470644398112" y="921.4562526119998" text-anchor="start" dominant-baseline="alphabetic">addRoom(roomNumber:int, price:int, type:String)</text></g><g><path fill="none" stroke="black" paint-order="fill stroke markers" d=" M 735.2190891647787 928.4929555719999 L 1141.7079646741538 928.4929555719999" stroke-miterlimit="10" stroke-width="1.4659797833333332" stroke-dasharray=""/><g transform="translate(1144.6399242408204,928.4929555719999) translate(-1144.6399242408204,-928.4929555719999)"><path fill="black" stroke="none" paint-order="stroke fill markers" d=" M 1129.980126407487 921.1630566553332 L 1144.6399242408204 928.4929555719999 L 1129.980126407487 935.8228544886666 Z"/></g></g><g><g><rect fill="white" stroke="none" x="1183.0485945641537" y="954.8805916719999" width="350.195251829375" height="22.86928462"/></g><text fill="black" stroke="none" font-family="sans-serif" font-size="11pt" font-style="normal" font-weight="normal" text-decoration="normal" x="1185.6873581741538" y="970.7131733319999" text-anchor="start" dominant-baseline="alphabetic">addRoom(roomNumber:int, price:int, type:String)</text></g><g><path fill="none" stroke="black" paint-order="fill stroke markers" d=" M 1162.2316816408204 977.749876292 L 1551.1287997501954 977.749876292" stroke-miterlimit="10" stroke-width="1.4659797833333332" stroke-dasharray=""/><g transform="translate(1554.060759316862,977.749876292) translate(-1554.060759316862,-977.749876292)"><path fill="black" stroke="none" paint-order="stroke fill markers" d=" M 1539.4009614835286 970.4199773753332 L 1554.060759316862 977.749876292 L 1539.4009614835286 985.0797752086667 Z"/></g></g><g><g><rect fill="white" stroke="none" x="1601.2653083401954" y="1004.1375123919998" width="197.75424230789062" height="22.86928462"/></g><text fill="black" stroke="none" font-family="sans-serif" font-size="11pt" font-style="normal" font-weight="normal" text-decoration="normal" x="1603.9040719501954" y="1019.9700940519998" text-anchor="start" dominant-baseline="alphabetic">performUpdate(sql : String)</text></g><g><path fill="none" stroke="black" paint-order="fill stroke markers" d=" M 1571.652516716862 1027.0067970119999 L 1650.815425016862 1027.0067970119999 L 1650.815425016862 1044.5985544119999 L 1583.3803549835286 1044.5985544119999" stroke-miterlimit="10" stroke-width="1.4659797833333332" stroke-dasharray=""/><g transform="translate(1580.448395416862,1044.5985544119999) translate(-1580.448395416862,-1044.5985544119999)"><path fill="black" stroke="none" paint-order="stroke fill markers" d=" M 1595.1081932501954 1037.2686554953332 L 1580.448395416862 1044.5985544119999 L 1595.1081932501954 1051.9284533286666 Z"/></g></g><g><g><rect fill="white" stroke="none" x="1606.2740295917981" y="1070.986190512" width="194.96971166824218" height="22.86928462"/></g><text fill="black" stroke="none" font-family="sans-serif" font-size="11pt" font-style="normal" font-weight="normal" text-decoration="normal" x="1608.9127932017982" y="1086.8187721719999" text-anchor="start" dominant-baseline="alphabetic">executeUpdate(sql : String)</text></g><g><path fill="none" stroke="black" paint-order="fill stroke markers" d=" M 1580.448395416862 1093.8554751319998 L 1824.13741586831 1093.8554751319998" stroke-miterlimit="10" stroke-width="1.4659797833333332" stroke-dasharray=""/><g transform="translate(1827.0693754349766,1093.8554751319998) translate(-1827.0693754349766,-1093.8554751319998)"><path fill="black" stroke="none" paint-order="stroke fill markers" d=" M 1812.4095776016432 1086.525576215333 L 1827.0693754349766 1093.8554751319998 L 1812.4095776016432 1101.1853740486665 Z"/></g></g><g><g><rect fill="white" stroke="none" x="1601.2653083401954" y="1120.2431112319998" width="5.27752722" height="22.86928462"/></g><text fill="black" stroke="none" font-family="sans-serif" font-size="11pt" font-style="normal" font-weight="normal" text-decoration="normal" x="1603.9040719501954" y="1136.0756928919998" text-anchor="start" dominant-baseline="alphabetic"></text></g><g><path fill="none" stroke="black" paint-order="fill stroke markers" d=" M 1580.448395416862 1143.1123958519997 L 1650.815425016862 1143.1123958519997 L 1650.815425016862 1160.7041532519997 L 1583.3803549835286 1160.7041532519997" stroke-miterlimit="10" stroke-width="1.4659797833333332" stroke-dasharray="7.0367029599999995"/><g transform="translate(1580.448395416862,1160.7041532519997) translate(-1580.448395416862,-1160.7041532519997)"><path fill="black" stroke="none" paint-order="stroke fill markers" d=" M 1595.1081932501954 1153.374254335333 L 1580.448395416862 1160.7041532519997 L 1595.1081932501954 1168.0340521686664 Z"/></g></g><g><path fill="white" stroke="black" paint-order="fill stroke markers" d=" M 2108.609993892091 1213.2155490909997 A 26.123759739 26.123759739 0 1 1 2108.6099808302124 1213.1894253356147 M 2054.8671750350913 1241.7317878363997 L 2107.1146945130913 1241.7317878363997" stroke-miterlimit="10" stroke-width="2.990598758" stroke-dasharray=""/></g><g><g/><text fill="black" stroke="none" font-family="sans-serif" font-size="11pt" font-style="normal" font-weight="normal" text-decoration="normal" x="2061.5127081521146" y="1260.8188446153997" text-anchor="start" dominant-baseline="alphabetic">Room</text></g><g><g><rect fill="white" stroke="none" x="1601.2653083401951" y="1204.4724456631998" width="423.9890750715625" height="22.86928462"/></g><text fill="black" stroke="none" font-family="sans-serif" font-size="11pt" font-style="normal" font-weight="normal" text-decoration="normal" x="1603.9040719501952" y="1220.3050273231997" text-anchor="start" dominant-baseline="alphabetic">PersistentRoom(roomNumber:Integer, price:int, type:String)</text></g><g><path fill="none" stroke="black" paint-order="fill stroke markers" d=" M 1571.652516716862 1227.3417302831997 L 2051.9352154684243 1227.3417302831997" stroke-miterlimit="10" stroke-width="1.4659797833333332" stroke-dasharray=""/><g transform="translate(2054.867175035091,1227.3417302831997) translate(-2054.867175035091,-1227.3417302831997)"><path fill="black" stroke="none" paint-order="stroke fill markers" d=" M 2040.2073772017575 1220.011831366533 L 2054.867175035091 1227.3417302831997 L 2040.2073772017575 1234.6716291998664 Z"/></g></g><g><g><rect fill="white" stroke="none" x="1820.0326724749766" y="1293.9793073143996" width="5.27752722" height="22.86928462"/></g><text fill="black" stroke="none" font-family="sans-serif" font-size="11pt" font-style="normal" font-weight="normal" text-decoration="normal" x="1822.6714360849767" y="1309.8118889743996" text-anchor="start" dominant-baseline="alphabetic"></text></g><g><path fill="none" stroke="black" paint-order="fill stroke markers" d=" M 2073.6903554530913 1316.8485919343996 L 1574.5844762835286 1316.8485919343996" stroke-miterlimit="10" stroke-width="1.4659797833333332" stroke-dasharray="7.0367029599999995"/><g transform="translate(1571.652516716862,1316.8485919343996) translate(-1571.652516716862,-1316.8485919343996)"><path fill="black" stroke="none" paint-order="stroke fill markers" d=" M 1586.3123145501954 1309.5186930177329 L 1571.652516716862 1316.8485919343996 L 1586.3123145501954 1324.1784908510663 Z"/></g></g><g><g><rect fill="white" stroke="none" x="1355.5074568688412" y="1343.2362280343996" width="5.27752722" height="22.86928462"/></g><text fill="black" stroke="none" font-family="sans-serif" font-size="11pt" font-style="normal" font-weight="normal" text-decoration="normal" x="1358.1462204788413" y="1359.0688096943995" text-anchor="start" dominant-baseline="alphabetic"></text></g><g><path fill="none" stroke="black" paint-order="fill stroke markers" d=" M 1554.060759316862 1366.1055126543995 L 1165.163641207487 1366.1055126543995" stroke-miterlimit="10" stroke-width="1.4659797833333332" stroke-dasharray="7.0367029599999995"/><g transform="translate(1162.2316816408204,1366.1055126543995) translate(-1162.2316816408204,-1366.1055126543995)"><path fill="black" stroke="none" paint-order="stroke fill markers" d=" M 1176.8914794741538 1358.7756137377328 L 1162.2316816408204 1366.1055126543995 L 1176.8914794741538 1373.4354115710662 Z"/></g></g><g><g><rect fill="white" stroke="none" x="937.2907430927995" y="1392.4931487543995" width="5.27752722" height="22.86928462"/></g><text fill="black" stroke="none" font-family="sans-serif" font-size="11pt" font-style="normal" font-weight="normal" text-decoration="normal" x="939.9295067027995" y="1408.3257304143995" text-anchor="start" dominant-baseline="alphabetic"></text></g><g><path fill="none" stroke="black" paint-order="fill stroke markers" d=" M 1144.6399242408204 1415.3624333743994 L 738.1510487314454 1415.3624333743994" stroke-miterlimit="10" stroke-width="1.4659797833333332" stroke-dasharray="7.0367029599999995"/><g transform="translate(735.2190891647787,1415.3624333743994) translate(-735.2190891647787,-1415.3624333743994)"><path fill="black" stroke="none" paint-order="stroke fill markers" d=" M 749.878886998112 1408.0325344577327 L 735.2190891647787 1415.3624333743994 L 749.878886998112 1422.6923322910661 Z"/></g></g><g><g><rect fill="white" stroke="none" x="764.831880788112" y="1441.7500694743994" width="126.03630102371093" height="22.86928462"/></g><text fill="black" stroke="none" font-family="sans-serif" font-size="11pt" font-style="normal" font-weight="normal" text-decoration="normal" x="767.470644398112" y="1457.5826511343994" text-anchor="start" dominant-baseline="alphabetic">notifyObservers()</text></g><g><path fill="none" stroke="black" paint-order="fill stroke markers" d=" M 735.2190891647787 1464.6193540943993 L 814.3819974647787 1464.6193540943993 L 814.3819974647787 1482.2111114943993 L 746.9469274314454 1482.2111114943993" stroke-miterlimit="10" stroke-width="1.4659797833333332" stroke-dasharray=""/><g transform="translate(744.0149678647787,1482.2111114943993) translate(-744.0149678647787,-1482.2111114943993)"><path fill="black" stroke="none" paint-order="stroke fill markers" d=" M 758.674765698112 1474.8812125777326 L 744.0149678647787 1482.2111114943993 L 758.674765698112 1489.541010411066 Z"/></g></g><g><g><rect fill="white" stroke="none" x="493.74755765601566" y="1508.5987475943994" width="64.72634924148437" height="22.86928462"/></g><text fill="black" stroke="none" font-family="sans-serif" font-size="11pt" font-style="normal" font-weight="normal" text-decoration="normal" x="496.38632126601567" y="1524.4313292543993" text-anchor="start" dominant-baseline="alphabetic">update()</text></g><g><path fill="none" stroke="black" paint-order="fill stroke markers" d=" M 726.4232104647787 1531.4680322143993 L 328.73021365540365 1531.4680322143993" stroke-miterlimit="10" stroke-width="1.4659797833333332" stroke-dasharray=""/><g transform="translate(325.798254088737,1531.4680322143993) translate(-325.798254088737,-1531.4680322143993)"><path fill="black" stroke="none" paint-order="stroke fill markers" d=" M 340.45805192207035 1524.1381332977326 L 325.798254088737 1531.4680322143993 L 340.45805192207035 1538.797931131066 Z"/></g></g><g><g><rect fill="white" stroke="none" x="487.0288054166602" y="1557.8556683143993" width="86.95973242019531" height="22.86928462"/></g><text fill="black" stroke="none" font-family="sans-serif" font-size="11pt" font-style="normal" font-weight="normal" text-decoration="normal" x="489.6675690266602" y="1573.6882499743992" text-anchor="start" dominant-baseline="alphabetic">getRooms()</text></g><g><path fill="none" stroke="black" paint-order="fill stroke markers" d=" M 325.798254088737 1580.7249529343992 L 732.287129598112 1580.7249529343992" stroke-miterlimit="10" stroke-width="1.4659797833333332" stroke-dasharray=""/><g transform="translate(735.2190891647787,1580.7249529343992) translate(-735.2190891647787,-1580.7249529343992)"><path fill="black" stroke="none" paint-order="stroke fill markers" d=" M 720.5592913314454 1573.3950540177325 L 735.2190891647787 1580.7249529343992 L 720.5592913314454 1588.054851851066 Z"/></g></g><g><g><rect fill="white" stroke="none" x="481.79976336343753" y="1607.1125890343992" width="97.41781652664062" height="22.86928462"/></g><text fill="black" stroke="none" font-family="sans-serif" font-size="11pt" font-style="normal" font-weight="normal" text-decoration="normal" x="484.43852697343755" y="1622.9451706943992" text-anchor="start" dominant-baseline="alphabetic">return rooms</text></g><g><path fill="none" stroke="black" paint-order="fill stroke markers" d=" M 735.2190891647787 1629.9818736543991 L 328.73021365540365 1629.9818736543991" stroke-miterlimit="10" stroke-width="1.4659797833333332" stroke-dasharray="7.0367029599999995"/><g transform="translate(325.798254088737,1629.9818736543991) translate(-325.798254088737,-1629.9818736543991)"><path fill="black" stroke="none" paint-order="stroke fill markers" d=" M 340.45805192207035 1622.6519747377324 L 325.798254088737 1629.9818736543991 L 340.45805192207035 1637.3117725710658 Z"/></g></g><g><g><rect fill="white" stroke="none" x="466.9500776944922" y="1656.3695097543991" width="127.11718786453125" height="22.86928462"/></g><text fill="black" stroke="none" font-family="sans-serif" font-size="11pt" font-style="normal" font-weight="normal" text-decoration="normal" x="469.58884130449223" y="1672.202091414399" text-anchor="start" dominant-baseline="alphabetic">getReservations()</text></g><g><path fill="none" stroke="black" paint-order="fill stroke markers" d=" M 325.798254088737 1679.238794374399 L 732.287129598112 1679.238794374399" stroke-miterlimit="10" stroke-width="1.4659797833333332" stroke-dasharray=""/><g transform="translate(735.2190891647787,1679.238794374399) translate(-735.2190891647787,-1679.238794374399)"><path fill="black" stroke="none" paint-order="stroke fill markers" d=" M 720.5592913314454 1671.9088954577323 L 735.2190891647787 1679.238794374399 L 720.5592913314454 1686.5686932910658 Z"/></g></g><g><g><rect fill="white" stroke="none" x="459.73463122232425" y="1705.626430474399" width="141.54808080886718" height="22.86928462"/></g><text fill="black" stroke="none" font-family="sans-serif" font-size="11pt" font-style="normal" font-weight="normal" text-decoration="normal" x="462.37339483232427" y="1721.459012134399" text-anchor="start" dominant-baseline="alphabetic">return Reservations</text></g><g><path fill="none" stroke="black" paint-order="fill stroke markers" d=" M 735.2190891647787 1728.495715094399 L 328.73021365540365 1728.495715094399" stroke-miterlimit="10" stroke-width="1.4659797833333332" stroke-dasharray="7.0367029599999995"/><g transform="translate(325.798254088737,1728.495715094399) translate(-325.798254088737,-1728.495715094399)"><path fill="black" stroke="none" paint-order="stroke fill markers" d=" M 340.45805192207035 1721.1658161777323 L 325.798254088737 1728.495715094399 L 340.45805192207035 1735.8256140110657 Z"/></g></g><g><g><rect fill="white" stroke="none" x="523.4719686667579" y="1754.883351194399" width="5.27752722" height="22.86928462"/></g><text fill="black" stroke="none" font-family="sans-serif" font-size="11pt" font-style="normal" font-weight="normal" text-decoration="normal" x="526.1107322767579" y="1770.715932854399" text-anchor="start" dominant-baseline="alphabetic"></text></g><g><path fill="none" stroke="black" paint-order="fill stroke markers" d=" M 325.798254088737 1777.752635814399 L 723.491250898112 1777.752635814399" stroke-miterlimit="10" stroke-width="1.4659797833333332" stroke-dasharray="7.0367029599999995"/><g transform="translate(726.4232104647787,1777.752635814399) translate(-726.4232104647787,-1777.752635814399)"><path fill="black" stroke="none" paint-order="stroke fill markers" d=" M 711.7634126314454 1770.4227368977322 L 726.4232104647787 1777.752635814399 L 711.7634126314454 1785.0825347310656 Z"/></g></g><g><g><rect fill="white" stroke="none" x="514.6760899667579" y="1804.140271914399" width="5.27752722" height="22.86928462"/></g><text fill="black" stroke="none" font-family="sans-serif" font-size="11pt" font-style="normal" font-weight="normal" text-decoration="normal" x="517.3148535767579" y="1819.9728535743989" text-anchor="start" dominant-baseline="alphabetic"></text></g><g><path fill="none" stroke="black" paint-order="fill stroke markers" d=" M 717.6273317647787 1827.0095565343988 L 319.93433495540364 1827.0095565343988" stroke-miterlimit="10" stroke-width="1.4659797833333332" stroke-dasharray="7.0367029599999995"/><g transform="translate(317.002375388737,1827.0095565343988) translate(-317.002375388737,-1827.0095565343988)"><path fill="black" stroke="none" paint-order="stroke fill markers" d=" M 331.66217322207035 1819.6796576177321 L 317.002375388737 1827.0095565343988 L 331.66217322207035 1834.3394554510655 Z"/></g></g><g><g><rect fill="white" stroke="none" x="159.4870334099056" y="1853.3971926343988" width="5.27752722" height="22.86928462"/></g><text fill="black" stroke="none" font-family="sans-serif" font-size="11pt" font-style="normal" font-weight="normal" text-decoration="normal" x="162.1257970199056" y="1869.2297742943988" text-anchor="start" dominant-baseline="alphabetic"></text></g><g><path fill="none" stroke="black" paint-order="fill stroke markers" d=" M 299.410617988737 1876.2664772543988 L 27.772935617740885 1876.2664772543988" stroke-miterlimit="10" stroke-width="1.4659797833333332" stroke-dasharray="7.0367029599999995"/><g transform="translate(24.840976051074218,1876.2664772543988) translate(-24.840976051074218,-1876.2664772543988)"><path fill="black" stroke="none" paint-order="stroke fill markers" d=" M 39.50077388440755 1868.936578337732 L 24.840976051074218 1876.2664772543988 L 39.50077388440755 1883.5963761710655 Z"/></g></g><g><g/><path fill="none" stroke="black" paint-order="fill stroke markers" d=" M 664.8520595647786 624.1555525519999 L 1032.1808189586588 624.1555525519999 L 1032.1808189586588 738.5019756519998 L 664.8520595647786 738.5019756519998 L 664.8520595647786 624.1555525519999 Z" stroke-miterlimit="10" stroke-width="2.5131082" stroke-dasharray=""/><path fill="white" stroke="black" paint-order="fill stroke markers" d=" M 664.8520595647786 624.1555525519999 L 664.8520595647786 645.2656614319999 L 773.7145599604818 645.2656614319999 L 784.2696144004818 634.710606992 L 784.2696144004818 624.1555525519999 L 664.8520595647786 624.1555525519999" stroke-miterlimit="10" stroke-width="2.5131082" stroke-dasharray=""/><text fill="black" stroke="none" font-family="sans-serif" font-size="8.8pt" font-style="normal" font-weight="bold" text-decoration="normal" x="682.4438169647786" y="638.2289584719999" text-anchor="start" dominant-baseline="alphabetic">expandable-</text><text fill="black" stroke="none" font-family="sans-serif" font-size="8.8pt" font-style="normal" font-weight="bold" text-decoration="normal" x="801.8613718004818" y="638.2289584719999" text-anchor="start" dominant-baseline="alphabetic">[see diagram 02 - Add Room ECE(1) (double added room)]</text></g><g><g/><path fill="none" stroke="black" paint-order="fill stroke markers" d=" M 664.8520595647786 764.8896117519998 L 949.6968406871745 764.8896117519998 L 949.6968406871745 879.2360348519999 L 664.8520595647786 879.2360348519999 L 664.8520595647786 764.8896117519998 Z" stroke-miterlimit="10" stroke-width="2.5131082" stroke-dasharray=""/><path fill="white" stroke="black" paint-order="fill stroke markers" d=" M 664.8520595647786 764.8896117519998 L 664.8520595647786 785.9997206319998 L 773.7145599604818 785.9997206319998 L 784.2696144004818 775.4446661919999 L 784.2696144004818 764.8896117519998 L 664.8520595647786 764.8896117519998" stroke-miterlimit="10" stroke-width="2.5131082" stroke-dasharray=""/><text fill="black" stroke="none" font-family="sans-serif" font-size="8.8pt" font-style="normal" font-weight="bold" text-decoration="normal" x="682.4438169647786" y="778.9630176719999" text-anchor="start" dominant-baseline="alphabetic">expandable-</text><text fill="black" stroke="none" font-family="sans-serif" font-size="8.8pt" font-style="normal" font-weight="bold" text-decoration="normal" x="801.8613718004818" y="778.9630176719999" text-anchor="start" dominant-baseline="alphabetic">[see diagrams 02 - Add Room ECE (2) (illegal input)]</text></g></g><g/><g/><g/><g/><g/><g/></g></svg>