<svg version="1.1" xmlns="http://www.w3.org/2000/svg" xmlns:xlink="http://www.w3.org/1999/xlink" width="3213" height="1878"><defs/><g><g/><g/><g/><g/><g/><g/><g/><g/><g/><g/><g/><g/><g/><g/><g/><g/><g/><g/><g/><g/><g/><g/><g/><g/><g/><g/><g/><g/><g/><g/><g/><g/><g/><g/><g/><g><rect fill="white" stroke="none" x="0" y="0" width="3213" height="1878"/></g><g><text fill="black" stroke="none" font-family="sans-serif" font-size="16.5pt" font-style="normal" font-weight="normal" text-decoration="normal" x="1517.306656608021" y="26.3876361" text-anchor="start" dominant-baseline="alphabetic">Add Walk-in BCE</text></g><g/><g><path fill="none" stroke="black" paint-order="fill stroke markers" d=" M 24.891078284960937 139.67855375599999 L 24.891078284960937 1878.025652994399" stroke-miterlimit="10" stroke-width="1.4659797833333332" stroke-dasharray="13.532121076923076,5.863919133333333"/><path fill="none" stroke="black" paint-order="fill stroke markers" d=" M 100.91818103291146 302.22639213199994 L 100.91818103291146 1878.025652994399" stroke-miterlimit="10" stroke-width="1.4659797833333332" stroke-dasharray="13.532121076923076,5.863919133333333"/><path fill="none" stroke="black" paint-order="fill stroke markers" d=" M 200.0738118888034 139.67855375599999 L 200.0738118888034 1878.025652994399" stroke-miterlimit="10" stroke-width="1.4659797833333332" stroke-dasharray="13.532121076923076,5.863919133333333"/><path fill="none" stroke="black" paint-order="fill stroke markers" d=" M 299.22944274469535 139.67855375599999 L 299.22944274469535 1878.025652994399" stroke-miterlimit="10" stroke-width="1.4659797833333332" stroke-dasharray="13.532121076923076,5.863919133333333"/><path fill="none" stroke="black" paint-order="fill stroke markers" d=" M 876.1162202035496 139.67855375599999 L 876.1162202035496 1878.025652994399" stroke-miterlimit="10" stroke-width="1.4659797833333332" stroke-dasharray="13.532121076923076,5.863919133333333"/><path fill="none" stroke="black" paint-order="fill stroke markers" d=" M 1453.0029976624037 139.67855375599999 L 1453.0029976624037 1878.025652994399" stroke-miterlimit="10" stroke-width="1.4659797833333332" stroke-dasharray="13.532121076923076,5.863919133333333"/><path fill="none" stroke="black" paint-order="fill stroke markers" d=" M 1679.852158890659 139.67855375599999 L 1679.852158890659 1878.025652994399" stroke-miterlimit="10" stroke-width="1.4659797833333332" stroke-dasharray="13.532121076923076,5.863919133333333"/><path fill="none" stroke="black" paint-order="fill stroke markers" d=" M 1931.7729296159846 139.67855375599999 L 1931.7729296159846 1878.025652994399" stroke-miterlimit="10" stroke-width="1.4659797833333332" stroke-dasharray="13.532121076923076,5.863919133333333"/><path fill="none" stroke="black" paint-order="fill stroke markers" d=" M 2105.702725744883 139.67855375599999 L 2105.702725744883 1878.025652994399" stroke-miterlimit="10" stroke-width="1.4659797833333332" stroke-dasharray="13.532121076923076,5.863919133333333"/><path fill="none" stroke="black" paint-order="fill stroke markers" d=" M 2630.2219576213315 139.67855375599999 L 2630.2219576213315 1878.025652994399" stroke-miterlimit="10" stroke-width="1.4659797833333332" stroke-dasharray="13.532121076923076,5.863919133333333"/><path fill="none" stroke="black" paint-order="fill stroke markers" d=" M 3145.94531079778 1570.1698984943994 L 3145.94531079778 1878.025652994399" stroke-miterlimit="10" stroke-width="1.4659797833333332" stroke-dasharray="13.532121076923076,5.863919133333333"/></g><g><g><path fill="white" stroke="black" paint-order="fill stroke markers" d=" M 34.91838000296094 65.265419954 A 10.027301717999999 10.027301717999999 0 1 1 34.91837498931049 65.25539265395321 M 24.891078284960937 75.29272167199998 L 24.891078284960937 96.75466569999998 M 12.225012956960938 83.033094928 L 37.557143612960935 83.033094928 M 24.891078284960937 96.75466569999998 L 12.225012956960938 116.80926913599998 M 24.891078284960937 96.75466569999998 L 37.557143612960935 116.80926913599998" stroke-miterlimit="10" stroke-width="2.990598758" stroke-dasharray=""/></g><g><g/><text fill="black" stroke="none" font-family="sans-serif" font-size="11pt" font-style="normal" font-weight="normal" text-decoration="normal" x="8.7958787" y="134.401026536" text-anchor="start" dominant-baseline="alphabetic">Staff</text></g><g><path fill="white" stroke="black" paint-order="fill stroke markers" d=" M 234.9934503278034 89.19021001799997 A 26.123759739 26.123759739 0 1 1 234.99343726592463 89.16408626261492 M 166.64947282880337 61.57115089999997 L 166.64947282880337 116.80926913599997 M 165.15417344980338 89.19021001799997 L 182.7459308498034 89.19021001799997" stroke-miterlimit="10" stroke-width="2.990598758" stroke-dasharray=""/></g><g><g/><text fill="black" stroke="none" font-family="sans-serif" font-size="11pt" font-style="normal" font-weight="normal" text-decoration="normal" x="183.2771123648776" y="134.401026536" text-anchor="start" dominant-baseline="alphabetic">Alert</text></g><g><path fill="white" stroke="black" paint-order="fill stroke markers" d=" M 334.14908118369533 89.19021001799997 A 26.123759739 26.123759739 0 1 1 334.1490681218166 89.16408626261492 M 265.8051036846954 61.57115089999997 L 265.8051036846954 116.80926913599997 M 264.30980430569537 89.19021001799997 L 281.90156170569537 89.19021001799997" stroke-miterlimit="10" stroke-width="2.990598758" stroke-dasharray=""/></g><g><g/><text fill="black" stroke="none" font-family="sans-serif" font-size="11pt" font-style="normal" font-weight="normal" text-decoration="normal" x="275.507183223211" y="134.401026536" text-anchor="start" dominant-baseline="alphabetic">StaffUI</text></g><g><path fill="white" stroke="black" paint-order="fill stroke markers" d=" M 902.2399799425496 89.19021001799997 A 26.123759739 26.123759739 0 1 1 902.2399668806707 89.16408626261492 M 872.5978687235496 63.06645027899997 L 883.1529231635496 54.27057157899998 M 872.5978687235496 63.06645027899997 L 883.1529231635496 71.86232897899997" stroke-miterlimit="10" stroke-width="2.990598758" stroke-dasharray=""/></g><g><g/><text fill="black" stroke="none" font-family="sans-serif" font-size="11pt" font-style="normal" font-weight="normal" text-decoration="normal" x="821.7890793954441" y="134.401026536" text-anchor="start" dominant-baseline="alphabetic">BookingSystem</text></g><path fill="none" stroke="none"/><g><path fill="white" stroke="black" paint-order="fill stroke markers" d=" M 1414.7462860372123 92.18080877599999 L 1491.2597092875951 92.18080877599999 L 1491.2597092875951 139.67855375599999 L 1414.7462860372123 139.67855375599999 L 1414.7462860372123 92.18080877599999 Z" stroke-miterlimit="10" stroke-width="2.814681184" stroke-dasharray=""/></g><g><g/><text fill="black" stroke="none" font-family="sans-serif" font-size="11pt" font-style="normal" font-weight="normal" text-decoration="normal" x="1433.8333428162123" y="122.08679635600001" text-anchor="start" dominant-baseline="alphabetic">Hotel</text></g><path fill="none" stroke="none"/><g><path fill="white" stroke="black" paint-order="fill stroke markers" d=" M 1612.2575795286511 92.18080877599999 L 1747.4467382526668 92.18080877599999 L 1747.4467382526668 139.67855375599999 L 1612.2575795286511 139.67855375599999 L 1612.2575795286511 92.18080877599999 Z" stroke-miterlimit="10" stroke-width="2.814681184" stroke-dasharray=""/></g><g><g/><text fill="black" stroke="none" font-family="sans-serif" font-size="11pt" font-style="normal" font-weight="normal" text-decoration="normal" x="1631.3446363076512" y="122.08679635600001" text-anchor="start" dominant-baseline="alphabetic">RoomMapper</text></g><path fill="none" stroke="none"/><g><path fill="white" stroke="black" paint-order="fill stroke markers" d=" M 1851.1218088111057 92.18080877599999 L 2012.4240504208635 92.18080877599999 L 2012.4240504208635 139.67855375599999 L 1851.1218088111057 139.67855375599999 L 1851.1218088111057 92.18080877599999 Z" stroke-miterlimit="10" stroke-width="2.814681184" stroke-dasharray=""/></g><g><g/><text fill="black" stroke="none" font-family="sans-serif" font-size="11pt" font-style="normal" font-weight="normal" text-decoration="normal" x="1870.2088655901057" y="122.08679635600001" text-anchor="start" dominant-baseline="alphabetic">CustomerMapper</text></g><path fill="none" stroke="none"/><g><path fill="white" stroke="black" paint-order="fill stroke markers" d=" M 2030.0158078208635 92.18080877599999 L 2181.3896436689024 92.18080877599999 L 2181.3896436689024 139.67855375599999 L 2030.0158078208635 139.67855375599999 L 2030.0158078208635 92.18080877599999 Z" stroke-miterlimit="10" stroke-width="2.814681184" stroke-dasharray=""/></g><g><g/><text fill="black" stroke="none" font-family="sans-serif" font-size="11pt" font-style="normal" font-weight="normal" text-decoration="normal" x="2049.1028645998636" y="122.08679635600001" text-anchor="start" dominant-baseline="alphabetic">BookingMapper</text></g><g><path fill="white" stroke="black" paint-order="fill stroke markers" d=" M 2604.5379918173317 105.19870925199999 L 2604.5379918173317 68.25601871199999 L 2655.9059234253314 68.25601871199999 L 2655.9059234253314 105.19870925199999" stroke-miterlimit="10" stroke-width="2.990598758" stroke-dasharray=""/><path fill="white" stroke="black" paint-order="fill stroke markers" d=" M 2655.9059234253314 66.97182042179999 L 2655.904639237743 67.08792408555635 L 2655.900786803395 67.20401613904309 L 2655.8943665075276 67.3200849731516 L 2655.8853789921654 67.43611898109519 L 2655.873825156052 67.55210655956978 L 2655.8597061545615 67.66803610991414 L 2655.8430233995828 67.78389603926989 L 2655.823778559377 67.8996747617406 L 2655.801973558412 68.01536069955054 L 2655.77761057717 68.1309422842023 L 2655.7506920519286 68.24640795763378 L 2655.721220674518 68.3617461733738 L 2655.6891993920517 68.47694539769695 L 2655.654631406631 68.59199411077678 L 2655.617520175025 68.70688080783783 L 2655.577869408327 68.82159400030618 L 2655.53568307158 68.93612221695814 L 2655.490965383383 69.0504540050675 L 2655.443720815467 69.16457793155072 L 2655.3939540922493 69.27848258411025 L 2655.3416701903616 69.39215657237577 L 2655.2868743381496 69.50558852904317 L 2655.2295720151537 69.61876711101131 L 2655.1697689515577 69.73168100051632 L 2655.1074711276187 69.84431890626333 L 2655.042684773067 69.95666956455563 L 2654.9754163664834 70.06872174042103 L 2654.9056726346535 70.18046422873529 L 2654.833460551892 70.29188585534273 L 2654.758787339347 70.40297547817353 L 2654.6816604642772 70.51372198835797 L 2654.602087639307 70.62411431133734 L 2654.5200768216505 70.73414140797132 L 2654.435636212323 70.84379227564195 L 2654.3487742553143 70.95305594935381 L 2654.259499636748 71.06192150283061 L 2654.167821284011 71.1703780496077 L 2654.0737483648627 71.27841474412082 L 2653.9772902865166 71.38602078279051 L 2653.8784566946997 71.4931854051026 L 2653.7772574726896 71.59989789468413 L 2653.6737027403233 71.7061475803751 L 2653.5678028529883 71.81192383729548 L 2653.4595684005853 71.9172160879077 L 2653.3490102064684 72.02201380307447 L 2653.236139326366 72.12630650311159 L 2653.1209670472713 72.23008375883597 L 2653.0035048863165 72.33333519260853 L 2652.883764589619 72.43605047937191 L 2652.7617581311106 72.53821934768304 L 2652.6374977113337 72.63983158074024 L 2652.5109957562277 72.74087701740487 L 2652.382264915882 72.84134555321748 L 2652.251318063274 72.94122714140819 L 2652.118168292979 73.04051179390143 L 2651.9828289198645 73.13918958231469 L 2651.8453134777533 73.23725063895135 L 2651.7056357180763 73.33468515778748 L 2651.5638096084926 73.43148339545236 L 2651.419849331495 73.52763567220293 L 2651.273769282991 73.6231323728916 L 2651.1255840708645 73.71796394792793 L 2650.975308513512 73.8121209142334 L 2650.822957638365 73.90559385618985 L 2650.6685466803838 73.998373426581 L 2650.5120910805354 74.09045034752711 L 2650.3536064842497 74.18181541141281 L 2650.193108739854 74.27245948180787 L 2650.0306138969886 74.36237349438078 L 2649.8661382050027 74.45154845780519 L 2649.699698111329 74.53997545465909 L 2649.5313102598375 74.62764564231648 L 2649.360991489173 74.71455025383165 L 2649.1887588310715 74.80068059881587 L 2649.0146295086543 74.88602806430642 L 2648.8386209347086 74.97058411562787 L 2648.6607507099457 75.05434029724555 L 2648.4810366212396 75.13728823361109 L 2648.299496639849 75.21941962999999 L 2648.1161489196215 75.30072627334106 L 2647.931011795176 75.38120003303769 L 2647.74410378007 75.46083286178099 L 2647.5554435649506 75.53961679635444 L 2647.365050015681 75.61754395843025 L 2647.1729421714576 75.69460655535714 L 2646.979139242905 75.77079688093964 L 2646.783660610155 75.84610731620869 L 2646.5865258209074 75.9205303301835 L 2646.3877545884766 75.99405848062472 L 2646.1873667898208 76.06668441477855 L 2645.9853824635525 76.13840087011211 L 2645.781821807936 76.20920067503964 L 2645.5767051788675 76.27907674963963 L 2645.370053087839 76.34802210636286 L 2645.161886199887 76.4160298507311 L 2644.952225331527 76.48309318202661 L 2644.7410914486713 76.54920539397213 L 2644.528505664532 76.61435987540155 L 2644.3144892375103 76.67855011092104 L 2644.099063569071 76.74176968156053 L 2643.8822502016014 76.80401226541565 L 2643.6640708162568 76.86527163827986 L 2643.444547230795 76.92554167426694 L 2643.2237013973904 76.98481634642351 L 2643.001555400443 77.04308972733178 L 2642.7781314543677 77.10035598970217 L 2642.5534519013722 77.15660940695618 L 2642.327539209225 77.21184435379898 L 2642.100415969007 77.26605530678191 L 2641.8721048928533 77.31923684485484 L 2641.6426288116804 77.37138364990828 L 2641.4120106729056 77.42249050730518 L 2641.1802735381507 77.4725523064024 L 2640.9474405809365 77.52156404106174 L 2640.7135350843637 77.56952081015058 L 2640.4785804387875 77.61641781803196 L 2640.242600139477 77.6622503750442 L 2640.0056177842653 77.70701389796976 L 2639.76765707119 77.75070391049368 L 2639.5287417961245 77.7933160436511 L 2639.2888958503972 77.83484603626422 L 2639.048143218403 77.87528973536838 L 2638.806507975204 77.91464309662739 L 2638.5640142841235 77.9529021847379 L 2638.3206863943283 77.99006317382297 L 2638.0765486384043 78.02612234781469 L 2637.8316254299248 78.0610761008257 L 2637.5859412610052 78.09492093750981 L 2637.339520699859 78.12765347341158 L 2637.0923883883356 78.15927043530469 L 2636.844569039461 78.18976866151928 L 2636.5960874349635 78.21914510225817 L 2636.346968422796 78.24739681990175 L 2636.097236914653 78.27452098930179 L 2635.8469178834766 78.30051489806398 L 2635.596036360961 78.32537594681908 L 2635.3446174350506 78.34910164948295 L 2635.092686247427 78.37168963350508 L 2634.840267991 78.39313764010592 L 2634.5873879073847 78.41344352450264 L 2634.3340712843788 78.43260525612375 L 2634.080343453433 78.45062091881205 L 2633.8262297871197 78.46748871101629 L 2633.571755696593 78.48320694597129 L 2633.31694662905 78.49777405186667 L 2633.061828065186 78.51118857200397 L 2632.8064255166437 78.52344916494236 L 2632.550764523466 78.53455460463276 L 2632.2948706515385 78.54450378054045 L 2632.0387694900355 78.55329569775614 L 2631.7824866488595 78.56092947709544 L 2631.5260477560814 78.56740435518677 L 2631.2694784553764 78.57271968454769 L 2631.012804403461 78.57687493364975 L 2630.7560512675263 78.57986968697145 L 2630.499244722672 78.58170364504 L 2630.242410449339 78.58237662446106 L 2629.9855741307397 78.58188855793732 L 2629.728761450293 78.58023949427498 L 2629.4719980890522 78.57742959837903 L 2629.2153097231394 78.57345915123673 L 2628.958722021178 78.56832854988951 L 2628.7022606417236 78.56203830739318 L 2628.4459512307008 78.5545890527668 L 2628.189819418837 78.54598153092958 L 2627.9338908191003 78.53621660262655 L 2627.678191024137 78.5252952443424 L 2627.422745603714 78.51321854820387 L 2627.1675801021593 78.4999877218705 L 2626.9127200358116 78.48560408841388 L 2626.6581908904645 78.4700690861854 L 2626.404018118821 78.45338426867232 L 2626.1502271379463 78.4355513043425 L 2625.8968433267264 78.41657197647748 L 2625.6438920233322 78.39644818299428 L 2625.3913985226823 78.37518193625543 L 2625.139388073917 78.35277536286792 L 2624.887885877871 78.32923070347039 L 2624.636917084554 78.30455031250918 L 2624.386506790637 78.2787366580028 L 2624.13668003694 78.2517923212952 L 2623.8874618059303 78.2237199967976 L 2623.6388770192234 78.19452249171906 L 2623.390950535091 78.16420272578573 L 2623.143707145975 78.13276373094897 L 2622.8971715760076 78.10020865108203 L 2622.6513684785405 78.0665407416658 L 2622.406322433679 78.03176336946316 L 2622.162057945824 77.99588001218234 L 2621.918599441219 77.95889425812916 L 2621.6759712655135 77.92080980584822 L 2621.434197681321 77.881630463753 L 2621.1933028658 77.84136014974506 L 2620.953310908231 77.80000289082224 L 2620.7142458076087 77.75756282267598 L 2620.476131470245 77.71404418927773 L 2620.238991707375 77.66945134245454 L 2620.0028502327773 77.62378874145395 L 2619.7677306604023 77.57706095249802 L 2619.533656502012 77.52927264832667 L 2619.3006511648264 77.48042860773052 L 2619.0687379491856 77.43053371507293 L 2618.8379400462177 77.37959295980157 L 2618.6082805355204 77.32761143594954 L 2618.3797823828536 77.27459434162587 L 2618.152468437843 77.22054697849586 L 2617.926361431692 77.16547475125074 L 2617.701483974914 77.10938316706736 L 2617.4778585550666 77.0522778350574 L 2617.2555075345063 76.99416446570646 L 2617.034453148149 76.93504887030305 L 2616.8147175012496 76.87493696035746 L 2616.5963225671894 76.81383474701059 L 2616.3792901852803 76.75174834043284 L 2616.163642058579 76.68868394921314 L 2615.949399751719 76.62464787973806 L 2615.736584688752 76.5596465355612 L 2615.5252181510073 76.49368641676277 L 2615.315321274962 76.42677411929971 L 2615.1069150501294 76.358916334346 L 2614.900020316958 76.2901198476236 L 2614.694657764749 76.22039153872383 L 2614.4908479295864 76.14973838041949 L 2614.2886111922835 76.07816743796754 L 2614.087967776346 76.00568586840255 L 2613.8889377459477 75.9323009198211 L 2613.6915410039264 75.8580199306569 L 2613.4957972897914 75.78285032894695 L 2613.3017261777513 75.70679963158878 L 2613.1093470747555 75.62987544358876 L 2612.9186792185537 75.55208545730159 L 2612.729741675773 75.47343745166106 L 2612.54255334001 75.3939392914022 L 2612.357132929942 75.31359892627479 L 2612.1734989874562 75.2324243902484 L 2611.9916698757934 75.15042380070896 L 2611.811663777713 75.06760535764712 L 2611.6334986936754 74.98397734283817 L 2611.45719244004 74.89954811901389 L 2611.282762647286 74.8143261290263 L 2611.1102267582464 74.72831989500338 L 2610.9396020263666 74.64153801749687 L 2610.770905513978 74.5539891746222 L 2610.604154090591 74.46568212119071 L 2610.4393644312086 74.37662568783415 L 2610.27655301466 74.28682878012162 L 2610.1157361219507 74.19630037766909 L 2609.956929834637 74.10504953324134 L 2609.8001500332134 74.0130853718468 L 2609.6454123955314 73.92041708982494 L 2609.4927323952243 73.82705395392676 L 2609.342125300166 73.73300530038806 L 2609.19360617094 73.63828053399578 L 2609.047189859335 73.54288912714766 L 2608.902891006861 73.44684061890487 L 2608.7607240432826 73.3501446140382 L 2608.6207031851773 73.25281078206757 L 2608.482842434515 73.15484885629505 L 2608.3471555772553 73.05626863283157 L 2608.2136561819716 72.95707996961737 L 2608.082357598491 72.85729278543607 L 2607.9532729565635 72.75691705892295 L 2607.826415164545 72.65596282756702 L 2607.7017969081094 72.5544401867073 L 2607.5794306489784 72.45235928852324 L 2607.459328623676 72.34973034101961 L 2607.3415028423046 72.24656360700563 L 2607.225965087344 72.14286940306874 L 2607.1127269124736 72.03865809854291 L 2607.0017996414163 71.93394011447177 L 2606.893194366807 71.82872592256643 L 2606.7869219490826 71.72302604415843 L 2606.6829930153967 71.61685104914753 L 2606.581417958555 71.51021155494473 L 2606.48220693598 71.4031182254106 L 2606.3853698686894 71.29558176978884 L 2606.290916440311 71.1876129416354 L 2606.198856096108 71.07922253774314 L 2606.1091980420383 70.9704213970621 L 2606.021951243833 70.86122039961568 L 2605.9371244260988 70.75163046541265 L 2605.8547260714463 70.64166255335508 L 2605.7747644196434 70.53132766014255 L 2605.6972474667878 70.42063681917243 L 2605.6221829645106 70.30960109943658 L 2605.549578419199 70.19823160441445 L 2605.4794410912477 70.0865394709627 L 2605.411777994331 69.97453586820164 L 2605.3465958947013 69.86223199639821 L 2605.283901310515 69.74963908584596 L 2605.2237005111783 69.63676839574217 L 2605.1659995167206 69.52363121306175 L 2605.1108040971935 69.41023885142872 L 2605.058119772093 69.29660264998472 L 2605.0079518098078 69.18273397225522 L 2604.9603052270922 69.0686442050131 L 2604.9151847885646 68.95434475714 L 2604.872595006231 68.83984705848547 L 2604.832540139035 68.72516255872397 L 2604.795024192429 68.61030272620987 L 2604.7600509179774 68.49527904683073 L 2604.7276238129775 68.38010302285863 L 2604.6977461201136 68.2647861718 L 2604.6704208271294 68.14934002524383 L 2604.6456506665318 68.03377612770858 L 2604.6234381153163 67.9181060354877 L 2604.603785394719 67.80234131549402 L 2604.5866944699965 67.68649354410306 L 2604.572167050226 67.57057430599544 L 2604.5602045881383 67.45459519299835 L 2604.550808279969 67.33856780292646 L 2604.5439790653413 67.22250373842208 L 2604.539717627171 67.10641460579494 L 2604.538024391598 66.99031201386155 L 2604.538899527945 66.87420757278437 L 2604.542342948699 66.75811289291076 L 2604.5483543095206 66.64203958361193 L 2604.5569330092785 66.52599925212212 L 2604.5680781901106 66.41000350237775 L 2604.5817887375074 66.29406393385715 L 2604.598063280426 66.17819214042055 L 2604.616900191425 66.06239970915072 L 2604.63829758683 65.94669821919432 L 2604.6622533269187 65.8310992406039 L 2604.688765016137 65.71561433318102 L 2604.7178300033383 65.60025504532017 L 2604.749445382048 65.48503291285398 L 2604.783607990755 65.36995945789971 L 2604.8203144132262 65.25504618770695 L 2604.8595609788504 65.14030459350695 L 2604.9013437630033 65.02574614936354 L 2604.945658587442 64.91138231102563 L 2604.9925010207203 64.79722451478179 L 2605.041866378634 64.68328417631649 L 2605.093749724689 64.56957268956862 L 2605.1481458705935 64.45610142559212 L 2605.205049376778 64.3428817314188 L 2605.2644545529397 64.22992492892377 L 2605.3263554586106 64.1172423136931 L 2605.3907459037514 64.00484515389444 L 2605.4576194493716 63.89274468915009 L 2605.5269694081717 63.78095212941312 L 2605.598788845214 63.66947865384635 L 2605.673070578615 63.558335409704426 L 2605.749807180263 63.447533511219156 L 2605.8289909765613 63.337084038488044 L 2605.9106140491967 63.226998036366325 L 2605.9946682359305 63.11728651336247 L 2606.081145131413 63.00796044053737 L 2606.1700360880272 62.899030750407185 L 2606.2613322167517 62.790508335850156 L 2606.3550243880495 62.682404049017315 L 2606.451103232782 62.57472870024724 L 2606.5495591431436 62.4674930569851 L 2606.6503822736263 62.36070784270584 L 2606.753562542001 62.25438373584191 L 2606.8590896303267 62.148531368715396 L 2606.9669529859825 62.04316132647479 L 2607.0771418227228 61.938284146036516 L 2607.189645121756 61.83391031503122 L 2607.304451632845 61.73005027075502 L 2607.421549875435 61.6267143991258 L 2607.5409281397997 61.52391303364461 L 2607.6625744882117 61.42165645436233 L 2607.7864767561373 61.31995488685167 L 2607.9126225534537 61.21881850118463 L 2608.0409992656855 61.1182574109155 L 2608.171594055269 61.018281672069506 L 2608.3043938628334 60.91890128213721 L 2608.4393854085097 60.82012617907481 L 2608.576555193255 60.72196624031029 L 2608.715889500205 60.62443128175571 L 2608.8573743960455 60.52753105682567 L 2609.000995732405 60.431275255461905 L 2609.1467391472693 60.33567350316434 L 2609.2945900664186 60.24073536002853 L 2609.4445337048837 60.14647031978968 L 2609.596555068426 60.05288780887326 L 2609.750638955036 59.959997185452366 L 2609.906769956453 59.86780773851195 L 2610.064932459707 59.77632868691987 L 2610.22511064868 59.68556917850505 L 2610.3872885056867 59.59553828914271 L 2610.5514498130756 59.50624502184675 L 2610.7175781548535 59.41769830586949 L 2610.885656918324 59.32990699580875 L 2611.0556692957516 59.24287987072236 L 2611.22759828604 59.15662563325033 L 2611.4014266964336 59.0711529087445 L 2611.5771371442356 58.986470244406114 L 2611.7547120585477 58.90258610843103 L 2611.9341336820276 58.81950888916295 L 2612.115384072661 58.737246894254554 L 2612.2984451055604 58.65580834983679 L 2612.4832984747754 58.57520139969624 L 2612.6699256951233 58.49543410446074 L 2612.8583081040365 58.41651444079334 L 2613.0484268634323 58.33845030059465 L 2613.240262961592 58.26124949021362 L 2613.433797215067 58.18491972966697 L 2613.629010270592 58.10946865186714 L 2613.825882607025 58.03490380185903 L 2614.0243945372963 57.96123263606552 L 2614.2245262103775 57.88846252154177 L 2614.426257613269 57.816600735238616 L 2614.6295685729983 57.74565446327479 L 2614.8344387586385 57.67563080021837 L 2615.0408476833427 57.60653674837731 L 2615.248774706389 57.53837921709922 L 2615.45819903525 57.47116502208042 L 2615.669099727666 57.40490088468441 L 2615.881455693744 57.3395934312697 L 2616.0952456980644 57.27524919252721 L 2616.3104483618054 57.21187460282721 L 2616.527042164879 57.14947599957584 L 2616.745005448086 57.088059622581426 L 2616.9643164152794 57.02763161343051 L 2617.1849531355456 56.96819801487362 L 2617.406893545396 56.9097647702211 L 2617.630115450975 56.85233772274873 L 2617.854596530278 56.79592261511338 L 2618.0803143353837 56.74052508877882 L 2618.3072462947002 56.6861506834515 L 2618.5353697152204 56.63280483652666 L 2618.764661784792 56.58049288254453 L 2618.9950995744002 56.52922005265691 L 2619.2266600404573 56.47899147410408 L 2619.4593200271097 56.42981216970201 L 2619.6930562685525 56.38168705734017 L 2619.9278453913566 56.334620949489704 L 2620.1636639168055 56.28861855272216 L 2620.400488263243 56.24368446723889 L 2620.6382947484317 56.199823186410995 L 2620.877059591921 56.157039096329996 L 2621.116758917426 56.11533647536926 L 2621.357368755214 56.07471949375613 L 2621.5988650445015 56.035192213154914 L 2621.8412236358604 55.99675858626073 L 2622.084420293634 55.959422456404255 L 2622.3284306983596 55.923187557167346 L 2622.573230449199 55.88805751200974 L 2622.818795066382 55.85403583390668 L 2623.065099993651 55.82112592499761 L 2623.312120600719 55.78933107624601 L 2623.5598321857306 55.758654467110254 L 2623.8082099777344 55.72909916522569 L 2624.0572291391572 55.70066812609789 L 2624.3068647682917 55.67336419280706 L 2624.557091901782 55.64719009572377 L 2624.8078855171234 55.62214845223594 L 2625.0592205351636 55.598241766487035 L 2625.31107182261 55.57547242912571 L 2625.563414194544 55.55384271706673 L 2625.816222416938 55.533354793263264 L 2626.069471209182 55.51401070649064 L 2626.3231352466064 55.4958123911414 L 2626.5771891630193 55.47876166703191 L 2626.8316075532407 55.46286023922039 L 2627.0863649756434 55.44810969783636 L 2627.341435954698 55.434511517921656 L 2627.5967949835185 55.42206705928295 L 2627.8524165264157 55.41077756635575 L 2628.1082750214473 55.40064416807991 L 2628.3643448829775 55.39166787778682 L 2628.620600504234 55.38384959309805 L 2628.8770162598676 55.37719009583553 L 2629.133566508516 55.37169005194345 L 2629.3902255953694 55.36735001142162 L 2629.646967854732 55.36417040827046 L 2629.9037676125918 55.36215156044765 L 2630.160599189188 55.36129366983628 L 2630.4174369015755 55.3615968222247 L 2630.6742550661984 55.363060987297914 L 2630.9310280014533 55.36568601864066 L 2631.1877300302617 55.369471653751965 L 2631.4443354826335 55.37441751407148 L 2631.700818698238 55.3805231050173 L 2631.957154028967 55.38778781603543 L 2632.2133158415018 55.39621092066079 L 2632.4692785198736 55.40579157658996 L 2632.725016468028 55.41652882576533 L 2632.980504112384 55.428421594470926 L 2633.23571590439 55.44146869343979 L 2633.4906263230787 55.45566881797289 L 2633.745209877621 55.47102054806961 L 2633.999441109874 55.48752234856974 L 2634.253294596926 55.50517256930697 L 2634.50674495364 55.52396944527395 L 2634.759766835191 55.54391109679874 L 2635.0123349396026 55.56499552973279 L 2635.264424010274 55.587220635650404 L 2635.5160088385087 55.61058419205949 L 2635.7670642660332 55.63508386262389 L 2636.0175651875143 55.660717197396956 L 2636.2674865530685 55.687481633066575 L 2636.5168033707673 55.715374493211485 L 2636.765490709137 55.744392988568904 L 2637.0135236996502 55.7745342173135 L 2637.260877539216 55.8057951653475 L 2637.5075274926553 55.83817270660215 L 2637.753448895179 55.871663603350314 L 2637.9986171548517 55.90626450653023 L 2638.243007755051 55.941971956080394 L 2638.4865962569215 55.97878238128563 L 2638.7293583018154 56.01669210113408 L 2638.9712696137312 56.055697324685354 L 2639.2123060017384 56.095794151449596 L 2639.4524433623997 56.136978571777554 L 2639.6916576821786 56.17924646726151 L 2639.9299250398435 56.22259361114713 L 2640.167221608856 56.267015668756166 L 2640.4035236597574 56.31250819791986 L 2640.6388075625396 56.35906664942321 L 2640.8730497890083 56.40668636745987 L 2641.106226915136 56.455362590097714 L 2641.338315623405 56.505090449755045 L 2641.5692927051373 56.55586497368733 L 2641.799135062817 56.60768108448449 L 2642.0278197124003 56.66053360057863 L 2642.2553237856127 56.71441723676219 L 2642.4816245322363 56.76932660471643 L 2642.7066993223857 56.82525621355034 L 2642.9305256487683 56.88220047034963 L 2643.153081128939 56.940153680736074 L 2643.3743435075344 56.999110049436936 L 2643.594290658502 57.05906368086447 L 2643.812900587309 57.120008579705484 L 2644.0301514331454 57.1819386515209 L 2644.2460214711073 57.244847703355134 L 2644.460489114371 57.308729444355436 L 2644.6735329163507 57.373577486400926 L 2644.885131572844 57.439385344741446 L 2645.095263924161 57.506146438646006 L 2645.3039089572426 57.57385409206084 L 2645.5110458077584 57.642501534277045 L 2645.7166537621965 57.712081900607586 L 2645.920712259933 57.78258823307383 L 2646.123200895288 57.854013481101276 L 2646.324099419566 57.92635050222464 L 2646.5233877430833 57.99959206280211 L 2646.721045937172 58.07373083873863 L 2646.9170542361794 58.14875941621842 L 2647.111393039437 58.224670292446234 L 2647.304042913228 58.30145587639771 L 2647.494984592724 58.379108489578456 L 2647.6841989839177 58.45762036679186 L 2647.8716671655266 58.53698365691561 L 2648.057370390889 58.61719042368684 L 2648.2412900898375 58.698232646495725 L 2648.4234078705554 58.7801022211875 L 2648.603705521416 58.86279096087293 L 2648.7821650128044 58.94629059674695 L 2648.9587684989206 59.03059277891555 L 2649.1334983195634 59.115689077230776 L 2649.3063370018954 59.2015709821337 L 2649.477267262193 59.2882299055054 L 2649.646272007573 59.375657181525774 L 2649.813334337701 59.46384406754005 L 2649.9784375464833 59.55278174493313 L 2650.1415651237367 59.642461320011385 L 2650.30270075684 59.73287382489204 L 2650.461828332363 59.82401021839995 L 2650.6189319376817 59.91586138697171 L 2650.773995862566 60.008418145567006 L 2650.927004600753 60.10167123858711 L 2651.0779428514966 60.195611340800426 L 2651.2267955210964 60.29022905827503 L 2651.3735477244104 60.385514929318006 L 2651.5181847863405 60.48145942542166 L 2651.660692243301 60.57805295221634 L 2651.801055844665 60.67528585042985 L 2651.9392615541888 60.77314839685341 L 2652.0752955514167 60.87163080531391 L 2652.2091442330634 60.97072322765259 L 2652.3407942143713 61.07041575470979 L 2652.470232330452 61.170698417315876 L 2652.597445637602 61.271561187288164 L 2652.7224214145963 61.3729939784337 L 2652.845147163962 61.47498664755789 L 2652.965610613226 61.577528995478836 L 2653.083799716144 61.68061076804718 L 2653.1997026539034 61.78422165717158 L 2653.313307836308 61.88835130184945 L 2653.4246039029335 61.99298928920311 L 2653.5335797242665 62.09812515552101 L 2653.640224402816 62.203748387304145 L 2653.7445272742016 62.30984842231735 L 2653.8464779082246 62.416414650645535 L 2653.9460661099056 62.52343641575468 L 2654.043281920508 62.63090301555746 L 2654.1381156185316 62.73880370348344 L 2654.2305577206853 62.847127689553744 L 2654.3205989828366 62.95586414146005 L 2654.4082304009335 63.065002185647764 L 2654.4934432119076 63.174530908403426 L 2654.576228894549 63.28443935694603 L 2654.656579170358 63.39471654052231 L 2654.734486004374 63.50535143150581 L 2654.8099416059795 63.61633296649962 L 2654.882938429676 63.72765004744274 L 2654.953469175842 63.83929154271982 L 2655.0215267914627 63.951246288274376 L 2655.0871044708324 64.06350308872516 L 2655.150195656238 64.17605071848564 L 2655.2107940386136 64.28887792288667 L 2655.268893558172 64.40197341930181 L 2655.324488405008 64.51532589827566 L 2655.377573019685 64.6289240246548 L 2655.428142093785 64.74275643872124 L 2655.476190570443 64.85681175732844 L 2655.521713644851 64.97107857503958 L 2655.5647067647396 65.08554546526814 L 2655.605165630833 65.20020098142045 L 2655.643086197278 65.31503365804045 L 2655.67846467205 65.43003201195617 L 2655.71129751733 65.54518454342806 L 2655.7415814498613 65.66047973729893 L 2655.7693134412766 65.77590606414547 L 2655.794490718399 65.89145198143119 L 2655.817110763522 66.00710593466063 L 2655.8371713146603 66.12285635853486 L 2655.854670365775 66.23869167810795 L 2655.8696061669757 66.35460030994449 L 2655.881977224695 66.47057066327784 L 2655.8917823018373 66.58659114116935 L 2655.8990204179026 66.70265014166789 L 2655.903690849086 66.81873605897015 L 2655.9057931283483 66.9348372845811 M 2655.9059234253314 103.91451096179999 L 2655.904639237743 104.03061462555635 L 2655.900786803395 104.14670667904309 L 2655.8943665075276 104.2627755131516 L 2655.8853789921654 104.37880952109519 L 2655.873825156052 104.49479709956978 L 2655.8597061545615 104.61072664991414 L 2655.8430233995828 104.72658657926989 L 2655.823778559377 104.8423653017406 L 2655.801973558412 104.95805123955054 L 2655.77761057717 105.0736328242023 L 2655.7506920519286 105.18909849763378 L 2655.721220674518 105.3044367133738 L 2655.6891993920517 105.41963593769695 L 2655.654631406631 105.53468465077678 L 2655.617520175025 105.64957134783783 L 2655.577869408327 105.76428454030618 L 2655.53568307158 105.87881275695814 L 2655.490965383383 105.9931445450675 L 2655.443720815467 106.10726847155073 L 2655.3939540922493 106.22117312411025 L 2655.3416701903616 106.33484711237577 L 2655.2868743381496 106.44827906904317 L 2655.2295720151537 106.56145765101131 L 2655.1697689515577 106.67437154051632 L 2655.1074711276187 106.78700944626333 L 2655.042684773067 106.89936010455563 L 2654.9754163664834 107.01141228042103 L 2654.9056726346535 107.12315476873529 L 2654.833460551892 107.23457639534273 L 2654.758787339347 107.34566601817353 L 2654.6816604642772 107.45641252835797 L 2654.602087639307 107.56680485133734 L 2654.5200768216505 107.67683194797132 L 2654.435636212323 107.78648281564195 L 2654.3487742553143 107.89574648935381 L 2654.259499636748 108.00461204283062 L 2654.167821284011 108.1130685896077 L 2654.0737483648627 108.22110528412082 L 2653.9772902865166 108.32871132279051 L 2653.8784566946997 108.4358759451026 L 2653.7772574726896 108.54258843468413 L 2653.6737027403233 108.6488381203751 L 2653.5678028529883 108.75461437729548 L 2653.4595684005853 108.8599066279077 L 2653.3490102064684 108.96470434307447 L 2653.236139326366 109.0689970431116 L 2653.1209670472713 109.17277429883598 L 2653.0035048863165 109.27602573260853 L 2652.883764589619 109.37874101937192 L 2652.7617581311106 109.48090988768304 L 2652.6374977113337 109.58252212074024 L 2652.5109957562277 109.68356755740487 L 2652.382264915882 109.78403609321748 L 2652.251318063274 109.88391768140819 L 2652.118168292979 109.98320233390143 L 2651.9828289198645 110.08188012231469 L 2651.8453134777533 110.17994117895135 L 2651.7056357180763 110.27737569778748 L 2651.5638096084926 110.37417393545236 L 2651.419849331495 110.47032621220293 L 2651.273769282991 110.5658229128916 L 2651.1255840708645 110.66065448792793 L 2650.975308513512 110.7548114542334 L 2650.822957638365 110.84828439618985 L 2650.6685466803838 110.941063966581 L 2650.5120910805354 111.03314088752711 L 2650.3536064842497 111.12450595141281 L 2650.193108739854 111.21515002180787 L 2650.0306138969886 111.30506403438078 L 2649.8661382050027 111.39423899780519 L 2649.699698111329 111.48266599465909 L 2649.5313102598375 111.57033618231648 L 2649.360991489173 111.65724079383165 L 2649.1887588310715 111.74337113881587 L 2649.0146295086543 111.82871860430642 L 2648.8386209347086 111.91327465562787 L 2648.6607507099457 111.99703083724555 L 2648.4810366212396 112.07997877361109 L 2648.299496639849 112.16211016999999 L 2648.1161489196215 112.24341681334106 L 2647.931011795176 112.32389057303769 L 2647.74410378007 112.40352340178099 L 2647.5554435649506 112.48230733635444 L 2647.365050015681 112.56023449843025 L 2647.1729421714576 112.63729709535714 L 2646.979139242905 112.71348742093964 L 2646.783660610155 112.78879785620869 L 2646.5865258209074 112.8632208701835 L 2646.3877545884766 112.93674902062472 L 2646.1873667898208 113.00937495477855 L 2645.9853824635525 113.08109141011211 L 2645.781821807936 113.15189121503964 L 2645.5767051788675 113.22176728963963 L 2645.370053087839 113.29071264636286 L 2645.161886199887 113.35872039073111 L 2644.952225331527 113.42578372202661 L 2644.7410914486713 113.49189593397213 L 2644.528505664532 113.55705041540155 L 2644.3144892375103 113.62124065092104 L 2644.099063569071 113.68446022156053 L 2643.8822502016014 113.74670280541565 L 2643.6640708162568 113.80796217827987 L 2643.444547230795 113.86823221426694 L 2643.2237013973904 113.92750688642352 L 2643.001555400443 113.98578026733178 L 2642.7781314543677 114.04304652970217 L 2642.5534519013722 114.09929994695618 L 2642.327539209225 114.15453489379898 L 2642.100415969007 114.20874584678191 L 2641.8721048928533 114.26192738485484 L 2641.6426288116804 114.31407418990828 L 2641.4120106729056 114.36518104730519 L 2641.1802735381507 114.4152428464024 L 2640.9474405809365 114.46425458106174 L 2640.7135350843637 114.51221135015058 L 2640.4785804387875 114.55910835803196 L 2640.242600139477 114.6049409150442 L 2640.0056177842653 114.64970443796976 L 2639.76765707119 114.69339445049368 L 2639.5287417961245 114.7360065836511 L 2639.2888958503972 114.77753657626423 L 2639.048143218403 114.81798027536838 L 2638.806507975204 114.85733363662739 L 2638.5640142841235 114.8955927247379 L 2638.3206863943283 114.93275371382298 L 2638.0765486384043 114.96881288781469 L 2637.8316254299248 115.0037666408257 L 2637.5859412610052 115.03761147750981 L 2637.339520699859 115.07034401341159 L 2637.0923883883356 115.10196097530469 L 2636.844569039461 115.13245920151928 L 2636.5960874349635 115.16183564225817 L 2636.346968422796 115.19008735990175 L 2636.097236914653 115.21721152930179 L 2635.8469178834766 115.24320543806398 L 2635.596036360961 115.26806648681908 L 2635.3446174350506 115.29179218948295 L 2635.092686247427 115.31438017350509 L 2634.840267991 115.33582818010592 L 2634.5873879073847 115.35613406450264 L 2634.3340712843788 115.37529579612375 L 2634.080343453433 115.39331145881205 L 2633.8262297871197 115.41017925101629 L 2633.571755696593 115.42589748597129 L 2633.31694662905 115.44046459186667 L 2633.061828065186 115.45387911200397 L 2632.8064255166437 115.46613970494236 L 2632.550764523466 115.47724514463276 L 2632.2948706515385 115.48719432054045 L 2632.0387694900355 115.49598623775614 L 2631.7824866488595 115.50362001709544 L 2631.5260477560814 115.51009489518677 L 2631.2694784553764 115.5154102245477 L 2631.012804403461 115.51956547364975 L 2630.7560512675263 115.52256022697145 L 2630.499244722672 115.52439418504 L 2630.242410449339 115.52506716446106 L 2629.9855741307397 115.52457909793732 L 2629.728761450293 115.52293003427498 L 2629.4719980890522 115.52012013837903 L 2629.2153097231394 115.51614969123673 L 2628.958722021178 115.51101908988952 L 2628.7022606417236 115.50472884739318 L 2628.4459512307008 115.4972795927668 L 2628.189819418837 115.48867207092958 L 2627.9338908191003 115.47890714262655 L 2627.678191024137 115.4679857843424 L 2627.422745603714 115.45590908820387 L 2627.1675801021593 115.4426782618705 L 2626.9127200358116 115.42829462841388 L 2626.6581908904645 115.4127596261854 L 2626.404018118821 115.39607480867232 L 2626.1502271379463 115.3782418443425 L 2625.8968433267264 115.35926251647749 L 2625.6438920233322 115.33913872299428 L 2625.3913985226823 115.31787247625543 L 2625.139388073917 115.29546590286792 L 2624.887885877871 115.27192124347039 L 2624.636917084554 115.24724085250918 L 2624.386506790637 115.2214271980028 L 2624.13668003694 115.1944828612952 L 2623.8874618059303 115.1664105367976 L 2623.6388770192234 115.13721303171906 L 2623.390950535091 115.10689326578573 L 2623.143707145975 115.07545427094897 L 2622.8971715760076 115.04289919108203 L 2622.6513684785405 115.0092312816658 L 2622.406322433679 114.97445390946316 L 2622.162057945824 114.93857055218234 L 2621.918599441219 114.90158479812916 L 2621.6759712655135 114.86350034584822 L 2621.434197681321 114.824321003753 L 2621.1933028658 114.78405068974506 L 2620.953310908231 114.74269343082224 L 2620.7142458076087 114.70025336267598 L 2620.476131470245 114.65673472927773 L 2620.238991707375 114.61214188245454 L 2620.0028502327773 114.56647928145395 L 2619.7677306604023 114.51975149249802 L 2619.533656502012 114.47196318832667 L 2619.3006511648264 114.42311914773052 L 2619.0687379491856 114.37322425507293 L 2618.8379400462177 114.32228349980157 L 2618.6082805355204 114.27030197594954 L 2618.3797823828536 114.21728488162587 L 2618.152468437843 114.16323751849586 L 2617.926361431692 114.10816529125074 L 2617.701483974914 114.05207370706736 L 2617.4778585550666 113.9949683750574 L 2617.2555075345063 113.93685500570646 L 2617.034453148149 113.87773941030305 L 2616.8147175012496 113.81762750035746 L 2616.5963225671894 113.75652528701059 L 2616.3792901852803 113.69443888043284 L 2616.163642058579 113.63137448921314 L 2615.949399751719 113.56733841973806 L 2615.736584688752 113.5023370755612 L 2615.5252181510073 113.43637695676277 L 2615.315321274962 113.36946465929971 L 2615.1069150501294 113.301606874346 L 2614.900020316958 113.2328103876236 L 2614.694657764749 113.16308207872383 L 2614.4908479295864 113.0924289204195 L 2614.2886111922835 113.02085797796754 L 2614.087967776346 112.94837640840255 L 2613.8889377459477 112.8749914598211 L 2613.6915410039264 112.8007104706569 L 2613.4957972897914 112.72554086894695 L 2613.3017261777513 112.64949017158878 L 2613.1093470747555 112.57256598358876 L 2612.9186792185537 112.49477599730159 L 2612.729741675773 112.41612799166106 L 2612.54255334001 112.3366298314022 L 2612.357132929942 112.2562894662748 L 2612.1734989874562 112.1751149302484 L 2611.9916698757934 112.09311434070896 L 2611.811663777713 112.01029589764713 L 2611.6334986936754 111.92666788283817 L 2611.45719244004 111.84223865901389 L 2611.282762647286 111.7570166690263 L 2611.1102267582464 111.67101043500338 L 2610.9396020263666 111.58422855749687 L 2610.770905513978 111.4966797146222 L 2610.604154090591 111.40837266119071 L 2610.4393644312086 111.31931622783415 L 2610.27655301466 111.22951932012163 L 2610.1157361219507 111.13899091766909 L 2609.956929834637 111.04774007324134 L 2609.8001500332134 110.9557759118468 L 2609.6454123955314 110.86310762982494 L 2609.4927323952243 110.76974449392677 L 2609.342125300166 110.67569584038806 L 2609.19360617094 110.58097107399578 L 2609.047189859335 110.48557966714766 L 2608.902891006861 110.38953115890487 L 2608.7607240432826 110.2928351540382 L 2608.6207031851773 110.19550132206757 L 2608.482842434515 110.09753939629505 L 2608.3471555772553 109.99895917283158 L 2608.2136561819716 109.89977050961737 L 2608.082357598491 109.79998332543607 L 2607.9532729565635 109.69960759892295 L 2607.826415164545 109.59865336756702 L 2607.7017969081094 109.4971307267073 L 2607.5794306489784 109.39504982852324 L 2607.459328623676 109.29242088101961 L 2607.3415028423046 109.18925414700563 L 2607.225965087344 109.08555994306874 L 2607.1127269124736 108.98134863854291 L 2607.0017996414163 108.87663065447177 L 2606.893194366807 108.77141646256644 L 2606.7869219490826 108.66571658415843 L 2606.6829930153967 108.55954158914753 L 2606.581417958555 108.45290209494473 L 2606.48220693598 108.3458087654106 L 2606.3853698686894 108.23827230978884 L 2606.290916440311 108.1303034816354 L 2606.198856096108 108.02191307774314 L 2606.1091980420383 107.9131119370621 L 2606.021951243833 107.80391093961568 L 2605.9371244260988 107.69432100541265 L 2605.8547260714463 107.58435309335508 L 2605.7747644196434 107.47401820014255 L 2605.6972474667878 107.36332735917243 L 2605.6221829645106 107.25229163943658 L 2605.549578419199 107.14092214441445 L 2605.4794410912477 107.0292300109627 L 2605.411777994331 106.91722640820164 L 2605.3465958947013 106.80492253639821 L 2605.283901310515 106.69232962584596 L 2605.2237005111783 106.57945893574217 L 2605.1659995167206 106.46632175306175 L 2605.1108040971935 106.35292939142872 L 2605.058119772093 106.23929318998472 L 2605.0079518098078 106.12542451225522 L 2604.9603052270922 106.0113347450131 L 2604.9151847885646 105.89703529714001 L 2604.872595006231 105.78253759848548 L 2604.832540139035 105.66785309872397 L 2604.795024192429 105.55299326620987 L 2604.7600509179774 105.43796958683073 L 2604.7276238129775 105.32279356285864 L 2604.6977461201136 105.2074767118 L 2604.6704208271294 105.09203056524383 L 2604.6456506665318 104.97646666770858 L 2604.6234381153163 104.8607965754877 L 2604.603785394719 104.74503185549402 L 2604.5866944699965 104.62918408410306 L 2604.572167050226 104.51326484599544 L 2604.5602045881383 104.39728573299836 L 2604.550808279969 104.28125834292646 L 2604.5439790653413 104.16519427842208 L 2604.539717627171 104.04910514579494 L 2604.538024391598 103.93300255386156" stroke-miterlimit="10" stroke-width="2.990598758" stroke-dasharray=""/></g><g><g/><text fill="black" stroke="none" font-family="sans-serif" font-size="11pt" font-style="normal" font-weight="normal" text-decoration="normal" x="2597.5197481486753" y="134.401026536" text-anchor="start" dominant-baseline="alphabetic">Database</text></g></g><g><path fill="white" stroke="black" paint-order="fill stroke markers" d=" M 290.43356404469534 197.73135317599997 L 308.02532144469535 197.73135317599997 L 308.02532144469535 1816.454502094399 L 290.43356404469534 1816.454502094399 L 290.43356404469534 197.73135317599997" stroke-miterlimit="10" stroke-width="1.4659797833333332" stroke-dasharray=""/><path fill="white" stroke="black" paint-order="fill stroke markers" d=" M 92.12230233291146 302.22639213199994 L 109.71405973291147 302.22639213199994 L 109.71405973291147 351.4833128519999 L 92.12230233291146 351.4833128519999 L 92.12230233291146 302.22639213199994" stroke-miterlimit="10" stroke-width="1.4659797833333332" stroke-dasharray=""/><path fill="white" stroke="black" paint-order="fill stroke markers" d=" M 92.12230233291146 400.7402335719999 L 109.71405973291147 400.7402335719999 L 109.71405973291147 548.5109957319999 L 92.12230233291146 548.5109957319999 L 92.12230233291146 400.7402335719999" stroke-miterlimit="10" stroke-width="1.4659797833333332" stroke-dasharray=""/><path fill="white" stroke="black" paint-order="fill stroke markers" d=" M 867.3203415035496 632.9514312519998 L 884.9120989035496 632.9514312519998 L 884.9120989035496 1767.197581374399 L 867.3203415035496 1767.197581374399 L 867.3203415035496 632.9514312519998" stroke-miterlimit="10" stroke-width="1.4659797833333332" stroke-dasharray=""/><path fill="white" stroke="black" paint-order="fill stroke markers" d=" M 1444.2071189624037 858.1259259719998 L 1461.7988763624037 858.1259259719998 L 1461.7988763624037 1717.9406606543992 L 1444.2071189624037 1717.9406606543992 L 1444.2071189624037 858.1259259719998" stroke-miterlimit="10" stroke-width="1.4659797833333332" stroke-dasharray=""/><path fill="white" stroke="black" paint-order="fill stroke markers" d=" M 1671.056280190659 907.3828466919998 L 1688.648037590659 907.3828466919998 L 1688.648037590659 1023.4884455319999 L 1671.056280190659 1023.4884455319999 L 1671.056280190659 907.3828466919998" stroke-miterlimit="10" stroke-width="1.4659797833333332" stroke-dasharray=""/><path fill="white" stroke="black" paint-order="fill stroke markers" d=" M 2096.9068470448833 1231.0711828519998 L 2114.498604444883 1231.0711828519998 L 2114.498604444883 1668.6837399343992 L 2096.9068470448833 1668.6837399343992 L 2096.9068470448833 1231.0711828519998" stroke-miterlimit="10" stroke-width="1.4659797833333332" stroke-dasharray=""/><path fill="white" stroke="black" paint-order="fill stroke markers" d=" M 2105.702725744883 1347.1767816919996 L 2123.2944831448826 1347.1767816919996 L 2123.2944831448826 1463.2823805319995 L 2105.702725744883 1463.2823805319995 L 2105.702725744883 1347.1767816919996" stroke-miterlimit="10" stroke-width="1.4659797833333332" stroke-dasharray=""/><path fill="white" stroke="black" paint-order="fill stroke markers" d=" M 3137.1494320977804 1570.1698984943994 L 3154.74118949778 1570.1698984943994 L 3154.74118949778 1619.4268192143993 L 3137.1494320977804 1619.4268192143993 L 3137.1494320977804 1570.1698984943994" stroke-miterlimit="10" stroke-width="1.4659797833333332" stroke-dasharray=""/><g><g><rect fill="white" stroke="none" x="70.43513287221096" y="174.86206855599997" width="174.45437658523437" height="22.86928462"/></g><text fill="black" stroke="none" font-family="sans-serif" font-size="11pt" font-style="normal" font-weight="normal" text-decoration="normal" x="73.07389648221096" y="190.69465021599999" text-anchor="start" dominant-baseline="alphabetic">showAddWalkinDialog()</text></g><g><path fill="none" stroke="black" paint-order="fill stroke markers" d=" M 24.891078284960937 197.73135317599997 L 287.5016044780287 197.73135317599997" stroke-miterlimit="10" stroke-width="1.4659797833333332" stroke-dasharray=""/><g transform="translate(290.43356404469534,197.73135317599997) translate(-290.43356404469534,-197.73135317599997)"><path fill="black" stroke="none" paint-order="stroke fill markers" d=" M 275.773766211362 190.4014542593333 L 290.43356404469534 197.73135317599997 L 275.773766211362 205.06125209266665 Z"/></g></g><g><path fill="white" stroke="black" paint-order="fill stroke markers" d=" M 135.83781947191147 250.24274901499996 A 26.123759739 26.123759739 0 1 1 135.83780641003267 250.21662525961491 M 67.49384197291145 222.62368989699996 L 67.49384197291145 277.86180813299995 M 65.99854259391145 250.24274901499996 L 83.59029999391146 250.24274901499996" stroke-miterlimit="10" stroke-width="2.990598758" stroke-dasharray=""/></g><g><g/><text fill="black" stroke="none" font-family="sans-serif" font-size="11pt" font-style="normal" font-weight="normal" text-decoration="normal" x="78.033423037306" y="295.4535655329999" text-anchor="start" dominant-baseline="alphabetic">Dialog</text></g><g><g><rect fill="white" stroke="none" x="181.26464045040103" y="240.30340608399993" width="60.839462644804684" height="22.86928462"/></g><text fill="black" stroke="none" font-family="sans-serif" font-size="11pt" font-style="normal" font-weight="normal" text-decoration="normal" x="183.90340406040104" y="256.1359877439999" text-anchor="start" dominant-baseline="alphabetic">Dialog()</text></g><g><path fill="none" stroke="black" paint-order="fill stroke markers" d=" M 290.43356404469534 263.17269070399993 L 135.86713906757814 263.17269070399993" stroke-miterlimit="10" stroke-width="1.4659797833333332" stroke-dasharray=""/><g transform="translate(132.93517950091146,263.17269070399993) translate(-132.93517950091146,-263.17269070399993)"><path fill="black" stroke="none" paint-order="stroke fill markers" d=" M 147.5949773342448 255.84279178733325 L 132.93517950091146 263.17269070399993 L 147.5949773342448 270.5025896206666 Z"/></g></g><g><g><rect fill="white" stroke="none" x="197.43504827880338" y="328.61402823199995" width="5.27752722" height="22.86928462"/></g><text fill="black" stroke="none" font-family="sans-serif" font-size="11pt" font-style="normal" font-weight="normal" text-decoration="normal" x="200.0738118888034" y="344.44660989199997" text-anchor="start" dominant-baseline="alphabetic"></text></g><g><path fill="none" stroke="black" paint-order="fill stroke markers" d=" M 109.71405973291147 351.4833128519999 L 287.5016044780287 351.4833128519999" stroke-miterlimit="10" stroke-width="1.4659797833333332" stroke-dasharray="7.0367029599999995"/><g transform="translate(290.43356404469534,351.4833128519999) translate(-290.43356404469534,-351.4833128519999)"><path fill="black" stroke="none" paint-order="stroke fill markers" d=" M 275.773766211362 344.1534139353333 L 290.43356404469534 351.4833128519999 L 275.773766211362 358.8132117686666 Z"/></g></g><g><g><rect fill="white" stroke="none" x="143.63045233153775" y="377.87094895199994" width="112.88671911453125" height="22.86928462"/></g><text fill="black" stroke="none" font-family="sans-serif" font-size="11pt" font-style="normal" font-weight="normal" text-decoration="normal" x="146.26921594153777" y="393.70353061199995" text-anchor="start" dominant-baseline="alphabetic">showAndWait()</text></g><g><path fill="none" stroke="black" paint-order="fill stroke markers" d=" M 290.43356404469534 400.7402335719999 L 112.64601929957813 400.7402335719999" stroke-miterlimit="10" stroke-width="1.4659797833333332" stroke-dasharray=""/><g transform="translate(109.71405973291147,400.7402335719999) translate(-109.71405973291147,-400.7402335719999)"><path fill="black" stroke="none" paint-order="stroke fill markers" d=" M 124.3738575662448 393.41033465533326 L 109.71405973291147 400.7402335719999 L 124.3738575662448 408.07013248866656 Z"/></g></g><g><g><rect fill="white" stroke="none" x="55.8679266989362" y="427.1278696719999" width="5.27752722" height="22.86928462"/></g><text fill="black" stroke="none" font-family="sans-serif" font-size="11pt" font-style="normal" font-weight="normal" text-decoration="normal" x="58.5066903089362" y="442.96045133199993" text-anchor="start" dominant-baseline="alphabetic"></text></g><g><path fill="none" stroke="black" paint-order="fill stroke markers" d=" M 92.12230233291146 449.9971542919999 L 27.823037851627603 449.9971542919999" stroke-miterlimit="10" stroke-width="1.4659797833333332" stroke-dasharray=""/><g transform="translate(24.891078284960937,449.9971542919999) translate(-24.891078284960937,-449.9971542919999)"><path fill="black" stroke="none" paint-order="stroke fill markers" d=" M 39.55087611829427 442.66725537533324 L 24.891078284960937 449.9971542919999 L 39.55087611829427 457.32705320866654 Z"/></g></g><g><g><rect fill="white" stroke="none" x="55.8679266989362" y="476.3847903919999" width="5.27752722" height="22.86928462"/></g><text fill="black" stroke="none" font-family="sans-serif" font-size="11pt" font-style="normal" font-weight="normal" text-decoration="normal" x="58.5066903089362" y="492.2173720519999" text-anchor="start" dominant-baseline="alphabetic"></text></g><g><path fill="none" stroke="black" paint-order="fill stroke markers" d=" M 24.891078284960937 499.2540750119999 L 89.1903427662448 499.2540750119999" stroke-miterlimit="10" stroke-width="1.4659797833333332" stroke-dasharray="7.0367029599999995"/><g transform="translate(92.12230233291146,499.2540750119999) translate(-92.12230233291146,-499.2540750119999)"><path fill="black" stroke="none" paint-order="stroke fill markers" d=" M 77.46250449957813 491.9241760953332 L 92.12230233291146 499.2540750119999 L 77.46250449957813 506.5839739286665 Z"/></g></g><g><g><rect fill="white" stroke="none" x="130.53097265624478" y="525.6417111119998" width="139.08567846511718" height="22.86928462"/></g><text fill="black" stroke="none" font-family="sans-serif" font-size="11pt" font-style="normal" font-weight="normal" text-decoration="normal" x="133.1697362662448" y="541.4742927719998" text-anchor="start" dominant-baseline="alphabetic">return w : WalkInfo</text></g><g><path fill="none" stroke="black" paint-order="fill stroke markers" d=" M 109.71405973291147 548.5109957319999 L 287.5016044780287 548.5109957319999" stroke-miterlimit="10" stroke-width="1.4659797833333332" stroke-dasharray=""/><g transform="translate(290.43356404469534,548.5109957319999) translate(-290.43356404469534,-548.5109957319999)"><path fill="black" stroke="none" paint-order="stroke fill markers" d=" M 275.773766211362 541.1810968153331 L 290.43356404469534 548.5109957319999 L 275.773766211362 555.8408946486666 Z"/></g></g><g><g><rect fill="white" stroke="none" x="328.84223436802864" y="574.8986318319998" width="517.6611942121875" height="22.86928462"/></g><g><rect fill="white" stroke="none" x="328.84223436802864" y="592.4903892319998" width="173.1658328840625" height="22.86928462"/></g><g><rect fill="white" stroke="none" x="328.84223436802864" y="610.0821466319998" width="259.01408422683596" height="22.86928462"/></g><text fill="black" stroke="none" font-family="sans-serif" font-size="11pt" font-style="normal" font-weight="normal" text-decoration="normal" x="331.48099797802865" y="590.7312134919997" text-anchor="start" dominant-baseline="alphabetic">addWalkIn(rno: int, status : int, startDate : LocalDate, endDate:LocalDate, </text><text fill="black" stroke="none" font-family="sans-serif" font-size="11pt" font-style="normal" font-weight="normal" text-decoration="normal" x="331.48099797802865" y="608.3229708919997" text-anchor="start" dominant-baseline="alphabetic">arrivalTime : LocalTime, </text><text fill="black" stroke="none" font-family="sans-serif" font-size="11pt" font-style="normal" font-weight="normal" text-decoration="normal" x="331.48099797802865" y="625.9147282919997" text-anchor="start" dominant-baseline="alphabetic">name: String, phone: String, VIP: int)</text></g><g><path fill="none" stroke="black" paint-order="fill stroke markers" d=" M 308.02532144469535 632.9514312519998 L 864.3883819368829 632.9514312519998" stroke-miterlimit="10" stroke-width="1.4659797833333332" stroke-dasharray=""/><g transform="translate(867.3203415035496,632.9514312519998) translate(-867.3203415035496,-632.9514312519998)"><path fill="black" stroke="none" paint-order="stroke fill markers" d=" M 852.6605436702163 625.6215323353331 L 867.3203415035496 632.9514312519998 L 852.6605436702163 640.2813301686665 Z"/></g></g><g><g><rect fill="white" stroke="none" x="905.7290118268829" y="706.8368123319998" width="476.6299442121875" height="22.86928462"/></g><text fill="black" stroke="none" font-family="sans-serif" font-size="11pt" font-style="normal" font-weight="normal" text-decoration="normal" x="908.3677754368829" y="722.6693939919998" text-anchor="start" dominant-baseline="alphabetic">checkOverbooking()                                                                            </text></g><g><path fill="none" stroke="black" paint-order="fill stroke markers" d=" M 884.9120989035496 729.7060969519998 L 955.2791285035496 729.7060969519998 L 955.2791285035496 747.2978543519998 L 887.8440584702163 747.2978543519998" stroke-miterlimit="10" stroke-width="1.4659797833333332" stroke-dasharray=""/><g transform="translate(884.9120989035496,747.2978543519998) translate(-884.9120989035496,-747.2978543519998)"><path fill="black" stroke="none" paint-order="stroke fill markers" d=" M 899.5718967368829 739.9679554353331 L 884.9120989035496 747.2978543519998 L 899.5718967368829 754.6277532686665 Z"/></g></g><g><g><rect fill="white" stroke="none" x="905.7290118268828" y="800.0731265519997" width="517.6611942121875" height="22.86928462"/></g><g><rect fill="white" stroke="none" x="905.7290118268828" y="817.6648839519997" width="173.1658328840625" height="22.86928462"/></g><g><rect fill="white" stroke="none" x="905.7290118268828" y="835.2566413519997" width="259.01408422683596" height="22.86928462"/></g><text fill="black" stroke="none" font-family="sans-serif" font-size="11pt" font-style="normal" font-weight="normal" text-decoration="normal" x="908.3677754368828" y="815.9057082119997" text-anchor="start" dominant-baseline="alphabetic">addWalkIn(rno: int, status : int, startDate : LocalDate, endDate:LocalDate, </text><text fill="black" stroke="none" font-family="sans-serif" font-size="11pt" font-style="normal" font-weight="normal" text-decoration="normal" x="908.3677754368828" y="833.4974656119997" text-anchor="start" dominant-baseline="alphabetic">arrivalTime : LocalTime, </text><text fill="black" stroke="none" font-family="sans-serif" font-size="11pt" font-style="normal" font-weight="normal" text-decoration="normal" x="908.3677754368828" y="851.0892230119997" text-anchor="start" dominant-baseline="alphabetic">name: String, phone: String, VIP: int)</text></g><g><path fill="none" stroke="black" paint-order="fill stroke markers" d=" M 884.9120989035496 858.1259259719998 L 1441.275159395737 858.1259259719998" stroke-miterlimit="10" stroke-width="1.4659797833333332" stroke-dasharray=""/><g transform="translate(1444.2071189624037,858.1259259719998) translate(-1444.2071189624037,-858.1259259719998)"><path fill="black" stroke="none" paint-order="stroke fill markers" d=" M 1429.5473211290703 850.7960270553331 L 1444.2071189624037 858.1259259719998 L 1429.5473211290703 865.4558248886665 Z"/></g></g><g><g><rect fill="white" stroke="none" x="1499.0643960263944" y="884.5135620719998" width="134.72636450027343" height="22.86928462"/></g><text fill="black" stroke="none" font-family="sans-serif" font-size="11pt" font-style="normal" font-weight="normal" text-decoration="normal" x="1501.7031596363945" y="900.3461437319997" text-anchor="start" dominant-baseline="alphabetic">getRoom(rno : int)</text></g><g><path fill="none" stroke="black" paint-order="fill stroke markers" d=" M 1461.7988763624037 907.3828466919998 L 1668.1243206239924 907.3828466919998" stroke-miterlimit="10" stroke-width="1.4659797833333332" stroke-dasharray=""/><g transform="translate(1671.056280190659,907.3828466919998) translate(-1671.056280190659,-907.3828466919998)"><path fill="black" stroke="none" paint-order="stroke fill markers" d=" M 1656.3964823573256 900.0529477753331 L 1671.056280190659 907.3828466919998 L 1656.3964823573256 914.7127456086665 Z"/></g></g><g><g><rect fill="white" stroke="none" x="1709.4649505139923" y="933.7704827919998" width="216.15086401199218" height="22.86928462"/></g><text fill="black" stroke="none" font-family="sans-serif" font-size="11pt" font-style="normal" font-weight="normal" text-decoration="normal" x="1712.1037141239924" y="949.6030644519998" text-anchor="start" dominant-baseline="alphabetic">getFromCacheByNumber(rno)</text></g><g><path fill="none" stroke="black" paint-order="fill stroke markers" d=" M 1688.648037590659 956.6397674119999 L 1759.015067190659 956.6397674119999 L 1759.015067190659 974.2315248119999 L 1691.5799971573256 974.2315248119999" stroke-miterlimit="10" stroke-width="1.4659797833333332" stroke-dasharray=""/><g transform="translate(1688.648037590659,974.2315248119999) translate(-1688.648037590659,-974.2315248119999)"><path fill="black" stroke="none" paint-order="stroke fill markers" d=" M 1703.3078354239924 966.9016258953332 L 1688.648037590659 974.2315248119999 L 1703.3078354239924 981.5614237286666 Z"/></g></g><g><g><rect fill="white" stroke="none" x="1510.2240411069608" y="1000.6191609119999" width="112.40707433914062" height="22.86928462"/></g><text fill="black" stroke="none" font-family="sans-serif" font-size="11pt" font-style="normal" font-weight="normal" text-decoration="normal" x="1512.862804716961" y="1016.4517425719998" text-anchor="start" dominant-baseline="alphabetic">return r : Room</text></g><g><path fill="none" stroke="black" paint-order="fill stroke markers" d=" M 1671.056280190659 1023.4884455319999 L 1464.7308359290703 1023.4884455319999" stroke-miterlimit="10" stroke-width="1.4659797833333332" stroke-dasharray="7.0367029599999995"/><g transform="translate(1461.7988763624037,1023.4884455319999) translate(-1461.7988763624037,-1023.4884455319999)"><path fill="black" stroke="none" paint-order="stroke fill markers" d=" M 1476.458674195737 1016.1585466153332 L 1461.7988763624037 1023.4884455319999 L 1476.458674195737 1030.8183444486665 Z"/></g></g><g><g><rect fill="white" stroke="none" x="1508.3454120842723" y="1097.373826612" width="376.8809818098438" height="22.86928462"/></g><text fill="black" stroke="none" font-family="sans-serif" font-size="11pt" font-style="normal" font-weight="normal" text-decoration="normal" x="1510.9841756942724" y="1113.2064082719999" text-anchor="start" dominant-baseline="alphabetic">c:=getCustomer(name: String, phone: String, VIP: int)</text></g><g><path fill="none" stroke="black" paint-order="fill stroke markers" d=" M 1461.7988763624037 1120.2431112319998 L 1928.840970049318 1120.2431112319998" stroke-miterlimit="10" stroke-width="1.4659797833333332" stroke-dasharray=""/><g transform="translate(1931.7729296159846,1120.2431112319998) translate(-1931.7729296159846,-1120.2431112319998)"><path fill="black" stroke="none" paint-order="stroke fill markers" d=" M 1917.1131317826512 1112.913212315333 L 1931.7729296159846 1120.2431112319998 L 1917.1131317826512 1127.5730101486665 Z"/></g></g><g><g><rect fill="white" stroke="none" x="1589.613161203995" y="1173.0183834319998" width="379.4794009992969" height="22.86928462"/></g><g><rect fill="white" stroke="none" x="1589.613161203995" y="1190.6101408319998" width="253.2660068342578" height="22.86928462"/></g><g><rect fill="white" stroke="none" x="1589.613161203995" y="1208.2018982319998" width="156.73065222" height="22.86928462"/></g><text fill="black" stroke="none" font-family="sans-serif" font-size="11pt" font-style="normal" font-weight="normal" text-decoration="normal" x="1592.2519248139952" y="1188.8509650919998" text-anchor="start" dominant-baseline="alphabetic">addWalkIn(startDate : LocalDate, endDate:LocalDate, </text><text fill="black" stroke="none" font-family="sans-serif" font-size="11pt" font-style="normal" font-weight="normal" text-decoration="normal" x="1592.2519248139952" y="1206.4427224919998" text-anchor="start" dominant-baseline="alphabetic">status : int, arrivalTime : LocalTime, </text><text fill="black" stroke="none" font-family="sans-serif" font-size="11pt" font-style="normal" font-weight="normal" text-decoration="normal" x="1592.2519248139952" y="1224.0344798919998" text-anchor="start" dominant-baseline="alphabetic">r: Room, c: Customer)</text></g><g><path fill="none" stroke="black" paint-order="fill stroke markers" d=" M 1461.7988763624037 1231.0711828519998 L 2093.9748874782167 1231.0711828519998" stroke-miterlimit="10" stroke-width="1.4659797833333332" stroke-dasharray=""/><g transform="translate(2096.9068470448833,1231.0711828519998) translate(-2096.9068470448833,-1231.0711828519998)"><path fill="black" stroke="none" paint-order="stroke fill markers" d=" M 2082.24704921155 1223.741283935333 L 2096.9068470448833 1231.0711828519998 L 2082.24704921155 1238.4010817686665 Z"/></g></g><g><g><rect fill="white" stroke="none" x="2323.5654581579706" y="1257.4588189519998" width="97.58964575027343" height="22.86928462"/></g><text fill="black" stroke="none" font-family="sans-serif" font-size="11pt" font-style="normal" font-weight="normal" text-decoration="normal" x="2326.2042217679705" y="1273.2914006119997" text-anchor="start" dominant-baseline="alphabetic">oid := getId()</text></g><g><path fill="none" stroke="black" paint-order="fill stroke markers" d=" M 2114.498604444883 1280.3281035719997 L 2627.289998054665 1280.3281035719997" stroke-miterlimit="10" stroke-width="1.4659797833333332" stroke-dasharray=""/><g transform="translate(2630.2219576213315,1280.3281035719997) translate(-2630.2219576213315,-1280.3281035719997)"><path fill="black" stroke="none" paint-order="stroke fill markers" d=" M 2615.562159787998 1272.998204655333 L 2630.2219576213315 1280.3281035719997 L 2615.562159787998 1287.6580024886664 Z"/></g></g><g><g><rect fill="white" stroke="none" x="2144.1113960682164" y="1306.7157396719997" width="197.75424230789062" height="22.86928462"/></g><text fill="black" stroke="none" font-family="sans-serif" font-size="11pt" font-style="normal" font-weight="normal" text-decoration="normal" x="2146.7501596782163" y="1322.5483213319997" text-anchor="start" dominant-baseline="alphabetic">performUpdate(sql : String)</text></g><g><path fill="none" stroke="black" paint-order="fill stroke markers" d=" M 2114.498604444883 1329.5850242919996 L 2193.661512744883 1329.5850242919996 L 2193.661512744883 1347.1767816919996 L 2126.2264427115497 1347.1767816919996" stroke-miterlimit="10" stroke-width="1.4659797833333332" stroke-dasharray=""/><g transform="translate(2123.294483144883,1347.1767816919996) translate(-2123.294483144883,-1347.1767816919996)"><path fill="black" stroke="none" paint-order="stroke fill markers" d=" M 2137.9542809782165 1339.846882775333 L 2123.294483144883 1347.1767816919996 L 2137.9542809782165 1354.5066806086663 Z"/></g></g><g><g><rect fill="white" stroke="none" x="2279.273364548986" y="1373.5644177919996" width="194.96971166824218" height="22.86928462"/></g><text fill="black" stroke="none" font-family="sans-serif" font-size="11pt" font-style="normal" font-weight="normal" text-decoration="normal" x="2281.912128158986" y="1389.3969994519996" text-anchor="start" dominant-baseline="alphabetic">executeUpdate(sql : String)</text></g><g><path fill="none" stroke="black" paint-order="fill stroke markers" d=" M 2123.294483144883 1396.4337024119995 L 2627.289998054665 1396.4337024119995" stroke-miterlimit="10" stroke-width="1.4659797833333332" stroke-dasharray=""/><g transform="translate(2630.2219576213315,1396.4337024119995) translate(-2630.2219576213315,-1396.4337024119995)"><path fill="black" stroke="none" paint-order="stroke fill markers" d=" M 2615.562159787998 1389.1038034953328 L 2630.2219576213315 1396.4337024119995 L 2615.562159787998 1403.7636013286663 Z"/></g></g><g><g><rect fill="white" stroke="none" x="2144.1113960682164" y="1422.8213385119996" width="5.27752722" height="22.86928462"/></g><text fill="black" stroke="none" font-family="sans-serif" font-size="11pt" font-style="normal" font-weight="normal" text-decoration="normal" x="2146.7501596782163" y="1438.6539201719995" text-anchor="start" dominant-baseline="alphabetic"></text></g><g><path fill="none" stroke="black" paint-order="fill stroke markers" d=" M 2123.294483144883 1445.6906231319995 L 2193.661512744883 1445.6906231319995 L 2193.661512744883 1463.2823805319995 L 2126.2264427115497 1463.2823805319995" stroke-miterlimit="10" stroke-width="1.4659797833333332" stroke-dasharray="7.0367029599999995"/><g transform="translate(2123.294483144883,1463.2823805319995) translate(-2123.294483144883,-1463.2823805319995)"><path fill="black" stroke="none" paint-order="stroke fill markers" d=" M 2137.9542809782165 1455.9524816153328 L 2123.294483144883 1463.2823805319995 L 2137.9542809782165 1470.6122794486662 Z"/></g></g><g><path fill="white" stroke="black" paint-order="fill stroke markers" d=" M 3172.06907053678 1515.7937763709995 A 26.123759739 26.123759739 0 1 1 3172.0690574749015 1515.7676526156145 M 3118.3262516797804 1544.3100151163994 L 3170.5737711577804 1544.3100151163994" stroke-miterlimit="10" stroke-width="2.990598758" stroke-dasharray=""/></g><g><g/><text fill="black" stroke="none" font-family="sans-serif" font-size="11pt" font-style="normal" font-weight="normal" text-decoration="normal" x="3087.5058042670184" y="1563.3970718953994" text-anchor="start" dominant-baseline="alphabetic">PersistentWalkIn</text></g><g><g><rect fill="white" stroke="none" x="2144.1113960682164" y="1507.0506729431995" width="913.7816165754688" height="22.86928462"/></g><text fill="black" stroke="none" font-family="sans-serif" font-size="11pt" font-style="normal" font-weight="normal" text-decoration="normal" x="2146.7501596782163" y="1522.8832546031995" text-anchor="start" dominant-baseline="alphabetic">PersistentWalkIn(oid : Integer, startDate : LocalDate, endDate:LocalDate, status : int, arrivalTime : LocalTime, r: Room, c: Customer)</text></g><g><path fill="none" stroke="black" paint-order="fill stroke markers" d=" M 2114.498604444883 1529.9199575631994 L 3084.573844700352 1529.9199575631994" stroke-miterlimit="10" stroke-width="1.4659797833333332" stroke-dasharray=""/><g transform="translate(3087.5058042670184,1529.9199575631994) translate(-3087.5058042670184,-1529.9199575631994)"><path fill="black" stroke="none" paint-order="stroke fill markers" d=" M 3072.846006433685 1522.5900586465327 L 3087.5058042670184 1529.9199575631994 L 3072.846006433685 1537.2498564798661 Z"/></g></g><g><g><rect fill="white" stroke="none" x="2570.347035972367" y="1596.5575345943994" width="110.95396459792968" height="22.86928462"/></g><text fill="black" stroke="none" font-family="sans-serif" font-size="11pt" font-style="normal" font-weight="normal" text-decoration="normal" x="2572.985799582367" y="1612.3901162543993" text-anchor="start" dominant-baseline="alphabetic">return booking</text></g><g><path fill="none" stroke="black" paint-order="fill stroke markers" d=" M 3137.1494320977804 1619.4268192143993 L 2117.4305640115494 1619.4268192143993" stroke-miterlimit="10" stroke-width="1.4659797833333332" stroke-dasharray="7.0367029599999995"/><g transform="translate(2114.498604444883,1619.4268192143993) translate(-2114.498604444883,-1619.4268192143993)"><path fill="black" stroke="none" paint-order="stroke fill markers" d=" M 2129.1584022782163 1612.0969202977326 L 2114.498604444883 1619.4268192143993 L 2129.1584022782163 1626.756718131066 Z"/></g></g><g><g><rect fill="white" stroke="none" x="1723.8758794046787" y="1645.8144553143993" width="110.95396459792968" height="22.86928462"/></g><text fill="black" stroke="none" font-family="sans-serif" font-size="11pt" font-style="normal" font-weight="normal" text-decoration="normal" x="1726.5146430146788" y="1661.6470369743993" text-anchor="start" dominant-baseline="alphabetic">return booking</text></g><g><path fill="none" stroke="black" paint-order="fill stroke markers" d=" M 2096.9068470448833 1668.6837399343992 L 1464.7308359290703 1668.6837399343992" stroke-miterlimit="10" stroke-width="1.4659797833333332" stroke-dasharray="7.0367029599999995"/><g transform="translate(1461.7988763624037,1668.6837399343992) translate(-1461.7988763624037,-1668.6837399343992)"><path fill="black" stroke="none" paint-order="stroke fill markers" d=" M 1476.458674195737 1661.3538410177325 L 1461.7988763624037 1668.6837399343992 L 1476.458674195737 1676.013638851066 Z"/></g></g><g><g><rect fill="white" stroke="none" x="1109.0826266340116" y="1695.0713760343992" width="110.95396459792968" height="22.86928462"/></g><text fill="black" stroke="none" font-family="sans-serif" font-size="11pt" font-style="normal" font-weight="normal" text-decoration="normal" x="1111.7213902440117" y="1710.9039576943992" text-anchor="start" dominant-baseline="alphabetic">return booking</text></g><g><path fill="none" stroke="black" paint-order="fill stroke markers" d=" M 1444.2071189624037 1717.9406606543992 L 887.8440584702163 1717.9406606543992" stroke-miterlimit="10" stroke-width="1.4659797833333332" stroke-dasharray="7.0367029599999995"/><g transform="translate(884.9120989035496,1717.9406606543992) translate(-884.9120989035496,-1717.9406606543992)"><path fill="black" stroke="none" paint-order="stroke fill markers" d=" M 899.5718967368829 1710.6107617377324 L 884.9120989035496 1717.9406606543992 L 899.5718967368829 1725.2705595710659 Z"/></g></g><g><g><rect fill="white" stroke="none" x="585.0340678641224" y="1744.3282967543992" width="5.27752722" height="22.86928462"/></g><text fill="black" stroke="none" font-family="sans-serif" font-size="11pt" font-style="normal" font-weight="normal" text-decoration="normal" x="587.6728314741224" y="1760.1608784143991" text-anchor="start" dominant-baseline="alphabetic"></text></g><g><path fill="none" stroke="black" paint-order="fill stroke markers" d=" M 867.3203415035496 1767.197581374399 L 310.957281011362 1767.197581374399" stroke-miterlimit="10" stroke-width="1.4659797833333332" stroke-dasharray="7.0367029599999995"/><g transform="translate(308.02532144469535,1767.197581374399) translate(-308.02532144469535,-1767.197581374399)"><path fill="black" stroke="none" paint-order="stroke fill markers" d=" M 322.6851192780287 1759.8676824577324 L 308.02532144469535 1767.197581374399 L 322.6851192780287 1774.5274802910658 Z"/></g></g><g><g><rect fill="white" stroke="none" x="155.02355755482813" y="1793.585217474399" width="5.27752722" height="22.86928462"/></g><text fill="black" stroke="none" font-family="sans-serif" font-size="11pt" font-style="normal" font-weight="normal" text-decoration="normal" x="157.66232116482814" y="1809.417799134399" text-anchor="start" dominant-baseline="alphabetic"></text></g><g><path fill="none" stroke="black" paint-order="fill stroke markers" d=" M 290.43356404469534 1816.454502094399 L 27.823037851627603 1816.454502094399" stroke-miterlimit="10" stroke-width="1.4659797833333332" stroke-dasharray="7.0367029599999995"/><g transform="translate(24.891078284960937,1816.454502094399) translate(-24.891078284960937,-1816.454502094399)"><path fill="black" stroke="none" paint-order="stroke fill markers" d=" M 39.55087611829427 1809.1246031777323 L 24.891078284960937 1816.454502094399 L 39.55087611829427 1823.7844010110657 Z"/></g></g><g><g/><path fill="none" stroke="black" paint-order="fill stroke markers" d=" M 814.5450693035496 659.3390673519998 L 1388.5160711290705 659.3390673519998 L 1388.5160711290705 773.6854904519998 L 814.5450693035496 773.6854904519998 L 814.5450693035496 659.3390673519998 Z" stroke-miterlimit="10" stroke-width="2.5131082" stroke-dasharray=""/><path fill="white" stroke="black" paint-order="fill stroke markers" d=" M 814.5450693035496 659.3390673519998 L 814.5450693035496 680.4491762319998 L 923.4075696992527 680.4491762319998 L 933.9626241392527 669.8941217919999 L 933.9626241392527 659.3390673519998 L 814.5450693035496 659.3390673519998" stroke-miterlimit="10" stroke-width="2.5131082" stroke-dasharray=""/><text fill="black" stroke="none" font-family="sans-serif" font-size="8.8pt" font-style="normal" font-weight="bold" text-decoration="normal" x="832.1368267035496" y="673.4124732719998" text-anchor="start" dominant-baseline="alphabetic">expandable-</text><text fill="black" stroke="none" font-family="sans-serif" font-size="8.8pt" font-style="normal" font-weight="bold" text-decoration="normal" x="951.5543815392527" y="673.4124732719998" text-anchor="start" dominant-baseline="alphabetic">[see diagrams 02 - Add Reservation ACE (2) (overfilled room cancel/ok)]</text></g><g><g/><path fill="none" stroke="black" paint-order="fill stroke markers" d=" M 1391.4318467624037 1049.8760816319998 L 1993.3440805159846 1049.8760816319998 L 1993.3440805159846 1146.6307473319998 L 1391.4318467624037 1146.6307473319998 L 1391.4318467624037 1049.8760816319998 Z" stroke-miterlimit="10" stroke-width="2.5131082" stroke-dasharray=""/><path fill="white" stroke="black" paint-order="fill stroke markers" d=" M 1391.4318467624037 1049.8760816319998 L 1391.4318467624037 1070.986190512 L 1500.2943471581068 1070.986190512 L 1510.8494015981069 1060.4311360719998 L 1510.8494015981069 1049.8760816319998 L 1391.4318467624037 1049.8760816319998" stroke-miterlimit="10" stroke-width="2.5131082" stroke-dasharray=""/><text fill="black" stroke="none" font-family="sans-serif" font-size="8.8pt" font-style="normal" font-weight="bold" text-decoration="normal" x="1409.0236041624037" y="1063.949487552" text-anchor="start" dominant-baseline="alphabetic">expandable-</text><text fill="black" stroke="none" font-family="sans-serif" font-size="8.8pt" font-style="normal" font-weight="bold" text-decoration="normal" x="1528.4411589981069" y="1063.949487552" text-anchor="start" dominant-baseline="alphabetic">[see 02 - getCustomer expanded for details of the getCustomer functionality]</text></g></g><g/><g/><g/><g/><g/><g/><g/><g/><g/></g></svg>