<svg version="1.1" xmlns="http://www.w3.org/2000/svg" xmlns:xlink="http://www.w3.org/1999/xlink" width="1663" height="1057"><defs/><g><g/><g/><g/><g/><g/><g/><g/><g/><g/><g/><g/><g/><g/><g/><g/><g><rect fill="white" stroke="none" x="0" y="0" width="1663" height="1057"/></g><g><text fill="black" stroke="none" font-family="sans-serif" font-size="16.5pt" font-style="normal" font-weight="normal" text-decoration="normal" x="698.1744880588353" y="26.3876361" text-anchor="start" dominant-baseline="alphabetic">Administrator Log-in BCE</text></g><g/><g><path fill="none" stroke="black" paint-order="fill stroke markers" d=" M 24.891078284960937 139.67855375599999 L 24.891078284960937 1057.968290036" stroke-miterlimit="10" stroke-width="1.4659797833333332" stroke-dasharray="13.532121076923076,5.863919133333333"/><path fill="none" stroke="black" paint-order="fill stroke markers" d=" M 214.9924605957422 139.67855375599999 L 214.9924605957422 1057.968290036" stroke-miterlimit="10" stroke-width="1.4659797833333332" stroke-dasharray="13.532121076923076,5.863919133333333"/><path fill="none" stroke="black" paint-order="fill stroke markers" d=" M 453.77614967569014 139.67855375599999 L 453.77614967569014 1057.968290036" stroke-miterlimit="10" stroke-width="1.4659797833333332" stroke-dasharray="13.532121076923076,5.863919133333333"/><path fill="none" stroke="black" paint-order="fill stroke markers" d=" M 824.1489806013412 139.67855375599999 L 824.1489806013412 1057.968290036" stroke-miterlimit="10" stroke-width="1.4659797833333332" stroke-dasharray="13.532121076923076,5.863919133333333"/><path fill="none" stroke="black" paint-order="fill stroke markers" d=" M 994.7510670383855 139.67855375599999 L 994.7510670383855 1057.968290036" stroke-miterlimit="10" stroke-width="1.4659797833333332" stroke-dasharray="13.532121076923076,5.863919133333333"/><path fill="none" stroke="black" paint-order="fill stroke markers" d=" M 1113.9137679361354 139.67855375599999 L 1113.9137679361354 1057.968290036" stroke-miterlimit="10" stroke-width="1.4659797833333332" stroke-dasharray="13.532121076923076,5.863919133333333"/><path fill="none" stroke="black" paint-order="fill stroke markers" d=" M 1276.9278428410182 139.67855375599999 L 1276.9278428410182 1057.968290036" stroke-miterlimit="10" stroke-width="1.4659797833333332" stroke-dasharray="13.532121076923076,5.863919133333333"/><path fill="none" stroke="black" paint-order="fill stroke markers" d=" M 1471.5450801767565 139.67855375599999 L 1471.5450801767565 1057.968290036" stroke-miterlimit="10" stroke-width="1.4659797833333332" stroke-dasharray="13.532121076923076,5.863919133333333"/><path fill="none" stroke="black" paint-order="fill stroke markers" d=" M 1619.2377466801706 139.67855375599999 L 1619.2377466801706 1057.968290036" stroke-miterlimit="10" stroke-width="1.4659797833333332" stroke-dasharray="13.532121076923076,5.863919133333333"/></g><g><g><path fill="white" stroke="black" paint-order="fill stroke markers" d=" M 34.91838000296094 65.265419954 A 10.027301717999999 10.027301717999999 0 1 1 34.91837498931049 65.25539265395321 M 24.891078284960937 75.29272167199998 L 24.891078284960937 96.75466569999998 M 12.225012956960938 83.033094928 L 37.557143612960935 83.033094928 M 24.891078284960937 96.75466569999998 L 12.225012956960938 116.80926913599998 M 24.891078284960937 96.75466569999998 L 37.557143612960935 116.80926913599998" stroke-miterlimit="10" stroke-width="2.990598758" stroke-dasharray=""/></g><g><g/><text fill="black" stroke="none" font-family="sans-serif" font-size="11pt" font-style="normal" font-weight="normal" text-decoration="normal" x="8.7958787" y="134.401026536" text-anchor="start" dominant-baseline="alphabetic">Staff</text></g><g><path fill="white" stroke="black" paint-order="fill stroke markers" d=" M 249.9120990347422 89.19021001799997 A 26.123759739 26.123759739 0 1 1 249.9120859728634 89.16408626261492 M 181.56812153574216 61.57115089999997 L 181.56812153574216 116.80926913599997 M 180.07282215674218 89.19021001799997 L 197.66457955674218 89.19021001799997" stroke-miterlimit="10" stroke-width="2.990598758" stroke-dasharray=""/></g><g><g/><text fill="black" stroke="none" font-family="sans-serif" font-size="11pt" font-style="normal" font-weight="normal" text-decoration="normal" x="198.1957610718164" y="134.401026536" text-anchor="start" dominant-baseline="alphabetic">Alert</text></g><g><path fill="white" stroke="black" paint-order="fill stroke markers" d=" M 488.6957881146901 89.19021001799997 A 26.123759739 26.123759739 0 1 1 488.69577505281137 89.16408626261492 M 420.35181061569017 61.57115089999997 L 420.35181061569017 116.80926913599997 M 418.85651123669015 89.19021001799997 L 436.44826863669016 89.19021001799997" stroke-miterlimit="10" stroke-width="2.990598758" stroke-dasharray=""/></g><g><g/><text fill="black" stroke="none" font-family="sans-serif" font-size="11pt" font-style="normal" font-weight="normal" text-decoration="normal" x="430.05389015420576" y="134.401026536" text-anchor="start" dominant-baseline="alphabetic">StaffUI</text></g><g><path fill="white" stroke="black" paint-order="fill stroke markers" d=" M 850.2727403403412 89.19021001799997 A 26.123759739 26.123759739 0 1 1 850.2727272784624 89.16408626261492 M 820.6306291213413 63.06645027899997 L 831.1856835613413 54.27057157899998 M 820.6306291213413 63.06645027899997 L 831.1856835613413 71.86232897899997" stroke-miterlimit="10" stroke-width="2.990598758" stroke-dasharray=""/></g><g><g/><text fill="black" stroke="none" font-family="sans-serif" font-size="11pt" font-style="normal" font-weight="normal" text-decoration="normal" x="769.8218397932358" y="134.401026536" text-anchor="start" dominant-baseline="alphabetic">BookingSystem</text></g><path fill="none" stroke="none"/><g><path fill="white" stroke="black" paint-order="fill stroke markers" d=" M 956.4943554131941 92.18080877599999 L 1033.0077786635768 92.18080877599999 L 1033.0077786635768 139.67855375599999 L 956.4943554131941 139.67855375599999 L 956.4943554131941 92.18080877599999 Z" stroke-miterlimit="10" stroke-width="2.814681184" stroke-dasharray=""/></g><g><g/><text fill="black" stroke="none" font-family="sans-serif" font-size="11pt" font-style="normal" font-weight="normal" text-decoration="normal" x="975.5814121921941" y="122.08679635600001" text-anchor="start" dominant-baseline="alphabetic">Hotel</text></g><g><path fill="white" stroke="black" paint-order="fill stroke markers" d=" M 1140.0375276751354 86.79773101159998 A 26.123759739 26.123759739 0 1 1 1140.0375146132567 86.77160725621492 M 1086.2947088181354 115.31396975699997 L 1138.5422282961354 115.31396975699997" stroke-miterlimit="10" stroke-width="2.990598758" stroke-dasharray=""/></g><g><g/><text fill="black" stroke="none" font-family="sans-serif" font-size="11pt" font-style="normal" font-weight="normal" text-decoration="normal" x="1050.5995360635768" y="134.401026536" text-anchor="start" dominant-baseline="alphabetic">Administrator (all)</text></g><g><path fill="white" stroke="black" paint-order="fill stroke markers" d=" M 1303.0516025800182 86.79773101159998 A 26.123759739 26.123759739 0 1 1 1303.0515895181395 86.77160725621492 M 1249.3087837230182 115.31396975699997 L 1301.5563032010182 115.31396975699997" stroke-miterlimit="10" stroke-width="2.990598758" stroke-dasharray=""/></g><g><g/><text fill="black" stroke="none" font-family="sans-serif" font-size="11pt" font-style="normal" font-weight="normal" text-decoration="normal" x="1194.819757208694" y="134.401026536" text-anchor="start" dominant-baseline="alphabetic">Administrator(selected)</text></g><path fill="none" stroke="none"/><g><path fill="white" stroke="black" paint-order="fill stroke markers" d=" M 1376.6276858733424 92.18080877599999 L 1566.4624744801706 92.18080877599999 L 1566.4624744801706 139.67855375599999 L 1376.6276858733424 139.67855375599999 L 1376.6276858733424 92.18080877599999 Z" stroke-miterlimit="10" stroke-width="2.814681184" stroke-dasharray=""/></g><g><g/><text fill="black" stroke="none" font-family="sans-serif" font-size="11pt" font-style="normal" font-weight="normal" text-decoration="normal" x="1395.7147426523425" y="122.08679635600001" text-anchor="start" dominant-baseline="alphabetic">AdministratorMapper</text></g><g><path fill="white" stroke="black" paint-order="fill stroke markers" d=" M 1593.5537808761705 105.19870925199999 L 1593.5537808761705 68.25601871199999 L 1644.9217124841707 68.25601871199999 L 1644.9217124841707 105.19870925199999" stroke-miterlimit="10" stroke-width="2.990598758" stroke-dasharray=""/><path fill="white" stroke="black" paint-order="fill stroke markers" d=" M 1644.9217124841707 66.97182042179999 L 1644.920428296582 67.08792408555635 L 1644.916575862234 67.20401613904309 L 1644.9101555663667 67.3200849731516 L 1644.9011680510043 67.43611898109519 L 1644.889614214891 67.55210655956978 L 1644.8754952134007 67.66803610991414 L 1644.8588124584219 67.78389603926989 L 1644.839567618216 67.8996747617406 L 1644.817762617251 68.01536069955054 L 1644.793399636009 68.1309422842023 L 1644.7664811107677 68.24640795763378 L 1644.7370097333571 68.3617461733738 L 1644.7049884508908 68.47694539769695 L 1644.6704204654698 68.59199411077678 L 1644.633309233864 68.70688080783783 L 1644.593658467166 68.82159400030618 L 1644.5514721304191 68.93612221695814 L 1644.5067544422218 69.0504540050675 L 1644.4595098743057 69.16457793155072 L 1644.4097431510884 69.27848258411025 L 1644.3574592492005 69.39215657237577 L 1644.3026633969887 69.50558852904317 L 1644.2453610739926 69.61876711101131 L 1644.1855580103968 69.73168100051632 L 1644.1232601864576 69.84431890626333 L 1644.0584738319058 69.95666956455563 L 1643.9912054253225 70.06872174042103 L 1643.9214616934928 70.18046422873529 L 1643.8492496107312 70.29188585534273 L 1643.7745763981861 70.40297547817353 L 1643.6974495231166 70.51372198835797 L 1643.6178766981457 70.62411431133734 L 1643.5358658804898 70.73414140797132 L 1643.4514252711622 70.84379227564195 L 1643.3645633141534 70.95305594935381 L 1643.2752886955868 71.06192150283061 L 1643.18361034285 71.1703780496077 L 1643.0895374237018 71.27841474412082 L 1642.9930793453557 71.38602078279051 L 1642.894245753539 71.4931854051026 L 1642.7930465315287 71.59989789468413 L 1642.6894917991626 71.7061475803751 L 1642.5835919118276 71.81192383729548 L 1642.4753574594242 71.9172160879077 L 1642.3647992653077 72.02201380307447 L 1642.251928385205 72.12630650311159 L 1642.1367561061102 72.23008375883597 L 1642.0192939451554 72.33333519260853 L 1641.8995536484586 72.43605047937191 L 1641.7775471899497 72.53821934768304 L 1641.6532867701728 72.63983158074024 L 1641.5267848150668 72.74087701740487 L 1641.398053974721 72.84134555321748 L 1641.267107122113 72.94122714140819 L 1641.1339573518185 73.04051179390143 L 1640.9986179787034 73.13918958231469 L 1640.8611025365926 73.23725063895135 L 1640.7214247769155 73.33468515778748 L 1640.5795986673318 73.43148339545236 L 1640.4356383903341 73.52763567220293 L 1640.2895583418303 73.6231323728916 L 1640.1413731297034 73.71796394792793 L 1639.9910975723512 73.8121209142334 L 1639.8387466972042 73.90559385618985 L 1639.684335739223 73.998373426581 L 1639.5278801393747 74.09045034752711 L 1639.3693955430886 74.18181541141281 L 1639.2088977986928 74.27245948180787 L 1639.0464029558275 74.36237349438078 L 1638.881927263842 74.45154845780519 L 1638.7154871701682 74.53997545465909 L 1638.5470993186766 74.62764564231648 L 1638.3767805480124 74.71455025383165 L 1638.2045478899106 74.80068059881587 L 1638.0304185674934 74.88602806430642 L 1637.8544099935477 74.97058411562787 L 1637.6765397687848 75.05434029724555 L 1637.4968256800787 75.13728823361109 L 1637.3152856986883 75.21941962999999 L 1637.1319379784607 75.30072627334106 L 1636.9468008540148 75.38120003303769 L 1636.7598928389093 75.46083286178099 L 1636.5712326237895 75.53961679635444 L 1636.38083907452 75.61754395843025 L 1636.1887312302968 75.69460655535714 L 1635.9949283017445 75.77079688093964 L 1635.7994496689942 75.84610731620869 L 1635.6023148797465 75.9205303301835 L 1635.4035436473157 75.99405848062472 L 1635.20315584866 76.06668441477855 L 1635.0011715223916 76.13840087011211 L 1634.7976108667751 76.20920067503964 L 1634.5924942377067 76.27907674963963 L 1634.385842146678 76.34802210636286 L 1634.1776752587261 76.4160298507311 L 1633.968014390366 76.48309318202661 L 1633.7568805075105 76.54920539397213 L 1633.5442947233712 76.61435987540155 L 1633.3302782963497 76.67855011092104 L 1633.1148526279103 76.74176968156053 L 1632.8980392604403 76.80401226541565 L 1632.6798598750959 76.86527163827986 L 1632.4603362896337 76.92554167426694 L 1632.2394904562293 76.98481634642351 L 1632.0173444592822 77.04308972733178 L 1631.7939205132068 77.10035598970217 L 1631.5692409602113 77.15660940695618 L 1631.3433282680642 77.21184435379898 L 1631.1162050278463 77.26605530678191 L 1630.8878939516921 77.31923684485484 L 1630.6584178705193 77.37138364990828 L 1630.4277997317447 77.42249050730518 L 1630.19606259699 77.4725523064024 L 1629.9632296397754 77.52156404106174 L 1629.7293241432028 77.56952081015058 L 1629.4943694976268 77.61641781803196 L 1629.2583891983163 77.6622503750442 L 1629.0214068431044 77.70701389796976 L 1628.7834461300292 77.75070391049368 L 1628.5445308549638 77.7933160436511 L 1628.3046849092364 77.83484603626422 L 1628.063932277242 77.87528973536838 L 1627.822297034043 77.91464309662739 L 1627.5798033429624 77.9529021847379 L 1627.3364754531672 77.99006317382297 L 1627.0923376972437 78.02612234781469 L 1626.8474144887637 78.0610761008257 L 1626.6017303198444 78.09492093750981 L 1626.3553097586978 78.12765347341158 L 1626.1081774471745 78.15927043530469 L 1625.8603580983 78.18976866151928 L 1625.6118764938024 78.21914510225817 L 1625.3627574816353 78.24739681990175 L 1625.113025973492 78.27452098930179 L 1624.8627069423155 78.30051489806398 L 1624.6118254198004 78.32537594681908 L 1624.3604064938895 78.34910164948295 L 1624.1084753062664 78.37168963350508 L 1623.8560570498394 78.39313764010592 L 1623.603176966224 78.41344352450264 L 1623.3498603432179 78.43260525612375 L 1623.096132512272 78.45062091881205 L 1622.8420188459586 78.46748871101629 L 1622.587544755432 78.48320694597129 L 1622.3327356878895 78.49777405186667 L 1622.077617124025 78.51118857200397 L 1621.822214575483 78.52344916494236 L 1621.566553582305 78.53455460463276 L 1621.3106597103776 78.54450378054045 L 1621.0545585488746 78.55329569775614 L 1620.7982757076986 78.56092947709544 L 1620.5418368149203 78.56740435518677 L 1620.2852675142153 78.57271968454769 L 1620.0285934623 78.57687493364975 L 1619.7718403263652 78.57986968697145 L 1619.5150337815112 78.58170364504 L 1619.258199508178 78.58237662446106 L 1619.0013631895788 78.58188855793732 L 1618.744550509132 78.58023949427498 L 1618.4877871478911 78.57742959837903 L 1618.2310987819785 78.57345915123673 L 1617.974511080017 78.56832854988951 L 1617.7180497005627 78.56203830739318 L 1617.46174028954 78.5545890527668 L 1617.2056084776764 78.54598153092958 L 1616.9496798779396 78.53621660262655 L 1616.6939800829762 78.5252952443424 L 1616.4385346625527 78.51321854820387 L 1616.1833691609984 78.4999877218705 L 1615.9285090946507 78.48560408841388 L 1615.6739799493039 78.4700690861854 L 1615.4198071776602 78.45338426867232 L 1615.1660161967852 78.4355513043425 L 1614.9126323855655 78.41657197647748 L 1614.6596810821711 78.39644818299428 L 1614.4071875815214 78.37518193625543 L 1614.155177132756 78.35277536286792 L 1613.90367493671 78.32923070347039 L 1613.6527061433935 78.30455031250918 L 1613.402295849476 78.2787366580028 L 1613.1524690957792 78.2517923212952 L 1612.9032508647695 78.2237199967976 L 1612.6546660780627 78.19452249171906 L 1612.4067395939303 78.16420272578573 L 1612.1594962048139 78.13276373094897 L 1611.9129606348465 78.10020865108203 L 1611.6671575373798 78.0665407416658 L 1611.4221114925185 78.03176336946316 L 1611.177847004663 77.99588001218234 L 1610.9343885000585 77.95889425812916 L 1610.6917603243523 77.92080980584822 L 1610.4499867401603 77.881630463753 L 1610.2090919246393 77.84136014974506 L 1609.9690999670697 77.80000289082224 L 1609.7300348664478 77.75756282267598 L 1609.4919205290842 77.71404418927773 L 1609.254780766214 77.66945134245454 L 1609.0186392916164 77.62378874145395 L 1608.7835197192417 77.57706095249802 L 1608.549445560851 77.52927264832667 L 1608.3164402236655 77.48042860773052 L 1608.0845270080247 77.43053371507293 L 1607.8537291050566 77.37959295980157 L 1607.6240695943595 77.32761143594954 L 1607.395571441693 77.27459434162587 L 1607.1682574966817 77.22054697849586 L 1606.942150490531 77.16547475125074 L 1606.717273033753 77.10938316706736 L 1606.4936476139058 77.0522778350574 L 1606.2712965933454 76.99416446570646 L 1606.050242206988 76.93504887030305 L 1605.8305065600887 76.87493696035746 L 1605.6121116260285 76.81383474701059 L 1605.3950792441194 76.75174834043284 L 1605.179431117418 76.68868394921314 L 1604.965188810558 76.62464787973806 L 1604.752373747591 76.5596465355612 L 1604.5410072098462 76.49368641676277 L 1604.3311103338012 76.42677411929971 L 1604.1227041089685 76.358916334346 L 1603.9158093757974 76.2901198476236 L 1603.7104468235882 76.22039153872383 L 1603.5066369884255 76.14973838041949 L 1603.3044002511228 76.07816743796754 L 1603.103756835185 76.00568586840255 L 1602.904726804787 75.9323009198211 L 1602.7073300627655 75.8580199306569 L 1602.5115863486308 75.78285032894695 L 1602.3175152365905 75.70679963158878 L 1602.1251361335947 75.62987544358876 L 1601.9344682773929 75.55208545730159 L 1601.745530734612 75.47343745166106 L 1601.558342398849 75.3939392914022 L 1601.3729219887812 75.31359892627479 L 1601.1892880462951 75.2324243902484 L 1601.0074589346323 75.15042380070896 L 1600.827452836552 75.06760535764712 L 1600.6492877525145 74.98397734283817 L 1600.4729814988793 74.89954811901389 L 1600.298551706125 74.8143261290263 L 1600.1260158170853 74.72831989500338 L 1599.9553910852057 74.64153801749687 L 1599.786694572817 74.5539891746222 L 1599.61994314943 74.46568212119071 L 1599.4551534900477 74.37662568783415 L 1599.2923420734992 74.28682878012162 L 1599.13152518079 74.19630037766909 L 1598.9727188934758 74.10504953324134 L 1598.8159390920528 74.0130853718468 L 1598.6612014543705 73.92041708982494 L 1598.5085214540636 73.82705395392676 L 1598.357914359005 73.73300530038806 L 1598.209395229779 73.63828053399578 L 1598.0629789181742 73.54288912714766 L 1597.9186800657 73.44684061890487 L 1597.7765131021215 73.3501446140382 L 1597.6364922440166 73.25281078206757 L 1597.4986314933542 73.15484885629505 L 1597.3629446360947 73.05626863283157 L 1597.2294452408105 72.95707996961737 L 1597.0981466573303 72.85729278543607 L 1596.9690620154026 72.75691705892295 L 1596.8422042233842 72.65596282756702 L 1596.7175859669487 72.5544401867073 L 1596.5952197078177 72.45235928852324 L 1596.4751176825152 72.34973034101961 L 1596.3572919011438 72.24656360700563 L 1596.2417541461832 72.14286940306874 L 1596.1285159713127 72.03865809854291 L 1596.0175887002556 71.93394011447177 L 1595.9089834256463 71.82872592256643 L 1595.802711007922 71.72302604415843 L 1595.6987820742356 71.61685104914753 L 1595.5972070173943 71.51021155494473 L 1595.4979959948187 71.4031182254106 L 1595.4011589275287 71.29558176978884 L 1595.3067054991502 71.1876129416354 L 1595.2146451549472 71.07922253774314 L 1595.1249871008777 70.9704213970621 L 1595.037740302672 70.86122039961568 L 1594.9529134849377 70.75163046541265 L 1594.8705151302856 70.64166255335508 L 1594.7905534784825 70.53132766014255 L 1594.7130365256269 70.42063681917243 L 1594.6379720233494 70.30960109943658 L 1594.5653674780383 70.19823160441445 L 1594.4952301500869 70.0865394709627 L 1594.4275670531697 69.97453586820164 L 1594.3623849535402 69.86223199639821 L 1594.299690369354 69.74963908584596 L 1594.2394895700172 69.63676839574217 L 1594.1817885755597 69.52363121306175 L 1594.1265931560329 69.41023885142872 L 1594.0739088309324 69.29660264998472 L 1594.0237408686469 69.18273397225522 L 1593.9760942859311 69.0686442050131 L 1593.9309738474035 68.95434475714 L 1593.88838406507 68.83984705848547 L 1593.848329197874 68.72516255872397 L 1593.8108132512682 68.61030272620987 L 1593.7758399768163 68.49527904683073 L 1593.7434128718166 68.38010302285863 L 1593.7135351789525 68.2647861718 L 1593.6862098859685 68.14934002524383 L 1593.6614397253709 68.03377612770858 L 1593.6392271741554 67.9181060354877 L 1593.6195744535582 67.80234131549402 L 1593.6024835288356 67.68649354410306 L 1593.5879561090653 67.57057430599544 L 1593.5759936469774 67.45459519299835 L 1593.566597338808 67.33856780292646 L 1593.5597681241802 67.22250373842208 L 1593.55550668601 67.10641460579494 L 1593.5538134504372 66.99031201386155 L 1593.554688586784 66.87420757278437 L 1593.558132007538 66.75811289291076 L 1593.5641433683595 66.64203958361193 L 1593.5727220681176 66.52599925212212 L 1593.5838672489494 66.41000350237775 L 1593.5975777963463 66.29406393385715 L 1593.6138523392647 66.17819214042055 L 1593.632689250264 66.06239970915072 L 1593.6540866456692 65.94669821919432 L 1593.6780423857579 65.8310992406039 L 1593.7045540749762 65.71561433318102 L 1593.7336190621777 65.60025504532017 L 1593.7652344408875 65.48503291285398 L 1593.799397049594 65.36995945789971 L 1593.8361034720654 65.25504618770695 L 1593.8753500376895 65.14030459350695 L 1593.9171328218424 65.02574614936354 L 1593.961447646281 64.91138231102563 L 1594.0082900795594 64.79722451478179 L 1594.0576554374732 64.68328417631649 L 1594.109538783528 64.56957268956862 L 1594.1639349294323 64.45610142559212 L 1594.2208384356172 64.3428817314188 L 1594.280243611779 64.22992492892377 L 1594.3421445174497 64.1172423136931 L 1594.4065349625905 64.00484515389444 L 1594.4734085082105 63.89274468915009 L 1594.5427584670108 63.78095212941312 L 1594.6145779040532 63.66947865384635 L 1594.6888596374542 63.558335409704426 L 1594.765596239102 63.447533511219156 L 1594.8447800354004 63.337084038488044 L 1594.926403108036 63.226998036366325 L 1595.0104572947694 63.11728651336247 L 1595.0969341902521 63.00796044053737 L 1595.1858251468664 62.899030750407185 L 1595.2771212755908 62.790508335850156 L 1595.3708134468886 62.682404049017315 L 1595.4668922916208 62.57472870024724 L 1595.5653482019827 62.4674930569851 L 1595.6661713324656 62.36070784270584 L 1595.7693516008403 62.25438373584191 L 1595.874878689166 62.148531368715396 L 1595.9827420448219 62.04316132647479 L 1596.092930881562 61.938284146036516 L 1596.205434180595 61.83391031503122 L 1596.3202406916841 61.73005027075502 L 1596.4373389342743 61.6267143991258 L 1596.5567171986388 61.52391303364461 L 1596.6783635470508 61.42165645436233 L 1596.8022658149766 61.31995488685167 L 1596.9284116122926 61.21881850118463 L 1597.0567883245246 61.1182574109155 L 1597.187383114108 61.018281672069506 L 1597.3201829216728 60.91890128213721 L 1597.4551744673488 60.82012617907481 L 1597.5923442520939 60.72196624031029 L 1597.7316785590442 60.62443128175571 L 1597.873163454885 60.52753105682567 L 1598.0167847912444 60.431275255461905 L 1598.1625282061086 60.33567350316434 L 1598.3103791252577 60.24073536002853 L 1598.4603227637228 60.14647031978968 L 1598.612344127265 60.05288780887326 L 1598.766428013875 59.959997185452366 L 1598.922559015292 59.86780773851195 L 1599.0807215185464 59.77632868691987 L 1599.2408997075195 59.68556917850505 L 1599.4030775645256 59.59553828914271 L 1599.5672388719147 59.50624502184675 L 1599.7333672136924 59.41769830586949 L 1599.9014459771633 59.32990699580875 L 1600.071458354591 59.24287987072236 L 1600.2433873448792 59.15662563325033 L 1600.4172157552725 59.0711529087445 L 1600.5929262030745 58.986470244406114 L 1600.770501117387 58.90258610843103 L 1600.9499227408664 58.81950888916295 L 1601.1311731315 58.737246894254554 L 1601.3142341643997 58.65580834983679 L 1601.4990875336148 58.57520139969624 L 1601.6857147539622 58.49543410446074 L 1601.8740971628756 58.41651444079334 L 1602.0642159222712 58.33845030059465 L 1602.2560520204313 58.26124949021362 L 1602.449586273906 58.18491972966697 L 1602.6447993294314 58.10946865186714 L 1602.8416716658642 58.03490380185903 L 1603.0401835961352 57.96123263606552 L 1603.2403152692168 57.88846252154177 L 1603.4420466721083 57.816600735238616 L 1603.6453576318374 57.74565446327479 L 1603.8502278174778 57.67563080021837 L 1604.0566367421816 57.60653674837731 L 1604.2645637652283 57.53837921709922 L 1604.473988094089 57.47116502208042 L 1604.684888786505 57.40490088468441 L 1604.8972447525832 57.3395934312697 L 1605.1110347569038 57.27524919252721 L 1605.3262374206442 57.21187460282721 L 1605.542831223718 57.14947599957584 L 1605.7607945069249 57.088059622581426 L 1605.9801054741185 57.02763161343051 L 1606.2007421943847 56.96819801487362 L 1606.4226826042352 56.9097647702211 L 1606.645904509814 56.85233772274873 L 1606.870385589117 56.79592261511338 L 1607.0961033942228 56.74052508877882 L 1607.3230353535394 56.6861506834515 L 1607.5511587740596 56.63280483652666 L 1607.7804508436316 56.58049288254453 L 1608.0108886332396 56.52922005265691 L 1608.2424490992964 56.47899147410408 L 1608.4751090859488 56.42981216970201 L 1608.7088453273918 56.38168705734017 L 1608.943634450196 56.334620949489704 L 1609.1794529756446 56.28861855272216 L 1609.4162773220821 56.24368446723889 L 1609.6540838072706 56.199823186410995 L 1609.8928486507602 56.157039096329996 L 1610.1325479762652 56.11533647536926 L 1610.373157814053 56.07471949375613 L 1610.6146541033404 56.035192213154914 L 1610.8570126946995 55.99675858626073 L 1611.1002093524733 55.959422456404255 L 1611.3442197571985 55.923187557167346 L 1611.589019508038 55.88805751200974 L 1611.834584125221 55.85403583390668 L 1612.0808890524902 55.82112592499761 L 1612.3279096595581 55.78933107624601 L 1612.57562124457 55.758654467110254 L 1612.8239990365735 55.72909916522569 L 1613.0730181979966 55.70066812609789 L 1613.3226538271308 55.67336419280706 L 1613.572880960621 55.64719009572377 L 1613.8236745759623 55.62214845223594 L 1614.0750095940025 55.598241766487035 L 1614.326860881449 55.57547242912571 L 1614.579203253383 55.55384271706673 L 1614.8320114757776 55.533354793263264 L 1615.085260268021 55.51401070649064 L 1615.3389243054455 55.4958123911414 L 1615.5929782218584 55.47876166703191 L 1615.8473966120798 55.46286023922039 L 1616.1021540344827 55.44810969783636 L 1616.3572250135371 55.434511517921656 L 1616.6125840423579 55.42206705928295 L 1616.8682055852548 55.41077756635575 L 1617.1240640802864 55.40064416807991 L 1617.380133941817 55.39166787778682 L 1617.636389563073 55.38384959309805 L 1617.8928053187065 55.37719009583553 L 1618.1493555673553 55.37169005194345 L 1618.4060146542083 55.36735001142162 L 1618.662756913571 55.36417040827046 L 1618.919556671431 55.36215156044765 L 1619.1763882480268 55.36129366983628 L 1619.4332259604148 55.3615968222247 L 1619.6900441250375 55.363060987297914 L 1619.9468170602927 55.36568601864066 L 1620.2035190891008 55.369471653751965 L 1620.4601245414726 55.37441751407148 L 1620.716607757077 55.3805231050173 L 1620.9729430878065 55.38778781603543 L 1621.2291049003409 55.39621092066079 L 1621.4850675787127 55.40579157658996 L 1621.7408055268675 55.41652882576533 L 1621.9962931712234 55.428421594470926 L 1622.251504963229 55.44146869343979 L 1622.5064153819178 55.45566881797289 L 1622.7609989364603 55.47102054806961 L 1623.0152301687133 55.48752234856974 L 1623.2690836557651 55.50517256930697 L 1623.522534012479 55.52396944527395 L 1623.7755558940303 55.54391109679874 L 1624.0281239984415 55.56499552973279 L 1624.280213069113 55.587220635650404 L 1624.5317978973476 55.61058419205949 L 1624.7828533248723 55.63508386262389 L 1625.0333542463534 55.660717197396956 L 1625.2832756119074 55.687481633066575 L 1625.5325924296062 55.715374493211485 L 1625.7812797679758 55.744392988568904 L 1626.0293127584896 55.7745342173135 L 1626.276666598055 55.8057951653475 L 1626.5233165514944 55.83817270660215 L 1626.769237954018 55.871663603350314 L 1627.0144062136906 55.90626450653023 L 1627.2587968138903 55.941971956080394 L 1627.5023853157606 55.97878238128563 L 1627.7451473606548 56.01669210113408 L 1627.9870586725701 56.055697324685354 L 1628.2280950605775 56.095794151449596 L 1628.4682324212388 56.136978571777554 L 1628.707446741018 56.17924646726151 L 1628.9457140986824 56.22259361114713 L 1629.183010667695 56.267015668756166 L 1629.4193127185965 56.31250819791986 L 1629.6545966213787 56.35906664942321 L 1629.8888388478476 56.40668636745987 L 1630.1220159739755 56.455362590097714 L 1630.3541046822443 56.505090449755045 L 1630.5850817639764 56.55586497368733 L 1630.8149241216563 56.60768108448449 L 1631.0436087712396 56.66053360057863 L 1631.2711128444519 56.71441723676219 L 1631.4974135910757 56.76932660471643 L 1631.7224883812246 56.82525621355034 L 1631.9463147076074 56.88220047034963 L 1632.1688701877779 56.940153680736074 L 1632.3901325663735 56.999110049436936 L 1632.6100797173408 57.05906368086447 L 1632.8286896461482 57.120008579705484 L 1633.0459404919843 57.1819386515209 L 1633.2618105299464 57.244847703355134 L 1633.47627817321 57.308729444355436 L 1633.6893219751896 57.373577486400926 L 1633.9009206316828 57.439385344741446 L 1634.111052983 57.506146438646006 L 1634.3196980160815 57.57385409206084 L 1634.5268348665975 57.642501534277045 L 1634.7324428210359 57.712081900607586 L 1634.9365013187721 57.78258823307383 L 1635.1389899541268 57.854013481101276 L 1635.3398884784053 57.92635050222464 L 1635.5391768019222 57.99959206280211 L 1635.7368349960116 58.07373083873863 L 1635.9328432950183 58.14875941621842 L 1636.1271820982763 58.224670292446234 L 1636.3198319720668 58.30145587639771 L 1636.5107736515633 58.379108489578456 L 1636.6999880427568 58.45762036679186 L 1636.8874562243657 58.53698365691561 L 1637.0731594497283 58.61719042368684 L 1637.2570791486767 58.698232646495725 L 1637.4391969293945 58.7801022211875 L 1637.619494580255 58.86279096087293 L 1637.7979540716435 58.94629059674695 L 1637.97455755776 59.03059277891555 L 1638.1492873784023 59.115689077230776 L 1638.3221260607345 59.2015709821337 L 1638.4930563210323 59.2882299055054 L 1638.662061066412 59.375657181525774 L 1638.82912339654 59.46384406754005 L 1638.9942266053224 59.55278174493313 L 1639.157354182576 59.642461320011385 L 1639.3184898156787 59.73287382489204 L 1639.477617391202 59.82401021839995 L 1639.6347209965209 59.91586138697171 L 1639.7897849214053 60.008418145567006 L 1639.9427936595923 60.10167123858711 L 1640.0937319103355 60.195611340800426 L 1640.2425845799355 60.29022905827503 L 1640.3893367832497 60.385514929318006 L 1640.5339738451798 60.48145942542166 L 1640.67648130214 60.57805295221634 L 1640.8168449035038 60.67528585042985 L 1640.9550506130277 60.77314839685341 L 1641.091084610256 60.87163080531391 L 1641.2249332919025 60.97072322765259 L 1641.3565832732102 61.07041575470979 L 1641.486021389291 61.170698417315876 L 1641.613234696441 61.271561187288164 L 1641.7382104734356 61.3729939784337 L 1641.8609362228012 61.47498664755789 L 1641.9813996720652 61.577528995478836 L 1642.0995887749827 61.68061076804718 L 1642.2154917127425 61.78422165717158 L 1642.3290968951471 61.88835130184945 L 1642.4403929617727 61.99298928920311 L 1642.5493687831058 62.09812515552101 L 1642.6560134616548 62.203748387304145 L 1642.760316333041 62.30984842231735 L 1642.8622669670638 62.416414650645535 L 1642.961855168745 62.52343641575468 L 1643.0590709793473 62.63090301555746 L 1643.1539046773707 62.73880370348344 L 1643.2463467795246 62.847127689553744 L 1643.3363880416755 62.95586414146005 L 1643.4240194597724 63.065002185647764 L 1643.5092322707467 63.174530908403426 L 1643.592017953388 63.28443935694603 L 1643.672368229197 63.39471654052231 L 1643.7502750632134 63.50535143150581 L 1643.8257306648184 63.61633296649962 L 1643.8987274885149 63.72765004744274 L 1643.9692582346813 63.83929154271982 L 1644.0373158503019 63.951246288274376 L 1644.1028935296715 64.06350308872516 L 1644.1659847150772 64.17605071848564 L 1644.226583097453 64.28887792288667 L 1644.2846826170107 64.40197341930181 L 1644.3402774638473 64.51532589827566 L 1644.3933620785242 64.6289240246548 L 1644.4439311526241 64.74275643872124 L 1644.491979629282 64.85681175732844 L 1644.53750270369 64.97107857503958 L 1644.580495823579 65.08554546526814 L 1644.620954689672 65.20020098142045 L 1644.6588752561172 65.31503365804045 L 1644.6942537308887 65.43003201195617 L 1644.7270865761689 65.54518454342806 L 1644.7573705087007 65.66047973729893 L 1644.7851025001157 65.77590606414547 L 1644.810279777238 65.89145198143119 L 1644.8328998223612 66.00710593466063 L 1644.8529603734994 66.12285635853486 L 1644.8704594246142 66.23869167810795 L 1644.8853952258148 66.35460030994449 L 1644.897766283534 66.47057066327784 L 1644.9075713606762 66.58659114116935 L 1644.9148094767418 66.70265014166789 L 1644.9194799079253 66.81873605897015 L 1644.9215821871871 66.9348372845811 M 1644.9217124841707 103.91451096179999 L 1644.920428296582 104.03061462555635 L 1644.916575862234 104.14670667904309 L 1644.9101555663667 104.2627755131516 L 1644.9011680510043 104.37880952109519 L 1644.889614214891 104.49479709956978 L 1644.8754952134007 104.61072664991414 L 1644.8588124584219 104.72658657926989 L 1644.839567618216 104.8423653017406 L 1644.817762617251 104.95805123955054 L 1644.793399636009 105.0736328242023 L 1644.7664811107677 105.18909849763378 L 1644.7370097333571 105.3044367133738 L 1644.7049884508908 105.41963593769695 L 1644.6704204654698 105.53468465077678 L 1644.633309233864 105.64957134783783 L 1644.593658467166 105.76428454030618 L 1644.5514721304191 105.87881275695814 L 1644.5067544422218 105.9931445450675 L 1644.4595098743057 106.10726847155073 L 1644.4097431510884 106.22117312411025 L 1644.3574592492005 106.33484711237577 L 1644.3026633969887 106.44827906904317 L 1644.2453610739926 106.56145765101131 L 1644.1855580103968 106.67437154051632 L 1644.1232601864576 106.78700944626333 L 1644.0584738319058 106.89936010455563 L 1643.9912054253225 107.01141228042103 L 1643.9214616934928 107.12315476873529 L 1643.8492496107312 107.23457639534273 L 1643.7745763981861 107.34566601817353 L 1643.6974495231166 107.45641252835797 L 1643.6178766981457 107.56680485133734 L 1643.5358658804898 107.67683194797132 L 1643.4514252711622 107.78648281564195 L 1643.3645633141534 107.89574648935381 L 1643.2752886955868 108.00461204283062 L 1643.18361034285 108.1130685896077 L 1643.0895374237018 108.22110528412082 L 1642.9930793453557 108.32871132279051 L 1642.894245753539 108.4358759451026 L 1642.7930465315287 108.54258843468413 L 1642.6894917991626 108.6488381203751 L 1642.5835919118276 108.75461437729548 L 1642.4753574594242 108.8599066279077 L 1642.3647992653077 108.96470434307447 L 1642.251928385205 109.0689970431116 L 1642.1367561061102 109.17277429883598 L 1642.0192939451554 109.27602573260853 L 1641.8995536484586 109.37874101937192 L 1641.7775471899497 109.48090988768304 L 1641.6532867701728 109.58252212074024 L 1641.5267848150668 109.68356755740487 L 1641.398053974721 109.78403609321748 L 1641.267107122113 109.88391768140819 L 1641.1339573518185 109.98320233390143 L 1640.9986179787034 110.08188012231469 L 1640.8611025365926 110.17994117895135 L 1640.7214247769155 110.27737569778748 L 1640.5795986673318 110.37417393545236 L 1640.4356383903341 110.47032621220293 L 1640.2895583418303 110.5658229128916 L 1640.1413731297034 110.66065448792793 L 1639.9910975723512 110.7548114542334 L 1639.8387466972042 110.84828439618985 L 1639.684335739223 110.941063966581 L 1639.5278801393747 111.03314088752711 L 1639.3693955430886 111.12450595141281 L 1639.2088977986928 111.21515002180787 L 1639.0464029558275 111.30506403438078 L 1638.881927263842 111.39423899780519 L 1638.7154871701682 111.48266599465909 L 1638.5470993186766 111.57033618231648 L 1638.3767805480124 111.65724079383165 L 1638.2045478899106 111.74337113881587 L 1638.0304185674934 111.82871860430642 L 1637.8544099935477 111.91327465562787 L 1637.6765397687848 111.99703083724555 L 1637.4968256800787 112.07997877361109 L 1637.3152856986883 112.16211016999999 L 1637.1319379784607 112.24341681334106 L 1636.9468008540148 112.32389057303769 L 1636.7598928389093 112.40352340178099 L 1636.5712326237895 112.48230733635444 L 1636.38083907452 112.56023449843025 L 1636.1887312302968 112.63729709535714 L 1635.9949283017445 112.71348742093964 L 1635.7994496689942 112.78879785620869 L 1635.6023148797465 112.8632208701835 L 1635.4035436473157 112.93674902062472 L 1635.20315584866 113.00937495477855 L 1635.0011715223916 113.08109141011211 L 1634.7976108667751 113.15189121503964 L 1634.5924942377067 113.22176728963963 L 1634.385842146678 113.29071264636286 L 1634.1776752587261 113.35872039073111 L 1633.968014390366 113.42578372202661 L 1633.7568805075105 113.49189593397213 L 1633.5442947233712 113.55705041540155 L 1633.3302782963497 113.62124065092104 L 1633.1148526279103 113.68446022156053 L 1632.8980392604403 113.74670280541565 L 1632.6798598750959 113.80796217827987 L 1632.4603362896337 113.86823221426694 L 1632.2394904562293 113.92750688642352 L 1632.0173444592822 113.98578026733178 L 1631.7939205132068 114.04304652970217 L 1631.5692409602113 114.09929994695618 L 1631.3433282680642 114.15453489379898 L 1631.1162050278463 114.20874584678191 L 1630.8878939516921 114.26192738485484 L 1630.6584178705193 114.31407418990828 L 1630.4277997317447 114.36518104730519 L 1630.19606259699 114.4152428464024 L 1629.9632296397754 114.46425458106174 L 1629.7293241432028 114.51221135015058 L 1629.4943694976268 114.55910835803196 L 1629.2583891983163 114.6049409150442 L 1629.0214068431044 114.64970443796976 L 1628.7834461300292 114.69339445049368 L 1628.5445308549638 114.7360065836511 L 1628.3046849092364 114.77753657626423 L 1628.063932277242 114.81798027536838 L 1627.822297034043 114.85733363662739 L 1627.5798033429624 114.8955927247379 L 1627.3364754531672 114.93275371382298 L 1627.0923376972437 114.96881288781469 L 1626.8474144887637 115.0037666408257 L 1626.6017303198444 115.03761147750981 L 1626.3553097586978 115.07034401341159 L 1626.1081774471745 115.10196097530469 L 1625.8603580983 115.13245920151928 L 1625.6118764938024 115.16183564225817 L 1625.3627574816353 115.19008735990175 L 1625.113025973492 115.21721152930179 L 1624.8627069423155 115.24320543806398 L 1624.6118254198004 115.26806648681908 L 1624.3604064938895 115.29179218948295 L 1624.1084753062664 115.31438017350509 L 1623.8560570498394 115.33582818010592 L 1623.603176966224 115.35613406450264 L 1623.3498603432179 115.37529579612375 L 1623.096132512272 115.39331145881205 L 1622.8420188459586 115.41017925101629 L 1622.587544755432 115.42589748597129 L 1622.3327356878895 115.44046459186667 L 1622.077617124025 115.45387911200397 L 1621.822214575483 115.46613970494236 L 1621.566553582305 115.47724514463276 L 1621.3106597103776 115.48719432054045 L 1621.0545585488746 115.49598623775614 L 1620.7982757076986 115.50362001709544 L 1620.5418368149203 115.51009489518677 L 1620.2852675142153 115.5154102245477 L 1620.0285934623 115.51956547364975 L 1619.7718403263652 115.52256022697145 L 1619.5150337815112 115.52439418504 L 1619.258199508178 115.52506716446106 L 1619.0013631895788 115.52457909793732 L 1618.744550509132 115.52293003427498 L 1618.4877871478911 115.52012013837903 L 1618.2310987819785 115.51614969123673 L 1617.974511080017 115.51101908988952 L 1617.7180497005627 115.50472884739318 L 1617.46174028954 115.4972795927668 L 1617.2056084776764 115.48867207092958 L 1616.9496798779396 115.47890714262655 L 1616.6939800829762 115.4679857843424 L 1616.4385346625527 115.45590908820387 L 1616.1833691609984 115.4426782618705 L 1615.9285090946507 115.42829462841388 L 1615.6739799493039 115.4127596261854 L 1615.4198071776602 115.39607480867232 L 1615.1660161967852 115.3782418443425 L 1614.9126323855655 115.35926251647749 L 1614.6596810821711 115.33913872299428 L 1614.4071875815214 115.31787247625543 L 1614.155177132756 115.29546590286792 L 1613.90367493671 115.27192124347039 L 1613.6527061433935 115.24724085250918 L 1613.402295849476 115.2214271980028 L 1613.1524690957792 115.1944828612952 L 1612.9032508647695 115.1664105367976 L 1612.6546660780627 115.13721303171906 L 1612.4067395939303 115.10689326578573 L 1612.1594962048139 115.07545427094897 L 1611.9129606348465 115.04289919108203 L 1611.6671575373798 115.0092312816658 L 1611.4221114925185 114.97445390946316 L 1611.177847004663 114.93857055218234 L 1610.9343885000585 114.90158479812916 L 1610.6917603243523 114.86350034584822 L 1610.4499867401603 114.824321003753 L 1610.2090919246393 114.78405068974506 L 1609.9690999670697 114.74269343082224 L 1609.7300348664478 114.70025336267598 L 1609.4919205290842 114.65673472927773 L 1609.254780766214 114.61214188245454 L 1609.0186392916164 114.56647928145395 L 1608.7835197192417 114.51975149249802 L 1608.549445560851 114.47196318832667 L 1608.3164402236655 114.42311914773052 L 1608.0845270080247 114.37322425507293 L 1607.8537291050566 114.32228349980157 L 1607.6240695943595 114.27030197594954 L 1607.395571441693 114.21728488162587 L 1607.1682574966817 114.16323751849586 L 1606.942150490531 114.10816529125074 L 1606.717273033753 114.05207370706736 L 1606.4936476139058 113.9949683750574 L 1606.2712965933454 113.93685500570646 L 1606.050242206988 113.87773941030305 L 1605.8305065600887 113.81762750035746 L 1605.6121116260285 113.75652528701059 L 1605.3950792441194 113.69443888043284 L 1605.179431117418 113.63137448921314 L 1604.965188810558 113.56733841973806 L 1604.752373747591 113.5023370755612 L 1604.5410072098462 113.43637695676277 L 1604.3311103338012 113.36946465929971 L 1604.1227041089685 113.301606874346 L 1603.9158093757974 113.2328103876236 L 1603.7104468235882 113.16308207872383 L 1603.5066369884255 113.0924289204195 L 1603.3044002511228 113.02085797796754 L 1603.103756835185 112.94837640840255 L 1602.904726804787 112.8749914598211 L 1602.7073300627655 112.8007104706569 L 1602.5115863486308 112.72554086894695 L 1602.3175152365905 112.64949017158878 L 1602.1251361335947 112.57256598358876 L 1601.9344682773929 112.49477599730159 L 1601.745530734612 112.41612799166106 L 1601.558342398849 112.3366298314022 L 1601.3729219887812 112.2562894662748 L 1601.1892880462951 112.1751149302484 L 1601.0074589346323 112.09311434070896 L 1600.827452836552 112.01029589764713 L 1600.6492877525145 111.92666788283817 L 1600.4729814988793 111.84223865901389 L 1600.298551706125 111.7570166690263 L 1600.1260158170853 111.67101043500338 L 1599.9553910852057 111.58422855749687 L 1599.786694572817 111.4966797146222 L 1599.61994314943 111.40837266119071 L 1599.4551534900477 111.31931622783415 L 1599.2923420734992 111.22951932012163 L 1599.13152518079 111.13899091766909 L 1598.9727188934758 111.04774007324134 L 1598.8159390920528 110.9557759118468 L 1598.6612014543705 110.86310762982494 L 1598.5085214540636 110.76974449392677 L 1598.357914359005 110.67569584038806 L 1598.209395229779 110.58097107399578 L 1598.0629789181742 110.48557966714766 L 1597.9186800657 110.38953115890487 L 1597.7765131021215 110.2928351540382 L 1597.6364922440166 110.19550132206757 L 1597.4986314933542 110.09753939629505 L 1597.3629446360947 109.99895917283158 L 1597.2294452408105 109.89977050961737 L 1597.0981466573303 109.79998332543607 L 1596.9690620154026 109.69960759892295 L 1596.8422042233842 109.59865336756702 L 1596.7175859669487 109.4971307267073 L 1596.5952197078177 109.39504982852324 L 1596.4751176825152 109.29242088101961 L 1596.3572919011438 109.18925414700563 L 1596.2417541461832 109.08555994306874 L 1596.1285159713127 108.98134863854291 L 1596.0175887002556 108.87663065447177 L 1595.9089834256463 108.77141646256644 L 1595.802711007922 108.66571658415843 L 1595.6987820742356 108.55954158914753 L 1595.5972070173943 108.45290209494473 L 1595.4979959948187 108.3458087654106 L 1595.4011589275287 108.23827230978884 L 1595.3067054991502 108.1303034816354 L 1595.2146451549472 108.02191307774314 L 1595.1249871008777 107.9131119370621 L 1595.037740302672 107.80391093961568 L 1594.9529134849377 107.69432100541265 L 1594.8705151302856 107.58435309335508 L 1594.7905534784825 107.47401820014255 L 1594.7130365256269 107.36332735917243 L 1594.6379720233494 107.25229163943658 L 1594.5653674780383 107.14092214441445 L 1594.4952301500869 107.0292300109627 L 1594.4275670531697 106.91722640820164 L 1594.3623849535402 106.80492253639821 L 1594.299690369354 106.69232962584596 L 1594.2394895700172 106.57945893574217 L 1594.1817885755597 106.46632175306175 L 1594.1265931560329 106.35292939142872 L 1594.0739088309324 106.23929318998472 L 1594.0237408686469 106.12542451225522 L 1593.9760942859311 106.0113347450131 L 1593.9309738474035 105.89703529714001 L 1593.88838406507 105.78253759848548 L 1593.848329197874 105.66785309872397 L 1593.8108132512682 105.55299326620987 L 1593.7758399768163 105.43796958683073 L 1593.7434128718166 105.32279356285864 L 1593.7135351789525 105.2074767118 L 1593.6862098859685 105.09203056524383 L 1593.6614397253709 104.97646666770858 L 1593.6392271741554 104.8607965754877 L 1593.6195744535582 104.74503185549402 L 1593.6024835288356 104.62918408410306 L 1593.5879561090653 104.51326484599544 L 1593.5759936469774 104.39728573299836 L 1593.566597338808 104.28125834292646 L 1593.5597681241802 104.16519427842208 L 1593.55550668601 104.04910514579494 L 1593.5538134504372 103.93300255386156" stroke-miterlimit="10" stroke-width="2.990598758" stroke-dasharray=""/></g><g><g/><text fill="black" stroke="none" font-family="sans-serif" font-size="11pt" font-style="normal" font-weight="normal" text-decoration="normal" x="1586.5355372075144" y="134.401026536" text-anchor="start" dominant-baseline="alphabetic">Database</text></g></g><g><path fill="white" stroke="black" paint-order="fill stroke markers" d=" M 444.98027097569013 197.73135317599997 L 462.57202837569014 197.73135317599997 L 462.57202837569014 996.3971391360002 L 444.98027097569013 996.3971391360002 L 444.98027097569013 197.73135317599997" stroke-miterlimit="10" stroke-width="1.4659797833333332" stroke-dasharray=""/><path fill="white" stroke="black" paint-order="fill stroke markers" d=" M 815.3531019013412 246.98827389599995 L 832.9448593013412 246.98827389599995 L 832.9448593013412 947.1402184160002 L 815.3531019013412 947.1402184160002 L 815.3531019013412 246.98827389599995" stroke-miterlimit="10" stroke-width="1.4659797833333332" stroke-dasharray=""/><path fill="white" stroke="black" paint-order="fill stroke markers" d=" M 206.19658189574218 345.5021153359999 L 223.7883392957422 345.5021153359999 L 223.7883392957422 560.1215556159999 L 206.19658189574218 560.1215556159999 L 206.19658189574218 345.5021153359999" stroke-miterlimit="10" stroke-width="1.4659797833333332" stroke-dasharray=""/><path fill="white" stroke="black" paint-order="fill stroke markers" d=" M 824.1489806013412 560.1215556159999 L 841.7407380013412 560.1215556159999 L 841.7407380013412 848.6263769760001 L 824.1489806013412 848.6263769760001 L 824.1489806013412 560.1215556159999" stroke-miterlimit="10" stroke-width="1.4659797833333332" stroke-dasharray=""/><g><g><rect fill="white" stroke="none" x="209.43004395489584" y="174.86206855599997" width="51.01126135085937" height="22.86928462"/></g><text fill="black" stroke="none" font-family="sans-serif" font-size="11pt" font-style="normal" font-weight="normal" text-decoration="normal" x="212.06880756489585" y="190.69465021599999" text-anchor="start" dominant-baseline="alphabetic">logIn()</text></g><g><path fill="none" stroke="black" paint-order="fill stroke markers" d=" M 24.891078284960937 197.73135317599997 L 442.0483114090235 197.73135317599997" stroke-miterlimit="10" stroke-width="1.4659797833333332" stroke-dasharray=""/><g transform="translate(444.98027097569013,197.73135317599997) translate(-444.98027097569013,-197.73135317599997)"><path fill="black" stroke="none" paint-order="stroke fill markers" d=" M 430.3204731423568 190.4014542593333 L 444.98027097569013 197.73135317599997 L 430.3204731423568 205.06125209266665 Z"/></g></g><g><g><rect fill="white" stroke="none" x="613.456934463086" y="224.11898927599995" width="51.01126135085937" height="22.86928462"/></g><text fill="black" stroke="none" font-family="sans-serif" font-size="11pt" font-style="normal" font-weight="normal" text-decoration="normal" x="616.0956980730859" y="239.95157093599997" text-anchor="start" dominant-baseline="alphabetic">logIn()</text></g><g><path fill="none" stroke="black" paint-order="fill stroke markers" d=" M 462.57202837569014 246.98827389599995 L 812.4211423346745 246.98827389599995" stroke-miterlimit="10" stroke-width="1.4659797833333332" stroke-dasharray=""/><g transform="translate(815.3531019013412,246.98827389599995) translate(-815.3531019013412,-246.98827389599995)"><path fill="black" stroke="none" paint-order="stroke fill markers" d=" M 800.6933040680079 239.65837497933327 L 815.3531019013412 246.98827389599995 L 800.6933040680079 254.31817281266663 Z"/></g></g><g><g><rect fill="white" stroke="none" x="599.4232964625977" y="273.37590999599996" width="79.07853735183593" height="22.86928462"/></g><text fill="black" stroke="none" font-family="sans-serif" font-size="11pt" font-style="normal" font-weight="normal" text-decoration="normal" x="602.0620600725977" y="289.208491656" text-anchor="start" dominant-baseline="alphabetic">getDetail()</text></g><g><path fill="none" stroke="black" paint-order="fill stroke markers" d=" M 815.3531019013412 296.24519461599994 L 465.5039879423568 296.24519461599994" stroke-miterlimit="10" stroke-width="1.4659797833333332" stroke-dasharray=""/><g transform="translate(462.57202837569014,296.24519461599994) translate(-462.57202837569014,-296.24519461599994)"><path fill="black" stroke="none" paint-order="stroke fill markers" d=" M 477.2318262090235 288.9152956993333 L 462.57202837569014 296.24519461599994 L 477.2318262090235 303.5750935326666 Z"/></g></g><g><g><rect fill="white" stroke="none" x="259.5265092381185" y="322.63283071599994" width="149.7155917951953" height="22.86928462"/></g><text fill="black" stroke="none" font-family="sans-serif" font-size="11pt" font-style="normal" font-weight="normal" text-decoration="normal" x="262.1652728481185" y="338.46541237599996" text-anchor="start" dominant-baseline="alphabetic">Alert(getDtail:String)</text></g><g><path fill="none" stroke="black" paint-order="fill stroke markers" d=" M 444.98027097569013 345.5021153359999 L 226.72029886240887 345.5021153359999" stroke-miterlimit="10" stroke-width="1.4659797833333332" stroke-dasharray=""/><g transform="translate(223.7883392957422,345.5021153359999) translate(-223.7883392957422,-345.5021153359999)"><path fill="black" stroke="none" paint-order="stroke fill markers" d=" M 238.44813712907552 338.17221641933327 L 223.7883392957422 345.5021153359999 L 238.44813712907552 352.83201425266657 Z"/></g></g><g><g><rect fill="white" stroke="none" x="112.90506648035156" y="371.8897514359999" width="5.27752722" height="22.86928462"/></g><text fill="black" stroke="none" font-family="sans-serif" font-size="11pt" font-style="normal" font-weight="normal" text-decoration="normal" x="115.54383009035156" y="387.72233309599994" text-anchor="start" dominant-baseline="alphabetic"></text></g><g><path fill="none" stroke="black" paint-order="fill stroke markers" d=" M 206.19658189574218 394.7590360559999 L 27.823037851627603 394.7590360559999" stroke-miterlimit="10" stroke-width="1.4659797833333332" stroke-dasharray=""/><g transform="translate(24.891078284960937,394.7590360559999) translate(-24.891078284960937,-394.7590360559999)"><path fill="black" stroke="none" paint-order="stroke fill markers" d=" M 39.55087611829427 387.42913713933325 L 24.891078284960937 394.7590360559999 L 39.55087611829427 402.08893497266655 Z"/></g></g><g><g><rect fill="white" stroke="none" x="112.90506648035156" y="421.1466721559999" width="5.27752722" height="22.86928462"/></g><text fill="black" stroke="none" font-family="sans-serif" font-size="11pt" font-style="normal" font-weight="normal" text-decoration="normal" x="115.54383009035156" y="436.9792538159999" text-anchor="start" dominant-baseline="alphabetic"></text></g><g><path fill="none" stroke="black" paint-order="fill stroke markers" d=" M 24.891078284960937 444.0159567759999 L 203.2646223290755 444.0159567759999" stroke-miterlimit="10" stroke-width="1.4659797833333332" stroke-dasharray="7.0367029599999995"/><g transform="translate(206.19658189574218,444.0159567759999) translate(-206.19658189574218,-444.0159567759999)"><path fill="black" stroke="none" paint-order="stroke fill markers" d=" M 191.53678406240886 436.68605785933323 L 206.19658189574218 444.0159567759999 L 191.53678406240886 451.34585569266653 Z"/></g></g><path fill="white" stroke="black" paint-order="fill stroke markers" d=" M 42.482835684960946 470.4035928759999 L 371.6695038465234 470.4035928759999 L 387.50208550652343 486.2361745359999 L 387.50208550652343 510.86463489599987 L 42.482835684960946 510.86463489599987 L 42.482835684960946 470.4035928759999 M 371.6695038465234 470.4035928759999 L 371.6695038465234 486.2361745359999 L 387.50208550652343 486.2361745359999" stroke-miterlimit="10" stroke-width="1.4659797833333332" stroke-dasharray=""/><g><text fill="black" stroke="none" font-family="sans-serif" font-size="11pt" font-style="normal" font-weight="normal" text-decoration="normal" x="67.11129604496094" y="495.03205323599985" text-anchor="start" dominant-baseline="alphabetic">Stuff input account number and password</text></g><g><g><rect fill="white" stroke="none" x="244.6052522190755" y="537.2522709959999" width="179.55810583328125" height="22.86928462"/></g><text fill="black" stroke="none" font-family="sans-serif" font-size="11pt" font-style="normal" font-weight="normal" text-decoration="normal" x="247.24401582907552" y="553.0848526559998" text-anchor="start" dominant-baseline="alphabetic">return account password</text></g><g><path fill="none" stroke="black" paint-order="fill stroke markers" d=" M 223.7883392957422 560.1215556159999 L 442.0483114090235 560.1215556159999" stroke-miterlimit="10" stroke-width="1.4659797833333332" stroke-dasharray="7.0367029599999995"/><g transform="translate(444.98027097569013,560.1215556159999) translate(-444.98027097569013,-560.1215556159999)"><path fill="black" stroke="none" paint-order="stroke fill markers" d=" M 430.3204731423568 552.7916566993332 L 444.98027097569013 560.1215556159999 L 430.3204731423568 567.4514545326666 Z"/></g></g><g><g><rect fill="white" stroke="none" x="487.78688064902354" y="586.5091917159999" width="311.1472476789844" height="22.86928462"/></g><text fill="black" stroke="none" font-family="sans-serif" font-size="11pt" font-style="normal" font-weight="normal" text-decoration="normal" x="490.42564425902356" y="602.3417733759999" text-anchor="start" dominant-baseline="alphabetic">selectAccount(account:String,haspas:String)</text></g><g><path fill="none" stroke="black" paint-order="fill stroke markers" d=" M 462.57202837569014 609.378476336 L 821.2170210346745 609.378476336" stroke-miterlimit="10" stroke-width="1.4659797833333332" stroke-dasharray=""/><g transform="translate(824.1489806013412,609.378476336) translate(-824.1489806013412,-609.378476336)"><path fill="black" stroke="none" paint-order="stroke fill markers" d=" M 809.4891827680079 602.0485774193332 L 824.1489806013412 609.378476336 L 809.4891827680079 616.7083752526667 Z"/></g></g><g><g><rect fill="white" stroke="none" x="929.7804617098126" y="683.263857416" width="96.09358251785156" height="22.86928462"/></g><text fill="black" stroke="none" font-family="sans-serif" font-size="11pt" font-style="normal" font-weight="normal" text-decoration="normal" x="932.4192253198125" y="699.0964390759999" text-anchor="start" dominant-baseline="alphabetic">getAccount()</text></g><g><path fill="none" stroke="black" paint-order="fill stroke markers" d=" M 841.7407380013412 706.133142036 L 1110.9818083694688 706.133142036" stroke-miterlimit="10" stroke-width="1.4659797833333332" stroke-dasharray=""/><g transform="translate(1113.9137679361354,706.133142036) translate(-1113.9137679361354,-706.133142036)"><path fill="black" stroke="none" paint-order="stroke fill markers" d=" M 1099.253970102802 698.8032431193333 L 1113.9137679361354 706.133142036 L 1099.253970102802 713.4630409526667 Z"/></g></g><g><g><rect fill="white" stroke="none" x="907.8298544100079" y="732.520778136" width="139.99479711746093" height="22.86928462"/></g><text fill="black" stroke="none" font-family="sans-serif" font-size="11pt" font-style="normal" font-weight="normal" text-decoration="normal" x="910.4686180200079" y="748.353359796" text-anchor="start" dominant-baseline="alphabetic">getPasswordHash()</text></g><g><path fill="none" stroke="black" paint-order="fill stroke markers" d=" M 841.7407380013412 755.390062756 L 1110.9818083694688 755.390062756" stroke-miterlimit="10" stroke-width="1.4659797833333332" stroke-dasharray=""/><g transform="translate(1113.9137679361354,755.390062756) translate(-1113.9137679361354,-755.390062756)"><path fill="black" stroke="none" paint-order="stroke fill markers" d=" M 1099.253970102802 748.0601638393333 L 1113.9137679361354 755.390062756 L 1099.253970102802 762.7199616726667 Z"/></g></g><g><g><rect fill="white" stroke="none" x="862.5576509246746" y="808.165334956" width="126.03630102371093" height="22.86928462"/></g><text fill="black" stroke="none" font-family="sans-serif" font-size="11pt" font-style="normal" font-weight="normal" text-decoration="normal" x="865.1964145346745" y="823.997916616" text-anchor="start" dominant-baseline="alphabetic">notifyObservers()</text></g><g><path fill="none" stroke="black" paint-order="fill stroke markers" d=" M 841.7407380013412 831.0346195760001 L 912.1077676013413 831.0346195760001 L 912.1077676013413 848.6263769760001 L 844.672697568008 848.6263769760001" stroke-miterlimit="10" stroke-width="1.4659797833333332" stroke-dasharray=""/><g transform="translate(841.7407380013412,848.6263769760001) translate(-841.7407380013412,-848.6263769760001)"><path fill="black" stroke="none" paint-order="stroke fill markers" d=" M 856.4005358346745 841.2964780593334 L 841.7407380013412 848.6263769760001 L 856.4005358346745 855.9562758926668 Z"/></g></g><g><g><rect fill="white" stroke="none" x="606.5993905177735" y="875.0140130760001" width="64.72634924148437" height="22.86928462"/></g><text fill="black" stroke="none" font-family="sans-serif" font-size="11pt" font-style="normal" font-weight="normal" text-decoration="normal" x="609.2381541277734" y="890.846594736" text-anchor="start" dominant-baseline="alphabetic">update()</text></g><g><path fill="none" stroke="black" paint-order="fill stroke markers" d=" M 815.3531019013412 897.8832976960001 L 465.5039879423568 897.8832976960001" stroke-miterlimit="10" stroke-width="1.4659797833333332" stroke-dasharray=""/><g transform="translate(462.57202837569014,897.8832976960001) translate(-462.57202837569014,-897.8832976960001)"><path fill="black" stroke="none" paint-order="stroke fill markers" d=" M 477.2318262090235 890.5533987793334 L 462.57202837569014 897.8832976960001 L 477.2318262090235 905.2131966126668 Z"/></g></g><g><g><rect fill="white" stroke="none" x="636.3238015285157" y="924.2709337960001" width="5.27752722" height="22.86928462"/></g><text fill="black" stroke="none" font-family="sans-serif" font-size="11pt" font-style="normal" font-weight="normal" text-decoration="normal" x="638.9625651385156" y="940.1035154560001" text-anchor="start" dominant-baseline="alphabetic"></text></g><g><path fill="none" stroke="black" paint-order="fill stroke markers" d=" M 815.3531019013412 947.1402184160002 L 465.5039879423568 947.1402184160002" stroke-miterlimit="10" stroke-width="1.4659797833333332" stroke-dasharray="7.0367029599999995"/><g transform="translate(462.57202837569014,947.1402184160002) translate(-462.57202837569014,-947.1402184160002)"><path fill="black" stroke="none" paint-order="stroke fill markers" d=" M 477.2318262090235 939.8103194993334 L 462.57202837569014 947.1402184160002 L 477.2318262090235 954.4701173326669 Z"/></g></g><g><g><rect fill="white" stroke="none" x="232.29691102032552" y="973.5278545160002" width="5.27752722" height="22.86928462"/></g><text fill="black" stroke="none" font-family="sans-serif" font-size="11pt" font-style="normal" font-weight="normal" text-decoration="normal" x="234.93567463032554" y="989.3604361760001" text-anchor="start" dominant-baseline="alphabetic"></text></g><g><path fill="none" stroke="black" paint-order="fill stroke markers" d=" M 444.98027097569013 996.3971391360002 L 27.823037851627603 996.3971391360002" stroke-miterlimit="10" stroke-width="1.4659797833333332" stroke-dasharray="7.0367029599999995"/><g transform="translate(24.891078284960937,996.3971391360002) translate(-24.891078284960937,-996.3971391360002)"><path fill="black" stroke="none" paint-order="stroke fill markers" d=" M 39.55087611829427 989.0672402193335 L 24.891078284960937 996.3971391360002 L 39.55087611829427 1003.7270380526669 Z"/></g></g><g><g/><path fill="none" stroke="black" paint-order="fill stroke markers" d=" M 762.5778297013412 635.766112436 L 1175.4849188361354 635.766112436 L 1175.4849188361354 781.777698856 L 762.5778297013412 781.777698856 L 762.5778297013412 635.766112436 Z" stroke-miterlimit="10" stroke-width="2.5131082" stroke-dasharray=""/><path fill="white" stroke="black" paint-order="fill stroke markers" d=" M 762.5778297013412 635.766112436 L 762.5778297013412 656.8762213159999 L 824.4631114691147 656.8762213159999 L 835.0181659091147 646.321166876 L 835.0181659091147 635.766112436 L 762.5778297013412 635.766112436" stroke-miterlimit="10" stroke-width="2.5131082" stroke-dasharray=""/><text fill="black" stroke="none" font-family="sans-serif" font-size="8.8pt" font-style="normal" font-weight="bold" text-decoration="normal" x="780.1695871013412" y="649.839518356" text-anchor="start" dominant-baseline="alphabetic">loop</text><text fill="black" stroke="none" font-family="sans-serif" font-size="8.8pt" font-style="normal" font-weight="bold" text-decoration="normal" x="852.6099233091147" y="649.839518356" text-anchor="start" dominant-baseline="alphabetic">[for each administrator]</text></g></g><g/><g/><g/><g/><g/><g/><g/><g/><g/></g></svg>