<svg version="1.1" xmlns="http://www.w3.org/2000/svg" xmlns:xlink="http://www.w3.org/1999/xlink" width="1452" height="952"><defs/><g><g/><g/><g/><g/><g/><g/><g/><g/><g/><g/><g/><g/><g/><g/><g><rect fill="white" stroke="none" x="0" y="0" width="1452" height="952"/></g><g><text fill="black" stroke="none" font-family="sans-serif" font-size="16.5pt" font-style="normal" font-weight="normal" text-decoration="normal" x="584.8879906107396" y="26.3876361" text-anchor="start" dominant-baseline="alphabetic">Administrator Log-out BCE</text></g><g/><g><path fill="none" stroke="black" paint-order="fill stroke markers" d=" M 24.891078284960937 139.67855375599999 L 24.891078284960937 952.417745636" stroke-miterlimit="10" stroke-width="1.4659797833333332" stroke-dasharray="13.532121076923076,5.863919133333333"/><path fill="none" stroke="black" paint-order="fill stroke markers" d=" M 117.06117855228517 139.67855375599999 L 117.06117855228517 952.417745636" stroke-miterlimit="10" stroke-width="1.4659797833333332" stroke-dasharray="13.532121076923076,5.863919133333333"/><path fill="none" stroke="black" paint-order="fill stroke markers" d=" M 354.6423072074284 139.67855375599999 L 354.6423072074284 952.417745636" stroke-miterlimit="10" stroke-width="1.4659797833333332" stroke-dasharray="13.532121076923076,5.863919133333333"/><path fill="none" stroke="black" paint-order="fill stroke markers" d=" M 613.9041107051498 139.67855375599999 L 613.9041107051498 952.417745636" stroke-miterlimit="10" stroke-width="1.4659797833333332" stroke-dasharray="13.532121076923076,5.863919133333333"/><path fill="none" stroke="black" paint-order="fill stroke markers" d=" M 784.5061971421941 139.67855375599999 L 784.5061971421941 952.417745636" stroke-miterlimit="10" stroke-width="1.4659797833333332" stroke-dasharray="13.532121076923076,5.863919133333333"/><path fill="none" stroke="black" paint-order="fill stroke markers" d=" M 903.6688980399441 139.67855375599999 L 903.6688980399441 952.417745636" stroke-miterlimit="10" stroke-width="1.4659797833333332" stroke-dasharray="13.532121076923076,5.863919133333333"/><path fill="none" stroke="black" paint-order="fill stroke markers" d=" M 1066.6829729448268 139.67855375599999 L 1066.6829729448268 952.417745636" stroke-miterlimit="10" stroke-width="1.4659797833333332" stroke-dasharray="13.532121076923076,5.863919133333333"/><path fill="none" stroke="black" paint-order="fill stroke markers" d=" M 1261.3002102805651 139.67855375599999 L 1261.3002102805651 952.417745636" stroke-miterlimit="10" stroke-width="1.4659797833333332" stroke-dasharray="13.532121076923076,5.863919133333333"/><path fill="none" stroke="black" paint-order="fill stroke markers" d=" M 1408.9928767839792 139.67855375599999 L 1408.9928767839792 952.417745636" stroke-miterlimit="10" stroke-width="1.4659797833333332" stroke-dasharray="13.532121076923076,5.863919133333333"/></g><g><g><path fill="white" stroke="black" paint-order="fill stroke markers" d=" M 34.91838000296094 65.265419954 A 10.027301717999999 10.027301717999999 0 1 1 34.91837498931049 65.25539265395321 M 24.891078284960937 75.29272167199998 L 24.891078284960937 96.75466569999998 M 12.225012956960938 83.033094928 L 37.557143612960935 83.033094928 M 24.891078284960937 96.75466569999998 L 12.225012956960938 116.80926913599998 M 24.891078284960937 96.75466569999998 L 37.557143612960935 116.80926913599998" stroke-miterlimit="10" stroke-width="2.990598758" stroke-dasharray=""/></g><g><g/><text fill="black" stroke="none" font-family="sans-serif" font-size="11pt" font-style="normal" font-weight="normal" text-decoration="normal" x="8.7958787" y="134.401026536" text-anchor="start" dominant-baseline="alphabetic">Staff</text></g><g><path fill="white" stroke="black" paint-order="fill stroke markers" d=" M 151.98081699128517 89.19021001799997 A 26.123759739 26.123759739 0 1 1 151.9808039294064 89.16408626261492 M 83.63683949228518 61.57115089999997 L 83.63683949228518 116.80926913599997 M 82.14154011328517 89.19021001799997 L 99.73329751328518 89.19021001799997" stroke-miterlimit="10" stroke-width="2.990598758" stroke-dasharray=""/></g><g><g/><text fill="black" stroke="none" font-family="sans-serif" font-size="11pt" font-style="normal" font-weight="normal" text-decoration="normal" x="100.26447902835939" y="134.401026536" text-anchor="start" dominant-baseline="alphabetic">Alert</text></g><g><path fill="white" stroke="black" paint-order="fill stroke markers" d=" M 389.5619456464284 89.19021001799997 A 26.123759739 26.123759739 0 1 1 389.56193258454965 89.16408626261492 M 321.21796814742845 61.57115089999997 L 321.21796814742845 116.80926913599997 M 319.72266876842843 89.19021001799997 L 337.31442616842844 89.19021001799997" stroke-miterlimit="10" stroke-width="2.990598758" stroke-dasharray=""/></g><g><g/><text fill="black" stroke="none" font-family="sans-serif" font-size="11pt" font-style="normal" font-weight="normal" text-decoration="normal" x="330.92004768594404" y="134.401026536" text-anchor="start" dominant-baseline="alphabetic">StaffUI</text></g><g><path fill="white" stroke="black" paint-order="fill stroke markers" d=" M 640.0278704441498 89.19021001799997 A 26.123759739 26.123759739 0 1 1 640.027857382271 89.16408626261492 M 610.3857592251499 63.06645027899997 L 620.9408136651499 54.27057157899998 M 610.3857592251499 63.06645027899997 L 620.9408136651499 71.86232897899997" stroke-miterlimit="10" stroke-width="2.990598758" stroke-dasharray=""/></g><g><g/><text fill="black" stroke="none" font-family="sans-serif" font-size="11pt" font-style="normal" font-weight="normal" text-decoration="normal" x="559.5769698970444" y="134.401026536" text-anchor="start" dominant-baseline="alphabetic">BookingSystem</text></g><path fill="none" stroke="none"/><g><path fill="white" stroke="black" paint-order="fill stroke markers" d=" M 746.2494855170027 92.18080877599999 L 822.7629087673855 92.18080877599999 L 822.7629087673855 139.67855375599999 L 746.2494855170027 139.67855375599999 L 746.2494855170027 92.18080877599999 Z" stroke-miterlimit="10" stroke-width="2.814681184" stroke-dasharray=""/></g><g><g/><text fill="black" stroke="none" font-family="sans-serif" font-size="11pt" font-style="normal" font-weight="normal" text-decoration="normal" x="765.3365422960027" y="122.08679635600001" text-anchor="start" dominant-baseline="alphabetic">Hotel</text></g><g><path fill="white" stroke="black" paint-order="fill stroke markers" d=" M 929.7926577789441 86.79773101159998 A 26.123759739 26.123759739 0 1 1 929.7926447170653 86.77160725621492 M 876.0498389219441 115.31396975699997 L 928.2973583999441 115.31396975699997" stroke-miterlimit="10" stroke-width="2.990598758" stroke-dasharray=""/></g><g><g/><text fill="black" stroke="none" font-family="sans-serif" font-size="11pt" font-style="normal" font-weight="normal" text-decoration="normal" x="840.3546661673855" y="134.401026536" text-anchor="start" dominant-baseline="alphabetic">Administrator (all)</text></g><g><path fill="white" stroke="black" paint-order="fill stroke markers" d=" M 1092.8067326838268 86.79773101159998 A 26.123759739 26.123759739 0 1 1 1092.806719621948 86.77160725621492 M 1039.0639138268268 115.31396975699997 L 1091.3114333048268 115.31396975699997" stroke-miterlimit="10" stroke-width="2.990598758" stroke-dasharray=""/></g><g><g/><text fill="black" stroke="none" font-family="sans-serif" font-size="11pt" font-style="normal" font-weight="normal" text-decoration="normal" x="984.5748873125026" y="134.401026536" text-anchor="start" dominant-baseline="alphabetic">Administrator(selected)</text></g><path fill="none" stroke="none"/><g><path fill="white" stroke="black" paint-order="fill stroke markers" d=" M 1166.382815977151 92.18080877599999 L 1356.2176045839792 92.18080877599999 L 1356.2176045839792 139.67855375599999 L 1166.382815977151 139.67855375599999 L 1166.382815977151 92.18080877599999 Z" stroke-miterlimit="10" stroke-width="2.814681184" stroke-dasharray=""/></g><g><g/><text fill="black" stroke="none" font-family="sans-serif" font-size="11pt" font-style="normal" font-weight="normal" text-decoration="normal" x="1185.469872756151" y="122.08679635600001" text-anchor="start" dominant-baseline="alphabetic">AdministratorMapper</text></g><g><path fill="white" stroke="black" paint-order="fill stroke markers" d=" M 1383.3089109799791 105.19870925199999 L 1383.3089109799791 68.25601871199999 L 1434.6768425879793 68.25601871199999 L 1434.6768425879793 105.19870925199999" stroke-miterlimit="10" stroke-width="2.990598758" stroke-dasharray=""/><path fill="white" stroke="black" paint-order="fill stroke markers" d=" M 1434.6768425879793 66.97182042179999 L 1434.6755584003906 67.08792408555635 L 1434.6717059660425 67.20401613904309 L 1434.6652856701753 67.3200849731516 L 1434.656298154813 67.43611898109519 L 1434.6447443186996 67.55210655956978 L 1434.6306253172093 67.66803610991414 L 1434.6139425622305 67.78389603926989 L 1434.5946977220246 67.8996747617406 L 1434.5728927210596 68.01536069955054 L 1434.5485297398177 68.1309422842023 L 1434.5216112145763 68.24640795763378 L 1434.4921398371657 68.3617461733738 L 1434.4601185546994 68.47694539769695 L 1434.4255505692784 68.59199411077678 L 1434.3884393376727 68.70688080783783 L 1434.3487885709746 68.82159400030618 L 1434.3066022342277 68.93612221695814 L 1434.2618845460304 69.0504540050675 L 1434.2146399781143 69.16457793155072 L 1434.164873254897 69.27848258411025 L 1434.112589353009 69.39215657237577 L 1434.0577935007973 69.50558852904317 L 1434.0004911778012 69.61876711101131 L 1433.9406881142054 69.73168100051632 L 1433.8783902902662 69.84431890626333 L 1433.8136039357144 69.95666956455563 L 1433.746335529131 70.06872174042103 L 1433.6765917973014 70.18046422873529 L 1433.6043797145398 70.29188585534273 L 1433.5297065019947 70.40297547817353 L 1433.4525796269252 70.51372198835797 L 1433.3730068019543 70.62411431133734 L 1433.2909959842984 70.73414140797132 L 1433.2065553749708 70.84379227564195 L 1433.119693417962 70.95305594935381 L 1433.0304187993954 71.06192150283061 L 1432.9387404466588 71.1703780496077 L 1432.8446675275104 71.27841474412082 L 1432.7482094491643 71.38602078279051 L 1432.6493758573476 71.4931854051026 L 1432.5481766353373 71.59989789468413 L 1432.4446219029712 71.7061475803751 L 1432.3387220156362 71.81192383729548 L 1432.2304875632328 71.9172160879077 L 1432.1199293691163 72.02201380307447 L 1432.0070584890136 72.12630650311159 L 1431.8918862099188 72.23008375883597 L 1431.774424048964 72.33333519260853 L 1431.6546837522671 72.43605047937191 L 1431.5326772937583 72.53821934768304 L 1431.4084168739814 72.63983158074024 L 1431.2819149188754 72.74087701740487 L 1431.1531840785296 72.84134555321748 L 1431.0222372259216 72.94122714140819 L 1430.889087455627 73.04051179390143 L 1430.753748082512 73.13918958231469 L 1430.6162326404012 73.23725063895135 L 1430.476554880724 73.33468515778748 L 1430.3347287711404 73.43148339545236 L 1430.1907684941427 73.52763567220293 L 1430.044688445639 73.6231323728916 L 1429.896503233512 73.71796394792793 L 1429.7462276761598 73.8121209142334 L 1429.5938768010128 73.90559385618985 L 1429.4394658430315 73.998373426581 L 1429.2830102431833 74.09045034752711 L 1429.1245256468972 74.18181541141281 L 1428.9640279025014 74.27245948180787 L 1428.801533059636 74.36237349438078 L 1428.6370573676506 74.45154845780519 L 1428.4706172739768 74.53997545465909 L 1428.3022294224852 74.62764564231648 L 1428.131910651821 74.71455025383165 L 1427.9596779937192 74.80068059881587 L 1427.785548671302 74.88602806430642 L 1427.6095400973563 74.97058411562787 L 1427.4316698725934 75.05434029724555 L 1427.2519557838873 75.13728823361109 L 1427.0704158024969 75.21941962999999 L 1426.8870680822693 75.30072627334106 L 1426.7019309578234 75.38120003303769 L 1426.515022942718 75.46083286178099 L 1426.326362727598 75.53961679635444 L 1426.1359691783287 75.61754395843025 L 1425.9438613341053 75.69460655535714 L 1425.750058405553 75.77079688093964 L 1425.5545797728028 75.84610731620869 L 1425.357444983555 75.9205303301835 L 1425.1586737511243 75.99405848062472 L 1424.9582859524685 76.06668441477855 L 1424.7563016262002 76.13840087011211 L 1424.5527409705837 76.20920067503964 L 1424.3476243415153 76.27907674963963 L 1424.1409722504866 76.34802210636286 L 1423.9328053625347 76.4160298507311 L 1423.7231444941747 76.48309318202661 L 1423.512010611319 76.54920539397213 L 1423.2994248271798 76.61435987540155 L 1423.0854084001583 76.67855011092104 L 1422.869982731719 76.74176968156053 L 1422.653169364249 76.80401226541565 L 1422.4349899789045 76.86527163827986 L 1422.2154663934423 76.92554167426694 L 1421.994620560038 76.98481634642351 L 1421.7724745630908 77.04308972733178 L 1421.5490506170154 77.10035598970217 L 1421.32437106402 77.15660940695618 L 1421.0984583718728 77.21184435379898 L 1420.8713351316549 77.26605530678191 L 1420.6430240555007 77.31923684485484 L 1420.413547974328 77.37138364990828 L 1420.1829298355533 77.42249050730518 L 1419.9511927007986 77.4725523064024 L 1419.718359743584 77.52156404106174 L 1419.4844542470114 77.56952081015058 L 1419.2494996014354 77.61641781803196 L 1419.013519302125 77.6622503750442 L 1418.776536946913 77.70701389796976 L 1418.5385762338378 77.75070391049368 L 1418.2996609587724 77.7933160436511 L 1418.059815013045 77.83484603626422 L 1417.8190623810506 77.87528973536838 L 1417.5774271378516 77.91464309662739 L 1417.334933446771 77.9529021847379 L 1417.0916055569758 77.99006317382297 L 1416.8474678010523 78.02612234781469 L 1416.6025445925723 78.0610761008257 L 1416.356860423653 78.09492093750981 L 1416.1104398625064 78.12765347341158 L 1415.863307550983 78.15927043530469 L 1415.6154882021085 78.18976866151928 L 1415.367006597611 78.21914510225817 L 1415.117887585444 78.24739681990175 L 1414.8681560773007 78.27452098930179 L 1414.6178370461241 78.30051489806398 L 1414.366955523609 78.32537594681908 L 1414.115536597698 78.34910164948295 L 1413.863605410075 78.37168963350508 L 1413.611187153648 78.39313764010592 L 1413.3583070700327 78.41344352450264 L 1413.1049904470265 78.43260525612375 L 1412.8512626160807 78.45062091881205 L 1412.5971489497672 78.46748871101629 L 1412.3426748592406 78.48320694597129 L 1412.087865791698 78.49777405186667 L 1411.8327472278336 78.51118857200397 L 1411.5773446792916 78.52344916494236 L 1411.3216836861136 78.53455460463276 L 1411.0657898141862 78.54450378054045 L 1410.8096886526832 78.55329569775614 L 1410.5534058115072 78.56092947709544 L 1410.296966918729 78.56740435518677 L 1410.040397618024 78.57271968454769 L 1409.7837235661086 78.57687493364975 L 1409.5269704301738 78.57986968697145 L 1409.2701638853198 78.58170364504 L 1409.0133296119866 78.58237662446106 L 1408.7564932933874 78.58188855793732 L 1408.4996806129407 78.58023949427498 L 1408.2429172516997 78.57742959837903 L 1407.986228885787 78.57345915123673 L 1407.7296411838256 78.56832854988951 L 1407.4731798043713 78.56203830739318 L 1407.2168703933487 78.5545890527668 L 1406.960738581485 78.54598153092958 L 1406.7048099817482 78.53621660262655 L 1406.4491101867848 78.5252952443424 L 1406.1936647663613 78.51321854820387 L 1405.938499264807 78.4999877218705 L 1405.6836391984593 78.48560408841388 L 1405.4291100531125 78.4700690861854 L 1405.1749372814688 78.45338426867232 L 1404.9211463005938 78.4355513043425 L 1404.6677624893741 78.41657197647748 L 1404.4148111859797 78.39644818299428 L 1404.16231768533 78.37518193625543 L 1403.9103072365647 78.35277536286792 L 1403.6588050405187 78.32923070347039 L 1403.407836247202 78.30455031250918 L 1403.1574259532847 78.2787366580028 L 1402.9075991995878 78.2517923212952 L 1402.658380968578 78.2237199967976 L 1402.4097961818713 78.19452249171906 L 1402.161869697739 78.16420272578573 L 1401.9146263086225 78.13276373094897 L 1401.668090738655 78.10020865108203 L 1401.4222876411884 78.0665407416658 L 1401.1772415963271 78.03176336946316 L 1400.9329771084715 77.99588001218234 L 1400.689518603867 77.95889425812916 L 1400.446890428161 77.92080980584822 L 1400.2051168439689 77.881630463753 L 1399.964222028448 77.84136014974506 L 1399.7242300708783 77.80000289082224 L 1399.4851649702564 77.75756282267598 L 1399.2470506328928 77.71404418927773 L 1399.0099108700226 77.66945134245454 L 1398.773769395425 77.62378874145395 L 1398.5386498230503 77.57706095249802 L 1398.3045756646595 77.52927264832667 L 1398.071570327474 77.48042860773052 L 1397.8396571118333 77.43053371507293 L 1397.6088592088652 77.37959295980157 L 1397.3791996981681 77.32761143594954 L 1397.1507015455015 77.27459434162587 L 1396.9233876004903 77.22054697849586 L 1396.6972805943396 77.16547475125074 L 1396.4724031375615 77.10938316706736 L 1396.2487777177143 77.0522778350574 L 1396.026426697154 76.99416446570646 L 1395.8053723107967 76.93504887030305 L 1395.5856366638973 76.87493696035746 L 1395.3672417298371 76.81383474701059 L 1395.150209347928 76.75174834043284 L 1394.9345612212267 76.68868394921314 L 1394.7203189143665 76.62464787973806 L 1394.5075038513996 76.5596465355612 L 1394.2961373136548 76.49368641676277 L 1394.0862404376098 76.42677411929971 L 1393.877834212777 76.358916334346 L 1393.670939479606 76.2901198476236 L 1393.4655769273968 76.22039153872383 L 1393.261767092234 76.14973838041949 L 1393.0595303549312 76.07816743796754 L 1392.8588869389937 76.00568586840255 L 1392.6598569085957 75.9323009198211 L 1392.4624601665741 75.8580199306569 L 1392.2667164524394 75.78285032894695 L 1392.072645340399 75.70679963158878 L 1391.8802662374032 75.62987544358876 L 1391.6895983812014 75.55208545730159 L 1391.5006608384206 75.47343745166106 L 1391.3134725026575 75.3939392914022 L 1391.1280520925898 75.31359892627479 L 1390.9444181501037 75.2324243902484 L 1390.7625890384409 75.15042380070896 L 1390.5825829403607 75.06760535764712 L 1390.404417856323 74.98397734283817 L 1390.228111602688 74.89954811901389 L 1390.0536818099336 74.8143261290263 L 1389.881145920894 74.72831989500338 L 1389.7105211890143 74.64153801749687 L 1389.5418246766255 74.5539891746222 L 1389.3750732532385 74.46568212119071 L 1389.2102835938563 74.37662568783415 L 1389.0474721773078 74.28682878012162 L 1388.8866552845986 74.19630037766909 L 1388.7278489972844 74.10504953324134 L 1388.5710691958614 74.0130853718468 L 1388.416331558179 73.92041708982494 L 1388.2636515578722 73.82705395392676 L 1388.1130444628136 73.73300530038806 L 1387.9645253335875 73.63828053399578 L 1387.8181090219828 73.54288912714766 L 1387.6738101695087 73.44684061890487 L 1387.53164320593 73.3501446140382 L 1387.3916223478252 73.25281078206757 L 1387.2537615971628 73.15484885629505 L 1387.1180747399032 73.05626863283157 L 1386.984575344619 72.95707996961737 L 1386.8532767611389 72.85729278543607 L 1386.7241921192112 72.75691705892295 L 1386.5973343271928 72.65596282756702 L 1386.4727160707573 72.5544401867073 L 1386.3503498116263 72.45235928852324 L 1386.2302477863238 72.34973034101961 L 1386.1124220049524 72.24656360700563 L 1385.9968842499918 72.14286940306874 L 1385.8836460751213 72.03865809854291 L 1385.7727188040642 71.93394011447177 L 1385.6641135294549 71.82872592256643 L 1385.5578411117306 71.72302604415843 L 1385.4539121780442 71.61685104914753 L 1385.352337121203 71.51021155494473 L 1385.2531260986273 71.4031182254106 L 1385.1562890313373 71.29558176978884 L 1385.0618356029588 71.1876129416354 L 1384.9697752587558 71.07922253774314 L 1384.8801172046863 70.9704213970621 L 1384.7928704064807 70.86122039961568 L 1384.7080435887462 70.75163046541265 L 1384.6256452340942 70.64166255335508 L 1384.545683582291 70.53132766014255 L 1384.4681666294355 70.42063681917243 L 1384.3931021271583 70.30960109943658 L 1384.320497581847 70.19823160441445 L 1384.2503602538955 70.0865394709627 L 1384.1826971569783 69.97453586820164 L 1384.1175150573488 69.86223199639821 L 1384.0548204731626 69.74963908584596 L 1383.9946196738258 69.63676839574217 L 1383.9369186793683 69.52363121306175 L 1383.8817232598415 69.41023885142872 L 1383.829038934741 69.29660264998472 L 1383.7788709724555 69.18273397225522 L 1383.7312243897397 69.0686442050131 L 1383.686103951212 68.95434475714 L 1383.6435141688787 68.83984705848547 L 1383.6034593016825 68.72516255872397 L 1383.5659433550768 68.61030272620987 L 1383.530970080625 68.49527904683073 L 1383.4985429756252 68.38010302285863 L 1383.468665282761 68.2647861718 L 1383.4413399897771 68.14934002524383 L 1383.4165698291795 68.03377612770858 L 1383.394357277964 67.9181060354877 L 1383.3747045573668 67.80234131549402 L 1383.3576136326442 67.68649354410306 L 1383.343086212874 67.57057430599544 L 1383.331123750786 67.45459519299835 L 1383.3217274426165 67.33856780292646 L 1383.3148982279888 67.22250373842208 L 1383.3106367898185 67.10641460579494 L 1383.3089435542458 66.99031201386155 L 1383.3098186905927 66.87420757278437 L 1383.3132621113466 66.75811289291076 L 1383.319273472168 66.64203958361193 L 1383.3278521719262 66.52599925212212 L 1383.338997352758 66.41000350237775 L 1383.3527079001549 66.29406393385715 L 1383.3689824430733 66.17819214042055 L 1383.3878193540727 66.06239970915072 L 1383.4092167494778 65.94669821919432 L 1383.4331724895665 65.8310992406039 L 1383.4596841787848 65.71561433318102 L 1383.4887491659863 65.60025504532017 L 1383.5203645446961 65.48503291285398 L 1383.5545271534027 65.36995945789971 L 1383.591233575874 65.25504618770695 L 1383.630480141498 65.14030459350695 L 1383.672262925651 65.02574614936354 L 1383.7165777500895 64.91138231102563 L 1383.763420183368 64.79722451478179 L 1383.8127855412818 64.68328417631649 L 1383.8646688873366 64.56957268956862 L 1383.9190650332412 64.45610142559212 L 1383.9759685394258 64.3428817314188 L 1384.0353737155876 64.22992492892377 L 1384.0972746212583 64.1172423136931 L 1384.161665066399 64.00484515389444 L 1384.228538612019 63.89274468915009 L 1384.2978885708194 63.78095212941312 L 1384.3697080078618 63.66947865384635 L 1384.4439897412628 63.558335409704426 L 1384.5207263429106 63.447533511219156 L 1384.599910139209 63.337084038488044 L 1384.6815332118447 63.226998036366325 L 1384.765587398578 63.11728651336247 L 1384.8520642940607 63.00796044053737 L 1384.940955250675 62.899030750407185 L 1385.0322513793994 62.790508335850156 L 1385.1259435506972 62.682404049017315 L 1385.2220223954293 62.57472870024724 L 1385.3204783057913 62.4674930569851 L 1385.4213014362742 62.36070784270584 L 1385.524481704649 62.25438373584191 L 1385.6300087929746 62.148531368715396 L 1385.7378721486305 62.04316132647479 L 1385.8480609853707 61.938284146036516 L 1385.9605642844035 61.83391031503122 L 1386.0753707954927 61.73005027075502 L 1386.192469038083 61.6267143991258 L 1386.3118473024474 61.52391303364461 L 1386.4334936508594 61.42165645436233 L 1386.5573959187852 61.31995488685167 L 1386.6835417161012 61.21881850118463 L 1386.8119184283332 61.1182574109155 L 1386.9425132179165 61.018281672069506 L 1387.0753130254814 60.91890128213721 L 1387.2103045711574 60.82012617907481 L 1387.3474743559025 60.72196624031029 L 1387.4868086628528 60.62443128175571 L 1387.6282935586935 60.52753105682567 L 1387.771914895053 60.431275255461905 L 1387.9176583099172 60.33567350316434 L 1388.0655092290663 60.24073536002853 L 1388.2154528675314 60.14647031978968 L 1388.3674742310736 60.05288780887326 L 1388.5215581176835 59.959997185452366 L 1388.6776891191007 59.86780773851195 L 1388.835851622355 59.77632868691987 L 1388.9960298113278 59.68556917850505 L 1389.1582076683342 59.59553828914271 L 1389.3223689757233 59.50624502184675 L 1389.488497317501 59.41769830586949 L 1389.656576080972 59.32990699580875 L 1389.8265884583996 59.24287987072236 L 1389.9985174486878 59.15662563325033 L 1390.1723458590811 59.0711529087445 L 1390.348056306883 58.986470244406114 L 1390.5256312211957 58.90258610843103 L 1390.705052844675 58.81950888916295 L 1390.8863032353086 58.737246894254554 L 1391.0693642682083 58.65580834983679 L 1391.2542176374234 58.57520139969624 L 1391.4408448577708 58.49543410446074 L 1391.6292272666842 58.41651444079334 L 1391.8193460260798 58.33845030059465 L 1392.01118212424 58.26124949021362 L 1392.2047163777147 58.18491972966697 L 1392.39992943324 58.10946865186714 L 1392.5968017696728 58.03490380185903 L 1392.7953136999438 57.96123263606552 L 1392.9954453730254 57.88846252154177 L 1393.197176775917 57.816600735238616 L 1393.400487735646 57.74565446327479 L 1393.6053579212864 57.67563080021837 L 1393.8117668459902 57.60653674837731 L 1394.019693869037 57.53837921709922 L 1394.2291181978976 57.47116502208042 L 1394.4400188903137 57.40490088468441 L 1394.6523748563918 57.3395934312697 L 1394.8661648607124 57.27524919252721 L 1395.0813675244528 57.21187460282721 L 1395.2979613275265 57.14947599957584 L 1395.5159246107335 57.088059622581426 L 1395.7352355779271 57.02763161343051 L 1395.9558722981933 56.96819801487362 L 1396.1778127080438 56.9097647702211 L 1396.4010346136226 56.85233772274873 L 1396.6255156929255 56.79592261511338 L 1396.8512334980314 56.74052508877882 L 1397.078165457348 56.6861506834515 L 1397.3062888778682 56.63280483652666 L 1397.5355809474402 56.58049288254453 L 1397.7660187370482 56.52922005265691 L 1397.997579203105 56.47899147410408 L 1398.2302391897574 56.42981216970201 L 1398.4639754312004 56.38168705734017 L 1398.6987645540046 56.334620949489704 L 1398.9345830794532 56.28861855272216 L 1399.1714074258907 56.24368446723889 L 1399.4092139110792 56.199823186410995 L 1399.6479787545688 56.157039096329996 L 1399.8876780800738 56.11533647536926 L 1400.1282879178616 56.07471949375613 L 1400.369784207149 56.035192213154914 L 1400.612142798508 55.99675858626073 L 1400.8553394562819 55.959422456404255 L 1401.099349861007 55.923187557167346 L 1401.3441496118467 55.88805751200974 L 1401.5897142290296 55.85403583390668 L 1401.8360191562988 55.82112592499761 L 1402.0830397633667 55.78933107624601 L 1402.3307513483785 55.758654467110254 L 1402.579129140382 55.72909916522569 L 1402.8281483018052 55.70066812609789 L 1403.0777839309394 55.67336419280706 L 1403.3280110644296 55.64719009572377 L 1403.5788046797709 55.62214845223594 L 1403.830139697811 55.598241766487035 L 1404.0819909852576 55.57547242912571 L 1404.3343333571916 55.55384271706673 L 1404.5871415795862 55.533354793263264 L 1404.8403903718297 55.51401070649064 L 1405.094054409254 55.4958123911414 L 1405.348108325667 55.47876166703191 L 1405.6025267158884 55.46286023922039 L 1405.8572841382913 55.44810969783636 L 1406.1123551173457 55.434511517921656 L 1406.3677141461665 55.42206705928295 L 1406.6233356890634 55.41077756635575 L 1406.879194184095 55.40064416807991 L 1407.1352640456255 55.39166787778682 L 1407.3915196668815 55.38384959309805 L 1407.647935422515 55.37719009583553 L 1407.904485671164 55.37169005194345 L 1408.161144758017 55.36735001142162 L 1408.4178870173796 55.36417040827046 L 1408.6746867752397 55.36215156044765 L 1408.9315183518354 55.36129366983628 L 1409.1883560642234 55.3615968222247 L 1409.445174228846 55.363060987297914 L 1409.7019471641013 55.36568601864066 L 1409.9586491929094 55.369471653751965 L 1410.2152546452812 55.37441751407148 L 1410.4717378608857 55.3805231050173 L 1410.728073191615 55.38778781603543 L 1410.9842350041495 55.39621092066079 L 1411.2401976825213 55.40579157658996 L 1411.495935630676 55.41652882576533 L 1411.751423275032 55.428421594470926 L 1412.0066350670377 55.44146869343979 L 1412.2615454857264 55.45566881797289 L 1412.5161290402689 55.47102054806961 L 1412.7703602725219 55.48752234856974 L 1413.0242137595737 55.50517256930697 L 1413.2776641162875 55.52396944527395 L 1413.5306859978389 55.54391109679874 L 1413.78325410225 55.56499552973279 L 1414.0353431729216 55.587220635650404 L 1414.2869280011562 55.61058419205949 L 1414.537983428681 55.63508386262389 L 1414.788484350162 55.660717197396956 L 1415.038405715716 55.687481633066575 L 1415.2877225334148 55.715374493211485 L 1415.5364098717844 55.744392988568904 L 1415.7844428622982 55.7745342173135 L 1416.0317967018636 55.8057951653475 L 1416.278446655303 55.83817270660215 L 1416.5243680578267 55.871663603350314 L 1416.7695363174992 55.90626450653023 L 1417.0139269176989 55.941971956080394 L 1417.2575154195692 55.97878238128563 L 1417.5002774644634 56.01669210113408 L 1417.742188776379 56.055697324685354 L 1417.983225164386 56.095794151449596 L 1418.2233625250474 56.136978571777554 L 1418.4625768448266 56.17924646726151 L 1418.700844202491 56.22259361114713 L 1418.9381407715036 56.267015668756166 L 1419.1744428224051 56.31250819791986 L 1419.4097267251873 56.35906664942321 L 1419.6439689516562 56.40668636745987 L 1419.8771460777841 56.455362590097714 L 1420.1092347860529 56.505090449755045 L 1420.340211867785 56.55586497368733 L 1420.570054225465 56.60768108448449 L 1420.7987388750482 56.66053360057863 L 1421.0262429482605 56.71441723676219 L 1421.2525436948843 56.76932660471643 L 1421.4776184850332 56.82525621355034 L 1421.701444811416 56.88220047034963 L 1421.9240002915865 56.940153680736074 L 1422.145262670182 56.999110049436936 L 1422.3652098211494 57.05906368086447 L 1422.5838197499568 57.120008579705484 L 1422.801070595793 57.1819386515209 L 1423.016940633755 57.244847703355134 L 1423.2314082770185 57.308729444355436 L 1423.4444520789982 57.373577486400926 L 1423.6560507354914 57.439385344741446 L 1423.8661830868086 57.506146438646006 L 1424.07482811989 57.57385409206084 L 1424.281964970406 57.642501534277045 L 1424.4875729248445 57.712081900607586 L 1424.6916314225807 57.78258823307383 L 1424.8941200579354 57.854013481101276 L 1425.095018582214 57.92635050222464 L 1425.2943069057308 57.99959206280211 L 1425.4919650998202 58.07373083873863 L 1425.687973398827 58.14875941621842 L 1425.882312202085 58.224670292446234 L 1426.0749620758754 58.30145587639771 L 1426.265903755372 58.379108489578456 L 1426.4551181465654 58.45762036679186 L 1426.6425863281743 58.53698365691561 L 1426.828289553537 58.61719042368684 L 1427.0122092524853 58.698232646495725 L 1427.194327033203 58.7801022211875 L 1427.3746246840635 58.86279096087293 L 1427.553084175452 58.94629059674695 L 1427.7296876615685 59.03059277891555 L 1427.9044174822109 59.115689077230776 L 1428.077256164543 59.2015709821337 L 1428.248186424841 59.2882299055054 L 1428.4171911702206 59.375657181525774 L 1428.5842535003485 59.46384406754005 L 1428.749356709131 59.55278174493313 L 1428.9124842863844 59.642461320011385 L 1429.0736199194873 59.73287382489204 L 1429.2327474950107 59.82401021839995 L 1429.3898511003295 59.91586138697171 L 1429.5449150252139 60.008418145567006 L 1429.697923763401 60.10167123858711 L 1429.848862014144 60.195611340800426 L 1429.997714683744 60.29022905827503 L 1430.1444668870583 60.385514929318006 L 1430.2891039489884 60.48145942542166 L 1430.4316114059486 60.57805295221634 L 1430.5719750073124 60.67528585042985 L 1430.7101807168362 60.77314839685341 L 1430.8462147140647 60.87163080531391 L 1430.980063395711 60.97072322765259 L 1431.1117133770188 61.07041575470979 L 1431.2411514930996 61.170698417315876 L 1431.3683648002495 61.271561187288164 L 1431.4933405772442 61.3729939784337 L 1431.6160663266098 61.47498664755789 L 1431.7365297758738 61.577528995478836 L 1431.8547188787913 61.68061076804718 L 1431.970621816551 61.78422165717158 L 1432.0842269989557 61.88835130184945 L 1432.1955230655813 61.99298928920311 L 1432.3044988869144 62.09812515552101 L 1432.4111435654634 62.203748387304145 L 1432.5154464368495 62.30984842231735 L 1432.6173970708724 62.416414650645535 L 1432.7169852725535 62.52343641575468 L 1432.814201083156 62.63090301555746 L 1432.9090347811793 62.73880370348344 L 1433.0014768833332 62.847127689553744 L 1433.091518145484 62.95586414146005 L 1433.179149563581 63.065002185647764 L 1433.2643623745553 63.174530908403426 L 1433.3471480571966 63.28443935694603 L 1433.4274983330056 63.39471654052231 L 1433.505405167022 63.50535143150581 L 1433.580860768627 63.61633296649962 L 1433.6538575923234 63.72765004744274 L 1433.72438833849 63.83929154271982 L 1433.7924459541105 63.951246288274376 L 1433.8580236334801 64.06350308872516 L 1433.9211148188858 64.17605071848564 L 1433.9817132012615 64.28887792288667 L 1434.0398127208193 64.40197341930181 L 1434.095407567656 64.51532589827566 L 1434.1484921823328 64.6289240246548 L 1434.1990612564327 64.74275643872124 L 1434.2471097330906 64.85681175732844 L 1434.2926328074986 64.97107857503958 L 1434.3356259273876 65.08554546526814 L 1434.3760847934807 65.20020098142045 L 1434.4140053599258 65.31503365804045 L 1434.4493838346973 65.43003201195617 L 1434.4822166799775 65.54518454342806 L 1434.5125006125093 65.66047973729893 L 1434.5402326039243 65.77590606414547 L 1434.5654098810467 65.89145198143119 L 1434.5880299261698 66.00710593466063 L 1434.608090477308 66.12285635853486 L 1434.6255895284228 66.23869167810795 L 1434.6405253296234 66.35460030994449 L 1434.6528963873427 66.47057066327784 L 1434.6627014644848 66.58659114116935 L 1434.6699395805504 66.70265014166789 L 1434.6746100117339 66.81873605897015 L 1434.6767122909957 66.9348372845811 M 1434.6768425879793 103.91451096179999 L 1434.6755584003906 104.03061462555635 L 1434.6717059660425 104.14670667904309 L 1434.6652856701753 104.2627755131516 L 1434.656298154813 104.37880952109519 L 1434.6447443186996 104.49479709956978 L 1434.6306253172093 104.61072664991414 L 1434.6139425622305 104.72658657926989 L 1434.5946977220246 104.8423653017406 L 1434.5728927210596 104.95805123955054 L 1434.5485297398177 105.0736328242023 L 1434.5216112145763 105.18909849763378 L 1434.4921398371657 105.3044367133738 L 1434.4601185546994 105.41963593769695 L 1434.4255505692784 105.53468465077678 L 1434.3884393376727 105.64957134783783 L 1434.3487885709746 105.76428454030618 L 1434.3066022342277 105.87881275695814 L 1434.2618845460304 105.9931445450675 L 1434.2146399781143 106.10726847155073 L 1434.164873254897 106.22117312411025 L 1434.112589353009 106.33484711237577 L 1434.0577935007973 106.44827906904317 L 1434.0004911778012 106.56145765101131 L 1433.9406881142054 106.67437154051632 L 1433.8783902902662 106.78700944626333 L 1433.8136039357144 106.89936010455563 L 1433.746335529131 107.01141228042103 L 1433.6765917973014 107.12315476873529 L 1433.6043797145398 107.23457639534273 L 1433.5297065019947 107.34566601817353 L 1433.4525796269252 107.45641252835797 L 1433.3730068019543 107.56680485133734 L 1433.2909959842984 107.67683194797132 L 1433.2065553749708 107.78648281564195 L 1433.119693417962 107.89574648935381 L 1433.0304187993954 108.00461204283062 L 1432.9387404466588 108.1130685896077 L 1432.8446675275104 108.22110528412082 L 1432.7482094491643 108.32871132279051 L 1432.6493758573476 108.4358759451026 L 1432.5481766353373 108.54258843468413 L 1432.4446219029712 108.6488381203751 L 1432.3387220156362 108.75461437729548 L 1432.2304875632328 108.8599066279077 L 1432.1199293691163 108.96470434307447 L 1432.0070584890136 109.0689970431116 L 1431.8918862099188 109.17277429883598 L 1431.774424048964 109.27602573260853 L 1431.6546837522671 109.37874101937192 L 1431.5326772937583 109.48090988768304 L 1431.4084168739814 109.58252212074024 L 1431.2819149188754 109.68356755740487 L 1431.1531840785296 109.78403609321748 L 1431.0222372259216 109.88391768140819 L 1430.889087455627 109.98320233390143 L 1430.753748082512 110.08188012231469 L 1430.6162326404012 110.17994117895135 L 1430.476554880724 110.27737569778748 L 1430.3347287711404 110.37417393545236 L 1430.1907684941427 110.47032621220293 L 1430.044688445639 110.5658229128916 L 1429.896503233512 110.66065448792793 L 1429.7462276761598 110.7548114542334 L 1429.5938768010128 110.84828439618985 L 1429.4394658430315 110.941063966581 L 1429.2830102431833 111.03314088752711 L 1429.1245256468972 111.12450595141281 L 1428.9640279025014 111.21515002180787 L 1428.801533059636 111.30506403438078 L 1428.6370573676506 111.39423899780519 L 1428.4706172739768 111.48266599465909 L 1428.3022294224852 111.57033618231648 L 1428.131910651821 111.65724079383165 L 1427.9596779937192 111.74337113881587 L 1427.785548671302 111.82871860430642 L 1427.6095400973563 111.91327465562787 L 1427.4316698725934 111.99703083724555 L 1427.2519557838873 112.07997877361109 L 1427.0704158024969 112.16211016999999 L 1426.8870680822693 112.24341681334106 L 1426.7019309578234 112.32389057303769 L 1426.515022942718 112.40352340178099 L 1426.326362727598 112.48230733635444 L 1426.1359691783287 112.56023449843025 L 1425.9438613341053 112.63729709535714 L 1425.750058405553 112.71348742093964 L 1425.5545797728028 112.78879785620869 L 1425.357444983555 112.8632208701835 L 1425.1586737511243 112.93674902062472 L 1424.9582859524685 113.00937495477855 L 1424.7563016262002 113.08109141011211 L 1424.5527409705837 113.15189121503964 L 1424.3476243415153 113.22176728963963 L 1424.1409722504866 113.29071264636286 L 1423.9328053625347 113.35872039073111 L 1423.7231444941747 113.42578372202661 L 1423.512010611319 113.49189593397213 L 1423.2994248271798 113.55705041540155 L 1423.0854084001583 113.62124065092104 L 1422.869982731719 113.68446022156053 L 1422.653169364249 113.74670280541565 L 1422.4349899789045 113.80796217827987 L 1422.2154663934423 113.86823221426694 L 1421.994620560038 113.92750688642352 L 1421.7724745630908 113.98578026733178 L 1421.5490506170154 114.04304652970217 L 1421.32437106402 114.09929994695618 L 1421.0984583718728 114.15453489379898 L 1420.8713351316549 114.20874584678191 L 1420.6430240555007 114.26192738485484 L 1420.413547974328 114.31407418990828 L 1420.1829298355533 114.36518104730519 L 1419.9511927007986 114.4152428464024 L 1419.718359743584 114.46425458106174 L 1419.4844542470114 114.51221135015058 L 1419.2494996014354 114.55910835803196 L 1419.013519302125 114.6049409150442 L 1418.776536946913 114.64970443796976 L 1418.5385762338378 114.69339445049368 L 1418.2996609587724 114.7360065836511 L 1418.059815013045 114.77753657626423 L 1417.8190623810506 114.81798027536838 L 1417.5774271378516 114.85733363662739 L 1417.334933446771 114.8955927247379 L 1417.0916055569758 114.93275371382298 L 1416.8474678010523 114.96881288781469 L 1416.6025445925723 115.0037666408257 L 1416.356860423653 115.03761147750981 L 1416.1104398625064 115.07034401341159 L 1415.863307550983 115.10196097530469 L 1415.6154882021085 115.13245920151928 L 1415.367006597611 115.16183564225817 L 1415.117887585444 115.19008735990175 L 1414.8681560773007 115.21721152930179 L 1414.6178370461241 115.24320543806398 L 1414.366955523609 115.26806648681908 L 1414.115536597698 115.29179218948295 L 1413.863605410075 115.31438017350509 L 1413.611187153648 115.33582818010592 L 1413.3583070700327 115.35613406450264 L 1413.1049904470265 115.37529579612375 L 1412.8512626160807 115.39331145881205 L 1412.5971489497672 115.41017925101629 L 1412.3426748592406 115.42589748597129 L 1412.087865791698 115.44046459186667 L 1411.8327472278336 115.45387911200397 L 1411.5773446792916 115.46613970494236 L 1411.3216836861136 115.47724514463276 L 1411.0657898141862 115.48719432054045 L 1410.8096886526832 115.49598623775614 L 1410.5534058115072 115.50362001709544 L 1410.296966918729 115.51009489518677 L 1410.040397618024 115.5154102245477 L 1409.7837235661086 115.51956547364975 L 1409.5269704301738 115.52256022697145 L 1409.2701638853198 115.52439418504 L 1409.0133296119866 115.52506716446106 L 1408.7564932933874 115.52457909793732 L 1408.4996806129407 115.52293003427498 L 1408.2429172516997 115.52012013837903 L 1407.986228885787 115.51614969123673 L 1407.7296411838256 115.51101908988952 L 1407.4731798043713 115.50472884739318 L 1407.2168703933487 115.4972795927668 L 1406.960738581485 115.48867207092958 L 1406.7048099817482 115.47890714262655 L 1406.4491101867848 115.4679857843424 L 1406.1936647663613 115.45590908820387 L 1405.938499264807 115.4426782618705 L 1405.6836391984593 115.42829462841388 L 1405.4291100531125 115.4127596261854 L 1405.1749372814688 115.39607480867232 L 1404.9211463005938 115.3782418443425 L 1404.6677624893741 115.35926251647749 L 1404.4148111859797 115.33913872299428 L 1404.16231768533 115.31787247625543 L 1403.9103072365647 115.29546590286792 L 1403.6588050405187 115.27192124347039 L 1403.407836247202 115.24724085250918 L 1403.1574259532847 115.2214271980028 L 1402.9075991995878 115.1944828612952 L 1402.658380968578 115.1664105367976 L 1402.4097961818713 115.13721303171906 L 1402.161869697739 115.10689326578573 L 1401.9146263086225 115.07545427094897 L 1401.668090738655 115.04289919108203 L 1401.4222876411884 115.0092312816658 L 1401.1772415963271 114.97445390946316 L 1400.9329771084715 114.93857055218234 L 1400.689518603867 114.90158479812916 L 1400.446890428161 114.86350034584822 L 1400.2051168439689 114.824321003753 L 1399.964222028448 114.78405068974506 L 1399.7242300708783 114.74269343082224 L 1399.4851649702564 114.70025336267598 L 1399.2470506328928 114.65673472927773 L 1399.0099108700226 114.61214188245454 L 1398.773769395425 114.56647928145395 L 1398.5386498230503 114.51975149249802 L 1398.3045756646595 114.47196318832667 L 1398.071570327474 114.42311914773052 L 1397.8396571118333 114.37322425507293 L 1397.6088592088652 114.32228349980157 L 1397.3791996981681 114.27030197594954 L 1397.1507015455015 114.21728488162587 L 1396.9233876004903 114.16323751849586 L 1396.6972805943396 114.10816529125074 L 1396.4724031375615 114.05207370706736 L 1396.2487777177143 113.9949683750574 L 1396.026426697154 113.93685500570646 L 1395.8053723107967 113.87773941030305 L 1395.5856366638973 113.81762750035746 L 1395.3672417298371 113.75652528701059 L 1395.150209347928 113.69443888043284 L 1394.9345612212267 113.63137448921314 L 1394.7203189143665 113.56733841973806 L 1394.5075038513996 113.5023370755612 L 1394.2961373136548 113.43637695676277 L 1394.0862404376098 113.36946465929971 L 1393.877834212777 113.301606874346 L 1393.670939479606 113.2328103876236 L 1393.4655769273968 113.16308207872383 L 1393.261767092234 113.0924289204195 L 1393.0595303549312 113.02085797796754 L 1392.8588869389937 112.94837640840255 L 1392.6598569085957 112.8749914598211 L 1392.4624601665741 112.8007104706569 L 1392.2667164524394 112.72554086894695 L 1392.072645340399 112.64949017158878 L 1391.8802662374032 112.57256598358876 L 1391.6895983812014 112.49477599730159 L 1391.5006608384206 112.41612799166106 L 1391.3134725026575 112.3366298314022 L 1391.1280520925898 112.2562894662748 L 1390.9444181501037 112.1751149302484 L 1390.7625890384409 112.09311434070896 L 1390.5825829403607 112.01029589764713 L 1390.404417856323 111.92666788283817 L 1390.228111602688 111.84223865901389 L 1390.0536818099336 111.7570166690263 L 1389.881145920894 111.67101043500338 L 1389.7105211890143 111.58422855749687 L 1389.5418246766255 111.4966797146222 L 1389.3750732532385 111.40837266119071 L 1389.2102835938563 111.31931622783415 L 1389.0474721773078 111.22951932012163 L 1388.8866552845986 111.13899091766909 L 1388.7278489972844 111.04774007324134 L 1388.5710691958614 110.9557759118468 L 1388.416331558179 110.86310762982494 L 1388.2636515578722 110.76974449392677 L 1388.1130444628136 110.67569584038806 L 1387.9645253335875 110.58097107399578 L 1387.8181090219828 110.48557966714766 L 1387.6738101695087 110.38953115890487 L 1387.53164320593 110.2928351540382 L 1387.3916223478252 110.19550132206757 L 1387.2537615971628 110.09753939629505 L 1387.1180747399032 109.99895917283158 L 1386.984575344619 109.89977050961737 L 1386.8532767611389 109.79998332543607 L 1386.7241921192112 109.69960759892295 L 1386.5973343271928 109.59865336756702 L 1386.4727160707573 109.4971307267073 L 1386.3503498116263 109.39504982852324 L 1386.2302477863238 109.29242088101961 L 1386.1124220049524 109.18925414700563 L 1385.9968842499918 109.08555994306874 L 1385.8836460751213 108.98134863854291 L 1385.7727188040642 108.87663065447177 L 1385.6641135294549 108.77141646256644 L 1385.5578411117306 108.66571658415843 L 1385.4539121780442 108.55954158914753 L 1385.352337121203 108.45290209494473 L 1385.2531260986273 108.3458087654106 L 1385.1562890313373 108.23827230978884 L 1385.0618356029588 108.1303034816354 L 1384.9697752587558 108.02191307774314 L 1384.8801172046863 107.9131119370621 L 1384.7928704064807 107.80391093961568 L 1384.7080435887462 107.69432100541265 L 1384.6256452340942 107.58435309335508 L 1384.545683582291 107.47401820014255 L 1384.4681666294355 107.36332735917243 L 1384.3931021271583 107.25229163943658 L 1384.320497581847 107.14092214441445 L 1384.2503602538955 107.0292300109627 L 1384.1826971569783 106.91722640820164 L 1384.1175150573488 106.80492253639821 L 1384.0548204731626 106.69232962584596 L 1383.9946196738258 106.57945893574217 L 1383.9369186793683 106.46632175306175 L 1383.8817232598415 106.35292939142872 L 1383.829038934741 106.23929318998472 L 1383.7788709724555 106.12542451225522 L 1383.7312243897397 106.0113347450131 L 1383.686103951212 105.89703529714001 L 1383.6435141688787 105.78253759848548 L 1383.6034593016825 105.66785309872397 L 1383.5659433550768 105.55299326620987 L 1383.530970080625 105.43796958683073 L 1383.4985429756252 105.32279356285864 L 1383.468665282761 105.2074767118 L 1383.4413399897771 105.09203056524383 L 1383.4165698291795 104.97646666770858 L 1383.394357277964 104.8607965754877 L 1383.3747045573668 104.74503185549402 L 1383.3576136326442 104.62918408410306 L 1383.343086212874 104.51326484599544 L 1383.331123750786 104.39728573299836 L 1383.3217274426165 104.28125834292646 L 1383.3148982279888 104.16519427842208 L 1383.3106367898185 104.04910514579494 L 1383.3089435542458 103.93300255386156" stroke-miterlimit="10" stroke-width="2.990598758" stroke-dasharray=""/></g><g><g/><text fill="black" stroke="none" font-family="sans-serif" font-size="11pt" font-style="normal" font-weight="normal" text-decoration="normal" x="1376.290667311323" y="134.401026536" text-anchor="start" dominant-baseline="alphabetic">Database</text></g></g><g><path fill="white" stroke="black" paint-order="fill stroke markers" d=" M 345.8464285074284 197.73135317599997 L 363.4381859074284 197.73135317599997 L 363.4381859074284 890.8465947359999 L 345.8464285074284 890.8465947359999 L 345.8464285074284 197.73135317599997" stroke-miterlimit="10" stroke-width="1.4659797833333332" stroke-dasharray=""/><path fill="white" stroke="black" paint-order="fill stroke markers" d=" M 605.1082320051498 246.98827389599995 L 622.6999894051498 246.98827389599995 L 622.6999894051498 841.5896740159999 L 605.1082320051498 841.5896740159999 L 605.1082320051498 246.98827389599995" stroke-miterlimit="10" stroke-width="1.4659797833333332" stroke-dasharray=""/><path fill="white" stroke="black" paint-order="fill stroke markers" d=" M 354.6423072074284 246.98827389599995 L 372.2340646074284 246.98827389599995 L 372.2340646074284 676.2271544559999 L 354.6423072074284 676.2271544559999 L 354.6423072074284 246.98827389599995" stroke-miterlimit="10" stroke-width="1.4659797833333332" stroke-dasharray=""/><path fill="white" stroke="black" paint-order="fill stroke markers" d=" M 613.9041107051498 313.83695201599994 L 631.4958681051498 313.83695201599994 L 631.4958681051498 743.0758325759998 L 613.9041107051498 743.0758325759998 L 613.9041107051498 313.83695201599994" stroke-miterlimit="10" stroke-width="1.4659797833333332" stroke-dasharray=""/><path fill="white" stroke="black" paint-order="fill stroke markers" d=" M 108.26529985228517 412.3507934559999 L 125.85705725228517 412.3507934559999 L 125.85705725228517 626.9702337359998 L 108.26529985228517 626.9702337359998 L 108.26529985228517 412.3507934559999" stroke-miterlimit="10" stroke-width="1.4659797833333332" stroke-dasharray=""/><g><g><rect fill="white" stroke="none" x="153.3133714390267" y="174.86206855599997" width="64.11076391433593" height="22.86928462"/></g><text fill="black" stroke="none" font-family="sans-serif" font-size="11pt" font-style="normal" font-weight="normal" text-decoration="normal" x="155.9521350490267" y="190.69465021599999" text-anchor="start" dominant-baseline="alphabetic">logOut()</text></g><g><path fill="none" stroke="black" paint-order="fill stroke markers" d=" M 24.891078284960937 197.73135317599997 L 342.91446894076176 197.73135317599997" stroke-miterlimit="10" stroke-width="1.4659797833333332" stroke-dasharray=""/><g transform="translate(345.8464285074284,197.73135317599997) translate(-345.8464285074284,-197.73135317599997)"><path fill="black" stroke="none" paint-order="stroke fill markers" d=" M 331.18663067409506 190.4014542593333 L 345.8464285074284 197.73135317599997 L 331.18663067409506 205.06125209266665 Z"/></g></g><g><g><rect fill="white" stroke="none" x="456.61576634912115" y="224.11898927599995" width="64.11076391433593" height="22.86928462"/></g><text fill="black" stroke="none" font-family="sans-serif" font-size="11pt" font-style="normal" font-weight="normal" text-decoration="normal" x="459.25452995912116" y="239.95157093599997" text-anchor="start" dominant-baseline="alphabetic">logOut()</text></g><g><path fill="none" stroke="black" paint-order="fill stroke markers" d=" M 372.2340646074284 246.98827389599995 L 602.1762724384831 246.98827389599995" stroke-miterlimit="10" stroke-width="1.4659797833333332" stroke-dasharray=""/><g transform="translate(605.1082320051498,246.98827389599995) translate(-605.1082320051498,-246.98827389599995)"><path fill="black" stroke="none" paint-order="stroke fill markers" d=" M 590.4484341718165 239.65837497933327 L 605.1082320051498 246.98827389599995 L 590.4484341718165 254.31817281266663 Z"/></g></g><g><g><rect fill="white" stroke="none" x="652.3127810284832" y="273.37590999599996" width="126.03630102371093" height="22.86928462"/></g><text fill="black" stroke="none" font-family="sans-serif" font-size="11pt" font-style="normal" font-weight="normal" text-decoration="normal" x="654.9515446384831" y="289.208491656" text-anchor="start" dominant-baseline="alphabetic">notifyObservers()</text></g><g><path fill="none" stroke="black" paint-order="fill stroke markers" d=" M 622.6999894051498 296.24519461599994 L 701.8628977051499 296.24519461599994 L 701.8628977051499 313.83695201599994 L 634.4278276718165 313.83695201599994" stroke-miterlimit="10" stroke-width="1.4659797833333332" stroke-dasharray=""/><g transform="translate(631.4958681051498,313.83695201599994) translate(-631.4958681051498,-313.83695201599994)"><path fill="black" stroke="none" paint-order="stroke fill markers" d=" M 646.1556659384831 306.5070530993333 L 631.4958681051498 313.83695201599994 L 646.1556659384831 321.1668509326666 Z"/></g></g><g><g><rect fill="white" stroke="none" x="397.4489168807618" y="340.22458811599995" width="191.24034155105468" height="22.86928462"/></g><text fill="black" stroke="none" font-family="sans-serif" font-size="11pt" font-style="normal" font-weight="normal" text-decoration="normal" x="400.0876804907618" y="356.05716977599997" text-anchor="start" dominant-baseline="alphabetic">message(confirm:Boolean)</text></g><g><path fill="none" stroke="black" paint-order="fill stroke markers" d=" M 613.9041107051498 363.0938727359999 L 375.16602417409507 363.0938727359999" stroke-miterlimit="10" stroke-width="1.4659797833333332" stroke-dasharray=""/><g transform="translate(372.2340646074284,363.0938727359999) translate(-372.2340646074284,-363.0938727359999)"><path fill="black" stroke="none" paint-order="stroke fill markers" d=" M 386.8938624407618 355.7639738193333 L 372.2340646074284 363.0938727359999 L 386.8938624407618 370.4237716526666 Z"/></g></g><g><g><rect fill="white" stroke="none" x="151.07190952561848" y="389.48150883599993" width="178.35554540847656" height="22.86928462"/></g><text fill="black" stroke="none" font-family="sans-serif" font-size="11pt" font-style="normal" font-weight="normal" text-decoration="normal" x="153.7106731356185" y="405.31409049599995" text-anchor="start" dominant-baseline="alphabetic">Alert(comfirm:AlertType)</text></g><g><path fill="none" stroke="black" paint-order="fill stroke markers" d=" M 354.6423072074284 412.3507934559999 L 128.78901681895184 412.3507934559999" stroke-miterlimit="10" stroke-width="1.4659797833333332" stroke-dasharray=""/><g transform="translate(125.85705725228517,412.3507934559999) translate(-125.85705725228517,-412.3507934559999)"><path fill="black" stroke="none" paint-order="stroke fill markers" d=" M 140.51685508561852 405.02089453933326 L 125.85705725228517 412.3507934559999 L 140.51685508561852 419.68069237266656 Z"/></g></g><g><g><rect fill="white" stroke="none" x="63.93942545862305" y="438.7384295559999" width="5.27752722" height="22.86928462"/></g><text fill="black" stroke="none" font-family="sans-serif" font-size="11pt" font-style="normal" font-weight="normal" text-decoration="normal" x="66.57818906862305" y="454.57101121599993" text-anchor="start" dominant-baseline="alphabetic"></text></g><g><path fill="none" stroke="black" paint-order="fill stroke markers" d=" M 108.26529985228517 461.6077141759999 L 27.823037851627603 461.6077141759999" stroke-miterlimit="10" stroke-width="1.4659797833333332" stroke-dasharray=""/><g transform="translate(24.891078284960937,461.6077141759999) translate(-24.891078284960937,-461.6077141759999)"><path fill="black" stroke="none" paint-order="stroke fill markers" d=" M 39.55087611829427 454.27781525933324 L 24.891078284960937 461.6077141759999 L 39.55087611829427 468.93761309266654 Z"/></g></g><g><g><rect fill="white" stroke="none" x="63.93942545862305" y="487.9953502759999" width="5.27752722" height="22.86928462"/></g><text fill="black" stroke="none" font-family="sans-serif" font-size="11pt" font-style="normal" font-weight="normal" text-decoration="normal" x="66.57818906862305" y="503.8279319359999" text-anchor="start" dominant-baseline="alphabetic"></text></g><g><path fill="none" stroke="black" paint-order="fill stroke markers" d=" M 24.891078284960937 510.86463489599987 L 105.3333402856185 510.86463489599987" stroke-miterlimit="10" stroke-width="1.4659797833333332" stroke-dasharray="7.0367029599999995"/><g transform="translate(108.26529985228517,510.86463489599987) translate(-108.26529985228517,-510.86463489599987)"><path fill="black" stroke="none" paint-order="stroke fill markers" d=" M 93.60550201895184 503.5347359793332 L 108.26529985228517 510.86463489599987 L 93.60550201895184 518.1945338126666 Z"/></g></g><path fill="white" stroke="black" paint-order="fill stroke markers" d=" M 42.482835684960946 537.2522709959998 L 175.8069397596094 537.2522709959998 L 191.6395214196094 553.0848526559997 L 191.6395214196094 577.7133130159998 L 42.482835684960946 577.7133130159998 L 42.482835684960946 537.2522709959998 M 175.8069397596094 537.2522709959998 L 175.8069397596094 553.0848526559997 L 191.6395214196094 553.0848526559997" stroke-miterlimit="10" stroke-width="1.4659797833333332" stroke-dasharray=""/><g><text fill="black" stroke="none" font-family="sans-serif" font-size="11pt" font-style="normal" font-weight="normal" text-decoration="normal" x="67.11129604496095" y="561.8807313559998" text-anchor="start" dominant-baseline="alphabetic">Stuff press OK</text></g><g><g><rect fill="white" stroke="none" x="199.7154413249349" y="604.1009491159998" width="81.06848180984375" height="22.86928462"/></g><text fill="black" stroke="none" font-family="sans-serif" font-size="11pt" font-style="normal" font-weight="normal" text-decoration="normal" x="202.3542049349349" y="619.9335307759998" text-anchor="start" dominant-baseline="alphabetic">return true</text></g><g><path fill="none" stroke="black" paint-order="fill stroke markers" d=" M 125.85705725228517 626.9702337359998 L 351.71034764076177 626.9702337359998" stroke-miterlimit="10" stroke-width="1.4659797833333332" stroke-dasharray="7.0367029599999995"/><g transform="translate(354.6423072074284,626.9702337359998) translate(-354.6423072074284,-626.9702337359998)"><path fill="black" stroke="none" paint-order="stroke fill markers" d=" M 339.98250937409506 619.6403348193331 L 354.6423072074284 626.9702337359998 L 339.98250937409506 634.3001326526665 Z"/></g></g><g><g><rect fill="white" stroke="none" x="452.53484675136724" y="653.3578698359998" width="81.06848180984375" height="22.86928462"/></g><text fill="black" stroke="none" font-family="sans-serif" font-size="11pt" font-style="normal" font-weight="normal" text-decoration="normal" x="455.17361036136725" y="669.1904514959998" text-anchor="start" dominant-baseline="alphabetic">retrun true</text></g><g><path fill="none" stroke="black" paint-order="fill stroke markers" d=" M 372.2340646074284 676.2271544559999 L 610.9721511384831 676.2271544559999" stroke-miterlimit="10" stroke-width="1.4659797833333332" stroke-dasharray=""/><g transform="translate(613.9041107051498,676.2271544559999) translate(-613.9041107051498,-676.2271544559999)"><path fill="black" stroke="none" paint-order="stroke fill markers" d=" M 599.2443128718165 668.8972555393332 L 613.9041107051498 676.2271544559999 L 599.2443128718165 683.5570533726666 Z"/></g></g><g><g><rect fill="white" stroke="none" x="652.3127810284832" y="702.6147905559998" width="5.27752722" height="22.86928462"/></g><text fill="black" stroke="none" font-family="sans-serif" font-size="11pt" font-style="normal" font-weight="normal" text-decoration="normal" x="654.9515446384831" y="718.4473722159997" text-anchor="start" dominant-baseline="alphabetic"></text></g><g><path fill="none" stroke="black" paint-order="fill stroke markers" d=" M 631.4958681051498 725.4840751759998 L 701.8628977051499 725.4840751759998 L 701.8628977051499 743.0758325759998 L 634.4278276718165 743.0758325759998" stroke-miterlimit="10" stroke-width="1.4659797833333332" stroke-dasharray="7.0367029599999995"/><g transform="translate(631.4958681051498,743.0758325759998) translate(-631.4958681051498,-743.0758325759998)"><path fill="black" stroke="none" paint-order="stroke fill markers" d=" M 646.1556659384831 735.7459336593331 L 631.4958681051498 743.0758325759998 L 646.1556659384831 750.4057314926665 Z"/></g></g><g><g><rect fill="white" stroke="none" x="451.9100343355469" y="769.4634686759998" width="64.72634924148437" height="22.86928462"/></g><text fill="black" stroke="none" font-family="sans-serif" font-size="11pt" font-style="normal" font-weight="normal" text-decoration="normal" x="454.54879794554694" y="785.2960503359998" text-anchor="start" dominant-baseline="alphabetic">update()</text></g><g><path fill="none" stroke="black" paint-order="fill stroke markers" d=" M 605.1082320051498 792.3327532959999 L 366.37014547409507 792.3327532959999" stroke-miterlimit="10" stroke-width="1.4659797833333332" stroke-dasharray=""/><g transform="translate(363.4381859074284,792.3327532959999) translate(-363.4381859074284,-792.3327532959999)"><path fill="black" stroke="none" paint-order="stroke fill markers" d=" M 378.0979837407618 785.0028543793331 L 363.4381859074284 792.3327532959999 L 378.0979837407618 799.6626522126666 Z"/></g></g><g><g><rect fill="white" stroke="none" x="481.6344453462891" y="818.7203893959999" width="5.27752722" height="22.86928462"/></g><text fill="black" stroke="none" font-family="sans-serif" font-size="11pt" font-style="normal" font-weight="normal" text-decoration="normal" x="484.2732089562891" y="834.5529710559998" text-anchor="start" dominant-baseline="alphabetic"></text></g><g><path fill="none" stroke="black" paint-order="fill stroke markers" d=" M 605.1082320051498 841.5896740159999 L 366.37014547409507 841.5896740159999" stroke-miterlimit="10" stroke-width="1.4659797833333332" stroke-dasharray="7.0367029599999995"/><g transform="translate(363.4381859074284,841.5896740159999) translate(-363.4381859074284,-841.5896740159999)"><path fill="black" stroke="none" paint-order="stroke fill markers" d=" M 378.0979837407618 834.2597750993332 L 363.4381859074284 841.5896740159999 L 378.0979837407618 848.9195729326666 Z"/></g></g><g><g><rect fill="white" stroke="none" x="182.72998978619466" y="867.9773101159999" width="5.27752722" height="22.86928462"/></g><text fill="black" stroke="none" font-family="sans-serif" font-size="11pt" font-style="normal" font-weight="normal" text-decoration="normal" x="185.36875339619468" y="883.8098917759999" text-anchor="start" dominant-baseline="alphabetic"></text></g><g><path fill="none" stroke="black" paint-order="fill stroke markers" d=" M 345.8464285074284 890.8465947359999 L 27.823037851627603 890.8465947359999" stroke-miterlimit="10" stroke-width="1.4659797833333332" stroke-dasharray="7.0367029599999995"/><g transform="translate(24.891078284960937,890.8465947359999) translate(-24.891078284960937,-890.8465947359999)"><path fill="black" stroke="none" paint-order="stroke fill markers" d=" M 39.55087611829427 883.5166958193332 L 24.891078284960937 890.8465947359999 L 39.55087611829427 898.1764936526666 Z"/></g></g></g><g/><g/><g/><g/><g/><g/><g/><g/><g/></g></svg>