<svg version="1.1" xmlns="http://www.w3.org/2000/svg" xmlns:xlink="http://www.w3.org/1999/xlink" width="2667" height="1900"><defs/><g><g/><g/><g/><g/><g/><g/><g/><g/><g/><g/><g/><g/><g/><g/><g/><g/><g/><g/><g/><g/><g/><g/><g/><g/><g/><g/><g/><g/><g/><g/><g/><g/><g><rect fill="white" stroke="none" x="0" y="0" width="2667" height="1900"/></g><g><text fill="black" stroke="none" font-family="sans-serif" font-size="16.5pt" font-style="normal" font-weight="normal" text-decoration="normal" x="1242.4751485546676" y="26.3876361" text-anchor="start" dominant-baseline="alphabetic">Book a room BCE</text></g><g/><g><path fill="none" stroke="black" paint-order="fill stroke markers" d=" M 24.891078284960937 139.67855375599999 L 24.891078284960937 1900.1912673183988" stroke-miterlimit="10" stroke-width="1.4659797833333332" stroke-dasharray="13.532121076923076,5.863919133333333"/><path fill="none" stroke="black" paint-order="fill stroke markers" d=" M 130.22085753554688 139.67855375599999 L 130.22085753554688 1900.1912673183988" stroke-miterlimit="10" stroke-width="1.4659797833333332" stroke-dasharray="13.532121076923076,5.863919133333333"/><path fill="none" stroke="black" paint-order="fill stroke markers" d=" M 345.5901484221354 139.67855375599999 L 345.5901484221354 1900.1912673183988" stroke-miterlimit="10" stroke-width="1.4659797833333332" stroke-dasharray="13.532121076923076,5.863919133333333"/><path fill="none" stroke="black" paint-order="fill stroke markers" d=" M 745.3816302645834 139.67855375599999 L 745.3816302645834 1900.1912673183988" stroke-miterlimit="10" stroke-width="1.4659797833333332" stroke-dasharray="13.532121076923076,5.863919133333333"/><path fill="none" stroke="black" paint-order="fill stroke markers" d=" M 1292.5160411182292 139.67855375599999 L 1292.5160411182292 1900.1912673183988" stroke-miterlimit="10" stroke-width="1.4659797833333332" stroke-dasharray="13.532121076923076,5.863919133333333"/><path fill="none" stroke="black" paint-order="fill stroke markers" d=" M 1535.1795367167317 139.67855375599999 L 1535.1795367167317 1900.1912673183988" stroke-miterlimit="10" stroke-width="1.4659797833333332" stroke-dasharray="13.532121076923076,5.863919133333333"/><path fill="none" stroke="black" paint-order="fill stroke markers" d=" M 1786.9643058551433 139.67855375599999 L 1786.9643058551433 1900.1912673183988" stroke-miterlimit="10" stroke-width="1.4659797833333332" stroke-dasharray="13.532121076923076,5.863919133333333"/><path fill="none" stroke="black" paint-order="fill stroke markers" d=" M 1960.8941019840418 139.67855375599999 L 1960.8941019840418 1900.1912673183988" stroke-miterlimit="10" stroke-width="1.4659797833333332" stroke-dasharray="13.532121076923076,5.863919133333333"/><path fill="none" stroke="black" paint-order="fill stroke markers" d=" M 2215.089396898951 139.67855375599999 L 2215.089396898951 1900.1912673183988" stroke-miterlimit="10" stroke-width="1.4659797833333332" stroke-dasharray="13.532121076923076,5.863919133333333"/><path fill="none" stroke="black" paint-order="fill stroke markers" d=" M 2298.7021858836188 139.67855375599999 L 2298.7021858836188 1900.1912673183988" stroke-miterlimit="10" stroke-width="1.4659797833333332" stroke-dasharray="13.532121076923076,5.863919133333333"/><path fill="none" stroke="black" paint-order="fill stroke markers" d=" M 2391.902402756275 139.67855375599999 L 2391.902402756275 1900.1912673183988" stroke-miterlimit="10" stroke-width="1.4659797833333332" stroke-dasharray="13.532121076923076,5.863919133333333"/><path fill="none" stroke="black" paint-order="fill stroke markers" d=" M 2618.1490396861905 1229.9453103783997 L 2618.1490396861905 1900.1912673183988" stroke-miterlimit="10" stroke-width="1.4659797833333332" stroke-dasharray="13.532121076923076,5.863919133333333"/></g><g><g><path fill="white" stroke="black" paint-order="fill stroke markers" d=" M 34.91838000296094 65.265419954 A 10.027301717999999 10.027301717999999 0 1 1 34.91837498931049 65.25539265395321 M 24.891078284960937 75.29272167199998 L 24.891078284960937 96.75466569999998 M 12.225012956960938 83.033094928 L 37.557143612960935 83.033094928 M 24.891078284960937 96.75466569999998 L 12.225012956960938 116.80926913599998 M 24.891078284960937 96.75466569999998 L 37.557143612960935 116.80926913599998" stroke-miterlimit="10" stroke-width="2.990598758" stroke-dasharray=""/></g><g><g/><text fill="black" stroke="none" font-family="sans-serif" font-size="11pt" font-style="normal" font-weight="normal" text-decoration="normal" x="8.7958787" y="134.401026536" text-anchor="start" dominant-baseline="alphabetic">Staff</text></g><g><path fill="white" stroke="black" paint-order="fill stroke markers" d=" M 165.1404959745469 89.19021001799997 A 26.123759739 26.123759739 0 1 1 165.14048291266812 89.16408626261492 M 96.79651847554688 61.57115089999997 L 96.79651847554688 116.80926913599997 M 95.30121909654687 89.19021001799997 L 112.89297649654688 89.19021001799997" stroke-miterlimit="10" stroke-width="2.990598758" stroke-dasharray=""/></g><g><g/><text fill="black" stroke="none" font-family="sans-serif" font-size="11pt" font-style="normal" font-weight="normal" text-decoration="normal" x="58.578035269921884" y="134.401026536" text-anchor="start" dominant-baseline="alphabetic">AddABookingDialog</text></g><g><path fill="white" stroke="black" paint-order="fill stroke markers" d=" M 380.5097868611354 89.19021001799997 A 26.123759739 26.123759739 0 1 1 380.50977379925666 89.16408626261492 M 312.16580936213546 61.57115089999997 L 312.16580936213546 116.80926913599997 M 310.67050998313545 89.19021001799997 L 328.26226738313545 89.19021001799997" stroke-miterlimit="10" stroke-width="2.990598758" stroke-dasharray=""/></g><g><g/><text fill="black" stroke="none" font-family="sans-serif" font-size="11pt" font-style="normal" font-weight="normal" text-decoration="normal" x="321.86788890065105" y="134.401026536" text-anchor="start" dominant-baseline="alphabetic">StaffUI</text></g><g><path fill="white" stroke="black" paint-order="fill stroke markers" d=" M 771.5053900035833 89.19021001799997 A 26.123759739 26.123759739 0 1 1 771.5053769417045 89.16408626261492 M 741.8632787845834 63.06645027899997 L 752.4183332245834 54.27057157899998 M 741.8632787845834 63.06645027899997 L 752.4183332245834 71.86232897899997" stroke-miterlimit="10" stroke-width="2.990598758" stroke-dasharray=""/></g><g><g/><text fill="black" stroke="none" font-family="sans-serif" font-size="11pt" font-style="normal" font-weight="normal" text-decoration="normal" x="691.0544894564779" y="134.401026536" text-anchor="start" dominant-baseline="alphabetic">BookingSystem</text></g><path fill="none" stroke="none"/><g><path fill="white" stroke="black" paint-order="fill stroke markers" d=" M 1254.2593294930377 92.18080877599999 L 1330.7727527434206 92.18080877599999 L 1330.7727527434206 139.67855375599999 L 1254.2593294930377 139.67855375599999 L 1254.2593294930377 92.18080877599999 Z" stroke-miterlimit="10" stroke-width="2.814681184" stroke-dasharray=""/></g><g><g/><text fill="black" stroke="none" font-family="sans-serif" font-size="11pt" font-style="normal" font-weight="normal" text-decoration="normal" x="1273.3463862720378" y="122.08679635600001" text-anchor="start" dominant-baseline="alphabetic">Hotel</text></g><path fill="none" stroke="none"/><g><path fill="white" stroke="black" paint-order="fill stroke markers" d=" M 1467.5849573547239 92.18080877599999 L 1602.7741160787396 92.18080877599999 L 1602.7741160787396 139.67855375599999 L 1467.5849573547239 139.67855375599999 L 1467.5849573547239 92.18080877599999 Z" stroke-miterlimit="10" stroke-width="2.814681184" stroke-dasharray=""/></g><g><g/><text fill="black" stroke="none" font-family="sans-serif" font-size="11pt" font-style="normal" font-weight="normal" text-decoration="normal" x="1486.672014133724" y="122.08679635600001" text-anchor="start" dominant-baseline="alphabetic">RoomMapper</text></g><path fill="none" stroke="none"/><g><path fill="white" stroke="black" paint-order="fill stroke markers" d=" M 1706.3131850502643 92.18080877599999 L 1867.6154266600222 92.18080877599999 L 1867.6154266600222 139.67855375599999 L 1706.3131850502643 139.67855375599999 L 1706.3131850502643 92.18080877599999 Z" stroke-miterlimit="10" stroke-width="2.814681184" stroke-dasharray=""/></g><g><g/><text fill="black" stroke="none" font-family="sans-serif" font-size="11pt" font-style="normal" font-weight="normal" text-decoration="normal" x="1725.4002418292644" y="122.08679635600001" text-anchor="start" dominant-baseline="alphabetic">CustomerMapper</text></g><path fill="none" stroke="none"/><g><path fill="white" stroke="black" paint-order="fill stroke markers" d=" M 1885.2071840600222 92.18080877599999 L 2036.5810199080613 92.18080877599999 L 2036.5810199080613 139.67855375599999 L 1885.2071840600222 139.67855375599999 L 1885.2071840600222 92.18080877599999 Z" stroke-miterlimit="10" stroke-width="2.814681184" stroke-dasharray=""/></g><g><g/><text fill="black" stroke="none" font-family="sans-serif" font-size="11pt" font-style="normal" font-weight="normal" text-decoration="normal" x="1904.2942408390222" y="122.08679635600001" text-anchor="start" dominant-baseline="alphabetic">BookingMapper</text></g><g><path fill="white" stroke="black" paint-order="fill stroke markers" d=" M 2189.405431094951 105.19870925199999 L 2189.405431094951 68.25601871199999 L 2240.7733627029506 68.25601871199999 L 2240.7733627029506 105.19870925199999" stroke-miterlimit="10" stroke-width="2.990598758" stroke-dasharray=""/><path fill="white" stroke="black" paint-order="fill stroke markers" d=" M 2240.7733627029506 66.97182042179999 L 2240.7720785153624 67.08792408555635 L 2240.7682260810143 67.20401613904309 L 2240.761805785147 67.3200849731516 L 2240.7528182697847 67.43611898109519 L 2240.7412644336714 67.55210655956978 L 2240.727145432181 67.66803610991414 L 2240.710462677202 67.78389603926989 L 2240.691217836996 67.8996747617406 L 2240.6694128360314 68.01536069955054 L 2240.6450498547892 68.1309422842023 L 2240.618131329548 68.24640795763378 L 2240.5886599521373 68.3617461733738 L 2240.556638669671 68.47694539769695 L 2240.52207068425 68.59199411077678 L 2240.4849594526445 68.70688080783783 L 2240.445308685946 68.82159400030618 L 2240.4031223491993 68.93612221695814 L 2240.358404661002 69.0504540050675 L 2240.311160093086 69.16457793155072 L 2240.2613933698685 69.27848258411025 L 2240.209109467981 69.39215657237577 L 2240.154313615769 69.50558852904317 L 2240.097011292773 69.61876711101131 L 2240.037208229177 69.73168100051632 L 2239.974910405238 69.84431890626333 L 2239.910124050686 69.95666956455563 L 2239.8428556441027 70.06872174042103 L 2239.7731119122727 70.18046422873529 L 2239.7008998295114 70.29188585534273 L 2239.626226616966 70.40297547817353 L 2239.5490997418965 70.51372198835797 L 2239.469526916926 70.62411431133734 L 2239.3875160992698 70.73414140797132 L 2239.3030754899423 70.84379227564195 L 2239.2162135329336 70.95305594935381 L 2239.126938914367 71.06192150283061 L 2239.0352605616304 71.1703780496077 L 2238.941187642482 71.27841474412082 L 2238.844729564136 71.38602078279051 L 2238.745895972319 71.4931854051026 L 2238.644696750309 71.59989789468413 L 2238.5411420179425 71.7061475803751 L 2238.4352421306075 71.81192383729548 L 2238.3270076782046 71.9172160879077 L 2238.2164494840877 72.02201380307447 L 2238.103578603985 72.12630650311159 L 2237.9884063248905 72.23008375883597 L 2237.8709441639357 72.33333519260853 L 2237.7512038672385 72.43605047937191 L 2237.62919740873 72.53821934768304 L 2237.504936988953 72.63983158074024 L 2237.378435033847 72.74087701740487 L 2237.249704193501 72.84134555321748 L 2237.1187573408934 72.94122714140819 L 2236.9856075705984 73.04051179390143 L 2236.8502681974837 73.13918958231469 L 2236.7127527553725 73.23725063895135 L 2236.5730749956956 73.33468515778748 L 2236.431248886112 73.43148339545236 L 2236.287288609114 73.52763567220293 L 2236.1412085606103 73.6231323728916 L 2235.993023348484 73.71796394792793 L 2235.8427477911314 73.8121209142334 L 2235.6903969159844 73.90559385618985 L 2235.535985958003 73.998373426581 L 2235.3795303581546 74.09045034752711 L 2235.221045761869 74.18181541141281 L 2235.060548017473 74.27245948180787 L 2234.898053174608 74.36237349438078 L 2234.733577482622 74.45154845780519 L 2234.567137388948 74.53997545465909 L 2234.3987495374568 74.62764564231648 L 2234.2284307667924 74.71455025383165 L 2234.0561981086908 74.80068059881587 L 2233.8820687862735 74.88602806430642 L 2233.706060212328 74.97058411562787 L 2233.528189987565 75.05434029724555 L 2233.348475898859 75.13728823361109 L 2233.1669359174684 75.21941962999999 L 2232.983588197241 75.30072627334106 L 2232.798451072795 75.38120003303769 L 2232.6115430576892 75.46083286178099 L 2232.42288284257 75.53961679635444 L 2232.2324892933 75.61754395843025 L 2232.040381449077 75.69460655535714 L 2231.8465785205244 75.77079688093964 L 2231.6510998877743 75.84610731620869 L 2231.4539650985266 75.9205303301835 L 2231.255193866096 75.99405848062472 L 2231.05480606744 76.06668441477855 L 2230.8528217411717 76.13840087011211 L 2230.6492610855553 76.20920067503964 L 2230.444144456487 76.27907674963963 L 2230.2374923654584 76.34802210636286 L 2230.029325477506 76.4160298507311 L 2229.8196646091465 76.48309318202661 L 2229.6085307262906 76.54920539397213 L 2229.3959449421513 76.61435987540155 L 2229.1819285151296 76.67855011092104 L 2228.96650284669 76.74176968156053 L 2228.7496894792207 76.80401226541565 L 2228.531510093876 76.86527163827986 L 2228.311986508414 76.92554167426694 L 2228.0911406750097 76.98481634642351 L 2227.8689946780623 77.04308972733178 L 2227.645570731987 77.10035598970217 L 2227.4208911789915 77.15660940695618 L 2227.1949784868443 77.21184435379898 L 2226.967855246626 77.26605530678191 L 2226.7395441704725 77.31923684485484 L 2226.5100680892997 77.37138364990828 L 2226.279449950525 77.42249050730518 L 2226.04771281577 77.4725523064024 L 2225.8148798585557 77.52156404106174 L 2225.580974361983 77.56952081015058 L 2225.3460197164068 77.61641781803196 L 2225.1100394170962 77.6622503750442 L 2224.8730570618845 77.70701389796976 L 2224.6350963488094 77.75070391049368 L 2224.3961810737437 77.7933160436511 L 2224.1563351280165 77.83484603626422 L 2223.915582496022 77.87528973536838 L 2223.6739472528234 77.91464309662739 L 2223.4314535617427 77.9529021847379 L 2223.1881256719475 77.99006317382297 L 2222.9439879160236 78.02612234781469 L 2222.699064707544 78.0610761008257 L 2222.4533805386245 78.09492093750981 L 2222.206959977478 78.12765347341158 L 2221.959827665955 78.15927043530469 L 2221.7120083170803 78.18976866151928 L 2221.4635267125827 78.21914510225817 L 2221.2144077004154 78.24739681990175 L 2220.9646761922722 78.27452098930179 L 2220.714357161096 78.30051489806398 L 2220.4634756385803 78.32537594681908 L 2220.21205671267 78.34910164948295 L 2219.9601255250464 78.37168963350508 L 2219.7077072686193 78.39313764010592 L 2219.454827185004 78.41344352450264 L 2219.201510561998 78.43260525612375 L 2218.9477827310525 78.45062091881205 L 2218.693669064739 78.46748871101629 L 2218.439194974212 78.48320694597129 L 2218.1843859066694 78.49777405186667 L 2217.9292673428054 78.51118857200397 L 2217.673864794263 78.52344916494236 L 2217.4182038010854 78.53455460463276 L 2217.162309929158 78.54450378054045 L 2216.906208767655 78.55329569775614 L 2216.6499259264788 78.56092947709544 L 2216.3934870337007 78.56740435518677 L 2216.1369177329957 78.57271968454769 L 2215.88024368108 78.57687493364975 L 2215.6234905451456 78.57986968697145 L 2215.366684000291 78.58170364504 L 2215.109849726958 78.58237662446106 L 2214.853013408359 78.58188855793732 L 2214.596200727912 78.58023949427498 L 2214.3394373666715 78.57742959837903 L 2214.0827490007587 78.57345915123673 L 2213.826161298797 78.56832854988951 L 2213.569699919343 78.56203830739318 L 2213.31339050832 78.5545890527668 L 2213.0572586964563 78.54598153092958 L 2212.8013300967195 78.53621660262655 L 2212.5456303017563 78.5252952443424 L 2212.290184881333 78.51321854820387 L 2212.0350193797785 78.4999877218705 L 2211.780159313431 78.48560408841388 L 2211.525630168084 78.4700690861854 L 2211.2714573964404 78.45338426867232 L 2211.0176664155656 78.4355513043425 L 2210.7642826043457 78.41657197647748 L 2210.5113313009515 78.39644818299428 L 2210.2588378003015 78.37518193625543 L 2210.0068273515362 78.35277536286792 L 2209.7553251554905 78.32923070347039 L 2209.5043563621734 78.30455031250918 L 2209.2539460682565 78.2787366580028 L 2209.0041193145594 78.2517923212952 L 2208.7549010835496 78.2237199967976 L 2208.5063162968427 78.19452249171906 L 2208.2583898127104 78.16420272578573 L 2208.0111464235943 78.13276373094897 L 2207.764610853627 78.10020865108203 L 2207.5188077561597 78.0665407416658 L 2207.2737617112984 78.03176336946316 L 2207.0294972234433 77.99588001218234 L 2206.7860387188384 77.95889425812916 L 2206.5434105431327 77.92080980584822 L 2206.3016369589404 77.881630463753 L 2206.0607421434192 77.84136014974506 L 2205.82075018585 77.80000289082224 L 2205.581685085228 77.75756282267598 L 2205.3435707478643 77.71404418927773 L 2205.1064309849944 77.66945134245454 L 2204.8702895103966 77.62378874145395 L 2204.6351699380216 77.57706095249802 L 2204.4010957796313 77.52927264832667 L 2204.1680904424456 77.48042860773052 L 2203.936177226805 77.43053371507293 L 2203.705379323837 77.37959295980157 L 2203.4757198131397 77.32761143594954 L 2203.247221660473 77.27459434162587 L 2203.019907715462 77.22054697849586 L 2202.793800709311 77.16547475125074 L 2202.5689232525333 77.10938316706736 L 2202.345297832686 77.0522778350574 L 2202.1229468121255 76.99416446570646 L 2201.9018924257684 76.93504887030305 L 2201.682156778869 76.87493696035746 L 2201.4637618448087 76.81383474701059 L 2201.2467294628996 76.75174834043284 L 2201.0310813361984 76.68868394921314 L 2200.816839029338 76.62464787973806 L 2200.604023966371 76.5596465355612 L 2200.3926574286265 76.49368641676277 L 2200.1827605525814 76.42677411929971 L 2199.9743543277486 76.358916334346 L 2199.7674595945773 76.2901198476236 L 2199.5620970423684 76.22039153872383 L 2199.3582872072056 76.14973838041949 L 2199.1560504699028 76.07816743796754 L 2198.9554070539652 76.00568586840255 L 2198.756377023567 75.9323009198211 L 2198.5589802815457 75.8580199306569 L 2198.3632365674107 75.78285032894695 L 2198.1691654553706 75.70679963158878 L 2197.976786352375 75.62987544358876 L 2197.786118496173 75.55208545730159 L 2197.597180953392 75.47343745166106 L 2197.409992617629 75.3939392914022 L 2197.2245722075613 75.31359892627479 L 2197.0409382650755 75.2324243902484 L 2196.8591091534126 75.15042380070896 L 2196.6791030553322 75.06760535764712 L 2196.5009379712947 74.98397734283817 L 2196.3246317176595 74.89954811901389 L 2196.150201924905 74.8143261290263 L 2195.9776660358657 74.72831989500338 L 2195.807041303986 74.64153801749687 L 2195.6383447915973 74.5539891746222 L 2195.47159336821 74.46568212119071 L 2195.306803708828 74.37662568783415 L 2195.143992292279 74.28682878012162 L 2194.98317539957 74.19630037766909 L 2194.824369112256 74.10504953324134 L 2194.6675893108327 74.0130853718468 L 2194.5128516731506 73.92041708982494 L 2194.3601716728435 73.82705395392676 L 2194.2095645777854 73.73300530038806 L 2194.061045448559 73.63828053399578 L 2193.9146291369543 73.54288912714766 L 2193.77033028448 73.44684061890487 L 2193.628163320902 73.3501446140382 L 2193.4881424627965 73.25281078206757 L 2193.3502817121343 73.15484885629505 L 2193.2145948548746 73.05626863283157 L 2193.081095459591 72.95707996961737 L 2192.94979687611 72.85729278543607 L 2192.820712234183 72.75691705892295 L 2192.693854442164 72.65596282756702 L 2192.5692361857286 72.5544401867073 L 2192.4468699265976 72.45235928852324 L 2192.326767901295 72.34973034101961 L 2192.208942119924 72.24656360700563 L 2192.093404364963 72.14286940306874 L 2191.980166190093 72.03865809854291 L 2191.8692389190355 71.93394011447177 L 2191.7606336444264 71.82872592256643 L 2191.654361226702 71.72302604415843 L 2191.550432293016 71.61685104914753 L 2191.4488572361743 71.51021155494473 L 2191.349646213599 71.4031182254106 L 2191.2528091463087 71.29558176978884 L 2191.15835571793 71.1876129416354 L 2191.0662953737274 71.07922253774314 L 2190.9766373196576 70.9704213970621 L 2190.8893905214522 70.86122039961568 L 2190.804563703718 70.75163046541265 L 2190.7221653490656 70.64166255335508 L 2190.6422036972626 70.53132766014255 L 2190.564686744407 70.42063681917243 L 2190.48962224213 70.30960109943658 L 2190.417017696818 70.19823160441445 L 2190.346880368867 70.0865394709627 L 2190.27921727195 69.97453586820164 L 2190.2140351723206 69.86223199639821 L 2190.151340588134 69.74963908584596 L 2190.0911397887976 69.63676839574217 L 2190.03343879434 69.52363121306175 L 2189.978243374813 69.41023885142872 L 2189.9255590497123 69.29660264998472 L 2189.875391087427 69.18273397225522 L 2189.8277445047115 69.0686442050131 L 2189.782624066184 68.95434475714 L 2189.7400342838505 68.83984705848547 L 2189.699979416654 68.72516255872397 L 2189.6624634700484 68.61030272620987 L 2189.6274901955967 68.49527904683073 L 2189.595063090597 68.38010302285863 L 2189.565185397733 68.2647861718 L 2189.5378601047487 68.14934002524383 L 2189.513089944151 68.03377612770858 L 2189.4908773929355 67.9181060354877 L 2189.4712246723384 67.80234131549402 L 2189.4541337476157 67.68649354410306 L 2189.4396063278455 67.57057430599544 L 2189.4276438657575 67.45459519299835 L 2189.418247557588 67.33856780292646 L 2189.4114183429606 67.22250373842208 L 2189.40715690479 67.10641460579494 L 2189.405463669217 66.99031201386155 L 2189.4063388055642 66.87420757278437 L 2189.4097822263184 66.75811289291076 L 2189.41579358714 66.64203958361193 L 2189.424372286898 66.52599925212212 L 2189.43551746773 66.41000350237775 L 2189.4492280151267 66.29406393385715 L 2189.465502558045 66.17819214042055 L 2189.4843394690442 66.06239970915072 L 2189.5057368644493 65.94669821919432 L 2189.529692604538 65.8310992406039 L 2189.5562042937563 65.71561433318102 L 2189.5852692809576 65.60025504532017 L 2189.6168846596674 65.48503291285398 L 2189.6510472683744 65.36995945789971 L 2189.6877536908455 65.25504618770695 L 2189.7270002564696 65.14030459350695 L 2189.7687830406226 65.02574614936354 L 2189.813097865061 64.91138231102563 L 2189.8599402983396 64.79722451478179 L 2189.9093056562533 64.68328417631649 L 2189.9611890023084 64.56957268956862 L 2190.0155851482127 64.45610142559212 L 2190.072488654397 64.3428817314188 L 2190.131893830559 64.22992492892377 L 2190.19379473623 64.1172423136931 L 2190.2581851813707 64.00484515389444 L 2190.325058726991 63.89274468915009 L 2190.394408685791 63.78095212941312 L 2190.4662281228334 63.66947865384635 L 2190.540509856234 63.558335409704426 L 2190.617246457882 63.447533511219156 L 2190.6964302541805 63.337084038488044 L 2190.778053326816 63.226998036366325 L 2190.8621075135497 63.11728651336247 L 2190.9485844090323 63.00796044053737 L 2191.0374753656465 62.899030750407185 L 2191.128771494371 62.790508335850156 L 2191.222463665669 62.682404049017315 L 2191.318542510401 62.57472870024724 L 2191.416998420763 62.4674930569851 L 2191.5178215512456 62.36070784270584 L 2191.6210018196202 62.25438373584191 L 2191.726528907946 62.148531368715396 L 2191.834392263602 62.04316132647479 L 2191.944581100342 61.938284146036516 L 2192.057084399375 61.83391031503122 L 2192.1718909104643 61.73005027075502 L 2192.2889891530544 61.6267143991258 L 2192.408367417419 61.52391303364461 L 2192.530013765831 61.42165645436233 L 2192.6539160337566 61.31995488685167 L 2192.780061831073 61.21881850118463 L 2192.908438543305 61.1182574109155 L 2193.0390333328883 61.018281672069506 L 2193.1718331404527 60.91890128213721 L 2193.306824686129 60.82012617907481 L 2193.4439944708743 60.72196624031029 L 2193.583328777824 60.62443128175571 L 2193.724813673665 60.52753105682567 L 2193.8684350100243 60.431275255461905 L 2194.0141784248885 60.33567350316434 L 2194.162029344038 60.24073536002853 L 2194.311972982503 60.14647031978968 L 2194.463994346045 60.05288780887326 L 2194.618078232655 59.959997185452366 L 2194.7742092340723 59.86780773851195 L 2194.9323717373263 59.77632868691987 L 2195.0925499262994 59.68556917850505 L 2195.254727783306 59.59553828914271 L 2195.418889090695 59.50624502184675 L 2195.585017432473 59.41769830586949 L 2195.7530961959433 59.32990699580875 L 2195.923108573371 59.24287987072236 L 2196.0950375636594 59.15662563325033 L 2196.268865974053 59.0711529087445 L 2196.444576421855 58.986470244406114 L 2196.622151336167 58.90258610843103 L 2196.801572959647 58.81950888916295 L 2196.9828233502803 58.737246894254554 L 2197.1658843831797 58.65580834983679 L 2197.3507377523947 58.57520139969624 L 2197.5373649727426 58.49543410446074 L 2197.7257473816558 58.41651444079334 L 2197.9158661410515 58.33845030059465 L 2198.1077022392114 58.26124949021362 L 2198.3012364926863 58.18491972966697 L 2198.4964495482113 58.10946865186714 L 2198.6933218846443 58.03490380185903 L 2198.8918338149156 57.96123263606552 L 2199.0919654879967 57.88846252154177 L 2199.2936968908884 57.816600735238616 L 2199.4970078506176 57.74565446327479 L 2199.7018780362578 57.67563080021837 L 2199.908286960962 57.60653674837731 L 2200.1162139840085 57.53837921709922 L 2200.325638312869 57.47116502208042 L 2200.5365390052852 57.40490088468441 L 2200.7488949713634 57.3395934312697 L 2200.9626849756837 57.27524919252721 L 2201.1778876394246 57.21187460282721 L 2201.394481442498 57.14947599957584 L 2201.6124447257052 57.088059622581426 L 2201.8317556928987 57.02763161343051 L 2202.052392413165 56.96819801487362 L 2202.2743328230154 56.9097647702211 L 2202.4975547285944 56.85233772274873 L 2202.722035807897 56.79592261511338 L 2202.947753613003 56.74052508877882 L 2203.1746855723195 56.6861506834515 L 2203.4028089928397 56.63280483652666 L 2203.6321010624115 56.58049288254453 L 2203.8625388520195 56.52922005265691 L 2204.0940993180766 56.47899147410408 L 2204.326759304729 56.42981216970201 L 2204.5604955461718 56.38168705734017 L 2204.795284668976 56.334620949489704 L 2205.0311031944248 56.28861855272216 L 2205.2679275408623 56.24368446723889 L 2205.505734026051 56.199823186410995 L 2205.74449886954 56.157039096329996 L 2205.9841981950453 56.11533647536926 L 2206.224808032833 56.07471949375613 L 2206.466304322121 56.035192213154914 L 2206.7086629134797 55.99675858626073 L 2206.9518595712534 55.959422456404255 L 2207.195869975979 55.923187557167346 L 2207.440669726818 55.88805751200974 L 2207.686234344001 55.85403583390668 L 2207.9325392712703 55.82112592499761 L 2208.1795598783383 55.78933107624601 L 2208.42727146335 55.758654467110254 L 2208.6756492553536 55.72909916522569 L 2208.9246684167765 55.70066812609789 L 2209.174304045911 55.67336419280706 L 2209.424531179401 55.64719009572377 L 2209.6753247947427 55.62214845223594 L 2209.926659812783 55.598241766487035 L 2210.178511100229 55.57547242912571 L 2210.430853472163 55.55384271706673 L 2210.6836616945575 55.533354793263264 L 2210.9369104868015 55.51401070649064 L 2211.1905745242257 55.4958123911414 L 2211.4446284406386 55.47876166703191 L 2211.69904683086 55.46286023922039 L 2211.9538042532627 55.44810969783636 L 2212.2088752323175 55.434511517921656 L 2212.464234261138 55.42206705928295 L 2212.719855804035 55.41077756635575 L 2212.9757142990666 55.40064416807991 L 2213.231784160597 55.39166787778682 L 2213.4880397818533 55.38384959309805 L 2213.744455537487 55.37719009583553 L 2214.0010057861355 55.37169005194345 L 2214.2576648729887 55.36735001142162 L 2214.514407132351 55.36417040827046 L 2214.771206890211 55.36215156044765 L 2215.028038466807 55.36129366983628 L 2215.2848761791947 55.3615968222247 L 2215.5416943438177 55.363060987297914 L 2215.7984672790726 55.36568601864066 L 2216.055169307881 55.369471653751965 L 2216.311774760253 55.37441751407148 L 2216.5682579758573 55.3805231050173 L 2216.8245933065864 55.38778781603543 L 2217.080755119121 55.39621092066079 L 2217.336717797493 55.40579157658996 L 2217.5924557456474 55.41652882576533 L 2217.8479433900034 55.428421594470926 L 2218.1031551820092 55.44146869343979 L 2218.358065600698 55.45566881797289 L 2218.6126491552404 55.47102054806961 L 2218.8668803874934 55.48752234856974 L 2219.1207338745453 55.50517256930697 L 2219.3741842312593 55.52396944527395 L 2219.62720611281 55.54391109679874 L 2219.879774217222 55.56499552973279 L 2220.1318632878933 55.587220635650404 L 2220.383448116128 55.61058419205949 L 2220.6345035436525 55.63508386262389 L 2220.8850044651335 55.660717197396956 L 2221.1349258306877 55.687481633066575 L 2221.3842426483866 55.715374493211485 L 2221.632929986756 55.744392988568904 L 2221.8809629772695 55.7745342173135 L 2222.128316816835 55.8057951653475 L 2222.3749667702746 55.83817270660215 L 2222.6208881727985 55.871663603350314 L 2222.866056432471 55.90626450653023 L 2223.1104470326704 55.941971956080394 L 2223.354035534541 55.97878238128563 L 2223.5967975794347 56.01669210113408 L 2223.8387088913505 56.055697324685354 L 2224.0797452793577 56.095794151449596 L 2224.319882640019 56.136978571777554 L 2224.559096959798 56.17924646726151 L 2224.797364317463 56.22259361114713 L 2225.034660886475 56.267015668756166 L 2225.2709629373767 56.31250819791986 L 2225.506246840159 56.35906664942321 L 2225.7404890666276 56.40668636745987 L 2225.9736661927554 56.455362590097714 L 2226.205754901024 56.505090449755045 L 2226.4367319827566 56.55586497368733 L 2226.6665743404365 56.60768108448449 L 2226.8952589900196 56.66053360057863 L 2227.122763063232 56.71441723676219 L 2227.3490638098556 56.76932660471643 L 2227.574138600005 56.82525621355034 L 2227.7979649263875 56.88220047034963 L 2228.0205204065583 56.940153680736074 L 2228.2417827851536 56.999110049436936 L 2228.461729936121 57.05906368086447 L 2228.680339864928 57.120008579705484 L 2228.8975907107647 57.1819386515209 L 2229.1134607487265 57.244847703355134 L 2229.32792839199 57.308729444355436 L 2229.54097219397 57.373577486400926 L 2229.752570850463 57.439385344741446 L 2229.96270320178 57.506146438646006 L 2230.171348234862 57.57385409206084 L 2230.3784850853776 57.642501534277045 L 2230.584093039816 57.712081900607586 L 2230.7881515375525 57.78258823307383 L 2230.990640172907 57.854013481101276 L 2231.1915386971855 57.92635050222464 L 2231.3908270207025 57.99959206280211 L 2231.5884852147915 58.07373083873863 L 2231.7844935137987 58.14875941621842 L 2231.9788323170565 58.224670292446234 L 2232.171482190847 58.30145587639771 L 2232.3624238703433 58.379108489578456 L 2232.551638261537 58.45762036679186 L 2232.739106443146 58.53698365691561 L 2232.9248096685083 58.61719042368684 L 2233.108729367457 58.698232646495725 L 2233.2908471481746 58.7801022211875 L 2233.4711447990353 58.86279096087293 L 2233.6496042904237 58.94629059674695 L 2233.82620777654 59.03059277891555 L 2234.0009375971827 59.115689077230776 L 2234.1737762795146 59.2015709821337 L 2234.3447065398123 59.2882299055054 L 2234.513711285192 59.375657181525774 L 2234.68077361532 59.46384406754005 L 2234.8458768241026 59.55278174493313 L 2235.009004401356 59.642461320011385 L 2235.170140034459 59.73287382489204 L 2235.3292676099823 59.82401021839995 L 2235.486371215301 59.91586138697171 L 2235.6414351401854 60.008418145567006 L 2235.7944438783725 60.10167123858711 L 2235.945382129116 60.195611340800426 L 2236.0942347987157 60.29022905827503 L 2236.2409870020297 60.385514929318006 L 2236.3856240639598 60.48145942542166 L 2236.5281315209204 60.57805295221634 L 2236.668495122284 60.67528585042985 L 2236.806700831808 60.77314839685341 L 2236.942734829036 60.87163080531391 L 2237.0765835106827 60.97072322765259 L 2237.2082334919905 61.07041575470979 L 2237.337671608071 61.170698417315876 L 2237.4648849152213 61.271561187288164 L 2237.5898606922156 61.3729939784337 L 2237.712586441581 61.47498664755789 L 2237.8330498908454 61.577528995478836 L 2237.951238993763 61.68061076804718 L 2238.0671419315227 61.78422165717158 L 2238.1807471139273 61.88835130184945 L 2238.292043180553 61.99298928920311 L 2238.4010190018857 62.09812515552101 L 2238.507663680435 62.203748387304145 L 2238.611966551821 62.30984842231735 L 2238.713917185844 62.416414650645535 L 2238.813505387525 62.52343641575468 L 2238.9107211981272 62.63090301555746 L 2239.005554896151 62.73880370348344 L 2239.0979969983046 62.847127689553744 L 2239.188038260456 62.95586414146005 L 2239.2756696785527 63.065002185647764 L 2239.360882489527 63.174530908403426 L 2239.443668172168 63.28443935694603 L 2239.524018447977 63.39471654052231 L 2239.6019252819933 63.50535143150581 L 2239.6773808835987 63.61633296649962 L 2239.7503777072952 63.72765004744274 L 2239.8209084534615 63.83929154271982 L 2239.888966069082 63.951246288274376 L 2239.9545437484517 64.06350308872516 L 2240.017634933857 64.17605071848564 L 2240.078233316233 64.28887792288667 L 2240.136332835791 64.40197341930181 L 2240.1919276826275 64.51532589827566 L 2240.245012297304 64.6289240246548 L 2240.2955813714043 64.74275643872124 L 2240.3436298480624 64.85681175732844 L 2240.38915292247 64.97107857503958 L 2240.432146042359 65.08554546526814 L 2240.4726049084525 65.20020098142045 L 2240.5105254748973 65.31503365804045 L 2240.545903949669 65.43003201195617 L 2240.5787367949492 65.54518454342806 L 2240.6090207274806 65.66047973729893 L 2240.636752718896 65.77590606414547 L 2240.6619299960184 65.89145198143119 L 2240.6845500411414 66.00710593466063 L 2240.7046105922796 66.12285635853486 L 2240.722109643394 66.23869167810795 L 2240.737045444595 66.35460030994449 L 2240.7494165023145 66.47057066327784 L 2240.7592215794566 66.58659114116935 L 2240.766459695522 66.70265014166789 L 2240.7711301267054 66.81873605897015 L 2240.7732324059675 66.9348372845811 M 2240.7733627029506 103.91451096179999 L 2240.7720785153624 104.03061462555635 L 2240.7682260810143 104.14670667904309 L 2240.761805785147 104.2627755131516 L 2240.7528182697847 104.37880952109519 L 2240.7412644336714 104.49479709956978 L 2240.727145432181 104.61072664991414 L 2240.710462677202 104.72658657926989 L 2240.691217836996 104.8423653017406 L 2240.6694128360314 104.95805123955054 L 2240.6450498547892 105.0736328242023 L 2240.618131329548 105.18909849763378 L 2240.5886599521373 105.3044367133738 L 2240.556638669671 105.41963593769695 L 2240.52207068425 105.53468465077678 L 2240.4849594526445 105.64957134783783 L 2240.445308685946 105.76428454030618 L 2240.4031223491993 105.87881275695814 L 2240.358404661002 105.9931445450675 L 2240.311160093086 106.10726847155073 L 2240.2613933698685 106.22117312411025 L 2240.209109467981 106.33484711237577 L 2240.154313615769 106.44827906904317 L 2240.097011292773 106.56145765101131 L 2240.037208229177 106.67437154051632 L 2239.974910405238 106.78700944626333 L 2239.910124050686 106.89936010455563 L 2239.8428556441027 107.01141228042103 L 2239.7731119122727 107.12315476873529 L 2239.7008998295114 107.23457639534273 L 2239.626226616966 107.34566601817353 L 2239.5490997418965 107.45641252835797 L 2239.469526916926 107.56680485133734 L 2239.3875160992698 107.67683194797132 L 2239.3030754899423 107.78648281564195 L 2239.2162135329336 107.89574648935381 L 2239.126938914367 108.00461204283062 L 2239.0352605616304 108.1130685896077 L 2238.941187642482 108.22110528412082 L 2238.844729564136 108.32871132279051 L 2238.745895972319 108.4358759451026 L 2238.644696750309 108.54258843468413 L 2238.5411420179425 108.6488381203751 L 2238.4352421306075 108.75461437729548 L 2238.3270076782046 108.8599066279077 L 2238.2164494840877 108.96470434307447 L 2238.103578603985 109.0689970431116 L 2237.9884063248905 109.17277429883598 L 2237.8709441639357 109.27602573260853 L 2237.7512038672385 109.37874101937192 L 2237.62919740873 109.48090988768304 L 2237.504936988953 109.58252212074024 L 2237.378435033847 109.68356755740487 L 2237.249704193501 109.78403609321748 L 2237.1187573408934 109.88391768140819 L 2236.9856075705984 109.98320233390143 L 2236.8502681974837 110.08188012231469 L 2236.7127527553725 110.17994117895135 L 2236.5730749956956 110.27737569778748 L 2236.431248886112 110.37417393545236 L 2236.287288609114 110.47032621220293 L 2236.1412085606103 110.5658229128916 L 2235.993023348484 110.66065448792793 L 2235.8427477911314 110.7548114542334 L 2235.6903969159844 110.84828439618985 L 2235.535985958003 110.941063966581 L 2235.3795303581546 111.03314088752711 L 2235.221045761869 111.12450595141281 L 2235.060548017473 111.21515002180787 L 2234.898053174608 111.30506403438078 L 2234.733577482622 111.39423899780519 L 2234.567137388948 111.48266599465909 L 2234.3987495374568 111.57033618231648 L 2234.2284307667924 111.65724079383165 L 2234.0561981086908 111.74337113881587 L 2233.8820687862735 111.82871860430642 L 2233.706060212328 111.91327465562787 L 2233.528189987565 111.99703083724555 L 2233.348475898859 112.07997877361109 L 2233.1669359174684 112.16211016999999 L 2232.983588197241 112.24341681334106 L 2232.798451072795 112.32389057303769 L 2232.6115430576892 112.40352340178099 L 2232.42288284257 112.48230733635444 L 2232.2324892933 112.56023449843025 L 2232.040381449077 112.63729709535714 L 2231.8465785205244 112.71348742093964 L 2231.6510998877743 112.78879785620869 L 2231.4539650985266 112.8632208701835 L 2231.255193866096 112.93674902062472 L 2231.05480606744 113.00937495477855 L 2230.8528217411717 113.08109141011211 L 2230.6492610855553 113.15189121503964 L 2230.444144456487 113.22176728963963 L 2230.2374923654584 113.29071264636286 L 2230.029325477506 113.35872039073111 L 2229.8196646091465 113.42578372202661 L 2229.6085307262906 113.49189593397213 L 2229.3959449421513 113.55705041540155 L 2229.1819285151296 113.62124065092104 L 2228.96650284669 113.68446022156053 L 2228.7496894792207 113.74670280541565 L 2228.531510093876 113.80796217827987 L 2228.311986508414 113.86823221426694 L 2228.0911406750097 113.92750688642352 L 2227.8689946780623 113.98578026733178 L 2227.645570731987 114.04304652970217 L 2227.4208911789915 114.09929994695618 L 2227.1949784868443 114.15453489379898 L 2226.967855246626 114.20874584678191 L 2226.7395441704725 114.26192738485484 L 2226.5100680892997 114.31407418990828 L 2226.279449950525 114.36518104730519 L 2226.04771281577 114.4152428464024 L 2225.8148798585557 114.46425458106174 L 2225.580974361983 114.51221135015058 L 2225.3460197164068 114.55910835803196 L 2225.1100394170962 114.6049409150442 L 2224.8730570618845 114.64970443796976 L 2224.6350963488094 114.69339445049368 L 2224.3961810737437 114.7360065836511 L 2224.1563351280165 114.77753657626423 L 2223.915582496022 114.81798027536838 L 2223.6739472528234 114.85733363662739 L 2223.4314535617427 114.8955927247379 L 2223.1881256719475 114.93275371382298 L 2222.9439879160236 114.96881288781469 L 2222.699064707544 115.0037666408257 L 2222.4533805386245 115.03761147750981 L 2222.206959977478 115.07034401341159 L 2221.959827665955 115.10196097530469 L 2221.7120083170803 115.13245920151928 L 2221.4635267125827 115.16183564225817 L 2221.2144077004154 115.19008735990175 L 2220.9646761922722 115.21721152930179 L 2220.714357161096 115.24320543806398 L 2220.4634756385803 115.26806648681908 L 2220.21205671267 115.29179218948295 L 2219.9601255250464 115.31438017350509 L 2219.7077072686193 115.33582818010592 L 2219.454827185004 115.35613406450264 L 2219.201510561998 115.37529579612375 L 2218.9477827310525 115.39331145881205 L 2218.693669064739 115.41017925101629 L 2218.439194974212 115.42589748597129 L 2218.1843859066694 115.44046459186667 L 2217.9292673428054 115.45387911200397 L 2217.673864794263 115.46613970494236 L 2217.4182038010854 115.47724514463276 L 2217.162309929158 115.48719432054045 L 2216.906208767655 115.49598623775614 L 2216.6499259264788 115.50362001709544 L 2216.3934870337007 115.51009489518677 L 2216.1369177329957 115.5154102245477 L 2215.88024368108 115.51956547364975 L 2215.6234905451456 115.52256022697145 L 2215.366684000291 115.52439418504 L 2215.109849726958 115.52506716446106 L 2214.853013408359 115.52457909793732 L 2214.596200727912 115.52293003427498 L 2214.3394373666715 115.52012013837903 L 2214.0827490007587 115.51614969123673 L 2213.826161298797 115.51101908988952 L 2213.569699919343 115.50472884739318 L 2213.31339050832 115.4972795927668 L 2213.0572586964563 115.48867207092958 L 2212.8013300967195 115.47890714262655 L 2212.5456303017563 115.4679857843424 L 2212.290184881333 115.45590908820387 L 2212.0350193797785 115.4426782618705 L 2211.780159313431 115.42829462841388 L 2211.525630168084 115.4127596261854 L 2211.2714573964404 115.39607480867232 L 2211.0176664155656 115.3782418443425 L 2210.7642826043457 115.35926251647749 L 2210.5113313009515 115.33913872299428 L 2210.2588378003015 115.31787247625543 L 2210.0068273515362 115.29546590286792 L 2209.7553251554905 115.27192124347039 L 2209.5043563621734 115.24724085250918 L 2209.2539460682565 115.2214271980028 L 2209.0041193145594 115.1944828612952 L 2208.7549010835496 115.1664105367976 L 2208.5063162968427 115.13721303171906 L 2208.2583898127104 115.10689326578573 L 2208.0111464235943 115.07545427094897 L 2207.764610853627 115.04289919108203 L 2207.5188077561597 115.0092312816658 L 2207.2737617112984 114.97445390946316 L 2207.0294972234433 114.93857055218234 L 2206.7860387188384 114.90158479812916 L 2206.5434105431327 114.86350034584822 L 2206.3016369589404 114.824321003753 L 2206.0607421434192 114.78405068974506 L 2205.82075018585 114.74269343082224 L 2205.581685085228 114.70025336267598 L 2205.3435707478643 114.65673472927773 L 2205.1064309849944 114.61214188245454 L 2204.8702895103966 114.56647928145395 L 2204.6351699380216 114.51975149249802 L 2204.4010957796313 114.47196318832667 L 2204.1680904424456 114.42311914773052 L 2203.936177226805 114.37322425507293 L 2203.705379323837 114.32228349980157 L 2203.4757198131397 114.27030197594954 L 2203.247221660473 114.21728488162587 L 2203.019907715462 114.16323751849586 L 2202.793800709311 114.10816529125074 L 2202.5689232525333 114.05207370706736 L 2202.345297832686 113.9949683750574 L 2202.1229468121255 113.93685500570646 L 2201.9018924257684 113.87773941030305 L 2201.682156778869 113.81762750035746 L 2201.4637618448087 113.75652528701059 L 2201.2467294628996 113.69443888043284 L 2201.0310813361984 113.63137448921314 L 2200.816839029338 113.56733841973806 L 2200.604023966371 113.5023370755612 L 2200.3926574286265 113.43637695676277 L 2200.1827605525814 113.36946465929971 L 2199.9743543277486 113.301606874346 L 2199.7674595945773 113.2328103876236 L 2199.5620970423684 113.16308207872383 L 2199.3582872072056 113.0924289204195 L 2199.1560504699028 113.02085797796754 L 2198.9554070539652 112.94837640840255 L 2198.756377023567 112.8749914598211 L 2198.5589802815457 112.8007104706569 L 2198.3632365674107 112.72554086894695 L 2198.1691654553706 112.64949017158878 L 2197.976786352375 112.57256598358876 L 2197.786118496173 112.49477599730159 L 2197.597180953392 112.41612799166106 L 2197.409992617629 112.3366298314022 L 2197.2245722075613 112.2562894662748 L 2197.0409382650755 112.1751149302484 L 2196.8591091534126 112.09311434070896 L 2196.6791030553322 112.01029589764713 L 2196.5009379712947 111.92666788283817 L 2196.3246317176595 111.84223865901389 L 2196.150201924905 111.7570166690263 L 2195.9776660358657 111.67101043500338 L 2195.807041303986 111.58422855749687 L 2195.6383447915973 111.4966797146222 L 2195.47159336821 111.40837266119071 L 2195.306803708828 111.31931622783415 L 2195.143992292279 111.22951932012163 L 2194.98317539957 111.13899091766909 L 2194.824369112256 111.04774007324134 L 2194.6675893108327 110.9557759118468 L 2194.5128516731506 110.86310762982494 L 2194.3601716728435 110.76974449392677 L 2194.2095645777854 110.67569584038806 L 2194.061045448559 110.58097107399578 L 2193.9146291369543 110.48557966714766 L 2193.77033028448 110.38953115890487 L 2193.628163320902 110.2928351540382 L 2193.4881424627965 110.19550132206757 L 2193.3502817121343 110.09753939629505 L 2193.2145948548746 109.99895917283158 L 2193.081095459591 109.89977050961737 L 2192.94979687611 109.79998332543607 L 2192.820712234183 109.69960759892295 L 2192.693854442164 109.59865336756702 L 2192.5692361857286 109.4971307267073 L 2192.4468699265976 109.39504982852324 L 2192.326767901295 109.29242088101961 L 2192.208942119924 109.18925414700563 L 2192.093404364963 109.08555994306874 L 2191.980166190093 108.98134863854291 L 2191.8692389190355 108.87663065447177 L 2191.7606336444264 108.77141646256644 L 2191.654361226702 108.66571658415843 L 2191.550432293016 108.55954158914753 L 2191.4488572361743 108.45290209494473 L 2191.349646213599 108.3458087654106 L 2191.2528091463087 108.23827230978884 L 2191.15835571793 108.1303034816354 L 2191.0662953737274 108.02191307774314 L 2190.9766373196576 107.9131119370621 L 2190.8893905214522 107.80391093961568 L 2190.804563703718 107.69432100541265 L 2190.7221653490656 107.58435309335508 L 2190.6422036972626 107.47401820014255 L 2190.564686744407 107.36332735917243 L 2190.48962224213 107.25229163943658 L 2190.417017696818 107.14092214441445 L 2190.346880368867 107.0292300109627 L 2190.27921727195 106.91722640820164 L 2190.2140351723206 106.80492253639821 L 2190.151340588134 106.69232962584596 L 2190.0911397887976 106.57945893574217 L 2190.03343879434 106.46632175306175 L 2189.978243374813 106.35292939142872 L 2189.9255590497123 106.23929318998472 L 2189.875391087427 106.12542451225522 L 2189.8277445047115 106.0113347450131 L 2189.782624066184 105.89703529714001 L 2189.7400342838505 105.78253759848548 L 2189.699979416654 105.66785309872397 L 2189.6624634700484 105.55299326620987 L 2189.6274901955967 105.43796958683073 L 2189.595063090597 105.32279356285864 L 2189.565185397733 105.2074767118 L 2189.5378601047487 105.09203056524383 L 2189.513089944151 104.97646666770858 L 2189.4908773929355 104.8607965754877 L 2189.4712246723384 104.74503185549402 L 2189.4541337476157 104.62918408410306 L 2189.4396063278455 104.51326484599544 L 2189.4276438657575 104.39728573299836 L 2189.418247557588 104.28125834292646 L 2189.4114183429606 104.16519427842208 L 2189.40715690479 104.04910514579494 L 2189.405463669217 103.93300255386156" stroke-miterlimit="10" stroke-width="2.990598758" stroke-dasharray=""/></g><g><g/><text fill="black" stroke="none" font-family="sans-serif" font-size="11pt" font-style="normal" font-weight="normal" text-decoration="normal" x="2182.3871874262945" y="134.401026536" text-anchor="start" dominant-baseline="alphabetic">Database</text></g><g><path fill="white" stroke="black" paint-order="fill stroke markers" d=" M 2324.8259456226187 86.79773101159998 A 26.123759739 26.123759739 0 1 1 2324.82593256074 86.77160725621492 M 2271.083126765619 115.31396975699997 L 2323.330646243619 115.31396975699997" stroke-miterlimit="10" stroke-width="2.990598758" stroke-dasharray=""/></g><g><g/><text fill="black" stroke="none" font-family="sans-serif" font-size="11pt" font-style="normal" font-weight="normal" text-decoration="normal" x="2267.864669098951" y="134.401026536" text-anchor="start" dominant-baseline="alphabetic">r (Room)</text></g><g><path fill="white" stroke="black" paint-order="fill stroke markers" d=" M 2418.026162495275 86.79773101159998 A 26.123759739 26.123759739 0 1 1 2418.0261494333963 86.77160725621492 M 2364.2833436382753 115.31396975699997 L 2416.530863116275 115.31396975699997" stroke-miterlimit="10" stroke-width="2.990598758" stroke-dasharray=""/></g><g><g/><text fill="black" stroke="none" font-family="sans-serif" font-size="11pt" font-style="normal" font-weight="normal" text-decoration="normal" x="2347.1314600682867" y="134.401026536" text-anchor="start" dominant-baseline="alphabetic">c (Customer)</text></g></g><g><path fill="white" stroke="black" paint-order="fill stroke markers" d=" M 336.7942697221354 197.73135317599997 L 354.38602712213543 197.73135317599997 L 354.38602712213543 1838.6201164183988 L 336.7942697221354 1838.6201164183988 L 336.7942697221354 197.73135317599997" stroke-miterlimit="10" stroke-width="1.4659797833333332" stroke-dasharray=""/><path fill="white" stroke="black" paint-order="fill stroke markers" d=" M 121.42497883554688 246.98827389599995 L 139.0167362355469 246.98827389599995 L 139.0167362355469 296.24519461599994 L 121.42497883554688 296.24519461599994 L 121.42497883554688 246.98827389599995" stroke-miterlimit="10" stroke-width="1.4659797833333332" stroke-dasharray=""/><path fill="white" stroke="black" paint-order="fill stroke markers" d=" M 121.42497883554688 345.5021153359999 L 139.0167362355469 345.5021153359999 L 139.0167362355469 493.27287749599986 L 121.42497883554688 493.27287749599986 L 121.42497883554688 345.5021153359999" stroke-miterlimit="10" stroke-width="1.4659797833333332" stroke-dasharray=""/><path fill="white" stroke="black" paint-order="fill stroke markers" d=" M 736.5857515645833 560.1215556159998 L 754.1775089645834 560.1215556159998 L 754.1775089645834 1789.3631956983988 L 736.5857515645833 1789.3631956983988 L 736.5857515645833 560.1215556159998" stroke-miterlimit="10" stroke-width="1.4659797833333332" stroke-dasharray=""/><path fill="white" stroke="black" paint-order="fill stroke markers" d=" M 1283.7201624182292 676.2271544559998 L 1301.3119198182292 676.2271544559998 L 1301.3119198182292 1377.7160725383994 L 1283.7201624182292 1377.7160725383994 L 1283.7201624182292 676.2271544559998" stroke-miterlimit="10" stroke-width="1.4659797833333332" stroke-dasharray=""/><path fill="white" stroke="black" paint-order="fill stroke markers" d=" M 1526.3836580167317 725.4840751759998 L 1543.9754154167317 725.4840751759998 L 1543.9754154167317 841.5896740159998 L 1526.3836580167317 841.5896740159998 L 1526.3836580167317 725.4840751759998" stroke-miterlimit="10" stroke-width="1.4659797833333332" stroke-dasharray=""/><path fill="white" stroke="black" paint-order="fill stroke markers" d=" M 1952.0982232840418 890.8465947359998 L 1969.6899806840418 890.8465947359998 L 1969.6899806840418 1328.4591518183995 L 1952.0982232840418 1328.4591518183995 L 1952.0982232840418 890.8465947359998" stroke-miterlimit="10" stroke-width="1.4659797833333332" stroke-dasharray=""/><path fill="white" stroke="black" paint-order="fill stroke markers" d=" M 1960.8941019840418 1006.9521935759999 L 1978.4858593840418 1006.9521935759999 L 1978.4858593840418 1123.0577924159998 L 1960.8941019840418 1123.0577924159998 L 1960.8941019840418 1006.9521935759999" stroke-miterlimit="10" stroke-width="1.4659797833333332" stroke-dasharray=""/><path fill="white" stroke="black" paint-order="fill stroke markers" d=" M 2609.3531609861907 1229.9453103783997 L 2626.9449183861902 1229.9453103783997 L 2626.9449183861902 1279.2022310983996 L 2609.3531609861907 1279.2022310983996 L 2609.3531609861907 1229.9453103783997" stroke-miterlimit="10" stroke-width="1.4659797833333332" stroke-dasharray=""/><path fill="white" stroke="black" paint-order="fill stroke markers" d=" M 745.3816302645834 1444.5647506583994 L 762.9733876645834 1444.5647506583994 L 762.9733876645834 1761.216383858399 L 745.3816302645834 1761.216383858399 L 745.3816302645834 1444.5647506583994" stroke-miterlimit="10" stroke-width="1.4659797833333332" stroke-dasharray=""/><path fill="white" stroke="black" paint-order="fill stroke markers" d=" M 345.5901484221354 1493.8216713783993 L 363.18190582213543 1493.8216713783993 L 363.18190582213543 1740.106274978399 L 345.5901484221354 1740.106274978399 L 345.5901484221354 1493.8216713783993" stroke-miterlimit="10" stroke-width="1.4659797833333332" stroke-dasharray=""/><path fill="white" stroke="black" paint-order="fill stroke markers" d=" M 754.1775089645834 1543.0785920983992 L 771.7692663645834 1543.0785920983992 L 771.7692663645834 1592.3355128183991 L 754.1775089645834 1592.3355128183991 L 754.1775089645834 1543.0785920983992" stroke-miterlimit="10" stroke-width="1.4659797833333332" stroke-dasharray=""/><path fill="white" stroke="black" paint-order="fill stroke markers" d=" M 754.1775089645834 1641.592433538399 L 771.7692663645834 1641.592433538399 L 771.7692663645834 1690.849354258399 L 754.1775089645834 1690.849354258399 L 754.1775089645834 1641.592433538399" stroke-miterlimit="10" stroke-width="1.4659797833333332" stroke-dasharray=""/><g><g><rect fill="white" stroke="none" x="130.81305651171223" y="174.86206855599997" width="100.05923498367187" height="22.86928462"/></g><text fill="black" stroke="none" font-family="sans-serif" font-size="11pt" font-style="normal" font-weight="normal" text-decoration="normal" x="133.45182012171225" y="190.69465021599999" text-anchor="start" dominant-baseline="alphabetic">addBooking()</text></g><g><path fill="none" stroke="black" paint-order="fill stroke markers" d=" M 24.891078284960937 197.73135317599997 L 333.8623101554688 197.73135317599997" stroke-miterlimit="10" stroke-width="1.4659797833333332" stroke-dasharray=""/><g transform="translate(336.7942697221354,197.73135317599997) translate(-336.7942697221354,-197.73135317599997)"><path fill="black" stroke="none" paint-order="stroke fill markers" d=" M 322.13447188880207 190.4014542593333 L 336.7942697221354 197.73135317599997 L 322.13447188880207 205.06125209266665 Z"/></g></g><g><g><rect fill="white" stroke="none" x="159.8336491588802" y="224.11898927599995" width="156.14370763992187" height="22.86928462"/></g><text fill="black" stroke="none" font-family="sans-serif" font-size="11pt" font-style="normal" font-weight="normal" text-decoration="normal" x="162.47241276888022" y="239.95157093599997" text-anchor="start" dominant-baseline="alphabetic">addABookingDialog()</text></g><g><path fill="none" stroke="black" paint-order="fill stroke markers" d=" M 336.7942697221354 246.98827389599995 L 141.94869580221356 246.98827389599995" stroke-miterlimit="10" stroke-width="1.4659797833333332" stroke-dasharray=""/><g transform="translate(139.0167362355469,246.98827389599995) translate(-139.0167362355469,-246.98827389599995)"><path fill="black" stroke="none" paint-order="stroke fill markers" d=" M 153.67653406888022 239.65837497933327 L 139.0167362355469 246.98827389599995 L 153.67653406888022 254.31817281266663 Z"/></g></g><g><g><rect fill="white" stroke="none" x="235.26673936884114" y="273.37590999599996" width="5.27752722" height="22.86928462"/></g><text fill="black" stroke="none" font-family="sans-serif" font-size="11pt" font-style="normal" font-weight="normal" text-decoration="normal" x="237.90550297884116" y="289.208491656" text-anchor="start" dominant-baseline="alphabetic"></text></g><g><path fill="none" stroke="black" paint-order="fill stroke markers" d=" M 139.0167362355469 296.24519461599994 L 333.8623101554688 296.24519461599994" stroke-miterlimit="10" stroke-width="1.4659797833333332" stroke-dasharray="7.0367029599999995"/><g transform="translate(336.7942697221354,296.24519461599994) translate(-336.7942697221354,-296.24519461599994)"><path fill="black" stroke="none" paint-order="stroke fill markers" d=" M 322.13447188880207 288.9152956993333 L 336.7942697221354 296.24519461599994 L 322.13447188880207 303.5750935326666 Z"/></g></g><g><g><rect fill="white" stroke="none" x="181.46214342157552" y="322.63283071599994" width="112.88671911453125" height="22.86928462"/></g><text fill="black" stroke="none" font-family="sans-serif" font-size="11pt" font-style="normal" font-weight="normal" text-decoration="normal" x="184.10090703157553" y="338.46541237599996" text-anchor="start" dominant-baseline="alphabetic">showAndWait()</text></g><g><path fill="none" stroke="black" paint-order="fill stroke markers" d=" M 336.7942697221354 345.5021153359999 L 141.94869580221356 345.5021153359999" stroke-miterlimit="10" stroke-width="1.4659797833333332" stroke-dasharray=""/><g transform="translate(139.0167362355469,345.5021153359999) translate(-139.0167362355469,-345.5021153359999)"><path fill="black" stroke="none" paint-order="stroke fill markers" d=" M 153.67653406888022 338.17221641933327 L 139.0167362355469 345.5021153359999 L 153.67653406888022 352.83201425266657 Z"/></g></g><g><g><rect fill="white" stroke="none" x="70.51926495025391" y="371.8897514359999" width="5.27752722" height="22.86928462"/></g><text fill="black" stroke="none" font-family="sans-serif" font-size="11pt" font-style="normal" font-weight="normal" text-decoration="normal" x="73.15802856025391" y="387.72233309599994" text-anchor="start" dominant-baseline="alphabetic"></text></g><g><path fill="none" stroke="black" paint-order="fill stroke markers" d=" M 121.42497883554688 394.7590360559999 L 27.823037851627603 394.7590360559999" stroke-miterlimit="10" stroke-width="1.4659797833333332" stroke-dasharray=""/><g transform="translate(24.891078284960937,394.7590360559999) translate(-24.891078284960937,-394.7590360559999)"><path fill="black" stroke="none" paint-order="stroke fill markers" d=" M 39.55087611829427 387.42913713933325 L 24.891078284960937 394.7590360559999 L 39.55087611829427 402.08893497266655 Z"/></g></g><g><g><rect fill="white" stroke="none" x="70.51926495025391" y="421.1466721559999" width="5.27752722" height="22.86928462"/></g><text fill="black" stroke="none" font-family="sans-serif" font-size="11pt" font-style="normal" font-weight="normal" text-decoration="normal" x="73.15802856025391" y="436.9792538159999" text-anchor="start" dominant-baseline="alphabetic"></text></g><g><path fill="none" stroke="black" paint-order="fill stroke markers" d=" M 24.891078284960937 444.0159567759999 L 118.49301926888022 444.0159567759999" stroke-miterlimit="10" stroke-width="1.4659797833333332" stroke-dasharray="7.0367029599999995"/><g transform="translate(121.42497883554688,444.0159567759999) translate(-121.42497883554688,-444.0159567759999)"><path fill="black" stroke="none" paint-order="stroke fill markers" d=" M 106.76518100221355 436.68605785933323 L 121.42497883554688 444.0159567759999 L 106.76518100221355 451.34585569266653 Z"/></g></g><g><g><rect fill="white" stroke="none" x="175.1128468517513" y="470.4035928759999" width="125.58531225417968" height="22.86928462"/></g><text fill="black" stroke="none" font-family="sans-serif" font-size="11pt" font-style="normal" font-weight="normal" text-decoration="normal" x="177.7516104617513" y="486.2361745359999" text-anchor="start" dominant-baseline="alphabetic">return c : CusInfo</text></g><g><path fill="none" stroke="black" paint-order="fill stroke markers" d=" M 139.0167362355469 493.27287749599986 L 333.8623101554688 493.27287749599986" stroke-miterlimit="10" stroke-width="1.4659797833333332" stroke-dasharray=""/><g transform="translate(336.7942697221354,493.27287749599986) translate(-336.7942697221354,-493.27287749599986)"><path fill="black" stroke="none" paint-order="stroke fill markers" d=" M 322.13447188880207 485.9429785793332 L 336.7942697221354 493.27287749599986 L 322.13447188880207 500.6027764126665 Z"/></g></g><g><g><rect fill="white" stroke="none" x="379.6008793954688" y="519.6605135959998" width="331.7700198957813" height="22.86928462"/></g><g><rect fill="white" stroke="none" x="379.6008793954688" y="537.2522709959998" width="167.23886144851562" height="22.86928462"/></g><text fill="black" stroke="none" font-family="sans-serif" font-size="11pt" font-style="normal" font-weight="normal" text-decoration="normal" x="382.2396430054688" y="535.4930952559997" text-anchor="start" dominant-baseline="alphabetic">addBooking(bookedDate : Date,name : String, </text><text fill="black" stroke="none" font-family="sans-serif" font-size="11pt" font-style="normal" font-weight="normal" text-decoration="normal" x="382.2396430054688" y="553.0848526559997" text-anchor="start" dominant-baseline="alphabetic">phoneNumber : String)</text></g><g><path fill="none" stroke="black" paint-order="fill stroke markers" d=" M 354.38602712213543 560.1215556159998 L 733.6537919979166 560.1215556159998" stroke-miterlimit="10" stroke-width="1.4659797833333332" stroke-dasharray=""/><g transform="translate(736.5857515645833,560.1215556159998) translate(-736.5857515645833,-560.1215556159998)"><path fill="black" stroke="none" paint-order="stroke fill markers" d=" M 721.92595373125 552.7916566993331 L 736.5857515645833 560.1215556159998 L 721.92595373125 567.4514545326665 Z"/></g></g><g><g><rect fill="white" stroke="none" x="774.9944218879167" y="586.5091917159997" width="484.9768680403125" height="22.86928462"/></g><text fill="black" stroke="none" font-family="sans-serif" font-size="11pt" font-style="normal" font-weight="normal" text-decoration="normal" x="777.6331854979167" y="602.3417733759997" text-anchor="start" dominant-baseline="alphabetic">checkDoubleBooked(name : String, bookingDate : Date, b : Booking)</text></g><g><path fill="none" stroke="black" paint-order="fill stroke markers" d=" M 754.1775089645834 609.3784763359997 L 824.5445385645834 609.3784763359997 L 824.5445385645834 626.9702337359997 L 757.1094685312501 626.9702337359997" stroke-miterlimit="10" stroke-width="1.4659797833333332" stroke-dasharray=""/><g transform="translate(754.1775089645834,626.9702337359997) translate(-754.1775089645834,-626.9702337359997)"><path fill="black" stroke="none" paint-order="stroke fill markers" d=" M 768.8373067979167 619.640334819333 L 754.1775089645834 626.9702337359997 L 768.8373067979167 634.3001326526664 Z"/></g></g><g><g><rect fill="white" stroke="none" x="919.2520810535742" y="653.3578698359997" width="199.39350927566406" height="22.86928462"/></g><text fill="black" stroke="none" font-family="sans-serif" font-size="11pt" font-style="normal" font-weight="normal" text-decoration="normal" x="921.8908446635742" y="669.1904514959997" text-anchor="start" dominant-baseline="alphabetic">addReservation(b: Booking)</text></g><g><path fill="none" stroke="black" paint-order="fill stroke markers" d=" M 754.1775089645834 676.2271544559998 L 1280.7882028515626 676.2271544559998" stroke-miterlimit="10" stroke-width="1.4659797833333332" stroke-dasharray=""/><g transform="translate(1283.7201624182292,676.2271544559998) translate(-1283.7201624182292,-676.2271544559998)"><path fill="black" stroke="none" paint-order="stroke fill markers" d=" M 1269.0603645848958 668.8972555393331 L 1283.7201624182292 676.2271544559998 L 1269.0603645848958 683.5570533726665 Z"/></g></g><g><g><rect fill="white" stroke="none" x="1322.1288327415625" y="702.6147905559998" width="183.43791235183593" height="22.86928462"/></g><text fill="black" stroke="none" font-family="sans-serif" font-size="11pt" font-style="normal" font-weight="normal" text-decoration="normal" x="1324.7675963515626" y="718.4473722159997" text-anchor="start" dominant-baseline="alphabetic">getRoom(roomNum : int)</text></g><g><path fill="none" stroke="black" paint-order="fill stroke markers" d=" M 1301.3119198182292 725.4840751759998 L 1523.4516984500651 725.4840751759998" stroke-miterlimit="10" stroke-width="1.4659797833333332" stroke-dasharray=""/><g transform="translate(1526.3836580167317,725.4840751759998) translate(-1526.3836580167317,-725.4840751759998)"><path fill="black" stroke="none" paint-order="stroke fill markers" d=" M 1511.7238601833983 718.1541762593331 L 1526.3836580167317 725.4840751759998 L 1511.7238601833983 732.8139740926665 Z"/></g></g><g><g><rect fill="white" stroke="none" x="1564.792328340065" y="751.8717112759997" width="216.01486242507812" height="22.86928462"/></g><text fill="black" stroke="none" font-family="sans-serif" font-size="11pt" font-style="normal" font-weight="normal" text-decoration="normal" x="1567.4310919500651" y="767.7042929359997" text-anchor="start" dominant-baseline="alphabetic">getFromCacheByNumber(tno)</text></g><g><path fill="none" stroke="black" paint-order="fill stroke markers" d=" M 1543.9754154167317 774.7409958959997 L 1614.3424450167317 774.7409958959997 L 1614.3424450167317 792.3327532959997 L 1546.9073749833983 792.3327532959997" stroke-miterlimit="10" stroke-width="1.4659797833333332" stroke-dasharray=""/><g transform="translate(1543.9754154167317,792.3327532959997) translate(-1543.9754154167317,-792.3327532959997)"><path fill="black" stroke="none" paint-order="stroke fill markers" d=" M 1558.6352132500651 785.002854379333 L 1543.9754154167317 792.3327532959997 L 1558.6352132500651 799.6626522126664 Z"/></g></g><g><g><rect fill="white" stroke="none" x="1357.6442517479102" y="818.7203893959997" width="112.40707433914062" height="22.86928462"/></g><text fill="black" stroke="none" font-family="sans-serif" font-size="11pt" font-style="normal" font-weight="normal" text-decoration="normal" x="1360.2830153579102" y="834.5529710559997" text-anchor="start" dominant-baseline="alphabetic">return r : Room</text></g><g><path fill="none" stroke="black" paint-order="fill stroke markers" d=" M 1526.3836580167317 841.5896740159998 L 1304.2438793848958 841.5896740159998" stroke-miterlimit="10" stroke-width="1.4659797833333332" stroke-dasharray="7.0367029599999995"/><g transform="translate(1301.3119198182292,841.5896740159998) translate(-1301.3119198182292,-841.5896740159998)"><path fill="black" stroke="none" paint-order="stroke fill markers" d=" M 1315.9717176515626 834.2597750993331 L 1301.3119198182292 841.5896740159998 L 1315.9717176515626 848.9195729326665 Z"/></g></g><g><g><rect fill="white" stroke="none" x="1404.785698810276" y="867.9773101159998" width="443.8387454817188" height="22.86928462"/></g><text fill="black" stroke="none" font-family="sans-serif" font-size="11pt" font-style="normal" font-weight="normal" text-decoration="normal" x="1407.424462420276" y="883.8098917759997" text-anchor="start" dominant-baseline="alphabetic">addABooking(roomNum: int,userNam: String, bookDate: Date)</text></g><g><path fill="none" stroke="black" paint-order="fill stroke markers" d=" M 1301.3119198182292 890.8465947359998 L 1949.1662637173752 890.8465947359998" stroke-miterlimit="10" stroke-width="1.4659797833333332" stroke-dasharray=""/><g transform="translate(1952.0982232840418,890.8465947359998) translate(-1952.0982232840418,-890.8465947359998)"><path fill="black" stroke="none" paint-order="stroke fill markers" d=" M 1937.4384254507083 883.5166958193331 L 1952.0982232840418 890.8465947359998 L 1937.4384254507083 898.1764936526665 Z"/></g></g><g><g><rect fill="white" stroke="none" x="2047.9327260237812" y="917.2342308359998" width="88.91392553542968" height="22.86928462"/></g><text fill="black" stroke="none" font-family="sans-serif" font-size="11pt" font-style="normal" font-weight="normal" text-decoration="normal" x="2050.5714896337813" y="933.0668124959998" text-anchor="start" dominant-baseline="alphabetic">oid:=getId()</text></g><g><path fill="none" stroke="black" paint-order="fill stroke markers" d=" M 1969.6899806840418 940.1035154559999 L 2212.157437332284 940.1035154559999" stroke-miterlimit="10" stroke-width="1.4659797833333332" stroke-dasharray=""/><g transform="translate(2215.089396898951,940.1035154559999) translate(-2215.089396898951,-940.1035154559999)"><path fill="black" stroke="none" paint-order="stroke fill markers" d=" M 2200.4295990656174 932.7736165393331 L 2215.089396898951 940.1035154559999 L 2200.4295990656174 947.4334143726666 Z"/></g></g><g><g><rect fill="white" stroke="none" x="1999.302772307375" y="966.4911515559999" width="193.41638220046875" height="22.86928462"/></g><text fill="black" stroke="none" font-family="sans-serif" font-size="11pt" font-style="normal" font-weight="normal" text-decoration="normal" x="2001.9415359173752" y="982.3237332159998" text-anchor="start" dominant-baseline="alphabetic">performUpdate(sql: String)</text></g><g><path fill="none" stroke="black" paint-order="fill stroke markers" d=" M 1969.6899806840418 989.3604361759999 L 2048.852888984042 989.3604361759999 L 2048.852888984042 1006.9521935759999 L 1981.4178189507084 1006.9521935759999" stroke-miterlimit="10" stroke-width="1.4659797833333332" stroke-dasharray=""/><g transform="translate(1978.4858593840418,1006.9521935759999) translate(-1978.4858593840418,-1006.9521935759999)"><path fill="black" stroke="none" paint-order="stroke fill markers" d=" M 1993.1456572173752 999.6222946593332 L 1978.4858593840418 1006.9521935759999 L 1993.1456572173752 1014.2820924926666 Z"/></g></g><g><g><rect fill="white" stroke="none" x="1999.3027723073753" y="1033.339829676" width="194.96971166824218" height="22.86928462"/></g><text fill="black" stroke="none" font-family="sans-serif" font-size="11pt" font-style="normal" font-weight="normal" text-decoration="normal" x="2001.9415359173754" y="1049.1724113359999" text-anchor="start" dominant-baseline="alphabetic">executeUpdate(sql : String)</text></g><g><path fill="none" stroke="black" paint-order="fill stroke markers" d=" M 1978.4858593840418 1056.2091142959998 L 2212.157437332284 1056.2091142959998" stroke-miterlimit="10" stroke-width="1.4659797833333332" stroke-dasharray=""/><g transform="translate(2215.089396898951,1056.2091142959998) translate(-2215.089396898951,-1056.2091142959998)"><path fill="black" stroke="none" paint-order="stroke fill markers" d=" M 2200.4295990656174 1048.8792153793331 L 2215.089396898951 1056.2091142959998 L 2200.4295990656174 1063.5390132126665 Z"/></g></g><g><g><rect fill="white" stroke="none" x="1999.302772307375" y="1082.5967503959998" width="5.27752722" height="22.86928462"/></g><text fill="black" stroke="none" font-family="sans-serif" font-size="11pt" font-style="normal" font-weight="normal" text-decoration="normal" x="2001.9415359173752" y="1098.4293320559998" text-anchor="start" dominant-baseline="alphabetic"></text></g><g><path fill="none" stroke="black" paint-order="fill stroke markers" d=" M 1978.4858593840418 1105.4660350159998 L 2048.852888984042 1105.4660350159998 L 2048.852888984042 1123.0577924159998 L 1981.4178189507084 1123.0577924159998" stroke-miterlimit="10" stroke-width="1.4659797833333332" stroke-dasharray="7.0367029599999995"/><g transform="translate(1978.4858593840418,1123.0577924159998) translate(-1978.4858593840418,-1123.0577924159998)"><path fill="black" stroke="none" paint-order="stroke fill markers" d=" M 1993.1456572173752 1115.727893499333 L 1978.4858593840418 1123.0577924159998 L 1993.1456572173752 1130.3876913326665 Z"/></g></g><g><path fill="white" stroke="black" paint-order="fill stroke markers" d=" M 2644.2727994251904 1175.5691882549997 A 26.123759739 26.123759739 0 1 1 2644.2727863633118 1175.5430644996147 M 2590.5299805681907 1204.0854270003997 L 2642.7775000461907 1204.0854270003997" stroke-miterlimit="10" stroke-width="2.990598758" stroke-dasharray=""/></g><g><g/><text fill="black" stroke="none" font-family="sans-serif" font-size="11pt" font-style="normal" font-weight="normal" text-decoration="normal" x="2577.096785963046" y="1223.1724837793997" text-anchor="start" dominant-baseline="alphabetic">Reservation</text></g><g><g><rect fill="white" stroke="none" x="2008.8791619498718" y="1166.8260848271998" width="529.0284427473438" height="22.86928462"/></g><text fill="black" stroke="none" font-family="sans-serif" font-size="11pt" font-style="normal" font-weight="normal" text-decoration="normal" x="2011.5179255598719" y="1182.6586664871998" text-anchor="start" dominant-baseline="alphabetic">PersistentBookingMaapper(oid : Integer, date: Date,r : Room, c : Customer)</text></g><g><path fill="none" stroke="black" paint-order="fill stroke markers" d=" M 1969.6899806840418 1189.6953694471997 L 2574.1648263963793 1189.6953694471997" stroke-miterlimit="10" stroke-width="1.4659797833333332" stroke-dasharray=""/><g transform="translate(2577.096785963046,1189.6953694471997) translate(-2577.096785963046,-1189.6953694471997)"><path fill="black" stroke="none" paint-order="stroke fill markers" d=" M 2562.4369881297125 1182.365470530533 L 2577.096785963046 1189.6953694471997 L 2562.4369881297125 1197.0252683638664 Z"/></g></g><g><g><rect fill="white" stroke="none" x="2286.8828072251163" y="1256.3329464783997" width="5.27752722" height="22.86928462"/></g><text fill="black" stroke="none" font-family="sans-serif" font-size="11pt" font-style="normal" font-weight="normal" text-decoration="normal" x="2289.521570835116" y="1272.1655281383996" text-anchor="start" dominant-baseline="alphabetic"></text></g><g><path fill="none" stroke="black" paint-order="fill stroke markers" d=" M 2609.3531609861907 1279.2022310983996 L 1972.6219402507083 1279.2022310983996" stroke-miterlimit="10" stroke-width="1.4659797833333332" stroke-dasharray="7.0367029599999995"/><g transform="translate(1969.6899806840418,1279.2022310983996) translate(-1969.6899806840418,-1279.2022310983996)"><path fill="black" stroke="none" paint-order="stroke fill markers" d=" M 1984.3497785173752 1271.8723321817329 L 1969.6899806840418 1279.2022310983996 L 1984.3497785173752 1286.5321300150663 Z"/></g></g><g><g><rect fill="white" stroke="none" x="1624.0663079411354" y="1305.5898671983996" width="5.27752722" height="22.86928462"/></g><text fill="black" stroke="none" font-family="sans-serif" font-size="11pt" font-style="normal" font-weight="normal" text-decoration="normal" x="1626.7050715511355" y="1321.4224488583995" text-anchor="start" dominant-baseline="alphabetic"></text></g><g><path fill="none" stroke="black" paint-order="fill stroke markers" d=" M 1952.0982232840418 1328.4591518183995 L 1304.2438793848958 1328.4591518183995" stroke-miterlimit="10" stroke-width="1.4659797833333332" stroke-dasharray="7.0367029599999995"/><g transform="translate(1301.3119198182292,1328.4591518183995) translate(-1301.3119198182292,-1328.4591518183995)"><path fill="black" stroke="none" paint-order="stroke fill markers" d=" M 1315.9717176515626 1321.1292529017328 L 1301.3119198182292 1328.4591518183995 L 1315.9717176515626 1335.7890507350662 Z"/></g></g><g><g><rect fill="white" stroke="none" x="1016.3100720814062" y="1354.8467879183995" width="5.27752722" height="22.86928462"/></g><text fill="black" stroke="none" font-family="sans-serif" font-size="11pt" font-style="normal" font-weight="normal" text-decoration="normal" x="1018.9488356914062" y="1370.6793695783995" text-anchor="start" dominant-baseline="alphabetic"></text></g><g><path fill="none" stroke="black" paint-order="fill stroke markers" d=" M 1283.7201624182292 1377.7160725383994 L 757.1094685312501 1377.7160725383994" stroke-miterlimit="10" stroke-width="1.4659797833333332" stroke-dasharray="7.0367029599999995"/><g transform="translate(754.1775089645834,1377.7160725383994) translate(-754.1775089645834,-1377.7160725383994)"><path fill="black" stroke="none" paint-order="stroke fill markers" d=" M 768.8373067979167 1370.3861736217327 L 754.1775089645834 1377.7160725383994 L 768.8373067979167 1385.0459714550661 Z"/></g></g><g><g><rect fill="white" stroke="none" x="783.7903005879167" y="1404.1037086383994" width="126.03630102371093" height="22.86928462"/></g><text fill="black" stroke="none" font-family="sans-serif" font-size="11pt" font-style="normal" font-weight="normal" text-decoration="normal" x="786.4290641979167" y="1419.9362902983994" text-anchor="start" dominant-baseline="alphabetic">notifyObservers()</text></g><g><path fill="none" stroke="black" paint-order="fill stroke markers" d=" M 754.1775089645834 1426.9729932583994 L 833.3404172645834 1426.9729932583994 L 833.3404172645834 1444.5647506583994 L 765.9053472312501 1444.5647506583994" stroke-miterlimit="10" stroke-width="1.4659797833333332" stroke-dasharray=""/><g transform="translate(762.9733876645834,1444.5647506583994) translate(-762.9733876645834,-1444.5647506583994)"><path fill="black" stroke="none" paint-order="stroke fill markers" d=" M 777.6331854979167 1437.2348517417327 L 762.9733876645834 1444.5647506583994 L 777.6331854979167 1451.894649575066 Z"/></g></g><g><g><rect fill="white" stroke="none" x="521.9185934226173" y="1470.9523867583994" width="64.72634924148437" height="22.86928462"/></g><text fill="black" stroke="none" font-family="sans-serif" font-size="11pt" font-style="normal" font-weight="normal" text-decoration="normal" x="524.5573570326172" y="1486.7849684183993" text-anchor="start" dominant-baseline="alphabetic">update()</text></g><g><path fill="none" stroke="black" paint-order="fill stroke markers" d=" M 745.3816302645834 1493.8216713783993 L 366.1138653888021 1493.8216713783993" stroke-miterlimit="10" stroke-width="1.4659797833333332" stroke-dasharray=""/><g transform="translate(363.18190582213543,1493.8216713783993) translate(-363.18190582213543,-1493.8216713783993)"><path fill="black" stroke="none" paint-order="stroke fill markers" d=" M 377.8417036554688 1486.4917724617326 L 363.18190582213543 1493.8216713783993 L 377.8417036554688 1501.151570295066 Z"/></g></g><g><g><rect fill="white" stroke="none" x="523.0416533170509" y="1520.2093074783993" width="71.27610815261718" height="22.86928462"/></g><text fill="black" stroke="none" font-family="sans-serif" font-size="11pt" font-style="normal" font-weight="normal" text-decoration="normal" x="525.6804169270508" y="1536.0418891383993" text-anchor="start" dominant-baseline="alphabetic">getDate()</text></g><g><path fill="none" stroke="black" paint-order="fill stroke markers" d=" M 363.18190582213543 1543.0785920983992 L 751.2455493979166 1543.0785920983992" stroke-miterlimit="10" stroke-width="1.4659797833333332" stroke-dasharray=""/><g transform="translate(754.1775089645834,1543.0785920983992) translate(-754.1775089645834,-1543.0785920983992)"><path fill="black" stroke="none" paint-order="stroke fill markers" d=" M 739.51771113125 1535.7486931817325 L 754.1775089645834 1543.0785920983992 L 739.51771113125 1550.408491015066 Z"/></g></g><g><g><rect fill="white" stroke="none" x="516.7209822355079" y="1569.4662281983992" width="83.91745031570312" height="22.86928462"/></g><text fill="black" stroke="none" font-family="sans-serif" font-size="11pt" font-style="normal" font-weight="normal" text-decoration="normal" x="519.3597458455079" y="1585.2988098583992" text-anchor="start" dominant-baseline="alphabetic">return date</text></g><g><path fill="none" stroke="black" paint-order="fill stroke markers" d=" M 754.1775089645834 1592.3355128183991 L 366.1138653888021 1592.3355128183991" stroke-miterlimit="10" stroke-width="1.4659797833333332" stroke-dasharray="7.0367029599999995"/><g transform="translate(363.18190582213543,1592.3355128183991) translate(-363.18190582213543,-1592.3355128183991)"><path fill="black" stroke="none" paint-order="stroke fill markers" d=" M 377.8417036554688 1585.0056139017324 L 363.18190582213543 1592.3355128183991 L 377.8417036554688 1599.6654117350658 Z"/></g></g><g><g><rect fill="white" stroke="none" x="507.10750262125003" y="1618.7231489183991" width="103.14440954421875" height="22.86928462"/></g><text fill="black" stroke="none" font-family="sans-serif" font-size="11pt" font-style="normal" font-weight="normal" text-decoration="normal" x="509.74626623125005" y="1634.555730578399" text-anchor="start" dominant-baseline="alphabetic">getBookings()</text></g><g><path fill="none" stroke="black" paint-order="fill stroke markers" d=" M 363.18190582213543 1641.592433538399 L 751.2455493979166 1641.592433538399" stroke-miterlimit="10" stroke-width="1.4659797833333332" stroke-dasharray=""/><g transform="translate(754.1775089645834,1641.592433538399) translate(-754.1775089645834,-1641.592433538399)"><path fill="black" stroke="none" paint-order="stroke fill markers" d=" M 739.51771113125 1634.2625346217324 L 754.1775089645834 1641.592433538399 L 739.51771113125 1648.9223324550658 Z"/></g></g><g><g><rect fill="white" stroke="none" x="499.8097426114844" y="1667.980069638399" width="117.73992956375" height="22.86928462"/></g><text fill="black" stroke="none" font-family="sans-serif" font-size="11pt" font-style="normal" font-weight="normal" text-decoration="normal" x="502.4485062214844" y="1683.812651298399" text-anchor="start" dominant-baseline="alphabetic">return bookings</text></g><g><path fill="none" stroke="black" paint-order="fill stroke markers" d=" M 754.1775089645834 1690.849354258399 L 366.1138653888021 1690.849354258399" stroke-miterlimit="10" stroke-width="1.4659797833333332" stroke-dasharray="7.0367029599999995"/><g transform="translate(363.18190582213543,1690.849354258399) translate(-363.18190582213543,-1690.849354258399)"><path fill="black" stroke="none" paint-order="stroke fill markers" d=" M 377.8417036554688 1683.5194553417323 L 363.18190582213543 1690.849354258399 L 377.8417036554688 1698.1792531750657 Z"/></g></g><g><g><rect fill="white" stroke="none" x="551.6430044333595" y="1717.236990358399" width="5.27752722" height="22.86928462"/></g><text fill="black" stroke="none" font-family="sans-serif" font-size="11pt" font-style="normal" font-weight="normal" text-decoration="normal" x="554.2817680433594" y="1733.069572018399" text-anchor="start" dominant-baseline="alphabetic"></text></g><g><path fill="none" stroke="black" paint-order="fill stroke markers" d=" M 363.18190582213543 1740.106274978399 L 742.4496706979166 1740.106274978399" stroke-miterlimit="10" stroke-width="1.4659797833333332" stroke-dasharray="7.0367029599999995"/><g transform="translate(745.3816302645834,1740.106274978399) translate(-745.3816302645834,-1740.106274978399)"><path fill="black" stroke="none" paint-order="stroke fill markers" d=" M 730.72183243125 1732.7763760617322 L 745.3816302645834 1740.106274978399 L 730.72183243125 1747.4361738950656 Z"/></g></g><g><g><rect fill="white" stroke="none" x="542.8471257333595" y="1766.493911078399" width="5.27752722" height="22.86928462"/></g><text fill="black" stroke="none" font-family="sans-serif" font-size="11pt" font-style="normal" font-weight="normal" text-decoration="normal" x="545.4858893433594" y="1782.3264927383989" text-anchor="start" dominant-baseline="alphabetic"></text></g><g><path fill="none" stroke="black" paint-order="fill stroke markers" d=" M 736.5857515645833 1789.3631956983988 L 357.3179866888021 1789.3631956983988" stroke-miterlimit="10" stroke-width="1.4659797833333332" stroke-dasharray="7.0367029599999995"/><g transform="translate(354.38602712213543,1789.3631956983988) translate(-354.38602712213543,-1789.3631956983988)"><path fill="black" stroke="none" paint-order="stroke fill markers" d=" M 369.0458249554688 1782.0332967817321 L 354.38602712213543 1789.3631956983988 L 369.0458249554688 1796.6930946150655 Z"/></g></g><g><g><rect fill="white" stroke="none" x="178.20391039354817" y="1815.7508317983988" width="5.27752722" height="22.86928462"/></g><text fill="black" stroke="none" font-family="sans-serif" font-size="11pt" font-style="normal" font-weight="normal" text-decoration="normal" x="180.84267400354818" y="1831.5834134583988" text-anchor="start" dominant-baseline="alphabetic"></text></g><g><path fill="none" stroke="black" paint-order="fill stroke markers" d=" M 336.7942697221354 1838.6201164183988 L 27.823037851627603 1838.6201164183988" stroke-miterlimit="10" stroke-width="1.4659797833333332" stroke-dasharray="7.0367029599999995"/><g transform="translate(24.891078284960937,1838.6201164183988) translate(-24.891078284960937,-1838.6201164183988)"><path fill="black" stroke="none" paint-order="stroke fill markers" d=" M 39.55087611829427 1831.290217501732 L 24.891078284960937 1838.6201164183988 L 39.55087611829427 1845.9500153350655 Z"/></g></g></g><g/><g/><g/><g/><g/><g/><g/><g/><g/><g/><g/></g></svg>