<svg version="1.1" xmlns="http://www.w3.org/2000/svg" xmlns:xlink="http://www.w3.org/1999/xlink" width="2016" height="1958"><defs/><g><g/><g/><g/><g/><g/><g/><g/><g/><g/><g/><g/><g/><g/><g/><g/><g/><g/><g/><g/><g/><g/><g/><g/><g/><g/><g/><g/><g/><g/><g/><g/><g/><g><rect fill="white" stroke="none" x="0" y="0" width="2016" height="1958"/></g><g><text fill="black" stroke="none" font-family="sans-serif" font-size="16.5pt" font-style="normal" font-weight="normal" text-decoration="normal" x="910.198365360004" y="26.3876361" text-anchor="start" dominant-baseline="alphabetic">Cancel a Book BCE</text></g><g/><g><path fill="none" stroke="black" paint-order="fill stroke markers" d=" M 24.891078284960937 139.67855375599999 L 24.891078284960937 1958.6662689159994" stroke-miterlimit="10" stroke-width="1.4659797833333332" stroke-dasharray="13.532121076923076,5.863919133333333"/><path fill="none" stroke="black" paint-order="fill stroke markers" d=" M 152.56139572532553 139.67855375599999 L 152.56139572532553 1958.6662689159994" stroke-miterlimit="10" stroke-width="1.4659797833333332" stroke-dasharray="13.532121076923076,5.863919133333333"/><path fill="none" stroke="black" paint-order="fill stroke markers" d=" M 434.2727734039063 139.67855375599999 L 434.2727734039063 1958.6662689159994" stroke-miterlimit="10" stroke-width="1.4659797833333332" stroke-dasharray="13.532121076923076,5.863919133333333"/><path fill="none" stroke="black" paint-order="fill stroke markers" d=" M 799.9268040744792 139.67855375599999 L 799.9268040744792 1958.6662689159994" stroke-miterlimit="10" stroke-width="1.4659797833333332" stroke-dasharray="13.532121076923076,5.863919133333333"/><path fill="none" stroke="black" paint-order="fill stroke markers" d=" M 1149.068578621875 139.67855375599999 L 1149.068578621875 1958.6662689159994" stroke-miterlimit="10" stroke-width="1.4659797833333332" stroke-dasharray="13.532121076923076,5.863919133333333"/><path fill="none" stroke="black" paint-order="fill stroke markers" d=" M 1266.2448979888634 139.67855375599999 L 1266.2448979888634 1958.6662689159994" stroke-miterlimit="10" stroke-width="1.4659797833333332" stroke-dasharray="13.532121076923076,5.863919133333333"/><path fill="none" stroke="black" paint-order="fill stroke markers" d=" M 1410.211045037301 139.67855375599999 L 1410.211045037301 1958.6662689159994" stroke-miterlimit="10" stroke-width="1.4659797833333332" stroke-dasharray="13.532121076923076,5.863919133333333"/><path fill="none" stroke="black" paint-order="fill stroke markers" d=" M 1568.536259667961 139.67855375599999 L 1568.536259667961 1958.6662689159994" stroke-miterlimit="10" stroke-width="1.4659797833333332" stroke-dasharray="13.532121076923076,5.863919133333333"/><path fill="none" stroke="black" paint-order="fill stroke markers" d=" M 1822.7315545828699 139.67855375599999 L 1822.7315545828699 1958.6662689159994" stroke-miterlimit="10" stroke-width="1.4659797833333332" stroke-dasharray="13.532121076923076,5.863919133333333"/><path fill="none" stroke="black" paint-order="fill stroke markers" d=" M 1950.6416791521408 139.67855375599999 L 1950.6416791521408 1958.6662689159994" stroke-miterlimit="10" stroke-width="1.4659797833333332" stroke-dasharray="13.532121076923076,5.863919133333333"/></g><g><g><path fill="white" stroke="black" paint-order="fill stroke markers" d=" M 34.91838000296094 65.265419954 A 10.027301717999999 10.027301717999999 0 1 1 34.91837498931049 65.25539265395321 M 24.891078284960937 75.29272167199998 L 24.891078284960937 96.75466569999998 M 12.225012956960938 83.033094928 L 37.557143612960935 83.033094928 M 24.891078284960937 96.75466569999998 L 12.225012956960938 116.80926913599998 M 24.891078284960937 96.75466569999998 L 37.557143612960935 116.80926913599998" stroke-miterlimit="10" stroke-width="2.990598758" stroke-dasharray=""/></g><g><g/><text fill="black" stroke="none" font-family="sans-serif" font-size="11pt" font-style="normal" font-weight="normal" text-decoration="normal" x="8.7958787" y="134.401026536" text-anchor="start" dominant-baseline="alphabetic">Staff</text></g><g><path fill="white" stroke="black" paint-order="fill stroke markers" d=" M 187.48103416432554 89.19021001799997 A 26.123759739 26.123759739 0 1 1 187.48102110244673 89.16408626261492 M 119.13705666532552 61.57115089999997 L 119.13705666532552 116.80926913599997 M 117.64175728632551 89.19021001799997 L 135.23351468632552 89.19021001799997" stroke-miterlimit="10" stroke-width="2.990598758" stroke-dasharray=""/></g><g><g/><text fill="black" stroke="none" font-family="sans-serif" font-size="11pt" font-style="normal" font-weight="normal" text-decoration="normal" x="135.76469620139974" y="134.401026536" text-anchor="start" dominant-baseline="alphabetic">Alert</text></g><g><path fill="white" stroke="black" paint-order="fill stroke markers" d=" M 469.19241184290627 89.19021001799997 A 26.123759739 26.123759739 0 1 1 469.1923987810275 89.16408626261492 M 400.8484343439063 61.57115089999997 L 400.8484343439063 116.80926913599997 M 399.3531349649063 89.19021001799997 L 416.9448923649063 89.19021001799997" stroke-miterlimit="10" stroke-width="2.990598758" stroke-dasharray=""/></g><g><g/><text fill="black" stroke="none" font-family="sans-serif" font-size="11pt" font-style="normal" font-weight="normal" text-decoration="normal" x="410.5505138824219" y="134.401026536" text-anchor="start" dominant-baseline="alphabetic">StaffUI</text></g><g><path fill="white" stroke="black" paint-order="fill stroke markers" d=" M 826.0505638134791 89.19021001799997 A 26.123759739 26.123759739 0 1 1 826.0505507516003 89.16408626261492 M 796.4084525944792 63.06645027899997 L 806.9635070344792 54.27057157899998 M 796.4084525944792 63.06645027899997 L 806.9635070344792 71.86232897899997" stroke-miterlimit="10" stroke-width="2.990598758" stroke-dasharray=""/></g><g><g/><text fill="black" stroke="none" font-family="sans-serif" font-size="11pt" font-style="normal" font-weight="normal" text-decoration="normal" x="745.5996632663737" y="134.401026536" text-anchor="start" dominant-baseline="alphabetic">BookingSystem</text></g><path fill="none" stroke="none"/><g><path fill="white" stroke="black" paint-order="fill stroke markers" d=" M 1110.8118669966836 92.18080877599999 L 1187.3252902470665 92.18080877599999 L 1187.3252902470665 139.67855375599999 L 1110.8118669966836 139.67855375599999 L 1110.8118669966836 92.18080877599999 Z" stroke-miterlimit="10" stroke-width="2.814681184" stroke-dasharray=""/></g><g><g/><text fill="black" stroke="none" font-family="sans-serif" font-size="11pt" font-style="normal" font-weight="normal" text-decoration="normal" x="1129.8989237756837" y="122.08679635600001" text-anchor="start" dominant-baseline="alphabetic">Hotel</text></g><g><path fill="white" stroke="black" paint-order="fill stroke markers" d=" M 1292.3686577278634 86.79773101159998 A 26.123759739 26.123759739 0 1 1 1292.3686446659847 86.77160725621492 M 1238.6258388708634 115.31396975699997 L 1290.8733583488633 115.31396975699997" stroke-miterlimit="10" stroke-width="2.990598758" stroke-dasharray=""/></g><g><g/><text fill="black" stroke="none" font-family="sans-serif" font-size="11pt" font-style="normal" font-weight="normal" text-decoration="normal" x="1204.9170476470665" y="134.401026536" text-anchor="start" dominant-baseline="alphabetic">Booking (current)</text></g><g><path fill="white" stroke="black" paint-order="fill stroke markers" d=" M 1436.3348047763009 86.79773101159998 A 26.123759739 26.123759739 0 1 1 1436.3347917144222 86.77160725621492 M 1382.591985919301 115.31396975699997 L 1434.8395053973009 115.31396975699997" stroke-miterlimit="10" stroke-width="2.990598758" stroke-dasharray=""/></g><g><g/><text fill="black" stroke="none" font-family="sans-serif" font-size="11pt" font-style="normal" font-weight="normal" text-decoration="normal" x="1345.1645057306603" y="134.401026536" text-anchor="start" dominant-baseline="alphabetic">Booking (selected)</text></g><path fill="none" stroke="none"/><g><path fill="white" stroke="black" paint-order="fill stroke markers" d=" M 1492.8493417439415 92.18080877599999 L 1644.2231775919806 92.18080877599999 L 1644.2231775919806 139.67855375599999 L 1492.8493417439415 139.67855375599999 L 1492.8493417439415 92.18080877599999 Z" stroke-miterlimit="10" stroke-width="2.814681184" stroke-dasharray=""/></g><g><g/><text fill="black" stroke="none" font-family="sans-serif" font-size="11pt" font-style="normal" font-weight="normal" text-decoration="normal" x="1511.9363985229415" y="122.08679635600001" text-anchor="start" dominant-baseline="alphabetic">BookingMapper</text></g><g><path fill="white" stroke="black" paint-order="fill stroke markers" d=" M 1797.0475887788698 105.19870925199999 L 1797.0475887788698 68.25601871199999 L 1848.41552038687 68.25601871199999 L 1848.41552038687 105.19870925199999" stroke-miterlimit="10" stroke-width="2.990598758" stroke-dasharray=""/><path fill="white" stroke="black" paint-order="fill stroke markers" d=" M 1848.41552038687 66.97182042179999 L 1848.4142361992813 67.08792408555635 L 1848.4103837649332 67.20401613904309 L 1848.403963469066 67.3200849731516 L 1848.3949759537036 67.43611898109519 L 1848.3834221175903 67.55210655956978 L 1848.3693031161 67.66803610991414 L 1848.3526203611211 67.78389603926989 L 1848.3333755209153 67.8996747617406 L 1848.3115705199502 68.01536069955054 L 1848.2872075387083 68.1309422842023 L 1848.260289013467 68.24640795763378 L 1848.2308176360564 68.3617461733738 L 1848.19879635359 68.47694539769695 L 1848.164228368169 68.59199411077678 L 1848.1271171365634 68.70688080783783 L 1848.0874663698653 68.82159400030618 L 1848.0452800331184 68.93612221695814 L 1848.000562344921 69.0504540050675 L 1847.953317777005 69.16457793155072 L 1847.9035510537876 69.27848258411025 L 1847.8512671518997 69.39215657237577 L 1847.796471299688 69.50558852904317 L 1847.7391689766919 69.61876711101131 L 1847.679365913096 69.73168100051632 L 1847.6170680891569 69.84431890626333 L 1847.552281734605 69.95666956455563 L 1847.4850133280218 70.06872174042103 L 1847.415269596192 70.18046422873529 L 1847.3430575134305 70.29188585534273 L 1847.2683843008854 70.40297547817353 L 1847.1912574258158 70.51372198835797 L 1847.111684600845 70.62411431133734 L 1847.029673783189 70.73414140797132 L 1846.9452331738614 70.84379227564195 L 1846.8583712168527 70.95305594935381 L 1846.769096598286 71.06192150283061 L 1846.6774182455492 71.1703780496077 L 1846.583345326401 71.27841474412082 L 1846.486887248055 71.38602078279051 L 1846.3880536562383 71.4931854051026 L 1846.286854434228 71.59989789468413 L 1846.1832997018619 71.7061475803751 L 1846.0773998145269 71.81192383729548 L 1845.9691653621235 71.9172160879077 L 1845.858607168007 72.02201380307447 L 1845.7457362879043 72.12630650311159 L 1845.6305640088094 72.23008375883597 L 1845.5131018478546 72.33333519260853 L 1845.3933615511578 72.43605047937191 L 1845.271355092649 72.53821934768304 L 1845.147094672872 72.63983158074024 L 1845.020592717766 72.74087701740487 L 1844.8918618774203 72.84134555321748 L 1844.7609150248122 72.94122714140819 L 1844.6277652545177 73.04051179390143 L 1844.4924258814026 73.13918958231469 L 1844.3549104392919 73.23725063895135 L 1844.2152326796147 73.33468515778748 L 1844.073406570031 73.43148339545236 L 1843.9294462930334 73.52763567220293 L 1843.7833662445296 73.6231323728916 L 1843.6351810324027 73.71796394792793 L 1843.4849054750505 73.8121209142334 L 1843.3325545999035 73.90559385618985 L 1843.1781436419221 73.998373426581 L 1843.021688042074 74.09045034752711 L 1842.8632034457878 74.18181541141281 L 1842.702705701392 74.27245948180787 L 1842.5402108585267 74.36237349438078 L 1842.3757351665413 74.45154845780519 L 1842.2092950728675 74.53997545465909 L 1842.0409072213758 74.62764564231648 L 1841.8705884507117 74.71455025383165 L 1841.6983557926098 74.80068059881587 L 1841.5242264701926 74.88602806430642 L 1841.348217896247 74.97058411562787 L 1841.170347671484 75.05434029724555 L 1840.990633582778 75.13728823361109 L 1840.8090936013875 75.21941962999999 L 1840.62574588116 75.30072627334106 L 1840.440608756714 75.38120003303769 L 1840.2537007416086 75.46083286178099 L 1840.0650405264887 75.53961679635444 L 1839.8746469772193 75.61754395843025 L 1839.682539132996 75.69460655535714 L 1839.4887362044437 75.77079688093964 L 1839.2932575716934 75.84610731620869 L 1839.0961227824457 75.9205303301835 L 1838.897351550015 75.99405848062472 L 1838.6969637513591 76.06668441477855 L 1838.4949794250908 76.13840087011211 L 1838.2914187694744 76.20920067503964 L 1838.086302140406 76.27907674963963 L 1837.8796500493772 76.34802210636286 L 1837.6714831614254 76.4160298507311 L 1837.4618222930653 76.48309318202661 L 1837.2506884102097 76.54920539397213 L 1837.0381026260704 76.61435987540155 L 1836.824086199049 76.67855011092104 L 1836.6086605306095 76.74176968156053 L 1836.3918471631396 76.80401226541565 L 1836.1736677777951 76.86527163827986 L 1835.954144192333 76.92554167426694 L 1835.7332983589286 76.98481634642351 L 1835.5111523619814 77.04308972733178 L 1835.287728415906 77.10035598970217 L 1835.0630488629106 77.15660940695618 L 1834.8371361707634 77.21184435379898 L 1834.6100129305455 77.26605530678191 L 1834.3817018543914 77.31923684485484 L 1834.1522257732186 77.37138364990828 L 1833.921607634444 77.42249050730518 L 1833.6898704996893 77.4725523064024 L 1833.4570375424746 77.52156404106174 L 1833.223132045902 77.56952081015058 L 1832.988177400326 77.61641781803196 L 1832.7521971010156 77.6622503750442 L 1832.5152147458036 77.70701389796976 L 1832.2772540327285 77.75070391049368 L 1832.038338757663 77.7933160436511 L 1831.7984928119356 77.83484603626422 L 1831.5577401799412 77.87528973536838 L 1831.3161049367422 77.91464309662739 L 1831.0736112456616 77.9529021847379 L 1830.8302833558664 77.99006317382297 L 1830.586145599943 78.02612234781469 L 1830.341222391463 78.0610761008257 L 1830.0955382225436 78.09492093750981 L 1829.849117661397 78.12765347341158 L 1829.6019853498738 78.15927043530469 L 1829.3541660009992 78.18976866151928 L 1829.1056843965016 78.21914510225817 L 1828.8565653843345 78.24739681990175 L 1828.6068338761913 78.27452098930179 L 1828.3565148450148 78.30051489806398 L 1828.1056333224997 78.32537594681908 L 1827.8542143965888 78.34910164948295 L 1827.6022832089657 78.37168963350508 L 1827.3498649525386 78.39313764010592 L 1827.0969848689233 78.41344352450264 L 1826.8436682459171 78.43260525612375 L 1826.5899404149714 78.45062091881205 L 1826.3358267486578 78.46748871101629 L 1826.0813526581312 78.48320694597129 L 1825.8265435905887 78.49777405186667 L 1825.5714250267242 78.51118857200397 L 1825.3160224781823 78.52344916494236 L 1825.0603614850043 78.53455460463276 L 1824.804467613077 78.54450378054045 L 1824.5483664515739 78.55329569775614 L 1824.2920836103979 78.56092947709544 L 1824.0356447176196 78.56740435518677 L 1823.7790754169146 78.57271968454769 L 1823.5224013649993 78.57687493364975 L 1823.2656482290645 78.57986968697145 L 1823.0088416842104 78.58170364504 L 1822.7520074108772 78.58237662446106 L 1822.495171092278 78.58188855793732 L 1822.2383584118313 78.58023949427498 L 1821.9815950505904 78.57742959837903 L 1821.7249066846778 78.57345915123673 L 1821.4683189827163 78.56832854988951 L 1821.211857603262 78.56203830739318 L 1820.9555481922393 78.5545890527668 L 1820.6994163803756 78.54598153092958 L 1820.4434877806389 78.53621660262655 L 1820.1877879856754 78.5252952443424 L 1819.932342565252 78.51321854820387 L 1819.6771770636976 78.4999877218705 L 1819.42231699735 78.48560408841388 L 1819.1677878520031 78.4700690861854 L 1818.9136150803595 78.45338426867232 L 1818.6598240994845 78.4355513043425 L 1818.4064402882648 78.41657197647748 L 1818.1534889848704 78.39644818299428 L 1817.9009954842206 78.37518193625543 L 1817.6489850354553 78.35277536286792 L 1817.3974828394093 78.32923070347039 L 1817.1465140460928 78.30455031250918 L 1816.8961037521753 78.2787366580028 L 1816.6462769984785 78.2517923212952 L 1816.3970587674687 78.2237199967976 L 1816.148473980762 78.19452249171906 L 1815.9005474966295 78.16420272578573 L 1815.6533041075131 78.13276373094897 L 1815.4067685375458 78.10020865108203 L 1815.160965440079 78.0665407416658 L 1814.9159193952178 78.03176336946316 L 1814.6716549073622 77.99588001218234 L 1814.4281964027577 77.95889425812916 L 1814.1855682270516 77.92080980584822 L 1813.9437946428595 77.881630463753 L 1813.7028998273386 77.84136014974506 L 1813.462907869769 77.80000289082224 L 1813.223842769147 77.75756282267598 L 1812.9857284317834 77.71404418927773 L 1812.7485886689133 77.66945134245454 L 1812.5124471943157 77.62378874145395 L 1812.277327621941 77.57706095249802 L 1812.0432534635502 77.52927264832667 L 1811.8102481263647 77.48042860773052 L 1811.578334910724 77.43053371507293 L 1811.3475370077558 77.37959295980157 L 1811.1178774970588 77.32761143594954 L 1810.8893793443922 77.27459434162587 L 1810.662065399381 77.22054697849586 L 1810.4359583932303 77.16547475125074 L 1810.2110809364522 77.10938316706736 L 1809.987455516605 77.0522778350574 L 1809.7651044960446 76.99416446570646 L 1809.5440501096873 76.93504887030305 L 1809.324314462788 76.87493696035746 L 1809.1059195287278 76.81383474701059 L 1808.8888871468187 76.75174834043284 L 1808.6732390201173 76.68868394921314 L 1808.4589967132572 76.62464787973806 L 1808.2461816502903 76.5596465355612 L 1808.0348151125454 76.49368641676277 L 1807.8249182365005 76.42677411929971 L 1807.6165120116677 76.358916334346 L 1807.4096172784966 76.2901198476236 L 1807.2042547262874 76.22039153872383 L 1807.0004448911247 76.14973838041949 L 1806.798208153822 76.07816743796754 L 1806.5975647378843 76.00568586840255 L 1806.3985347074863 75.9323009198211 L 1806.2011379654648 75.8580199306569 L 1806.00539425133 75.78285032894695 L 1805.8113231392897 75.70679963158878 L 1805.618944036294 75.62987544358876 L 1805.428276180092 75.55208545730159 L 1805.2393386373112 75.47343745166106 L 1805.0521503015482 75.3939392914022 L 1804.8667298914804 75.31359892627479 L 1804.6830959489944 75.2324243902484 L 1804.5012668373315 75.15042380070896 L 1804.3212607392513 75.06760535764712 L 1804.1430956552138 74.98397734283817 L 1803.9667894015786 74.89954811901389 L 1803.7923596088242 74.8143261290263 L 1803.6198237197846 74.72831989500338 L 1803.449198987905 74.64153801749687 L 1803.2805024755162 74.5539891746222 L 1803.1137510521291 74.46568212119071 L 1802.948961392747 74.37662568783415 L 1802.7861499761984 74.28682878012162 L 1802.6253330834893 74.19630037766909 L 1802.466526796175 74.10504953324134 L 1802.309746994752 74.0130853718468 L 1802.1550093570697 73.92041708982494 L 1802.0023293567629 73.82705395392676 L 1801.8517222617043 73.73300530038806 L 1801.7032031324782 73.63828053399578 L 1801.5567868208734 73.54288912714766 L 1801.4124879683993 73.44684061890487 L 1801.2703210048207 73.3501446140382 L 1801.1303001467159 73.25281078206757 L 1800.9924393960534 73.15484885629505 L 1800.856752538794 73.05626863283157 L 1800.7232531435097 72.95707996961737 L 1800.5919545600295 72.85729278543607 L 1800.462869918102 72.75691705892295 L 1800.3360121260835 72.65596282756702 L 1800.211393869648 72.5544401867073 L 1800.089027610517 72.45235928852324 L 1799.9689255852145 72.34973034101961 L 1799.851099803843 72.24656360700563 L 1799.7355620488825 72.14286940306874 L 1799.622323874012 72.03865809854291 L 1799.5113966029548 71.93394011447177 L 1799.4027913283455 71.82872592256643 L 1799.2965189106212 71.72302604415843 L 1799.1925899769349 71.61685104914753 L 1799.0910149200936 71.51021155494473 L 1798.991803897518 71.4031182254106 L 1798.894966830228 71.29558176978884 L 1798.8005134018495 71.1876129416354 L 1798.7084530576465 71.07922253774314 L 1798.618795003577 70.9704213970621 L 1798.5315482053713 70.86122039961568 L 1798.446721387637 70.75163046541265 L 1798.3643230329849 70.64166255335508 L 1798.2843613811817 70.53132766014255 L 1798.2068444283261 70.42063681917243 L 1798.1317799260487 70.30960109943658 L 1798.0591753807375 70.19823160441445 L 1797.989038052786 70.0865394709627 L 1797.921374955869 69.97453586820164 L 1797.8561928562394 69.86223199639821 L 1797.7934982720533 69.74963908584596 L 1797.7332974727165 69.63676839574217 L 1797.675596478259 69.52363121306175 L 1797.620401058732 69.41023885142872 L 1797.5677167336316 69.29660264998472 L 1797.5175487713461 69.18273397225522 L 1797.4699021886304 69.0686442050131 L 1797.4247817501027 68.95434475714 L 1797.3821919677694 68.83984705848547 L 1797.3421371005732 68.72516255872397 L 1797.3046211539674 68.61030272620987 L 1797.2696478795156 68.49527904683073 L 1797.237220774516 68.38010302285863 L 1797.2073430816517 68.2647861718 L 1797.1800177886678 68.14934002524383 L 1797.1552476280701 68.03377612770858 L 1797.1330350768546 67.9181060354877 L 1797.1133823562575 67.80234131549402 L 1797.0962914315348 67.68649354410306 L 1797.0817640117646 67.57057430599544 L 1797.0698015496766 67.45459519299835 L 1797.0604052415072 67.33856780292646 L 1797.0535760268795 67.22250373842208 L 1797.0493145887092 67.10641460579494 L 1797.0476213531365 66.99031201386155 L 1797.0484964894833 66.87420757278437 L 1797.0519399102373 66.75811289291076 L 1797.0579512710588 66.64203958361193 L 1797.0665299708169 66.52599925212212 L 1797.0776751516487 66.41000350237775 L 1797.0913856990455 66.29406393385715 L 1797.107660241964 66.17819214042055 L 1797.1264971529633 66.06239970915072 L 1797.1478945483684 65.94669821919432 L 1797.171850288457 65.8310992406039 L 1797.1983619776754 65.71561433318102 L 1797.227426964877 65.60025504532017 L 1797.2590423435868 65.48503291285398 L 1797.2932049522933 65.36995945789971 L 1797.3299113747646 65.25504618770695 L 1797.3691579403887 65.14030459350695 L 1797.4109407245417 65.02574614936354 L 1797.4552555489802 64.91138231102563 L 1797.5020979822586 64.79722451478179 L 1797.5514633401724 64.68328417631649 L 1797.6033466862273 64.56957268956862 L 1797.6577428321316 64.45610142559212 L 1797.7146463383165 64.3428817314188 L 1797.7740515144783 64.22992492892377 L 1797.835952420149 64.1172423136931 L 1797.9003428652898 64.00484515389444 L 1797.9672164109097 63.89274468915009 L 1798.03656636971 63.78095212941312 L 1798.1083858067525 63.66947865384635 L 1798.1826675401535 63.558335409704426 L 1798.2594041418013 63.447533511219156 L 1798.3385879380996 63.337084038488044 L 1798.4202110107353 63.226998036366325 L 1798.5042651974686 63.11728651336247 L 1798.5907420929514 63.00796044053737 L 1798.6796330495656 62.899030750407185 L 1798.77092917829 62.790508335850156 L 1798.8646213495879 62.682404049017315 L 1798.96070019432 62.57472870024724 L 1799.059156104682 62.4674930569851 L 1799.1599792351649 62.36070784270584 L 1799.2631595035396 62.25438373584191 L 1799.3686865918653 62.148531368715396 L 1799.476549947521 62.04316132647479 L 1799.5867387842613 61.938284146036516 L 1799.6992420832942 61.83391031503122 L 1799.8140485943834 61.73005027075502 L 1799.9311468369735 61.6267143991258 L 1800.050525101338 61.52391303364461 L 1800.17217144975 61.42165645436233 L 1800.2960737176759 61.31995488685167 L 1800.4222195149919 61.21881850118463 L 1800.5505962272239 61.1182574109155 L 1800.6811910168071 61.018281672069506 L 1800.813990824372 60.91890128213721 L 1800.948982370048 60.82012617907481 L 1801.0861521547931 60.72196624031029 L 1801.2254864617435 60.62443128175571 L 1801.3669713575841 60.52753105682567 L 1801.5105926939436 60.431275255461905 L 1801.6563361088079 60.33567350316434 L 1801.804187027957 60.24073536002853 L 1801.954130666422 60.14647031978968 L 1802.1061520299643 60.05288780887326 L 1802.2602359165742 59.959997185452366 L 1802.4163669179914 59.86780773851195 L 1802.5745294212456 59.77632868691987 L 1802.7347076102187 59.68556917850505 L 1802.8968854672248 59.59553828914271 L 1803.061046774614 59.50624502184675 L 1803.2271751163917 59.41769830586949 L 1803.3952538798626 59.32990699580875 L 1803.5652662572902 59.24287987072236 L 1803.7371952475785 59.15662563325033 L 1803.9110236579718 59.0711529087445 L 1804.0867341057738 58.986470244406114 L 1804.2643090200863 58.90258610843103 L 1804.4437306435657 58.81950888916295 L 1804.6249810341992 58.737246894254554 L 1804.808042067099 58.65580834983679 L 1804.992895436314 58.57520139969624 L 1805.1795226566614 58.49543410446074 L 1805.3679050655749 58.41651444079334 L 1805.5580238249704 58.33845030059465 L 1805.7498599231305 58.26124949021362 L 1805.9433941766054 58.18491972966697 L 1806.1386072321307 58.10946865186714 L 1806.3354795685634 58.03490380185903 L 1806.5339914988344 57.96123263606552 L 1806.734123171916 57.88846252154177 L 1806.9358545748075 57.816600735238616 L 1807.1391655345367 57.74565446327479 L 1807.344035720177 57.67563080021837 L 1807.5504446448808 57.60653674837731 L 1807.7583716679276 57.53837921709922 L 1807.9677959967883 57.47116502208042 L 1808.1786966892043 57.40490088468441 L 1808.3910526552825 57.3395934312697 L 1808.604842659603 57.27524919252721 L 1808.8200453233435 57.21187460282721 L 1809.0366391264172 57.14947599957584 L 1809.254602409624 57.088059622581426 L 1809.4739133768178 57.02763161343051 L 1809.694550097084 56.96819801487362 L 1809.9164905069345 56.9097647702211 L 1810.1397124125133 56.85233772274873 L 1810.3641934918162 56.79592261511338 L 1810.589911296922 56.74052508877882 L 1810.8168432562386 56.6861506834515 L 1811.0449666767588 56.63280483652666 L 1811.2742587463308 56.58049288254453 L 1811.5046965359388 56.52922005265691 L 1811.7362570019957 56.47899147410408 L 1811.968916988648 56.42981216970201 L 1812.202653230091 56.38168705734017 L 1812.4374423528952 56.334620949489704 L 1812.6732608783439 56.28861855272216 L 1812.9100852247814 56.24368446723889 L 1813.1478917099698 56.199823186410995 L 1813.3866565534595 56.157039096329996 L 1813.6263558789644 56.11533647536926 L 1813.8669657167522 56.07471949375613 L 1814.1084620060396 56.035192213154914 L 1814.3508205973988 55.99675858626073 L 1814.5940172551725 55.959422456404255 L 1814.8380276598978 55.923187557167346 L 1815.0828274107373 55.88805751200974 L 1815.3283920279202 55.85403583390668 L 1815.5746969551894 55.82112592499761 L 1815.8217175622574 55.78933107624601 L 1816.0694291472691 55.758654467110254 L 1816.3178069392727 55.72909916522569 L 1816.5668261006958 55.70066812609789 L 1816.81646172983 55.67336419280706 L 1817.0666888633202 55.64719009572377 L 1817.3174824786615 55.62214845223594 L 1817.5688174967017 55.598241766487035 L 1817.8206687841482 55.57547242912571 L 1818.0730111560822 55.55384271706673 L 1818.3258193784768 55.533354793263264 L 1818.5790681707203 55.51401070649064 L 1818.8327322081448 55.4958123911414 L 1819.0867861245576 55.47876166703191 L 1819.341204514779 55.46286023922039 L 1819.595961937182 55.44810969783636 L 1819.8510329162364 55.434511517921656 L 1820.106391945057 55.42206705928295 L 1820.362013487954 55.41077756635575 L 1820.6178719829857 55.40064416807991 L 1820.8739418445161 55.39166787778682 L 1821.1301974657722 55.38384959309805 L 1821.3866132214057 55.37719009583553 L 1821.6431634700546 55.37169005194345 L 1821.8998225569076 55.36735001142162 L 1822.1565648162702 55.36417040827046 L 1822.4133645741304 55.36215156044765 L 1822.670196150726 55.36129366983628 L 1822.927033863114 55.3615968222247 L 1823.1838520277367 55.363060987297914 L 1823.440624962992 55.36568601864066 L 1823.6973269918 55.369471653751965 L 1823.9539324441719 55.37441751407148 L 1824.2104156597763 55.3805231050173 L 1824.4667509905057 55.38778781603543 L 1824.7229128030401 55.39621092066079 L 1824.978875481412 55.40579157658996 L 1825.2346134295667 55.41652882576533 L 1825.4901010739227 55.428421594470926 L 1825.7453128659283 55.44146869343979 L 1826.000223284617 55.45566881797289 L 1826.2548068391595 55.47102054806961 L 1826.5090380714125 55.48752234856974 L 1826.7628915584644 55.50517256930697 L 1827.0163419151781 55.52396944527395 L 1827.2693637967295 55.54391109679874 L 1827.5219319011408 55.56499552973279 L 1827.7740209718122 55.587220635650404 L 1828.0256058000468 55.61058419205949 L 1828.2766612275716 55.63508386262389 L 1828.5271621490526 55.660717197396956 L 1828.7770835146066 55.687481633066575 L 1829.0264003323055 55.715374493211485 L 1829.275087670675 55.744392988568904 L 1829.5231206611888 55.7745342173135 L 1829.7704745007543 55.8057951653475 L 1830.0171244541937 55.83817270660215 L 1830.2630458567173 55.871663603350314 L 1830.5082141163898 55.90626450653023 L 1830.7526047165895 55.941971956080394 L 1830.99619321846 55.97878238128563 L 1831.238955263354 56.01669210113408 L 1831.4808665752694 56.055697324685354 L 1831.7219029632768 56.095794151449596 L 1831.962040323938 56.136978571777554 L 1832.2012546437172 56.17924646726151 L 1832.4395220013816 56.22259361114713 L 1832.6768185703943 56.267015668756166 L 1832.9131206212958 56.31250819791986 L 1833.148404524078 56.35906664942321 L 1833.3826467505469 56.40668636745987 L 1833.6158238766748 56.455362590097714 L 1833.8479125849435 56.505090449755045 L 1834.0788896666757 56.55586497368733 L 1834.3087320243555 56.60768108448449 L 1834.5374166739389 56.66053360057863 L 1834.764920747151 56.71441723676219 L 1834.991221493775 56.76932660471643 L 1835.2162962839238 56.82525621355034 L 1835.4401226103066 56.88220047034963 L 1835.6626780904771 56.940153680736074 L 1835.8839404690727 56.999110049436936 L 1836.10388762004 57.05906368086447 L 1836.3224975488474 57.120008579705484 L 1836.5397483946836 57.1819386515209 L 1836.7556184326456 57.244847703355134 L 1836.9700860759092 57.308729444355436 L 1837.1831298778889 57.373577486400926 L 1837.394728534382 57.439385344741446 L 1837.6048608856993 57.506146438646006 L 1837.8135059187807 57.57385409206084 L 1838.0206427692967 57.642501534277045 L 1838.2262507237351 57.712081900607586 L 1838.4303092214714 57.78258823307383 L 1838.632797856826 57.854013481101276 L 1838.8336963811046 57.92635050222464 L 1839.0329847046214 57.99959206280211 L 1839.2306428987108 58.07373083873863 L 1839.4266511977175 58.14875941621842 L 1839.6209900009756 58.224670292446234 L 1839.813639874766 58.30145587639771 L 1840.0045815542626 58.379108489578456 L 1840.193795945456 58.45762036679186 L 1840.381264127065 58.53698365691561 L 1840.5669673524276 58.61719042368684 L 1840.750887051376 58.698232646495725 L 1840.9330048320937 58.7801022211875 L 1841.1133024829542 58.86279096087293 L 1841.2917619743428 58.94629059674695 L 1841.4683654604592 59.03059277891555 L 1841.6430952811015 59.115689077230776 L 1841.8159339634337 59.2015709821337 L 1841.9868642237316 59.2882299055054 L 1842.1558689691112 59.375657181525774 L 1842.3229312992391 59.46384406754005 L 1842.4880345080217 59.55278174493313 L 1842.6511620852752 59.642461320011385 L 1842.812297718378 59.73287382489204 L 1842.9714252939013 59.82401021839995 L 1843.12852889922 59.91586138697171 L 1843.2835928241045 60.008418145567006 L 1843.4366015622916 60.10167123858711 L 1843.5875398130347 60.195611340800426 L 1843.7363924826348 60.29022905827503 L 1843.883144685949 60.385514929318006 L 1844.027781747879 60.48145942542166 L 1844.1702892048393 60.57805295221634 L 1844.310652806203 60.67528585042985 L 1844.448858515727 60.77314839685341 L 1844.5848925129553 60.87163080531391 L 1844.7187411946018 60.97072322765259 L 1844.8503911759094 61.07041575470979 L 1844.9798292919902 61.170698417315876 L 1845.1070425991402 61.271561187288164 L 1845.2320183761349 61.3729939784337 L 1845.3547441255005 61.47498664755789 L 1845.4752075747645 61.577528995478836 L 1845.593396677682 61.68061076804718 L 1845.7092996154418 61.78422165717158 L 1845.8229047978464 61.88835130184945 L 1845.934200864472 61.99298928920311 L 1846.043176685805 62.09812515552101 L 1846.149821364354 62.203748387304145 L 1846.2541242357402 62.30984842231735 L 1846.356074869763 62.416414650645535 L 1846.4556630714442 62.52343641575468 L 1846.5528788820466 62.63090301555746 L 1846.64771258007 62.73880370348344 L 1846.7401546822239 62.847127689553744 L 1846.8301959443747 62.95586414146005 L 1846.9178273624716 63.065002185647764 L 1847.003040173446 63.174530908403426 L 1847.0858258560872 63.28443935694603 L 1847.1661761318962 63.39471654052231 L 1847.2440829659126 63.50535143150581 L 1847.3195385675176 63.61633296649962 L 1847.392535391214 63.72765004744274 L 1847.4630661373806 63.83929154271982 L 1847.531123753001 63.951246288274376 L 1847.5967014323708 64.06350308872516 L 1847.6597926177765 64.17605071848564 L 1847.7203910001522 64.28887792288667 L 1847.77849051971 64.40197341930181 L 1847.8340853665466 64.51532589827566 L 1847.8871699812235 64.6289240246548 L 1847.9377390553234 64.74275643872124 L 1847.9857875319813 64.85681175732844 L 1848.0313106063893 64.97107857503958 L 1848.0743037262782 65.08554546526814 L 1848.1147625923713 65.20020098142045 L 1848.1526831588164 65.31503365804045 L 1848.188061633588 65.43003201195617 L 1848.220894478868 65.54518454342806 L 1848.2511784114 65.66047973729893 L 1848.278910402815 65.77590606414547 L 1848.3040876799373 65.89145198143119 L 1848.3267077250605 66.00710593466063 L 1848.3467682761986 66.12285635853486 L 1848.3642673273134 66.23869167810795 L 1848.379203128514 66.35460030994449 L 1848.3915741862334 66.47057066327784 L 1848.4013792633755 66.58659114116935 L 1848.408617379441 66.70265014166789 L 1848.4132878106245 66.81873605897015 L 1848.4153900898864 66.9348372845811 M 1848.41552038687 103.91451096179999 L 1848.4142361992813 104.03061462555635 L 1848.4103837649332 104.14670667904309 L 1848.403963469066 104.2627755131516 L 1848.3949759537036 104.37880952109519 L 1848.3834221175903 104.49479709956978 L 1848.3693031161 104.61072664991414 L 1848.3526203611211 104.72658657926989 L 1848.3333755209153 104.8423653017406 L 1848.3115705199502 104.95805123955054 L 1848.2872075387083 105.0736328242023 L 1848.260289013467 105.18909849763378 L 1848.2308176360564 105.3044367133738 L 1848.19879635359 105.41963593769695 L 1848.164228368169 105.53468465077678 L 1848.1271171365634 105.64957134783783 L 1848.0874663698653 105.76428454030618 L 1848.0452800331184 105.87881275695814 L 1848.000562344921 105.9931445450675 L 1847.953317777005 106.10726847155073 L 1847.9035510537876 106.22117312411025 L 1847.8512671518997 106.33484711237577 L 1847.796471299688 106.44827906904317 L 1847.7391689766919 106.56145765101131 L 1847.679365913096 106.67437154051632 L 1847.6170680891569 106.78700944626333 L 1847.552281734605 106.89936010455563 L 1847.4850133280218 107.01141228042103 L 1847.415269596192 107.12315476873529 L 1847.3430575134305 107.23457639534273 L 1847.2683843008854 107.34566601817353 L 1847.1912574258158 107.45641252835797 L 1847.111684600845 107.56680485133734 L 1847.029673783189 107.67683194797132 L 1846.9452331738614 107.78648281564195 L 1846.8583712168527 107.89574648935381 L 1846.769096598286 108.00461204283062 L 1846.6774182455492 108.1130685896077 L 1846.583345326401 108.22110528412082 L 1846.486887248055 108.32871132279051 L 1846.3880536562383 108.4358759451026 L 1846.286854434228 108.54258843468413 L 1846.1832997018619 108.6488381203751 L 1846.0773998145269 108.75461437729548 L 1845.9691653621235 108.8599066279077 L 1845.858607168007 108.96470434307447 L 1845.7457362879043 109.0689970431116 L 1845.6305640088094 109.17277429883598 L 1845.5131018478546 109.27602573260853 L 1845.3933615511578 109.37874101937192 L 1845.271355092649 109.48090988768304 L 1845.147094672872 109.58252212074024 L 1845.020592717766 109.68356755740487 L 1844.8918618774203 109.78403609321748 L 1844.7609150248122 109.88391768140819 L 1844.6277652545177 109.98320233390143 L 1844.4924258814026 110.08188012231469 L 1844.3549104392919 110.17994117895135 L 1844.2152326796147 110.27737569778748 L 1844.073406570031 110.37417393545236 L 1843.9294462930334 110.47032621220293 L 1843.7833662445296 110.5658229128916 L 1843.6351810324027 110.66065448792793 L 1843.4849054750505 110.7548114542334 L 1843.3325545999035 110.84828439618985 L 1843.1781436419221 110.941063966581 L 1843.021688042074 111.03314088752711 L 1842.8632034457878 111.12450595141281 L 1842.702705701392 111.21515002180787 L 1842.5402108585267 111.30506403438078 L 1842.3757351665413 111.39423899780519 L 1842.2092950728675 111.48266599465909 L 1842.0409072213758 111.57033618231648 L 1841.8705884507117 111.65724079383165 L 1841.6983557926098 111.74337113881587 L 1841.5242264701926 111.82871860430642 L 1841.348217896247 111.91327465562787 L 1841.170347671484 111.99703083724555 L 1840.990633582778 112.07997877361109 L 1840.8090936013875 112.16211016999999 L 1840.62574588116 112.24341681334106 L 1840.440608756714 112.32389057303769 L 1840.2537007416086 112.40352340178099 L 1840.0650405264887 112.48230733635444 L 1839.8746469772193 112.56023449843025 L 1839.682539132996 112.63729709535714 L 1839.4887362044437 112.71348742093964 L 1839.2932575716934 112.78879785620869 L 1839.0961227824457 112.8632208701835 L 1838.897351550015 112.93674902062472 L 1838.6969637513591 113.00937495477855 L 1838.4949794250908 113.08109141011211 L 1838.2914187694744 113.15189121503964 L 1838.086302140406 113.22176728963963 L 1837.8796500493772 113.29071264636286 L 1837.6714831614254 113.35872039073111 L 1837.4618222930653 113.42578372202661 L 1837.2506884102097 113.49189593397213 L 1837.0381026260704 113.55705041540155 L 1836.824086199049 113.62124065092104 L 1836.6086605306095 113.68446022156053 L 1836.3918471631396 113.74670280541565 L 1836.1736677777951 113.80796217827987 L 1835.954144192333 113.86823221426694 L 1835.7332983589286 113.92750688642352 L 1835.5111523619814 113.98578026733178 L 1835.287728415906 114.04304652970217 L 1835.0630488629106 114.09929994695618 L 1834.8371361707634 114.15453489379898 L 1834.6100129305455 114.20874584678191 L 1834.3817018543914 114.26192738485484 L 1834.1522257732186 114.31407418990828 L 1833.921607634444 114.36518104730519 L 1833.6898704996893 114.4152428464024 L 1833.4570375424746 114.46425458106174 L 1833.223132045902 114.51221135015058 L 1832.988177400326 114.55910835803196 L 1832.7521971010156 114.6049409150442 L 1832.5152147458036 114.64970443796976 L 1832.2772540327285 114.69339445049368 L 1832.038338757663 114.7360065836511 L 1831.7984928119356 114.77753657626423 L 1831.5577401799412 114.81798027536838 L 1831.3161049367422 114.85733363662739 L 1831.0736112456616 114.8955927247379 L 1830.8302833558664 114.93275371382298 L 1830.586145599943 114.96881288781469 L 1830.341222391463 115.0037666408257 L 1830.0955382225436 115.03761147750981 L 1829.849117661397 115.07034401341159 L 1829.6019853498738 115.10196097530469 L 1829.3541660009992 115.13245920151928 L 1829.1056843965016 115.16183564225817 L 1828.8565653843345 115.19008735990175 L 1828.6068338761913 115.21721152930179 L 1828.3565148450148 115.24320543806398 L 1828.1056333224997 115.26806648681908 L 1827.8542143965888 115.29179218948295 L 1827.6022832089657 115.31438017350509 L 1827.3498649525386 115.33582818010592 L 1827.0969848689233 115.35613406450264 L 1826.8436682459171 115.37529579612375 L 1826.5899404149714 115.39331145881205 L 1826.3358267486578 115.41017925101629 L 1826.0813526581312 115.42589748597129 L 1825.8265435905887 115.44046459186667 L 1825.5714250267242 115.45387911200397 L 1825.3160224781823 115.46613970494236 L 1825.0603614850043 115.47724514463276 L 1824.804467613077 115.48719432054045 L 1824.5483664515739 115.49598623775614 L 1824.2920836103979 115.50362001709544 L 1824.0356447176196 115.51009489518677 L 1823.7790754169146 115.5154102245477 L 1823.5224013649993 115.51956547364975 L 1823.2656482290645 115.52256022697145 L 1823.0088416842104 115.52439418504 L 1822.7520074108772 115.52506716446106 L 1822.495171092278 115.52457909793732 L 1822.2383584118313 115.52293003427498 L 1821.9815950505904 115.52012013837903 L 1821.7249066846778 115.51614969123673 L 1821.4683189827163 115.51101908988952 L 1821.211857603262 115.50472884739318 L 1820.9555481922393 115.4972795927668 L 1820.6994163803756 115.48867207092958 L 1820.4434877806389 115.47890714262655 L 1820.1877879856754 115.4679857843424 L 1819.932342565252 115.45590908820387 L 1819.6771770636976 115.4426782618705 L 1819.42231699735 115.42829462841388 L 1819.1677878520031 115.4127596261854 L 1818.9136150803595 115.39607480867232 L 1818.6598240994845 115.3782418443425 L 1818.4064402882648 115.35926251647749 L 1818.1534889848704 115.33913872299428 L 1817.9009954842206 115.31787247625543 L 1817.6489850354553 115.29546590286792 L 1817.3974828394093 115.27192124347039 L 1817.1465140460928 115.24724085250918 L 1816.8961037521753 115.2214271980028 L 1816.6462769984785 115.1944828612952 L 1816.3970587674687 115.1664105367976 L 1816.148473980762 115.13721303171906 L 1815.9005474966295 115.10689326578573 L 1815.6533041075131 115.07545427094897 L 1815.4067685375458 115.04289919108203 L 1815.160965440079 115.0092312816658 L 1814.9159193952178 114.97445390946316 L 1814.6716549073622 114.93857055218234 L 1814.4281964027577 114.90158479812916 L 1814.1855682270516 114.86350034584822 L 1813.9437946428595 114.824321003753 L 1813.7028998273386 114.78405068974506 L 1813.462907869769 114.74269343082224 L 1813.223842769147 114.70025336267598 L 1812.9857284317834 114.65673472927773 L 1812.7485886689133 114.61214188245454 L 1812.5124471943157 114.56647928145395 L 1812.277327621941 114.51975149249802 L 1812.0432534635502 114.47196318832667 L 1811.8102481263647 114.42311914773052 L 1811.578334910724 114.37322425507293 L 1811.3475370077558 114.32228349980157 L 1811.1178774970588 114.27030197594954 L 1810.8893793443922 114.21728488162587 L 1810.662065399381 114.16323751849586 L 1810.4359583932303 114.10816529125074 L 1810.2110809364522 114.05207370706736 L 1809.987455516605 113.9949683750574 L 1809.7651044960446 113.93685500570646 L 1809.5440501096873 113.87773941030305 L 1809.324314462788 113.81762750035746 L 1809.1059195287278 113.75652528701059 L 1808.8888871468187 113.69443888043284 L 1808.6732390201173 113.63137448921314 L 1808.4589967132572 113.56733841973806 L 1808.2461816502903 113.5023370755612 L 1808.0348151125454 113.43637695676277 L 1807.8249182365005 113.36946465929971 L 1807.6165120116677 113.301606874346 L 1807.4096172784966 113.2328103876236 L 1807.2042547262874 113.16308207872383 L 1807.0004448911247 113.0924289204195 L 1806.798208153822 113.02085797796754 L 1806.5975647378843 112.94837640840255 L 1806.3985347074863 112.8749914598211 L 1806.2011379654648 112.8007104706569 L 1806.00539425133 112.72554086894695 L 1805.8113231392897 112.64949017158878 L 1805.618944036294 112.57256598358876 L 1805.428276180092 112.49477599730159 L 1805.2393386373112 112.41612799166106 L 1805.0521503015482 112.3366298314022 L 1804.8667298914804 112.2562894662748 L 1804.6830959489944 112.1751149302484 L 1804.5012668373315 112.09311434070896 L 1804.3212607392513 112.01029589764713 L 1804.1430956552138 111.92666788283817 L 1803.9667894015786 111.84223865901389 L 1803.7923596088242 111.7570166690263 L 1803.6198237197846 111.67101043500338 L 1803.449198987905 111.58422855749687 L 1803.2805024755162 111.4966797146222 L 1803.1137510521291 111.40837266119071 L 1802.948961392747 111.31931622783415 L 1802.7861499761984 111.22951932012163 L 1802.6253330834893 111.13899091766909 L 1802.466526796175 111.04774007324134 L 1802.309746994752 110.9557759118468 L 1802.1550093570697 110.86310762982494 L 1802.0023293567629 110.76974449392677 L 1801.8517222617043 110.67569584038806 L 1801.7032031324782 110.58097107399578 L 1801.5567868208734 110.48557966714766 L 1801.4124879683993 110.38953115890487 L 1801.2703210048207 110.2928351540382 L 1801.1303001467159 110.19550132206757 L 1800.9924393960534 110.09753939629505 L 1800.856752538794 109.99895917283158 L 1800.7232531435097 109.89977050961737 L 1800.5919545600295 109.79998332543607 L 1800.462869918102 109.69960759892295 L 1800.3360121260835 109.59865336756702 L 1800.211393869648 109.4971307267073 L 1800.089027610517 109.39504982852324 L 1799.9689255852145 109.29242088101961 L 1799.851099803843 109.18925414700563 L 1799.7355620488825 109.08555994306874 L 1799.622323874012 108.98134863854291 L 1799.5113966029548 108.87663065447177 L 1799.4027913283455 108.77141646256644 L 1799.2965189106212 108.66571658415843 L 1799.1925899769349 108.55954158914753 L 1799.0910149200936 108.45290209494473 L 1798.991803897518 108.3458087654106 L 1798.894966830228 108.23827230978884 L 1798.8005134018495 108.1303034816354 L 1798.7084530576465 108.02191307774314 L 1798.618795003577 107.9131119370621 L 1798.5315482053713 107.80391093961568 L 1798.446721387637 107.69432100541265 L 1798.3643230329849 107.58435309335508 L 1798.2843613811817 107.47401820014255 L 1798.2068444283261 107.36332735917243 L 1798.1317799260487 107.25229163943658 L 1798.0591753807375 107.14092214441445 L 1797.989038052786 107.0292300109627 L 1797.921374955869 106.91722640820164 L 1797.8561928562394 106.80492253639821 L 1797.7934982720533 106.69232962584596 L 1797.7332974727165 106.57945893574217 L 1797.675596478259 106.46632175306175 L 1797.620401058732 106.35292939142872 L 1797.5677167336316 106.23929318998472 L 1797.5175487713461 106.12542451225522 L 1797.4699021886304 106.0113347450131 L 1797.4247817501027 105.89703529714001 L 1797.3821919677694 105.78253759848548 L 1797.3421371005732 105.66785309872397 L 1797.3046211539674 105.55299326620987 L 1797.2696478795156 105.43796958683073 L 1797.237220774516 105.32279356285864 L 1797.2073430816517 105.2074767118 L 1797.1800177886678 105.09203056524383 L 1797.1552476280701 104.97646666770858 L 1797.1330350768546 104.8607965754877 L 1797.1133823562575 104.74503185549402 L 1797.0962914315348 104.62918408410306 L 1797.0817640117646 104.51326484599544 L 1797.0698015496766 104.39728573299836 L 1797.0604052415072 104.28125834292646 L 1797.0535760268795 104.16519427842208 L 1797.0493145887092 104.04910514579494 L 1797.0476213531365 103.93300255386156" stroke-miterlimit="10" stroke-width="2.990598758" stroke-dasharray=""/></g><g><g/><text fill="black" stroke="none" font-family="sans-serif" font-size="11pt" font-style="normal" font-weight="normal" text-decoration="normal" x="1790.0293451102136" y="134.401026536" text-anchor="start" dominant-baseline="alphabetic">Database</text></g><path fill="none" stroke="none"/><g><path fill="white" stroke="black" paint-order="fill stroke markers" d=" M 1893.8202015967736 92.18080877599999 L 2007.463156707508 92.18080877599999 L 2007.463156707508 139.67855375599999 L 1893.8202015967736 139.67855375599999 L 1893.8202015967736 92.18080877599999 Z" stroke-miterlimit="10" stroke-width="2.814681184" stroke-dasharray=""/></g><g><g/><text fill="black" stroke="none" font-family="sans-serif" font-size="11pt" font-style="normal" font-weight="normal" text-decoration="normal" x="1912.9072583757736" y="122.08679635600001" text-anchor="start" dominant-baseline="alphabetic">Restaurant</text></g></g><g><path fill="white" stroke="black" paint-order="fill stroke markers" d=" M 425.4768947039063 197.73135317599997 L 443.0686521039063 197.73135317599997 L 443.0686521039063 584.750015976 L 425.4768947039063 584.750015976 L 425.4768947039063 197.73135317599997" stroke-miterlimit="10" stroke-width="1.4659797833333332" stroke-dasharray=""/><path fill="white" stroke="black" paint-order="fill stroke markers" d=" M 791.1309253744791 246.98827389599995 L 808.7226827744792 246.98827389599995 L 808.7226827744792 535.493095256 L 791.1309253744791 535.493095256 L 791.1309253744791 246.98827389599995" stroke-miterlimit="10" stroke-width="1.4659797833333332" stroke-dasharray=""/><path fill="white" stroke="black" paint-order="fill stroke markers" d=" M 425.4768947039063 634.006936696 L 443.0686521039063 634.006936696 L 443.0686521039063 1897.0951180159993 L 425.4768947039063 1897.0951180159993 L 425.4768947039063 634.006936696" stroke-miterlimit="10" stroke-width="1.4659797833333332" stroke-dasharray=""/><path fill="white" stroke="black" paint-order="fill stroke markers" d=" M 791.1309253744791 683.2638574160001 L 808.7226827744792 683.2638574160001 L 808.7226827744792 1847.8381972959994 L 791.1309253744791 1847.8381972959994 L 791.1309253744791 683.2638574160001" stroke-miterlimit="10" stroke-width="1.4659797833333332" stroke-dasharray=""/><path fill="white" stroke="black" paint-order="fill stroke markers" d=" M 799.9268040744792 750.112535536 L 817.5185614744792 750.112535536 L 817.5185614744792 1798.5812765759995 L 799.9268040744792 1798.5812765759995 L 799.9268040744792 750.112535536" stroke-miterlimit="10" stroke-width="1.4659797833333332" stroke-dasharray=""/><path fill="white" stroke="black" paint-order="fill stroke markers" d=" M 434.2727734039063 799.369456256 L 451.8645308039063 799.369456256 L 451.8645308039063 1211.016579416 L 434.2727734039063 1211.016579416 L 434.2727734039063 799.369456256" stroke-miterlimit="10" stroke-width="1.4659797833333332" stroke-dasharray=""/><path fill="white" stroke="black" paint-order="fill stroke markers" d=" M 143.76551702532552 848.6263769760001 L 161.35727442532553 848.6263769760001 L 161.35727442532553 897.8832976960001 L 143.76551702532552 897.8832976960001 L 143.76551702532552 848.6263769760001" stroke-miterlimit="10" stroke-width="1.4659797833333332" stroke-dasharray=""/><path fill="white" stroke="black" paint-order="fill stroke markers" d=" M 143.76551702532552 947.1402184160002 L 161.35727442532553 947.1402184160002 L 161.35727442532553 1161.759658696 L 143.76551702532552 1161.759658696 L 143.76551702532552 947.1402184160002" stroke-miterlimit="10" stroke-width="1.4659797833333332" stroke-dasharray=""/><path fill="white" stroke="black" paint-order="fill stroke markers" d=" M 1941.8458004521408 1260.273500136 L 1959.4375578521408 1260.273500136 L 1959.4375578521408 1590.9985392559995 L 1941.8458004521408 1590.9985392559995 L 1941.8458004521408 1260.273500136" stroke-miterlimit="10" stroke-width="1.4659797833333332" stroke-dasharray=""/><path fill="white" stroke="black" paint-order="fill stroke markers" d=" M 1559.740380967961 1309.5304208559999 L 1577.332138367961 1309.5304208559999 L 1577.332138367961 1541.7416185359996 L 1559.740380967961 1541.7416185359996 L 1559.740380967961 1309.5304208559999" stroke-miterlimit="10" stroke-width="1.4659797833333332" stroke-dasharray=""/><path fill="white" stroke="black" paint-order="fill stroke markers" d=" M 1568.536259667961 1376.3790989759998 L 1586.128017067961 1376.3790989759998 L 1586.128017067961 1492.4846978159997 L 1568.536259667961 1492.4846978159997 L 1568.536259667961 1376.3790989759998" stroke-miterlimit="10" stroke-width="1.4659797833333332" stroke-dasharray=""/><g><g><rect fill="white" stroke="none" x="127.12646067740236" y="174.86206855599997" width="196.1150516340625" height="22.86928462"/></g><text fill="black" stroke="none" font-family="sans-serif" font-size="11pt" font-style="normal" font-weight="normal" text-decoration="normal" x="129.76522428740236" y="190.69465021599999" text-anchor="start" dominant-baseline="alphabetic">mousePressed(b : Booking)</text></g><g><path fill="none" stroke="black" paint-order="fill stroke markers" d=" M 24.891078284960937 197.73135317599997 L 422.54493513723963 197.73135317599997" stroke-miterlimit="10" stroke-width="1.4659797833333332" stroke-dasharray=""/><g transform="translate(425.4768947039063,197.73135317599997) translate(-425.4768947039063,-197.73135317599997)"><path fill="black" stroke="none" paint-order="stroke fill markers" d=" M 410.8170968705729 190.4014542593333 L 425.4768947039063 197.73135317599997 L 410.8170968705729 205.06125209266665 Z"/></g></g><g><g><rect fill="white" stroke="none" x="524.9191321238217" y="224.11898927599995" width="184.36131323074218" height="22.86928462"/></g><text fill="black" stroke="none" font-family="sans-serif" font-size="11pt" font-style="normal" font-weight="normal" text-decoration="normal" x="527.5578957338216" y="239.95157093599997" text-anchor="start" dominant-baseline="alphabetic">selectBooking(b:Booking)</text></g><g><path fill="none" stroke="black" paint-order="fill stroke markers" d=" M 443.0686521039063 246.98827389599995 L 788.1989658078124 246.98827389599995" stroke-miterlimit="10" stroke-width="1.4659797833333332" stroke-dasharray=""/><g transform="translate(791.1309253744791,246.98827389599995) translate(-791.1309253744791,-246.98827389599995)"><path fill="black" stroke="none" paint-order="stroke fill markers" d=" M 776.4711275411458 239.65837497933327 L 791.1309253744791 246.98827389599995 L 776.4711275411458 254.31817281266663 Z"/></g></g><g><g><rect fill="white" stroke="none" x="997.3969066544838" y="320.87365497599995" width="80.173767454375" height="22.86928462"/></g><text fill="black" stroke="none" font-family="sans-serif" font-size="11pt" font-style="normal" font-weight="normal" text-decoration="normal" x="1000.0356702644838" y="336.70623663599997" text-anchor="start" dominant-baseline="alphabetic">getRoom()</text></g><g><path fill="none" stroke="black" paint-order="fill stroke markers" d=" M 808.7226827744792 343.7429395959999 L 1263.3129384221968 343.7429395959999" stroke-miterlimit="10" stroke-width="1.4659797833333332" stroke-dasharray=""/><g transform="translate(1266.2448979888634,343.7429395959999) translate(-1266.2448979888634,-343.7429395959999)"><path fill="black" stroke="none" paint-order="stroke fill markers" d=" M 1251.58510015553 336.4130406793333 L 1266.2448979888634 343.7429395959999 L 1251.58510015553 351.0728385126666 Z"/></g></g><g><g><rect fill="white" stroke="none" x="829.5395956978125" y="396.51821179599995" width="126.03630102371093" height="22.86928462"/></g><text fill="black" stroke="none" font-family="sans-serif" font-size="11pt" font-style="normal" font-weight="normal" text-decoration="normal" x="832.1783593078125" y="412.35079345599996" text-anchor="start" dominant-baseline="alphabetic">notifyObservers()</text></g><g><path fill="none" stroke="black" paint-order="fill stroke markers" d=" M 808.7226827744792 419.3874964159999 L 879.0897123744792 419.3874964159999 L 879.0897123744792 436.9792538159999 L 811.6546423411459 436.9792538159999" stroke-miterlimit="10" stroke-width="1.4659797833333332" stroke-dasharray=""/><g transform="translate(808.7226827744792,436.9792538159999) translate(-808.7226827744792,-436.9792538159999)"><path fill="black" stroke="none" paint-order="stroke fill markers" d=" M 823.3824806078125 429.6493548993333 L 808.7226827744792 436.9792538159999 L 823.3824806078125 444.3091527326666 Z"/></g></g><g><g><rect fill="white" stroke="none" x="584.7366141184506" y="463.36688991599993" width="64.72634924148437" height="22.86928462"/></g><text fill="black" stroke="none" font-family="sans-serif" font-size="11pt" font-style="normal" font-weight="normal" text-decoration="normal" x="587.3753777284505" y="479.19947157599995" text-anchor="start" dominant-baseline="alphabetic">update()</text></g><g><path fill="none" stroke="black" paint-order="fill stroke markers" d=" M 791.1309253744791 486.2361745359999 L 446.00061167057294 486.2361745359999" stroke-miterlimit="10" stroke-width="1.4659797833333332" stroke-dasharray=""/><g transform="translate(443.0686521039063,486.2361745359999) translate(-443.0686521039063,-486.2361745359999)"><path fill="black" stroke="none" paint-order="stroke fill markers" d=" M 457.72844993723965 478.90627561933326 L 443.0686521039063 486.2361745359999 L 457.72844993723965 493.56607345266656 Z"/></g></g><g><g><rect fill="white" stroke="none" x="614.4610251291928" y="512.6238106359999" width="5.27752722" height="22.86928462"/></g><text fill="black" stroke="none" font-family="sans-serif" font-size="11pt" font-style="normal" font-weight="normal" text-decoration="normal" x="617.0997887391927" y="528.4563922959999" text-anchor="start" dominant-baseline="alphabetic"></text></g><g><path fill="none" stroke="black" paint-order="fill stroke markers" d=" M 791.1309253744791 535.493095256 L 446.00061167057294 535.493095256" stroke-miterlimit="10" stroke-width="1.4659797833333332" stroke-dasharray="7.0367029599999995"/><g transform="translate(443.0686521039063,535.493095256) translate(-443.0686521039063,-535.493095256)"><path fill="black" stroke="none" paint-order="stroke fill markers" d=" M 457.72844993723965 528.1631963393332 L 443.0686521039063 535.493095256 L 457.72844993723965 542.8229941726667 Z"/></g></g><g><g><rect fill="white" stroke="none" x="222.5452228844336" y="561.880731356" width="5.27752722" height="22.86928462"/></g><text fill="black" stroke="none" font-family="sans-serif" font-size="11pt" font-style="normal" font-weight="normal" text-decoration="normal" x="225.1839864944336" y="577.7133130159999" text-anchor="start" dominant-baseline="alphabetic"></text></g><g><path fill="none" stroke="black" paint-order="fill stroke markers" d=" M 425.4768947039063 584.750015976 L 27.823037851627603 584.750015976" stroke-miterlimit="10" stroke-width="1.4659797833333332" stroke-dasharray="7.0367029599999995"/><g transform="translate(24.891078284960937,584.750015976) translate(-24.891078284960937,-584.750015976)"><path fill="black" stroke="none" paint-order="stroke fill markers" d=" M 39.55087611829427 577.4201170593333 L 24.891078284960937 584.750015976 L 39.55087611829427 592.0799148926667 Z"/></g></g><g><g><rect fill="white" stroke="none" x="166.55379832388672" y="611.137652076" width="117.26037634109375" height="22.86928462"/></g><text fill="black" stroke="none" font-family="sans-serif" font-size="11pt" font-style="normal" font-weight="normal" text-decoration="normal" x="169.19256193388674" y="626.970233736" text-anchor="start" dominant-baseline="alphabetic">cancelBooking()</text></g><g><path fill="none" stroke="black" paint-order="fill stroke markers" d=" M 24.891078284960937 634.006936696 L 422.54493513723963 634.006936696" stroke-miterlimit="10" stroke-width="1.4659797833333332" stroke-dasharray=""/><g transform="translate(425.4768947039063,634.006936696) translate(-425.4768947039063,-634.006936696)"><path fill="black" stroke="none" paint-order="stroke fill markers" d=" M 410.8170968705729 626.6770377793333 L 425.4768947039063 634.006936696 L 410.8170968705729 641.3368356126667 Z"/></g></g><g><g><rect fill="white" stroke="none" x="528.7165564402279" y="660.394572796" width="176.76646459792968" height="22.86928462"/></g><text fill="black" stroke="none" font-family="sans-serif" font-size="11pt" font-style="normal" font-weight="normal" text-decoration="normal" x="531.3553200502279" y="676.227154456" text-anchor="start" dominant-baseline="alphabetic">cancelSelectedBooking()</text></g><g><path fill="none" stroke="black" paint-order="fill stroke markers" d=" M 443.0686521039063 683.2638574160001 L 788.1989658078124 683.2638574160001" stroke-miterlimit="10" stroke-width="1.4659797833333332" stroke-dasharray=""/><g transform="translate(791.1309253744791,683.2638574160001) translate(-791.1309253744791,-683.2638574160001)"><path fill="black" stroke="none" paint-order="stroke fill markers" d=" M 776.4711275411458 675.9339584993334 L 791.1309253744791 683.2638574160001 L 776.4711275411458 690.5937563326668 Z"/></g></g><g><g><rect fill="white" stroke="none" x="838.3354743978125" y="709.651493516" width="304.5759891340625" height="22.86928462"/></g><text fill="black" stroke="none" font-family="sans-serif" font-size="11pt" font-style="normal" font-weight="normal" text-decoration="normal" x="840.9742380078125" y="725.4840751759999" text-anchor="start" dominant-baseline="alphabetic">observerMessage(s : String, true : Boolean)</text></g><g><path fill="none" stroke="black" paint-order="fill stroke markers" d=" M 808.7226827744792 732.520778136 L 887.8855910744792 732.520778136 L 887.8855910744792 750.112535536 L 820.4505210411459 750.112535536" stroke-miterlimit="10" stroke-width="1.4659797833333332" stroke-dasharray=""/><g transform="translate(817.5185614744792,750.112535536) translate(-817.5185614744792,-750.112535536)"><path fill="black" stroke="none" paint-order="stroke fill markers" d=" M 832.1783593078125 742.7826366193333 L 817.5185614744792 750.112535536 L 832.1783593078125 757.4424344526667 Z"/></g></g><g><g><rect fill="white" stroke="none" x="477.0793830772396" y="776.500171636" width="297.6325687239063" height="22.86928462"/></g><text fill="black" stroke="none" font-family="sans-serif" font-size="11pt" font-style="normal" font-weight="normal" text-decoration="normal" x="479.7181466872396" y="792.332753296" text-anchor="start" dominant-baseline="alphabetic">message(message : String, true : Boolean)</text></g><g><path fill="none" stroke="black" paint-order="fill stroke markers" d=" M 799.9268040744792 799.369456256 L 454.79649037057294 799.369456256" stroke-miterlimit="10" stroke-width="1.4659797833333332" stroke-dasharray=""/><g transform="translate(451.8645308039063,799.369456256) translate(-451.8645308039063,-799.369456256)"><path fill="black" stroke="none" paint-order="stroke fill markers" d=" M 466.52432863723965 792.0395573393333 L 451.8645308039063 799.369456256 L 466.52432863723965 806.6993551726667 Z"/></g></g><g><g><rect fill="white" stroke="none" x="186.5721266986589" y="825.757092356" width="222.48579443191406" height="22.86928462"/></g><text fill="black" stroke="none" font-family="sans-serif" font-size="11pt" font-style="normal" font-weight="normal" text-decoration="normal" x="189.21089030865892" y="841.589674016" text-anchor="start" dominant-baseline="alphabetic">Alert( confirmation : AlertType)</text></g><g><path fill="none" stroke="black" paint-order="fill stroke markers" d=" M 434.2727734039063 848.6263769760001 L 164.2892339919922 848.6263769760001" stroke-miterlimit="10" stroke-width="1.4659797833333332" stroke-dasharray=""/><g transform="translate(161.35727442532553,848.6263769760001) translate(-161.35727442532553,-848.6263769760001)"><path fill="black" stroke="none" paint-order="stroke fill markers" d=" M 176.01707225865886 841.2964780593334 L 161.35727442532553 848.6263769760001 L 176.01707225865886 855.9562758926668 Z"/></g></g><g><g><rect fill="white" stroke="none" x="295.17626030461594" y="875.0140130760001" width="5.27752722" height="22.86928462"/></g><text fill="black" stroke="none" font-family="sans-serif" font-size="11pt" font-style="normal" font-weight="normal" text-decoration="normal" x="297.81502391461595" y="890.846594736" text-anchor="start" dominant-baseline="alphabetic"></text></g><g><path fill="none" stroke="black" paint-order="fill stroke markers" d=" M 161.35727442532553 897.8832976960001 L 431.34081383723964 897.8832976960001" stroke-miterlimit="10" stroke-width="1.4659797833333332" stroke-dasharray="7.0367029599999995"/><g transform="translate(434.2727734039063,897.8832976960001) translate(-434.2727734039063,-897.8832976960001)"><path fill="black" stroke="none" paint-order="stroke fill markers" d=" M 419.6129755705729 890.5533987793334 L 434.2727734039063 897.8832976960001 L 419.6129755705729 905.2131966126668 Z"/></g></g><g><g><rect fill="white" stroke="none" x="239.60716850774094" y="924.2709337960001" width="116.41571081375" height="22.86928462"/></g><text fill="black" stroke="none" font-family="sans-serif" font-size="11pt" font-style="normal" font-weight="normal" text-decoration="normal" x="242.24593211774095" y="940.1035154560001" text-anchor="start" dominant-baseline="alphabetic">showAndWait();</text></g><g><path fill="none" stroke="black" paint-order="fill stroke markers" d=" M 434.2727734039063 947.1402184160002 L 164.2892339919922 947.1402184160002" stroke-miterlimit="10" stroke-width="1.4659797833333332" stroke-dasharray=""/><g transform="translate(161.35727442532553,947.1402184160002) translate(-161.35727442532553,-947.1402184160002)"><path fill="black" stroke="none" paint-order="stroke fill markers" d=" M 176.01707225865886 939.8103194993334 L 161.35727442532553 947.1402184160002 L 176.01707225865886 954.4701173326669 Z"/></g></g><g><g><rect fill="white" stroke="none" x="81.68953404514323" y="973.5278545160002" width="5.27752722" height="22.86928462"/></g><text fill="black" stroke="none" font-family="sans-serif" font-size="11pt" font-style="normal" font-weight="normal" text-decoration="normal" x="84.32829765514323" y="989.3604361760001" text-anchor="start" dominant-baseline="alphabetic"></text></g><g><path fill="none" stroke="black" paint-order="fill stroke markers" d=" M 143.76551702532552 996.3971391360002 L 27.823037851627603 996.3971391360002" stroke-miterlimit="10" stroke-width="1.4659797833333332" stroke-dasharray=""/><g transform="translate(24.891078284960937,996.3971391360002) translate(-24.891078284960937,-996.3971391360002)"><path fill="black" stroke="none" paint-order="stroke fill markers" d=" M 39.55087611829427 989.0672402193335 L 24.891078284960937 996.3971391360002 L 39.55087611829427 1003.7270380526669 Z"/></g></g><g><g><rect fill="white" stroke="none" x="81.68953404514323" y="1022.7847752360002" width="5.27752722" height="22.86928462"/></g><text fill="black" stroke="none" font-family="sans-serif" font-size="11pt" font-style="normal" font-weight="normal" text-decoration="normal" x="84.32829765514323" y="1038.617356896" text-anchor="start" dominant-baseline="alphabetic"></text></g><g><path fill="none" stroke="black" paint-order="fill stroke markers" d=" M 24.891078284960937 1045.6540598560002 L 140.83355745865885 1045.6540598560002" stroke-miterlimit="10" stroke-width="1.4659797833333332" stroke-dasharray="7.0367029599999995"/><g transform="translate(143.76551702532552,1045.6540598560002) translate(-143.76551702532552,-1045.6540598560002)"><path fill="black" stroke="none" paint-order="stroke fill markers" d=" M 129.1057191919922 1038.3241609393335 L 143.76551702532552 1045.6540598560002 L 129.1057191919922 1052.983958772667 Z"/></g></g><path fill="white" stroke="black" paint-order="fill stroke markers" d=" M 74.64017260897786 1072.0416959560002 L 214.65003718167318 1072.0416959560002 L 230.48261884167317 1087.8742776160002 L 230.48261884167317 1112.5027379760002 L 74.64017260897786 1112.5027379760002 L 74.64017260897786 1072.0416959560002 M 214.65003718167318 1072.0416959560002 L 214.65003718167318 1087.8742776160002 L 230.48261884167317 1087.8742776160002" stroke-miterlimit="10" stroke-width="1.4659797833333332" stroke-dasharray=""/><g><text fill="black" stroke="none" font-family="sans-serif" font-size="11pt" font-style="normal" font-weight="normal" text-decoration="normal" x="99.26863296897787" y="1096.670156316" text-anchor="start" dominant-baseline="alphabetic">user selects OK</text></g><g><g><rect fill="white" stroke="none" x="257.28078300969406" y="1138.8903740760002" width="81.06848180984375" height="22.86928462"/></g><text fill="black" stroke="none" font-family="sans-serif" font-size="11pt" font-style="normal" font-weight="normal" text-decoration="normal" x="259.9195466196941" y="1154.7229557360001" text-anchor="start" dominant-baseline="alphabetic">return true</text></g><g><path fill="none" stroke="black" paint-order="fill stroke markers" d=" M 161.35727442532553 1161.759658696 L 431.34081383723964 1161.759658696" stroke-miterlimit="10" stroke-width="1.4659797833333332" stroke-dasharray="7.0367029599999995"/><g transform="translate(434.2727734039063,1161.759658696) translate(-434.2727734039063,-1161.759658696)"><path fill="black" stroke="none" paint-order="stroke fill markers" d=" M 419.6129755705729 1154.4297597793334 L 434.2727734039063 1161.759658696 L 419.6129755705729 1169.0895576126668 Z"/></g></g><g><g><rect fill="white" stroke="none" x="585.3614265342709" y="1188.147294796" width="81.06848180984375" height="22.86928462"/></g><text fill="black" stroke="none" font-family="sans-serif" font-size="11pt" font-style="normal" font-weight="normal" text-decoration="normal" x="588.0001901442708" y="1203.979876456" text-anchor="start" dominant-baseline="alphabetic">return true</text></g><g><path fill="none" stroke="black" paint-order="fill stroke markers" d=" M 451.8645308039063 1211.016579416 L 796.9948445078124 1211.016579416" stroke-miterlimit="10" stroke-width="1.4659797833333332" stroke-dasharray="7.0367029599999995"/><g transform="translate(799.9268040744792,1211.016579416) translate(-799.9268040744792,-1211.016579416)"><path fill="black" stroke="none" paint-order="stroke fill markers" d=" M 785.2670062411459 1203.6866804993333 L 799.9268040744792 1211.016579416 L 785.2670062411459 1218.3464783326667 Z"/></g></g><g><g><rect fill="white" stroke="none" x="1223.4392303415912" y="1237.404215516" width="312.4859012434375" height="22.86928462"/></g><text fill="black" stroke="none" font-family="sans-serif" font-size="11pt" font-style="normal" font-weight="normal" text-decoration="normal" x="1226.0779939515912" y="1253.236797176" text-anchor="start" dominant-baseline="alphabetic">removeBooking(selectedBooking : Booking)</text></g><g><path fill="none" stroke="black" paint-order="fill stroke markers" d=" M 817.5185614744792 1260.273500136 L 1938.9138408854742 1260.273500136" stroke-miterlimit="10" stroke-width="1.4659797833333332" stroke-dasharray=""/><g transform="translate(1941.8458004521408,1260.273500136) translate(-1941.8458004521408,-1260.273500136)"><path fill="black" stroke="none" paint-order="stroke fill markers" d=" M 1927.1860026188074 1252.9436012193332 L 1941.8458004521408 1260.273500136 L 1927.1860026188074 1267.6033990526666 Z"/></g></g><g><g><rect fill="white" stroke="none" x="1661.2916364641135" y="1286.661136236" width="196.594665891875" height="22.86928462"/></g><text fill="black" stroke="none" font-family="sans-serif" font-size="11pt" font-style="normal" font-weight="normal" text-decoration="normal" x="1663.9304000741135" y="1302.493717896" text-anchor="start" dominant-baseline="alphabetic">deleteBooking(b : Booking)</text></g><g><path fill="none" stroke="black" paint-order="fill stroke markers" d=" M 1941.8458004521408 1309.5304208559999 L 1580.2640979346277 1309.5304208559999" stroke-miterlimit="10" stroke-width="1.4659797833333332" stroke-dasharray=""/><g transform="translate(1577.332138367961,1309.5304208559999) translate(-1577.332138367961,-1309.5304208559999)"><path fill="black" stroke="none" paint-order="stroke fill markers" d=" M 1591.9919362012945 1302.2005219393332 L 1577.332138367961 1309.5304208559999 L 1591.9919362012945 1316.8603197726666 Z"/></g></g><g><g><rect fill="white" stroke="none" x="1606.9449299912944" y="1335.9180569559999" width="197.75424230789062" height="22.86928462"/></g><text fill="black" stroke="none" font-family="sans-serif" font-size="11pt" font-style="normal" font-weight="normal" text-decoration="normal" x="1609.5836936012945" y="1351.7506386159998" text-anchor="start" dominant-baseline="alphabetic">performUpdate(sql : String)</text></g><g><path fill="none" stroke="black" paint-order="fill stroke markers" d=" M 1577.332138367961 1358.7873415759998 L 1656.495046667961 1358.7873415759998 L 1656.495046667961 1376.3790989759998 L 1589.0599766346277 1376.3790989759998" stroke-miterlimit="10" stroke-width="1.4659797833333332" stroke-dasharray=""/><g transform="translate(1586.128017067961,1376.3790989759998) translate(-1586.128017067961,-1376.3790989759998)"><path fill="black" stroke="none" paint-order="stroke fill markers" d=" M 1600.7878149012945 1369.049200059333 L 1586.128017067961 1376.3790989759998 L 1600.7878149012945 1383.7089978926665 Z"/></g></g><g><g><rect fill="white" stroke="none" x="1606.9449299912942" y="1402.7667350759998" width="194.96971166824218" height="22.86928462"/></g><text fill="black" stroke="none" font-family="sans-serif" font-size="11pt" font-style="normal" font-weight="normal" text-decoration="normal" x="1609.5836936012943" y="1418.5993167359998" text-anchor="start" dominant-baseline="alphabetic">executeUpdate(sql : String)</text></g><g><path fill="none" stroke="black" paint-order="fill stroke markers" d=" M 1586.128017067961 1425.6360196959997 L 1819.7995950162033 1425.6360196959997" stroke-miterlimit="10" stroke-width="1.4659797833333332" stroke-dasharray=""/><g transform="translate(1822.7315545828699,1425.6360196959997) translate(-1822.7315545828699,-1425.6360196959997)"><path fill="black" stroke="none" paint-order="stroke fill markers" d=" M 1808.0717567495365 1418.306120779333 L 1822.7315545828699 1425.6360196959997 L 1808.0717567495365 1432.9659186126664 Z"/></g></g><g><g><rect fill="white" stroke="none" x="1606.9449299912944" y="1452.0236557959997" width="5.27752722" height="22.86928462"/></g><text fill="black" stroke="none" font-family="sans-serif" font-size="11pt" font-style="normal" font-weight="normal" text-decoration="normal" x="1609.5836936012945" y="1467.8562374559997" text-anchor="start" dominant-baseline="alphabetic"></text></g><g><path fill="none" stroke="black" paint-order="fill stroke markers" d=" M 1586.128017067961 1474.8929404159996 L 1656.495046667961 1474.8929404159996 L 1656.495046667961 1492.4846978159997 L 1589.0599766346277 1492.4846978159997" stroke-miterlimit="10" stroke-width="1.4659797833333332" stroke-dasharray="7.0367029599999995"/><g transform="translate(1586.128017067961,1492.4846978159997) translate(-1586.128017067961,-1492.4846978159997)"><path fill="black" stroke="none" paint-order="stroke fill markers" d=" M 1600.7878149012945 1485.154798899333 L 1586.128017067961 1492.4846978159997 L 1600.7878149012945 1499.8145967326664 Z"/></g></g><g><g><rect fill="white" stroke="none" x="1756.950205800051" y="1518.8723339159997" width="5.27752722" height="22.86928462"/></g><text fill="black" stroke="none" font-family="sans-serif" font-size="11pt" font-style="normal" font-weight="normal" text-decoration="normal" x="1759.588969410051" y="1534.7049155759996" text-anchor="start" dominant-baseline="alphabetic"></text></g><g><path fill="none" stroke="black" paint-order="fill stroke markers" d=" M 1577.332138367961 1541.7416185359996 L 1938.9138408854742 1541.7416185359996" stroke-miterlimit="10" stroke-width="1.4659797833333332" stroke-dasharray="7.0367029599999995"/><g transform="translate(1941.8458004521408,1541.7416185359996) translate(-1941.8458004521408,-1541.7416185359996)"><path fill="black" stroke="none" paint-order="stroke fill markers" d=" M 1927.1860026188074 1534.4117196193329 L 1941.8458004521408 1541.7416185359996 L 1927.1860026188074 1549.0715174526663 Z"/></g></g><g><g><rect fill="white" stroke="none" x="1377.04341735331" y="1568.1292546359996" width="5.27752722" height="22.86928462"/></g><text fill="black" stroke="none" font-family="sans-serif" font-size="11pt" font-style="normal" font-weight="normal" text-decoration="normal" x="1379.68218096331" y="1583.9618362959995" text-anchor="start" dominant-baseline="alphabetic"></text></g><g><path fill="none" stroke="black" paint-order="fill stroke markers" d=" M 1941.8458004521408 1590.9985392559995 L 820.4505210411459 1590.9985392559995" stroke-miterlimit="10" stroke-width="1.4659797833333332" stroke-dasharray="7.0367029599999995"/><g transform="translate(817.5185614744792,1590.9985392559995) translate(-817.5185614744792,-1590.9985392559995)"><path fill="black" stroke="none" paint-order="stroke fill markers" d=" M 832.1783593078125 1583.6686403393328 L 817.5185614744792 1590.9985392559995 L 832.1783593078125 1598.3284381726662 Z"/></g></g><g><g><rect fill="white" stroke="none" x="838.3354743978125" y="1664.8839203359996" width="212.79350317214843" height="22.86928462"/></g><text fill="black" stroke="none" font-family="sans-serif" font-size="11pt" font-style="normal" font-weight="normal" text-decoration="normal" x="840.9742380078125" y="1680.7165019959996" text-anchor="start" dominant-baseline="alphabetic">notifyObservers()                    </text></g><g><path fill="none" stroke="black" paint-order="fill stroke markers" d=" M 817.5185614744792 1687.7532049559995 L 887.8855910744792 1687.7532049559995 L 887.8855910744792 1705.3449623559995 L 820.4505210411459 1705.3449623559995" stroke-miterlimit="10" stroke-width="1.4659797833333332" stroke-dasharray=""/><g transform="translate(817.5185614744792,1705.3449623559995) translate(-817.5185614744792,-1705.3449623559995)"><path fill="black" stroke="none" paint-order="stroke fill markers" d=" M 832.1783593078125 1698.0150634393328 L 817.5185614744792 1705.3449623559995 L 832.1783593078125 1712.6748612726662 Z"/></g></g><g><g><rect fill="white" stroke="none" x="838.3354743978125" y="1758.1202345559996" width="5.27752722" height="22.86928462"/></g><text fill="black" stroke="none" font-family="sans-serif" font-size="11pt" font-style="normal" font-weight="normal" text-decoration="normal" x="840.9742380078125" y="1773.9528162159995" text-anchor="start" dominant-baseline="alphabetic"></text></g><g><path fill="none" stroke="black" paint-order="fill stroke markers" d=" M 817.5185614744792 1780.9895191759995 L 887.8855910744792 1780.9895191759995 L 887.8855910744792 1798.5812765759995 L 820.4505210411459 1798.5812765759995" stroke-miterlimit="10" stroke-width="1.4659797833333332" stroke-dasharray="7.0367029599999995"/><g transform="translate(817.5185614744792,1798.5812765759995) translate(-817.5185614744792,-1798.5812765759995)"><path fill="black" stroke="none" paint-order="stroke fill markers" d=" M 832.1783593078125 1791.2513776593328 L 817.5185614744792 1798.5812765759995 L 832.1783593078125 1805.9111754926662 Z"/></g></g><g><g><rect fill="white" stroke="none" x="614.4610251291928" y="1824.9689126759995" width="5.27752722" height="22.86928462"/></g><text fill="black" stroke="none" font-family="sans-serif" font-size="11pt" font-style="normal" font-weight="normal" text-decoration="normal" x="617.0997887391927" y="1840.8014943359995" text-anchor="start" dominant-baseline="alphabetic"></text></g><g><path fill="none" stroke="black" paint-order="fill stroke markers" d=" M 791.1309253744791 1847.8381972959994 L 446.00061167057294 1847.8381972959994" stroke-miterlimit="10" stroke-width="1.4659797833333332" stroke-dasharray="7.0367029599999995"/><g transform="translate(443.0686521039063,1847.8381972959994) translate(-443.0686521039063,-1847.8381972959994)"><path fill="black" stroke="none" paint-order="stroke fill markers" d=" M 457.72844993723965 1840.5082983793327 L 443.0686521039063 1847.8381972959994 L 457.72844993723965 1855.1680962126661 Z"/></g></g><g><g><rect fill="white" stroke="none" x="222.5452228844336" y="1874.2258333959994" width="5.27752722" height="22.86928462"/></g><text fill="black" stroke="none" font-family="sans-serif" font-size="11pt" font-style="normal" font-weight="normal" text-decoration="normal" x="225.1839864944336" y="1890.0584150559994" text-anchor="start" dominant-baseline="alphabetic"></text></g><g><path fill="none" stroke="black" paint-order="fill stroke markers" d=" M 425.4768947039063 1897.0951180159993 L 27.823037851627603 1897.0951180159993" stroke-miterlimit="10" stroke-width="1.4659797833333332" stroke-dasharray="7.0367029599999995"/><g transform="translate(24.891078284960937,1897.0951180159993) translate(-24.891078284960937,-1897.0951180159993)"><path fill="black" stroke="none" paint-order="stroke fill markers" d=" M 39.55087611829427 1889.7652190993326 L 24.891078284960937 1897.0951180159993 L 39.55087611829427 1904.425016932666 Z"/></g></g><g><g/><path fill="none" stroke="black" paint-order="fill stroke markers" d=" M 738.3556531744791 273.37590999599996 L 1327.8160488888634 273.37590999599996 L 1327.8160488888634 370.13057569599994 L 738.3556531744791 370.13057569599994 L 738.3556531744791 273.37590999599996 Z" stroke-miterlimit="10" stroke-width="2.5131082" stroke-dasharray=""/><path fill="white" stroke="black" paint-order="fill stroke markers" d=" M 738.3556531744791 273.37590999599996 L 738.3556531744791 294.48601887599995 L 800.2409349422526 294.48601887599995 L 810.7959893822526 283.93096443599995 L 810.7959893822526 273.37590999599996 L 738.3556531744791 273.37590999599996" stroke-miterlimit="10" stroke-width="2.5131082" stroke-dasharray=""/><text fill="black" stroke="none" font-family="sans-serif" font-size="8.8pt" font-style="normal" font-weight="bold" text-decoration="normal" x="755.9474105744791" y="287.44931591599993" text-anchor="start" dominant-baseline="alphabetic">loop</text><text fill="black" stroke="none" font-family="sans-serif" font-size="8.8pt" font-style="normal" font-weight="bold" text-decoration="normal" x="828.3877467822526" y="287.44931591599993" text-anchor="start" dominant-baseline="alphabetic">[for each current Booking]</text></g><g><g/><path fill="none" stroke="black" paint-order="fill stroke markers" d=" M 738.3556531744791 1617.3861753559995 L 1057.286092659961 1617.3861753559995 L 1057.286092659961 1731.7325984559996 L 738.3556531744791 1731.7325984559996 L 738.3556531744791 1617.3861753559995 Z" stroke-miterlimit="10" stroke-width="2.5131082" stroke-dasharray=""/><path fill="white" stroke="black" paint-order="fill stroke markers" d=" M 738.3556531744791 1617.3861753559995 L 738.3556531744791 1638.4962842359996 L 851.0269762020182 1638.4962842359996 L 861.5820306420183 1627.9412297959996 L 861.5820306420183 1617.3861753559995 L 738.3556531744791 1617.3861753559995" stroke-miterlimit="10" stroke-width="2.5131082" stroke-dasharray=""/><text fill="black" stroke="none" font-family="sans-serif" font-size="8.8pt" font-style="normal" font-weight="bold" text-decoration="normal" x="755.9474105744791" y="1631.4595812759997" text-anchor="start" dominant-baseline="alphabetic">expandable−</text><text fill="black" stroke="none" font-family="sans-serif" font-size="8.8pt" font-style="normal" font-weight="bold" text-decoration="normal" x="879.1737880420183" y="1631.4595812759997" text-anchor="start" dominant-baseline="alphabetic">[see 10 - Display Available Rooms BCE]</text></g></g><g/><g/><g/><g/><g/><g/><g/><g/><g/><g/></g></svg>