<svg version="1.1" xmlns="http://www.w3.org/2000/svg" xmlns:xlink="http://www.w3.org/1999/xlink" width="2326" height="1849"><defs/><g><g/><g/><g/><g/><g/><g/><g/><g/><g/><g/><g/><g/><g/><g/><g/><g/><g/><g/><g/><g/><g/><g/><g/><g/><g/><g/><g/><g/><g/><g/><g/><g><rect fill="white" stroke="none" x="0" y="0" width="2326" height="1849"/></g><g><text fill="black" stroke="none" font-family="sans-serif" font-size="16.5pt" font-style="normal" font-weight="normal" text-decoration="normal" x="1085.4281167849076" y="26.3876361" text-anchor="start" dominant-baseline="alphabetic">Check-out BCE</text></g><g/><g><path fill="none" stroke="black" paint-order="fill stroke markers" d=" M 24.891078284960937 139.67855375599999 L 24.891078284960937 1849.5973730359992" stroke-miterlimit="10" stroke-width="1.4659797833333332" stroke-dasharray="13.532121076923076,5.863919133333333"/><path fill="none" stroke="black" paint-order="fill stroke markers" d=" M 181.55293117679687 139.67855375599999 L 181.55293117679687 1849.5973730359992" stroke-miterlimit="10" stroke-width="1.4659797833333332" stroke-dasharray="13.532121076923076,5.863919133333333"/><path fill="none" stroke="black" paint-order="fill stroke markers" d=" M 454.95367042764326 139.67855375599999 L 454.95367042764326 1849.5973730359992" stroke-miterlimit="10" stroke-width="1.4659797833333332" stroke-dasharray="13.532121076923076,5.863919133333333"/><path fill="none" stroke="black" paint-order="fill stroke markers" d=" M 953.8631745247787 139.67855375599999 L 953.8631745247787 1849.5973730359992" stroke-miterlimit="10" stroke-width="1.4659797833333332" stroke-dasharray="13.532121076923076,5.863919133333333"/><path fill="none" stroke="black" paint-order="fill stroke markers" d=" M 1201.0077034484766 139.67855375599999 L 1201.0077034484766 1849.5973730359992" stroke-miterlimit="10" stroke-width="1.4659797833333332" stroke-dasharray="13.532121076923076,5.863919133333333"/><path fill="none" stroke="black" paint-order="fill stroke markers" d=" M 1310.0916842534532 139.67855375599999 L 1310.0916842534532 1849.5973730359992" stroke-miterlimit="10" stroke-width="1.4659797833333332" stroke-dasharray="13.532121076923076,5.863919133333333"/><path fill="none" stroke="black" paint-order="fill stroke markers" d=" M 1437.8731541778673 139.67855375599999 L 1437.8731541778673 1849.5973730359992" stroke-miterlimit="10" stroke-width="1.4659797833333332" stroke-dasharray="13.532121076923076,5.863919133333333"/><path fill="none" stroke="black" paint-order="fill stroke markers" d=" M 1580.013691684504 139.67855375599999 L 1580.013691684504 1849.5973730359992" stroke-miterlimit="10" stroke-width="1.4659797833333332" stroke-dasharray="13.532121076923076,5.863919133333333"/><path fill="none" stroke="black" paint-order="fill stroke markers" d=" M 1726.5278787883087 139.67855375599999 L 1726.5278787883087 1849.5973730359992" stroke-miterlimit="10" stroke-width="1.4659797833333332" stroke-dasharray="13.532121076923076,5.863919133333333"/><path fill="none" stroke="black" paint-order="fill stroke markers" d=" M 1870.4940258367462 139.67855375599999 L 1870.4940258367462 1849.5973730359992" stroke-miterlimit="10" stroke-width="1.4659797833333332" stroke-dasharray="13.532121076923076,5.863919133333333"/><path fill="none" stroke="black" paint-order="fill stroke markers" d=" M 2028.8192404674064 139.67855375599999 L 2028.8192404674064 1849.5973730359992" stroke-miterlimit="10" stroke-width="1.4659797833333332" stroke-dasharray="13.532121076923076,5.863919133333333"/><path fill="none" stroke="black" paint-order="fill stroke markers" d=" M 2283.0145353823154 139.67855375599999 L 2283.0145353823154 1849.5973730359992" stroke-miterlimit="10" stroke-width="1.4659797833333332" stroke-dasharray="13.532121076923076,5.863919133333333"/></g><g><g><path fill="white" stroke="black" paint-order="fill stroke markers" d=" M 34.91838000296094 65.265419954 A 10.027301717999999 10.027301717999999 0 1 1 34.91837498931049 65.25539265395321 M 24.891078284960937 75.29272167199998 L 24.891078284960937 96.75466569999998 M 12.225012956960938 83.033094928 L 37.557143612960935 83.033094928 M 24.891078284960937 96.75466569999998 L 12.225012956960938 116.80926913599998 M 24.891078284960937 96.75466569999998 L 37.557143612960935 116.80926913599998" stroke-miterlimit="10" stroke-width="2.990598758" stroke-dasharray=""/></g><g><g/><text fill="black" stroke="none" font-family="sans-serif" font-size="11pt" font-style="normal" font-weight="normal" text-decoration="normal" x="8.7958787" y="134.401026536" text-anchor="start" dominant-baseline="alphabetic">Staff</text></g><g><path fill="white" stroke="black" paint-order="fill stroke markers" d=" M 216.47256961579689 89.19021001799997 A 26.123759739 26.123759739 0 1 1 216.47255655391808 89.16408626261492 M 148.12859211679685 61.57115089999997 L 148.12859211679685 116.80926913599997 M 146.63329273779686 89.19021001799997 L 164.22505013779687 89.19021001799997" stroke-miterlimit="10" stroke-width="2.990598758" stroke-dasharray=""/></g><g><g/><text fill="black" stroke="none" font-family="sans-serif" font-size="11pt" font-style="normal" font-weight="normal" text-decoration="normal" x="164.7562316528711" y="134.401026536" text-anchor="start" dominant-baseline="alphabetic">Alert</text></g><g><path fill="white" stroke="black" paint-order="fill stroke markers" d=" M 489.87330886664324 89.19021001799997 A 26.123759739 26.123759739 0 1 1 489.8732958047645 89.16408626261492 M 421.5293313676433 61.57115089999997 L 421.5293313676433 116.80926913599997 M 420.0340319886433 89.19021001799997 L 437.6257893886433 89.19021001799997" stroke-miterlimit="10" stroke-width="2.990598758" stroke-dasharray=""/></g><g><g/><text fill="black" stroke="none" font-family="sans-serif" font-size="11pt" font-style="normal" font-weight="normal" text-decoration="normal" x="431.2314109061589" y="134.401026536" text-anchor="start" dominant-baseline="alphabetic">StaffUI</text></g><g><path fill="white" stroke="black" paint-order="fill stroke markers" d=" M 979.9869342637787 89.19021001799997 A 26.123759739 26.123759739 0 1 1 979.9869212018999 89.16408626261492 M 950.3448230447788 63.06645027899997 L 960.8998774847788 54.27057157899998 M 950.3448230447788 63.06645027899997 L 960.8998774847788 71.86232897899997" stroke-miterlimit="10" stroke-width="2.990598758" stroke-dasharray=""/></g><g><g/><text fill="black" stroke="none" font-family="sans-serif" font-size="11pt" font-style="normal" font-weight="normal" text-decoration="normal" x="899.5360337166733" y="134.401026536" text-anchor="start" dominant-baseline="alphabetic">BookingSystem</text></g><path fill="none" stroke="none"/><g><path fill="white" stroke="black" paint-order="fill stroke markers" d=" M 1162.7509918232852 92.18080877599999 L 1239.264415073668 92.18080877599999 L 1239.264415073668 139.67855375599999 L 1162.7509918232852 139.67855375599999 L 1162.7509918232852 92.18080877599999 Z" stroke-miterlimit="10" stroke-width="2.814681184" stroke-dasharray=""/></g><g><g/><text fill="black" stroke="none" font-family="sans-serif" font-size="11pt" font-style="normal" font-weight="normal" text-decoration="normal" x="1181.8380486022852" y="122.08679635600001" text-anchor="start" dominant-baseline="alphabetic">Hotel</text></g><g><path fill="white" stroke="black" paint-order="fill stroke markers" d=" M 1336.2154439924532 86.79773101159998 A 26.123759739 26.123759739 0 1 1 1336.2154309305745 86.77160725621492 M 1282.4726251354532 115.31396975699997 L 1334.7201446134532 115.31396975699997" stroke-miterlimit="10" stroke-width="2.990598758" stroke-dasharray=""/></g><g><g/><text fill="black" stroke="none" font-family="sans-serif" font-size="11pt" font-style="normal" font-weight="normal" text-decoration="normal" x="1256.856172473668" y="134.401026536" text-anchor="start" dominant-baseline="alphabetic">Room (current)</text></g><g><path fill="white" stroke="black" paint-order="fill stroke markers" d=" M 1463.9969139168672 86.79773101159998 A 26.123759739 26.123759739 0 1 1 1463.9969008549886 86.77160725621492 M 1410.2540950598673 115.31396975699997 L 1462.5016145378672 115.31396975699997" stroke-miterlimit="10" stroke-width="2.990598758" stroke-dasharray=""/></g><g><g/><text fill="black" stroke="none" font-family="sans-serif" font-size="11pt" font-style="normal" font-weight="normal" text-decoration="normal" x="1380.9189534332384" y="134.401026536" text-anchor="start" dominant-baseline="alphabetic">Room (selected)</text></g><path fill="none" stroke="none"/><g><path fill="white" stroke="black" paint-order="fill stroke markers" d=" M 1512.4191123224962 92.18080877599999 L 1647.6082710465118 92.18080877599999 L 1647.6082710465118 139.67855375599999 L 1512.4191123224962 139.67855375599999 L 1512.4191123224962 92.18080877599999 Z" stroke-miterlimit="10" stroke-width="2.814681184" stroke-dasharray=""/></g><g><g/><text fill="black" stroke="none" font-family="sans-serif" font-size="11pt" font-style="normal" font-weight="normal" text-decoration="normal" x="1531.5061691014962" y="122.08679635600001" text-anchor="start" dominant-baseline="alphabetic">RoomMapper</text></g><g><path fill="white" stroke="black" paint-order="fill stroke markers" d=" M 1752.6516385273087 86.79773101159998 A 26.123759739 26.123759739 0 1 1 1752.65162546543 86.77160725621492 M 1698.9088196703087 115.31396975699997 L 1751.1563391483087 115.31396975699997" stroke-miterlimit="10" stroke-width="2.990598758" stroke-dasharray=""/></g><g><g/><text fill="black" stroke="none" font-family="sans-serif" font-size="11pt" font-style="normal" font-weight="normal" text-decoration="normal" x="1665.2000284465119" y="134.401026536" text-anchor="start" dominant-baseline="alphabetic">Booking (current)</text></g><g><path fill="white" stroke="black" paint-order="fill stroke markers" d=" M 1896.6177855757462 86.79773101159998 A 26.123759739 26.123759739 0 1 1 1896.6177725138675 86.77160725621492 M 1842.8749667187462 115.31396975699997 L 1895.1224861967462 115.31396975699997" stroke-miterlimit="10" stroke-width="2.990598758" stroke-dasharray=""/></g><g><g/><text fill="black" stroke="none" font-family="sans-serif" font-size="11pt" font-style="normal" font-weight="normal" text-decoration="normal" x="1805.4474865301056" y="134.401026536" text-anchor="start" dominant-baseline="alphabetic">Booking (selected)</text></g><path fill="none" stroke="none"/><g><path fill="white" stroke="black" paint-order="fill stroke markers" d=" M 1953.1323225433869 92.18080877599999 L 2104.5061583914257 92.18080877599999 L 2104.5061583914257 139.67855375599999 L 1953.1323225433869 139.67855375599999 L 1953.1323225433869 92.18080877599999 Z" stroke-miterlimit="10" stroke-width="2.814681184" stroke-dasharray=""/></g><g><g/><text fill="black" stroke="none" font-family="sans-serif" font-size="11pt" font-style="normal" font-weight="normal" text-decoration="normal" x="1972.2193793223869" y="122.08679635600001" text-anchor="start" dominant-baseline="alphabetic">BookingMapper</text></g><g><path fill="white" stroke="black" paint-order="fill stroke markers" d=" M 2257.3305695783156 105.19870925199999 L 2257.3305695783156 68.25601871199999 L 2308.6985011863153 68.25601871199999 L 2308.6985011863153 105.19870925199999" stroke-miterlimit="10" stroke-width="2.990598758" stroke-dasharray=""/><path fill="white" stroke="black" paint-order="fill stroke markers" d=" M 2308.6985011863153 66.97182042179999 L 2308.697216998727 67.08792408555635 L 2308.693364564379 67.20401613904309 L 2308.6869442685115 67.3200849731516 L 2308.6779567531494 67.43611898109519 L 2308.666402917036 67.55210655956978 L 2308.6522839155455 67.66803610991414 L 2308.6356011605667 67.78389603926989 L 2308.616356320361 67.8996747617406 L 2308.594551319396 68.01536069955054 L 2308.570188338154 68.1309422842023 L 2308.5432698129125 68.24640795763378 L 2308.513798435502 68.3617461733738 L 2308.4817771530356 68.47694539769695 L 2308.447209167615 68.59199411077678 L 2308.410097936009 68.70688080783783 L 2308.370447169311 68.82159400030618 L 2308.328260832564 68.93612221695814 L 2308.283543144367 69.0504540050675 L 2308.2362985764507 69.16457793155072 L 2308.186531853233 69.27848258411025 L 2308.1342479513455 69.39215657237577 L 2308.0794520991335 69.50558852904317 L 2308.0221497761377 69.61876711101131 L 2307.9623467125416 69.73168100051632 L 2307.9000488886027 69.84431890626333 L 2307.835262534051 69.95666956455563 L 2307.7679941274673 70.06872174042103 L 2307.6982503956374 70.18046422873529 L 2307.626038312876 70.29188585534273 L 2307.5513651003307 70.40297547817353 L 2307.474238225261 70.51372198835797 L 2307.3946654002907 70.62411431133734 L 2307.3126545826344 70.73414140797132 L 2307.228213973307 70.84379227564195 L 2307.1413520162982 70.95305594935381 L 2307.052077397732 71.06192150283061 L 2306.960399044995 71.1703780496077 L 2306.8663261258466 71.27841474412082 L 2306.7698680475005 71.38602078279051 L 2306.6710344556836 71.4931854051026 L 2306.5698352336735 71.59989789468413 L 2306.466280501307 71.7061475803751 L 2306.360380613972 71.81192383729548 L 2306.2521461615693 71.9172160879077 L 2306.1415879674523 72.02201380307447 L 2306.02871708735 72.12630650311159 L 2305.913544808255 72.23008375883597 L 2305.7960826473004 72.33333519260853 L 2305.6763423506036 72.43605047937191 L 2305.5543358920945 72.53821934768304 L 2305.4300754723176 72.63983158074024 L 2305.3035735172116 72.74087701740487 L 2305.174842676866 72.84134555321748 L 2305.043895824258 72.94122714140819 L 2304.910746053963 73.04051179390143 L 2304.7754066808484 73.13918958231469 L 2304.637891238737 73.23725063895135 L 2304.4982134790603 73.33468515778748 L 2304.3563873694766 73.43148339545236 L 2304.2124270924787 73.52763567220293 L 2304.066347043975 73.6231323728916 L 2303.9181618318485 73.71796394792793 L 2303.767886274496 73.8121209142334 L 2303.615535399349 73.90559385618985 L 2303.4611244413677 73.998373426581 L 2303.3046688415193 74.09045034752711 L 2303.1461842452336 74.18181541141281 L 2302.985686500838 74.27245948180787 L 2302.8231916579725 74.36237349438078 L 2302.6587159659866 74.45154845780519 L 2302.492275872313 74.53997545465909 L 2302.3238880208214 74.62764564231648 L 2302.153569250157 74.71455025383165 L 2301.9813365920554 74.80068059881587 L 2301.807207269638 74.88602806430642 L 2301.6311986956925 74.97058411562787 L 2301.4533284709296 75.05434029724555 L 2301.2736143822235 75.13728823361109 L 2301.092074400833 75.21941962999999 L 2300.9087266806055 75.30072627334106 L 2300.72358955616 75.38120003303769 L 2300.536681541054 75.46083286178099 L 2300.3480213259345 75.53961679635444 L 2300.157627776665 75.61754395843025 L 2299.9655199324416 75.69460655535714 L 2299.771717003889 75.77079688093964 L 2299.576238371139 75.84610731620869 L 2299.3791035818913 75.9205303301835 L 2299.1803323494605 75.99405848062472 L 2298.9799445508047 76.06668441477855 L 2298.7779602245364 76.13840087011211 L 2298.57439956892 76.20920067503964 L 2298.3692829398515 76.27907674963963 L 2298.162630848823 76.34802210636286 L 2297.9544639608707 76.4160298507311 L 2297.744803092511 76.48309318202661 L 2297.5336692096553 76.54920539397213 L 2297.321083425516 76.61435987540155 L 2297.1070669984942 76.67855011092104 L 2296.891641330055 76.74176968156053 L 2296.6748279625854 76.80401226541565 L 2296.4566485772407 76.86527163827986 L 2296.2371249917787 76.92554167426694 L 2296.0162791583743 76.98481634642351 L 2295.794133161427 77.04308972733178 L 2295.5707092153516 77.10035598970217 L 2295.346029662356 77.15660940695618 L 2295.120116970209 77.21184435379898 L 2294.892993729991 77.26605530678191 L 2294.664682653837 77.31923684485484 L 2294.4352065726644 77.37138364990828 L 2294.2045884338895 77.42249050730518 L 2293.9728512991346 77.4725523064024 L 2293.7400183419204 77.52156404106174 L 2293.5061128453476 77.56952081015058 L 2293.2711581997714 77.61641781803196 L 2293.035177900461 77.6622503750442 L 2292.798195545249 77.70701389796976 L 2292.560234832174 77.75070391049368 L 2292.3213195571084 77.7933160436511 L 2292.081473611381 77.83484603626422 L 2291.840720979387 77.87528973536838 L 2291.599085736188 77.91464309662739 L 2291.3565920451074 77.9529021847379 L 2291.113264155312 77.99006317382297 L 2290.8691263993883 78.02612234781469 L 2290.6242031909087 78.0610761008257 L 2290.378519021989 78.09492093750981 L 2290.132098460843 78.12765347341158 L 2289.8849661493196 78.15927043530469 L 2289.637146800445 78.18976866151928 L 2289.3886651959474 78.21914510225817 L 2289.13954618378 78.24739681990175 L 2288.889814675637 78.27452098930179 L 2288.6394956444606 78.30051489806398 L 2288.388614121945 78.32537594681908 L 2288.1371951960346 78.34910164948295 L 2287.885264008411 78.37168963350508 L 2287.632845751984 78.39313764010592 L 2287.3799656683686 78.41344352450264 L 2287.1266490453627 78.43260525612375 L 2286.872921214417 78.45062091881205 L 2286.6188075481036 78.46748871101629 L 2286.364333457577 78.48320694597129 L 2286.109524390034 78.49777405186667 L 2285.85440582617 78.51118857200397 L 2285.5990032776276 78.52344916494236 L 2285.34334228445 78.53455460463276 L 2285.0874484125225 78.54450378054045 L 2284.8313472510195 78.55329569775614 L 2284.5750644098434 78.56092947709544 L 2284.3186255170654 78.56740435518677 L 2284.0620562163604 78.57271968454769 L 2283.805382164445 78.57687493364975 L 2283.5486290285103 78.57986968697145 L 2283.291822483656 78.58170364504 L 2283.034988210323 78.58237662446106 L 2282.7781518917236 78.58188855793732 L 2282.521339211277 78.58023949427498 L 2282.264575850036 78.57742959837903 L 2282.0078874841233 78.57345915123673 L 2281.751299782162 78.56832854988951 L 2281.4948384027075 78.56203830739318 L 2281.2385289916847 78.5545890527668 L 2280.982397179821 78.54598153092958 L 2280.726468580084 78.53621660262655 L 2280.470768785121 78.5252952443424 L 2280.2153233646977 78.51321854820387 L 2279.960157863143 78.4999877218705 L 2279.7052977967955 78.48560408841388 L 2279.4507686514485 78.4700690861854 L 2279.196595879805 78.45338426867232 L 2278.9428048989303 78.4355513043425 L 2278.6894210877103 78.41657197647748 L 2278.436469784316 78.39644818299428 L 2278.183976283666 78.37518193625543 L 2277.931965834901 78.35277536286792 L 2277.680463638855 78.32923070347039 L 2277.429494845538 78.30455031250918 L 2277.179084551621 78.2787366580028 L 2276.929257797924 78.2517923212952 L 2276.6800395669143 78.2237199967976 L 2276.4314547802073 78.19452249171906 L 2276.183528296075 78.16420272578573 L 2275.936284906959 78.13276373094897 L 2275.6897493369916 78.10020865108203 L 2275.4439462395244 78.0665407416658 L 2275.198900194663 78.03176336946316 L 2274.954635706808 77.99588001218234 L 2274.711177202203 77.95889425812916 L 2274.4685490264974 77.92080980584822 L 2274.226775442305 77.881630463753 L 2273.985880626784 77.84136014974506 L 2273.7458886692148 77.80000289082224 L 2273.5068235685926 77.75756282267598 L 2273.268709231229 77.71404418927773 L 2273.031569468359 77.66945134245454 L 2272.795427993761 77.62378874145395 L 2272.5603084213863 77.57706095249802 L 2272.326234262996 77.52927264832667 L 2272.0932289258103 77.48042860773052 L 2271.8613157101695 77.43053371507293 L 2271.6305178072016 77.37959295980157 L 2271.4008582965043 77.32761143594954 L 2271.1723601438375 77.27459434162587 L 2270.9450461988267 77.22054697849586 L 2270.718939192676 77.16547475125074 L 2270.494061735898 77.10938316706736 L 2270.2704363160506 77.0522778350574 L 2270.04808529549 76.99416446570646 L 2269.827030909133 76.93504887030305 L 2269.6072952622335 76.87493696035746 L 2269.3889003281733 76.81383474701059 L 2269.1718679462642 76.75174834043284 L 2268.956219819563 76.68868394921314 L 2268.7419775127028 76.62464787973806 L 2268.529162449736 76.5596465355612 L 2268.317795911991 76.49368641676277 L 2268.107899035946 76.42677411929971 L 2267.8994928111133 76.358916334346 L 2267.692598077942 76.2901198476236 L 2267.487235525733 76.22039153872383 L 2267.2834256905703 76.14973838041949 L 2267.0811889532674 76.07816743796754 L 2266.88054553733 76.00568586840255 L 2266.6815155069316 75.9323009198211 L 2266.4841187649104 75.8580199306569 L 2266.2883750507754 75.78285032894695 L 2266.0943039387353 75.70679963158878 L 2265.9019248357395 75.62987544358876 L 2265.7112569795377 75.55208545730159 L 2265.522319436757 75.47343745166106 L 2265.3351311009937 75.3939392914022 L 2265.149710690926 75.31359892627479 L 2264.96607674844 75.2324243902484 L 2264.7842476367773 75.15042380070896 L 2264.604241538697 75.06760535764712 L 2264.4260764546593 74.98397734283817 L 2264.249770201024 74.89954811901389 L 2264.0753404082698 74.8143261290263 L 2263.9028045192304 74.72831989500338 L 2263.7321797873506 74.64153801749687 L 2263.563483274962 74.5539891746222 L 2263.3967318515747 74.46568212119071 L 2263.2319421921925 74.37662568783415 L 2263.0691307756438 74.28682878012162 L 2262.9083138829346 74.19630037766909 L 2262.749507595621 74.10504953324134 L 2262.5927277941973 74.0130853718468 L 2262.4379901565153 73.92041708982494 L 2262.285310156208 73.82705395392676 L 2262.13470306115 73.73300530038806 L 2261.9861839319237 73.63828053399578 L 2261.839767620319 73.54288912714766 L 2261.695468767845 73.44684061890487 L 2261.5533018042665 73.3501446140382 L 2261.413280946161 73.25281078206757 L 2261.275420195499 73.15484885629505 L 2261.1397333382392 73.05626863283157 L 2261.0062339429555 72.95707996961737 L 2260.874935359475 72.85729278543607 L 2260.7458507175475 72.75691705892295 L 2260.618992925529 72.65596282756702 L 2260.4943746690933 72.5544401867073 L 2260.3720084099623 72.45235928852324 L 2260.25190638466 72.34973034101961 L 2260.1340806032886 72.24656360700563 L 2260.018542848328 72.14286940306874 L 2259.9053046734575 72.03865809854291 L 2259.7943774024 71.93394011447177 L 2259.685772127791 71.82872592256643 L 2259.5794997100666 71.72302604415843 L 2259.4755707763807 71.61685104914753 L 2259.373995719539 71.51021155494473 L 2259.2747846969637 71.4031182254106 L 2259.1779476296733 71.29558176978884 L 2259.083494201295 71.1876129416354 L 2258.991433857092 71.07922253774314 L 2258.9017758030222 70.9704213970621 L 2258.814529004817 70.86122039961568 L 2258.7297021870827 70.75163046541265 L 2258.64730383243 70.64166255335508 L 2258.5673421806273 70.53132766014255 L 2258.4898252277717 70.42063681917243 L 2258.4147607254945 70.30960109943658 L 2258.342156180183 70.19823160441445 L 2258.2720188522317 70.0865394709627 L 2258.2043557553147 69.97453586820164 L 2258.139173655685 69.86223199639821 L 2258.076479071499 69.74963908584596 L 2258.0162782721623 69.63676839574217 L 2257.9585772777045 69.52363121306175 L 2257.9033818581775 69.41023885142872 L 2257.850697533077 69.29660264998472 L 2257.8005295707917 69.18273397225522 L 2257.752882988076 69.0686442050131 L 2257.7077625495485 68.95434475714 L 2257.665172767215 68.83984705848547 L 2257.6251179000187 68.72516255872397 L 2257.587601953413 68.61030272620987 L 2257.5526286789614 68.49527904683073 L 2257.5202015739615 68.38010302285863 L 2257.4903238810975 68.2647861718 L 2257.4629985881134 68.14934002524383 L 2257.4382284275157 68.03377612770858 L 2257.4160158763 67.9181060354877 L 2257.396363155703 67.80234131549402 L 2257.3792722309804 67.68649354410306 L 2257.36474481121 67.57057430599544 L 2257.352782349122 67.45459519299835 L 2257.3433860409527 67.33856780292646 L 2257.3365568263252 67.22250373842208 L 2257.3322953881548 67.10641460579494 L 2257.330602152582 66.99031201386155 L 2257.331477288929 66.87420757278437 L 2257.334920709683 66.75811289291076 L 2257.3409320705046 66.64203958361193 L 2257.3495107702624 66.52599925212212 L 2257.3606559510945 66.41000350237775 L 2257.3743664984913 66.29406393385715 L 2257.3906410414097 66.17819214042055 L 2257.409477952409 66.06239970915072 L 2257.430875347814 65.94669821919432 L 2257.4548310879027 65.8310992406039 L 2257.481342777121 65.71561433318102 L 2257.5104077643223 65.60025504532017 L 2257.542023143032 65.48503291285398 L 2257.576185751739 65.36995945789971 L 2257.61289217421 65.25504618770695 L 2257.6521387398343 65.14030459350695 L 2257.6939215239872 65.02574614936354 L 2257.7382363484257 64.91138231102563 L 2257.785078781704 64.79722451478179 L 2257.834444139618 64.68328417631649 L 2257.886327485673 64.56957268956862 L 2257.9407236315774 64.45610142559212 L 2257.997627137762 64.3428817314188 L 2258.0570323139236 64.22992492892377 L 2258.1189332195945 64.1172423136931 L 2258.1833236647353 64.00484515389444 L 2258.2501972103555 63.89274468915009 L 2258.3195471691556 63.78095212941312 L 2258.391366606198 63.66947865384635 L 2258.465648339599 63.558335409704426 L 2258.542384941247 63.447533511219156 L 2258.621568737545 63.337084038488044 L 2258.7031918101807 63.226998036366325 L 2258.7872459969144 63.11728651336247 L 2258.873722892397 63.00796044053737 L 2258.962613849011 62.899030750407185 L 2259.0539099777357 62.790508335850156 L 2259.1476021490334 62.682404049017315 L 2259.243680993766 62.57472870024724 L 2259.3421369041275 62.4674930569851 L 2259.44296003461 62.36070784270584 L 2259.546140302985 62.25438373584191 L 2259.6516673913106 62.148531368715396 L 2259.7595307469664 62.04316132647479 L 2259.8697195837067 61.938284146036516 L 2259.9822228827397 61.83391031503122 L 2260.097029393829 61.73005027075502 L 2260.214127636419 61.6267143991258 L 2260.3335059007836 61.52391303364461 L 2260.4551522491956 61.42165645436233 L 2260.579054517121 61.31995488685167 L 2260.7052003144377 61.21881850118463 L 2260.8335770266694 61.1182574109155 L 2260.964171816253 61.018281672069506 L 2261.0969716238174 60.91890128213721 L 2261.2319631694936 60.82012617907481 L 2261.369132954239 60.72196624031029 L 2261.508467261189 60.62443128175571 L 2261.6499521570295 60.52753105682567 L 2261.793573493389 60.431275255461905 L 2261.939316908253 60.33567350316434 L 2262.0871678274025 60.24073536002853 L 2262.2371114658677 60.14647031978968 L 2262.38913282941 60.05288780887326 L 2262.5432167160197 59.959997185452366 L 2262.699347717437 59.86780773851195 L 2262.857510220691 59.77632868691987 L 2263.017688409664 59.68556917850505 L 2263.1798662666706 59.59553828914271 L 2263.3440275740595 59.50624502184675 L 2263.5101559158375 59.41769830586949 L 2263.678234679308 59.32990699580875 L 2263.8482470567355 59.24287987072236 L 2264.020176047024 59.15662563325033 L 2264.1940044574176 59.0711529087445 L 2264.3697149052196 58.986470244406114 L 2264.5472898195317 58.90258610843103 L 2264.7267114430115 58.81950888916295 L 2264.907961833645 58.737246894254554 L 2265.0910228665443 58.65580834983679 L 2265.2758762357594 58.57520139969624 L 2265.4625034561072 58.49543410446074 L 2265.6508858650204 58.41651444079334 L 2265.841004624416 58.33845030059465 L 2266.032840722576 58.26124949021362 L 2266.226374976051 58.18491972966697 L 2266.421588031576 58.10946865186714 L 2266.618460368009 58.03490380185903 L 2266.8169722982802 57.96123263606552 L 2267.0171039713614 57.88846252154177 L 2267.218835374253 57.816600735238616 L 2267.4221463339823 57.74565446327479 L 2267.6270165196224 57.67563080021837 L 2267.8334254443266 57.60653674837731 L 2268.041352467373 57.53837921709922 L 2268.250776796234 57.47116502208042 L 2268.46167748865 57.40490088468441 L 2268.674033454728 57.3395934312697 L 2268.8878234590484 57.27524919252721 L 2269.1030261227893 57.21187460282721 L 2269.3196199258628 57.14947599957584 L 2269.53758320907 57.088059622581426 L 2269.7568941762634 57.02763161343051 L 2269.9775308965295 56.96819801487362 L 2270.19947130638 56.9097647702211 L 2270.422693211959 56.85233772274873 L 2270.6471742912618 56.79592261511338 L 2270.8728920963677 56.74052508877882 L 2271.099824055684 56.6861506834515 L 2271.3279474762044 56.63280483652666 L 2271.557239545776 56.58049288254453 L 2271.787677335384 56.52922005265691 L 2272.0192378014412 56.47899147410408 L 2272.2518977880936 56.42981216970201 L 2272.4856340295364 56.38168705734017 L 2272.7204231523406 56.334620949489704 L 2272.9562416777894 56.28861855272216 L 2273.193066024227 56.24368446723889 L 2273.4308725094156 56.199823186410995 L 2273.669637352905 56.157039096329996 L 2273.90933667841 56.11533647536926 L 2274.149946516198 56.07471949375613 L 2274.3914428054854 56.035192213154914 L 2274.6338013968443 55.99675858626073 L 2274.876998054618 55.959422456404255 L 2275.121008459343 55.923187557167346 L 2275.365808210183 55.88805751200974 L 2275.611372827366 55.85403583390668 L 2275.857677754635 55.82112592499761 L 2276.104698361703 55.78933107624601 L 2276.3524099467145 55.758654467110254 L 2276.6007877387183 55.72909916522569 L 2276.8498069001416 55.70066812609789 L 2277.0994425292756 55.67336419280706 L 2277.349669662766 55.64719009572377 L 2277.6004632781073 55.62214845223594 L 2277.8517982961475 55.598241766487035 L 2278.103649583594 55.57547242912571 L 2278.3559919555278 55.55384271706673 L 2278.608800177922 55.533354793263264 L 2278.862048970166 55.51401070649064 L 2279.1157130075903 55.4958123911414 L 2279.369766924003 55.47876166703191 L 2279.6241853142246 55.46286023922039 L 2279.8789427366273 55.44810969783636 L 2280.134013715682 55.434511517921656 L 2280.3893727445025 55.42206705928295 L 2280.6449942873996 55.41077756635575 L 2280.9008527824312 55.40064416807991 L 2281.1569226439615 55.39166787778682 L 2281.413178265218 55.38384959309805 L 2281.6695940208515 55.37719009583553 L 2281.9261442695 55.37169005194345 L 2282.1828033563534 55.36735001142162 L 2282.439545615716 55.36417040827046 L 2282.6963453735757 55.36215156044765 L 2282.953176950172 55.36129366983628 L 2283.2100146625594 55.3615968222247 L 2283.4668328271823 55.363060987297914 L 2283.7236057624373 55.36568601864066 L 2283.9803077912457 55.369471653751965 L 2284.2369132436174 55.37441751407148 L 2284.493396459222 55.3805231050173 L 2284.749731789951 55.38778781603543 L 2285.0058936024857 55.39621092066079 L 2285.2618562808575 55.40579157658996 L 2285.517594229012 55.41652882576533 L 2285.773081873368 55.428421594470926 L 2286.028293665374 55.44146869343979 L 2286.2832040840626 55.45566881797289 L 2286.537787638605 55.47102054806961 L 2286.792018870858 55.48752234856974 L 2287.04587235791 55.50517256930697 L 2287.299322714624 55.52396944527395 L 2287.552344596175 55.54391109679874 L 2287.8049127005866 55.56499552973279 L 2288.057001771258 55.587220635650404 L 2288.3085865994926 55.61058419205949 L 2288.559642027017 55.63508386262389 L 2288.810142948498 55.660717197396956 L 2289.0600643140524 55.687481633066575 L 2289.3093811317513 55.715374493211485 L 2289.558068470121 55.744392988568904 L 2289.806101460634 55.7745342173135 L 2290.0534553002 55.8057951653475 L 2290.3001052536392 55.83817270660215 L 2290.546026656163 55.871663603350314 L 2290.7911949158356 55.90626450653023 L 2291.035585516035 55.941971956080394 L 2291.2791740179055 55.97878238128563 L 2291.5219360627993 56.01669210113408 L 2291.763847374715 56.055697324685354 L 2292.0048837627223 56.095794151449596 L 2292.2450211233836 56.136978571777554 L 2292.4842354431626 56.17924646726151 L 2292.722502800827 56.22259361114713 L 2292.95979936984 56.267015668756166 L 2293.1961014207413 56.31250819791986 L 2293.4313853235235 56.35906664942321 L 2293.665627549992 56.40668636745987 L 2293.89880467612 56.455362590097714 L 2294.130893384389 56.505090449755045 L 2294.361870466121 56.55586497368733 L 2294.591712823801 56.60768108448449 L 2294.820397473384 56.66053360057863 L 2295.0479015465967 56.71441723676219 L 2295.2742022932202 56.76932660471643 L 2295.4992770833696 56.82525621355034 L 2295.723103409752 56.88220047034963 L 2295.945658889923 56.940153680736074 L 2296.1669212685183 56.999110049436936 L 2296.386868419486 57.05906368086447 L 2296.6054783482928 57.120008579705484 L 2296.8227291941294 57.1819386515209 L 2297.038599232091 57.244847703355134 L 2297.2530668753548 57.308729444355436 L 2297.4661106773347 57.373577486400926 L 2297.677709333828 57.439385344741446 L 2297.887841685145 57.506146438646006 L 2298.0964867182265 57.57385409206084 L 2298.3036235687423 57.642501534277045 L 2298.5092315231805 57.712081900607586 L 2298.713290020917 57.78258823307383 L 2298.915778656272 57.854013481101276 L 2299.11667718055 57.92635050222464 L 2299.315965504067 57.99959206280211 L 2299.513623698156 58.07373083873863 L 2299.7096319971633 58.14875941621842 L 2299.903970800421 58.224670292446234 L 2300.096620674212 58.30145587639771 L 2300.287562353708 58.379108489578456 L 2300.4767767449016 58.45762036679186 L 2300.6642449265105 58.53698365691561 L 2300.849948151873 58.61719042368684 L 2301.0338678508215 58.698232646495725 L 2301.2159856315393 58.7801022211875 L 2301.3962832824 58.86279096087293 L 2301.5747427737883 58.94629059674695 L 2301.7513462599045 59.03059277891555 L 2301.9260760805473 59.115689077230776 L 2302.0989147628793 59.2015709821337 L 2302.269845023177 59.2882299055054 L 2302.438849768557 59.375657181525774 L 2302.6059120986847 59.46384406754005 L 2302.771015307467 59.55278174493313 L 2302.9341428847206 59.642461320011385 L 2303.0952785178238 59.73287382489204 L 2303.254406093347 59.82401021839995 L 2303.4115096986657 59.91586138697171 L 2303.56657362355 60.008418145567006 L 2303.719582361737 60.10167123858711 L 2303.8705206124805 60.195611340800426 L 2304.0193732820803 60.29022905827503 L 2304.1661254853943 60.385514929318006 L 2304.3107625473244 60.48145942542166 L 2304.453270004285 60.57805295221634 L 2304.593633605649 60.67528585042985 L 2304.7318393151727 60.77314839685341 L 2304.8678733124007 60.87163080531391 L 2305.0017219940473 60.97072322765259 L 2305.133371975355 61.07041575470979 L 2305.2628100914358 61.170698417315876 L 2305.390023398586 61.271561187288164 L 2305.51499917558 61.3729939784337 L 2305.637724924946 61.47498664755789 L 2305.75818837421 61.577528995478836 L 2305.876377477128 61.68061076804718 L 2305.9922804148873 61.78422165717158 L 2306.105885597292 61.88835130184945 L 2306.2171816639175 61.99298928920311 L 2306.3261574852504 62.09812515552101 L 2306.4328021638 62.203748387304145 L 2306.5371050351855 62.30984842231735 L 2306.6390556692086 62.416414650645535 L 2306.7386438708895 62.52343641575468 L 2306.835859681492 62.63090301555746 L 2306.9306933795156 62.73880370348344 L 2307.023135481669 62.847127689553744 L 2307.1131767438205 62.95586414146005 L 2307.2008081619174 63.065002185647764 L 2307.2860209728915 63.174530908403426 L 2307.368806655533 63.28443935694603 L 2307.449156931342 63.39471654052231 L 2307.527063765358 63.50535143150581 L 2307.6025193669634 63.61633296649962 L 2307.67551619066 63.72765004744274 L 2307.746046936826 63.83929154271982 L 2307.8141045524467 63.951246288274376 L 2307.8796822318163 64.06350308872516 L 2307.9427734172223 64.17605071848564 L 2308.0033717995975 64.28887792288667 L 2308.0614713191553 64.40197341930181 L 2308.117066165992 64.51532589827566 L 2308.170150780669 64.6289240246548 L 2308.220719854769 64.74275643872124 L 2308.268768331427 64.85681175732844 L 2308.314291405835 64.97107857503958 L 2308.3572845257236 65.08554546526814 L 2308.397743391817 65.20020098142045 L 2308.435663958262 65.31503365804045 L 2308.4710424330337 65.43003201195617 L 2308.503875278314 65.54518454342806 L 2308.5341592108452 65.66047973729893 L 2308.5618912022605 65.77590606414547 L 2308.587068479383 65.89145198143119 L 2308.609688524506 66.00710593466063 L 2308.629749075644 66.12285635853486 L 2308.6472481267588 66.23869167810795 L 2308.6621839279596 66.35460030994449 L 2308.674554985679 66.47057066327784 L 2308.6843600628213 66.58659114116935 L 2308.6915981788866 66.70265014166789 L 2308.69626861007 66.81873605897015 L 2308.698370889332 66.9348372845811 M 2308.6985011863153 103.91451096179999 L 2308.697216998727 104.03061462555635 L 2308.693364564379 104.14670667904309 L 2308.6869442685115 104.2627755131516 L 2308.6779567531494 104.37880952109519 L 2308.666402917036 104.49479709956978 L 2308.6522839155455 104.61072664991414 L 2308.6356011605667 104.72658657926989 L 2308.616356320361 104.8423653017406 L 2308.594551319396 104.95805123955054 L 2308.570188338154 105.0736328242023 L 2308.5432698129125 105.18909849763378 L 2308.513798435502 105.3044367133738 L 2308.4817771530356 105.41963593769695 L 2308.447209167615 105.53468465077678 L 2308.410097936009 105.64957134783783 L 2308.370447169311 105.76428454030618 L 2308.328260832564 105.87881275695814 L 2308.283543144367 105.9931445450675 L 2308.2362985764507 106.10726847155073 L 2308.186531853233 106.22117312411025 L 2308.1342479513455 106.33484711237577 L 2308.0794520991335 106.44827906904317 L 2308.0221497761377 106.56145765101131 L 2307.9623467125416 106.67437154051632 L 2307.9000488886027 106.78700944626333 L 2307.835262534051 106.89936010455563 L 2307.7679941274673 107.01141228042103 L 2307.6982503956374 107.12315476873529 L 2307.626038312876 107.23457639534273 L 2307.5513651003307 107.34566601817353 L 2307.474238225261 107.45641252835797 L 2307.3946654002907 107.56680485133734 L 2307.3126545826344 107.67683194797132 L 2307.228213973307 107.78648281564195 L 2307.1413520162982 107.89574648935381 L 2307.052077397732 108.00461204283062 L 2306.960399044995 108.1130685896077 L 2306.8663261258466 108.22110528412082 L 2306.7698680475005 108.32871132279051 L 2306.6710344556836 108.4358759451026 L 2306.5698352336735 108.54258843468413 L 2306.466280501307 108.6488381203751 L 2306.360380613972 108.75461437729548 L 2306.2521461615693 108.8599066279077 L 2306.1415879674523 108.96470434307447 L 2306.02871708735 109.0689970431116 L 2305.913544808255 109.17277429883598 L 2305.7960826473004 109.27602573260853 L 2305.6763423506036 109.37874101937192 L 2305.5543358920945 109.48090988768304 L 2305.4300754723176 109.58252212074024 L 2305.3035735172116 109.68356755740487 L 2305.174842676866 109.78403609321748 L 2305.043895824258 109.88391768140819 L 2304.910746053963 109.98320233390143 L 2304.7754066808484 110.08188012231469 L 2304.637891238737 110.17994117895135 L 2304.4982134790603 110.27737569778748 L 2304.3563873694766 110.37417393545236 L 2304.2124270924787 110.47032621220293 L 2304.066347043975 110.5658229128916 L 2303.9181618318485 110.66065448792793 L 2303.767886274496 110.7548114542334 L 2303.615535399349 110.84828439618985 L 2303.4611244413677 110.941063966581 L 2303.3046688415193 111.03314088752711 L 2303.1461842452336 111.12450595141281 L 2302.985686500838 111.21515002180787 L 2302.8231916579725 111.30506403438078 L 2302.6587159659866 111.39423899780519 L 2302.492275872313 111.48266599465909 L 2302.3238880208214 111.57033618231648 L 2302.153569250157 111.65724079383165 L 2301.9813365920554 111.74337113881587 L 2301.807207269638 111.82871860430642 L 2301.6311986956925 111.91327465562787 L 2301.4533284709296 111.99703083724555 L 2301.2736143822235 112.07997877361109 L 2301.092074400833 112.16211016999999 L 2300.9087266806055 112.24341681334106 L 2300.72358955616 112.32389057303769 L 2300.536681541054 112.40352340178099 L 2300.3480213259345 112.48230733635444 L 2300.157627776665 112.56023449843025 L 2299.9655199324416 112.63729709535714 L 2299.771717003889 112.71348742093964 L 2299.576238371139 112.78879785620869 L 2299.3791035818913 112.8632208701835 L 2299.1803323494605 112.93674902062472 L 2298.9799445508047 113.00937495477855 L 2298.7779602245364 113.08109141011211 L 2298.57439956892 113.15189121503964 L 2298.3692829398515 113.22176728963963 L 2298.162630848823 113.29071264636286 L 2297.9544639608707 113.35872039073111 L 2297.744803092511 113.42578372202661 L 2297.5336692096553 113.49189593397213 L 2297.321083425516 113.55705041540155 L 2297.1070669984942 113.62124065092104 L 2296.891641330055 113.68446022156053 L 2296.6748279625854 113.74670280541565 L 2296.4566485772407 113.80796217827987 L 2296.2371249917787 113.86823221426694 L 2296.0162791583743 113.92750688642352 L 2295.794133161427 113.98578026733178 L 2295.5707092153516 114.04304652970217 L 2295.346029662356 114.09929994695618 L 2295.120116970209 114.15453489379898 L 2294.892993729991 114.20874584678191 L 2294.664682653837 114.26192738485484 L 2294.4352065726644 114.31407418990828 L 2294.2045884338895 114.36518104730519 L 2293.9728512991346 114.4152428464024 L 2293.7400183419204 114.46425458106174 L 2293.5061128453476 114.51221135015058 L 2293.2711581997714 114.55910835803196 L 2293.035177900461 114.6049409150442 L 2292.798195545249 114.64970443796976 L 2292.560234832174 114.69339445049368 L 2292.3213195571084 114.7360065836511 L 2292.081473611381 114.77753657626423 L 2291.840720979387 114.81798027536838 L 2291.599085736188 114.85733363662739 L 2291.3565920451074 114.8955927247379 L 2291.113264155312 114.93275371382298 L 2290.8691263993883 114.96881288781469 L 2290.6242031909087 115.0037666408257 L 2290.378519021989 115.03761147750981 L 2290.132098460843 115.07034401341159 L 2289.8849661493196 115.10196097530469 L 2289.637146800445 115.13245920151928 L 2289.3886651959474 115.16183564225817 L 2289.13954618378 115.19008735990175 L 2288.889814675637 115.21721152930179 L 2288.6394956444606 115.24320543806398 L 2288.388614121945 115.26806648681908 L 2288.1371951960346 115.29179218948295 L 2287.885264008411 115.31438017350509 L 2287.632845751984 115.33582818010592 L 2287.3799656683686 115.35613406450264 L 2287.1266490453627 115.37529579612375 L 2286.872921214417 115.39331145881205 L 2286.6188075481036 115.41017925101629 L 2286.364333457577 115.42589748597129 L 2286.109524390034 115.44046459186667 L 2285.85440582617 115.45387911200397 L 2285.5990032776276 115.46613970494236 L 2285.34334228445 115.47724514463276 L 2285.0874484125225 115.48719432054045 L 2284.8313472510195 115.49598623775614 L 2284.5750644098434 115.50362001709544 L 2284.3186255170654 115.51009489518677 L 2284.0620562163604 115.5154102245477 L 2283.805382164445 115.51956547364975 L 2283.5486290285103 115.52256022697145 L 2283.291822483656 115.52439418504 L 2283.034988210323 115.52506716446106 L 2282.7781518917236 115.52457909793732 L 2282.521339211277 115.52293003427498 L 2282.264575850036 115.52012013837903 L 2282.0078874841233 115.51614969123673 L 2281.751299782162 115.51101908988952 L 2281.4948384027075 115.50472884739318 L 2281.2385289916847 115.4972795927668 L 2280.982397179821 115.48867207092958 L 2280.726468580084 115.47890714262655 L 2280.470768785121 115.4679857843424 L 2280.2153233646977 115.45590908820387 L 2279.960157863143 115.4426782618705 L 2279.7052977967955 115.42829462841388 L 2279.4507686514485 115.4127596261854 L 2279.196595879805 115.39607480867232 L 2278.9428048989303 115.3782418443425 L 2278.6894210877103 115.35926251647749 L 2278.436469784316 115.33913872299428 L 2278.183976283666 115.31787247625543 L 2277.931965834901 115.29546590286792 L 2277.680463638855 115.27192124347039 L 2277.429494845538 115.24724085250918 L 2277.179084551621 115.2214271980028 L 2276.929257797924 115.1944828612952 L 2276.6800395669143 115.1664105367976 L 2276.4314547802073 115.13721303171906 L 2276.183528296075 115.10689326578573 L 2275.936284906959 115.07545427094897 L 2275.6897493369916 115.04289919108203 L 2275.4439462395244 115.0092312816658 L 2275.198900194663 114.97445390946316 L 2274.954635706808 114.93857055218234 L 2274.711177202203 114.90158479812916 L 2274.4685490264974 114.86350034584822 L 2274.226775442305 114.824321003753 L 2273.985880626784 114.78405068974506 L 2273.7458886692148 114.74269343082224 L 2273.5068235685926 114.70025336267598 L 2273.268709231229 114.65673472927773 L 2273.031569468359 114.61214188245454 L 2272.795427993761 114.56647928145395 L 2272.5603084213863 114.51975149249802 L 2272.326234262996 114.47196318832667 L 2272.0932289258103 114.42311914773052 L 2271.8613157101695 114.37322425507293 L 2271.6305178072016 114.32228349980157 L 2271.4008582965043 114.27030197594954 L 2271.1723601438375 114.21728488162587 L 2270.9450461988267 114.16323751849586 L 2270.718939192676 114.10816529125074 L 2270.494061735898 114.05207370706736 L 2270.2704363160506 113.9949683750574 L 2270.04808529549 113.93685500570646 L 2269.827030909133 113.87773941030305 L 2269.6072952622335 113.81762750035746 L 2269.3889003281733 113.75652528701059 L 2269.1718679462642 113.69443888043284 L 2268.956219819563 113.63137448921314 L 2268.7419775127028 113.56733841973806 L 2268.529162449736 113.5023370755612 L 2268.317795911991 113.43637695676277 L 2268.107899035946 113.36946465929971 L 2267.8994928111133 113.301606874346 L 2267.692598077942 113.2328103876236 L 2267.487235525733 113.16308207872383 L 2267.2834256905703 113.0924289204195 L 2267.0811889532674 113.02085797796754 L 2266.88054553733 112.94837640840255 L 2266.6815155069316 112.8749914598211 L 2266.4841187649104 112.8007104706569 L 2266.2883750507754 112.72554086894695 L 2266.0943039387353 112.64949017158878 L 2265.9019248357395 112.57256598358876 L 2265.7112569795377 112.49477599730159 L 2265.522319436757 112.41612799166106 L 2265.3351311009937 112.3366298314022 L 2265.149710690926 112.2562894662748 L 2264.96607674844 112.1751149302484 L 2264.7842476367773 112.09311434070896 L 2264.604241538697 112.01029589764713 L 2264.4260764546593 111.92666788283817 L 2264.249770201024 111.84223865901389 L 2264.0753404082698 111.7570166690263 L 2263.9028045192304 111.67101043500338 L 2263.7321797873506 111.58422855749687 L 2263.563483274962 111.4966797146222 L 2263.3967318515747 111.40837266119071 L 2263.2319421921925 111.31931622783415 L 2263.0691307756438 111.22951932012163 L 2262.9083138829346 111.13899091766909 L 2262.749507595621 111.04774007324134 L 2262.5927277941973 110.9557759118468 L 2262.4379901565153 110.86310762982494 L 2262.285310156208 110.76974449392677 L 2262.13470306115 110.67569584038806 L 2261.9861839319237 110.58097107399578 L 2261.839767620319 110.48557966714766 L 2261.695468767845 110.38953115890487 L 2261.5533018042665 110.2928351540382 L 2261.413280946161 110.19550132206757 L 2261.275420195499 110.09753939629505 L 2261.1397333382392 109.99895917283158 L 2261.0062339429555 109.89977050961737 L 2260.874935359475 109.79998332543607 L 2260.7458507175475 109.69960759892295 L 2260.618992925529 109.59865336756702 L 2260.4943746690933 109.4971307267073 L 2260.3720084099623 109.39504982852324 L 2260.25190638466 109.29242088101961 L 2260.1340806032886 109.18925414700563 L 2260.018542848328 109.08555994306874 L 2259.9053046734575 108.98134863854291 L 2259.7943774024 108.87663065447177 L 2259.685772127791 108.77141646256644 L 2259.5794997100666 108.66571658415843 L 2259.4755707763807 108.55954158914753 L 2259.373995719539 108.45290209494473 L 2259.2747846969637 108.3458087654106 L 2259.1779476296733 108.23827230978884 L 2259.083494201295 108.1303034816354 L 2258.991433857092 108.02191307774314 L 2258.9017758030222 107.9131119370621 L 2258.814529004817 107.80391093961568 L 2258.7297021870827 107.69432100541265 L 2258.64730383243 107.58435309335508 L 2258.5673421806273 107.47401820014255 L 2258.4898252277717 107.36332735917243 L 2258.4147607254945 107.25229163943658 L 2258.342156180183 107.14092214441445 L 2258.2720188522317 107.0292300109627 L 2258.2043557553147 106.91722640820164 L 2258.139173655685 106.80492253639821 L 2258.076479071499 106.69232962584596 L 2258.0162782721623 106.57945893574217 L 2257.9585772777045 106.46632175306175 L 2257.9033818581775 106.35292939142872 L 2257.850697533077 106.23929318998472 L 2257.8005295707917 106.12542451225522 L 2257.752882988076 106.0113347450131 L 2257.7077625495485 105.89703529714001 L 2257.665172767215 105.78253759848548 L 2257.6251179000187 105.66785309872397 L 2257.587601953413 105.55299326620987 L 2257.5526286789614 105.43796958683073 L 2257.5202015739615 105.32279356285864 L 2257.4903238810975 105.2074767118 L 2257.4629985881134 105.09203056524383 L 2257.4382284275157 104.97646666770858 L 2257.4160158763 104.8607965754877 L 2257.396363155703 104.74503185549402 L 2257.3792722309804 104.62918408410306 L 2257.36474481121 104.51326484599544 L 2257.352782349122 104.39728573299836 L 2257.3433860409527 104.28125834292646 L 2257.3365568263252 104.16519427842208 L 2257.3322953881548 104.04910514579494 L 2257.330602152582 103.93300255386156" stroke-miterlimit="10" stroke-width="2.990598758" stroke-dasharray=""/></g><g><g/><text fill="black" stroke="none" font-family="sans-serif" font-size="11pt" font-style="normal" font-weight="normal" text-decoration="normal" x="2250.312325909659" y="134.401026536" text-anchor="start" dominant-baseline="alphabetic">Database</text></g></g><g><path fill="white" stroke="black" paint-order="fill stroke markers" d=" M 446.15779172764326 197.73135317599997 L 463.74954912764326 197.73135317599997 L 463.74954912764326 707.892317776 L 446.15779172764326 707.892317776 L 446.15779172764326 197.73135317599997" stroke-miterlimit="10" stroke-width="1.4659797833333332" stroke-dasharray=""/><path fill="white" stroke="black" paint-order="fill stroke markers" d=" M 945.0672958247787 246.98827389599995 L 962.6590532247787 246.98827389599995 L 962.6590532247787 658.635397056 L 945.0672958247787 658.635397056 L 945.0672958247787 246.98827389599995" stroke-miterlimit="10" stroke-width="1.4659797833333332" stroke-dasharray=""/><path fill="white" stroke="black" paint-order="fill stroke markers" d=" M 446.15779172764326 757.1492384960001 L 463.74954912764326 757.1492384960001 L 463.74954912764326 1832.0056156359992 L 446.15779172764326 1832.0056156359992 L 446.15779172764326 757.1492384960001" stroke-miterlimit="10" stroke-width="1.4659797833333332" stroke-dasharray=""/><path fill="white" stroke="black" paint-order="fill stroke markers" d=" M 945.0672958247787 806.4061592160001 L 962.6590532247787 806.4061592160001 L 962.6590532247787 1738.7693014159993 L 945.0672958247787 1738.7693014159993 L 945.0672958247787 806.4061592160001" stroke-miterlimit="10" stroke-width="1.4659797833333332" stroke-dasharray=""/><path fill="white" stroke="black" paint-order="fill stroke markers" d=" M 454.95367042764326 904.9200006560002 L 472.54542782764327 904.9200006560002 L 472.54542782764327 1788.0262221359992 L 454.95367042764326 1788.0262221359992 L 454.95367042764326 904.9200006560002" stroke-miterlimit="10" stroke-width="1.4659797833333332" stroke-dasharray=""/><path fill="white" stroke="black" paint-order="fill stroke markers" d=" M 463.74954912764326 904.9200006560002 L 481.34130652764327 904.9200006560002 L 481.34130652764327 1168.796361656 L 463.74954912764326 1168.796361656 L 463.74954912764326 904.9200006560002" stroke-miterlimit="10" stroke-width="1.4659797833333332" stroke-dasharray=""/><path fill="white" stroke="black" paint-order="fill stroke markers" d=" M 172.75705247679687 904.9200006560002 L 190.34880987679688 904.9200006560002 L 190.34880987679688 1119.5394409360001 L 172.75705247679687 1119.5394409360001 L 172.75705247679687 904.9200006560002" stroke-miterlimit="10" stroke-width="1.4659797833333332" stroke-dasharray=""/><path fill="white" stroke="black" paint-order="fill stroke markers" d=" M 1192.2118247484766 1218.053282376 L 1209.8035821484766 1218.053282376 L 1209.8035821484766 1832.0056156359992 L 1192.2118247484766 1832.0056156359992 L 1192.2118247484766 1218.053282376" stroke-miterlimit="10" stroke-width="1.4659797833333332" stroke-dasharray=""/><path fill="white" stroke="black" paint-order="fill stroke markers" d=" M 2020.0233617674064 1267.310203096 L 2037.6151191674064 1267.310203096 L 2037.6151191674064 1499.5214007759996 L 2020.0233617674064 1499.5214007759996 L 2020.0233617674064 1267.310203096" stroke-miterlimit="10" stroke-width="1.4659797833333332" stroke-dasharray=""/><path fill="white" stroke="black" paint-order="fill stroke markers" d=" M 2028.8192404674064 1334.1588812159998 L 2046.4109978674064 1334.1588812159998 L 2046.4109978674064 1450.2644800559997 L 2028.8192404674064 1450.2644800559997 L 2028.8192404674064 1334.1588812159998" stroke-miterlimit="10" stroke-width="1.4659797833333332" stroke-dasharray=""/><g><g><rect fill="white" stroke="none" x="143.72318055157552" y="174.86206855599997" width="183.60250890945312" height="22.86928462"/></g><text fill="black" stroke="none" font-family="sans-serif" font-size="11pt" font-style="normal" font-weight="normal" text-decoration="normal" x="146.36194416157554" y="190.69465021599999" text-anchor="start" dominant-baseline="alphabetic">selectTime(time : Integer)</text></g><g><path fill="none" stroke="black" paint-order="fill stroke markers" d=" M 24.891078284960937 197.73135317599997 L 443.2258321609766 197.73135317599997" stroke-miterlimit="10" stroke-width="1.4659797833333332" stroke-dasharray=""/><g transform="translate(446.15779172764326,197.73135317599997) translate(-446.15779172764326,-197.73135317599997)"><path fill="black" stroke="none" paint-order="stroke fill markers" d=" M 431.4979938943099 190.4014542593333 L 446.15779172764326 197.73135317599997 L 431.4979938943099 205.06125209266665 Z"/></g></g><g><g><rect fill="white" stroke="none" x="591.6622827675782" y="224.11898927599995" width="225.49227941726562" height="22.86928462"/></g><text fill="black" stroke="none" font-family="sans-serif" font-size="11pt" font-style="normal" font-weight="normal" text-decoration="normal" x="594.3010463775781" y="239.95157093599997" text-anchor="start" dominant-baseline="alphabetic">selectAllBooking(time : Integer)</text></g><g><path fill="none" stroke="black" paint-order="fill stroke markers" d=" M 463.74954912764326 246.98827389599995 L 942.135336258112 246.98827389599995" stroke-miterlimit="10" stroke-width="1.4659797833333332" stroke-dasharray=""/><g transform="translate(945.0672958247787,246.98827389599995) translate(-945.0672958247787,-246.98827389599995)"><path fill="black" stroke="none" paint-order="stroke fill markers" d=" M 930.4074979914454 239.65837497933327 L 945.0672958247787 246.98827389599995 L 930.4074979914454 254.31817281266663 Z"/></g></g><g><g><rect fill="white" stroke="none" x="1296.4142437173443" y="320.87365497599995" width="96.35844457839843" height="22.86928462"/></g><text fill="black" stroke="none" font-family="sans-serif" font-size="11pt" font-style="normal" font-weight="normal" text-decoration="normal" x="1299.0530073273444" y="336.70623663599997" text-anchor="start" dominant-baseline="alphabetic">getBooking()</text></g><g><path fill="none" stroke="black" paint-order="fill stroke markers" d=" M 962.6590532247787 343.7429395959999 L 1723.5959192216421 343.7429395959999" stroke-miterlimit="10" stroke-width="1.4659797833333332" stroke-dasharray=""/><g transform="translate(1726.5278787883087,343.7429395959999) translate(-1726.5278787883087,-343.7429395959999)"><path fill="black" stroke="none" paint-order="stroke fill markers" d=" M 1711.8680809549753 336.4130406793333 L 1726.5278787883087 343.7429395959999 L 1711.8680809549753 351.0728385126666 Z"/></g></g><g><g><rect fill="white" stroke="none" x="1096.2884850119283" y="370.13057569599994" width="80.173767454375" height="22.86928462"/></g><text fill="black" stroke="none" font-family="sans-serif" font-size="11pt" font-style="normal" font-weight="normal" text-decoration="normal" x="1098.9272486219284" y="385.96315735599995" text-anchor="start" dominant-baseline="alphabetic">getRoom()</text></g><g><path fill="none" stroke="black" paint-order="fill stroke markers" d=" M 962.6590532247787 392.9998603159999 L 1307.1597246867866 392.9998603159999" stroke-miterlimit="10" stroke-width="1.4659797833333332" stroke-dasharray=""/><g transform="translate(1310.0916842534532,392.9998603159999) translate(-1310.0916842534532,-392.9998603159999)"><path fill="black" stroke="none" paint-order="stroke fill markers" d=" M 1295.4318864201198 385.66996139933326 L 1310.0916842534532 392.9998603159999 L 1295.4318864201198 400.32975923266656 Z"/></g></g><g><g><rect fill="white" stroke="none" x="983.4759661481121" y="493.2728774959999" width="148.341247923125" height="22.86928462"/></g><text fill="black" stroke="none" font-family="sans-serif" font-size="11pt" font-style="normal" font-weight="normal" text-decoration="normal" x="986.114729758112" y="509.10545915599994" text-anchor="start" dominant-baseline="alphabetic">matchRoomStatus() </text></g><g><path fill="none" stroke="black" paint-order="fill stroke markers" d=" M 962.6590532247787 516.1421621159999 L 1033.0260828247788 516.1421621159999 L 1033.0260828247788 533.7339195159999 L 965.5910127914455 533.7339195159999" stroke-miterlimit="10" stroke-width="1.4659797833333332" stroke-dasharray=""/><g transform="translate(962.6590532247787,533.7339195159999) translate(-962.6590532247787,-533.7339195159999)"><path fill="black" stroke="none" paint-order="stroke fill markers" d=" M 977.318851058112 526.4040205993332 L 962.6590532247787 533.7339195159999 L 977.318851058112 541.0638184326666 Z"/></g></g><g><g><rect fill="white" stroke="none" x="672.0452478554688" y="586.5091917159999" width="64.72634924148437" height="22.86928462"/></g><text fill="black" stroke="none" font-family="sans-serif" font-size="11pt" font-style="normal" font-weight="normal" text-decoration="normal" x="674.6840114654688" y="602.3417733759999" text-anchor="start" dominant-baseline="alphabetic">update()</text></g><g><path fill="none" stroke="black" paint-order="fill stroke markers" d=" M 945.0672958247787 609.378476336 L 466.6815086943099 609.378476336" stroke-miterlimit="10" stroke-width="1.4659797833333332" stroke-dasharray=""/><g transform="translate(463.74954912764326,609.378476336) translate(-463.74954912764326,-609.378476336)"><path fill="black" stroke="none" paint-order="stroke fill markers" d=" M 478.4093469609766 602.0485774193332 L 463.74954912764326 609.378476336 L 478.4093469609766 616.7083752526667 Z"/></g></g><g><g><rect fill="white" stroke="none" x="701.769658866211" y="635.766112436" width="5.27752722" height="22.86928462"/></g><text fill="black" stroke="none" font-family="sans-serif" font-size="11pt" font-style="normal" font-weight="normal" text-decoration="normal" x="704.408422476211" y="651.5986940959999" text-anchor="start" dominant-baseline="alphabetic"></text></g><g><path fill="none" stroke="black" paint-order="fill stroke markers" d=" M 945.0672958247787 658.635397056 L 466.6815086943099 658.635397056" stroke-miterlimit="10" stroke-width="1.4659797833333332" stroke-dasharray="7.0367029599999995"/><g transform="translate(463.74954912764326,658.635397056) translate(-463.74954912764326,-658.635397056)"><path fill="black" stroke="none" paint-order="stroke fill markers" d=" M 478.4093469609766 651.3054981393333 L 463.74954912764326 658.635397056 L 478.4093469609766 665.9652959726667 Z"/></g></g><g><g><rect fill="white" stroke="none" x="232.8856713963021" y="685.023033156" width="5.27752722" height="22.86928462"/></g><text fill="black" stroke="none" font-family="sans-serif" font-size="11pt" font-style="normal" font-weight="normal" text-decoration="normal" x="235.5244350063021" y="700.855614816" text-anchor="start" dominant-baseline="alphabetic"></text></g><g><path fill="none" stroke="black" paint-order="fill stroke markers" d=" M 446.15779172764326 707.892317776 L 27.823037851627603 707.892317776" stroke-miterlimit="10" stroke-width="1.4659797833333332" stroke-dasharray="7.0367029599999995"/><g transform="translate(24.891078284960937,707.892317776) translate(-24.891078284960937,-707.892317776)"><path fill="black" stroke="none" paint-order="stroke fill markers" d=" M 39.55087611829427 700.5624188593333 L 24.891078284960937 707.892317776 L 39.55087611829427 715.2222166926667 Z"/></g></g><g><g><rect fill="white" stroke="none" x="196.06747986798177" y="734.279953876" width="78.91391027664062" height="22.86928462"/></g><text fill="black" stroke="none" font-family="sans-serif" font-size="11pt" font-style="normal" font-weight="normal" text-decoration="normal" x="198.7062434779818" y="750.112535536" text-anchor="start" dominant-baseline="alphabetic">checkout()</text></g><g><path fill="none" stroke="black" paint-order="fill stroke markers" d=" M 24.891078284960937 757.1492384960001 L 443.2258321609766 757.1492384960001" stroke-miterlimit="10" stroke-width="1.4659797833333332" stroke-dasharray=""/><g transform="translate(446.15779172764326,757.1492384960001) translate(-446.15779172764326,-757.1492384960001)"><path fill="black" stroke="none" paint-order="stroke fill markers" d=" M 431.4979938943099 749.8193395793334 L 446.15779172764326 757.1492384960001 L 431.4979938943099 764.4791374126668 Z"/></g></g><g><g><rect fill="white" stroke="none" x="664.9514673378907" y="783.5368745960001" width="78.91391027664062" height="22.86928462"/></g><text fill="black" stroke="none" font-family="sans-serif" font-size="11pt" font-style="normal" font-weight="normal" text-decoration="normal" x="667.5902309478906" y="799.369456256" text-anchor="start" dominant-baseline="alphabetic">checkout()</text></g><g><path fill="none" stroke="black" paint-order="fill stroke markers" d=" M 463.74954912764326 806.4061592160001 L 942.135336258112 806.4061592160001" stroke-miterlimit="10" stroke-width="1.4659797833333332" stroke-dasharray=""/><g transform="translate(945.0672958247787,806.4061592160001) translate(-945.0672958247787,-806.4061592160001)"><path fill="black" stroke="none" paint-order="stroke fill markers" d=" M 930.4074979914454 799.0762602993334 L 945.0672958247787 806.4061592160001 L 930.4074979914454 813.7360581326668 Z"/></g></g><g><g><rect fill="white" stroke="none" x="493.36234075097656" y="832.7937953160001" width="422.0921634504688" height="22.86928462"/></g><text fill="black" stroke="none" font-family="sans-serif" font-size="11pt" font-style="normal" font-weight="normal" text-decoration="normal" x="496.00110436097657" y="848.6263769760001" text-anchor="start" dominant-baseline="alphabetic">CheckOutDialog(nameField: TextField,,roomField: TextField)</text></g><g><path fill="none" stroke="black" paint-order="fill stroke markers" d=" M 945.0672958247787 855.6630799360001 L 466.6815086943099 855.6630799360001" stroke-miterlimit="10" stroke-width="1.4659797833333332" stroke-dasharray=""/><g transform="translate(463.74954912764326,855.6630799360001) translate(-463.74954912764326,-855.6630799360001)"><path fill="black" stroke="none" paint-order="stroke fill markers" d=" M 478.4093469609766 848.3331810193334 L 463.74954912764326 855.6630799360001 L 478.4093469609766 862.9929788526669 Z"/></g></g><g><g><rect fill="white" stroke="none" x="219.96160150013026" y="882.0507160360002" width="214.17515600417968" height="22.86928462"/></g><text fill="black" stroke="none" font-family="sans-serif" font-size="11pt" font-style="normal" font-weight="normal" text-decoration="normal" x="222.60036511013027" y="897.8832976960001" text-anchor="start" dominant-baseline="alphabetic">Alert(comfirmation:AlertType)</text></g><g><path fill="none" stroke="black" paint-order="fill stroke markers" d=" M 463.74954912764326 904.9200006560002 L 193.28076944346356 904.9200006560002" stroke-miterlimit="10" stroke-width="1.4659797833333332" stroke-dasharray=""/><g transform="translate(190.34880987679688,904.9200006560002) translate(-190.34880987679688,-904.9200006560002)"><path fill="black" stroke="none" paint-order="stroke fill markers" d=" M 205.0086077101302 897.5901017393335 L 190.34880987679688 904.9200006560002 L 205.0086077101302 912.2498995726669 Z"/></g></g><g><g><rect fill="white" stroke="none" x="96.18530177087891" y="931.3076367560002" width="5.27752722" height="22.86928462"/></g><text fill="black" stroke="none" font-family="sans-serif" font-size="11pt" font-style="normal" font-weight="normal" text-decoration="normal" x="98.8240653808789" y="947.1402184160002" text-anchor="start" dominant-baseline="alphabetic"></text></g><g><path fill="none" stroke="black" paint-order="fill stroke markers" d=" M 172.75705247679687 954.1769213760002 L 27.823037851627603 954.1769213760002" stroke-miterlimit="10" stroke-width="1.4659797833333332" stroke-dasharray=""/><g transform="translate(24.891078284960937,954.1769213760002) translate(-24.891078284960937,-954.1769213760002)"><path fill="black" stroke="none" paint-order="stroke fill markers" d=" M 39.55087611829427 946.8470224593335 L 24.891078284960937 954.1769213760002 L 39.55087611829427 961.5068202926669 Z"/></g></g><g><g><rect fill="white" stroke="none" x="96.18530177087891" y="980.5645574760002" width="5.27752722" height="22.86928462"/></g><text fill="black" stroke="none" font-family="sans-serif" font-size="11pt" font-style="normal" font-weight="normal" text-decoration="normal" x="98.8240653808789" y="996.3971391360002" text-anchor="start" dominant-baseline="alphabetic"></text></g><g><path fill="none" stroke="black" paint-order="fill stroke markers" d=" M 24.891078284960937 1003.4338420960003 L 169.8250929101302 1003.4338420960003" stroke-miterlimit="10" stroke-width="1.4659797833333332" stroke-dasharray="7.0367029599999995"/><g transform="translate(172.75705247679687,1003.4338420960003) translate(-172.75705247679687,-1003.4338420960003)"><path fill="black" stroke="none" paint-order="stroke fill markers" d=" M 158.09725464346354 996.1039431793336 L 172.75705247679687 1003.4338420960003 L 158.09725464346354 1010.763741012667 Z"/></g></g><path fill="white" stroke="black" paint-order="fill stroke markers" d=" M 42.482835684960946 1029.8214781960003 L 304.7904450086328 1029.8214781960003 L 320.6230266686328 1045.6540598560002 L 320.6230266686328 1070.2825202160002 L 42.482835684960946 1070.2825202160002 L 42.482835684960946 1029.8214781960003 M 304.7904450086328 1029.8214781960003 L 304.7904450086328 1045.6540598560002 L 320.6230266686328 1045.6540598560002" stroke-miterlimit="10" stroke-width="1.4659797833333332" stroke-dasharray=""/><g><text fill="black" stroke="none" font-family="sans-serif" font-size="11pt" font-style="normal" font-weight="normal" text-decoration="normal" x="67.11129604496094" y="1054.449938556" text-anchor="start" dominant-baseline="alphabetic">user change status and press OK</text></g><g><g><rect fill="white" stroke="none" x="286.5149385972982" y="1096.6701563160002" width="81.06848180984375" height="22.86928462"/></g><text fill="black" stroke="none" font-family="sans-serif" font-size="11pt" font-style="normal" font-weight="normal" text-decoration="normal" x="289.15370220729824" y="1112.5027379760002" text-anchor="start" dominant-baseline="alphabetic">return true</text></g><g><path fill="none" stroke="black" paint-order="fill stroke markers" d=" M 190.34880987679688 1119.5394409360001 L 460.8175895609766 1119.5394409360001" stroke-miterlimit="10" stroke-width="1.4659797833333332" stroke-dasharray="7.0367029599999995"/><g transform="translate(463.74954912764326,1119.5394409360001) translate(-463.74954912764326,-1119.5394409360001)"><path fill="black" stroke="none" paint-order="stroke fill markers" d=" M 449.0897512943099 1112.2095420193334 L 463.74954912764326 1119.5394409360001 L 449.0897512943099 1126.8693398526668 Z"/></g></g><g><g><rect fill="white" stroke="none" x="672.6700602712891" y="1145.9270770360001" width="81.06848180984375" height="22.86928462"/></g><text fill="black" stroke="none" font-family="sans-serif" font-size="11pt" font-style="normal" font-weight="normal" text-decoration="normal" x="675.3088238812891" y="1161.759658696" text-anchor="start" dominant-baseline="alphabetic">return true</text></g><g><path fill="none" stroke="black" paint-order="fill stroke markers" d=" M 481.34130652764327 1168.796361656 L 942.135336258112 1168.796361656" stroke-miterlimit="10" stroke-width="1.4659797833333332" stroke-dasharray="7.0367029599999995"/><g transform="translate(945.0672958247787,1168.796361656) translate(-945.0672958247787,-1168.796361656)"><path fill="black" stroke="none" paint-order="stroke fill markers" d=" M 930.4074979914454 1161.4664627393333 L 945.0672958247787 1168.796361656 L 930.4074979914454 1176.1262605726668 Z"/></g></g><g><g><rect fill="white" stroke="none" x="983.475966148112" y="1195.183997756" width="187.91894567703125" height="22.86928462"/></g><text fill="black" stroke="none" font-family="sans-serif" font-size="11pt" font-style="normal" font-weight="normal" text-decoration="normal" x="986.1147297581119" y="1211.016579416" text-anchor="start" dominant-baseline="alphabetic">deleteBooking(b:Booking)</text></g><g><path fill="none" stroke="black" paint-order="fill stroke markers" d=" M 962.6590532247787 1218.053282376 L 1189.27986518181 1218.053282376" stroke-miterlimit="10" stroke-width="1.4659797833333332" stroke-dasharray=""/><g transform="translate(1192.2118247484766,1218.053282376) translate(-1192.2118247484766,-1218.053282376)"><path fill="black" stroke="none" paint-order="stroke fill markers" d=" M 1177.5520269151432 1210.7233834593333 L 1192.2118247484766 1218.053282376 L 1177.5520269151432 1225.3831812926667 Z"/></g></g><g><g><rect fill="white" stroke="none" x="1520.9539991194258" y="1244.440918476" width="187.91894567703125" height="22.86928462"/></g><text fill="black" stroke="none" font-family="sans-serif" font-size="11pt" font-style="normal" font-weight="normal" text-decoration="normal" x="1523.5927627294259" y="1260.273500136" text-anchor="start" dominant-baseline="alphabetic">deleteBooking(b:Booking)</text></g><g><path fill="none" stroke="black" paint-order="fill stroke markers" d=" M 1209.8035821484766 1267.310203096 L 2017.0914022007398 1267.310203096" stroke-miterlimit="10" stroke-width="1.4659797833333332" stroke-dasharray=""/><g transform="translate(2020.0233617674064,1267.310203096) translate(-2020.0233617674064,-1267.310203096)"><path fill="black" stroke="none" paint-order="stroke fill markers" d=" M 2005.363563934073 1259.9803041793332 L 2020.0233617674064 1267.310203096 L 2005.363563934073 1274.6401020126666 Z"/></g></g><g><g><rect fill="white" stroke="none" x="2067.2279107907398" y="1293.697839196" width="197.75424230789062" height="22.86928462"/></g><text fill="black" stroke="none" font-family="sans-serif" font-size="11pt" font-style="normal" font-weight="normal" text-decoration="normal" x="2069.8666744007396" y="1309.5304208559999" text-anchor="start" dominant-baseline="alphabetic">performUpdate(sql : String)</text></g><g><path fill="none" stroke="black" paint-order="fill stroke markers" d=" M 2037.6151191674064 1316.5671238159998 L 2116.7780274674064 1316.5671238159998 L 2116.7780274674064 1334.1588812159998 L 2049.342957434073 1334.1588812159998" stroke-miterlimit="10" stroke-width="1.4659797833333332" stroke-dasharray=""/><g transform="translate(2046.4109978674064,1334.1588812159998) translate(-2046.4109978674064,-1334.1588812159998)"><path fill="black" stroke="none" paint-order="stroke fill markers" d=" M 2061.07079570074 1326.8289822993331 L 2046.4109978674064 1334.1588812159998 L 2061.07079570074 1341.4887801326665 Z"/></g></g><g><g><rect fill="white" stroke="none" x="2067.2279107907398" y="1360.5465173159998" width="194.96971166824218" height="22.86928462"/></g><text fill="black" stroke="none" font-family="sans-serif" font-size="11pt" font-style="normal" font-weight="normal" text-decoration="normal" x="2069.8666744007396" y="1376.3790989759998" text-anchor="start" dominant-baseline="alphabetic">executeUpdate(sql : String)</text></g><g><path fill="none" stroke="black" paint-order="fill stroke markers" d=" M 2046.4109978674064 1383.4158019359998 L 2280.082575815649 1383.4158019359998" stroke-miterlimit="10" stroke-width="1.4659797833333332" stroke-dasharray=""/><g transform="translate(2283.0145353823154,1383.4158019359998) translate(-2283.0145353823154,-1383.4158019359998)"><path fill="black" stroke="none" paint-order="stroke fill markers" d=" M 2268.354737548982 1376.085903019333 L 2283.0145353823154 1383.4158019359998 L 2268.354737548982 1390.7457008526665 Z"/></g></g><g><g><rect fill="white" stroke="none" x="2067.2279107907398" y="1409.8034380359998" width="5.27752722" height="22.86928462"/></g><text fill="black" stroke="none" font-family="sans-serif" font-size="11pt" font-style="normal" font-weight="normal" text-decoration="normal" x="2069.8666744007396" y="1425.6360196959997" text-anchor="start" dominant-baseline="alphabetic"></text></g><g><path fill="none" stroke="black" paint-order="fill stroke markers" d=" M 2046.4109978674064 1432.6727226559997 L 2116.7780274674064 1432.6727226559997 L 2116.7780274674064 1450.2644800559997 L 2049.342957434073 1450.2644800559997" stroke-miterlimit="10" stroke-width="1.4659797833333332" stroke-dasharray="7.0367029599999995"/><g transform="translate(2046.4109978674064,1450.2644800559997) translate(-2046.4109978674064,-1450.2644800559997)"><path fill="black" stroke="none" paint-order="stroke fill markers" d=" M 2061.07079570074 1442.934581139333 L 2046.4109978674064 1450.2644800559997 L 2061.07079570074 1457.5943789726664 Z"/></g></g><g><g><rect fill="white" stroke="none" x="1612.2747083479414" y="1476.6521161559997" width="5.27752722" height="22.86928462"/></g><text fill="black" stroke="none" font-family="sans-serif" font-size="11pt" font-style="normal" font-weight="normal" text-decoration="normal" x="1614.9134719579415" y="1492.4846978159997" text-anchor="start" dominant-baseline="alphabetic"></text></g><g><path fill="none" stroke="black" paint-order="fill stroke markers" d=" M 2020.0233617674064 1499.5214007759996 L 1212.7355417151432 1499.5214007759996" stroke-miterlimit="10" stroke-width="1.4659797833333332" stroke-dasharray="7.0367029599999995"/><g transform="translate(1209.8035821484766,1499.5214007759996) translate(-1209.8035821484766,-1499.5214007759996)"><path fill="black" stroke="none" paint-order="stroke fill markers" d=" M 1224.46337998181 1492.191501859333 L 1209.8035821484766 1499.5214007759996 L 1224.46337998181 1506.8512996926663 Z"/></g></g><g><g><rect fill="white" stroke="none" x="1074.7966753766275" y="1525.9090368759996" width="5.27752722" height="22.86928462"/></g><text fill="black" stroke="none" font-family="sans-serif" font-size="11pt" font-style="normal" font-weight="normal" text-decoration="normal" x="1077.4354389866276" y="1541.7416185359996" text-anchor="start" dominant-baseline="alphabetic"></text></g><g><path fill="none" stroke="black" paint-order="fill stroke markers" d=" M 1192.2118247484766 1548.7783214959995 L 965.5910127914455 1548.7783214959995" stroke-miterlimit="10" stroke-width="1.4659797833333332" stroke-dasharray="7.0367029599999995"/><g transform="translate(962.6590532247787,1548.7783214959995) translate(-962.6590532247787,-1548.7783214959995)"><path fill="black" stroke="none" paint-order="stroke fill markers" d=" M 977.318851058112 1541.4484225793328 L 962.6590532247787 1548.7783214959995 L 977.318851058112 1556.1082204126662 Z"/></g></g><g><g><rect fill="white" stroke="none" x="983.4759661481121" y="1622.6637025759994" width="183.75277746414062" height="22.86928462"/></g><text fill="black" stroke="none" font-family="sans-serif" font-size="11pt" font-style="normal" font-weight="normal" text-decoration="normal" x="986.114729758112" y="1638.4962842359994" text-anchor="start" dominant-baseline="alphabetic">refreshRoomStatus()        </text></g><g><path fill="none" stroke="black" paint-order="fill stroke markers" d=" M 962.6590532247787 1645.5329871959993 L 1033.0260828247788 1645.5329871959993 L 1033.0260828247788 1663.1247445959993 L 965.5910127914455 1663.1247445959993" stroke-miterlimit="10" stroke-width="1.4659797833333332" stroke-dasharray=""/><g transform="translate(962.6590532247787,1663.1247445959993) translate(-962.6590532247787,-1663.1247445959993)"><path fill="black" stroke="none" paint-order="stroke fill markers" d=" M 977.318851058112 1655.7948456793326 L 962.6590532247787 1663.1247445959993 L 977.318851058112 1670.454643512666 Z"/></g></g><g><g><rect fill="white" stroke="none" x="706.1675982162111" y="1715.9000167959994" width="5.27752722" height="22.86928462"/></g><text fill="black" stroke="none" font-family="sans-serif" font-size="11pt" font-style="normal" font-weight="normal" text-decoration="normal" x="708.8063618262111" y="1731.7325984559993" text-anchor="start" dominant-baseline="alphabetic"></text></g><g><path fill="none" stroke="black" paint-order="fill stroke markers" d=" M 945.0672958247787 1738.7693014159993 L 475.4773873943099 1738.7693014159993" stroke-miterlimit="10" stroke-width="1.4659797833333332" stroke-dasharray="7.0367029599999995"/><g transform="translate(472.54542782764327,1738.7693014159993) translate(-472.54542782764327,-1738.7693014159993)"><path fill="black" stroke="none" paint-order="stroke fill markers" d=" M 487.2052256609766 1731.4394024993326 L 472.54542782764327 1738.7693014159993 L 487.2052256609766 1746.099200332666 Z"/></g></g><g><g><rect fill="white" stroke="none" x="237.2836107463021" y="1765.1569375159993" width="5.27752722" height="22.86928462"/></g><text fill="black" stroke="none" font-family="sans-serif" font-size="11pt" font-style="normal" font-weight="normal" text-decoration="normal" x="239.9223743563021" y="1780.9895191759992" text-anchor="start" dominant-baseline="alphabetic"></text></g><g><path fill="none" stroke="black" paint-order="fill stroke markers" d=" M 454.95367042764326 1788.0262221359992 L 27.823037851627603 1788.0262221359992" stroke-miterlimit="10" stroke-width="1.4659797833333332" stroke-dasharray="7.0367029599999995"/><g transform="translate(24.891078284960937,1788.0262221359992) translate(-24.891078284960937,-1788.0262221359992)"><path fill="black" stroke="none" paint-order="stroke fill markers" d=" M 39.55087611829427 1780.6963232193325 L 24.891078284960937 1788.0262221359992 L 39.55087611829427 1795.356121052666 Z"/></g></g><g><g/><path fill="none" stroke="black" paint-order="fill stroke markers" d=" M 892.2920236247787 273.37590999599996 L 1788.0990296883087 273.37590999599996 L 1788.0990296883087 419.3874964159999 L 892.2920236247787 419.3874964159999 L 892.2920236247787 273.37590999599996 Z" stroke-miterlimit="10" stroke-width="2.5131082" stroke-dasharray=""/><path fill="white" stroke="black" paint-order="fill stroke markers" d=" M 892.2920236247787 273.37590999599996 L 892.2920236247787 294.48601887599995 L 954.1773053925522 294.48601887599995 L 964.7323598325522 283.93096443599995 L 964.7323598325522 273.37590999599996 L 892.2920236247787 273.37590999599996" stroke-miterlimit="10" stroke-width="2.5131082" stroke-dasharray=""/><text fill="black" stroke="none" font-family="sans-serif" font-size="8.8pt" font-style="normal" font-weight="bold" text-decoration="normal" x="909.8837810247787" y="287.44931591599993" text-anchor="start" dominant-baseline="alphabetic">loop</text><text fill="black" stroke="none" font-family="sans-serif" font-size="8.8pt" font-style="normal" font-weight="bold" text-decoration="normal" x="982.3241172325522" y="287.44931591599993" text-anchor="start" dominant-baseline="alphabetic">[for each current Booking and current Room]</text></g><g><g/><path fill="none" stroke="black" paint-order="fill stroke markers" d=" M 892.2920236247787 445.7751325159999 L 1137.9743291612372 445.7751325159999 L 1137.9743291612372 560.1215556159999 L 892.2920236247787 560.1215556159999 L 892.2920236247787 445.7751325159999 Z" stroke-miterlimit="10" stroke-width="2.5131082" stroke-dasharray=""/><path fill="white" stroke="black" paint-order="fill stroke markers" d=" M 892.2920236247787 445.7751325159999 L 892.2920236247787 466.8852413959999 L 1004.9633466523178 466.8852413959999 L 1015.5184010923178 456.3301869559999 L 1015.5184010923178 445.7751325159999 L 892.2920236247787 445.7751325159999" stroke-miterlimit="10" stroke-width="2.5131082" stroke-dasharray=""/><text fill="black" stroke="none" font-family="sans-serif" font-size="8.8pt" font-style="normal" font-weight="bold" text-decoration="normal" x="909.8837810247787" y="459.8485384359999" text-anchor="start" dominant-baseline="alphabetic">expandable−</text><text fill="black" stroke="none" font-family="sans-serif" font-size="8.8pt" font-style="normal" font-weight="bold" text-decoration="normal" x="1033.1101584923179" y="459.8485384359999" text-anchor="start" dominant-baseline="alphabetic">[see 12 - Display Checked-in Room BCE]</text></g><g><g/><path fill="none" stroke="black" paint-order="fill stroke markers" d=" M 892.2920236247787 1575.1659575959993 L 1173.3858587022528 1575.1659575959993 L 1173.3858587022528 1689.5123806959994 L 892.2920236247787 1689.5123806959994 L 892.2920236247787 1575.1659575959993 Z" stroke-miterlimit="10" stroke-width="2.5131082" stroke-dasharray=""/><path fill="white" stroke="black" paint-order="fill stroke markers" d=" M 892.2920236247787 1575.1659575959993 L 892.2920236247787 1596.2760664759994 L 1004.9633466523178 1596.2760664759994 L 1015.5184010923178 1585.7210120359994 L 1015.5184010923178 1575.1659575959993 L 892.2920236247787 1575.1659575959993" stroke-miterlimit="10" stroke-width="2.5131082" stroke-dasharray=""/><text fill="black" stroke="none" font-family="sans-serif" font-size="8.8pt" font-style="normal" font-weight="bold" text-decoration="normal" x="909.8837810247787" y="1589.2393635159995" text-anchor="start" dominant-baseline="alphabetic">expandable−</text><text fill="black" stroke="none" font-family="sans-serif" font-size="8.8pt" font-style="normal" font-weight="bold" text-decoration="normal" x="1033.1101584923179" y="1589.2393635159995" text-anchor="start" dominant-baseline="alphabetic">[see 09 - Display All Room Status BCE]</text></g></g><g/><g/><g/><g/><g/><g/><g/><g/><g/><g/><g/><g/></g></svg>