<svg version="1.1" xmlns="http://www.w3.org/2000/svg" xmlns:xlink="http://www.w3.org/1999/xlink" width="2125" height="1789"><defs/><g><g/><g/><g/><g/><g/><g/><g/><g/><g/><g/><g/><g/><g/><g/><g/><g/><g/><g/><g/><g/><g/><g/><g/><g/><g/><g/><g/><g/><g><rect fill="white" stroke="none" x="0" y="0" width="2125" height="1789"/></g><g><text fill="black" stroke="none" font-family="sans-serif" font-size="16.5pt" font-style="normal" font-weight="normal" text-decoration="normal" x="891.1568768988823" y="26.3876361" text-anchor="start" dominant-baseline="alphabetic">Display Checked-in Room Status</text></g><g/><g><path fill="none" stroke="black" paint-order="fill stroke markers" d=" M 24.891078284960937 139.67855375599999 L 24.891078284960937 1789.363195698399" stroke-miterlimit="10" stroke-width="1.4659797833333332" stroke-dasharray="13.532121076923076,5.863919133333333"/><path fill="none" stroke="black" paint-order="fill stroke markers" d=" M 251.3857093436198 139.67855375599999 L 251.3857093436198 1789.363195698399" stroke-miterlimit="10" stroke-width="1.4659797833333332" stroke-dasharray="13.532121076923076,5.863919133333333"/><path fill="none" stroke="black" paint-order="fill stroke markers" d=" M 500.80495302688803 139.67855375599999 L 500.80495302688803 1789.363195698399" stroke-miterlimit="10" stroke-width="1.4659797833333332" stroke-dasharray="13.532121076923076,5.863919133333333"/><path fill="none" stroke="black" paint-order="fill stroke markers" d=" M 793.4796548779298 139.67855375599999 L 793.4796548779298 1789.363195698399" stroke-miterlimit="10" stroke-width="1.4659797833333332" stroke-dasharray="13.532121076923076,5.863919133333333"/><path fill="none" stroke="black" paint-order="fill stroke markers" d=" M 1068.5625993289714 139.67855375599999 L 1068.5625993289714 1789.363195698399" stroke-miterlimit="10" stroke-width="1.4659797833333332" stroke-dasharray="13.532121076923076,5.863919133333333"/><path fill="none" stroke="black" paint-order="fill stroke markers" d=" M 1373.661417399349 139.67855375599999 L 1373.661417399349 1789.363195698399" stroke-miterlimit="10" stroke-width="1.4659797833333332" stroke-dasharray="13.532121076923076,5.863919133333333"/><path fill="none" stroke="black" paint-order="fill stroke markers" d=" M 1539.4988749662357 139.67855375599999 L 1539.4988749662357 1789.363195698399" stroke-miterlimit="10" stroke-width="1.4659797833333332" stroke-dasharray="13.532121076923076,5.863919133333333"/><path fill="none" stroke="black" paint-order="fill stroke markers" d=" M 1672.9252679711146 139.67855375599999 L 1672.9252679711146 1789.363195698399" stroke-miterlimit="10" stroke-width="1.4659797833333332" stroke-dasharray="13.532121076923076,5.863919133333333"/><path fill="none" stroke="black" paint-order="fill stroke markers" d=" M 1892.4901112364362 647.8692415271998 L 1892.4901112364362 1789.363195698399" stroke-miterlimit="10" stroke-width="1.4659797833333332" stroke-dasharray="13.532121076923076,5.863919133333333"/><path fill="none" stroke="black" paint-order="fill stroke markers" d=" M 2031.9036230920026 1025.8809245384 L 2031.9036230920026 1789.363195698399" stroke-miterlimit="10" stroke-width="1.4659797833333332" stroke-dasharray="13.532121076923076,5.863919133333333"/></g><g><g><path fill="white" stroke="black" paint-order="fill stroke markers" d=" M 34.91838000296094 65.265419954 A 10.027301717999999 10.027301717999999 0 1 1 34.91837498931049 65.25539265395321 M 24.891078284960937 75.29272167199998 L 24.891078284960937 96.75466569999998 M 12.225012956960938 83.033094928 L 37.557143612960935 83.033094928 M 24.891078284960937 96.75466569999998 L 12.225012956960938 116.80926913599998 M 24.891078284960937 96.75466569999998 L 37.557143612960935 116.80926913599998" stroke-miterlimit="10" stroke-width="2.990598758" stroke-dasharray=""/></g><g><g/><text fill="black" stroke="none" font-family="sans-serif" font-size="11pt" font-style="normal" font-weight="normal" text-decoration="normal" x="8.7958787" y="134.401026536" text-anchor="start" dominant-baseline="alphabetic">Staff</text></g><g><path fill="white" stroke="black" paint-order="fill stroke markers" d=" M 286.3053477826198 89.19021001799997 A 26.123759739 26.123759739 0 1 1 286.30533472074103 89.16408626261492 M 217.96137028361977 61.57115089999997 L 217.96137028361977 116.80926913599997 M 216.46607090461978 89.19021001799997 L 234.0578283046198 89.19021001799997" stroke-miterlimit="10" stroke-width="2.990598758" stroke-dasharray=""/></g><g><g/><text fill="black" stroke="none" font-family="sans-serif" font-size="11pt" font-style="normal" font-weight="normal" text-decoration="normal" x="227.66344982213542" y="134.401026536" text-anchor="start" dominant-baseline="alphabetic">StaffUI</text></g><g><path fill="white" stroke="black" paint-order="fill stroke markers" d=" M 526.928712765888 89.19021001799997 A 26.123759739 26.123759739 0 1 1 526.9286997040092 89.16408626261492 M 497.28660154688805 63.06645027899997 L 507.84165598688804 54.27057157899998 M 497.28660154688805 63.06645027899997 L 507.84165598688804 71.86232897899997" stroke-miterlimit="10" stroke-width="2.990598758" stroke-dasharray=""/></g><g><g/><text fill="black" stroke="none" font-family="sans-serif" font-size="11pt" font-style="normal" font-weight="normal" text-decoration="normal" x="446.47781221878256" y="134.401026536" text-anchor="start" dominant-baseline="alphabetic">BookingSystem</text></g><path fill="none" stroke="none"/><g><path fill="white" stroke="black" paint-order="fill stroke markers" d=" M 755.2229432527383 92.18080877599999 L 831.7363665031212 92.18080877599999 L 831.7363665031212 139.67855375599999 L 755.2229432527383 139.67855375599999 L 755.2229432527383 92.18080877599999 Z" stroke-miterlimit="10" stroke-width="2.814681184" stroke-dasharray=""/></g><g><g/><text fill="black" stroke="none" font-family="sans-serif" font-size="11pt" font-style="normal" font-weight="normal" text-decoration="normal" x="774.3100000317384" y="122.08679635600001" text-anchor="start" dominant-baseline="alphabetic">Hotel</text></g><path fill="none" stroke="none"/><g><path fill="white" stroke="black" paint-order="fill stroke markers" d=" M 992.8756814049518 92.18080877599999 L 1144.249517252991 92.18080877599999 L 1144.249517252991 139.67855375599999 L 992.8756814049518 139.67855375599999 L 992.8756814049518 92.18080877599999 Z" stroke-miterlimit="10" stroke-width="2.814681184" stroke-dasharray=""/></g><g><g/><text fill="black" stroke="none" font-family="sans-serif" font-size="11pt" font-style="normal" font-weight="normal" text-decoration="normal" x="1011.9627381839518" y="122.08679635600001" text-anchor="start" dominant-baseline="alphabetic">BookingMapper</text></g><path fill="none" stroke="none"/><g><path fill="white" stroke="black" paint-order="fill stroke markers" d=" M 1306.066838037341 92.18080877599999 L 1441.2559967613568 92.18080877599999 L 1441.2559967613568 139.67855375599999 L 1306.066838037341 139.67855375599999 L 1306.066838037341 92.18080877599999 Z" stroke-miterlimit="10" stroke-width="2.814681184" stroke-dasharray=""/></g><g><g/><text fill="black" stroke="none" font-family="sans-serif" font-size="11pt" font-style="normal" font-weight="normal" text-decoration="normal" x="1325.153894816341" y="122.08679635600001" text-anchor="start" dominant-baseline="alphabetic">RoomMapper</text></g><path fill="none" stroke="none"/><g><path fill="white" stroke="black" paint-order="fill stroke markers" d=" M 1458.8477541613568 92.18080877599999 L 1620.1499957711146 92.18080877599999 L 1620.1499957711146 139.67855375599999 L 1458.8477541613568 139.67855375599999 L 1458.8477541613568 92.18080877599999 Z" stroke-miterlimit="10" stroke-width="2.814681184" stroke-dasharray=""/></g><g><g/><text fill="black" stroke="none" font-family="sans-serif" font-size="11pt" font-style="normal" font-weight="normal" text-decoration="normal" x="1477.9348109403568" y="122.08679635600001" text-anchor="start" dominant-baseline="alphabetic">CustomerMapper</text></g><g><path fill="white" stroke="black" paint-order="fill stroke markers" d=" M 1647.2413021671146 105.19870925199999 L 1647.2413021671146 68.25601871199999 L 1698.6092337751147 68.25601871199999 L 1698.6092337751147 105.19870925199999" stroke-miterlimit="10" stroke-width="2.990598758" stroke-dasharray=""/><path fill="white" stroke="black" paint-order="fill stroke markers" d=" M 1698.6092337751147 66.97182042179999 L 1698.607949587526 67.08792408555635 L 1698.604097153178 67.20401613904309 L 1698.5976768573107 67.3200849731516 L 1698.5886893419483 67.43611898109519 L 1698.577135505835 67.55210655956978 L 1698.5630165043447 67.66803610991414 L 1698.5463337493659 67.78389603926989 L 1698.52708890916 67.8996747617406 L 1698.505283908195 68.01536069955054 L 1698.480920926953 68.1309422842023 L 1698.4540024017117 68.24640795763378 L 1698.4245310243011 68.3617461733738 L 1698.3925097418348 68.47694539769695 L 1698.3579417564138 68.59199411077678 L 1698.3208305248081 68.70688080783783 L 1698.28117975811 68.82159400030618 L 1698.2389934213631 68.93612221695814 L 1698.1942757331658 69.0504540050675 L 1698.1470311652497 69.16457793155072 L 1698.0972644420324 69.27848258411025 L 1698.0449805401445 69.39215657237577 L 1697.9901846879327 69.50558852904317 L 1697.9328823649366 69.61876711101131 L 1697.8730793013408 69.73168100051632 L 1697.8107814774016 69.84431890626333 L 1697.7459951228498 69.95666956455563 L 1697.6787267162665 70.06872174042103 L 1697.6089829844368 70.18046422873529 L 1697.5367709016753 70.29188585534273 L 1697.4620976891301 70.40297547817353 L 1697.3849708140606 70.51372198835797 L 1697.3053979890897 70.62411431133734 L 1697.2233871714338 70.73414140797132 L 1697.1389465621062 70.84379227564195 L 1697.0520846050974 70.95305594935381 L 1696.9628099865308 71.06192150283061 L 1696.871131633794 71.1703780496077 L 1696.7770587146458 71.27841474412082 L 1696.6806006362997 71.38602078279051 L 1696.581767044483 71.4931854051026 L 1696.4805678224727 71.59989789468413 L 1696.3770130901066 71.7061475803751 L 1696.2711132027716 71.81192383729548 L 1696.1628787503682 71.9172160879077 L 1696.0523205562517 72.02201380307447 L 1695.939449676149 72.12630650311159 L 1695.8242773970542 72.23008375883597 L 1695.7068152360994 72.33333519260853 L 1695.5870749394026 72.43605047937191 L 1695.4650684808937 72.53821934768304 L 1695.3408080611168 72.63983158074024 L 1695.2143061060108 72.74087701740487 L 1695.085575265665 72.84134555321748 L 1694.954628413057 72.94122714140819 L 1694.8214786427625 73.04051179390143 L 1694.6861392696474 73.13918958231469 L 1694.5486238275366 73.23725063895135 L 1694.4089460678595 73.33468515778748 L 1694.2671199582758 73.43148339545236 L 1694.1231596812781 73.52763567220293 L 1693.9770796327743 73.6231323728916 L 1693.8288944206474 73.71796394792793 L 1693.6786188632952 73.8121209142334 L 1693.5262679881482 73.90559385618985 L 1693.371857030167 73.998373426581 L 1693.2154014303187 74.09045034752711 L 1693.0569168340326 74.18181541141281 L 1692.8964190896368 74.27245948180787 L 1692.7339242467715 74.36237349438078 L 1692.569448554786 74.45154845780519 L 1692.4030084611122 74.53997545465909 L 1692.2346206096206 74.62764564231648 L 1692.0643018389565 74.71455025383165 L 1691.8920691808546 74.80068059881587 L 1691.7179398584374 74.88602806430642 L 1691.5419312844917 74.97058411562787 L 1691.3640610597288 75.05434029724555 L 1691.1843469710227 75.13728823361109 L 1691.0028069896323 75.21941962999999 L 1690.8194592694047 75.30072627334106 L 1690.6343221449588 75.38120003303769 L 1690.4474141298533 75.46083286178099 L 1690.2587539147335 75.53961679635444 L 1690.068360365464 75.61754395843025 L 1689.8762525212408 75.69460655535714 L 1689.6824495926885 75.77079688093964 L 1689.4869709599382 75.84610731620869 L 1689.2898361706905 75.9205303301835 L 1689.0910649382597 75.99405848062472 L 1688.890677139604 76.06668441477855 L 1688.6886928133356 76.13840087011211 L 1688.4851321577191 76.20920067503964 L 1688.2800155286507 76.27907674963963 L 1688.073363437622 76.34802210636286 L 1687.8651965496701 76.4160298507311 L 1687.65553568131 76.48309318202661 L 1687.4444017984545 76.54920539397213 L 1687.2318160143152 76.61435987540155 L 1687.0177995872937 76.67855011092104 L 1686.8023739188543 76.74176968156053 L 1686.5855605513843 76.80401226541565 L 1686.3673811660399 76.86527163827986 L 1686.1478575805777 76.92554167426694 L 1685.9270117471733 76.98481634642351 L 1685.7048657502262 77.04308972733178 L 1685.4814418041508 77.10035598970217 L 1685.2567622511554 77.15660940695618 L 1685.0308495590082 77.21184435379898 L 1684.8037263187903 77.26605530678191 L 1684.5754152426362 77.31923684485484 L 1684.3459391614633 77.37138364990828 L 1684.1153210226887 77.42249050730518 L 1683.883583887934 77.4725523064024 L 1683.6507509307194 77.52156404106174 L 1683.4168454341468 77.56952081015058 L 1683.1818907885709 77.61641781803196 L 1682.9459104892603 77.6622503750442 L 1682.7089281340484 77.70701389796976 L 1682.4709674209732 77.75070391049368 L 1682.2320521459078 77.7933160436511 L 1681.9922062001804 77.83484603626422 L 1681.751453568186 77.87528973536838 L 1681.509818324987 77.91464309662739 L 1681.2673246339064 77.9529021847379 L 1681.0239967441112 77.99006317382297 L 1680.7798589881877 78.02612234781469 L 1680.5349357797077 78.0610761008257 L 1680.2892516107884 78.09492093750981 L 1680.0428310496418 78.12765347341158 L 1679.7956987381185 78.15927043530469 L 1679.547879389244 78.18976866151928 L 1679.2993977847464 78.21914510225817 L 1679.0502787725793 78.24739681990175 L 1678.800547264436 78.27452098930179 L 1678.5502282332595 78.30051489806398 L 1678.2993467107444 78.32537594681908 L 1678.0479277848335 78.34910164948295 L 1677.7959965972104 78.37168963350508 L 1677.5435783407834 78.39313764010592 L 1677.290698257168 78.41344352450264 L 1677.0373816341619 78.43260525612375 L 1676.783653803216 78.45062091881205 L 1676.5295401369026 78.46748871101629 L 1676.275066046376 78.48320694597129 L 1676.0202569788335 78.49777405186667 L 1675.765138414969 78.51118857200397 L 1675.509735866427 78.52344916494236 L 1675.254074873249 78.53455460463276 L 1674.9981810013217 78.54450378054045 L 1674.7420798398186 78.55329569775614 L 1674.4857969986426 78.56092947709544 L 1674.2293581058643 78.56740435518677 L 1673.9727888051593 78.57271968454769 L 1673.716114753244 78.57687493364975 L 1673.4593616173092 78.57986968697145 L 1673.2025550724552 78.58170364504 L 1672.945720799122 78.58237662446106 L 1672.6888844805228 78.58188855793732 L 1672.432071800076 78.58023949427498 L 1672.1753084388351 78.57742959837903 L 1671.9186200729225 78.57345915123673 L 1671.662032370961 78.56832854988951 L 1671.4055709915067 78.56203830739318 L 1671.149261580484 78.5545890527668 L 1670.8931297686204 78.54598153092958 L 1670.6372011688836 78.53621660262655 L 1670.3815013739202 78.5252952443424 L 1670.1260559534967 78.51321854820387 L 1669.8708904519424 78.4999877218705 L 1669.6160303855947 78.48560408841388 L 1669.361501240248 78.4700690861854 L 1669.1073284686042 78.45338426867232 L 1668.8535374877292 78.4355513043425 L 1668.6001536765095 78.41657197647748 L 1668.3472023731151 78.39644818299428 L 1668.0947088724654 78.37518193625543 L 1667.8426984237 78.35277536286792 L 1667.591196227654 78.32923070347039 L 1667.3402274343375 78.30455031250918 L 1667.08981714042 78.2787366580028 L 1666.8399903867232 78.2517923212952 L 1666.5907721557135 78.2237199967976 L 1666.3421873690068 78.19452249171906 L 1666.0942608848743 78.16420272578573 L 1665.8470174957579 78.13276373094897 L 1665.6004819257905 78.10020865108203 L 1665.3546788283238 78.0665407416658 L 1665.1096327834625 78.03176336946316 L 1664.865368295607 77.99588001218234 L 1664.6219097910025 77.95889425812916 L 1664.3792816152963 77.92080980584822 L 1664.1375080311043 77.881630463753 L 1663.8966132155833 77.84136014974506 L 1663.6566212580137 77.80000289082224 L 1663.4175561573918 77.75756282267598 L 1663.1794418200282 77.71404418927773 L 1662.942302057158 77.66945134245454 L 1662.7061605825604 77.62378874145395 L 1662.4710410101857 77.57706095249802 L 1662.236966851795 77.52927264832667 L 1662.0039615146095 77.48042860773052 L 1661.7720482989687 77.43053371507293 L 1661.5412503960006 77.37959295980157 L 1661.3115908853035 77.32761143594954 L 1661.083092732637 77.27459434162587 L 1660.8557787876257 77.22054697849586 L 1660.629671781475 77.16547475125074 L 1660.404794324697 77.10938316706736 L 1660.1811689048498 77.0522778350574 L 1659.9588178842894 76.99416446570646 L 1659.737763497932 76.93504887030305 L 1659.5180278510327 76.87493696035746 L 1659.2996329169725 76.81383474701059 L 1659.0826005350634 76.75174834043284 L 1658.866952408362 76.68868394921314 L 1658.652710101502 76.62464787973806 L 1658.439895038535 76.5596465355612 L 1658.2285285007902 76.49368641676277 L 1658.0186316247452 76.42677411929971 L 1657.8102253999125 76.358916334346 L 1657.6033306667414 76.2901198476236 L 1657.3979681145322 76.22039153872383 L 1657.1941582793695 76.14973838041949 L 1656.9919215420668 76.07816743796754 L 1656.791278126129 76.00568586840255 L 1656.592248095731 75.9323009198211 L 1656.3948513537096 75.8580199306569 L 1656.1991076395748 75.78285032894695 L 1656.0050365275345 75.70679963158878 L 1655.8126574245387 75.62987544358876 L 1655.6219895683369 75.55208545730159 L 1655.433052025556 75.47343745166106 L 1655.245863689793 75.3939392914022 L 1655.0604432797252 75.31359892627479 L 1654.8768093372391 75.2324243902484 L 1654.6949802255763 75.15042380070896 L 1654.514974127496 75.06760535764712 L 1654.3368090434585 74.98397734283817 L 1654.1605027898233 74.89954811901389 L 1653.986072997069 74.8143261290263 L 1653.8135371080293 74.72831989500338 L 1653.6429123761498 74.64153801749687 L 1653.474215863761 74.5539891746222 L 1653.307464440374 74.46568212119071 L 1653.1426747809917 74.37662568783415 L 1652.9798633644432 74.28682878012162 L 1652.819046471734 74.19630037766909 L 1652.6602401844198 74.10504953324134 L 1652.5034603829968 74.0130853718468 L 1652.3487227453145 73.92041708982494 L 1652.1960427450076 73.82705395392676 L 1652.045435649949 73.73300530038806 L 1651.896916520723 73.63828053399578 L 1651.7505002091182 73.54288912714766 L 1651.606201356644 73.44684061890487 L 1651.4640343930655 73.3501446140382 L 1651.3240135349606 73.25281078206757 L 1651.1861527842982 73.15484885629505 L 1651.0504659270387 73.05626863283157 L 1650.9169665317545 72.95707996961737 L 1650.7856679482743 72.85729278543607 L 1650.6565833063466 72.75691705892295 L 1650.5297255143282 72.65596282756702 L 1650.4051072578927 72.5544401867073 L 1650.2827409987617 72.45235928852324 L 1650.1626389734593 72.34973034101961 L 1650.0448131920878 72.24656360700563 L 1649.9292754371272 72.14286940306874 L 1649.8160372622567 72.03865809854291 L 1649.7051099911996 71.93394011447177 L 1649.5965047165903 71.82872592256643 L 1649.490232298866 71.72302604415843 L 1649.3863033651796 71.61685104914753 L 1649.2847283083383 71.51021155494473 L 1649.1855172857627 71.4031182254106 L 1649.0886802184727 71.29558176978884 L 1648.9942267900942 71.1876129416354 L 1648.9021664458912 71.07922253774314 L 1648.8125083918217 70.9704213970621 L 1648.725261593616 70.86122039961568 L 1648.6404347758817 70.75163046541265 L 1648.5580364212296 70.64166255335508 L 1648.4780747694265 70.53132766014255 L 1648.4005578165709 70.42063681917243 L 1648.3254933142935 70.30960109943658 L 1648.2528887689823 70.19823160441445 L 1648.1827514410309 70.0865394709627 L 1648.1150883441137 69.97453586820164 L 1648.0499062444842 69.86223199639821 L 1647.987211660298 69.74963908584596 L 1647.9270108609612 69.63676839574217 L 1647.8693098665037 69.52363121306175 L 1647.8141144469769 69.41023885142872 L 1647.7614301218764 69.29660264998472 L 1647.711262159591 69.18273397225522 L 1647.6636155768751 69.0686442050131 L 1647.6184951383475 68.95434475714 L 1647.5759053560141 68.83984705848547 L 1647.535850488818 68.72516255872397 L 1647.4983345422122 68.61030272620987 L 1647.4633612677603 68.49527904683073 L 1647.4309341627606 68.38010302285863 L 1647.4010564698965 68.2647861718 L 1647.3737311769125 68.14934002524383 L 1647.348961016315 68.03377612770858 L 1647.3267484650994 67.9181060354877 L 1647.3070957445022 67.80234131549402 L 1647.2900048197796 67.68649354410306 L 1647.2754774000093 67.57057430599544 L 1647.2635149379214 67.45459519299835 L 1647.254118629752 67.33856780292646 L 1647.2472894151242 67.22250373842208 L 1647.243027976954 67.10641460579494 L 1647.2413347413813 66.99031201386155 L 1647.242209877728 66.87420757278437 L 1647.245653298482 66.75811289291076 L 1647.2516646593035 66.64203958361193 L 1647.2602433590616 66.52599925212212 L 1647.2713885398935 66.41000350237775 L 1647.2850990872903 66.29406393385715 L 1647.3013736302087 66.17819214042055 L 1647.320210541208 66.06239970915072 L 1647.3416079366132 65.94669821919432 L 1647.3655636767019 65.8310992406039 L 1647.3920753659202 65.71561433318102 L 1647.4211403531217 65.60025504532017 L 1647.4527557318315 65.48503291285398 L 1647.486918340538 65.36995945789971 L 1647.5236247630094 65.25504618770695 L 1647.5628713286335 65.14030459350695 L 1647.6046541127864 65.02574614936354 L 1647.648968937225 64.91138231102563 L 1647.6958113705034 64.79722451478179 L 1647.7451767284172 64.68328417631649 L 1647.797060074472 64.56957268956862 L 1647.8514562203763 64.45610142559212 L 1647.9083597265612 64.3428817314188 L 1647.967764902723 64.22992492892377 L 1648.0296658083937 64.1172423136931 L 1648.0940562535345 64.00484515389444 L 1648.1609297991545 63.89274468915009 L 1648.2302797579548 63.78095212941312 L 1648.3020991949973 63.66947865384635 L 1648.3763809283982 63.558335409704426 L 1648.453117530046 63.447533511219156 L 1648.5323013263444 63.337084038488044 L 1648.61392439898 63.226998036366325 L 1648.6979785857134 63.11728651336247 L 1648.7844554811961 63.00796044053737 L 1648.8733464378104 62.899030750407185 L 1648.9646425665348 62.790508335850156 L 1649.0583347378326 62.682404049017315 L 1649.1544135825648 62.57472870024724 L 1649.2528694929267 62.4674930569851 L 1649.3536926234096 62.36070784270584 L 1649.4568728917843 62.25438373584191 L 1649.56239998011 62.148531368715396 L 1649.6702633357659 62.04316132647479 L 1649.780452172506 61.938284146036516 L 1649.892955471539 61.83391031503122 L 1650.0077619826282 61.73005027075502 L 1650.1248602252183 61.6267143991258 L 1650.2442384895828 61.52391303364461 L 1650.3658848379948 61.42165645436233 L 1650.4897871059206 61.31995488685167 L 1650.6159329032366 61.21881850118463 L 1650.7443096154686 61.1182574109155 L 1650.874904405052 61.018281672069506 L 1651.0077042126168 60.91890128213721 L 1651.1426957582928 60.82012617907481 L 1651.2798655430379 60.72196624031029 L 1651.4191998499882 60.62443128175571 L 1651.560684745829 60.52753105682567 L 1651.7043060821884 60.431275255461905 L 1651.8500494970526 60.33567350316434 L 1651.9979004162017 60.24073536002853 L 1652.1478440546668 60.14647031978968 L 1652.299865418209 60.05288780887326 L 1652.453949304819 59.959997185452366 L 1652.6100803062361 59.86780773851195 L 1652.7682428094904 59.77632868691987 L 1652.9284209984635 59.68556917850505 L 1653.0905988554696 59.59553828914271 L 1653.2547601628587 59.50624502184675 L 1653.4208885046364 59.41769830586949 L 1653.5889672681074 59.32990699580875 L 1653.758979645535 59.24287987072236 L 1653.9309086358232 59.15662563325033 L 1654.1047370462165 59.0711529087445 L 1654.2804474940185 58.986470244406114 L 1654.458022408331 58.90258610843103 L 1654.6374440318104 58.81950888916295 L 1654.818694422444 58.737246894254554 L 1655.0017554553438 58.65580834983679 L 1655.1866088245588 58.57520139969624 L 1655.3732360449062 58.49543410446074 L 1655.5616184538196 58.41651444079334 L 1655.7517372132152 58.33845030059465 L 1655.9435733113753 58.26124949021362 L 1656.13710756485 58.18491972966697 L 1656.3323206203754 58.10946865186714 L 1656.5291929568082 58.03490380185903 L 1656.7277048870792 57.96123263606552 L 1656.9278365601608 57.88846252154177 L 1657.1295679630523 57.816600735238616 L 1657.3328789227814 57.74565446327479 L 1657.5377491084218 57.67563080021837 L 1657.7441580331256 57.60653674837731 L 1657.9520850561723 57.53837921709922 L 1658.161509385033 57.47116502208042 L 1658.372410077449 57.40490088468441 L 1658.5847660435272 57.3395934312697 L 1658.7985560478478 57.27524919252721 L 1659.0137587115883 57.21187460282721 L 1659.230352514662 57.14947599957584 L 1659.4483157978689 57.088059622581426 L 1659.6676267650626 57.02763161343051 L 1659.8882634853287 56.96819801487362 L 1660.1102038951792 56.9097647702211 L 1660.333425800758 56.85233772274873 L 1660.557906880061 56.79592261511338 L 1660.7836246851668 56.74052508877882 L 1661.0105566444834 56.6861506834515 L 1661.2386800650036 56.63280483652666 L 1661.4679721345756 56.58049288254453 L 1661.6984099241836 56.52922005265691 L 1661.9299703902404 56.47899147410408 L 1662.1626303768928 56.42981216970201 L 1662.3963666183358 56.38168705734017 L 1662.63115574114 56.334620949489704 L 1662.8669742665886 56.28861855272216 L 1663.1037986130261 56.24368446723889 L 1663.3416050982146 56.199823186410995 L 1663.5803699417042 56.157039096329996 L 1663.8200692672092 56.11533647536926 L 1664.060679104997 56.07471949375613 L 1664.3021753942844 56.035192213154914 L 1664.5445339856435 55.99675858626073 L 1664.7877306434173 55.959422456404255 L 1665.0317410481425 55.923187557167346 L 1665.276540798982 55.88805751200974 L 1665.522105416165 55.85403583390668 L 1665.7684103434342 55.82112592499761 L 1666.0154309505022 55.78933107624601 L 1666.263142535514 55.758654467110254 L 1666.5115203275175 55.72909916522569 L 1666.7605394889406 55.70066812609789 L 1667.0101751180748 55.67336419280706 L 1667.260402251565 55.64719009572377 L 1667.5111958669063 55.62214845223594 L 1667.7625308849465 55.598241766487035 L 1668.014382172393 55.57547242912571 L 1668.266724544327 55.55384271706673 L 1668.5195327667216 55.533354793263264 L 1668.772781558965 55.51401070649064 L 1669.0264455963895 55.4958123911414 L 1669.2804995128024 55.47876166703191 L 1669.5349179030238 55.46286023922039 L 1669.7896753254267 55.44810969783636 L 1670.0447463044811 55.434511517921656 L 1670.3001053333019 55.42206705928295 L 1670.5557268761988 55.41077756635575 L 1670.8115853712304 55.40064416807991 L 1671.067655232761 55.39166787778682 L 1671.323910854017 55.38384959309805 L 1671.5803266096505 55.37719009583553 L 1671.8368768582993 55.37169005194345 L 1672.0935359451523 55.36735001142162 L 1672.350278204515 55.36417040827046 L 1672.6070779623751 55.36215156044765 L 1672.8639095389708 55.36129366983628 L 1673.1207472513588 55.3615968222247 L 1673.3775654159815 55.363060987297914 L 1673.6343383512367 55.36568601864066 L 1673.8910403800448 55.369471653751965 L 1674.1476458324166 55.37441751407148 L 1674.404129048021 55.3805231050173 L 1674.6604643787505 55.38778781603543 L 1674.9166261912849 55.39621092066079 L 1675.1725888696567 55.40579157658996 L 1675.4283268178115 55.41652882576533 L 1675.6838144621674 55.428421594470926 L 1675.939026254173 55.44146869343979 L 1676.1939366728618 55.45566881797289 L 1676.4485202274043 55.47102054806961 L 1676.7027514596573 55.48752234856974 L 1676.9566049467091 55.50517256930697 L 1677.210055303423 55.52396944527395 L 1677.4630771849743 55.54391109679874 L 1677.7156452893855 55.56499552973279 L 1677.967734360057 55.587220635650404 L 1678.2193191882916 55.61058419205949 L 1678.4703746158164 55.63508386262389 L 1678.7208755372974 55.660717197396956 L 1678.9707969028514 55.687481633066575 L 1679.2201137205502 55.715374493211485 L 1679.4688010589198 55.744392988568904 L 1679.7168340494336 55.7745342173135 L 1679.964187888999 55.8057951653475 L 1680.2108378424384 55.83817270660215 L 1680.456759244962 55.871663603350314 L 1680.7019275046346 55.90626450653023 L 1680.9463181048343 55.941971956080394 L 1681.1899066067047 55.97878238128563 L 1681.4326686515988 56.01669210113408 L 1681.6745799635141 56.055697324685354 L 1681.9156163515215 56.095794151449596 L 1682.1557537121828 56.136978571777554 L 1682.394968031962 56.17924646726151 L 1682.6332353896264 56.22259361114713 L 1682.870531958639 56.267015668756166 L 1683.1068340095405 56.31250819791986 L 1683.3421179123227 56.35906664942321 L 1683.5763601387916 56.40668636745987 L 1683.8095372649195 56.455362590097714 L 1684.0416259731883 56.505090449755045 L 1684.2726030549204 56.55586497368733 L 1684.5024454126003 56.60768108448449 L 1684.7311300621836 56.66053360057863 L 1684.9586341353959 56.71441723676219 L 1685.1849348820197 56.76932660471643 L 1685.4100096721686 56.82525621355034 L 1685.6338359985514 56.88220047034963 L 1685.856391478722 56.940153680736074 L 1686.0776538573175 56.999110049436936 L 1686.2976010082848 57.05906368086447 L 1686.5162109370922 57.120008579705484 L 1686.7334617829283 57.1819386515209 L 1686.9493318208904 57.244847703355134 L 1687.163799464154 57.308729444355436 L 1687.3768432661336 57.373577486400926 L 1687.5884419226268 57.439385344741446 L 1687.798574273944 57.506146438646006 L 1688.0072193070255 57.57385409206084 L 1688.2143561575415 57.642501534277045 L 1688.4199641119799 57.712081900607586 L 1688.6240226097161 57.78258823307383 L 1688.8265112450708 57.854013481101276 L 1689.0274097693493 57.92635050222464 L 1689.2266980928662 57.99959206280211 L 1689.4243562869556 58.07373083873863 L 1689.6203645859623 58.14875941621842 L 1689.8147033892203 58.224670292446234 L 1690.0073532630108 58.30145587639771 L 1690.1982949425073 58.379108489578456 L 1690.3875093337008 58.45762036679186 L 1690.5749775153097 58.53698365691561 L 1690.7606807406723 58.61719042368684 L 1690.9446004396207 58.698232646495725 L 1691.1267182203385 58.7801022211875 L 1691.307015871199 58.86279096087293 L 1691.4854753625875 58.94629059674695 L 1691.662078848704 59.03059277891555 L 1691.8368086693463 59.115689077230776 L 1692.0096473516785 59.2015709821337 L 1692.1805776119763 59.2882299055054 L 1692.349582357356 59.375657181525774 L 1692.516644687484 59.46384406754005 L 1692.6817478962664 59.55278174493313 L 1692.84487547352 59.642461320011385 L 1693.0060111066227 59.73287382489204 L 1693.165138682146 59.82401021839995 L 1693.3222422874649 59.91586138697171 L 1693.4773062123493 60.008418145567006 L 1693.6303149505363 60.10167123858711 L 1693.7812532012795 60.195611340800426 L 1693.9301058708795 60.29022905827503 L 1694.0768580741938 60.385514929318006 L 1694.2214951361238 60.48145942542166 L 1694.364002593084 60.57805295221634 L 1694.5043661944478 60.67528585042985 L 1694.6425719039717 60.77314839685341 L 1694.7786059012 60.87163080531391 L 1694.9124545828465 60.97072322765259 L 1695.0441045641542 61.07041575470979 L 1695.173542680235 61.170698417315876 L 1695.300755987385 61.271561187288164 L 1695.4257317643796 61.3729939784337 L 1695.5484575137452 61.47498664755789 L 1695.6689209630092 61.577528995478836 L 1695.7871100659268 61.68061076804718 L 1695.9030130036865 61.78422165717158 L 1696.0166181860911 61.88835130184945 L 1696.1279142527167 61.99298928920311 L 1696.2368900740498 62.09812515552101 L 1696.3435347525988 62.203748387304145 L 1696.447837623985 62.30984842231735 L 1696.5497882580078 62.416414650645535 L 1696.649376459689 62.52343641575468 L 1696.7465922702913 62.63090301555746 L 1696.8414259683148 62.73880370348344 L 1696.9338680704686 62.847127689553744 L 1697.0239093326195 62.95586414146005 L 1697.1115407507164 63.065002185647764 L 1697.1967535616907 63.174530908403426 L 1697.279539244332 63.28443935694603 L 1697.359889520141 63.39471654052231 L 1697.4377963541574 63.50535143150581 L 1697.5132519557624 63.61633296649962 L 1697.5862487794589 63.72765004744274 L 1697.6567795256253 63.83929154271982 L 1697.7248371412459 63.951246288274376 L 1697.7904148206155 64.06350308872516 L 1697.8535060060212 64.17605071848564 L 1697.914104388397 64.28887792288667 L 1697.9722039079547 64.40197341930181 L 1698.0277987547913 64.51532589827566 L 1698.0808833694682 64.6289240246548 L 1698.1314524435682 64.74275643872124 L 1698.179500920226 64.85681175732844 L 1698.225023994634 64.97107857503958 L 1698.268017114523 65.08554546526814 L 1698.308475980616 65.20020098142045 L 1698.3463965470612 65.31503365804045 L 1698.3817750218327 65.43003201195617 L 1698.4146078671129 65.54518454342806 L 1698.4448917996447 65.66047973729893 L 1698.4726237910597 65.77590606414547 L 1698.497801068182 65.89145198143119 L 1698.5204211133052 66.00710593466063 L 1698.5404816644434 66.12285635853486 L 1698.5579807155582 66.23869167810795 L 1698.5729165167588 66.35460030994449 L 1698.5852875744781 66.47057066327784 L 1698.5950926516202 66.58659114116935 L 1698.6023307676858 66.70265014166789 L 1698.6070011988693 66.81873605897015 L 1698.6091034781311 66.9348372845811 M 1698.6092337751147 103.91451096179999 L 1698.607949587526 104.03061462555635 L 1698.604097153178 104.14670667904309 L 1698.5976768573107 104.2627755131516 L 1698.5886893419483 104.37880952109519 L 1698.577135505835 104.49479709956978 L 1698.5630165043447 104.61072664991414 L 1698.5463337493659 104.72658657926989 L 1698.52708890916 104.8423653017406 L 1698.505283908195 104.95805123955054 L 1698.480920926953 105.0736328242023 L 1698.4540024017117 105.18909849763378 L 1698.4245310243011 105.3044367133738 L 1698.3925097418348 105.41963593769695 L 1698.3579417564138 105.53468465077678 L 1698.3208305248081 105.64957134783783 L 1698.28117975811 105.76428454030618 L 1698.2389934213631 105.87881275695814 L 1698.1942757331658 105.9931445450675 L 1698.1470311652497 106.10726847155073 L 1698.0972644420324 106.22117312411025 L 1698.0449805401445 106.33484711237577 L 1697.9901846879327 106.44827906904317 L 1697.9328823649366 106.56145765101131 L 1697.8730793013408 106.67437154051632 L 1697.8107814774016 106.78700944626333 L 1697.7459951228498 106.89936010455563 L 1697.6787267162665 107.01141228042103 L 1697.6089829844368 107.12315476873529 L 1697.5367709016753 107.23457639534273 L 1697.4620976891301 107.34566601817353 L 1697.3849708140606 107.45641252835797 L 1697.3053979890897 107.56680485133734 L 1697.2233871714338 107.67683194797132 L 1697.1389465621062 107.78648281564195 L 1697.0520846050974 107.89574648935381 L 1696.9628099865308 108.00461204283062 L 1696.871131633794 108.1130685896077 L 1696.7770587146458 108.22110528412082 L 1696.6806006362997 108.32871132279051 L 1696.581767044483 108.4358759451026 L 1696.4805678224727 108.54258843468413 L 1696.3770130901066 108.6488381203751 L 1696.2711132027716 108.75461437729548 L 1696.1628787503682 108.8599066279077 L 1696.0523205562517 108.96470434307447 L 1695.939449676149 109.0689970431116 L 1695.8242773970542 109.17277429883598 L 1695.7068152360994 109.27602573260853 L 1695.5870749394026 109.37874101937192 L 1695.4650684808937 109.48090988768304 L 1695.3408080611168 109.58252212074024 L 1695.2143061060108 109.68356755740487 L 1695.085575265665 109.78403609321748 L 1694.954628413057 109.88391768140819 L 1694.8214786427625 109.98320233390143 L 1694.6861392696474 110.08188012231469 L 1694.5486238275366 110.17994117895135 L 1694.4089460678595 110.27737569778748 L 1694.2671199582758 110.37417393545236 L 1694.1231596812781 110.47032621220293 L 1693.9770796327743 110.5658229128916 L 1693.8288944206474 110.66065448792793 L 1693.6786188632952 110.7548114542334 L 1693.5262679881482 110.84828439618985 L 1693.371857030167 110.941063966581 L 1693.2154014303187 111.03314088752711 L 1693.0569168340326 111.12450595141281 L 1692.8964190896368 111.21515002180787 L 1692.7339242467715 111.30506403438078 L 1692.569448554786 111.39423899780519 L 1692.4030084611122 111.48266599465909 L 1692.2346206096206 111.57033618231648 L 1692.0643018389565 111.65724079383165 L 1691.8920691808546 111.74337113881587 L 1691.7179398584374 111.82871860430642 L 1691.5419312844917 111.91327465562787 L 1691.3640610597288 111.99703083724555 L 1691.1843469710227 112.07997877361109 L 1691.0028069896323 112.16211016999999 L 1690.8194592694047 112.24341681334106 L 1690.6343221449588 112.32389057303769 L 1690.4474141298533 112.40352340178099 L 1690.2587539147335 112.48230733635444 L 1690.068360365464 112.56023449843025 L 1689.8762525212408 112.63729709535714 L 1689.6824495926885 112.71348742093964 L 1689.4869709599382 112.78879785620869 L 1689.2898361706905 112.8632208701835 L 1689.0910649382597 112.93674902062472 L 1688.890677139604 113.00937495477855 L 1688.6886928133356 113.08109141011211 L 1688.4851321577191 113.15189121503964 L 1688.2800155286507 113.22176728963963 L 1688.073363437622 113.29071264636286 L 1687.8651965496701 113.35872039073111 L 1687.65553568131 113.42578372202661 L 1687.4444017984545 113.49189593397213 L 1687.2318160143152 113.55705041540155 L 1687.0177995872937 113.62124065092104 L 1686.8023739188543 113.68446022156053 L 1686.5855605513843 113.74670280541565 L 1686.3673811660399 113.80796217827987 L 1686.1478575805777 113.86823221426694 L 1685.9270117471733 113.92750688642352 L 1685.7048657502262 113.98578026733178 L 1685.4814418041508 114.04304652970217 L 1685.2567622511554 114.09929994695618 L 1685.0308495590082 114.15453489379898 L 1684.8037263187903 114.20874584678191 L 1684.5754152426362 114.26192738485484 L 1684.3459391614633 114.31407418990828 L 1684.1153210226887 114.36518104730519 L 1683.883583887934 114.4152428464024 L 1683.6507509307194 114.46425458106174 L 1683.4168454341468 114.51221135015058 L 1683.1818907885709 114.55910835803196 L 1682.9459104892603 114.6049409150442 L 1682.7089281340484 114.64970443796976 L 1682.4709674209732 114.69339445049368 L 1682.2320521459078 114.7360065836511 L 1681.9922062001804 114.77753657626423 L 1681.751453568186 114.81798027536838 L 1681.509818324987 114.85733363662739 L 1681.2673246339064 114.8955927247379 L 1681.0239967441112 114.93275371382298 L 1680.7798589881877 114.96881288781469 L 1680.5349357797077 115.0037666408257 L 1680.2892516107884 115.03761147750981 L 1680.0428310496418 115.07034401341159 L 1679.7956987381185 115.10196097530469 L 1679.547879389244 115.13245920151928 L 1679.2993977847464 115.16183564225817 L 1679.0502787725793 115.19008735990175 L 1678.800547264436 115.21721152930179 L 1678.5502282332595 115.24320543806398 L 1678.2993467107444 115.26806648681908 L 1678.0479277848335 115.29179218948295 L 1677.7959965972104 115.31438017350509 L 1677.5435783407834 115.33582818010592 L 1677.290698257168 115.35613406450264 L 1677.0373816341619 115.37529579612375 L 1676.783653803216 115.39331145881205 L 1676.5295401369026 115.41017925101629 L 1676.275066046376 115.42589748597129 L 1676.0202569788335 115.44046459186667 L 1675.765138414969 115.45387911200397 L 1675.509735866427 115.46613970494236 L 1675.254074873249 115.47724514463276 L 1674.9981810013217 115.48719432054045 L 1674.7420798398186 115.49598623775614 L 1674.4857969986426 115.50362001709544 L 1674.2293581058643 115.51009489518677 L 1673.9727888051593 115.5154102245477 L 1673.716114753244 115.51956547364975 L 1673.4593616173092 115.52256022697145 L 1673.2025550724552 115.52439418504 L 1672.945720799122 115.52506716446106 L 1672.6888844805228 115.52457909793732 L 1672.432071800076 115.52293003427498 L 1672.1753084388351 115.52012013837903 L 1671.9186200729225 115.51614969123673 L 1671.662032370961 115.51101908988952 L 1671.4055709915067 115.50472884739318 L 1671.149261580484 115.4972795927668 L 1670.8931297686204 115.48867207092958 L 1670.6372011688836 115.47890714262655 L 1670.3815013739202 115.4679857843424 L 1670.1260559534967 115.45590908820387 L 1669.8708904519424 115.4426782618705 L 1669.6160303855947 115.42829462841388 L 1669.361501240248 115.4127596261854 L 1669.1073284686042 115.39607480867232 L 1668.8535374877292 115.3782418443425 L 1668.6001536765095 115.35926251647749 L 1668.3472023731151 115.33913872299428 L 1668.0947088724654 115.31787247625543 L 1667.8426984237 115.29546590286792 L 1667.591196227654 115.27192124347039 L 1667.3402274343375 115.24724085250918 L 1667.08981714042 115.2214271980028 L 1666.8399903867232 115.1944828612952 L 1666.5907721557135 115.1664105367976 L 1666.3421873690068 115.13721303171906 L 1666.0942608848743 115.10689326578573 L 1665.8470174957579 115.07545427094897 L 1665.6004819257905 115.04289919108203 L 1665.3546788283238 115.0092312816658 L 1665.1096327834625 114.97445390946316 L 1664.865368295607 114.93857055218234 L 1664.6219097910025 114.90158479812916 L 1664.3792816152963 114.86350034584822 L 1664.1375080311043 114.824321003753 L 1663.8966132155833 114.78405068974506 L 1663.6566212580137 114.74269343082224 L 1663.4175561573918 114.70025336267598 L 1663.1794418200282 114.65673472927773 L 1662.942302057158 114.61214188245454 L 1662.7061605825604 114.56647928145395 L 1662.4710410101857 114.51975149249802 L 1662.236966851795 114.47196318832667 L 1662.0039615146095 114.42311914773052 L 1661.7720482989687 114.37322425507293 L 1661.5412503960006 114.32228349980157 L 1661.3115908853035 114.27030197594954 L 1661.083092732637 114.21728488162587 L 1660.8557787876257 114.16323751849586 L 1660.629671781475 114.10816529125074 L 1660.404794324697 114.05207370706736 L 1660.1811689048498 113.9949683750574 L 1659.9588178842894 113.93685500570646 L 1659.737763497932 113.87773941030305 L 1659.5180278510327 113.81762750035746 L 1659.2996329169725 113.75652528701059 L 1659.0826005350634 113.69443888043284 L 1658.866952408362 113.63137448921314 L 1658.652710101502 113.56733841973806 L 1658.439895038535 113.5023370755612 L 1658.2285285007902 113.43637695676277 L 1658.0186316247452 113.36946465929971 L 1657.8102253999125 113.301606874346 L 1657.6033306667414 113.2328103876236 L 1657.3979681145322 113.16308207872383 L 1657.1941582793695 113.0924289204195 L 1656.9919215420668 113.02085797796754 L 1656.791278126129 112.94837640840255 L 1656.592248095731 112.8749914598211 L 1656.3948513537096 112.8007104706569 L 1656.1991076395748 112.72554086894695 L 1656.0050365275345 112.64949017158878 L 1655.8126574245387 112.57256598358876 L 1655.6219895683369 112.49477599730159 L 1655.433052025556 112.41612799166106 L 1655.245863689793 112.3366298314022 L 1655.0604432797252 112.2562894662748 L 1654.8768093372391 112.1751149302484 L 1654.6949802255763 112.09311434070896 L 1654.514974127496 112.01029589764713 L 1654.3368090434585 111.92666788283817 L 1654.1605027898233 111.84223865901389 L 1653.986072997069 111.7570166690263 L 1653.8135371080293 111.67101043500338 L 1653.6429123761498 111.58422855749687 L 1653.474215863761 111.4966797146222 L 1653.307464440374 111.40837266119071 L 1653.1426747809917 111.31931622783415 L 1652.9798633644432 111.22951932012163 L 1652.819046471734 111.13899091766909 L 1652.6602401844198 111.04774007324134 L 1652.5034603829968 110.9557759118468 L 1652.3487227453145 110.86310762982494 L 1652.1960427450076 110.76974449392677 L 1652.045435649949 110.67569584038806 L 1651.896916520723 110.58097107399578 L 1651.7505002091182 110.48557966714766 L 1651.606201356644 110.38953115890487 L 1651.4640343930655 110.2928351540382 L 1651.3240135349606 110.19550132206757 L 1651.1861527842982 110.09753939629505 L 1651.0504659270387 109.99895917283158 L 1650.9169665317545 109.89977050961737 L 1650.7856679482743 109.79998332543607 L 1650.6565833063466 109.69960759892295 L 1650.5297255143282 109.59865336756702 L 1650.4051072578927 109.4971307267073 L 1650.2827409987617 109.39504982852324 L 1650.1626389734593 109.29242088101961 L 1650.0448131920878 109.18925414700563 L 1649.9292754371272 109.08555994306874 L 1649.8160372622567 108.98134863854291 L 1649.7051099911996 108.87663065447177 L 1649.5965047165903 108.77141646256644 L 1649.490232298866 108.66571658415843 L 1649.3863033651796 108.55954158914753 L 1649.2847283083383 108.45290209494473 L 1649.1855172857627 108.3458087654106 L 1649.0886802184727 108.23827230978884 L 1648.9942267900942 108.1303034816354 L 1648.9021664458912 108.02191307774314 L 1648.8125083918217 107.9131119370621 L 1648.725261593616 107.80391093961568 L 1648.6404347758817 107.69432100541265 L 1648.5580364212296 107.58435309335508 L 1648.4780747694265 107.47401820014255 L 1648.4005578165709 107.36332735917243 L 1648.3254933142935 107.25229163943658 L 1648.2528887689823 107.14092214441445 L 1648.1827514410309 107.0292300109627 L 1648.1150883441137 106.91722640820164 L 1648.0499062444842 106.80492253639821 L 1647.987211660298 106.69232962584596 L 1647.9270108609612 106.57945893574217 L 1647.8693098665037 106.46632175306175 L 1647.8141144469769 106.35292939142872 L 1647.7614301218764 106.23929318998472 L 1647.711262159591 106.12542451225522 L 1647.6636155768751 106.0113347450131 L 1647.6184951383475 105.89703529714001 L 1647.5759053560141 105.78253759848548 L 1647.535850488818 105.66785309872397 L 1647.4983345422122 105.55299326620987 L 1647.4633612677603 105.43796958683073 L 1647.4309341627606 105.32279356285864 L 1647.4010564698965 105.2074767118 L 1647.3737311769125 105.09203056524383 L 1647.348961016315 104.97646666770858 L 1647.3267484650994 104.8607965754877 L 1647.3070957445022 104.74503185549402 L 1647.2900048197796 104.62918408410306 L 1647.2754774000093 104.51326484599544 L 1647.2635149379214 104.39728573299836 L 1647.254118629752 104.28125834292646 L 1647.2472894151242 104.16519427842208 L 1647.243027976954 104.04910514579494 L 1647.2413347413813 103.93300255386156" stroke-miterlimit="10" stroke-width="2.990598758" stroke-dasharray=""/></g><g><g/><text fill="black" stroke="none" font-family="sans-serif" font-size="11pt" font-style="normal" font-weight="normal" text-decoration="normal" x="1663.5551889305873" y="134.401026536" text-anchor="start" dominant-baseline="alphabetic">db</text></g></g><g><path fill="white" stroke="black" paint-order="fill stroke markers" d=" M 242.5898306436198 197.73135317599997 L 260.1815880436198 197.73135317599997 L 260.1815880436198 1771.771438298399 L 242.5898306436198 1771.771438298399 L 242.5898306436198 197.73135317599997" stroke-miterlimit="10" stroke-width="1.4659797833333332" stroke-dasharray=""/><path fill="white" stroke="black" paint-order="fill stroke markers" d=" M 492.009074326888 246.98827389599995 L 509.60083172688803 246.98827389599995 L 509.60083172688803 1678.5351240783991 L 492.009074326888 1678.5351240783991 L 492.009074326888 246.98827389599995" stroke-miterlimit="10" stroke-width="1.4659797833333332" stroke-dasharray=""/><path fill="white" stroke="black" paint-order="fill stroke markers" d=" M 784.6837761779298 296.24519461599994 L 802.2755335779298 296.24519461599994 L 802.2755335779298 1200.0393227983998 L 784.6837761779298 1200.0393227983998 L 784.6837761779298 296.24519461599994" stroke-miterlimit="10" stroke-width="1.4659797833333332" stroke-dasharray=""/><path fill="white" stroke="black" paint-order="fill stroke markers" d=" M 1059.7667206289714 345.5021153359999 L 1077.3584780289714 345.5021153359999 L 1077.3584780289714 1150.7824020783999 L 1059.7667206289714 1150.7824020783999 L 1059.7667206289714 345.5021153359999" stroke-miterlimit="10" stroke-width="1.4659797833333332" stroke-dasharray=""/><path fill="white" stroke="black" paint-order="fill stroke markers" d=" M 1883.6942325364362 647.8692415271998 L 1901.2859899364362 647.8692415271998 L 1901.2859899364362 697.1261622471999 L 1883.6942325364362 697.1261622471999 L 1883.6942325364362 647.8692415271998" stroke-miterlimit="10" stroke-width="1.4659797833333332" stroke-dasharray=""/><path fill="white" stroke="black" paint-order="fill stroke markers" d=" M 2023.1077443920026 1025.8809245384 L 2040.6995017920026 1025.8809245384 L 2040.6995017920026 1075.1378452584 L 2023.1077443920026 1075.1378452584 L 2023.1077443920026 1025.8809245384" stroke-miterlimit="10" stroke-width="1.4659797833333332" stroke-dasharray=""/><path fill="white" stroke="black" paint-order="fill stroke markers" d=" M 500.80495302688803 1266.8880009183997 L 518.396710426888 1266.8880009183997 L 518.396710426888 1629.2782033583992 L 500.80495302688803 1629.2782033583992 L 500.80495302688803 1266.8880009183997" stroke-miterlimit="10" stroke-width="1.4659797833333332" stroke-dasharray=""/><path fill="white" stroke="black" paint-order="fill stroke markers" d=" M 251.3857093436198 1316.1449216383996 L 268.9774667436198 1316.1449216383996 L 268.9774667436198 1562.4295252383993 L 251.3857093436198 1562.4295252383993 L 251.3857093436198 1316.1449216383996" stroke-miterlimit="10" stroke-width="1.4659797833333332" stroke-dasharray=""/><path fill="white" stroke="black" paint-order="fill stroke markers" d=" M 509.60083172688803 1365.4018423583996 L 527.192589126888 1365.4018423583996 L 527.192589126888 1414.6587630783995 L 509.60083172688803 1414.6587630783995 L 509.60083172688803 1365.4018423583996" stroke-miterlimit="10" stroke-width="1.4659797833333332" stroke-dasharray=""/><path fill="white" stroke="black" paint-order="fill stroke markers" d=" M 509.60083172688803 1463.9156837983994 L 527.192589126888 1463.9156837983994 L 527.192589126888 1513.1726045183993 L 509.60083172688803 1513.1726045183993 L 509.60083172688803 1463.9156837983994" stroke-miterlimit="10" stroke-width="1.4659797833333332" stroke-dasharray=""/><g><g><rect fill="white" stroke="none" x="45.707991208294274" y="174.86206855599997" width="176.06492651199218" height="22.86928462"/></g><text fill="black" stroke="none" font-family="sans-serif" font-size="11pt" font-style="normal" font-weight="normal" text-decoration="normal" x="48.34675481829427" y="190.69465021599999" text-anchor="start" dominant-baseline="alphabetic">submit(date : LocalDate)</text></g><g><path fill="none" stroke="black" paint-order="fill stroke markers" d=" M 24.891078284960937 197.73135317599997 L 239.6578710769531 197.73135317599997" stroke-miterlimit="10" stroke-width="1.4659797833333332" stroke-dasharray=""/><g transform="translate(242.5898306436198,197.73135317599997) translate(-242.5898306436198,-197.73135317599997)"><path fill="black" stroke="none" paint-order="stroke fill markers" d=" M 227.93003281028646 190.4014542593333 L 242.5898306436198 197.73135317599997 L 227.93003281028646 205.06125209266665 Z"/></g></g><g><g><rect fill="white" stroke="none" x="285.39644031695315" y="224.11898927599995" width="181.39778173660156" height="22.86928462"/></g><text fill="black" stroke="none" font-family="sans-serif" font-size="11pt" font-style="normal" font-weight="normal" text-decoration="normal" x="288.03520392695316" y="239.95157093599997" text-anchor="start" dominant-baseline="alphabetic">setDate(date : LocalDate)</text></g><g><path fill="none" stroke="black" paint-order="fill stroke markers" d=" M 260.1815880436198 246.98827389599995 L 489.0771147602214 246.98827389599995" stroke-miterlimit="10" stroke-width="1.4659797833333332" stroke-dasharray=""/><g transform="translate(492.009074326888,246.98827389599995) translate(-492.009074326888,-246.98827389599995)"><path fill="black" stroke="none" paint-order="stroke fill markers" d=" M 477.34927649355467 239.65837497933327 L 492.009074326888 246.98827389599995 L 477.34927649355467 254.31817281266663 Z"/></g></g><g><g><rect fill="white" stroke="none" x="539.2136233502214" y="273.37590999599996" width="215.857361204375" height="22.86928462"/></g><text fill="black" stroke="none" font-family="sans-serif" font-size="11pt" font-style="normal" font-weight="normal" text-decoration="normal" x="541.8523869602213" y="289.208491656" text-anchor="start" dominant-baseline="alphabetic">getBookings(date : LocalDate)</text></g><g><path fill="none" stroke="black" paint-order="fill stroke markers" d=" M 509.60083172688803 296.24519461599994 L 781.751816611263 296.24519461599994" stroke-miterlimit="10" stroke-width="1.4659797833333332" stroke-dasharray=""/><g transform="translate(784.6837761779298,296.24519461599994) translate(-784.6837761779298,-296.24519461599994)"><path fill="black" stroke="none" paint-order="stroke fill markers" d=" M 770.0239783445965 288.9152956993333 L 784.6837761779298 296.24519461599994 L 770.0239783445965 303.5750935326666 Z"/></g></g><g><g><rect fill="white" stroke="none" x="823.0924465012631" y="322.63283071599994" width="215.857361204375" height="22.86928462"/></g><text fill="black" stroke="none" font-family="sans-serif" font-size="11pt" font-style="normal" font-weight="normal" text-decoration="normal" x="825.7312101112631" y="338.46541237599996" text-anchor="start" dominant-baseline="alphabetic">getBookings(date : LocalDate)</text></g><g><path fill="none" stroke="black" paint-order="fill stroke markers" d=" M 802.2755335779298 345.5021153359999 L 1056.8347610623048 345.5021153359999" stroke-miterlimit="10" stroke-width="1.4659797833333332" stroke-dasharray=""/><g transform="translate(1059.7667206289714,345.5021153359999) translate(-1059.7667206289714,-345.5021153359999)"><path fill="black" stroke="none" paint-order="stroke fill markers" d=" M 1045.106922795638 338.17221641933327 L 1059.7667206289714 345.5021153359999 L 1045.106922795638 352.83201425266657 Z"/></g></g><g><g><rect fill="white" stroke="none" x="1282.112987930082" y="371.8897514359999" width="186.05777013992187" height="22.86928462"/></g><text fill="black" stroke="none" font-family="sans-serif" font-size="11pt" font-style="normal" font-weight="normal" text-decoration="normal" x="1284.751751540082" y="387.72233309599994" text-anchor="start" dominant-baseline="alphabetic">executeQuery(sql : String)</text></g><g><path fill="none" stroke="black" paint-order="fill stroke markers" d=" M 1077.3584780289714 394.7590360559999 L 1669.993308404448 394.7590360559999" stroke-miterlimit="10" stroke-width="1.4659797833333332" stroke-dasharray=""/><g transform="translate(1672.9252679711146,394.7590360559999) translate(-1672.9252679711146,-394.7590360559999)"><path fill="black" stroke="none" paint-order="stroke fill markers" d=" M 1658.2654701377812 387.42913713933325 L 1672.9252679711146 394.7590360559999 L 1658.2654701377812 402.08893497266655 Z"/></g></g><g><g><rect fill="white" stroke="none" x="1098.1753909523047" y="468.6444171359999" width="254.66911352371093" height="22.86928462"/></g><text fill="black" stroke="none" font-family="sans-serif" font-size="11pt" font-style="normal" font-weight="normal" text-decoration="normal" x="1100.8141545623048" y="484.4769987959999" text-anchor="start" dominant-baseline="alphabetic">r := getRoomforOid(room : Integer)</text></g><g><path fill="none" stroke="black" paint-order="fill stroke markers" d=" M 1077.3584780289714 491.5137017559999 L 1370.7294578326823 491.5137017559999" stroke-miterlimit="10" stroke-width="1.4659797833333332" stroke-dasharray=""/><g transform="translate(1373.661417399349,491.5137017559999) translate(-1373.661417399349,-491.5137017559999)"><path fill="black" stroke="none" paint-order="stroke fill markers" d=" M 1359.0016195660155 484.1838028393332 L 1373.661417399349 491.5137017559999 L 1359.0016195660155 498.8436006726665 Z"/></g></g><g><g><rect fill="white" stroke="none" x="1167.207225509674" y="517.9013378559998" width="282.4429019758594" height="22.86928462"/></g><text fill="black" stroke="none" font-family="sans-serif" font-size="11pt" font-style="normal" font-weight="normal" text-decoration="normal" x="1169.845989119674" y="533.7339195159998" text-anchor="start" dominant-baseline="alphabetic">getCustomerForOid(customer : Integer)</text></g><g><path fill="none" stroke="black" paint-order="fill stroke markers" d=" M 1077.3584780289714 540.7706224759999 L 1536.566915399569 540.7706224759999" stroke-miterlimit="10" stroke-width="1.4659797833333332" stroke-dasharray=""/><g transform="translate(1539.4988749662357,540.7706224759999) translate(-1539.4988749662357,-540.7706224759999)"><path fill="black" stroke="none" paint-order="stroke fill markers" d=" M 1524.8390771329023 533.4407235593332 L 1539.4988749662357 540.7706224759999 L 1524.8390771329023 548.1005213926666 Z"/></g></g><g><path fill="white" stroke="black" paint-order="fill stroke markers" d=" M 1918.6138709754362 593.4931194037999 A 26.123759739 26.123759739 0 1 1 1918.6138579135575 593.4669956484149 M 1864.8710521184362 622.0093581491999 L 1917.1185715964361 622.0093581491999" stroke-miterlimit="10" stroke-width="2.990598758" stroke-dasharray=""/></g><g><g/><text fill="black" stroke="none" font-family="sans-serif" font-size="11pt" font-style="normal" font-weight="normal" text-decoration="normal" x="1829.1078633116315" y="641.0964149281999" text-anchor="start" dominant-baseline="alphabetic">PersistentBooking</text></g><g><g><rect fill="white" stroke="none" x="1145.3403177048326" y="567.1582585759999" width="342.14218176101565" height="22.86928462"/></g><g><rect fill="white" stroke="none" x="1145.3403177048326" y="584.7500159759999" width="615.7857059309375" height="22.86928462"/></g><text fill="black" stroke="none" font-family="sans-serif" font-size="11pt" font-style="normal" font-weight="normal" text-decoration="normal" x="1147.9790813148327" y="582.9908402359998" text-anchor="start" dominant-baseline="alphabetic">PersistentBooking(oid : Integer, status : Integer, </text><text fill="black" stroke="none" font-family="sans-serif" font-size="11pt" font-style="normal" font-weight="normal" text-decoration="normal" x="1147.9790813148327" y="600.5825976359998" text-anchor="start" dominant-baseline="alphabetic">    startDate : LocalDate, endDate : LocalDate, r : Room, c : Customer, atime : LocalTime)</text></g><g><path fill="none" stroke="black" paint-order="fill stroke markers" d=" M 1077.3584780289714 607.6193005959999 L 1826.175903744965 607.6193005959999" stroke-miterlimit="10" stroke-width="1.4659797833333332" stroke-dasharray=""/><g transform="translate(1829.1078633116315,607.6193005959999) translate(-1829.1078633116315,-607.6193005959999)"><path fill="black" stroke="none" paint-order="stroke fill markers" d=" M 1814.448065478298 600.2894016793332 L 1829.1078633116315 607.6193005959999 L 1814.448065478298 614.9491995126666 Z"/></g></g><g><g><rect fill="white" stroke="none" x="1477.8875916727036" y="674.2568776271999" width="5.27752722" height="22.86928462"/></g><text fill="black" stroke="none" font-family="sans-serif" font-size="11pt" font-style="normal" font-weight="normal" text-decoration="normal" x="1480.5263552827037" y="690.0894592871998" text-anchor="start" dominant-baseline="alphabetic"></text></g><g><path fill="none" stroke="black" paint-order="fill stroke markers" d=" M 1883.6942325364362 697.1261622471999 L 1080.290437595638 697.1261622471999" stroke-miterlimit="10" stroke-width="1.4659797833333332" stroke-dasharray="7.0367029599999995"/><g transform="translate(1077.3584780289714,697.1261622471999) translate(-1077.3584780289714,-697.1261622471999)"><path fill="black" stroke="none" paint-order="stroke fill markers" d=" M 1092.0182758623048 689.7962633305332 L 1077.3584780289714 697.1261622471999 L 1092.0182758623048 704.4560611638666 Z"/></g></g><g><g><rect fill="white" stroke="none" x="1282.112987930082" y="749.9014344471999" width="186.05777013992187" height="22.86928462"/></g><text fill="black" stroke="none" font-family="sans-serif" font-size="11pt" font-style="normal" font-weight="normal" text-decoration="normal" x="1284.751751540082" y="765.7340161071999" text-anchor="start" dominant-baseline="alphabetic">executeQuery(sql : String)</text></g><g><path fill="none" stroke="black" paint-order="fill stroke markers" d=" M 1077.3584780289714 772.7707190671999 L 1669.993308404448 772.7707190671999" stroke-miterlimit="10" stroke-width="1.4659797833333332" stroke-dasharray=""/><g transform="translate(1672.9252679711146,772.7707190671999) translate(-1672.9252679711146,-772.7707190671999)"><path fill="black" stroke="none" paint-order="stroke fill markers" d=" M 1658.2654701377812 765.4408201505332 L 1672.9252679711146 772.7707190671999 L 1658.2654701377812 780.1006179838666 Z"/></g></g><g><g><rect fill="white" stroke="none" x="1098.1753909523047" y="846.6561001471999" width="254.66911352371093" height="22.86928462"/></g><text fill="black" stroke="none" font-family="sans-serif" font-size="11pt" font-style="normal" font-weight="normal" text-decoration="normal" x="1100.8141545623048" y="862.4886818071999" text-anchor="start" dominant-baseline="alphabetic">r := getRoomforOid(room : Integer)</text></g><g><path fill="none" stroke="black" paint-order="fill stroke markers" d=" M 1077.3584780289714 869.5253847672 L 1370.7294578326823 869.5253847672" stroke-miterlimit="10" stroke-width="1.4659797833333332" stroke-dasharray=""/><g transform="translate(1373.661417399349,869.5253847672) translate(-1373.661417399349,-869.5253847672)"><path fill="black" stroke="none" paint-order="stroke fill markers" d=" M 1359.0016195660155 862.1954858505333 L 1373.661417399349 869.5253847672 L 1359.0016195660155 876.8552836838667 Z"/></g></g><g><g><rect fill="white" stroke="none" x="1167.207225509674" y="895.9130208672" width="282.4429019758594" height="22.86928462"/></g><text fill="black" stroke="none" font-family="sans-serif" font-size="11pt" font-style="normal" font-weight="normal" text-decoration="normal" x="1169.845989119674" y="911.7456025271999" text-anchor="start" dominant-baseline="alphabetic">getCustomerForOid(customer : Integer)</text></g><g><path fill="none" stroke="black" paint-order="fill stroke markers" d=" M 1077.3584780289714 918.7823054872 L 1536.566915399569 918.7823054872" stroke-miterlimit="10" stroke-width="1.4659797833333332" stroke-dasharray=""/><g transform="translate(1539.4988749662357,918.7823054872) translate(-1539.4988749662357,-918.7823054872)"><path fill="black" stroke="none" paint-order="stroke fill markers" d=" M 1524.8390771329023 911.4524065705333 L 1539.4988749662357 918.7823054872 L 1524.8390771329023 926.1122044038667 Z"/></g></g><g><path fill="white" stroke="black" paint-order="fill stroke markers" d=" M 2058.027382831003 971.504802415 A 26.123759739 26.123759739 0 1 1 2058.0273697691237 971.478678659615 M 2004.2845639740026 1000.0210411603999 L 2056.532083452003 1000.0210411603999" stroke-miterlimit="10" stroke-width="2.990598758" stroke-dasharray=""/></g><g><g/><text fill="black" stroke="none" font-family="sans-serif" font-size="11pt" font-style="normal" font-weight="normal" text-decoration="normal" x="1973.4641165612409" y="1019.1080979394" text-anchor="start" dominant-baseline="alphabetic">PersistentWalkIn</text></g><g><g><rect fill="white" stroke="none" x="1217.5184443296373" y="945.1699415872" width="332.25668371414065" height="22.86928462"/></g><g><rect fill="white" stroke="none" x="1217.5184443296373" y="962.7616989872" width="615.7857059309375" height="22.86928462"/></g><text fill="black" stroke="none" font-family="sans-serif" font-size="11pt" font-style="normal" font-weight="normal" text-decoration="normal" x="1220.1572079396374" y="961.0025232472" text-anchor="start" dominant-baseline="alphabetic">PersistentWalkIn(oid : Integer, status : Integer, </text><text fill="black" stroke="none" font-family="sans-serif" font-size="11pt" font-style="normal" font-weight="normal" text-decoration="normal" x="1220.1572079396374" y="978.5942806472" text-anchor="start" dominant-baseline="alphabetic">    startDate : LocalDate, endDate : LocalDate, r : Room, c : Customer, atime : LocalTime)</text></g><g><path fill="none" stroke="black" paint-order="fill stroke markers" d=" M 1077.3584780289714 985.6309836072 L 1970.5321569945743 985.6309836072" stroke-miterlimit="10" stroke-width="1.4659797833333332" stroke-dasharray=""/><g transform="translate(1973.4641165612409,985.6309836072) translate(-1973.4641165612409,-985.6309836072)"><path fill="black" stroke="none" paint-order="stroke fill markers" d=" M 1958.8043187279075 978.3010846905333 L 1973.4641165612409 985.6309836072 L 1958.8043187279075 992.9608825238668 Z"/></g></g><g><g><rect fill="white" stroke="none" x="1547.594347600487" y="1052.2685606384" width="5.27752722" height="22.86928462"/></g><text fill="black" stroke="none" font-family="sans-serif" font-size="11pt" font-style="normal" font-weight="normal" text-decoration="normal" x="1550.233111210487" y="1068.1011422984" text-anchor="start" dominant-baseline="alphabetic"></text></g><g><path fill="none" stroke="black" paint-order="fill stroke markers" d=" M 2023.1077443920026 1075.1378452584 L 1080.290437595638 1075.1378452584" stroke-miterlimit="10" stroke-width="1.4659797833333332" stroke-dasharray="7.0367029599999995"/><g transform="translate(1077.3584780289714,1075.1378452584) translate(-1077.3584780289714,-1075.1378452584)"><path fill="black" stroke="none" paint-order="stroke fill markers" d=" M 1092.0182758623048 1067.8079463417332 L 1077.3584780289714 1075.1378452584 L 1092.0182758623048 1082.4677441750666 Z"/></g></g><g><g><rect fill="white" stroke="none" x="872.1511623215756" y="1127.9131174584" width="117.73992956375" height="22.86928462"/></g><text fill="black" stroke="none" font-family="sans-serif" font-size="11pt" font-style="normal" font-weight="normal" text-decoration="normal" x="874.7899259315756" y="1143.7456991184" text-anchor="start" dominant-baseline="alphabetic">return bookings</text></g><g><path fill="none" stroke="black" paint-order="fill stroke markers" d=" M 1059.7667206289714 1150.7824020783999 L 805.2074931445965 1150.7824020783999" stroke-miterlimit="10" stroke-width="1.4659797833333332" stroke-dasharray="7.0367029599999995"/><g transform="translate(802.2755335779298,1150.7824020783999) translate(-802.2755335779298,-1150.7824020783999)"><path fill="black" stroke="none" paint-order="stroke fill markers" d=" M 816.9353314112631 1143.4525031617331 L 802.2755335779298 1150.7824020783999 L 816.9353314112631 1158.1123009950666 Z"/></g></g><g><g><rect fill="white" stroke="none" x="588.2723391705339" y="1177.1700381783999" width="117.73992956375" height="22.86928462"/></g><text fill="black" stroke="none" font-family="sans-serif" font-size="11pt" font-style="normal" font-weight="normal" text-decoration="normal" x="590.9111027805338" y="1193.0026198383998" text-anchor="start" dominant-baseline="alphabetic">return bookings</text></g><g><path fill="none" stroke="black" paint-order="fill stroke markers" d=" M 784.6837761779298 1200.0393227983998 L 512.5327912935547 1200.0393227983998" stroke-miterlimit="10" stroke-width="1.4659797833333332" stroke-dasharray="7.0367029599999995"/><g transform="translate(509.60083172688803,1200.0393227983998) translate(-509.60083172688803,-1200.0393227983998)"><path fill="black" stroke="none" paint-order="stroke fill markers" d=" M 524.2606295602213 1192.709423881733 L 509.60083172688803 1200.0393227983998 L 524.2606295602213 1207.3692217150665 Z"/></g></g><g><g><rect fill="white" stroke="none" x="539.2136233502214" y="1226.4269588983998" width="126.03630102371093" height="22.86928462"/></g><text fill="black" stroke="none" font-family="sans-serif" font-size="11pt" font-style="normal" font-weight="normal" text-decoration="normal" x="541.8523869602213" y="1242.2595405583997" text-anchor="start" dominant-baseline="alphabetic">notifyObservers()</text></g><g><path fill="none" stroke="black" paint-order="fill stroke markers" d=" M 509.60083172688803 1249.2962435183997 L 588.7637400268881 1249.2962435183997 L 588.7637400268881 1266.8880009183997 L 521.3286699935547 1266.8880009183997" stroke-miterlimit="10" stroke-width="1.4659797833333332" stroke-dasharray=""/><g transform="translate(518.396710426888,1266.8880009183997) translate(-518.396710426888,-1266.8880009183997)"><path fill="black" stroke="none" paint-order="stroke fill markers" d=" M 533.0565082602213 1259.558102001733 L 518.396710426888 1266.8880009183997 L 533.0565082602213 1274.2178998350664 Z"/></g></g><g><g><rect fill="white" stroke="none" x="352.52803526451174" y="1293.2756370183997" width="64.72634924148437" height="22.86928462"/></g><text fill="black" stroke="none" font-family="sans-serif" font-size="11pt" font-style="normal" font-weight="normal" text-decoration="normal" x="355.16679887451176" y="1309.1082186783997" text-anchor="start" dominant-baseline="alphabetic">update()</text></g><g><path fill="none" stroke="black" paint-order="fill stroke markers" d=" M 500.80495302688803 1316.1449216383996 L 271.90942631028645 1316.1449216383996" stroke-miterlimit="10" stroke-width="1.4659797833333332" stroke-dasharray=""/><g transform="translate(268.9774667436198,1316.1449216383996) translate(-268.9774667436198,-1316.1449216383996)"><path fill="black" stroke="none" paint-order="stroke fill markers" d=" M 283.63726457695316 1308.815022721733 L 268.9774667436198 1316.1449216383996 L 283.63726457695316 1323.4748205550663 Z"/></g></g><g><g><rect fill="white" stroke="none" x="353.65109515894534" y="1342.5325577383996" width="71.27610815261718" height="22.86928462"/></g><text fill="black" stroke="none" font-family="sans-serif" font-size="11pt" font-style="normal" font-weight="normal" text-decoration="normal" x="356.28985876894535" y="1358.3651393983996" text-anchor="start" dominant-baseline="alphabetic">getDate()</text></g><g><path fill="none" stroke="black" paint-order="fill stroke markers" d=" M 268.9774667436198 1365.4018423583996 L 506.6688721602214 1365.4018423583996" stroke-miterlimit="10" stroke-width="1.4659797833333332" stroke-dasharray=""/><g transform="translate(509.60083172688803,1365.4018423583996) translate(-509.60083172688803,-1365.4018423583996)"><path fill="black" stroke="none" paint-order="stroke fill markers" d=" M 494.9410338935547 1358.0719434417329 L 509.60083172688803 1365.4018423583996 L 494.9410338935547 1372.7317412750663 Z"/></g></g><g><g><rect fill="white" stroke="none" x="347.33042407740237" y="1391.7894784583996" width="83.91745031570312" height="22.86928462"/></g><text fill="black" stroke="none" font-family="sans-serif" font-size="11pt" font-style="normal" font-weight="normal" text-decoration="normal" x="349.9691876874024" y="1407.6220601183995" text-anchor="start" dominant-baseline="alphabetic">return date</text></g><g><path fill="none" stroke="black" paint-order="fill stroke markers" d=" M 509.60083172688803 1414.6587630783995 L 271.90942631028645 1414.6587630783995" stroke-miterlimit="10" stroke-width="1.4659797833333332" stroke-dasharray="7.0367029599999995"/><g transform="translate(268.9774667436198,1414.6587630783995) translate(-268.9774667436198,-1414.6587630783995)"><path fill="black" stroke="none" paint-order="stroke fill markers" d=" M 283.63726457695316 1407.3288641617328 L 268.9774667436198 1414.6587630783995 L 283.63726457695316 1421.9886619950662 Z"/></g></g><g><g><rect fill="white" stroke="none" x="337.71694446314456" y="1441.0463991783995" width="103.14440954421875" height="22.86928462"/></g><text fill="black" stroke="none" font-family="sans-serif" font-size="11pt" font-style="normal" font-weight="normal" text-decoration="normal" x="340.35570807314457" y="1456.8789808383995" text-anchor="start" dominant-baseline="alphabetic">getBookings()</text></g><g><path fill="none" stroke="black" paint-order="fill stroke markers" d=" M 268.9774667436198 1463.9156837983994 L 506.6688721602214 1463.9156837983994" stroke-miterlimit="10" stroke-width="1.4659797833333332" stroke-dasharray=""/><g transform="translate(509.60083172688803,1463.9156837983994) translate(-509.60083172688803,-1463.9156837983994)"><path fill="black" stroke="none" paint-order="stroke fill markers" d=" M 494.9410338935547 1456.5857848817327 L 509.60083172688803 1463.9156837983994 L 494.9410338935547 1471.2455827150661 Z"/></g></g><g><g><rect fill="white" stroke="none" x="330.41918445337893" y="1490.3033198983994" width="117.73992956375" height="22.86928462"/></g><text fill="black" stroke="none" font-family="sans-serif" font-size="11pt" font-style="normal" font-weight="normal" text-decoration="normal" x="333.05794806337894" y="1506.1359015583994" text-anchor="start" dominant-baseline="alphabetic">return bookings</text></g><g><path fill="none" stroke="black" paint-order="fill stroke markers" d=" M 509.60083172688803 1513.1726045183993 L 271.90942631028645 1513.1726045183993" stroke-miterlimit="10" stroke-width="1.4659797833333332" stroke-dasharray="7.0367029599999995"/><g transform="translate(268.9774667436198,1513.1726045183993) translate(-268.9774667436198,-1513.1726045183993)"><path fill="black" stroke="none" paint-order="stroke fill markers" d=" M 283.63726457695316 1505.8427056017326 L 268.9774667436198 1513.1726045183993 L 283.63726457695316 1520.502503435066 Z"/></g></g><g><g><rect fill="white" stroke="none" x="382.25244627525393" y="1539.5602406183993" width="5.27752722" height="22.86928462"/></g><text fill="black" stroke="none" font-family="sans-serif" font-size="11pt" font-style="normal" font-weight="normal" text-decoration="normal" x="384.89120988525394" y="1555.3928222783993" text-anchor="start" dominant-baseline="alphabetic"></text></g><g><path fill="none" stroke="black" paint-order="fill stroke markers" d=" M 268.9774667436198 1562.4295252383993 L 497.8729934602214 1562.4295252383993" stroke-miterlimit="10" stroke-width="1.4659797833333332" stroke-dasharray="7.0367029599999995"/><g transform="translate(500.80495302688803,1562.4295252383993) translate(-500.80495302688803,-1562.4295252383993)"><path fill="black" stroke="none" paint-order="stroke fill markers" d=" M 486.1451551935547 1555.0996263217326 L 500.80495302688803 1562.4295252383993 L 486.1451551935547 1569.759424155066 Z"/></g></g><g><g><rect fill="white" stroke="none" x="539.2136233502214" y="1588.8171613383993" width="5.27752722" height="22.86928462"/></g><text fill="black" stroke="none" font-family="sans-serif" font-size="11pt" font-style="normal" font-weight="normal" text-decoration="normal" x="541.8523869602213" y="1604.6497429983992" text-anchor="start" dominant-baseline="alphabetic"></text></g><g><path fill="none" stroke="black" paint-order="fill stroke markers" d=" M 518.396710426888 1611.6864459583992 L 588.7637400268881 1611.6864459583992 L 588.7637400268881 1629.2782033583992 L 521.3286699935547 1629.2782033583992" stroke-miterlimit="10" stroke-width="1.4659797833333332" stroke-dasharray="7.0367029599999995"/><g transform="translate(518.396710426888,1629.2782033583992) translate(-518.396710426888,-1629.2782033583992)"><path fill="black" stroke="none" paint-order="stroke fill markers" d=" M 533.0565082602213 1621.9483044417325 L 518.396710426888 1629.2782033583992 L 533.0565082602213 1636.608102275066 Z"/></g></g><g><g><rect fill="white" stroke="none" x="373.4565675752539" y="1655.6658394583992" width="5.27752722" height="22.86928462"/></g><text fill="black" stroke="none" font-family="sans-serif" font-size="11pt" font-style="normal" font-weight="normal" text-decoration="normal" x="376.09533118525394" y="1671.4984211183992" text-anchor="start" dominant-baseline="alphabetic"></text></g><g><path fill="none" stroke="black" paint-order="fill stroke markers" d=" M 492.009074326888 1678.5351240783991 L 263.11354761028645 1678.5351240783991" stroke-miterlimit="10" stroke-width="1.4659797833333332" stroke-dasharray="7.0367029599999995"/><g transform="translate(260.1815880436198,1678.5351240783991) translate(-260.1815880436198,-1678.5351240783991)"><path fill="black" stroke="none" paint-order="stroke fill markers" d=" M 274.84138587695315 1671.2052251617324 L 260.1815880436198 1678.5351240783991 L 274.84138587695315 1685.8650229950658 Z"/></g></g><g><g><rect fill="white" stroke="none" x="131.10169085429035" y="1704.9227601783991" width="5.27752722" height="22.86928462"/></g><text fill="black" stroke="none" font-family="sans-serif" font-size="11pt" font-style="normal" font-weight="normal" text-decoration="normal" x="133.74045446429037" y="1720.755341838399" text-anchor="start" dominant-baseline="alphabetic"></text></g><g><path fill="none" stroke="black" paint-order="fill stroke markers" d=" M 242.5898306436198 1727.792044798399 L 27.823037851627603 1727.792044798399" stroke-miterlimit="10" stroke-width="1.4659797833333332" stroke-dasharray="7.0367029599999995"/><g transform="translate(24.891078284960937,1727.792044798399) translate(-24.891078284960937,-1727.792044798399)"><path fill="black" stroke="none" paint-order="stroke fill markers" d=" M 39.55087611829427 1720.4621458817323 L 24.891078284960937 1727.792044798399 L 39.55087611829427 1735.1219437150658 Z"/></g></g><g><g/><path fill="none" stroke="black" paint-order="fill stroke markers" d=" M 998.1955697289713 421.1466721559999 L 1964.6682378612409 421.1466721559999 L 1964.6682378612409 723.5137983471999 L 998.1955697289713 723.5137983471999 L 998.1955697289713 421.1466721559999 Z" stroke-miterlimit="10" stroke-width="2.5131082" stroke-dasharray=""/><path fill="white" stroke="black" paint-order="fill stroke markers" d=" M 998.1955697289713 421.1466721559999 L 998.1955697289713 442.2567810359999 L 1060.0808514967448 442.2567810359999 L 1070.6359059367448 431.7017265959999 L 1070.6359059367448 421.1466721559999 L 998.1955697289713 421.1466721559999" stroke-miterlimit="10" stroke-width="2.5131082" stroke-dasharray=""/><text fill="black" stroke="none" font-family="sans-serif" font-size="8.8pt" font-style="normal" font-weight="bold" text-decoration="normal" x="1015.7873271289714" y="435.2200780759999" text-anchor="start" dominant-baseline="alphabetic">loop</text><text fill="black" stroke="none" font-family="sans-serif" font-size="8.8pt" font-style="normal" font-weight="bold" text-decoration="normal" x="1088.2276633367449" y="435.2200780759999" text-anchor="start" dominant-baseline="alphabetic">[for every row returned for bookings of checked-in status]</text></g><g><g/><path fill="none" stroke="black" paint-order="fill stroke markers" d=" M 998.1955697289713 799.1583551671999 L 2099.1390083227643 799.1583551671999 L 2099.1390083227643 1101.5254813584 L 998.1955697289713 1101.5254813584 L 998.1955697289713 799.1583551671999 Z" stroke-miterlimit="10" stroke-width="2.5131082" stroke-dasharray=""/><path fill="white" stroke="black" paint-order="fill stroke markers" d=" M 998.1955697289713 799.1583551671999 L 998.1955697289713 820.2684640471999 L 1060.0808514967448 820.2684640471999 L 1070.6359059367448 809.7134096072 L 1070.6359059367448 799.1583551671999 L 998.1955697289713 799.1583551671999" stroke-miterlimit="10" stroke-width="2.5131082" stroke-dasharray=""/><text fill="black" stroke="none" font-family="sans-serif" font-size="8.8pt" font-style="normal" font-weight="bold" text-decoration="normal" x="1015.7873271289714" y="813.2317610872" text-anchor="start" dominant-baseline="alphabetic">loop</text><text fill="black" stroke="none" font-family="sans-serif" font-size="8.8pt" font-style="normal" font-weight="bold" text-decoration="normal" x="1088.2276633367449" y="813.2317610872" text-anchor="start" dominant-baseline="alphabetic">[for every row returned for walk-ins]</text></g></g><g/><g/><g/><g/><g/><g/><g/><g/></g></svg>