<svg version="1.1" xmlns="http://www.w3.org/2000/svg" xmlns:xlink="http://www.w3.org/1999/xlink" width="1720" height="1627"><defs/><g><g/><g/><g/><g/><g/><g/><g/><g/><g/><g/><g/><g/><g/><g/><g/><g/><g/><g/><g/><g/><g/><g/><g/><g/><g/><g/><g><rect fill="white" stroke="none" x="0" y="0" width="1720" height="1627"/></g><g><text fill="black" stroke="none" font-family="sans-serif" font-size="16.5pt" font-style="normal" font-weight="normal" text-decoration="normal" x="743.28198522664" y="26.3876361" text-anchor="start" dominant-baseline="alphabetic">Modify a Booking BCE</text></g><g/><g><path fill="none" stroke="black" paint-order="fill stroke markers" d=" M 24.891078284960937 139.67855375599999 L 24.891078284960937 1627.9412297959998" stroke-miterlimit="10" stroke-width="1.4659797833333332" stroke-dasharray="13.532121076923076,5.863919133333333"/><path fill="none" stroke="black" paint-order="fill stroke markers" d=" M 335.730725823112 139.67855375599999 L 335.730725823112 1627.9412297959998" stroke-miterlimit="10" stroke-width="1.4659797833333332" stroke-dasharray="13.532121076923076,5.863919133333333"/><path fill="none" stroke="black" paint-order="fill stroke markers" d=" M 674.3283187116537 139.67855375599999 L 674.3283187116537 1627.9412297959998" stroke-miterlimit="10" stroke-width="1.4659797833333332" stroke-dasharray="13.532121076923076,5.863919133333333"/><path fill="none" stroke="black" paint-order="fill stroke markers" d=" M 984.5794913121094 139.67855375599999 L 984.5794913121094 1627.9412297959998" stroke-miterlimit="10" stroke-width="1.4659797833333332" stroke-dasharray="13.532121076923076,5.863919133333333"/><path fill="none" stroke="black" paint-order="fill stroke markers" d=" M 1120.3205766092735 139.67855375599999 L 1120.3205766092735 1627.9412297959998" stroke-miterlimit="10" stroke-width="1.4659797833333332" stroke-dasharray="13.532121076923076,5.863919133333333"/><path fill="none" stroke="black" paint-order="fill stroke markers" d=" M 1264.286723657711 139.67855375599999 L 1264.286723657711 1627.9412297959998" stroke-miterlimit="10" stroke-width="1.4659797833333332" stroke-dasharray="13.532121076923076,5.863919133333333"/><path fill="none" stroke="black" paint-order="fill stroke markers" d=" M 1422.6119382883712 139.67855375599999 L 1422.6119382883712 1627.9412297959998" stroke-miterlimit="10" stroke-width="1.4659797833333332" stroke-dasharray="13.532121076923076,5.863919133333333"/><path fill="none" stroke="black" paint-order="fill stroke markers" d=" M 1676.80723320328 139.67855375599999 L 1676.80723320328 1627.9412297959998" stroke-miterlimit="10" stroke-width="1.4659797833333332" stroke-dasharray="13.532121076923076,5.863919133333333"/></g><g><g><path fill="white" stroke="black" paint-order="fill stroke markers" d=" M 34.91838000296094 65.265419954 A 10.027301717999999 10.027301717999999 0 1 1 34.91837498931049 65.25539265395321 M 24.891078284960937 75.29272167199998 L 24.891078284960937 96.75466569999998 M 12.225012956960938 83.033094928 L 37.557143612960935 83.033094928 M 24.891078284960937 96.75466569999998 L 12.225012956960938 116.80926913599998 M 24.891078284960937 96.75466569999998 L 37.557143612960935 116.80926913599998" stroke-miterlimit="10" stroke-width="2.990598758" stroke-dasharray=""/></g><g><g/><text fill="black" stroke="none" font-family="sans-serif" font-size="11pt" font-style="normal" font-weight="normal" text-decoration="normal" x="8.7958787" y="134.401026536" text-anchor="start" dominant-baseline="alphabetic">Staff</text></g><g><path fill="white" stroke="black" paint-order="fill stroke markers" d=" M 370.65036426211196 89.19021001799997 A 26.123759739 26.123759739 0 1 1 370.6503512002332 89.16408626261492 M 302.306386763112 61.57115089999997 L 302.306386763112 116.80926913599997 M 300.811087384112 89.19021001799997 L 318.402844784112 89.19021001799997" stroke-miterlimit="10" stroke-width="2.990598758" stroke-dasharray=""/></g><g><g/><text fill="black" stroke="none" font-family="sans-serif" font-size="11pt" font-style="normal" font-weight="normal" text-decoration="normal" x="312.0084663016276" y="134.401026536" text-anchor="start" dominant-baseline="alphabetic">StaffUI</text></g><g><path fill="white" stroke="black" paint-order="fill stroke markers" d=" M 700.4520784506536 89.19021001799997 A 26.123759739 26.123759739 0 1 1 700.4520653887748 89.16408626261492 M 670.8099672316537 63.06645027899997 L 681.3650216716537 54.27057157899998 M 670.8099672316537 63.06645027899997 L 681.3650216716537 71.86232897899997" stroke-miterlimit="10" stroke-width="2.990598758" stroke-dasharray=""/></g><g><g/><text fill="black" stroke="none" font-family="sans-serif" font-size="11pt" font-style="normal" font-weight="normal" text-decoration="normal" x="620.0011779035482" y="134.401026536" text-anchor="start" dominant-baseline="alphabetic">BookingSystem</text></g><path fill="none" stroke="none"/><g><path fill="white" stroke="black" paint-order="fill stroke markers" d=" M 927.7580137567422 92.18080877599999 L 1041.4009688674766 92.18080877599999 L 1041.4009688674766 139.67855375599999 L 927.7580137567422 139.67855375599999 L 927.7580137567422 92.18080877599999 Z" stroke-miterlimit="10" stroke-width="2.814681184" stroke-dasharray=""/></g><g><g/><text fill="black" stroke="none" font-family="sans-serif" font-size="11pt" font-style="normal" font-weight="normal" text-decoration="normal" x="946.8450705357423" y="122.08679635600001" text-anchor="start" dominant-baseline="alphabetic">Restaurant</text></g><g><path fill="white" stroke="black" paint-order="fill stroke markers" d=" M 1146.4443363482735 86.79773101159998 A 26.123759739 26.123759739 0 1 1 1146.4443232863948 86.77160725621492 M 1092.7015174912735 115.31396975699997 L 1144.9490369692735 115.31396975699997" stroke-miterlimit="10" stroke-width="2.990598758" stroke-dasharray=""/></g><g><g/><text fill="black" stroke="none" font-family="sans-serif" font-size="11pt" font-style="normal" font-weight="normal" text-decoration="normal" x="1058.9927262674767" y="134.401026536" text-anchor="start" dominant-baseline="alphabetic">Booking (current)</text></g><g><path fill="white" stroke="black" paint-order="fill stroke markers" d=" M 1290.410483396711 86.79773101159998 A 26.123759739 26.123759739 0 1 1 1290.4104703348323 86.77160725621492 M 1236.667664539711 115.31396975699997 L 1288.915184017711 115.31396975699997" stroke-miterlimit="10" stroke-width="2.990598758" stroke-dasharray=""/></g><g><g/><text fill="black" stroke="none" font-family="sans-serif" font-size="11pt" font-style="normal" font-weight="normal" text-decoration="normal" x="1199.2401843510704" y="134.401026536" text-anchor="start" dominant-baseline="alphabetic">Booking (selected)</text></g><path fill="none" stroke="none"/><g><path fill="white" stroke="black" paint-order="fill stroke markers" d=" M 1346.9250203643517 92.18080877599999 L 1498.2988562123908 92.18080877599999 L 1498.2988562123908 139.67855375599999 L 1346.9250203643517 139.67855375599999 L 1346.9250203643517 92.18080877599999 Z" stroke-miterlimit="10" stroke-width="2.814681184" stroke-dasharray=""/></g><g><g/><text fill="black" stroke="none" font-family="sans-serif" font-size="11pt" font-style="normal" font-weight="normal" text-decoration="normal" x="1366.0120771433517" y="122.08679635600001" text-anchor="start" dominant-baseline="alphabetic">BookingMapper</text></g><g><path fill="white" stroke="black" paint-order="fill stroke markers" d=" M 1651.12326739928 105.19870925199999 L 1651.12326739928 68.25601871199999 L 1702.49119900728 68.25601871199999 L 1702.49119900728 105.19870925199999" stroke-miterlimit="10" stroke-width="2.990598758" stroke-dasharray=""/><path fill="white" stroke="black" paint-order="fill stroke markers" d=" M 1702.49119900728 66.97182042179999 L 1702.4899148196914 67.08792408555635 L 1702.4860623853433 67.20401613904309 L 1702.479642089476 67.3200849731516 L 1702.4706545741137 67.43611898109519 L 1702.4591007380004 67.55210655956978 L 1702.44498173651 67.66803610991414 L 1702.4282989815313 67.78389603926989 L 1702.4090541413254 67.8996747617406 L 1702.3872491403604 68.01536069955054 L 1702.3628861591185 68.1309422842023 L 1702.335967633877 68.24640795763378 L 1702.3064962564665 68.3617461733738 L 1702.2744749740002 68.47694539769695 L 1702.2399069885792 68.59199411077678 L 1702.2027957569735 68.70688080783783 L 1702.1631449902754 68.82159400030618 L 1702.1209586535285 68.93612221695814 L 1702.0762409653312 69.0504540050675 L 1702.028996397415 69.16457793155072 L 1701.9792296741978 69.27848258411025 L 1701.9269457723099 69.39215657237577 L 1701.872149920098 69.50558852904317 L 1701.814847597102 69.61876711101131 L 1701.7550445335062 69.73168100051632 L 1701.692746709567 69.84431890626333 L 1701.6279603550151 69.95666956455563 L 1701.560691948432 70.06872174042103 L 1701.4909482166022 70.18046422873529 L 1701.4187361338406 70.29188585534273 L 1701.3440629212955 70.40297547817353 L 1701.266936046226 70.51372198835797 L 1701.187363221255 70.62411431133734 L 1701.1053524035992 70.73414140797132 L 1701.0209117942716 70.84379227564195 L 1700.9340498372628 70.95305594935381 L 1700.8447752186962 71.06192150283061 L 1700.7530968659594 71.1703780496077 L 1700.6590239468112 71.27841474412082 L 1700.562565868465 71.38602078279051 L 1700.4637322766484 71.4931854051026 L 1700.362533054638 71.59989789468413 L 1700.258978322272 71.7061475803751 L 1700.153078434937 71.81192383729548 L 1700.0448439825336 71.9172160879077 L 1699.9342857884171 72.02201380307447 L 1699.8214149083144 72.12630650311159 L 1699.7062426292196 72.23008375883597 L 1699.5887804682648 72.33333519260853 L 1699.469040171568 72.43605047937191 L 1699.347033713059 72.53821934768304 L 1699.2227732932822 72.63983158074024 L 1699.0962713381762 72.74087701740487 L 1698.9675404978304 72.84134555321748 L 1698.8365936452224 72.94122714140819 L 1698.7034438749279 73.04051179390143 L 1698.5681045018127 73.13918958231469 L 1698.430589059702 73.23725063895135 L 1698.2909113000248 73.33468515778748 L 1698.1490851904412 73.43148339545236 L 1698.0051249134435 73.52763567220293 L 1697.8590448649397 73.6231323728916 L 1697.7108596528128 73.71796394792793 L 1697.5605840954606 73.8121209142334 L 1697.4082332203136 73.90559385618985 L 1697.2538222623323 73.998373426581 L 1697.097366662484 74.09045034752711 L 1696.938882066198 74.18181541141281 L 1696.7783843218022 74.27245948180787 L 1696.6158894789369 74.36237349438078 L 1696.4514137869514 74.45154845780519 L 1696.2849736932776 74.53997545465909 L 1696.116585841786 74.62764564231648 L 1695.9462670711218 74.71455025383165 L 1695.77403441302 74.80068059881587 L 1695.5999050906028 74.88602806430642 L 1695.4238965166571 74.97058411562787 L 1695.2460262918942 75.05434029724555 L 1695.066312203188 75.13728823361109 L 1694.8847722217977 75.21941962999999 L 1694.70142450157 75.30072627334106 L 1694.5162873771242 75.38120003303769 L 1694.3293793620187 75.46083286178099 L 1694.1407191468988 75.53961679635444 L 1693.9503255976294 75.61754395843025 L 1693.7582177534061 75.69460655535714 L 1693.5644148248539 75.77079688093964 L 1693.3689361921035 75.84610731620869 L 1693.1718014028559 75.9205303301835 L 1692.973030170425 75.99405848062472 L 1692.7726423717693 76.06668441477855 L 1692.570658045501 76.13840087011211 L 1692.3670973898845 76.20920067503964 L 1692.161980760816 76.27907674963963 L 1691.9553286697874 76.34802210636286 L 1691.7471617818355 76.4160298507311 L 1691.5375009134755 76.48309318202661 L 1691.3263670306198 76.54920539397213 L 1691.1137812464806 76.61435987540155 L 1690.899764819459 76.67855011092104 L 1690.6843391510197 76.74176968156053 L 1690.4675257835497 76.80401226541565 L 1690.2493463982053 76.86527163827986 L 1690.029822812743 76.92554167426694 L 1689.8089769793387 76.98481634642351 L 1689.5868309823916 77.04308972733178 L 1689.3634070363162 77.10035598970217 L 1689.1387274833207 77.15660940695618 L 1688.9128147911736 77.21184435379898 L 1688.6856915509557 77.26605530678191 L 1688.4573804748015 77.31923684485484 L 1688.2279043936287 77.37138364990828 L 1687.997286254854 77.42249050730518 L 1687.7655491200994 77.4725523064024 L 1687.5327161628848 77.52156404106174 L 1687.2988106663122 77.56952081015058 L 1687.0638560207362 77.61641781803196 L 1686.8278757214257 77.6622503750442 L 1686.5908933662138 77.70701389796976 L 1686.3529326531386 77.75070391049368 L 1686.1140173780732 77.7933160436511 L 1685.8741714323457 77.83484603626422 L 1685.6334188003514 77.87528973536838 L 1685.3917835571524 77.91464309662739 L 1685.1492898660717 77.9529021847379 L 1684.9059619762766 77.99006317382297 L 1684.661824220353 78.02612234781469 L 1684.416901011873 78.0610761008257 L 1684.1712168429538 78.09492093750981 L 1683.9247962818072 78.12765347341158 L 1683.677663970284 78.15927043530469 L 1683.4298446214093 78.18976866151928 L 1683.1813630169117 78.21914510225817 L 1682.9322440047447 78.24739681990175 L 1682.6825124966015 78.27452098930179 L 1682.432193465425 78.30051489806398 L 1682.1813119429098 78.32537594681908 L 1681.929893016999 78.34910164948295 L 1681.6779618293758 78.37168963350508 L 1681.4255435729488 78.39313764010592 L 1681.1726634893334 78.41344352450264 L 1680.9193468663273 78.43260525612375 L 1680.6656190353815 78.45062091881205 L 1680.411505369068 78.46748871101629 L 1680.1570312785414 78.48320694597129 L 1679.9022222109988 78.49777405186667 L 1679.6471036471344 78.51118857200397 L 1679.3917010985924 78.52344916494236 L 1679.1360401054144 78.53455460463276 L 1678.880146233487 78.54450378054045 L 1678.624045071984 78.55329569775614 L 1678.367762230808 78.56092947709544 L 1678.1113233380297 78.56740435518677 L 1677.8547540373247 78.57271968454769 L 1677.5980799854094 78.57687493364975 L 1677.3413268494746 78.57986968697145 L 1677.0845203046206 78.58170364504 L 1676.8276860312874 78.58237662446106 L 1676.5708497126882 78.58188855793732 L 1676.3140370322415 78.58023949427498 L 1676.0572736710005 78.57742959837903 L 1675.800585305088 78.57345915123673 L 1675.5439976031264 78.56832854988951 L 1675.287536223672 78.56203830739318 L 1675.0312268126495 78.5545890527668 L 1674.7750950007858 78.54598153092958 L 1674.519166401049 78.53621660262655 L 1674.2634666060856 78.5252952443424 L 1674.008021185662 78.51321854820387 L 1673.7528556841078 78.4999877218705 L 1673.4979956177601 78.48560408841388 L 1673.2434664724133 78.4700690861854 L 1672.9892937007696 78.45338426867232 L 1672.7355027198946 78.4355513043425 L 1672.482118908675 78.41657197647748 L 1672.2291676052805 78.39644818299428 L 1671.9766741046308 78.37518193625543 L 1671.7246636558655 78.35277536286792 L 1671.4731614598195 78.32923070347039 L 1671.222192666503 78.30455031250918 L 1670.9717823725855 78.2787366580028 L 1670.7219556188886 78.2517923212952 L 1670.4727373878789 78.2237199967976 L 1670.2241526011721 78.19452249171906 L 1669.9762261170397 78.16420272578573 L 1669.7289827279233 78.13276373094897 L 1669.482447157956 78.10020865108203 L 1669.2366440604892 78.0665407416658 L 1668.991598015628 78.03176336946316 L 1668.7473335277723 77.99588001218234 L 1668.503875023168 77.95889425812916 L 1668.2612468474617 77.92080980584822 L 1668.0194732632697 77.881630463753 L 1667.7785784477487 77.84136014974506 L 1667.5385864901791 77.80000289082224 L 1667.2995213895572 77.75756282267598 L 1667.0614070521935 77.71404418927773 L 1666.8242672893234 77.66945134245454 L 1666.5881258147258 77.62378874145395 L 1666.353006242351 77.57706095249802 L 1666.1189320839603 77.52927264832667 L 1665.8859267467749 77.48042860773052 L 1665.654013531134 77.43053371507293 L 1665.423215628166 77.37959295980157 L 1665.193556117469 77.32761143594954 L 1664.9650579648023 77.27459434162587 L 1664.737744019791 77.22054697849586 L 1664.5116370136404 77.16547475125074 L 1664.2867595568623 77.10938316706736 L 1664.0631341370151 77.0522778350574 L 1663.8407831164548 76.99416446570646 L 1663.6197287300974 76.93504887030305 L 1663.399993083198 76.87493696035746 L 1663.181598149138 76.81383474701059 L 1662.9645657672288 76.75174834043284 L 1662.7489176405275 76.68868394921314 L 1662.5346753336673 76.62464787973806 L 1662.3218602707004 76.5596465355612 L 1662.1104937329555 76.49368641676277 L 1661.9005968569106 76.42677411929971 L 1661.6921906320779 76.358916334346 L 1661.4852958989068 76.2901198476236 L 1661.2799333466976 76.22039153872383 L 1661.076123511535 76.14973838041949 L 1660.8738867742322 76.07816743796754 L 1660.6732433582945 76.00568586840255 L 1660.4742133278965 75.9323009198211 L 1660.276816585875 75.8580199306569 L 1660.0810728717402 75.78285032894695 L 1659.8870017596998 75.70679963158878 L 1659.694622656704 75.62987544358876 L 1659.5039548005022 75.55208545730159 L 1659.3150172577214 75.47343745166106 L 1659.1278289219583 75.3939392914022 L 1658.9424085118906 75.31359892627479 L 1658.7587745694045 75.2324243902484 L 1658.5769454577417 75.15042380070896 L 1658.3969393596615 75.06760535764712 L 1658.218774275624 74.98397734283817 L 1658.0424680219887 74.89954811901389 L 1657.8680382292343 74.8143261290263 L 1657.6955023401947 74.72831989500338 L 1657.5248776083151 74.64153801749687 L 1657.3561810959263 74.5539891746222 L 1657.1894296725393 74.46568212119071 L 1657.024640013157 74.37662568783415 L 1656.8618285966086 74.28682878012162 L 1656.7010117038994 74.19630037766909 L 1656.5422054165851 74.10504953324134 L 1656.3854256151621 74.0130853718468 L 1656.2306879774799 73.92041708982494 L 1656.078007977173 73.82705395392676 L 1655.9274008821144 73.73300530038806 L 1655.7788817528883 73.63828053399578 L 1655.6324654412836 73.54288912714766 L 1655.4881665888095 73.44684061890487 L 1655.345999625231 73.3501446140382 L 1655.205978767126 73.25281078206757 L 1655.0681180164636 73.15484885629505 L 1654.932431159204 73.05626863283157 L 1654.7989317639199 72.95707996961737 L 1654.6676331804397 72.85729278543607 L 1654.538548538512 72.75691705892295 L 1654.4116907464936 72.65596282756702 L 1654.287072490058 72.5544401867073 L 1654.164706230927 72.45235928852324 L 1654.0446042056246 72.34973034101961 L 1653.9267784242531 72.24656360700563 L 1653.8112406692926 72.14286940306874 L 1653.698002494422 72.03865809854291 L 1653.587075223365 71.93394011447177 L 1653.4784699487557 71.82872592256643 L 1653.3721975310314 71.72302604415843 L 1653.268268597345 71.61685104914753 L 1653.1666935405037 71.51021155494473 L 1653.067482517928 71.4031182254106 L 1652.9706454506381 71.29558176978884 L 1652.8761920222596 71.1876129416354 L 1652.7841316780566 71.07922253774314 L 1652.694473623987 70.9704213970621 L 1652.6072268257815 70.86122039961568 L 1652.522400008047 70.75163046541265 L 1652.440001653395 70.64166255335508 L 1652.3600400015919 70.53132766014255 L 1652.2825230487363 70.42063681917243 L 1652.2074585464588 70.30960109943658 L 1652.1348540011477 70.19823160441445 L 1652.0647166731962 70.0865394709627 L 1651.997053576279 69.97453586820164 L 1651.9318714766496 69.86223199639821 L 1651.8691768924634 69.74963908584596 L 1651.8089760931266 69.63676839574217 L 1651.751275098669 69.52363121306175 L 1651.6960796791423 69.41023885142872 L 1651.6433953540418 69.29660264998472 L 1651.5932273917563 69.18273397225522 L 1651.5455808090405 69.0686442050131 L 1651.5004603705129 68.95434475714 L 1651.4578705881795 68.83984705848547 L 1651.4178157209833 68.72516255872397 L 1651.3802997743776 68.61030272620987 L 1651.3453264999257 68.49527904683073 L 1651.312899394926 68.38010302285863 L 1651.283021702062 68.2647861718 L 1651.255696409078 68.14934002524383 L 1651.2309262484803 68.03377612770858 L 1651.2087136972648 67.9181060354877 L 1651.1890609766676 67.80234131549402 L 1651.171970051945 67.68649354410306 L 1651.1574426321747 67.57057430599544 L 1651.1454801700868 67.45459519299835 L 1651.1360838619173 67.33856780292646 L 1651.1292546472896 67.22250373842208 L 1651.1249932091193 67.10641460579494 L 1651.1232999735466 66.99031201386155 L 1651.1241751098935 66.87420757278437 L 1651.1276185306474 66.75811289291076 L 1651.133629891469 66.64203958361193 L 1651.142208591227 66.52599925212212 L 1651.1533537720588 66.41000350237775 L 1651.1670643194557 66.29406393385715 L 1651.183338862374 66.17819214042055 L 1651.2021757733735 66.06239970915072 L 1651.2235731687786 65.94669821919432 L 1651.2475289088673 65.8310992406039 L 1651.2740405980855 65.71561433318102 L 1651.303105585287 65.60025504532017 L 1651.334720963997 65.48503291285398 L 1651.3688835727035 65.36995945789971 L 1651.4055899951748 65.25504618770695 L 1651.4448365607989 65.14030459350695 L 1651.4866193449518 65.02574614936354 L 1651.5309341693903 64.91138231102563 L 1651.5777766026688 64.79722451478179 L 1651.6271419605825 64.68328417631649 L 1651.6790253066374 64.56957268956862 L 1651.7334214525417 64.45610142559212 L 1651.7903249587266 64.3428817314188 L 1651.8497301348884 64.22992492892377 L 1651.911631040559 64.1172423136931 L 1651.9760214857 64.00484515389444 L 1652.0428950313199 63.89274468915009 L 1652.1122449901202 63.78095212941312 L 1652.1840644271626 63.66947865384635 L 1652.2583461605636 63.558335409704426 L 1652.3350827622114 63.447533511219156 L 1652.4142665585098 63.337084038488044 L 1652.4958896311455 63.226998036366325 L 1652.5799438178788 63.11728651336247 L 1652.6664207133615 63.00796044053737 L 1652.7553116699758 62.899030750407185 L 1652.8466077987002 62.790508335850156 L 1652.940299969998 62.682404049017315 L 1653.0363788147301 62.57472870024724 L 1653.134834725092 62.4674930569851 L 1653.235657855575 62.36070784270584 L 1653.3388381239497 62.25438373584191 L 1653.4443652122754 62.148531368715396 L 1653.5522285679313 62.04316132647479 L 1653.6624174046715 61.938284146036516 L 1653.7749207037043 61.83391031503122 L 1653.8897272147935 61.73005027075502 L 1654.0068254573837 61.6267143991258 L 1654.1262037217482 61.52391303364461 L 1654.2478500701602 61.42165645436233 L 1654.371752338086 61.31995488685167 L 1654.497898135402 61.21881850118463 L 1654.626274847634 61.1182574109155 L 1654.7568696372173 61.018281672069506 L 1654.8896694447822 60.91890128213721 L 1655.0246609904582 60.82012617907481 L 1655.1618307752033 60.72196624031029 L 1655.3011650821536 60.62443128175571 L 1655.4426499779943 60.52753105682567 L 1655.5862713143538 60.431275255461905 L 1655.732014729218 60.33567350316434 L 1655.879865648367 60.24073536002853 L 1656.0298092868322 60.14647031978968 L 1656.1818306503744 60.05288780887326 L 1656.3359145369843 59.959997185452366 L 1656.4920455384015 59.86780773851195 L 1656.6502080416558 59.77632868691987 L 1656.8103862306289 59.68556917850505 L 1656.972564087635 59.59553828914271 L 1657.136725395024 59.50624502184675 L 1657.3028537368018 59.41769830586949 L 1657.4709325002727 59.32990699580875 L 1657.6409448777003 59.24287987072236 L 1657.8128738679886 59.15662563325033 L 1657.986702278382 59.0711529087445 L 1658.162412726184 58.986470244406114 L 1658.3399876404965 58.90258610843103 L 1658.5194092639758 58.81950888916295 L 1658.7006596546094 58.737246894254554 L 1658.8837206875091 58.65580834983679 L 1659.0685740567242 58.57520139969624 L 1659.2552012770716 58.49543410446074 L 1659.443583685985 58.41651444079334 L 1659.6337024453805 58.33845030059465 L 1659.8255385435407 58.26124949021362 L 1660.0190727970155 58.18491972966697 L 1660.2142858525408 58.10946865186714 L 1660.4111581889736 58.03490380185903 L 1660.6096701192446 57.96123263606552 L 1660.8098017923262 57.88846252154177 L 1661.0115331952177 57.816600735238616 L 1661.2148441549468 57.74565446327479 L 1661.4197143405872 57.67563080021837 L 1661.626123265291 57.60653674837731 L 1661.8340502883377 57.53837921709922 L 1662.0434746171984 57.47116502208042 L 1662.2543753096145 57.40490088468441 L 1662.4667312756926 57.3395934312697 L 1662.6805212800132 57.27524919252721 L 1662.8957239437536 57.21187460282721 L 1663.1123177468273 57.14947599957584 L 1663.3302810300343 57.088059622581426 L 1663.549591997228 57.02763161343051 L 1663.770228717494 56.96819801487362 L 1663.9921691273446 56.9097647702211 L 1664.2153910329234 56.85233772274873 L 1664.4398721122263 56.79592261511338 L 1664.6655899173322 56.74052508877882 L 1664.8925218766487 56.6861506834515 L 1665.120645297169 56.63280483652666 L 1665.349937366741 56.58049288254453 L 1665.580375156349 56.52922005265691 L 1665.8119356224058 56.47899147410408 L 1666.0445956090582 56.42981216970201 L 1666.2783318505012 56.38168705734017 L 1666.5131209733054 56.334620949489704 L 1666.748939498754 56.28861855272216 L 1666.9857638451915 56.24368446723889 L 1667.22357033038 56.199823186410995 L 1667.4623351738696 56.157039096329996 L 1667.7020344993746 56.11533647536926 L 1667.9426443371624 56.07471949375613 L 1668.1841406264498 56.035192213154914 L 1668.426499217809 55.99675858626073 L 1668.6696958755826 55.959422456404255 L 1668.913706280308 55.923187557167346 L 1669.1585060311475 55.88805751200974 L 1669.4040706483304 55.85403583390668 L 1669.6503755755996 55.82112592499761 L 1669.8973961826675 55.78933107624601 L 1670.1451077676793 55.758654467110254 L 1670.3934855596829 55.72909916522569 L 1670.642504721106 55.70066812609789 L 1670.8921403502402 55.67336419280706 L 1671.1423674837304 55.64719009572377 L 1671.3931610990717 55.62214845223594 L 1671.6444961171119 55.598241766487035 L 1671.8963474045584 55.57547242912571 L 1672.1486897764923 55.55384271706673 L 1672.401497998887 55.533354793263264 L 1672.6547467911305 55.51401070649064 L 1672.908410828555 55.4958123911414 L 1673.1624647449678 55.47876166703191 L 1673.4168831351892 55.46286023922039 L 1673.6716405575921 55.44810969783636 L 1673.9267115366465 55.434511517921656 L 1674.1820705654673 55.42206705928295 L 1674.4376921083642 55.41077756635575 L 1674.6935506033958 55.40064416807991 L 1674.9496204649263 55.39166787778682 L 1675.2058760861823 55.38384959309805 L 1675.4622918418158 55.37719009583553 L 1675.7188420904647 55.37169005194345 L 1675.9755011773177 55.36735001142162 L 1676.2322434366804 55.36417040827046 L 1676.4890431945405 55.36215156044765 L 1676.7458747711362 55.36129366983628 L 1677.0027124835242 55.3615968222247 L 1677.259530648147 55.363060987297914 L 1677.516303583402 55.36568601864066 L 1677.7730056122102 55.369471653751965 L 1678.029611064582 55.37441751407148 L 1678.2860942801865 55.3805231050173 L 1678.5424296109159 55.38778781603543 L 1678.7985914234503 55.39621092066079 L 1679.054554101822 55.40579157658996 L 1679.3102920499769 55.41652882576533 L 1679.5657796943328 55.428421594470926 L 1679.8209914863385 55.44146869343979 L 1680.0759019050272 55.45566881797289 L 1680.3304854595697 55.47102054806961 L 1680.5847166918227 55.48752234856974 L 1680.8385701788745 55.50517256930697 L 1681.0920205355883 55.52396944527395 L 1681.3450424171397 55.54391109679874 L 1681.597610521551 55.56499552973279 L 1681.8496995922224 55.587220635650404 L 1682.101284420457 55.61058419205949 L 1682.3523398479817 55.63508386262389 L 1682.6028407694628 55.660717197396956 L 1682.8527621350167 55.687481633066575 L 1683.1020789527156 55.715374493211485 L 1683.3507662910852 55.744392988568904 L 1683.598799281599 55.7745342173135 L 1683.8461531211644 55.8057951653475 L 1684.0928030746038 55.83817270660215 L 1684.3387244771275 55.871663603350314 L 1684.5838927368 55.90626450653023 L 1684.8282833369997 55.941971956080394 L 1685.07187183887 55.97878238128563 L 1685.3146338837641 56.01669210113408 L 1685.5565451956795 56.055697324685354 L 1685.797581583687 56.095794151449596 L 1686.0377189443482 56.136978571777554 L 1686.2769332641274 56.17924646726151 L 1686.5152006217918 56.22259361114713 L 1686.7524971908044 56.267015668756166 L 1686.988799241706 56.31250819791986 L 1687.224083144488 56.35906664942321 L 1687.458325370957 56.40668636745987 L 1687.691502497085 56.455362590097714 L 1687.9235912053537 56.505090449755045 L 1688.1545682870858 56.55586497368733 L 1688.3844106447657 56.60768108448449 L 1688.613095294349 56.66053360057863 L 1688.8405993675613 56.71441723676219 L 1689.066900114185 56.76932660471643 L 1689.291974904334 56.82525621355034 L 1689.5158012307168 56.88220047034963 L 1689.7383567108873 56.940153680736074 L 1689.9596190894829 56.999110049436936 L 1690.1795662404502 57.05906368086447 L 1690.3981761692576 57.120008579705484 L 1690.6154270150937 57.1819386515209 L 1690.8312970530558 57.244847703355134 L 1691.0457646963193 57.308729444355436 L 1691.258808498299 57.373577486400926 L 1691.4704071547922 57.439385344741446 L 1691.6805395061094 57.506146438646006 L 1691.8891845391909 57.57385409206084 L 1692.0963213897069 57.642501534277045 L 1692.3019293441453 57.712081900607586 L 1692.5059878418815 57.78258823307383 L 1692.7084764772362 57.854013481101276 L 1692.9093750015147 57.92635050222464 L 1693.1086633250316 57.99959206280211 L 1693.306321519121 58.07373083873863 L 1693.5023298181277 58.14875941621842 L 1693.6966686213857 58.224670292446234 L 1693.8893184951762 58.30145587639771 L 1694.0802601746727 58.379108489578456 L 1694.2694745658662 58.45762036679186 L 1694.456942747475 58.53698365691561 L 1694.6426459728377 58.61719042368684 L 1694.826565671786 58.698232646495725 L 1695.0086834525039 58.7801022211875 L 1695.1889811033643 58.86279096087293 L 1695.367440594753 58.94629059674695 L 1695.5440440808693 59.03059277891555 L 1695.7187739015117 59.115689077230776 L 1695.8916125838439 59.2015709821337 L 1696.0625428441417 59.2882299055054 L 1696.2315475895214 59.375657181525774 L 1696.3986099196493 59.46384406754005 L 1696.5637131284318 59.55278174493313 L 1696.7268407056854 59.642461320011385 L 1696.8879763387881 59.73287382489204 L 1697.0471039143115 59.82401021839995 L 1697.2042075196302 59.91586138697171 L 1697.3592714445147 60.008418145567006 L 1697.5122801827017 60.10167123858711 L 1697.6632184334449 60.195611340800426 L 1697.812071103045 60.29022905827503 L 1697.9588233063591 60.385514929318006 L 1698.1034603682892 60.48145942542166 L 1698.2459678252494 60.57805295221634 L 1698.3863314266132 60.67528585042985 L 1698.524537136137 60.77314839685341 L 1698.6605711333655 60.87163080531391 L 1698.794419815012 60.97072322765259 L 1698.9260697963196 61.07041575470979 L 1699.0555079124003 61.170698417315876 L 1699.1827212195503 61.271561187288164 L 1699.307696996545 61.3729939784337 L 1699.4304227459106 61.47498664755789 L 1699.5508861951746 61.577528995478836 L 1699.6690752980921 61.68061076804718 L 1699.784978235852 61.78422165717158 L 1699.8985834182565 61.88835130184945 L 1700.009879484882 61.99298928920311 L 1700.1188553062152 62.09812515552101 L 1700.2254999847642 62.203748387304145 L 1700.3298028561503 62.30984842231735 L 1700.4317534901732 62.416414650645535 L 1700.5313416918543 62.52343641575468 L 1700.6285575024567 62.63090301555746 L 1700.7233912004801 62.73880370348344 L 1700.815833302634 62.847127689553744 L 1700.9058745647849 62.95586414146005 L 1700.9935059828817 63.065002185647764 L 1701.078718793856 63.174530908403426 L 1701.1615044764974 63.28443935694603 L 1701.2418547523064 63.39471654052231 L 1701.3197615863228 63.50535143150581 L 1701.3952171879278 63.61633296649962 L 1701.4682140116242 63.72765004744274 L 1701.5387447577907 63.83929154271982 L 1701.6068023734113 63.951246288274376 L 1701.672380052781 64.06350308872516 L 1701.7354712381866 64.17605071848564 L 1701.7960696205623 64.28887792288667 L 1701.8541691401201 64.40197341930181 L 1701.9097639869567 64.51532589827566 L 1701.9628486016336 64.6289240246548 L 1702.0134176757335 64.74275643872124 L 1702.0614661523914 64.85681175732844 L 1702.1069892267994 64.97107857503958 L 1702.1499823466884 65.08554546526814 L 1702.1904412127815 65.20020098142045 L 1702.2283617792266 65.31503365804045 L 1702.263740253998 65.43003201195617 L 1702.2965730992782 65.54518454342806 L 1702.32685703181 65.66047973729893 L 1702.3545890232251 65.77590606414547 L 1702.3797663003475 65.89145198143119 L 1702.4023863454706 66.00710593466063 L 1702.4224468966088 66.12285635853486 L 1702.4399459477236 66.23869167810795 L 1702.4548817489242 66.35460030994449 L 1702.4672528066435 66.47057066327784 L 1702.4770578837856 66.58659114116935 L 1702.4842959998512 66.70265014166789 L 1702.4889664310347 66.81873605897015 L 1702.4910687102965 66.9348372845811 M 1702.49119900728 103.91451096179999 L 1702.4899148196914 104.03061462555635 L 1702.4860623853433 104.14670667904309 L 1702.479642089476 104.2627755131516 L 1702.4706545741137 104.37880952109519 L 1702.4591007380004 104.49479709956978 L 1702.44498173651 104.61072664991414 L 1702.4282989815313 104.72658657926989 L 1702.4090541413254 104.8423653017406 L 1702.3872491403604 104.95805123955054 L 1702.3628861591185 105.0736328242023 L 1702.335967633877 105.18909849763378 L 1702.3064962564665 105.3044367133738 L 1702.2744749740002 105.41963593769695 L 1702.2399069885792 105.53468465077678 L 1702.2027957569735 105.64957134783783 L 1702.1631449902754 105.76428454030618 L 1702.1209586535285 105.87881275695814 L 1702.0762409653312 105.9931445450675 L 1702.028996397415 106.10726847155073 L 1701.9792296741978 106.22117312411025 L 1701.9269457723099 106.33484711237577 L 1701.872149920098 106.44827906904317 L 1701.814847597102 106.56145765101131 L 1701.7550445335062 106.67437154051632 L 1701.692746709567 106.78700944626333 L 1701.6279603550151 106.89936010455563 L 1701.560691948432 107.01141228042103 L 1701.4909482166022 107.12315476873529 L 1701.4187361338406 107.23457639534273 L 1701.3440629212955 107.34566601817353 L 1701.266936046226 107.45641252835797 L 1701.187363221255 107.56680485133734 L 1701.1053524035992 107.67683194797132 L 1701.0209117942716 107.78648281564195 L 1700.9340498372628 107.89574648935381 L 1700.8447752186962 108.00461204283062 L 1700.7530968659594 108.1130685896077 L 1700.6590239468112 108.22110528412082 L 1700.562565868465 108.32871132279051 L 1700.4637322766484 108.4358759451026 L 1700.362533054638 108.54258843468413 L 1700.258978322272 108.6488381203751 L 1700.153078434937 108.75461437729548 L 1700.0448439825336 108.8599066279077 L 1699.9342857884171 108.96470434307447 L 1699.8214149083144 109.0689970431116 L 1699.7062426292196 109.17277429883598 L 1699.5887804682648 109.27602573260853 L 1699.469040171568 109.37874101937192 L 1699.347033713059 109.48090988768304 L 1699.2227732932822 109.58252212074024 L 1699.0962713381762 109.68356755740487 L 1698.9675404978304 109.78403609321748 L 1698.8365936452224 109.88391768140819 L 1698.7034438749279 109.98320233390143 L 1698.5681045018127 110.08188012231469 L 1698.430589059702 110.17994117895135 L 1698.2909113000248 110.27737569778748 L 1698.1490851904412 110.37417393545236 L 1698.0051249134435 110.47032621220293 L 1697.8590448649397 110.5658229128916 L 1697.7108596528128 110.66065448792793 L 1697.5605840954606 110.7548114542334 L 1697.4082332203136 110.84828439618985 L 1697.2538222623323 110.941063966581 L 1697.097366662484 111.03314088752711 L 1696.938882066198 111.12450595141281 L 1696.7783843218022 111.21515002180787 L 1696.6158894789369 111.30506403438078 L 1696.4514137869514 111.39423899780519 L 1696.2849736932776 111.48266599465909 L 1696.116585841786 111.57033618231648 L 1695.9462670711218 111.65724079383165 L 1695.77403441302 111.74337113881587 L 1695.5999050906028 111.82871860430642 L 1695.4238965166571 111.91327465562787 L 1695.2460262918942 111.99703083724555 L 1695.066312203188 112.07997877361109 L 1694.8847722217977 112.16211016999999 L 1694.70142450157 112.24341681334106 L 1694.5162873771242 112.32389057303769 L 1694.3293793620187 112.40352340178099 L 1694.1407191468988 112.48230733635444 L 1693.9503255976294 112.56023449843025 L 1693.7582177534061 112.63729709535714 L 1693.5644148248539 112.71348742093964 L 1693.3689361921035 112.78879785620869 L 1693.1718014028559 112.8632208701835 L 1692.973030170425 112.93674902062472 L 1692.7726423717693 113.00937495477855 L 1692.570658045501 113.08109141011211 L 1692.3670973898845 113.15189121503964 L 1692.161980760816 113.22176728963963 L 1691.9553286697874 113.29071264636286 L 1691.7471617818355 113.35872039073111 L 1691.5375009134755 113.42578372202661 L 1691.3263670306198 113.49189593397213 L 1691.1137812464806 113.55705041540155 L 1690.899764819459 113.62124065092104 L 1690.6843391510197 113.68446022156053 L 1690.4675257835497 113.74670280541565 L 1690.2493463982053 113.80796217827987 L 1690.029822812743 113.86823221426694 L 1689.8089769793387 113.92750688642352 L 1689.5868309823916 113.98578026733178 L 1689.3634070363162 114.04304652970217 L 1689.1387274833207 114.09929994695618 L 1688.9128147911736 114.15453489379898 L 1688.6856915509557 114.20874584678191 L 1688.4573804748015 114.26192738485484 L 1688.2279043936287 114.31407418990828 L 1687.997286254854 114.36518104730519 L 1687.7655491200994 114.4152428464024 L 1687.5327161628848 114.46425458106174 L 1687.2988106663122 114.51221135015058 L 1687.0638560207362 114.55910835803196 L 1686.8278757214257 114.6049409150442 L 1686.5908933662138 114.64970443796976 L 1686.3529326531386 114.69339445049368 L 1686.1140173780732 114.7360065836511 L 1685.8741714323457 114.77753657626423 L 1685.6334188003514 114.81798027536838 L 1685.3917835571524 114.85733363662739 L 1685.1492898660717 114.8955927247379 L 1684.9059619762766 114.93275371382298 L 1684.661824220353 114.96881288781469 L 1684.416901011873 115.0037666408257 L 1684.1712168429538 115.03761147750981 L 1683.9247962818072 115.07034401341159 L 1683.677663970284 115.10196097530469 L 1683.4298446214093 115.13245920151928 L 1683.1813630169117 115.16183564225817 L 1682.9322440047447 115.19008735990175 L 1682.6825124966015 115.21721152930179 L 1682.432193465425 115.24320543806398 L 1682.1813119429098 115.26806648681908 L 1681.929893016999 115.29179218948295 L 1681.6779618293758 115.31438017350509 L 1681.4255435729488 115.33582818010592 L 1681.1726634893334 115.35613406450264 L 1680.9193468663273 115.37529579612375 L 1680.6656190353815 115.39331145881205 L 1680.411505369068 115.41017925101629 L 1680.1570312785414 115.42589748597129 L 1679.9022222109988 115.44046459186667 L 1679.6471036471344 115.45387911200397 L 1679.3917010985924 115.46613970494236 L 1679.1360401054144 115.47724514463276 L 1678.880146233487 115.48719432054045 L 1678.624045071984 115.49598623775614 L 1678.367762230808 115.50362001709544 L 1678.1113233380297 115.51009489518677 L 1677.8547540373247 115.5154102245477 L 1677.5980799854094 115.51956547364975 L 1677.3413268494746 115.52256022697145 L 1677.0845203046206 115.52439418504 L 1676.8276860312874 115.52506716446106 L 1676.5708497126882 115.52457909793732 L 1676.3140370322415 115.52293003427498 L 1676.0572736710005 115.52012013837903 L 1675.800585305088 115.51614969123673 L 1675.5439976031264 115.51101908988952 L 1675.287536223672 115.50472884739318 L 1675.0312268126495 115.4972795927668 L 1674.7750950007858 115.48867207092958 L 1674.519166401049 115.47890714262655 L 1674.2634666060856 115.4679857843424 L 1674.008021185662 115.45590908820387 L 1673.7528556841078 115.4426782618705 L 1673.4979956177601 115.42829462841388 L 1673.2434664724133 115.4127596261854 L 1672.9892937007696 115.39607480867232 L 1672.7355027198946 115.3782418443425 L 1672.482118908675 115.35926251647749 L 1672.2291676052805 115.33913872299428 L 1671.9766741046308 115.31787247625543 L 1671.7246636558655 115.29546590286792 L 1671.4731614598195 115.27192124347039 L 1671.222192666503 115.24724085250918 L 1670.9717823725855 115.2214271980028 L 1670.7219556188886 115.1944828612952 L 1670.4727373878789 115.1664105367976 L 1670.2241526011721 115.13721303171906 L 1669.9762261170397 115.10689326578573 L 1669.7289827279233 115.07545427094897 L 1669.482447157956 115.04289919108203 L 1669.2366440604892 115.0092312816658 L 1668.991598015628 114.97445390946316 L 1668.7473335277723 114.93857055218234 L 1668.503875023168 114.90158479812916 L 1668.2612468474617 114.86350034584822 L 1668.0194732632697 114.824321003753 L 1667.7785784477487 114.78405068974506 L 1667.5385864901791 114.74269343082224 L 1667.2995213895572 114.70025336267598 L 1667.0614070521935 114.65673472927773 L 1666.8242672893234 114.61214188245454 L 1666.5881258147258 114.56647928145395 L 1666.353006242351 114.51975149249802 L 1666.1189320839603 114.47196318832667 L 1665.8859267467749 114.42311914773052 L 1665.654013531134 114.37322425507293 L 1665.423215628166 114.32228349980157 L 1665.193556117469 114.27030197594954 L 1664.9650579648023 114.21728488162587 L 1664.737744019791 114.16323751849586 L 1664.5116370136404 114.10816529125074 L 1664.2867595568623 114.05207370706736 L 1664.0631341370151 113.9949683750574 L 1663.8407831164548 113.93685500570646 L 1663.6197287300974 113.87773941030305 L 1663.399993083198 113.81762750035746 L 1663.181598149138 113.75652528701059 L 1662.9645657672288 113.69443888043284 L 1662.7489176405275 113.63137448921314 L 1662.5346753336673 113.56733841973806 L 1662.3218602707004 113.5023370755612 L 1662.1104937329555 113.43637695676277 L 1661.9005968569106 113.36946465929971 L 1661.6921906320779 113.301606874346 L 1661.4852958989068 113.2328103876236 L 1661.2799333466976 113.16308207872383 L 1661.076123511535 113.0924289204195 L 1660.8738867742322 113.02085797796754 L 1660.6732433582945 112.94837640840255 L 1660.4742133278965 112.8749914598211 L 1660.276816585875 112.8007104706569 L 1660.0810728717402 112.72554086894695 L 1659.8870017596998 112.64949017158878 L 1659.694622656704 112.57256598358876 L 1659.5039548005022 112.49477599730159 L 1659.3150172577214 112.41612799166106 L 1659.1278289219583 112.3366298314022 L 1658.9424085118906 112.2562894662748 L 1658.7587745694045 112.1751149302484 L 1658.5769454577417 112.09311434070896 L 1658.3969393596615 112.01029589764713 L 1658.218774275624 111.92666788283817 L 1658.0424680219887 111.84223865901389 L 1657.8680382292343 111.7570166690263 L 1657.6955023401947 111.67101043500338 L 1657.5248776083151 111.58422855749687 L 1657.3561810959263 111.4966797146222 L 1657.1894296725393 111.40837266119071 L 1657.024640013157 111.31931622783415 L 1656.8618285966086 111.22951932012163 L 1656.7010117038994 111.13899091766909 L 1656.5422054165851 111.04774007324134 L 1656.3854256151621 110.9557759118468 L 1656.2306879774799 110.86310762982494 L 1656.078007977173 110.76974449392677 L 1655.9274008821144 110.67569584038806 L 1655.7788817528883 110.58097107399578 L 1655.6324654412836 110.48557966714766 L 1655.4881665888095 110.38953115890487 L 1655.345999625231 110.2928351540382 L 1655.205978767126 110.19550132206757 L 1655.0681180164636 110.09753939629505 L 1654.932431159204 109.99895917283158 L 1654.7989317639199 109.89977050961737 L 1654.6676331804397 109.79998332543607 L 1654.538548538512 109.69960759892295 L 1654.4116907464936 109.59865336756702 L 1654.287072490058 109.4971307267073 L 1654.164706230927 109.39504982852324 L 1654.0446042056246 109.29242088101961 L 1653.9267784242531 109.18925414700563 L 1653.8112406692926 109.08555994306874 L 1653.698002494422 108.98134863854291 L 1653.587075223365 108.87663065447177 L 1653.4784699487557 108.77141646256644 L 1653.3721975310314 108.66571658415843 L 1653.268268597345 108.55954158914753 L 1653.1666935405037 108.45290209494473 L 1653.067482517928 108.3458087654106 L 1652.9706454506381 108.23827230978884 L 1652.8761920222596 108.1303034816354 L 1652.7841316780566 108.02191307774314 L 1652.694473623987 107.9131119370621 L 1652.6072268257815 107.80391093961568 L 1652.522400008047 107.69432100541265 L 1652.440001653395 107.58435309335508 L 1652.3600400015919 107.47401820014255 L 1652.2825230487363 107.36332735917243 L 1652.2074585464588 107.25229163943658 L 1652.1348540011477 107.14092214441445 L 1652.0647166731962 107.0292300109627 L 1651.997053576279 106.91722640820164 L 1651.9318714766496 106.80492253639821 L 1651.8691768924634 106.69232962584596 L 1651.8089760931266 106.57945893574217 L 1651.751275098669 106.46632175306175 L 1651.6960796791423 106.35292939142872 L 1651.6433953540418 106.23929318998472 L 1651.5932273917563 106.12542451225522 L 1651.5455808090405 106.0113347450131 L 1651.5004603705129 105.89703529714001 L 1651.4578705881795 105.78253759848548 L 1651.4178157209833 105.66785309872397 L 1651.3802997743776 105.55299326620987 L 1651.3453264999257 105.43796958683073 L 1651.312899394926 105.32279356285864 L 1651.283021702062 105.2074767118 L 1651.255696409078 105.09203056524383 L 1651.2309262484803 104.97646666770858 L 1651.2087136972648 104.8607965754877 L 1651.1890609766676 104.74503185549402 L 1651.171970051945 104.62918408410306 L 1651.1574426321747 104.51326484599544 L 1651.1454801700868 104.39728573299836 L 1651.1360838619173 104.28125834292646 L 1651.1292546472896 104.16519427842208 L 1651.1249932091193 104.04910514579494 L 1651.1232999735466 103.93300255386156" stroke-miterlimit="10" stroke-width="2.990598758" stroke-dasharray=""/></g><g><g/><text fill="black" stroke="none" font-family="sans-serif" font-size="11pt" font-style="normal" font-weight="normal" text-decoration="normal" x="1644.1050237306238" y="134.401026536" text-anchor="start" dominant-baseline="alphabetic">Database</text></g></g><g><path fill="white" stroke="black" paint-order="fill stroke markers" d=" M 326.934847123112 197.73135317599997 L 344.526604523112 197.73135317599997 L 344.526604523112 700.855614816 L 326.934847123112 700.855614816 L 326.934847123112 197.73135317599997" stroke-miterlimit="10" stroke-width="1.4659797833333332" stroke-dasharray=""/><path fill="white" stroke="black" paint-order="fill stroke markers" d=" M 665.5324400116536 313.83695201599994 L 683.1241974116537 313.83695201599994 L 683.1241974116537 651.5986940959999 L 665.5324400116536 651.5986940959999 L 665.5324400116536 313.83695201599994" stroke-miterlimit="10" stroke-width="1.4659797833333332" stroke-dasharray=""/><path fill="white" stroke="black" paint-order="fill stroke markers" d=" M 326.934847123112 750.112535536 L 344.526604523112 750.112535536 L 344.526604523112 1566.3700788959998 L 326.934847123112 1566.3700788959998 L 326.934847123112 750.112535536" stroke-miterlimit="10" stroke-width="1.4659797833333332" stroke-dasharray=""/><path fill="white" stroke="black" paint-order="fill stroke markers" d=" M 665.5324400116536 799.369456256 L 683.1241974116537 799.369456256 L 683.1241974116537 1517.1131581759998 L 665.5324400116536 1517.1131581759998 L 665.5324400116536 799.369456256" stroke-miterlimit="10" stroke-width="1.4659797833333332" stroke-dasharray=""/><path fill="white" stroke="black" paint-order="fill stroke markers" d=" M 975.7836126121094 996.3971391360002 L 993.3753700121094 996.3971391360002 L 993.3753700121094 1327.1221782559999 L 975.7836126121094 1327.1221782559999 L 975.7836126121094 996.3971391360002" stroke-miterlimit="10" stroke-width="1.4659797833333332" stroke-dasharray=""/><path fill="white" stroke="black" paint-order="fill stroke markers" d=" M 1413.8160595883712 1045.6540598560002 L 1431.4078169883712 1045.6540598560002 L 1431.4078169883712 1610.3494723959998 L 1413.8160595883712 1610.3494723959998 L 1413.8160595883712 1045.6540598560002" stroke-miterlimit="10" stroke-width="1.4659797833333332" stroke-dasharray=""/><path fill="white" stroke="black" paint-order="fill stroke markers" d=" M 1422.6119382883712 1112.5027379760002 L 1440.2036956883712 1112.5027379760002 L 1440.2036956883712 1228.608336816 L 1422.6119382883712 1228.608336816 L 1422.6119382883712 1112.5027379760002" stroke-miterlimit="10" stroke-width="1.4659797833333332" stroke-dasharray=""/><g><g><rect fill="white" stroke="none" x="45.707991208294274" y="174.86206855599997" width="260.4099429914844" height="22.86928462"/></g><text fill="black" stroke="none" font-family="sans-serif" font-size="11pt" font-style="normal" font-weight="normal" text-decoration="normal" x="48.34675481829427" y="190.69465021599999" text-anchor="start" dominant-baseline="alphabetic">mousePressed(d : Date, rid : Integer)</text></g><g><path fill="none" stroke="black" paint-order="fill stroke markers" d=" M 24.891078284960937 197.73135317599997 L 324.00288755644533 197.73135317599997" stroke-miterlimit="10" stroke-width="1.4659797833333332" stroke-dasharray=""/><g transform="translate(326.934847123112,197.73135317599997) translate(-326.934847123112,-197.73135317599997)"><path fill="black" stroke="none" paint-order="stroke fill markers" d=" M 312.2750492897786 190.4014542593333 L 326.934847123112 197.73135317599997 L 312.2750492897786 205.06125209266665 Z"/></g></g><g><g><rect fill="white" stroke="none" x="365.34351744644533" y="224.11898927599998" width="194.83374059890625" height="22.86928462"/></g><text fill="black" stroke="none" font-family="sans-serif" font-size="11pt" font-style="normal" font-weight="normal" text-decoration="normal" x="367.98228105644534" y="239.951570936" text-anchor="start" dominant-baseline="alphabetic">rid := yToRoom(y : Integer)</text></g><g><path fill="none" stroke="black" paint-order="fill stroke markers" d=" M 344.526604523112 246.98827389599995 L 414.89363412311195 246.98827389599995 L 414.89363412311195 264.58003129599996 L 347.45856408977863 264.58003129599996" stroke-miterlimit="10" stroke-width="1.4659797833333332" stroke-dasharray=""/><g transform="translate(344.526604523112,264.58003129599996) translate(-344.526604523112,-264.58003129599996)"><path fill="black" stroke="none" paint-order="stroke fill markers" d=" M 359.18640235644534 257.2501323793333 L 344.526604523112 264.58003129599996 L 359.18640235644534 271.9099302126666 Z"/></g></g><g><g><rect fill="white" stroke="none" x="365.34351744644533" y="290.96766739599997" width="279.372009641875" height="22.86928462"/></g><text fill="black" stroke="none" font-family="sans-serif" font-size="11pt" font-style="normal" font-weight="normal" text-decoration="normal" x="367.98228105644534" y="306.800249056" text-anchor="start" dominant-baseline="alphabetic">selectBooking(rid : Integer, time : Date)</text></g><g><path fill="none" stroke="black" paint-order="fill stroke markers" d=" M 344.526604523112 313.83695201599994 L 662.6004804449869 313.83695201599994" stroke-miterlimit="10" stroke-width="1.4659797833333332" stroke-dasharray=""/><g transform="translate(665.5324400116536,313.83695201599994) translate(-665.5324400116536,-313.83695201599994)"><path fill="black" stroke="none" paint-order="stroke fill markers" d=" M 650.8726421783203 306.5070530993333 L 665.5324400116536 313.83695201599994 L 650.8726421783203 321.1668509326666 Z"/></g></g><g><g><rect fill="white" stroke="none" x="832.6519675166745" y="387.72233309599994" width="138.14083898757812" height="22.86928462"/></g><text fill="black" stroke="none" font-family="sans-serif" font-size="11pt" font-style="normal" font-weight="normal" text-decoration="normal" x="835.2907311266745" y="403.55491475599996" text-anchor="start" dominant-baseline="alphabetic">getRoomNumber()</text></g><g><path fill="none" stroke="black" paint-order="fill stroke markers" d=" M 683.1241974116537 410.5916177159999 L 1117.388617042607 410.5916177159999" stroke-miterlimit="10" stroke-width="1.4659797833333332" stroke-dasharray=""/><g transform="translate(1120.3205766092735,410.5916177159999) translate(-1120.3205766092735,-410.5916177159999)"><path fill="black" stroke="none" paint-order="stroke fill markers" d=" M 1105.6607787759401 403.26171879933327 L 1120.3205766092735 410.5916177159999 L 1105.6607787759401 417.92151663266657 Z"/></g></g><g><g><rect fill="white" stroke="none" x="866.084332934155" y="436.9792538159999" width="71.27610815261718" height="22.86928462"/></g><text fill="black" stroke="none" font-family="sans-serif" font-size="11pt" font-style="normal" font-weight="normal" text-decoration="normal" x="868.7230965441549" y="452.81183547599994" text-anchor="start" dominant-baseline="alphabetic">getDate()</text></g><g><path fill="none" stroke="black" paint-order="fill stroke markers" d=" M 683.1241974116537 459.8485384359999 L 1117.388617042607 459.8485384359999" stroke-miterlimit="10" stroke-width="1.4659797833333332" stroke-dasharray=""/><g transform="translate(1120.3205766092735,459.8485384359999) translate(-1120.3205766092735,-459.8485384359999)"><path fill="black" stroke="none" paint-order="stroke fill markers" d=" M 1105.6607787759401 452.51863951933325 L 1120.3205766092735 459.8485384359999 L 1105.6607787759401 467.17843735266655 Z"/></g></g><g><g><rect fill="white" stroke="none" x="703.941110334987" y="512.6238106359998" width="126.03630102371093" height="22.86928462"/></g><text fill="black" stroke="none" font-family="sans-serif" font-size="11pt" font-style="normal" font-weight="normal" text-decoration="normal" x="706.579873944987" y="528.4563922959998" text-anchor="start" dominant-baseline="alphabetic">notifyObservers()</text></g><g><path fill="none" stroke="black" paint-order="fill stroke markers" d=" M 683.1241974116537 535.4930952559998 L 753.4912270116537 535.4930952559998 L 753.4912270116537 553.0848526559998 L 686.0561569783204 553.0848526559998" stroke-miterlimit="10" stroke-width="1.4659797833333332" stroke-dasharray=""/><g transform="translate(683.1241974116537,553.0848526559998) translate(-683.1241974116537,-553.0848526559998)"><path fill="black" stroke="none" paint-order="stroke fill markers" d=" M 697.783995244987 545.7549537393331 L 683.1241974116537 553.0848526559998 L 697.783995244987 560.4147515726665 Z"/></g></g><g><g><rect fill="white" stroke="none" x="472.66634764664065" y="579.4724887559998" width="64.72634924148437" height="22.86928462"/></g><text fill="black" stroke="none" font-family="sans-serif" font-size="11pt" font-style="normal" font-weight="normal" text-decoration="normal" x="475.30511125664066" y="595.3050704159998" text-anchor="start" dominant-baseline="alphabetic">update()</text></g><g><path fill="none" stroke="black" paint-order="fill stroke markers" d=" M 665.5324400116536 602.3417733759999 L 347.45856408977863 602.3417733759999" stroke-miterlimit="10" stroke-width="1.4659797833333332" stroke-dasharray=""/><g transform="translate(344.526604523112,602.3417733759999) translate(-344.526604523112,-602.3417733759999)"><path fill="black" stroke="none" paint-order="stroke fill markers" d=" M 359.18640235644534 595.0118744593332 L 344.526604523112 602.3417733759999 L 359.18640235644534 609.6716722926666 Z"/></g></g><g><g><rect fill="white" stroke="none" x="502.39075865738283" y="628.7294094759999" width="5.27752722" height="22.86928462"/></g><text fill="black" stroke="none" font-family="sans-serif" font-size="11pt" font-style="normal" font-weight="normal" text-decoration="normal" x="505.02952226738284" y="644.5619911359998" text-anchor="start" dominant-baseline="alphabetic"></text></g><g><path fill="none" stroke="black" paint-order="fill stroke markers" d=" M 665.5324400116536 651.5986940959999 L 347.45856408977863 651.5986940959999" stroke-miterlimit="10" stroke-width="1.4659797833333332" stroke-dasharray="7.0367029599999995"/><g transform="translate(344.526604523112,651.5986940959999) translate(-344.526604523112,-651.5986940959999)"><path fill="black" stroke="none" paint-order="stroke fill markers" d=" M 359.18640235644534 644.2687951793332 L 344.526604523112 651.5986940959999 L 359.18640235644534 658.9285930126666 Z"/></g></g><g><g><rect fill="white" stroke="none" x="173.27419909403645" y="677.9863301959999" width="5.27752722" height="22.86928462"/></g><text fill="black" stroke="none" font-family="sans-serif" font-size="11pt" font-style="normal" font-weight="normal" text-decoration="normal" x="175.91296270403646" y="693.8189118559999" text-anchor="start" dominant-baseline="alphabetic"></text></g><g><path fill="none" stroke="black" paint-order="fill stroke markers" d=" M 326.934847123112 700.855614816 L 27.823037851627603 700.855614816" stroke-miterlimit="10" stroke-width="1.4659797833333332" stroke-dasharray="7.0367029599999995"/><g transform="translate(24.891078284960937,700.855614816) translate(-24.891078284960937,-700.855614816)"><path fill="black" stroke="none" paint-order="stroke fill markers" d=" M 39.55087611829427 693.5257158993332 L 24.891078284960937 700.855614816 L 39.55087611829427 708.1855137326667 Z"/></g></g><g><g><rect fill="white" stroke="none" x="77.0429597751888" y="727.243250916" width="197.7400058576953" height="22.86928462"/></g><text fill="black" stroke="none" font-family="sans-serif" font-size="11pt" font-style="normal" font-weight="normal" text-decoration="normal" x="79.6817233851888" y="743.0758325759999" text-anchor="start" dominant-baseline="alphabetic">modifyBooking(b: Booking)</text></g><g><path fill="none" stroke="black" paint-order="fill stroke markers" d=" M 24.891078284960937 750.112535536 L 324.00288755644533 750.112535536" stroke-miterlimit="10" stroke-width="1.4659797833333332" stroke-dasharray=""/><g transform="translate(326.934847123112,750.112535536) translate(-326.934847123112,-750.112535536)"><path fill="black" stroke="none" paint-order="stroke fill markers" d=" M 312.2750492897786 742.7826366193333 L 326.934847123112 750.112535536 L 312.2750492897786 757.4424344526667 Z"/></g></g><g><g><rect fill="white" stroke="none" x="406.1595193385352" y="776.500171636" width="197.7400058576953" height="22.86928462"/></g><text fill="black" stroke="none" font-family="sans-serif" font-size="11pt" font-style="normal" font-weight="normal" text-decoration="normal" x="408.7982829485352" y="792.332753296" text-anchor="start" dominant-baseline="alphabetic">modifyBooking(b: Booking)</text></g><g><path fill="none" stroke="black" paint-order="fill stroke markers" d=" M 344.526604523112 799.369456256 L 662.6004804449869 799.369456256" stroke-miterlimit="10" stroke-width="1.4659797833333332" stroke-dasharray=""/><g transform="translate(665.5324400116536,799.369456256) translate(-665.5324400116536,-799.369456256)"><path fill="black" stroke="none" paint-order="stroke fill markers" d=" M 650.8726421783203 792.0395573393333 L 665.5324400116536 799.369456256 L 650.8726421783203 806.6993551726667 Z"/></g></g><g><g><rect fill="white" stroke="none" x="712.9417642235613" y="825.757092356" width="241.82016027664062" height="22.86928462"/></g><text fill="black" stroke="none" font-family="sans-serif" font-size="11pt" font-style="normal" font-weight="normal" text-decoration="normal" x="715.5805278335613" y="841.589674016" text-anchor="start" dominant-baseline="alphabetic">room := getRoom(room : Integer)</text></g><g><path fill="none" stroke="black" paint-order="fill stroke markers" d=" M 683.1241974116537 848.6263769760001 L 981.6475317454427 848.6263769760001" stroke-miterlimit="10" stroke-width="1.4659797833333332" stroke-dasharray=""/><g transform="translate(984.5794913121094,848.6263769760001) translate(-984.5794913121094,-848.6263769760001)"><path fill="black" stroke="none" paint-order="stroke fill markers" d=" M 969.9196934787761 841.2964780593334 L 984.5794913121094 848.6263769760001 L 969.9196934787761 855.9562758926668 Z"/></g></g><g><g><rect fill="white" stroke="none" x="901.1060722298581" y="875.0140130760001" width="145.19877660964843" height="22.86928462"/></g><text fill="black" stroke="none" font-family="sans-serif" font-size="11pt" font-style="normal" font-weight="normal" text-decoration="normal" x="903.7448358398581" y="890.846594736" text-anchor="start" dominant-baseline="alphabetic">setDate(date : Date)</text></g><g><path fill="none" stroke="black" paint-order="fill stroke markers" d=" M 683.1241974116537 897.8832976960001 L 1261.3547640910444 897.8832976960001" stroke-miterlimit="10" stroke-width="1.4659797833333332" stroke-dasharray=""/><g transform="translate(1264.286723657711,897.8832976960001) translate(-1264.286723657711,-897.8832976960001)"><path fill="black" stroke="none" paint-order="stroke fill markers" d=" M 1249.6269258243776 890.5533987793334 L 1264.286723657711 897.8832976960001 L 1249.6269258243776 905.2131966126668 Z"/></g></g><g><g><rect fill="white" stroke="none" x="858.2034309334714" y="924.2709337960001" width="231.00405920242187" height="22.86928462"/></g><text fill="black" stroke="none" font-family="sans-serif" font-size="11pt" font-style="normal" font-weight="normal" text-decoration="normal" x="860.8421945434714" y="940.1035154560001" text-anchor="start" dominant-baseline="alphabetic">setTelphoneNumber(tel : String)</text></g><g><path fill="none" stroke="black" paint-order="fill stroke markers" d=" M 683.1241974116537 947.1402184160002 L 1261.3547640910444 947.1402184160002" stroke-miterlimit="10" stroke-width="1.4659797833333332" stroke-dasharray=""/><g transform="translate(1264.286723657711,947.1402184160002) translate(-1264.286723657711,-947.1402184160002)"><path fill="black" stroke="none" paint-order="stroke fill markers" d=" M 1249.6269258243776 939.8103194993334 L 1264.286723657711 947.1402184160002 L 1249.6269258243776 954.4701173326669 Z"/></g></g><g><g><rect fill="white" stroke="none" x="703.941110334987" y="973.5278545160002" width="251.02558935378906" height="22.86928462"/></g><text fill="black" stroke="none" font-family="sans-serif" font-size="11pt" font-style="normal" font-weight="normal" text-decoration="normal" x="706.579873944987" y="989.3604361760001" text-anchor="start" dominant-baseline="alphabetic">updateBooking(selected : Booking)</text></g><g><path fill="none" stroke="black" paint-order="fill stroke markers" d=" M 683.1241974116537 996.3971391360002 L 972.8516530454427 996.3971391360002" stroke-miterlimit="10" stroke-width="1.4659797833333332" stroke-dasharray=""/><g transform="translate(975.7836126121094,996.3971391360002) translate(-975.7836126121094,-996.3971391360002)"><path fill="black" stroke="none" paint-order="stroke fill markers" d=" M 961.1238147787761 989.0672402193335 L 975.7836126121094 996.3971391360002 L 961.1238147787761 1003.7270380526669 Z"/></g></g><g><g><rect fill="white" stroke="none" x="1102.316997576959" y="1022.7847752360002" width="202.5574344465625" height="22.86928462"/></g><text fill="black" stroke="none" font-family="sans-serif" font-size="11pt" font-style="normal" font-weight="normal" text-decoration="normal" x="1104.955761186959" y="1038.617356896" text-anchor="start" dominant-baseline="alphabetic">updateBooking(b : Booking)</text></g><g><path fill="none" stroke="black" paint-order="fill stroke markers" d=" M 993.3753700121094 1045.6540598560002 L 1410.8841000217046 1045.6540598560002" stroke-miterlimit="10" stroke-width="1.4659797833333332" stroke-dasharray=""/><g transform="translate(1413.8160595883712,1045.6540598560002) translate(-1413.8160595883712,-1045.6540598560002)"><path fill="black" stroke="none" paint-order="stroke fill markers" d=" M 1399.1562617550378 1038.3241609393335 L 1413.8160595883712 1045.6540598560002 L 1399.1562617550378 1052.983958772667 Z"/></g></g><g><g><rect fill="white" stroke="none" x="1461.0206086117046" y="1072.0416959560002" width="197.75424230789062" height="22.86928462"/></g><text fill="black" stroke="none" font-family="sans-serif" font-size="11pt" font-style="normal" font-weight="normal" text-decoration="normal" x="1463.6593722217046" y="1087.8742776160002" text-anchor="start" dominant-baseline="alphabetic">performUpdate(sql : String)</text></g><g><path fill="none" stroke="black" paint-order="fill stroke markers" d=" M 1431.4078169883712 1094.9109805760002 L 1510.5707252883712 1094.9109805760002 L 1510.5707252883712 1112.5027379760002 L 1443.1356552550378 1112.5027379760002" stroke-miterlimit="10" stroke-width="1.4659797833333332" stroke-dasharray=""/><g transform="translate(1440.2036956883712,1112.5027379760002) translate(-1440.2036956883712,-1112.5027379760002)"><path fill="black" stroke="none" paint-order="stroke fill markers" d=" M 1454.8634935217046 1105.1728390593335 L 1440.2036956883712 1112.5027379760002 L 1454.8634935217046 1119.8326368926669 Z"/></g></g><g><g><rect fill="white" stroke="none" x="1461.0206086117043" y="1138.8903740760002" width="194.96971166824218" height="22.86928462"/></g><text fill="black" stroke="none" font-family="sans-serif" font-size="11pt" font-style="normal" font-weight="normal" text-decoration="normal" x="1463.6593722217044" y="1154.7229557360001" text-anchor="start" dominant-baseline="alphabetic">executeUpdate(sql : String)</text></g><g><path fill="none" stroke="black" paint-order="fill stroke markers" d=" M 1440.2036956883712 1161.759658696 L 1673.8752736366134 1161.759658696" stroke-miterlimit="10" stroke-width="1.4659797833333332" stroke-dasharray=""/><g transform="translate(1676.80723320328,1161.759658696) translate(-1676.80723320328,-1161.759658696)"><path fill="black" stroke="none" paint-order="stroke fill markers" d=" M 1662.1474353699466 1154.4297597793334 L 1676.80723320328 1161.759658696 L 1662.1474353699466 1169.0895576126668 Z"/></g></g><g><g><rect fill="white" stroke="none" x="1461.0206086117046" y="1188.147294796" width="5.27752722" height="22.86928462"/></g><text fill="black" stroke="none" font-family="sans-serif" font-size="11pt" font-style="normal" font-weight="normal" text-decoration="normal" x="1463.6593722217046" y="1203.979876456" text-anchor="start" dominant-baseline="alphabetic"></text></g><g><path fill="none" stroke="black" paint-order="fill stroke markers" d=" M 1440.2036956883712 1211.016579416 L 1510.5707252883712 1211.016579416 L 1510.5707252883712 1228.608336816 L 1443.1356552550378 1228.608336816" stroke-miterlimit="10" stroke-width="1.4659797833333332" stroke-dasharray="7.0367029599999995"/><g transform="translate(1440.2036956883712,1228.608336816) translate(-1440.2036956883712,-1228.608336816)"><path fill="black" stroke="none" paint-order="stroke fill markers" d=" M 1454.8634935217046 1221.2784378993333 L 1440.2036956883712 1228.608336816 L 1454.8634935217046 1235.9382357326667 Z"/></g></g><g><g><rect fill="white" stroke="none" x="1200.9569511902403" y="1254.995972916" width="5.27752722" height="22.86928462"/></g><text fill="black" stroke="none" font-family="sans-serif" font-size="11pt" font-style="normal" font-weight="normal" text-decoration="normal" x="1203.5957148002403" y="1270.828554576" text-anchor="start" dominant-baseline="alphabetic"></text></g><g><path fill="none" stroke="black" paint-order="fill stroke markers" d=" M 1413.8160595883712 1277.865257536 L 996.3073295787761 1277.865257536" stroke-miterlimit="10" stroke-width="1.4659797833333332" stroke-dasharray="7.0367029599999995"/><g transform="translate(993.3753700121094,1277.865257536) translate(-993.3753700121094,-1277.865257536)"><path fill="black" stroke="none" paint-order="stroke fill markers" d=" M 1008.0351678454427 1270.5353586193332 L 993.3753700121094 1277.865257536 L 1008.0351678454427 1285.1951564526667 Z"/></g></g><g><g><rect fill="white" stroke="none" x="826.8151414018815" y="1304.252893636" width="5.27752722" height="22.86928462"/></g><text fill="black" stroke="none" font-family="sans-serif" font-size="11pt" font-style="normal" font-weight="normal" text-decoration="normal" x="829.4539050118815" y="1320.085475296" text-anchor="start" dominant-baseline="alphabetic"></text></g><g><path fill="none" stroke="black" paint-order="fill stroke markers" d=" M 975.7836126121094 1327.1221782559999 L 686.0561569783204 1327.1221782559999" stroke-miterlimit="10" stroke-width="1.4659797833333332" stroke-dasharray="7.0367029599999995"/><g transform="translate(683.1241974116537,1327.1221782559999) translate(-683.1241974116537,-1327.1221782559999)"><path fill="black" stroke="none" paint-order="stroke fill markers" d=" M 697.783995244987 1319.7922793393332 L 683.1241974116537 1327.1221782559999 L 697.783995244987 1334.4520771726666 Z"/></g></g><g><g><rect fill="white" stroke="none" x="703.941110334987" y="1401.007559336" width="212.79350317214843" height="22.86928462"/></g><text fill="black" stroke="none" font-family="sans-serif" font-size="11pt" font-style="normal" font-weight="normal" text-decoration="normal" x="706.579873944987" y="1416.840140996" text-anchor="start" dominant-baseline="alphabetic">notifyObservers()                    </text></g><g><path fill="none" stroke="black" paint-order="fill stroke markers" d=" M 683.1241974116537 1423.876843956 L 753.4912270116537 1423.876843956 L 753.4912270116537 1441.468601356 L 686.0561569783204 1441.468601356" stroke-miterlimit="10" stroke-width="1.4659797833333332" stroke-dasharray=""/><g transform="translate(683.1241974116537,1441.468601356) translate(-683.1241974116537,-1441.468601356)"><path fill="black" stroke="none" paint-order="stroke fill markers" d=" M 697.783995244987 1434.1387024393332 L 683.1241974116537 1441.468601356 L 697.783995244987 1448.7985002726666 Z"/></g></g><g><g><rect fill="white" stroke="none" x="502.39075865738283" y="1494.243873556" width="5.27752722" height="22.86928462"/></g><text fill="black" stroke="none" font-family="sans-serif" font-size="11pt" font-style="normal" font-weight="normal" text-decoration="normal" x="505.02952226738284" y="1510.0764552159999" text-anchor="start" dominant-baseline="alphabetic"></text></g><g><path fill="none" stroke="black" paint-order="fill stroke markers" d=" M 665.5324400116536 1517.1131581759998 L 347.45856408977863 1517.1131581759998" stroke-miterlimit="10" stroke-width="1.4659797833333332" stroke-dasharray="7.0367029599999995"/><g transform="translate(344.526604523112,1517.1131581759998) translate(-344.526604523112,-1517.1131581759998)"><path fill="black" stroke="none" paint-order="stroke fill markers" d=" M 359.18640235644534 1509.7832592593331 L 344.526604523112 1517.1131581759998 L 359.18640235644534 1524.4430570926665 Z"/></g></g><g><g><rect fill="white" stroke="none" x="173.27419909403645" y="1543.5007942759999" width="5.27752722" height="22.86928462"/></g><text fill="black" stroke="none" font-family="sans-serif" font-size="11pt" font-style="normal" font-weight="normal" text-decoration="normal" x="175.91296270403646" y="1559.3333759359998" text-anchor="start" dominant-baseline="alphabetic"></text></g><g><path fill="none" stroke="black" paint-order="fill stroke markers" d=" M 326.934847123112 1566.3700788959998 L 27.823037851627603 1566.3700788959998" stroke-miterlimit="10" stroke-width="1.4659797833333332" stroke-dasharray="7.0367029599999995"/><g transform="translate(24.891078284960937,1566.3700788959998) translate(-24.891078284960937,-1566.3700788959998)"><path fill="black" stroke="none" paint-order="stroke fill markers" d=" M 39.55087611829427 1559.040179979333 L 24.891078284960937 1566.3700788959998 L 39.55087611829427 1573.6999778126665 Z"/></g></g><g><g/><path fill="none" stroke="black" paint-order="fill stroke markers" d=" M 612.7571678116536 340.22458811599995 L 1181.8917275092736 340.22458811599995 L 1181.8917275092736 486.2361745359999 L 612.7571678116536 486.2361745359999 L 612.7571678116536 340.22458811599995 Z" stroke-miterlimit="10" stroke-width="2.5131082" stroke-dasharray=""/><path fill="white" stroke="black" paint-order="fill stroke markers" d=" M 612.7571678116536 340.22458811599995 L 612.7571678116536 361.33469699599993 L 674.6424495794271 361.33469699599993 L 685.1975040194271 350.77964255599994 L 685.1975040194271 340.22458811599995 L 612.7571678116536 340.22458811599995" stroke-miterlimit="10" stroke-width="2.5131082" stroke-dasharray=""/><text fill="black" stroke="none" font-family="sans-serif" font-size="8.8pt" font-style="normal" font-weight="bold" text-decoration="normal" x="630.3489252116536" y="354.2979940359999" text-anchor="start" dominant-baseline="alphabetic">loop</text><text fill="black" stroke="none" font-family="sans-serif" font-size="8.8pt" font-style="normal" font-weight="bold" text-decoration="normal" x="702.7892614194271" y="354.2979940359999" text-anchor="start" dominant-baseline="alphabetic">[for each current Booking]</text></g><g><g/><path fill="none" stroke="black" paint-order="fill stroke markers" d=" M 612.7571678116536 1353.5098143559999 L 922.8917285971354 1353.5098143559999 L 922.8917285971354 1467.856237456 L 612.7571678116536 1467.856237456 L 612.7571678116536 1353.5098143559999 Z" stroke-miterlimit="10" stroke-width="2.5131082" stroke-dasharray=""/><path fill="white" stroke="black" paint-order="fill stroke markers" d=" M 612.7571678116536 1353.5098143559999 L 612.7571678116536 1374.619923236 L 725.4284908391927 1374.619923236 L 735.9835452791928 1364.064868796 L 735.9835452791928 1353.5098143559999 L 612.7571678116536 1353.5098143559999" stroke-miterlimit="10" stroke-width="2.5131082" stroke-dasharray=""/><text fill="black" stroke="none" font-family="sans-serif" font-size="8.8pt" font-style="normal" font-weight="bold" text-decoration="normal" x="630.3489252116536" y="1367.583220276" text-anchor="start" dominant-baseline="alphabetic">expandable−</text><text fill="black" stroke="none" font-family="sans-serif" font-size="8.8pt" font-style="normal" font-weight="bold" text-decoration="normal" x="753.5753026791928" y="1367.583220276" text-anchor="start" dominant-baseline="alphabetic">[see 11 - Display Booked Room BCE]</text></g></g><g/><g/><g/><g/><g/><g/><g/><g/></g></svg>