<svg version="1.1" xmlns="http://www.w3.org/2000/svg" xmlns:xlink="http://www.w3.org/1999/xlink" width="1578" height="1725"><defs/><g><g/><g/><g/><g/><g/><g/><g/><g/><g/><g/><g/><g/><g/><g/><g/><g/><g/><g/><g/><g/><g/><g/><g/><g/><g/><g/><g/><g/><g><rect fill="white" stroke="none" x="0" y="0" width="1578" height="1725"/></g><g><text fill="black" stroke="none" font-family="sans-serif" font-size="16.5pt" font-style="normal" font-weight="normal" text-decoration="normal" x="664.8242378073203" y="26.3876361" text-anchor="start" dominant-baseline="alphabetic">Modify Room Price BCE</text></g><g/><g><path fill="none" stroke="black" paint-order="fill stroke markers" d=" M 24.840976051074218 139.67855375599999 L 24.840976051074218 1725.3995657919993" stroke-miterlimit="10" stroke-width="1.4659797833333332" stroke-dasharray="13.532121076923076,5.863919133333333"/><path fill="none" stroke="black" paint-order="fill stroke markers" d=" M 117.31086166770834 632.9514312519999 L 117.31086166770834 1725.3995657919993" stroke-miterlimit="10" stroke-width="1.4659797833333332" stroke-dasharray="13.532121076923076,5.863919133333333"/><path fill="none" stroke="black" paint-order="fill stroke markers" d=" M 323.1812435577149 139.67855375599999 L 323.1812435577149 1725.3995657919993" stroke-miterlimit="10" stroke-width="1.4659797833333332" stroke-dasharray="13.532121076923076,5.863919133333333"/><path fill="none" stroke="black" paint-order="fill stroke markers" d=" M 623.5898868612956 139.67855375599999 L 623.5898868612956 1725.3995657919993" stroke-miterlimit="10" stroke-width="1.4659797833333332" stroke-dasharray="13.532121076923076,5.863919133333333"/><path fill="none" stroke="black" paint-order="fill stroke markers" d=" M 901.4717052137044 139.67855375599999 L 901.4717052137044 1725.3995657919993" stroke-miterlimit="10" stroke-width="1.4659797833333332" stroke-dasharray="13.532121076923076,5.863919133333333"/><path fill="none" stroke="black" paint-order="fill stroke markers" d=" M 1010.555686018681 139.67855375599999 L 1010.555686018681 1725.3995657919993" stroke-miterlimit="10" stroke-width="1.4659797833333332" stroke-dasharray="13.532121076923076,5.863919133333333"/><path fill="none" stroke="black" paint-order="fill stroke markers" d=" M 1138.337155943095 139.67855375599999 L 1138.337155943095 1725.3995657919993" stroke-miterlimit="10" stroke-width="1.4659797833333332" stroke-dasharray="13.532121076923076,5.863919133333333"/><path fill="none" stroke="black" paint-order="fill stroke markers" d=" M 1280.4776934497318 139.67855375599999 L 1280.4776934497318 1725.3995657919993" stroke-miterlimit="10" stroke-width="1.4659797833333332" stroke-dasharray="13.532121076923076,5.863919133333333"/><path fill="none" stroke="black" paint-order="fill stroke markers" d=" M 1534.6729883646406 139.67855375599999 L 1534.6729883646406 1725.3995657919993" stroke-miterlimit="10" stroke-width="1.4659797833333332" stroke-dasharray="13.532121076923076,5.863919133333333"/></g><g><g><path fill="white" stroke="black" paint-order="fill stroke markers" d=" M 34.86827776907422 65.265419954 A 10.027301717999999 10.027301717999999 0 1 1 34.868272755423774 65.25539265395321 M 24.840976051074218 75.29272167199998 L 24.840976051074218 96.75466569999998 M 12.17491072307422 83.033094928 L 37.50704137907422 83.033094928 M 24.840976051074218 96.75466569999998 L 12.17491072307422 116.80926913599998 M 24.840976051074218 96.75466569999998 L 37.50704137907422 116.80926913599998" stroke-miterlimit="10" stroke-width="2.990598758" stroke-dasharray=""/></g><g><g/><text fill="black" stroke="none" font-family="sans-serif" font-size="11pt" font-style="normal" font-weight="normal" text-decoration="normal" x="8.7958787" y="134.401026536" text-anchor="start" dominant-baseline="alphabetic">Boss</text></g><g><path fill="white" stroke="black" paint-order="fill stroke markers" d=" M 358.10088199671486 89.19021001799997 A 26.123759739 26.123759739 0 1 1 358.1008689348361 89.16408626261492 M 289.7569044977149 61.57115089999997 L 289.7569044977149 116.80926913599997 M 288.2616051187149 89.19021001799997 L 305.8533625187149 89.19021001799997" stroke-miterlimit="10" stroke-width="2.990598758" stroke-dasharray=""/></g><g><g/><text fill="black" stroke="none" font-family="sans-serif" font-size="11pt" font-style="normal" font-weight="normal" text-decoration="normal" x="299.5090862701172" y="134.401026536" text-anchor="start" dominant-baseline="alphabetic">BossUI</text></g><g><path fill="white" stroke="black" paint-order="fill stroke markers" d=" M 649.7136466002955 89.19021001799997 A 26.123759739 26.123759739 0 1 1 649.7136335384167 89.16408626261492 M 620.0715353812956 63.06645027899997 L 630.6265898212956 54.27057157899998 M 620.0715353812956 63.06645027899997 L 630.6265898212956 71.86232897899997" stroke-miterlimit="10" stroke-width="2.990598758" stroke-dasharray=""/></g><g><g/><text fill="black" stroke="none" font-family="sans-serif" font-size="11pt" font-style="normal" font-weight="normal" text-decoration="normal" x="557.2763568930338" y="134.401026536" text-anchor="start" dominant-baseline="alphabetic">ReservationSystem</text></g><path fill="none" stroke="none"/><g><path fill="white" stroke="black" paint-order="fill stroke markers" d=" M 863.2149935885129 92.18080877599999 L 939.7284168388958 92.18080877599999 L 939.7284168388958 139.67855375599999 L 863.2149935885129 139.67855375599999 L 863.2149935885129 92.18080877599999 Z" stroke-miterlimit="10" stroke-width="2.814681184" stroke-dasharray=""/></g><g><g/><text fill="black" stroke="none" font-family="sans-serif" font-size="11pt" font-style="normal" font-weight="normal" text-decoration="normal" x="882.302050367513" y="122.08679635600001" text-anchor="start" dominant-baseline="alphabetic">Hotel</text></g><g><path fill="white" stroke="black" paint-order="fill stroke markers" d=" M 1036.679445757681 86.79773101159998 A 26.123759739 26.123759739 0 1 1 1036.6794326958022 86.77160725621492 M 982.936626900681 115.31396975699997 L 1035.184146378681 115.31396975699997" stroke-miterlimit="10" stroke-width="2.990598758" stroke-dasharray=""/></g><g><g/><text fill="black" stroke="none" font-family="sans-serif" font-size="11pt" font-style="normal" font-weight="normal" text-decoration="normal" x="957.3201742388958" y="134.401026536" text-anchor="start" dominant-baseline="alphabetic">Room (current)</text></g><g><path fill="white" stroke="black" paint-order="fill stroke markers" d=" M 1164.460915682095 86.79773101159998 A 26.123759739 26.123759739 0 1 1 1164.4609026202163 86.77160725621492 M 1110.718096825095 115.31396975699997 L 1162.965616303095 115.31396975699997" stroke-miterlimit="10" stroke-width="2.990598758" stroke-dasharray=""/></g><g><g/><text fill="black" stroke="none" font-family="sans-serif" font-size="11pt" font-style="normal" font-weight="normal" text-decoration="normal" x="1081.382955198466" y="134.401026536" text-anchor="start" dominant-baseline="alphabetic">Room (selected)</text></g><path fill="none" stroke="none"/><g><path fill="white" stroke="black" paint-order="fill stroke markers" d=" M 1212.883114087724 92.18080877599999 L 1348.0722728117396 92.18080877599999 L 1348.0722728117396 139.67855375599999 L 1212.883114087724 139.67855375599999 L 1212.883114087724 92.18080877599999 Z" stroke-miterlimit="10" stroke-width="2.814681184" stroke-dasharray=""/></g><g><g/><text fill="black" stroke="none" font-family="sans-serif" font-size="11pt" font-style="normal" font-weight="normal" text-decoration="normal" x="1231.970170866724" y="122.08679635600001" text-anchor="start" dominant-baseline="alphabetic">RoomMapper</text></g><g><path fill="white" stroke="black" paint-order="fill stroke markers" d=" M 1508.9890225606405 105.19870925199999 L 1508.9890225606405 68.25601871199999 L 1560.3569541686406 68.25601871199999 L 1560.3569541686406 105.19870925199999" stroke-miterlimit="10" stroke-width="2.990598758" stroke-dasharray=""/><path fill="white" stroke="black" paint-order="fill stroke markers" d=" M 1560.3569541686406 66.97182042179999 L 1560.355669981052 67.08792408555635 L 1560.3518175467038 67.20401613904309 L 1560.3453972508366 67.3200849731516 L 1560.3364097354743 67.43611898109519 L 1560.324855899361 67.55210655956978 L 1560.3107368978706 67.66803610991414 L 1560.2940541428918 67.78389603926989 L 1560.274809302686 67.8996747617406 L 1560.253004301721 68.01536069955054 L 1560.228641320479 68.1309422842023 L 1560.2017227952376 68.24640795763378 L 1560.172251417827 68.3617461733738 L 1560.1402301353608 68.47694539769695 L 1560.1056621499397 68.59199411077678 L 1560.068550918334 68.70688080783783 L 1560.028900151636 68.82159400030618 L 1559.986713814889 68.93612221695814 L 1559.9419961266917 69.0504540050675 L 1559.8947515587756 69.16457793155072 L 1559.8449848355583 69.27848258411025 L 1559.7927009336704 69.39215657237577 L 1559.7379050814586 69.50558852904317 L 1559.6806027584626 69.61876711101131 L 1559.6207996948667 69.73168100051632 L 1559.5585018709276 69.84431890626333 L 1559.4937155163757 69.95666956455563 L 1559.4264471097924 70.06872174042103 L 1559.3567033779627 70.18046422873529 L 1559.2844912952012 70.29188585534273 L 1559.209818082656 70.40297547817353 L 1559.1326912075865 70.51372198835797 L 1559.0531183826156 70.62411431133734 L 1558.9711075649598 70.73414140797132 L 1558.886666955632 70.84379227564195 L 1558.7998049986234 70.95305594935381 L 1558.7105303800568 71.06192150283061 L 1558.61885202732 71.1703780496077 L 1558.5247791081717 71.27841474412082 L 1558.4283210298256 71.38602078279051 L 1558.329487438009 71.4931854051026 L 1558.2282882159986 71.59989789468413 L 1558.1247334836326 71.7061475803751 L 1558.0188335962976 71.81192383729548 L 1557.9105991438942 71.9172160879077 L 1557.8000409497777 72.02201380307447 L 1557.687170069675 72.12630650311159 L 1557.57199779058 72.23008375883597 L 1557.4545356296253 72.33333519260853 L 1557.3347953329285 72.43605047937191 L 1557.2127888744196 72.53821934768304 L 1557.0885284546428 72.63983158074024 L 1556.9620264995367 72.74087701740487 L 1556.833295659191 72.84134555321748 L 1556.702348806583 72.94122714140819 L 1556.5691990362884 73.04051179390143 L 1556.4338596631733 73.13918958231469 L 1556.2963442210626 73.23725063895135 L 1556.1566664613854 73.33468515778748 L 1556.0148403518017 73.43148339545236 L 1555.870880074804 73.52763567220293 L 1555.7248000263003 73.6231323728916 L 1555.5766148141734 73.71796394792793 L 1555.4263392568212 73.8121209142334 L 1555.2739883816741 73.90559385618985 L 1555.1195774236928 73.998373426581 L 1554.9631218238446 74.09045034752711 L 1554.8046372275585 74.18181541141281 L 1554.6441394831627 74.27245948180787 L 1554.4816446402974 74.36237349438078 L 1554.317168948312 74.45154845780519 L 1554.1507288546381 74.53997545465909 L 1553.9823410031465 74.62764564231648 L 1553.8120222324824 74.71455025383165 L 1553.6397895743805 74.80068059881587 L 1553.4656602519633 74.88602806430642 L 1553.2896516780177 74.97058411562787 L 1553.1117814532547 75.05434029724555 L 1552.9320673645486 75.13728823361109 L 1552.7505273831582 75.21941962999999 L 1552.5671796629306 75.30072627334106 L 1552.3820425384847 75.38120003303769 L 1552.1951345233792 75.46083286178099 L 1552.0064743082594 75.53961679635444 L 1551.81608075899 75.61754395843025 L 1551.6239729147667 75.69460655535714 L 1551.4301699862144 75.77079688093964 L 1551.234691353464 75.84610731620869 L 1551.0375565642164 75.9205303301835 L 1550.8387853317856 75.99405848062472 L 1550.6383975331298 76.06668441477855 L 1550.4364132068615 76.13840087011211 L 1550.232852551245 76.20920067503964 L 1550.0277359221766 76.27907674963963 L 1549.821083831148 76.34802210636286 L 1549.612916943196 76.4160298507311 L 1549.403256074836 76.48309318202661 L 1549.1921221919804 76.54920539397213 L 1548.9795364078411 76.61435987540155 L 1548.7655199808196 76.67855011092104 L 1548.5500943123802 76.74176968156053 L 1548.3332809449103 76.80401226541565 L 1548.1151015595658 76.86527163827986 L 1547.8955779741036 76.92554167426694 L 1547.6747321406992 76.98481634642351 L 1547.4525861437521 77.04308972733178 L 1547.2291621976767 77.10035598970217 L 1547.0044826446813 77.15660940695618 L 1546.778569952534 77.21184435379898 L 1546.5514467123162 77.26605530678191 L 1546.323135636162 77.31923684485484 L 1546.0936595549892 77.37138364990828 L 1545.8630414162146 77.42249050730518 L 1545.63130428146 77.4725523064024 L 1545.3984713242453 77.52156404106174 L 1545.1645658276727 77.56952081015058 L 1544.9296111820968 77.61641781803196 L 1544.6936308827862 77.6622503750442 L 1544.4566485275743 77.70701389796976 L 1544.2186878144992 77.75070391049368 L 1543.9797725394337 77.7933160436511 L 1543.7399265937063 77.83484603626422 L 1543.499173961712 77.87528973536838 L 1543.257538718513 77.91464309662739 L 1543.0150450274323 77.9529021847379 L 1542.771717137637 77.99006317382297 L 1542.5275793817136 78.02612234781469 L 1542.2826561732336 78.0610761008257 L 1542.0369720043143 78.09492093750981 L 1541.7905514431677 78.12765347341158 L 1541.5434191316444 78.15927043530469 L 1541.2955997827698 78.18976866151928 L 1541.0471181782723 78.21914510225817 L 1540.7979991661052 78.24739681990175 L 1540.548267657962 78.27452098930179 L 1540.2979486267855 78.30051489806398 L 1540.0470671042704 78.32537594681908 L 1539.7956481783594 78.34910164948295 L 1539.5437169907364 78.37168963350508 L 1539.2912987343093 78.39313764010592 L 1539.038418650694 78.41344352450264 L 1538.7851020276878 78.43260525612375 L 1538.531374196742 78.45062091881205 L 1538.2772605304285 78.46748871101629 L 1538.022786439902 78.48320694597129 L 1537.7679773723594 78.49777405186667 L 1537.512858808495 78.51118857200397 L 1537.257456259953 78.52344916494236 L 1537.001795266775 78.53455460463276 L 1536.7459013948476 78.54450378054045 L 1536.4898002333446 78.55329569775614 L 1536.2335173921686 78.56092947709544 L 1535.9770784993902 78.56740435518677 L 1535.7205091986852 78.57271968454769 L 1535.46383514677 78.57687493364975 L 1535.2070820108352 78.57986968697145 L 1534.9502754659811 78.58170364504 L 1534.693441192648 78.58237662446106 L 1534.4366048740487 78.58188855793732 L 1534.179792193602 78.58023949427498 L 1533.923028832361 78.57742959837903 L 1533.6663404664484 78.57345915123673 L 1533.409752764487 78.56832854988951 L 1533.1532913850326 78.56203830739318 L 1532.89698197401 78.5545890527668 L 1532.6408501621463 78.54598153092958 L 1532.3849215624095 78.53621660262655 L 1532.129221767446 78.5252952443424 L 1531.8737763470226 78.51321854820387 L 1531.6186108454683 78.4999877218705 L 1531.3637507791207 78.48560408841388 L 1531.1092216337738 78.4700690861854 L 1530.8550488621302 78.45338426867232 L 1530.6012578812552 78.4355513043425 L 1530.3478740700355 78.41657197647748 L 1530.094922766641 78.39644818299428 L 1529.8424292659913 78.37518193625543 L 1529.590418817226 78.35277536286792 L 1529.33891662118 78.32923070347039 L 1529.0879478278634 78.30455031250918 L 1528.837537533946 78.2787366580028 L 1528.5877107802492 78.2517923212952 L 1528.3384925492394 78.2237199967976 L 1528.0899077625327 78.19452249171906 L 1527.8419812784002 78.16420272578573 L 1527.5947378892838 78.13276373094897 L 1527.3482023193164 78.10020865108203 L 1527.1023992218497 78.0665407416658 L 1526.8573531769885 78.03176336946316 L 1526.6130886891328 77.99588001218234 L 1526.3696301845284 77.95889425812916 L 1526.1270020088223 77.92080980584822 L 1525.8852284246302 77.881630463753 L 1525.6443336091093 77.84136014974506 L 1525.4043416515397 77.80000289082224 L 1525.1652765509177 77.75756282267598 L 1524.927162213554 77.71404418927773 L 1524.690022450684 77.66945134245454 L 1524.4538809760863 77.62378874145395 L 1524.2187614037116 77.57706095249802 L 1523.9846872453209 77.52927264832667 L 1523.7516819081354 77.48042860773052 L 1523.5197686924946 77.43053371507293 L 1523.2889707895265 77.37959295980157 L 1523.0593112788295 77.32761143594954 L 1522.8308131261629 77.27459434162587 L 1522.6034991811516 77.22054697849586 L 1522.377392175001 77.16547475125074 L 1522.1525147182228 77.10938316706736 L 1521.9288892983757 77.0522778350574 L 1521.7065382778153 76.99416446570646 L 1521.485483891458 76.93504887030305 L 1521.2657482445586 76.87493696035746 L 1521.0473533104985 76.81383474701059 L 1520.8303209285893 76.75174834043284 L 1520.614672801888 76.68868394921314 L 1520.4004304950279 76.62464787973806 L 1520.187615432061 76.5596465355612 L 1519.976248894316 76.49368641676277 L 1519.7663520182712 76.42677411929971 L 1519.5579457934384 76.358916334346 L 1519.3510510602673 76.2901198476236 L 1519.1456885080581 76.22039153872383 L 1518.9418786728954 76.14973838041949 L 1518.7396419355928 76.07816743796754 L 1518.538998519655 76.00568586840255 L 1518.339968489257 75.9323009198211 L 1518.1425717472355 75.8580199306569 L 1517.9468280331007 75.78285032894695 L 1517.7527569210604 75.70679963158878 L 1517.5603778180646 75.62987544358876 L 1517.3697099618628 75.55208545730159 L 1517.180772419082 75.47343745166106 L 1516.9935840833189 75.3939392914022 L 1516.808163673251 75.31359892627479 L 1516.624529730765 75.2324243902484 L 1516.4427006191022 75.15042380070896 L 1516.262694521022 75.06760535764712 L 1516.0845294369844 74.98397734283817 L 1515.9082231833493 74.89954811901389 L 1515.7337933905949 74.8143261290263 L 1515.5612575015552 74.72831989500338 L 1515.3906327696757 74.64153801749687 L 1515.2219362572869 74.5539891746222 L 1515.0551848338998 74.46568212119071 L 1514.8903951745176 74.37662568783415 L 1514.7275837579691 74.28682878012162 L 1514.56676686526 74.19630037766909 L 1514.4079605779457 74.10504953324134 L 1514.2511807765227 74.0130853718468 L 1514.0964431388404 73.92041708982494 L 1513.9437631385335 73.82705395392676 L 1513.793156043475 73.73300530038806 L 1513.6446369142488 73.63828053399578 L 1513.498220602644 73.54288912714766 L 1513.35392175017 73.44684061890487 L 1513.2117547865914 73.3501446140382 L 1513.0717339284865 73.25281078206757 L 1512.9338731778241 73.15484885629505 L 1512.7981863205646 73.05626863283157 L 1512.6646869252804 72.95707996961737 L 1512.5333883418002 72.85729278543607 L 1512.4043036998726 72.75691705892295 L 1512.2774459078541 72.65596282756702 L 1512.1528276514186 72.5544401867073 L 1512.0304613922876 72.45235928852324 L 1511.9103593669852 72.34973034101961 L 1511.7925335856137 72.24656360700563 L 1511.6769958306531 72.14286940306874 L 1511.5637576557826 72.03865809854291 L 1511.4528303847255 71.93394011447177 L 1511.3442251101162 71.82872592256643 L 1511.237952692392 71.72302604415843 L 1511.1340237587056 71.61685104914753 L 1511.0324487018643 71.51021155494473 L 1510.9332376792886 71.4031182254106 L 1510.8364006119987 71.29558176978884 L 1510.7419471836201 71.1876129416354 L 1510.6498868394171 71.07922253774314 L 1510.5602287853476 70.9704213970621 L 1510.472981987142 70.86122039961568 L 1510.3881551694076 70.75163046541265 L 1510.3057568147556 70.64166255335508 L 1510.2257951629524 70.53132766014255 L 1510.1482782100968 70.42063681917243 L 1510.0732137078194 70.30960109943658 L 1510.0006091625082 70.19823160441445 L 1509.9304718345568 70.0865394709627 L 1509.8628087376396 69.97453586820164 L 1509.7976266380101 69.86223199639821 L 1509.734932053824 69.74963908584596 L 1509.6747312544871 69.63676839574217 L 1509.6170302600297 69.52363121306175 L 1509.5618348405028 69.41023885142872 L 1509.5091505154023 69.29660264998472 L 1509.4589825531168 69.18273397225522 L 1509.411335970401 69.0686442050131 L 1509.3662155318734 68.95434475714 L 1509.32362574954 68.83984705848547 L 1509.2835708823438 68.72516255872397 L 1509.2460549357381 68.61030272620987 L 1509.2110816612862 68.49527904683073 L 1509.1786545562866 68.38010302285863 L 1509.1487768634224 68.2647861718 L 1509.1214515704385 68.14934002524383 L 1509.0966814098408 68.03377612770858 L 1509.0744688586253 67.9181060354877 L 1509.0548161380282 67.80234131549402 L 1509.0377252133055 67.68649354410306 L 1509.0231977935352 67.57057430599544 L 1509.0112353314473 67.45459519299835 L 1509.0018390232779 67.33856780292646 L 1508.9950098086501 67.22250373842208 L 1508.9907483704799 67.10641460579494 L 1508.9890551349072 66.99031201386155 L 1508.989930271254 66.87420757278437 L 1508.993373692008 66.75811289291076 L 1508.9993850528294 66.64203958361193 L 1509.0079637525876 66.52599925212212 L 1509.0191089334194 66.41000350237775 L 1509.0328194808162 66.29406393385715 L 1509.0490940237346 66.17819214042055 L 1509.067930934734 66.06239970915072 L 1509.089328330139 65.94669821919432 L 1509.1132840702278 65.8310992406039 L 1509.139795759446 65.71561433318102 L 1509.1688607466476 65.60025504532017 L 1509.2004761253575 65.48503291285398 L 1509.234638734064 65.36995945789971 L 1509.2713451565353 65.25504618770695 L 1509.3105917221594 65.14030459350695 L 1509.3523745063123 65.02574614936354 L 1509.3966893307509 64.91138231102563 L 1509.4435317640293 64.79722451478179 L 1509.492897121943 64.68328417631649 L 1509.544780467998 64.56957268956862 L 1509.5991766139023 64.45610142559212 L 1509.6560801200872 64.3428817314188 L 1509.715485296249 64.22992492892377 L 1509.7773862019196 64.1172423136931 L 1509.8417766470604 64.00484515389444 L 1509.9086501926804 63.89274468915009 L 1509.9780001514807 63.78095212941312 L 1510.0498195885232 63.66947865384635 L 1510.1241013219242 63.558335409704426 L 1510.200837923572 63.447533511219156 L 1510.2800217198703 63.337084038488044 L 1510.361644792506 63.226998036366325 L 1510.4456989792393 63.11728651336247 L 1510.532175874722 63.00796044053737 L 1510.6210668313363 62.899030750407185 L 1510.7123629600608 62.790508335850156 L 1510.8060551313586 62.682404049017315 L 1510.9021339760907 62.57472870024724 L 1511.0005898864526 62.4674930569851 L 1511.1014130169356 62.36070784270584 L 1511.2045932853102 62.25438373584191 L 1511.310120373636 62.148531368715396 L 1511.4179837292918 62.04316132647479 L 1511.528172566032 61.938284146036516 L 1511.6406758650648 61.83391031503122 L 1511.755482376154 61.73005027075502 L 1511.8725806187442 61.6267143991258 L 1511.9919588831087 61.52391303364461 L 1512.1136052315208 61.42165645436233 L 1512.2375074994466 61.31995488685167 L 1512.3636532967625 61.21881850118463 L 1512.4920300089946 61.1182574109155 L 1512.6226247985778 61.018281672069506 L 1512.7554246061427 60.91890128213721 L 1512.8904161518187 60.82012617907481 L 1513.0275859365638 60.72196624031029 L 1513.1669202435141 60.62443128175571 L 1513.3084051393548 60.52753105682567 L 1513.4520264757143 60.431275255461905 L 1513.5977698905785 60.33567350316434 L 1513.7456208097276 60.24073536002853 L 1513.8955644481928 60.14647031978968 L 1514.047585811735 60.05288780887326 L 1514.2016696983449 59.959997185452366 L 1514.357800699762 59.86780773851195 L 1514.5159632030163 59.77632868691987 L 1514.6761413919894 59.68556917850505 L 1514.8383192489955 59.59553828914271 L 1515.0024805563846 59.50624502184675 L 1515.1686088981623 59.41769830586949 L 1515.3366876616333 59.32990699580875 L 1515.506700039061 59.24287987072236 L 1515.6786290293492 59.15662563325033 L 1515.8524574397425 59.0711529087445 L 1516.0281678875444 58.986470244406114 L 1516.205742801857 58.90258610843103 L 1516.3851644253364 58.81950888916295 L 1516.56641481597 58.737246894254554 L 1516.7494758488697 58.65580834983679 L 1516.9343292180847 58.57520139969624 L 1517.1209564384321 58.49543410446074 L 1517.3093388473455 58.41651444079334 L 1517.499457606741 58.33845030059465 L 1517.6912937049012 58.26124949021362 L 1517.884827958376 58.18491972966697 L 1518.0800410139013 58.10946865186714 L 1518.276913350334 58.03490380185903 L 1518.4754252806051 57.96123263606552 L 1518.6755569536867 57.88846252154177 L 1518.8772883565782 57.816600735238616 L 1519.0805993163074 57.74565446327479 L 1519.2854695019478 57.67563080021837 L 1519.4918784266515 57.60653674837731 L 1519.6998054496983 57.53837921709922 L 1519.909229778559 57.47116502208042 L 1520.120130470975 57.40490088468441 L 1520.3324864370531 57.3395934312697 L 1520.5462764413737 57.27524919252721 L 1520.7614791051142 57.21187460282721 L 1520.9780729081879 57.14947599957584 L 1521.1960361913948 57.088059622581426 L 1521.4153471585885 57.02763161343051 L 1521.6359838788546 56.96819801487362 L 1521.8579242887051 56.9097647702211 L 1522.081146194284 56.85233772274873 L 1522.3056272735869 56.79592261511338 L 1522.5313450786928 56.74052508877882 L 1522.7582770380093 56.6861506834515 L 1522.9864004585295 56.63280483652666 L 1523.2156925281015 56.58049288254453 L 1523.4461303177095 56.52922005265691 L 1523.6776907837664 56.47899147410408 L 1523.9103507704187 56.42981216970201 L 1524.1440870118618 56.38168705734017 L 1524.378876134666 56.334620949489704 L 1524.6146946601145 56.28861855272216 L 1524.851519006552 56.24368446723889 L 1525.0893254917405 56.199823186410995 L 1525.3280903352302 56.157039096329996 L 1525.5677896607351 56.11533647536926 L 1525.808399498523 56.07471949375613 L 1526.0498957878103 56.035192213154914 L 1526.2922543791694 55.99675858626073 L 1526.5354510369432 55.959422456404255 L 1526.7794614416684 55.923187557167346 L 1527.024261192508 55.88805751200974 L 1527.269825809691 55.85403583390668 L 1527.5161307369601 55.82112592499761 L 1527.763151344028 55.78933107624601 L 1528.0108629290398 55.758654467110254 L 1528.2592407210434 55.72909916522569 L 1528.5082598824665 55.70066812609789 L 1528.7578955116007 55.67336419280706 L 1529.008122645091 55.64719009572377 L 1529.2589162604322 55.62214845223594 L 1529.5102512784724 55.598241766487035 L 1529.762102565919 55.57547242912571 L 1530.0144449378529 55.55384271706673 L 1530.2672531602475 55.533354793263264 L 1530.520501952491 55.51401070649064 L 1530.7741659899154 55.4958123911414 L 1531.0282199063283 55.47876166703191 L 1531.2826382965497 55.46286023922039 L 1531.5373957189527 55.44810969783636 L 1531.792466698007 55.434511517921656 L 1532.0478257268278 55.42206705928295 L 1532.3034472697248 55.41077756635575 L 1532.5593057647563 55.40064416807991 L 1532.8153756262868 55.39166787778682 L 1533.0716312475429 55.38384959309805 L 1533.3280470031764 55.37719009583553 L 1533.5845972518252 55.37169005194345 L 1533.8412563386782 55.36735001142162 L 1534.097998598041 55.36417040827046 L 1534.354798355901 55.36215156044765 L 1534.6116299324967 55.36129366983628 L 1534.8684676448847 55.3615968222247 L 1535.1252858095074 55.363060987297914 L 1535.3820587447626 55.36568601864066 L 1535.6387607735708 55.369471653751965 L 1535.8953662259426 55.37441751407148 L 1536.151849441547 55.3805231050173 L 1536.4081847722764 55.38778781603543 L 1536.6643465848108 55.39621092066079 L 1536.9203092631826 55.40579157658996 L 1537.1760472113374 55.41652882576533 L 1537.4315348556934 55.428421594470926 L 1537.686746647699 55.44146869343979 L 1537.9416570663877 55.45566881797289 L 1538.1962406209302 55.47102054806961 L 1538.4504718531832 55.48752234856974 L 1538.704325340235 55.50517256930697 L 1538.9577756969488 55.52396944527395 L 1539.2107975785002 55.54391109679874 L 1539.4633656829114 55.56499552973279 L 1539.715454753583 55.587220635650404 L 1539.9670395818175 55.61058419205949 L 1540.2180950093423 55.63508386262389 L 1540.4685959308233 55.660717197396956 L 1540.7185172963773 55.687481633066575 L 1540.9678341140761 55.715374493211485 L 1541.2165214524457 55.744392988568904 L 1541.4645544429595 55.7745342173135 L 1541.711908282525 55.8057951653475 L 1541.9585582359643 55.83817270660215 L 1542.204479638488 55.871663603350314 L 1542.4496478981605 55.90626450653023 L 1542.6940384983602 55.941971956080394 L 1542.9376270002306 55.97878238128563 L 1543.1803890451247 56.01669210113408 L 1543.42230035704 56.055697324685354 L 1543.6633367450474 56.095794151449596 L 1543.9034741057087 56.136978571777554 L 1544.142688425488 56.17924646726151 L 1544.3809557831523 56.22259361114713 L 1544.618252352165 56.267015668756166 L 1544.8545544030665 56.31250819791986 L 1545.0898383058486 56.35906664942321 L 1545.3240805323176 56.40668636745987 L 1545.5572576584455 56.455362590097714 L 1545.7893463667142 56.505090449755045 L 1546.0203234484463 56.55586497368733 L 1546.2501658061262 56.60768108448449 L 1546.4788504557096 56.66053360057863 L 1546.7063545289218 56.71441723676219 L 1546.9326552755456 56.76932660471643 L 1547.1577300656945 56.82525621355034 L 1547.3815563920773 56.88220047034963 L 1547.6041118722478 56.940153680736074 L 1547.8253742508434 56.999110049436936 L 1548.0453214018107 57.05906368086447 L 1548.263931330618 57.120008579705484 L 1548.4811821764542 57.1819386515209 L 1548.6970522144163 57.244847703355134 L 1548.9115198576799 57.308729444355436 L 1549.1245636596595 57.373577486400926 L 1549.3361623161527 57.439385344741446 L 1549.54629466747 57.506146438646006 L 1549.7549397005514 57.57385409206084 L 1549.9620765510674 57.642501534277045 L 1550.1676845055058 57.712081900607586 L 1550.371743003242 57.78258823307383 L 1550.5742316385968 57.854013481101276 L 1550.7751301628753 57.92635050222464 L 1550.974418486392 57.99959206280211 L 1551.1720766804815 58.07373083873863 L 1551.3680849794882 58.14875941621842 L 1551.5624237827462 58.224670292446234 L 1551.7550736565368 58.30145587639771 L 1551.9460153360333 58.379108489578456 L 1552.1352297272267 58.45762036679186 L 1552.3226979088356 58.53698365691561 L 1552.5084011341983 58.61719042368684 L 1552.6923208331466 58.698232646495725 L 1552.8744386138644 58.7801022211875 L 1553.0547362647249 58.86279096087293 L 1553.2331957561134 58.94629059674695 L 1553.4097992422298 59.03059277891555 L 1553.5845290628722 59.115689077230776 L 1553.7573677452044 59.2015709821337 L 1553.9282980055023 59.2882299055054 L 1554.097302750882 59.375657181525774 L 1554.2643650810098 59.46384406754005 L 1554.4294682897923 59.55278174493313 L 1554.592595867046 59.642461320011385 L 1554.7537315001487 59.73287382489204 L 1554.912859075672 59.82401021839995 L 1555.0699626809908 59.91586138697171 L 1555.2250266058752 60.008418145567006 L 1555.3780353440623 60.10167123858711 L 1555.5289735948054 60.195611340800426 L 1555.6778262644054 60.29022905827503 L 1555.8245784677197 60.385514929318006 L 1555.9692155296498 60.48145942542166 L 1556.11172298661 60.57805295221634 L 1556.2520865879737 60.67528585042985 L 1556.3902922974976 60.77314839685341 L 1556.526326294726 60.87163080531391 L 1556.6601749763724 60.97072322765259 L 1556.79182495768 61.07041575470979 L 1556.9212630737609 61.170698417315876 L 1557.0484763809109 61.271561187288164 L 1557.1734521579056 61.3729939784337 L 1557.2961779072712 61.47498664755789 L 1557.4166413565351 61.577528995478836 L 1557.5348304594527 61.68061076804718 L 1557.6507333972124 61.78422165717158 L 1557.764338579617 61.88835130184945 L 1557.8756346462426 61.99298928920311 L 1557.9846104675757 62.09812515552101 L 1558.0912551461247 62.203748387304145 L 1558.1955580175108 62.30984842231735 L 1558.2975086515337 62.416414650645535 L 1558.3970968532149 62.52343641575468 L 1558.4943126638173 62.63090301555746 L 1558.5891463618407 62.73880370348344 L 1558.6815884639946 62.847127689553744 L 1558.7716297261454 62.95586414146005 L 1558.8592611442423 63.065002185647764 L 1558.9444739552166 63.174530908403426 L 1559.027259637858 63.28443935694603 L 1559.107609913667 63.39471654052231 L 1559.1855167476833 63.50535143150581 L 1559.2609723492883 63.61633296649962 L 1559.3339691729848 63.72765004744274 L 1559.4044999191512 63.83929154271982 L 1559.4725575347718 63.951246288274376 L 1559.5381352141414 64.06350308872516 L 1559.6012263995472 64.17605071848564 L 1559.6618247819229 64.28887792288667 L 1559.7199243014807 64.40197341930181 L 1559.7755191483172 64.51532589827566 L 1559.8286037629941 64.6289240246548 L 1559.879172837094 64.74275643872124 L 1559.927221313752 64.85681175732844 L 1559.97274438816 64.97107857503958 L 1560.015737508049 65.08554546526814 L 1560.056196374142 65.20020098142045 L 1560.0941169405871 65.31503365804045 L 1560.1294954153586 65.43003201195617 L 1560.1623282606388 65.54518454342806 L 1560.1926121931706 65.66047973729893 L 1560.2203441845857 65.77590606414547 L 1560.245521461708 65.89145198143119 L 1560.2681415068312 66.00710593466063 L 1560.2882020579693 66.12285635853486 L 1560.305701109084 66.23869167810795 L 1560.3206369102847 66.35460030994449 L 1560.333007968004 66.47057066327784 L 1560.3428130451462 66.58659114116935 L 1560.3500511612117 66.70265014166789 L 1560.3547215923952 66.81873605897015 L 1560.356823871657 66.9348372845811 M 1560.3569541686406 103.91451096179999 L 1560.355669981052 104.03061462555635 L 1560.3518175467038 104.14670667904309 L 1560.3453972508366 104.2627755131516 L 1560.3364097354743 104.37880952109519 L 1560.324855899361 104.49479709956978 L 1560.3107368978706 104.61072664991414 L 1560.2940541428918 104.72658657926989 L 1560.274809302686 104.8423653017406 L 1560.253004301721 104.95805123955054 L 1560.228641320479 105.0736328242023 L 1560.2017227952376 105.18909849763378 L 1560.172251417827 105.3044367133738 L 1560.1402301353608 105.41963593769695 L 1560.1056621499397 105.53468465077678 L 1560.068550918334 105.64957134783783 L 1560.028900151636 105.76428454030618 L 1559.986713814889 105.87881275695814 L 1559.9419961266917 105.9931445450675 L 1559.8947515587756 106.10726847155073 L 1559.8449848355583 106.22117312411025 L 1559.7927009336704 106.33484711237577 L 1559.7379050814586 106.44827906904317 L 1559.6806027584626 106.56145765101131 L 1559.6207996948667 106.67437154051632 L 1559.5585018709276 106.78700944626333 L 1559.4937155163757 106.89936010455563 L 1559.4264471097924 107.01141228042103 L 1559.3567033779627 107.12315476873529 L 1559.2844912952012 107.23457639534273 L 1559.209818082656 107.34566601817353 L 1559.1326912075865 107.45641252835797 L 1559.0531183826156 107.56680485133734 L 1558.9711075649598 107.67683194797132 L 1558.886666955632 107.78648281564195 L 1558.7998049986234 107.89574648935381 L 1558.7105303800568 108.00461204283062 L 1558.61885202732 108.1130685896077 L 1558.5247791081717 108.22110528412082 L 1558.4283210298256 108.32871132279051 L 1558.329487438009 108.4358759451026 L 1558.2282882159986 108.54258843468413 L 1558.1247334836326 108.6488381203751 L 1558.0188335962976 108.75461437729548 L 1557.9105991438942 108.8599066279077 L 1557.8000409497777 108.96470434307447 L 1557.687170069675 109.0689970431116 L 1557.57199779058 109.17277429883598 L 1557.4545356296253 109.27602573260853 L 1557.3347953329285 109.37874101937192 L 1557.2127888744196 109.48090988768304 L 1557.0885284546428 109.58252212074024 L 1556.9620264995367 109.68356755740487 L 1556.833295659191 109.78403609321748 L 1556.702348806583 109.88391768140819 L 1556.5691990362884 109.98320233390143 L 1556.4338596631733 110.08188012231469 L 1556.2963442210626 110.17994117895135 L 1556.1566664613854 110.27737569778748 L 1556.0148403518017 110.37417393545236 L 1555.870880074804 110.47032621220293 L 1555.7248000263003 110.5658229128916 L 1555.5766148141734 110.66065448792793 L 1555.4263392568212 110.7548114542334 L 1555.2739883816741 110.84828439618985 L 1555.1195774236928 110.941063966581 L 1554.9631218238446 111.03314088752711 L 1554.8046372275585 111.12450595141281 L 1554.6441394831627 111.21515002180787 L 1554.4816446402974 111.30506403438078 L 1554.317168948312 111.39423899780519 L 1554.1507288546381 111.48266599465909 L 1553.9823410031465 111.57033618231648 L 1553.8120222324824 111.65724079383165 L 1553.6397895743805 111.74337113881587 L 1553.4656602519633 111.82871860430642 L 1553.2896516780177 111.91327465562787 L 1553.1117814532547 111.99703083724555 L 1552.9320673645486 112.07997877361109 L 1552.7505273831582 112.16211016999999 L 1552.5671796629306 112.24341681334106 L 1552.3820425384847 112.32389057303769 L 1552.1951345233792 112.40352340178099 L 1552.0064743082594 112.48230733635444 L 1551.81608075899 112.56023449843025 L 1551.6239729147667 112.63729709535714 L 1551.4301699862144 112.71348742093964 L 1551.234691353464 112.78879785620869 L 1551.0375565642164 112.8632208701835 L 1550.8387853317856 112.93674902062472 L 1550.6383975331298 113.00937495477855 L 1550.4364132068615 113.08109141011211 L 1550.232852551245 113.15189121503964 L 1550.0277359221766 113.22176728963963 L 1549.821083831148 113.29071264636286 L 1549.612916943196 113.35872039073111 L 1549.403256074836 113.42578372202661 L 1549.1921221919804 113.49189593397213 L 1548.9795364078411 113.55705041540155 L 1548.7655199808196 113.62124065092104 L 1548.5500943123802 113.68446022156053 L 1548.3332809449103 113.74670280541565 L 1548.1151015595658 113.80796217827987 L 1547.8955779741036 113.86823221426694 L 1547.6747321406992 113.92750688642352 L 1547.4525861437521 113.98578026733178 L 1547.2291621976767 114.04304652970217 L 1547.0044826446813 114.09929994695618 L 1546.778569952534 114.15453489379898 L 1546.5514467123162 114.20874584678191 L 1546.323135636162 114.26192738485484 L 1546.0936595549892 114.31407418990828 L 1545.8630414162146 114.36518104730519 L 1545.63130428146 114.4152428464024 L 1545.3984713242453 114.46425458106174 L 1545.1645658276727 114.51221135015058 L 1544.9296111820968 114.55910835803196 L 1544.6936308827862 114.6049409150442 L 1544.4566485275743 114.64970443796976 L 1544.2186878144992 114.69339445049368 L 1543.9797725394337 114.7360065836511 L 1543.7399265937063 114.77753657626423 L 1543.499173961712 114.81798027536838 L 1543.257538718513 114.85733363662739 L 1543.0150450274323 114.8955927247379 L 1542.771717137637 114.93275371382298 L 1542.5275793817136 114.96881288781469 L 1542.2826561732336 115.0037666408257 L 1542.0369720043143 115.03761147750981 L 1541.7905514431677 115.07034401341159 L 1541.5434191316444 115.10196097530469 L 1541.2955997827698 115.13245920151928 L 1541.0471181782723 115.16183564225817 L 1540.7979991661052 115.19008735990175 L 1540.548267657962 115.21721152930179 L 1540.2979486267855 115.24320543806398 L 1540.0470671042704 115.26806648681908 L 1539.7956481783594 115.29179218948295 L 1539.5437169907364 115.31438017350509 L 1539.2912987343093 115.33582818010592 L 1539.038418650694 115.35613406450264 L 1538.7851020276878 115.37529579612375 L 1538.531374196742 115.39331145881205 L 1538.2772605304285 115.41017925101629 L 1538.022786439902 115.42589748597129 L 1537.7679773723594 115.44046459186667 L 1537.512858808495 115.45387911200397 L 1537.257456259953 115.46613970494236 L 1537.001795266775 115.47724514463276 L 1536.7459013948476 115.48719432054045 L 1536.4898002333446 115.49598623775614 L 1536.2335173921686 115.50362001709544 L 1535.9770784993902 115.51009489518677 L 1535.7205091986852 115.5154102245477 L 1535.46383514677 115.51956547364975 L 1535.2070820108352 115.52256022697145 L 1534.9502754659811 115.52439418504 L 1534.693441192648 115.52506716446106 L 1534.4366048740487 115.52457909793732 L 1534.179792193602 115.52293003427498 L 1533.923028832361 115.52012013837903 L 1533.6663404664484 115.51614969123673 L 1533.409752764487 115.51101908988952 L 1533.1532913850326 115.50472884739318 L 1532.89698197401 115.4972795927668 L 1532.6408501621463 115.48867207092958 L 1532.3849215624095 115.47890714262655 L 1532.129221767446 115.4679857843424 L 1531.8737763470226 115.45590908820387 L 1531.6186108454683 115.4426782618705 L 1531.3637507791207 115.42829462841388 L 1531.1092216337738 115.4127596261854 L 1530.8550488621302 115.39607480867232 L 1530.6012578812552 115.3782418443425 L 1530.3478740700355 115.35926251647749 L 1530.094922766641 115.33913872299428 L 1529.8424292659913 115.31787247625543 L 1529.590418817226 115.29546590286792 L 1529.33891662118 115.27192124347039 L 1529.0879478278634 115.24724085250918 L 1528.837537533946 115.2214271980028 L 1528.5877107802492 115.1944828612952 L 1528.3384925492394 115.1664105367976 L 1528.0899077625327 115.13721303171906 L 1527.8419812784002 115.10689326578573 L 1527.5947378892838 115.07545427094897 L 1527.3482023193164 115.04289919108203 L 1527.1023992218497 115.0092312816658 L 1526.8573531769885 114.97445390946316 L 1526.6130886891328 114.93857055218234 L 1526.3696301845284 114.90158479812916 L 1526.1270020088223 114.86350034584822 L 1525.8852284246302 114.824321003753 L 1525.6443336091093 114.78405068974506 L 1525.4043416515397 114.74269343082224 L 1525.1652765509177 114.70025336267598 L 1524.927162213554 114.65673472927773 L 1524.690022450684 114.61214188245454 L 1524.4538809760863 114.56647928145395 L 1524.2187614037116 114.51975149249802 L 1523.9846872453209 114.47196318832667 L 1523.7516819081354 114.42311914773052 L 1523.5197686924946 114.37322425507293 L 1523.2889707895265 114.32228349980157 L 1523.0593112788295 114.27030197594954 L 1522.8308131261629 114.21728488162587 L 1522.6034991811516 114.16323751849586 L 1522.377392175001 114.10816529125074 L 1522.1525147182228 114.05207370706736 L 1521.9288892983757 113.9949683750574 L 1521.7065382778153 113.93685500570646 L 1521.485483891458 113.87773941030305 L 1521.2657482445586 113.81762750035746 L 1521.0473533104985 113.75652528701059 L 1520.8303209285893 113.69443888043284 L 1520.614672801888 113.63137448921314 L 1520.4004304950279 113.56733841973806 L 1520.187615432061 113.5023370755612 L 1519.976248894316 113.43637695676277 L 1519.7663520182712 113.36946465929971 L 1519.5579457934384 113.301606874346 L 1519.3510510602673 113.2328103876236 L 1519.1456885080581 113.16308207872383 L 1518.9418786728954 113.0924289204195 L 1518.7396419355928 113.02085797796754 L 1518.538998519655 112.94837640840255 L 1518.339968489257 112.8749914598211 L 1518.1425717472355 112.8007104706569 L 1517.9468280331007 112.72554086894695 L 1517.7527569210604 112.64949017158878 L 1517.5603778180646 112.57256598358876 L 1517.3697099618628 112.49477599730159 L 1517.180772419082 112.41612799166106 L 1516.9935840833189 112.3366298314022 L 1516.808163673251 112.2562894662748 L 1516.624529730765 112.1751149302484 L 1516.4427006191022 112.09311434070896 L 1516.262694521022 112.01029589764713 L 1516.0845294369844 111.92666788283817 L 1515.9082231833493 111.84223865901389 L 1515.7337933905949 111.7570166690263 L 1515.5612575015552 111.67101043500338 L 1515.3906327696757 111.58422855749687 L 1515.2219362572869 111.4966797146222 L 1515.0551848338998 111.40837266119071 L 1514.8903951745176 111.31931622783415 L 1514.7275837579691 111.22951932012163 L 1514.56676686526 111.13899091766909 L 1514.4079605779457 111.04774007324134 L 1514.2511807765227 110.9557759118468 L 1514.0964431388404 110.86310762982494 L 1513.9437631385335 110.76974449392677 L 1513.793156043475 110.67569584038806 L 1513.6446369142488 110.58097107399578 L 1513.498220602644 110.48557966714766 L 1513.35392175017 110.38953115890487 L 1513.2117547865914 110.2928351540382 L 1513.0717339284865 110.19550132206757 L 1512.9338731778241 110.09753939629505 L 1512.7981863205646 109.99895917283158 L 1512.6646869252804 109.89977050961737 L 1512.5333883418002 109.79998332543607 L 1512.4043036998726 109.69960759892295 L 1512.2774459078541 109.59865336756702 L 1512.1528276514186 109.4971307267073 L 1512.0304613922876 109.39504982852324 L 1511.9103593669852 109.29242088101961 L 1511.7925335856137 109.18925414700563 L 1511.6769958306531 109.08555994306874 L 1511.5637576557826 108.98134863854291 L 1511.4528303847255 108.87663065447177 L 1511.3442251101162 108.77141646256644 L 1511.237952692392 108.66571658415843 L 1511.1340237587056 108.55954158914753 L 1511.0324487018643 108.45290209494473 L 1510.9332376792886 108.3458087654106 L 1510.8364006119987 108.23827230978884 L 1510.7419471836201 108.1303034816354 L 1510.6498868394171 108.02191307774314 L 1510.5602287853476 107.9131119370621 L 1510.472981987142 107.80391093961568 L 1510.3881551694076 107.69432100541265 L 1510.3057568147556 107.58435309335508 L 1510.2257951629524 107.47401820014255 L 1510.1482782100968 107.36332735917243 L 1510.0732137078194 107.25229163943658 L 1510.0006091625082 107.14092214441445 L 1509.9304718345568 107.0292300109627 L 1509.8628087376396 106.91722640820164 L 1509.7976266380101 106.80492253639821 L 1509.734932053824 106.69232962584596 L 1509.6747312544871 106.57945893574217 L 1509.6170302600297 106.46632175306175 L 1509.5618348405028 106.35292939142872 L 1509.5091505154023 106.23929318998472 L 1509.4589825531168 106.12542451225522 L 1509.411335970401 106.0113347450131 L 1509.3662155318734 105.89703529714001 L 1509.32362574954 105.78253759848548 L 1509.2835708823438 105.66785309872397 L 1509.2460549357381 105.55299326620987 L 1509.2110816612862 105.43796958683073 L 1509.1786545562866 105.32279356285864 L 1509.1487768634224 105.2074767118 L 1509.1214515704385 105.09203056524383 L 1509.0966814098408 104.97646666770858 L 1509.0744688586253 104.8607965754877 L 1509.0548161380282 104.74503185549402 L 1509.0377252133055 104.62918408410306 L 1509.0231977935352 104.51326484599544 L 1509.0112353314473 104.39728573299836 L 1509.0018390232779 104.28125834292646 L 1508.9950098086501 104.16519427842208 L 1508.9907483704799 104.04910514579494 L 1508.9890551349072 103.93300255386156" stroke-miterlimit="10" stroke-width="2.990598758" stroke-dasharray=""/></g><g><g/><text fill="black" stroke="none" font-family="sans-serif" font-size="11pt" font-style="normal" font-weight="normal" text-decoration="normal" x="1501.9707788919843" y="134.401026536" text-anchor="start" dominant-baseline="alphabetic">Database</text></g></g><g><path fill="white" stroke="black" paint-order="fill stroke markers" d=" M 314.3853648577149 197.73135317599997 L 331.9771222577149 197.73135317599997 L 331.9771222577149 1663.8284148919993 L 314.3853648577149 1663.8284148919993 L 314.3853648577149 197.73135317599997" stroke-miterlimit="10" stroke-width="1.4659797833333332" stroke-dasharray=""/><path fill="white" stroke="black" paint-order="fill stroke markers" d=" M 614.7940081612956 313.83695201599994 L 632.3857655612956 313.83695201599994 L 632.3857655612956 461.6077141759999 L 614.7940081612956 461.6077141759999 L 614.7940081612956 313.83695201599994" stroke-miterlimit="10" stroke-width="1.4659797833333332" stroke-dasharray=""/><path fill="white" stroke="black" paint-order="fill stroke markers" d=" M 1001.7598073186809 363.0938727359999 L 1019.351564718681 363.0938727359999 L 1019.351564718681 412.3507934559999 L 1001.7598073186809 412.3507934559999 L 1001.7598073186809 363.0938727359999" stroke-miterlimit="10" stroke-width="1.4659797833333332" stroke-dasharray=""/><path fill="white" stroke="black" paint-order="fill stroke markers" d=" M 108.51498296770833 632.9514312519999 L 126.10674036770834 632.9514312519999 L 126.10674036770834 682.208351972 L 108.51498296770833 682.208351972 L 108.51498296770833 632.9514312519999" stroke-miterlimit="10" stroke-width="1.4659797833333332" stroke-dasharray=""/><path fill="white" stroke="black" paint-order="fill stroke markers" d=" M 108.51498296770833 731.465272692 L 126.10674036770834 731.465272692 L 126.10674036770834 879.2360348520001 L 108.51498296770833 879.2360348520001 L 108.51498296770833 731.465272692" stroke-miterlimit="10" stroke-width="1.4659797833333332" stroke-dasharray=""/><path fill="white" stroke="black" paint-order="fill stroke markers" d=" M 614.7940081612956 928.4929555720001 L 632.3857655612956 928.4929555720001 L 632.3857655612956 1614.5714941719993 L 614.7940081612956 1614.5714941719993 L 614.7940081612956 928.4929555720001" stroke-miterlimit="10" stroke-width="1.4659797833333332" stroke-dasharray=""/><path fill="white" stroke="black" paint-order="fill stroke markers" d=" M 892.6758265137044 1167.740856212 L 910.2675839137044 1167.740856212 L 910.2675839137044 1498.4658953319995 L 892.6758265137044 1498.4658953319995 L 892.6758265137044 1167.740856212" stroke-miterlimit="10" stroke-width="1.4659797833333332" stroke-dasharray=""/><path fill="white" stroke="black" paint-order="fill stroke markers" d=" M 1271.6818147497318 1216.9977769319999 L 1289.2735721497318 1216.9977769319999 L 1289.2735721497318 1707.8078083919993 L 1271.6818147497318 1707.8078083919993 L 1271.6818147497318 1216.9977769319999" stroke-miterlimit="10" stroke-width="1.4659797833333332" stroke-dasharray=""/><path fill="white" stroke="black" paint-order="fill stroke markers" d=" M 1280.4776934497318 1283.8464550519998 L 1298.0694508497318 1283.8464550519998 L 1298.0694508497318 1399.9520538919996 L 1280.4776934497318 1399.9520538919996 L 1280.4776934497318 1283.8464550519998" stroke-miterlimit="10" stroke-width="1.4659797833333332" stroke-dasharray=""/><g><g><rect fill="white" stroke="none" x="106.75607646109377" y="174.86206855599997" width="125.71418798660156" height="22.86928462"/></g><text fill="black" stroke="none" font-family="sans-serif" font-size="11pt" font-style="normal" font-weight="normal" text-decoration="normal" x="109.39484007109377" y="190.69465021599999" text-anchor="start" dominant-baseline="alphabetic">mouseClick(arg,i)</text></g><g><path fill="none" stroke="black" paint-order="fill stroke markers" d=" M 24.840976051074218 197.73135317599997 L 311.4534052910482 197.73135317599997" stroke-miterlimit="10" stroke-width="1.4659797833333332" stroke-dasharray=""/><g transform="translate(314.3853648577149,197.73135317599997) translate(-314.3853648577149,-197.73135317599997)"><path fill="black" stroke="none" paint-order="stroke fill markers" d=" M 299.7255670243815 190.4014542593333 L 314.3853648577149 197.73135317599997 L 299.7255670243815 205.06125209266665 Z"/></g></g><g><g><rect fill="white" stroke="none" x="352.79403518104823" y="224.11898927599998" width="230.67483556960937" height="22.86928462"/></g><text fill="black" stroke="none" font-family="sans-serif" font-size="11pt" font-style="normal" font-weight="normal" text-decoration="normal" x="355.43279879104824" y="239.951570936" text-anchor="start" dominant-baseline="alphabetic">RoomButtonActionListener(i:int)</text></g><g><path fill="none" stroke="black" paint-order="fill stroke markers" d=" M 331.9771222577149 246.98827389599995 L 402.3441518577149 246.98827389599995 L 402.3441518577149 264.58003129599996 L 334.90908182438153 264.58003129599996" stroke-miterlimit="10" stroke-width="1.4659797833333332" stroke-dasharray=""/><g transform="translate(331.9771222577149,264.58003129599996) translate(-331.9771222577149,-264.58003129599996)"><path fill="black" stroke="none" paint-order="stroke fill markers" d=" M 346.63692009104824 257.2501323793333 L 331.9771222577149 264.58003129599996 L 346.63692009104824 271.9099302126666 Z"/></g></g><g><g><rect fill="white" stroke="none" x="415.6966764774349" y="290.96766739599997" width="115.37777746414062" height="22.86928462"/></g><text fill="black" stroke="none" font-family="sans-serif" font-size="11pt" font-style="normal" font-weight="normal" text-decoration="normal" x="418.3354400874349" y="306.800249056" text-anchor="start" dominant-baseline="alphabetic">getRoom(id:int)</text></g><g><path fill="none" stroke="black" paint-order="fill stroke markers" d=" M 331.9771222577149 313.83695201599994 L 611.8620485946288 313.83695201599994" stroke-miterlimit="10" stroke-width="1.4659797833333332" stroke-dasharray=""/><g transform="translate(614.7940081612956,313.83695201599994) translate(-614.7940081612956,-313.83695201599994)"><path fill="black" stroke="none" paint-order="stroke fill markers" d=" M 600.1342103279623 306.5070530993333 L 614.7940081612956 313.83695201599994 L 600.1342103279623 321.1668509326666 Z"/></g></g><g><g><rect fill="white" stroke="none" x="759.383897707918" y="340.22458811599995" width="115.37777746414062" height="22.86928462"/></g><text fill="black" stroke="none" font-family="sans-serif" font-size="11pt" font-style="normal" font-weight="normal" text-decoration="normal" x="762.0226613179179" y="356.05716977599997" text-anchor="start" dominant-baseline="alphabetic">getRoom(id:int)</text></g><g><path fill="none" stroke="black" paint-order="fill stroke markers" d=" M 632.3857655612956 363.0938727359999 L 998.8278477520142 363.0938727359999" stroke-miterlimit="10" stroke-width="1.4659797833333332" stroke-dasharray=""/><g transform="translate(1001.7598073186809,363.0938727359999) translate(-1001.7598073186809,-363.0938727359999)"><path fill="black" stroke="none" paint-order="stroke fill markers" d=" M 987.1000094853476 355.7639738193333 L 1001.7598073186809 363.0938727359999 L 987.1000094853476 370.4237716526666 Z"/></g></g><g><g><rect fill="white" stroke="none" x="760.869249270418" y="389.48150883599993" width="112.40707433914062" height="22.86928462"/></g><text fill="black" stroke="none" font-family="sans-serif" font-size="11pt" font-style="normal" font-weight="normal" text-decoration="normal" x="763.5080128804179" y="405.31409049599995" text-anchor="start" dominant-baseline="alphabetic">return r : Room</text></g><g><path fill="none" stroke="black" paint-order="fill stroke markers" d=" M 1001.7598073186809 412.3507934559999 L 635.3177251279623 412.3507934559999" stroke-miterlimit="10" stroke-width="1.4659797833333332" stroke-dasharray=""/><g transform="translate(632.3857655612956,412.3507934559999) translate(-632.3857655612956,-412.3507934559999)"><path fill="black" stroke="none" paint-order="stroke fill markers" d=" M 647.0455633946289 405.02089453933326 L 632.3857655612956 412.3507934559999 L 647.0455633946289 419.68069237266656 Z"/></g></g><g><g><rect fill="white" stroke="none" x="417.1820280399349" y="438.7384295559999" width="112.40707433914062" height="22.86928462"/></g><text fill="black" stroke="none" font-family="sans-serif" font-size="11pt" font-style="normal" font-weight="normal" text-decoration="normal" x="419.8207916499349" y="454.57101121599993" text-anchor="start" dominant-baseline="alphabetic">return r : Room</text></g><g><path fill="none" stroke="black" paint-order="fill stroke markers" d=" M 614.7940081612956 461.6077141759999 L 334.90908182438153 461.6077141759999" stroke-miterlimit="10" stroke-width="1.4659797833333332" stroke-dasharray=""/><g transform="translate(331.9771222577149,461.6077141759999) translate(-331.9771222577149,-461.6077141759999)"><path fill="black" stroke="none" paint-order="stroke fill markers" d=" M 346.63692009104824 454.27781525933324 L 331.9771222577149 461.6077141759999 L 346.63692009104824 468.93761309266654 Z"/></g></g><g><g><rect fill="white" stroke="none" x="352.79403518104823" y="487.9953502759999" width="243.1157840559375" height="22.86928462"/></g><text fill="black" stroke="none" font-family="sans-serif" font-size="11pt" font-style="normal" font-weight="normal" text-decoration="normal" x="355.43279879104824" y="503.8279319359999" text-anchor="start" dominant-baseline="alphabetic">actionPerformed(arg:ActionEvent)</text></g><g><path fill="none" stroke="black" paint-order="fill stroke markers" d=" M 331.9771222577149 510.86463489599987 L 402.3441518577149 510.86463489599987 L 402.3441518577149 528.4563922959999 L 334.90908182438153 528.4563922959999" stroke-miterlimit="10" stroke-width="1.4659797833333332" stroke-dasharray=""/><g transform="translate(331.9771222577149,528.4563922959999) translate(-331.9771222577149,-528.4563922959999)"><path fill="black" stroke="none" paint-order="stroke fill markers" d=" M 346.63692009104824 521.1264933793332 L 331.9771222577149 528.4563922959999 L 346.63692009104824 535.7862912126666 Z"/></g></g><g><path fill="white" stroke="black" paint-order="fill stroke markers" d=" M 152.23050010670835 580.9677881349999 A 26.123759739 26.123759739 0 1 1 152.23048704482954 580.9416643796148 M 83.88652260770833 553.3487290169999 L 83.88652260770833 608.5868472529999 M 82.39122322870833 580.9677881349999 L 99.98298062870833 580.9677881349999" stroke-miterlimit="10" stroke-width="2.990598758" stroke-dasharray=""/></g><g><g/><text fill="black" stroke="none" font-family="sans-serif" font-size="11pt" font-style="normal" font-weight="normal" text-decoration="normal" x="73.4525776711263" y="626.1786046529999" text-anchor="start" dominant-baseline="alphabetic">RoomDialog</text></g><g><g><rect fill="white" stroke="none" x="186.3839979376237" y="571.0284452039999" width="102.78651464675781" height="22.86928462"/></g><text fill="black" stroke="none" font-family="sans-serif" font-size="11pt" font-style="normal" font-weight="normal" text-decoration="normal" x="189.0227615476237" y="586.8610268639999" text-anchor="start" dominant-baseline="alphabetic">RoomDialog()</text></g><g><path fill="none" stroke="black" paint-order="fill stroke markers" d=" M 314.3853648577149 593.897729824 L 164.10110523095705 593.897729824" stroke-miterlimit="10" stroke-width="1.4659797833333332" stroke-dasharray=""/><g transform="translate(161.16914566429037,593.897729824) translate(-161.16914566429037,-593.897729824)"><path fill="black" stroke="none" paint-order="stroke fill markers" d=" M 175.8289434976237 586.5678309073332 L 161.16914566429037 593.897729824 L 175.8289434976237 601.2276287406667 Z"/></g></g><g><g><rect fill="white" stroke="none" x="217.60728900271158" y="659.3390673519999" width="5.27752722" height="22.86928462"/></g><text fill="black" stroke="none" font-family="sans-serif" font-size="11pt" font-style="normal" font-weight="normal" text-decoration="normal" x="220.2460526127116" y="675.1716490119999" text-anchor="start" dominant-baseline="alphabetic"></text></g><g><path fill="none" stroke="black" paint-order="fill stroke markers" d=" M 126.10674036770834 682.208351972 L 311.4534052910482 682.208351972" stroke-miterlimit="10" stroke-width="1.4659797833333332" stroke-dasharray="7.0367029599999995"/><g transform="translate(314.3853648577149,682.208351972) translate(-314.3853648577149,-682.208351972)"><path fill="black" stroke="none" paint-order="stroke fill markers" d=" M 299.7255670243815 674.8784530553332 L 314.3853648577149 682.208351972 L 299.7255670243815 689.5382508886667 Z"/></g></g><g><g><rect fill="white" stroke="none" x="163.80269305544596" y="708.595988072" width="112.88671911453125" height="22.86928462"/></g><text fill="black" stroke="none" font-family="sans-serif" font-size="11pt" font-style="normal" font-weight="normal" text-decoration="normal" x="166.44145666544597" y="724.4285697319999" text-anchor="start" dominant-baseline="alphabetic">showAndWait()</text></g><g><path fill="none" stroke="black" paint-order="fill stroke markers" d=" M 314.3853648577149 731.465272692 L 129.03869993437502 731.465272692" stroke-miterlimit="10" stroke-width="1.4659797833333332" stroke-dasharray=""/><g transform="translate(126.10674036770834,731.465272692) translate(-126.10674036770834,-731.465272692)"><path fill="black" stroke="none" paint-order="stroke fill markers" d=" M 140.76653820104167 724.1353737753333 L 126.10674036770834 731.465272692 L 140.76653820104167 738.7951716086667 Z"/></g></g><g><g><rect fill="white" stroke="none" x="64.03921589939128" y="757.852908792" width="5.27752722" height="22.86928462"/></g><text fill="black" stroke="none" font-family="sans-serif" font-size="11pt" font-style="normal" font-weight="normal" text-decoration="normal" x="66.67797950939128" y="773.685490452" text-anchor="start" dominant-baseline="alphabetic"></text></g><g><path fill="none" stroke="black" paint-order="fill stroke markers" d=" M 108.51498296770833 780.722193412 L 27.772935617740885 780.722193412" stroke-miterlimit="10" stroke-width="1.4659797833333332" stroke-dasharray=""/><g transform="translate(24.840976051074218,780.722193412) translate(-24.840976051074218,-780.722193412)"><path fill="black" stroke="none" paint-order="stroke fill markers" d=" M 39.50077388440755 773.3922944953333 L 24.840976051074218 780.722193412 L 39.50077388440755 788.0520923286667 Z"/></g></g><g><g><rect fill="white" stroke="none" x="64.03921589939128" y="807.109829512" width="5.27752722" height="22.86928462"/></g><text fill="black" stroke="none" font-family="sans-serif" font-size="11pt" font-style="normal" font-weight="normal" text-decoration="normal" x="66.67797950939128" y="822.942411172" text-anchor="start" dominant-baseline="alphabetic"></text></g><g><path fill="none" stroke="black" paint-order="fill stroke markers" d=" M 24.840976051074218 829.9791141320001 L 105.58302340104167 829.9791141320001" stroke-miterlimit="10" stroke-width="1.4659797833333332" stroke-dasharray="7.0367029599999995"/><g transform="translate(108.51498296770833,829.9791141320001) translate(-108.51498296770833,-829.9791141320001)"><path fill="black" stroke="none" paint-order="stroke fill markers" d=" M 93.855185134375 822.6492152153334 L 108.51498296770833 829.9791141320001 L 93.855185134375 837.3090130486668 Z"/></g></g><g><g><rect fill="white" stroke="none" x="217.60728900271158" y="856.3667502320001" width="5.27752722" height="22.86928462"/></g><text fill="black" stroke="none" font-family="sans-serif" font-size="11pt" font-style="normal" font-weight="normal" text-decoration="normal" x="220.2460526127116" y="872.199331892" text-anchor="start" dominant-baseline="alphabetic"></text></g><g><path fill="none" stroke="black" paint-order="fill stroke markers" d=" M 126.10674036770834 879.2360348520001 L 311.4534052910482 879.2360348520001" stroke-miterlimit="10" stroke-width="1.4659797833333332" stroke-dasharray="7.0367029599999995"/><g transform="translate(314.3853648577149,879.2360348520001) translate(-314.3853648577149,-879.2360348520001)"><path fill="black" stroke="none" paint-order="stroke fill markers" d=" M 299.7255670243815 871.9061359353334 L 314.3853648577149 879.2360348520001 L 299.7255670243815 886.5659337686668 Z"/></g></g><g><g><rect fill="white" stroke="none" x="352.7940351810482" y="905.6236709520001" width="241.18306005691406" height="22.86928462"/></g><text fill="black" stroke="none" font-family="sans-serif" font-size="11pt" font-style="normal" font-weight="normal" text-decoration="normal" x="355.4327987910482" y="921.4562526120001" text-anchor="start" dominant-baseline="alphabetic">changeSelected(price:int, r:Room)</text></g><g><path fill="none" stroke="black" paint-order="fill stroke markers" d=" M 331.9771222577149 928.4929555720001 L 611.8620485946288 928.4929555720001" stroke-miterlimit="10" stroke-width="1.4659797833333332" stroke-dasharray=""/><g transform="translate(614.7940081612956,928.4929555720001) translate(-614.7940081612956,-928.4929555720001)"><path fill="black" stroke="none" paint-order="stroke fill markers" d=" M 600.1342103279623 921.1630566553334 L 614.7940081612956 928.4929555720001 L 600.1342103279623 935.8228544886668 Z"/></g></g><g><g><rect fill="white" stroke="none" x="653.2026784846289" y="1002.378336652" width="187.5037235090625" height="22.86928462"/></g><text fill="black" stroke="none" font-family="sans-serif" font-size="11pt" font-style="normal" font-weight="normal" text-decoration="normal" x="655.8414420946289" y="1018.210918312" text-anchor="start" dominant-baseline="alphabetic">checkIllegalPrice(price:int)</text></g><g><path fill="none" stroke="black" paint-order="fill stroke markers" d=" M 632.3857655612956 1025.247621272 L 702.7527951612956 1025.247621272 L 702.7527951612956 1042.839378672 L 635.3177251279623 1042.839378672" stroke-miterlimit="10" stroke-width="1.4659797833333332" stroke-dasharray=""/><g transform="translate(632.3857655612956,1042.839378672) translate(-632.3857655612956,-1042.839378672)"><path fill="black" stroke="none" paint-order="stroke fill markers" d=" M 647.0455633946289 1035.5094797553334 L 632.3857655612956 1042.839378672 L 647.0455633946289 1050.1692775886668 Z"/></g></g><g><g><rect fill="white" stroke="none" x="817.9088238511797" y="1095.614650872" width="134.90527380203125" height="22.86928462"/></g><text fill="black" stroke="none" font-family="sans-serif" font-size="11pt" font-style="normal" font-weight="normal" text-decoration="normal" x="820.5475874611797" y="1111.447232532" text-anchor="start" dominant-baseline="alphabetic">setPrice(price : int)</text></g><g><path fill="none" stroke="black" paint-order="fill stroke markers" d=" M 632.3857655612956 1118.483935492 L 1135.4051963764284 1118.483935492" stroke-miterlimit="10" stroke-width="1.4659797833333332" stroke-dasharray=""/><g transform="translate(1138.337155943095,1118.483935492) translate(-1138.337155943095,-1118.483935492)"><path fill="black" stroke="none" paint-order="stroke fill markers" d=" M 1123.6773581097616 1111.1540365753333 L 1138.337155943095 1118.483935492 L 1123.6773581097616 1125.8138344086667 Z"/></g></g><g><g><rect fill="white" stroke="none" x="653.2026784846289" y="1144.871571592" width="218.65623510574218" height="22.86928462"/></g><text fill="black" stroke="none" font-family="sans-serif" font-size="11pt" font-style="normal" font-weight="normal" text-decoration="normal" x="655.8414420946289" y="1160.704153252" text-anchor="start" dominant-baseline="alphabetic">updateRoom(selected : Room)</text></g><g><path fill="none" stroke="black" paint-order="fill stroke markers" d=" M 632.3857655612956 1167.740856212 L 889.7438669470376 1167.740856212" stroke-miterlimit="10" stroke-width="1.4659797833333332" stroke-dasharray=""/><g transform="translate(892.6758265137044,1167.740856212) translate(-892.6758265137044,-1167.740856212)"><path fill="black" stroke="none" paint-order="stroke fill markers" d=" M 878.016028680371 1160.4109572953332 L 892.6758265137044 1167.740856212 L 878.016028680371 1175.0707551286666 Z"/></g></g><g><g><rect fill="white" stroke="none" x="1007.763265738808" y="1194.128492312" width="166.4228671858203" height="22.86928462"/></g><text fill="black" stroke="none" font-family="sans-serif" font-size="11pt" font-style="normal" font-weight="normal" text-decoration="normal" x="1010.4020293488079" y="1209.961073972" text-anchor="start" dominant-baseline="alphabetic">updateRoom(r : Room)</text></g><g><path fill="none" stroke="black" paint-order="fill stroke markers" d=" M 910.2675839137044 1216.9977769319999 L 1268.7498551830652 1216.9977769319999" stroke-miterlimit="10" stroke-width="1.4659797833333332" stroke-dasharray=""/><g transform="translate(1271.6818147497318,1216.9977769319999) translate(-1271.6818147497318,-1216.9977769319999)"><path fill="black" stroke="none" paint-order="stroke fill markers" d=" M 1257.0220169163983 1209.6678780153331 L 1271.6818147497318 1216.9977769319999 L 1257.0220169163983 1224.3276758486666 Z"/></g></g><g><g><rect fill="white" stroke="none" x="1318.886363773065" y="1243.3854130319999" width="197.75424230789062" height="22.86928462"/></g><text fill="black" stroke="none" font-family="sans-serif" font-size="11pt" font-style="normal" font-weight="normal" text-decoration="normal" x="1321.5251273830652" y="1259.2179946919998" text-anchor="start" dominant-baseline="alphabetic">performUpdate(sql : String)</text></g><g><path fill="none" stroke="black" paint-order="fill stroke markers" d=" M 1289.2735721497318 1266.2546976519998 L 1368.4364804497318 1266.2546976519998 L 1368.4364804497318 1283.8464550519998 L 1301.0014104163984 1283.8464550519998" stroke-miterlimit="10" stroke-width="1.4659797833333332" stroke-dasharray=""/><g transform="translate(1298.0694508497318,1283.8464550519998) translate(-1298.0694508497318,-1283.8464550519998)"><path fill="black" stroke="none" paint-order="stroke fill markers" d=" M 1312.7292486830652 1276.516556135333 L 1298.0694508497318 1283.8464550519998 L 1312.7292486830652 1291.1763539686665 Z"/></g></g><g><g><rect fill="white" stroke="none" x="1318.8863637730649" y="1310.2340911519998" width="194.96971166824218" height="22.86928462"/></g><text fill="black" stroke="none" font-family="sans-serif" font-size="11pt" font-style="normal" font-weight="normal" text-decoration="normal" x="1321.525127383065" y="1326.0666728119998" text-anchor="start" dominant-baseline="alphabetic">executeUpdate(sql : String)</text></g><g><path fill="none" stroke="black" paint-order="fill stroke markers" d=" M 1298.0694508497318 1333.1033757719997 L 1531.741028797974 1333.1033757719997" stroke-miterlimit="10" stroke-width="1.4659797833333332" stroke-dasharray=""/><g transform="translate(1534.6729883646406,1333.1033757719997) translate(-1534.6729883646406,-1333.1033757719997)"><path fill="black" stroke="none" paint-order="stroke fill markers" d=" M 1520.0131905313071 1325.773476855333 L 1534.6729883646406 1333.1033757719997 L 1520.0131905313071 1340.4332746886664 Z"/></g></g><g><g><rect fill="white" stroke="none" x="1318.886363773065" y="1359.4910118719997" width="5.27752722" height="22.86928462"/></g><text fill="black" stroke="none" font-family="sans-serif" font-size="11pt" font-style="normal" font-weight="normal" text-decoration="normal" x="1321.5251273830652" y="1375.3235935319997" text-anchor="start" dominant-baseline="alphabetic"></text></g><g><path fill="none" stroke="black" paint-order="fill stroke markers" d=" M 1298.0694508497318 1382.3602964919996 L 1368.4364804497318 1382.3602964919996 L 1368.4364804497318 1399.9520538919996 L 1301.0014104163984 1399.9520538919996" stroke-miterlimit="10" stroke-width="1.4659797833333332" stroke-dasharray="7.0367029599999995"/><g transform="translate(1298.0694508497318,1399.9520538919996) translate(-1298.0694508497318,-1399.9520538919996)"><path fill="black" stroke="none" paint-order="stroke fill markers" d=" M 1312.7292486830652 1392.622154975333 L 1298.0694508497318 1399.9520538919996 L 1312.7292486830652 1407.2819528086663 Z"/></g></g><g><g><rect fill="white" stroke="none" x="1088.335935721718" y="1426.3396899919996" width="5.27752722" height="22.86928462"/></g><text fill="black" stroke="none" font-family="sans-serif" font-size="11pt" font-style="normal" font-weight="normal" text-decoration="normal" x="1090.974699331718" y="1442.1722716519996" text-anchor="start" dominant-baseline="alphabetic"></text></g><g><path fill="none" stroke="black" paint-order="fill stroke markers" d=" M 1271.6818147497318 1449.2089746119996 L 913.1995434803711 1449.2089746119996" stroke-miterlimit="10" stroke-width="1.4659797833333332" stroke-dasharray="7.0367029599999995"/><g transform="translate(910.2675839137044,1449.2089746119996) translate(-910.2675839137044,-1449.2089746119996)"><path fill="black" stroke="none" paint-order="stroke fill markers" d=" M 924.9273817470377 1441.8790756953329 L 910.2675839137044 1449.2089746119996 L 924.9273817470377 1456.5388735286663 Z"/></g></g><g><g><rect fill="white" stroke="none" x="759.8920324275" y="1475.5966107119996" width="5.27752722" height="22.86928462"/></g><text fill="black" stroke="none" font-family="sans-serif" font-size="11pt" font-style="normal" font-weight="normal" text-decoration="normal" x="762.5307960375" y="1491.4291923719995" text-anchor="start" dominant-baseline="alphabetic"></text></g><g><path fill="none" stroke="black" paint-order="fill stroke markers" d=" M 892.6758265137044 1498.4658953319995 L 635.3177251279623 1498.4658953319995" stroke-miterlimit="10" stroke-width="1.4659797833333332" stroke-dasharray="7.0367029599999995"/><g transform="translate(632.3857655612956,1498.4658953319995) translate(-632.3857655612956,-1498.4658953319995)"><path fill="black" stroke="none" paint-order="stroke fill markers" d=" M 647.0455633946289 1491.1359964153328 L 632.3857655612956 1498.4658953319995 L 647.0455633946289 1505.7957942486662 Z"/></g></g><g><g><rect fill="white" stroke="none" x="653.2026784846289" y="1524.8535314319995" width="126.03630102371093" height="22.86928462"/></g><text fill="black" stroke="none" font-family="sans-serif" font-size="11pt" font-style="normal" font-weight="normal" text-decoration="normal" x="655.8414420946289" y="1540.6861130919995" text-anchor="start" dominant-baseline="alphabetic">notifyObservers()</text></g><g><path fill="none" stroke="black" paint-order="fill stroke markers" d=" M 632.3857655612956 1547.7228160519994 L 702.7527951612956 1547.7228160519994 L 702.7527951612956 1565.3145734519994 L 635.3177251279623 1565.3145734519994" stroke-miterlimit="10" stroke-width="1.4659797833333332" stroke-dasharray=""/><g transform="translate(632.3857655612956,1565.3145734519994) translate(-632.3857655612956,-1565.3145734519994)"><path fill="black" stroke="none" paint-order="stroke fill markers" d=" M 647.0455633946289 1557.9846745353327 L 632.3857655612956 1565.3145734519994 L 647.0455633946289 1572.6444723686661 Z"/></g></g><g><g><rect fill="white" stroke="none" x="470.7468015995052" y="1591.7022095519994" width="5.27752722" height="22.86928462"/></g><text fill="black" stroke="none" font-family="sans-serif" font-size="11pt" font-style="normal" font-weight="normal" text-decoration="normal" x="473.3855652095052" y="1607.5347912119994" text-anchor="start" dominant-baseline="alphabetic"></text></g><g><path fill="none" stroke="black" paint-order="fill stroke markers" d=" M 614.7940081612956 1614.5714941719993 L 334.90908182438153 1614.5714941719993" stroke-miterlimit="10" stroke-width="1.4659797833333332" stroke-dasharray="7.0367029599999995"/><g transform="translate(331.9771222577149,1614.5714941719993) translate(-331.9771222577149,-1614.5714941719993)"><path fill="black" stroke="none" paint-order="stroke fill markers" d=" M 346.63692009104824 1607.2415952553326 L 331.9771222577149 1614.5714941719993 L 346.63692009104824 1621.901393088666 Z"/></g></g><g><g><rect fill="white" stroke="none" x="166.97440684439454" y="1640.9591302719994" width="5.27752722" height="22.86928462"/></g><text fill="black" stroke="none" font-family="sans-serif" font-size="11pt" font-style="normal" font-weight="normal" text-decoration="normal" x="169.61317045439455" y="1656.7917119319993" text-anchor="start" dominant-baseline="alphabetic"></text></g><g><path fill="none" stroke="black" paint-order="fill stroke markers" d=" M 314.3853648577149 1663.8284148919993 L 27.772935617740885 1663.8284148919993" stroke-miterlimit="10" stroke-width="1.4659797833333332" stroke-dasharray="7.0367029599999995"/><g transform="translate(24.840976051074218,1663.8284148919993) translate(-24.840976051074218,-1663.8284148919993)"><path fill="black" stroke="none" paint-order="stroke fill markers" d=" M 39.50077388440755 1656.4985159753326 L 24.840976051074218 1663.8284148919993 L 39.50077388440755 1671.158313808666 Z"/></g></g><g><g/><path fill="none" stroke="black" paint-order="fill stroke markers" d=" M 562.0187359612955 954.8805916720002 L 846.8635170836914 954.8805916720002 L 846.8635170836914 1069.227014772 L 562.0187359612955 1069.227014772 L 562.0187359612955 954.8805916720002 Z" stroke-miterlimit="10" stroke-width="2.5131082" stroke-dasharray=""/><path fill="white" stroke="black" paint-order="fill stroke markers" d=" M 562.0187359612955 954.8805916720002 L 562.0187359612955 975.9907005520001 L 670.8812363569987 975.9907005520001 L 681.4362907969987 965.4356461120002 L 681.4362907969987 954.8805916720002 L 562.0187359612955 954.8805916720002" stroke-miterlimit="10" stroke-width="2.5131082" stroke-dasharray=""/><text fill="black" stroke="none" font-family="sans-serif" font-size="8.8pt" font-style="normal" font-weight="bold" text-decoration="normal" x="579.6104933612955" y="968.9539975920002" text-anchor="start" dominant-baseline="alphabetic">expandable-</text><text fill="black" stroke="none" font-family="sans-serif" font-size="8.8pt" font-style="normal" font-weight="bold" text-decoration="normal" x="699.0280481969987" y="968.9539975920002" text-anchor="start" dominant-baseline="alphabetic">[see diagrams 02 - Add Room ECE (2) (illegal input)]</text></g></g><g/><g/><g/><g/><g/><g/><g/><g/></g></svg>