<svg version="1.1" xmlns="http://www.w3.org/2000/svg" xmlns:xlink="http://www.w3.org/1999/xlink" width="2111" height="1948"><defs/><g><g/><g/><g/><g/><g/><g/><g/><g/><g/><g/><g/><g/><g/><g/><g/><g/><g/><g/><g/><g/><g/><g/><g/><g/><g/><g/><g/><g/><g/><g/><g/><g/><g/><g><rect fill="white" stroke="none" x="0" y="0" width="2111" height="1948"/></g><g><text fill="black" stroke="none" font-family="sans-serif" font-size="16.5pt" font-style="normal" font-weight="normal" text-decoration="normal" x="985.8304699392988" y="26.3876361" text-anchor="start" dominant-baseline="alphabetic">Check-in BCE</text></g><g/><g><path fill="none" stroke="black" paint-order="fill stroke markers" d=" M 24.891078284960937 139.67855375599999 L 24.891078284960937 1948.111214475999" stroke-miterlimit="10" stroke-width="1.4659797833333332" stroke-dasharray="13.532121076923076,5.863919133333333"/><path fill="none" stroke="black" paint-order="fill stroke markers" d=" M 156.66662796409506 139.67855375599999 L 156.66662796409506 1948.111214475999" stroke-miterlimit="10" stroke-width="1.4659797833333332" stroke-dasharray="13.532121076923076,5.863919133333333"/><path fill="none" stroke="black" paint-order="fill stroke markers" d=" M 430.06736721494144 139.67855375599999 L 430.06736721494144 1948.111214475999" stroke-miterlimit="10" stroke-width="1.4659797833333332" stroke-dasharray="13.532121076923076,5.863919133333333"/><path fill="none" stroke="black" paint-order="fill stroke markers" d=" M 723.5811085788737 139.67855375599999 L 723.5811085788737 1948.111214475999" stroke-miterlimit="10" stroke-width="1.4659797833333332" stroke-dasharray="13.532121076923076,5.863919133333333"/><path fill="none" stroke="black" paint-order="fill stroke markers" d=" M 985.484284757259 139.67855375599999 L 985.484284757259 1948.111214475999" stroke-miterlimit="10" stroke-width="1.4659797833333332" stroke-dasharray="13.532121076923076,5.863919133333333"/><path fill="none" stroke="black" paint-order="fill stroke markers" d=" M 1094.5682655622356 139.67855375599999 L 1094.5682655622356 1948.111214475999" stroke-miterlimit="10" stroke-width="1.4659797833333332" stroke-dasharray="13.532121076923076,5.863919133333333"/><path fill="none" stroke="black" paint-order="fill stroke markers" d=" M 1222.3497354866497 139.67855375599999 L 1222.3497354866497 1948.111214475999" stroke-miterlimit="10" stroke-width="1.4659797833333332" stroke-dasharray="13.532121076923076,5.863919133333333"/><path fill="none" stroke="black" paint-order="fill stroke markers" d=" M 1364.4902729932865 139.67855375599999 L 1364.4902729932865 1948.111214475999" stroke-miterlimit="10" stroke-width="1.4659797833333332" stroke-dasharray="13.532121076923076,5.863919133333333"/><path fill="none" stroke="black" paint-order="fill stroke markers" d=" M 1511.0044600970912 139.67855375599999 L 1511.0044600970912 1948.111214475999" stroke-miterlimit="10" stroke-width="1.4659797833333332" stroke-dasharray="13.532121076923076,5.863919133333333"/><path fill="none" stroke="black" paint-order="fill stroke markers" d=" M 1654.9706071455287 139.67855375599999 L 1654.9706071455287 1948.111214475999" stroke-miterlimit="10" stroke-width="1.4659797833333332" stroke-dasharray="13.532121076923076,5.863919133333333"/><path fill="none" stroke="black" paint-order="fill stroke markers" d=" M 1813.2958217761889 139.67855375599999 L 1813.2958217761889 1948.111214475999" stroke-miterlimit="10" stroke-width="1.4659797833333332" stroke-dasharray="13.532121076923076,5.863919133333333"/><path fill="none" stroke="black" paint-order="fill stroke markers" d=" M 2067.491116691098 139.67855375599999 L 2067.491116691098 1948.111214475999" stroke-miterlimit="10" stroke-width="1.4659797833333332" stroke-dasharray="13.532121076923076,5.863919133333333"/></g><g><g><path fill="white" stroke="black" paint-order="fill stroke markers" d=" M 34.91838000296094 65.265419954 A 10.027301717999999 10.027301717999999 0 1 1 34.91837498931049 65.25539265395321 M 24.891078284960937 75.29272167199998 L 24.891078284960937 96.75466569999998 M 12.225012956960938 83.033094928 L 37.557143612960935 83.033094928 M 24.891078284960937 96.75466569999998 L 12.225012956960938 116.80926913599998 M 24.891078284960937 96.75466569999998 L 37.557143612960935 116.80926913599998" stroke-miterlimit="10" stroke-width="2.990598758" stroke-dasharray=""/></g><g><g/><text fill="black" stroke="none" font-family="sans-serif" font-size="11pt" font-style="normal" font-weight="normal" text-decoration="normal" x="8.7958787" y="134.401026536" text-anchor="start" dominant-baseline="alphabetic">Staff</text></g><g><path fill="white" stroke="black" paint-order="fill stroke markers" d=" M 191.58626640309507 89.19021001799997 A 26.123759739 26.123759739 0 1 1 191.58625334121626 89.16408626261492 M 123.24228890409505 61.57115089999997 L 123.24228890409505 116.80926913599997 M 121.74698952509505 89.19021001799997 L 139.33874692509505 89.19021001799997" stroke-miterlimit="10" stroke-width="2.990598758" stroke-dasharray=""/></g><g><g/><text fill="black" stroke="none" font-family="sans-serif" font-size="11pt" font-style="normal" font-weight="normal" text-decoration="normal" x="139.86992844016928" y="134.401026536" text-anchor="start" dominant-baseline="alphabetic">Alert</text></g><g><path fill="white" stroke="black" paint-order="fill stroke markers" d=" M 464.9870056539414 89.19021001799997 A 26.123759739 26.123759739 0 1 1 464.9869925920627 89.16408626261492 M 396.6430281549415 61.57115089999997 L 396.6430281549415 116.80926913599997 M 395.14772877594146 89.19021001799997 L 412.73948617594147 89.19021001799997" stroke-miterlimit="10" stroke-width="2.990598758" stroke-dasharray=""/></g><g><g/><text fill="black" stroke="none" font-family="sans-serif" font-size="11pt" font-style="normal" font-weight="normal" text-decoration="normal" x="406.34510769345707" y="134.401026536" text-anchor="start" dominant-baseline="alphabetic">StaffUI</text></g><g><path fill="white" stroke="black" paint-order="fill stroke markers" d=" M 749.7048683178737 89.19021001799997 A 26.123759739 26.123759739 0 1 1 749.7048552559949 89.16408626261492 M 720.0627570988737 63.06645027899997 L 730.6178115388738 54.27057157899998 M 720.0627570988737 63.06645027899997 L 730.6178115388738 71.86232897899997" stroke-miterlimit="10" stroke-width="2.990598758" stroke-dasharray=""/></g><g><g/><text fill="black" stroke="none" font-family="sans-serif" font-size="11pt" font-style="normal" font-weight="normal" text-decoration="normal" x="669.2539677707682" y="134.401026536" text-anchor="start" dominant-baseline="alphabetic">BookingSystem</text></g><path fill="none" stroke="none"/><g><path fill="white" stroke="black" paint-order="fill stroke markers" d=" M 947.2275731320676 92.18080877599999 L 1023.7409963824505 92.18080877599999 L 1023.7409963824505 139.67855375599999 L 947.2275731320676 139.67855375599999 L 947.2275731320676 92.18080877599999 Z" stroke-miterlimit="10" stroke-width="2.814681184" stroke-dasharray=""/></g><g><g/><text fill="black" stroke="none" font-family="sans-serif" font-size="11pt" font-style="normal" font-weight="normal" text-decoration="normal" x="966.3146299110676" y="122.08679635600001" text-anchor="start" dominant-baseline="alphabetic">Hotel</text></g><g><path fill="white" stroke="black" paint-order="fill stroke markers" d=" M 1120.6920253012356 86.79773101159998 A 26.123759739 26.123759739 0 1 1 1120.692012239357 86.77160725621492 M 1066.9492064442356 115.31396975699997 L 1119.1967259222356 115.31396975699997" stroke-miterlimit="10" stroke-width="2.990598758" stroke-dasharray=""/></g><g><g/><text fill="black" stroke="none" font-family="sans-serif" font-size="11pt" font-style="normal" font-weight="normal" text-decoration="normal" x="1041.3327537824505" y="134.401026536" text-anchor="start" dominant-baseline="alphabetic">Room (current)</text></g><g><path fill="white" stroke="black" paint-order="fill stroke markers" d=" M 1248.4734952256497 86.79773101159998 A 26.123759739 26.123759739 0 1 1 1248.473482163771 86.77160725621492 M 1194.7306763686497 115.31396975699997 L 1246.9781958466497 115.31396975699997" stroke-miterlimit="10" stroke-width="2.990598758" stroke-dasharray=""/></g><g><g/><text fill="black" stroke="none" font-family="sans-serif" font-size="11pt" font-style="normal" font-weight="normal" text-decoration="normal" x="1165.3955347420208" y="134.401026536" text-anchor="start" dominant-baseline="alphabetic">Room (selected)</text></g><path fill="none" stroke="none"/><g><path fill="white" stroke="black" paint-order="fill stroke markers" d=" M 1296.8956936312786 92.18080877599999 L 1432.0848523552943 92.18080877599999 L 1432.0848523552943 139.67855375599999 L 1296.8956936312786 139.67855375599999 L 1296.8956936312786 92.18080877599999 Z" stroke-miterlimit="10" stroke-width="2.814681184" stroke-dasharray=""/></g><g><g/><text fill="black" stroke="none" font-family="sans-serif" font-size="11pt" font-style="normal" font-weight="normal" text-decoration="normal" x="1315.9827504102786" y="122.08679635600001" text-anchor="start" dominant-baseline="alphabetic">RoomMapper</text></g><g><path fill="white" stroke="black" paint-order="fill stroke markers" d=" M 1537.1282198360911 86.79773101159998 A 26.123759739 26.123759739 0 1 1 1537.1282067742125 86.77160725621492 M 1483.3854009790912 115.31396975699997 L 1535.6329204570911 115.31396975699997" stroke-miterlimit="10" stroke-width="2.990598758" stroke-dasharray=""/></g><g><g/><text fill="black" stroke="none" font-family="sans-serif" font-size="11pt" font-style="normal" font-weight="normal" text-decoration="normal" x="1449.6766097552943" y="134.401026536" text-anchor="start" dominant-baseline="alphabetic">Booking (current)</text></g><g><path fill="white" stroke="black" paint-order="fill stroke markers" d=" M 1681.0943668845287 86.79773101159998 A 26.123759739 26.123759739 0 1 1 1681.09435382265 86.77160725621492 M 1627.3515480275287 115.31396975699997 L 1679.5990675055286 115.31396975699997" stroke-miterlimit="10" stroke-width="2.990598758" stroke-dasharray=""/></g><g><g/><text fill="black" stroke="none" font-family="sans-serif" font-size="11pt" font-style="normal" font-weight="normal" text-decoration="normal" x="1589.924067838888" y="134.401026536" text-anchor="start" dominant-baseline="alphabetic">Booking (selected)</text></g><path fill="none" stroke="none"/><g><path fill="white" stroke="black" paint-order="fill stroke markers" d=" M 1737.6089038521693 92.18080877599999 L 1888.9827397002084 92.18080877599999 L 1888.9827397002084 139.67855375599999 L 1737.6089038521693 139.67855375599999 L 1737.6089038521693 92.18080877599999 Z" stroke-miterlimit="10" stroke-width="2.814681184" stroke-dasharray=""/></g><g><g/><text fill="black" stroke="none" font-family="sans-serif" font-size="11pt" font-style="normal" font-weight="normal" text-decoration="normal" x="1756.6959606311693" y="122.08679635600001" text-anchor="start" dominant-baseline="alphabetic">BookingMapper</text></g><g><path fill="white" stroke="black" paint-order="fill stroke markers" d=" M 2041.8071508870978 105.19870925199999 L 2041.8071508870978 68.25601871199999 L 2093.1750824950977 68.25601871199999 L 2093.1750824950977 105.19870925199999" stroke-miterlimit="10" stroke-width="2.990598758" stroke-dasharray=""/><path fill="white" stroke="black" paint-order="fill stroke markers" d=" M 2093.1750824950977 66.97182042179999 L 2093.1737983075095 67.08792408555635 L 2093.1699458731614 67.20401613904309 L 2093.163525577294 67.3200849731516 L 2093.154538061932 67.43611898109519 L 2093.1429842258185 67.55210655956978 L 2093.128865224328 67.66803610991414 L 2093.112182469349 67.78389603926989 L 2093.0929376291433 67.8996747617406 L 2093.0711326281785 68.01536069955054 L 2093.0467696469364 68.1309422842023 L 2093.019851121695 68.24640795763378 L 2092.9903797442844 68.3617461733738 L 2092.958358461818 68.47694539769695 L 2092.9237904763972 68.59199411077678 L 2092.8866792447916 68.70688080783783 L 2092.8470284780933 68.82159400030618 L 2092.8048421413464 68.93612221695814 L 2092.7601244531493 69.0504540050675 L 2092.712879885233 69.16457793155072 L 2092.6631131620156 69.27848258411025 L 2092.610829260128 69.39215657237577 L 2092.556033407916 69.50558852904317 L 2092.49873108492 69.61876711101131 L 2092.438928021324 69.73168100051632 L 2092.376630197385 69.84431890626333 L 2092.3118438428332 69.95666956455563 L 2092.2445754362498 70.06872174042103 L 2092.17483170442 70.18046422873529 L 2092.1026196216585 70.29188585534273 L 2092.027946409113 70.40297547817353 L 2091.9508195340436 70.51372198835797 L 2091.871246709073 70.62411431133734 L 2091.789235891417 70.73414140797132 L 2091.7047952820894 70.84379227564195 L 2091.6179333250807 70.95305594935381 L 2091.5286587065143 71.06192150283061 L 2091.4369803537775 71.1703780496077 L 2091.342907434629 71.27841474412082 L 2091.246449356283 71.38602078279051 L 2091.147615764466 71.4931854051026 L 2091.046416542456 71.59989789468413 L 2090.9428618100897 71.7061475803751 L 2090.8369619227547 71.81192383729548 L 2090.7287274703517 71.9172160879077 L 2090.6181692762348 72.02201380307447 L 2090.5052983961323 72.12630650311159 L 2090.3901261170377 72.23008375883597 L 2090.272663956083 72.33333519260853 L 2090.152923659386 72.43605047937191 L 2090.030917200877 72.53821934768304 L 2089.9066567811 72.63983158074024 L 2089.780154825994 72.74087701740487 L 2089.6514239856483 72.84134555321748 L 2089.5204771330405 72.94122714140819 L 2089.3873273627455 73.04051179390143 L 2089.251987989631 73.13918958231469 L 2089.1144725475197 73.23725063895135 L 2088.9747947878427 73.33468515778748 L 2088.832968678259 73.43148339545236 L 2088.689008401261 73.52763567220293 L 2088.5429283527574 73.6231323728916 L 2088.394743140631 73.71796394792793 L 2088.2444675832785 73.8121209142334 L 2088.0921167081315 73.90559385618985 L 2087.93770575015 73.998373426581 L 2087.7812501503017 74.09045034752711 L 2087.622765554016 74.18181541141281 L 2087.4622678096202 74.27245948180787 L 2087.299772966755 74.36237349438078 L 2087.135297274769 74.45154845780519 L 2086.9688571810952 74.53997545465909 L 2086.800469329604 74.62764564231648 L 2086.6301505589395 74.71455025383165 L 2086.457917900838 74.80068059881587 L 2086.2837885784206 74.88602806430642 L 2086.107780004475 74.97058411562787 L 2085.929909779712 75.05434029724555 L 2085.750195691006 75.13728823361109 L 2085.5686557096155 75.21941962999999 L 2085.385307989388 75.30072627334106 L 2085.2001708649423 75.38120003303769 L 2085.0132628498363 75.46083286178099 L 2084.824602634717 75.53961679635444 L 2084.6342090854473 75.61754395843025 L 2084.442101241224 75.69460655535714 L 2084.2482983126715 75.77079688093964 L 2084.0528196799214 75.84610731620869 L 2083.8556848906737 75.9205303301835 L 2083.656913658243 75.99405848062472 L 2083.456525859587 76.06668441477855 L 2083.254541533319 76.13840087011211 L 2083.0509808777024 76.20920067503964 L 2082.845864248634 76.27907674963963 L 2082.6392121576055 76.34802210636286 L 2082.431045269653 76.4160298507311 L 2082.2213844012936 76.48309318202661 L 2082.0102505184377 76.54920539397213 L 2081.7976647342985 76.61435987540155 L 2081.5836483072767 76.67855011092104 L 2081.3682226388373 76.74176968156053 L 2081.151409271368 76.80401226541565 L 2080.933229886023 76.86527163827986 L 2080.713706300561 76.92554167426694 L 2080.492860467157 76.98481634642351 L 2080.2707144702094 77.04308972733178 L 2080.047290524134 77.10035598970217 L 2079.8226109711386 77.15660940695618 L 2079.5966982789914 77.21184435379898 L 2079.3695750387733 77.26605530678191 L 2079.1412639626196 77.31923684485484 L 2078.911787881447 77.37138364990828 L 2078.681169742672 77.42249050730518 L 2078.449432607917 77.4725523064024 L 2078.216599650703 77.52156404106174 L 2077.98269415413 77.56952081015058 L 2077.747739508554 77.61641781803196 L 2077.5117592092433 77.6622503750442 L 2077.2747768540316 77.70701389796976 L 2077.0368161409565 77.75070391049368 L 2076.797900865891 77.7933160436511 L 2076.5580549201636 77.83484603626422 L 2076.3173022881692 77.87528973536838 L 2076.0756670449705 77.91464309662739 L 2075.83317335389 77.9529021847379 L 2075.5898454640947 77.99006317382297 L 2075.3457077081707 78.02612234781469 L 2075.100784499691 78.0610761008257 L 2074.8551003307716 78.09492093750981 L 2074.6086797696253 78.12765347341158 L 2074.361547458102 78.15927043530469 L 2074.1137281092274 78.18976866151928 L 2073.86524650473 78.21914510225817 L 2073.6161274925626 78.24739681990175 L 2073.3663959844193 78.27452098930179 L 2073.116076953243 78.30051489806398 L 2072.8651954307275 78.32537594681908 L 2072.613776504817 78.34910164948295 L 2072.3618453171935 78.37168963350508 L 2072.1094270607664 78.39313764010592 L 2071.856546977151 78.41344352450264 L 2071.603230354145 78.43260525612375 L 2071.3495025231996 78.45062091881205 L 2071.095388856886 78.46748871101629 L 2070.840914766359 78.48320694597129 L 2070.5861056988165 78.49777405186667 L 2070.3309871349525 78.51118857200397 L 2070.07558458641 78.52344916494236 L 2069.8199235932325 78.53455460463276 L 2069.564029721305 78.54450378054045 L 2069.307928559802 78.55329569775614 L 2069.051645718626 78.56092947709544 L 2068.795206825848 78.56740435518677 L 2068.538637525143 78.57271968454769 L 2068.2819634732273 78.57687493364975 L 2068.0252103372927 78.57986968697145 L 2067.768403792438 78.58170364504 L 2067.5115695191053 78.58237662446106 L 2067.254733200506 78.58188855793732 L 2066.9979205200593 78.58023949427498 L 2066.7411571588186 78.57742959837903 L 2066.484468792906 78.57345915123673 L 2066.2278810909443 78.56832854988951 L 2065.97141971149 78.56203830739318 L 2065.715110300467 78.5545890527668 L 2065.4589784886034 78.54598153092958 L 2065.2030498888666 78.53621660262655 L 2064.9473500939034 78.5252952443424 L 2064.69190467348 78.51321854820387 L 2064.4367391719256 78.4999877218705 L 2064.181879105578 78.48560408841388 L 2063.927349960231 78.4700690861854 L 2063.6731771885875 78.45338426867232 L 2063.4193862077127 78.4355513043425 L 2063.166002396493 78.41657197647748 L 2062.9130510930986 78.39644818299428 L 2062.6605575924486 78.37518193625543 L 2062.4085471436833 78.35277536286792 L 2062.1570449476376 78.32923070347039 L 2061.9060761543205 78.30455031250918 L 2061.6556658604036 78.2787366580028 L 2061.4058391067065 78.2517923212952 L 2061.1566208756967 78.2237199967976 L 2060.90803608899 78.19452249171906 L 2060.6601096048576 78.16420272578573 L 2060.4128662157414 78.13276373094897 L 2060.166330645774 78.10020865108203 L 2059.920527548307 78.0665407416658 L 2059.6754815034456 78.03176336946316 L 2059.4312170155904 77.99588001218234 L 2059.1877585109855 77.95889425812916 L 2058.94513033528 77.92080980584822 L 2058.7033567510875 77.881630463753 L 2058.4624619355664 77.84136014974506 L 2058.222469977997 77.80000289082224 L 2057.983404877375 77.75756282267598 L 2057.7452905400114 77.71404418927773 L 2057.5081507771415 77.66945134245454 L 2057.2720093025437 77.62378874145395 L 2057.0368897301687 77.57706095249802 L 2056.8028155717784 77.52927264832667 L 2056.5698102345928 77.48042860773052 L 2056.337897018952 77.43053371507293 L 2056.107099115984 77.37959295980157 L 2055.877439605287 77.32761143594954 L 2055.64894145262 77.27459434162587 L 2055.421627507609 77.22054697849586 L 2055.1955205014583 77.16547475125074 L 2054.9706430446804 77.10938316706736 L 2054.747017624833 77.0522778350574 L 2054.5246666042726 76.99416446570646 L 2054.3036122179155 76.93504887030305 L 2054.083876571016 76.87493696035746 L 2053.865481636956 76.81383474701059 L 2053.6484492550467 76.75174834043284 L 2053.4328011283455 76.68868394921314 L 2053.218558821485 76.62464787973806 L 2053.0057437585183 76.5596465355612 L 2052.7943772207736 76.49368641676277 L 2052.5844803447285 76.42677411929971 L 2052.3760741198957 76.358916334346 L 2052.1691793867244 76.2901198476236 L 2051.9638168345155 76.22039153872383 L 2051.7600069993528 76.14973838041949 L 2051.55777026205 76.07816743796754 L 2051.3571268461124 76.00568586840255 L 2051.158096815714 75.9323009198211 L 2050.960700073693 75.8580199306569 L 2050.764956359558 75.78285032894695 L 2050.5708852475177 75.70679963158878 L 2050.378506144522 75.62987544358876 L 2050.18783828832 75.55208545730159 L 2049.9989007455392 75.47343745166106 L 2049.811712409776 75.3939392914022 L 2049.6262919997084 75.31359892627479 L 2049.4426580572226 75.2324243902484 L 2049.2608289455598 75.15042380070896 L 2049.0808228474793 75.06760535764712 L 2048.9026577634418 74.98397734283817 L 2048.7263515098066 74.89954811901389 L 2048.551921717052 74.8143261290263 L 2048.379385828013 74.72831989500338 L 2048.208761096133 74.64153801749687 L 2048.0400645837444 74.5539891746222 L 2047.8733131603572 74.46568212119071 L 2047.708523500975 74.37662568783415 L 2047.5457120844264 74.28682878012162 L 2047.3848951917173 74.19630037766909 L 2047.226088904403 74.10504953324134 L 2047.06930910298 74.0130853718468 L 2046.9145714652977 73.92041708982494 L 2046.7618914649909 73.82705395392676 L 2046.6112843699323 73.73300530038806 L 2046.4627652407062 73.63828053399578 L 2046.3163489291014 73.54288912714766 L 2046.1720500766273 73.44684061890487 L 2046.0298831130488 73.3501446140382 L 2045.8898622549439 73.25281078206757 L 2045.7520015042815 73.15484885629505 L 2045.616314647022 73.05626863283157 L 2045.4828152517377 72.95707996961737 L 2045.3515166682575 72.85729278543607 L 2045.22243202633 72.75691705892295 L 2045.0955742343115 72.65596282756702 L 2044.970955977876 72.5544401867073 L 2044.848589718745 72.45235928852324 L 2044.7284876934425 72.34973034101961 L 2044.610661912071 72.24656360700563 L 2044.4951241571105 72.14286940306874 L 2044.38188598224 72.03865809854291 L 2044.2709587111829 71.93394011447177 L 2044.1623534365735 71.82872592256643 L 2044.0560810188492 71.72302604415843 L 2043.9521520851629 71.61685104914753 L 2043.8505770283216 71.51021155494473 L 2043.751366005746 71.4031182254106 L 2043.654528938456 71.29558176978884 L 2043.5600755100775 71.1876129416354 L 2043.4680151658745 71.07922253774314 L 2043.378357111805 70.9704213970621 L 2043.2911103135993 70.86122039961568 L 2043.206283495865 70.75163046541265 L 2043.123885141213 70.64166255335508 L 2043.0439234894097 70.53132766014255 L 2042.9664065365541 70.42063681917243 L 2042.891342034277 70.30960109943658 L 2042.8187374889656 70.19823160441445 L 2042.748600161014 70.0865394709627 L 2042.680937064097 69.97453586820164 L 2042.6157549644674 69.86223199639821 L 2042.5530603802813 69.74963908584596 L 2042.4928595809445 69.63676839574217 L 2042.435158586487 69.52363121306175 L 2042.3799631669601 69.41023885142872 L 2042.3272788418597 69.29660264998472 L 2042.2771108795741 69.18273397225522 L 2042.2294642968584 69.0686442050131 L 2042.1843438583307 68.95434475714 L 2042.1417540759974 68.83984705848547 L 2042.1016992088012 68.72516255872397 L 2042.0641832621955 68.61030272620987 L 2042.0292099877436 68.49527904683073 L 2041.996782882744 68.38010302285863 L 2041.9669051898798 68.2647861718 L 2041.9395798968958 68.14934002524383 L 2041.9148097362981 68.03377612770858 L 2041.8925971850826 67.9181060354877 L 2041.8729444644855 67.80234131549402 L 2041.8558535397628 67.68649354410306 L 2041.8413261199926 67.57057430599544 L 2041.8293636579047 67.45459519299835 L 2041.8199673497352 67.33856780292646 L 2041.8131381351075 67.22250373842208 L 2041.8088766969372 67.10641460579494 L 2041.8071834613645 66.99031201386155 L 2041.8080585977114 66.87420757278437 L 2041.8115020184653 66.75811289291076 L 2041.8175133792868 66.64203958361193 L 2041.8260920790449 66.52599925212212 L 2041.8372372598767 66.41000350237775 L 2041.8509478072735 66.29406393385715 L 2041.867222350192 66.17819214042055 L 2041.8860592611913 66.06239970915072 L 2041.9074566565964 65.94669821919432 L 2041.9314123966851 65.8310992406039 L 2041.9579240859034 65.71561433318102 L 2041.986989073105 65.60025504532017 L 2042.0186044518148 65.48503291285398 L 2042.0527670605213 65.36995945789971 L 2042.0894734829926 65.25504618770695 L 2042.1287200486167 65.14030459350695 L 2042.1705028327697 65.02574614936354 L 2042.2148176572082 64.91138231102563 L 2042.2616600904867 64.79722451478179 L 2042.3110254484004 64.68328417631649 L 2042.3629087944553 64.56957268956862 L 2042.4173049403598 64.45610142559212 L 2042.4742084465445 64.3428817314188 L 2042.5336136227063 64.22992492892377 L 2042.595514528377 64.1172423136931 L 2042.6599049735178 64.00484515389444 L 2042.7267785191377 63.89274468915009 L 2042.796128477938 63.78095212941312 L 2042.8679479149805 63.66947865384635 L 2042.9422296483815 63.558335409704426 L 2043.0189662500293 63.447533511219156 L 2043.0981500463276 63.337084038488044 L 2043.1797731189633 63.226998036366325 L 2043.2638273056966 63.11728651336247 L 2043.3503042011794 63.00796044053737 L 2043.4391951577936 62.899030750407185 L 2043.530491286518 62.790508335850156 L 2043.624183457816 62.682404049017315 L 2043.720262302548 62.57472870024724 L 2043.81871821291 62.4674930569851 L 2043.919541343393 62.36070784270584 L 2044.0227216117676 62.25438373584191 L 2044.1282487000933 62.148531368715396 L 2044.2361120557491 62.04316132647479 L 2044.3463008924894 61.938284146036516 L 2044.4588041915222 61.83391031503122 L 2044.5736107026114 61.73005027075502 L 2044.6907089452015 61.6267143991258 L 2044.810087209566 61.52391303364461 L 2044.931733557978 61.42165645436233 L 2045.055635825904 61.31995488685167 L 2045.1817816232199 61.21881850118463 L 2045.310158335452 61.1182574109155 L 2045.4407531250351 61.018281672069506 L 2045.5735529326 60.91890128213721 L 2045.708544478276 60.82012617907481 L 2045.8457142630211 60.72196624031029 L 2045.9850485699715 60.62443128175571 L 2046.1265334658121 60.52753105682567 L 2046.2701548021716 60.431275255461905 L 2046.4158982170359 60.33567350316434 L 2046.563749136185 60.24073536002853 L 2046.71369277465 60.14647031978968 L 2046.8657141381923 60.05288780887326 L 2047.0197980248022 59.959997185452366 L 2047.1759290262194 59.86780773851195 L 2047.3340915294737 59.77632868691987 L 2047.4942697184465 59.68556917850505 L 2047.6564475754528 59.59553828914271 L 2047.820608882842 59.50624502184675 L 2047.9867372246197 59.41769830586949 L 2048.1548159880904 59.32990699580875 L 2048.324828365518 59.24287987072236 L 2048.4967573558065 59.15662563325033 L 2048.6705857662 59.0711529087445 L 2048.846296214002 58.986470244406114 L 2049.023871128314 58.90258610843103 L 2049.203292751794 58.81950888916295 L 2049.3845431424274 58.737246894254554 L 2049.567604175327 58.65580834983679 L 2049.752457544542 58.57520139969624 L 2049.9390847648897 58.49543410446074 L 2050.127467173803 58.41651444079334 L 2050.3175859331986 58.33845030059465 L 2050.5094220313586 58.26124949021362 L 2050.7029562848334 58.18491972966697 L 2050.8981693403584 58.10946865186714 L 2051.0950416767914 58.03490380185903 L 2051.2935536070627 57.96123263606552 L 2051.493685280144 57.88846252154177 L 2051.6954166830355 57.816600735238616 L 2051.8987276427647 57.74565446327479 L 2052.103597828405 57.67563080021837 L 2052.310006753109 57.60653674837731 L 2052.5179337761556 57.53837921709922 L 2052.7273581050163 57.47116502208042 L 2052.9382587974324 57.40490088468441 L 2053.1506147635105 57.3395934312697 L 2053.364404767831 57.27524919252721 L 2053.5796074315717 57.21187460282721 L 2053.796201234645 57.14947599957584 L 2054.0141645178524 57.088059622581426 L 2054.233475485046 57.02763161343051 L 2054.454112205312 56.96819801487362 L 2054.6760526151625 56.9097647702211 L 2054.8992745207415 56.85233772274873 L 2055.123755600044 56.79592261511338 L 2055.34947340515 56.74052508877882 L 2055.5764053644666 56.6861506834515 L 2055.804528784987 56.63280483652666 L 2056.0338208545586 56.58049288254453 L 2056.2642586441666 56.52922005265691 L 2056.4958191102237 56.47899147410408 L 2056.728479096876 56.42981216970201 L 2056.962215338319 56.38168705734017 L 2057.197004461123 56.334620949489704 L 2057.432822986572 56.28861855272216 L 2057.6696473330094 56.24368446723889 L 2057.907453818198 56.199823186410995 L 2058.1462186616873 56.157039096329996 L 2058.3859179871924 56.11533647536926 L 2058.6265278249803 56.07471949375613 L 2058.868024114268 56.035192213154914 L 2059.1103827056268 55.99675858626073 L 2059.3535793634005 55.959422456404255 L 2059.5975897681255 55.923187557167346 L 2059.8423895189653 55.88805751200974 L 2060.0879541361483 55.85403583390668 L 2060.3342590634174 55.82112592499761 L 2060.5812796704854 55.78933107624601 L 2060.828991255497 55.758654467110254 L 2061.0773690475007 55.72909916522569 L 2061.326388208924 55.70066812609789 L 2061.576023838058 55.67336419280706 L 2061.8262509715482 55.64719009572377 L 2062.0770445868898 55.62214845223594 L 2062.32837960493 55.598241766487035 L 2062.580230892376 55.57547242912571 L 2062.83257326431 55.55384271706673 L 2063.0853814867046 55.533354793263264 L 2063.3386302789486 55.51401070649064 L 2063.5922943163728 55.4958123911414 L 2063.8463482327857 55.47876166703191 L 2064.100766623007 55.46286023922039 L 2064.3555240454098 55.44810969783636 L 2064.6105950244646 55.434511517921656 L 2064.865954053285 55.42206705928295 L 2065.121575596182 55.41077756635575 L 2065.3774340912137 55.40064416807991 L 2065.633503952744 55.39166787778682 L 2065.8897595740004 55.38384959309805 L 2066.146175329634 55.37719009583553 L 2066.4027255782826 55.37169005194345 L 2066.659384665136 55.36735001142162 L 2066.9161269244983 55.36417040827046 L 2067.172926682358 55.36215156044765 L 2067.4297582589543 55.36129366983628 L 2067.686595971342 55.3615968222247 L 2067.9434141359648 55.363060987297914 L 2068.2001870712197 55.36568601864066 L 2068.456889100028 55.369471653751965 L 2068.7134945524 55.37441751407148 L 2068.9699777680044 55.3805231050173 L 2069.2263130987335 55.38778781603543 L 2069.482474911268 55.39621092066079 L 2069.73843758964 55.40579157658996 L 2069.9941755377945 55.41652882576533 L 2070.2496631821505 55.428421594470926 L 2070.5048749741563 55.44146869343979 L 2070.759785392845 55.45566881797289 L 2071.0143689473875 55.47102054806961 L 2071.2686001796405 55.48752234856974 L 2071.5224536666924 55.50517256930697 L 2071.7759040234064 55.52396944527395 L 2072.0289259049573 55.54391109679874 L 2072.281494009369 55.56499552973279 L 2072.5335830800404 55.587220635650404 L 2072.785167908275 55.61058419205949 L 2073.0362233357996 55.63508386262389 L 2073.2867242572806 55.660717197396956 L 2073.536645622835 55.687481633066575 L 2073.7859624405337 55.715374493211485 L 2074.0346497789033 55.744392988568904 L 2074.2826827694166 55.7745342173135 L 2074.5300366089823 55.8057951653475 L 2074.7766865624217 55.83817270660215 L 2075.0226079649456 55.871663603350314 L 2075.267776224618 55.90626450653023 L 2075.5121668248175 55.941971956080394 L 2075.755755326688 55.97878238128563 L 2075.998517371582 56.01669210113408 L 2076.2404286834976 56.055697324685354 L 2076.4814650715048 56.095794151449596 L 2076.721602432166 56.136978571777554 L 2076.960816751945 56.17924646726151 L 2077.1990841096094 56.22259361114713 L 2077.4363806786223 56.267015668756166 L 2077.672682729524 56.31250819791986 L 2077.907966632306 56.35906664942321 L 2078.1422088587747 56.40668636745987 L 2078.3753859849026 56.455362590097714 L 2078.6074746931713 56.505090449755045 L 2078.8384517749037 56.55586497368733 L 2079.0682941325836 56.60768108448449 L 2079.2969787821667 56.66053360057863 L 2079.524482855379 56.71441723676219 L 2079.7507836020027 56.76932660471643 L 2079.975858392152 56.82525621355034 L 2080.1996847185346 56.88220047034963 L 2080.4222401987054 56.940153680736074 L 2080.6435025773008 56.999110049436936 L 2080.8634497282683 57.05906368086447 L 2081.082059657075 57.120008579705484 L 2081.299310502912 57.1819386515209 L 2081.5151805408736 57.244847703355134 L 2081.729648184137 57.308729444355436 L 2081.942691986117 57.373577486400926 L 2082.1542906426102 57.439385344741446 L 2082.3644229939273 57.506146438646006 L 2082.573068027009 57.57385409206084 L 2082.7802048775247 57.642501534277045 L 2082.985812831963 57.712081900607586 L 2083.1898713296996 57.78258823307383 L 2083.3923599650543 57.854013481101276 L 2083.5932584893326 57.92635050222464 L 2083.7925468128497 57.99959206280211 L 2083.9902050069386 58.07373083873863 L 2084.186213305946 58.14875941621842 L 2084.3805521092036 58.224670292446234 L 2084.5732019829943 58.30145587639771 L 2084.7641436624904 58.379108489578456 L 2084.953358053684 58.45762036679186 L 2085.140826235293 58.53698365691561 L 2085.3265294606554 58.61719042368684 L 2085.510449159604 58.698232646495725 L 2085.6925669403217 58.7801022211875 L 2085.8728645911824 58.86279096087293 L 2086.0513240825708 58.94629059674695 L 2086.227927568687 59.03059277891555 L 2086.4026573893298 59.115689077230776 L 2086.5754960716617 59.2015709821337 L 2086.7464263319594 59.2882299055054 L 2086.9154310773392 59.375657181525774 L 2087.082493407467 59.46384406754005 L 2087.2475966162497 59.55278174493313 L 2087.410724193503 59.642461320011385 L 2087.571859826606 59.73287382489204 L 2087.7309874021294 59.82401021839995 L 2087.888091007448 59.91586138697171 L 2088.0431549323325 60.008418145567006 L 2088.1961636705196 60.10167123858711 L 2088.347101921263 60.195611340800426 L 2088.4959545908628 60.29022905827503 L 2088.642706794177 60.385514929318006 L 2088.787343856107 60.48145942542166 L 2088.9298513130675 60.57805295221634 L 2089.0702149144313 60.67528585042985 L 2089.208420623955 60.77314839685341 L 2089.344454621183 60.87163080531391 L 2089.4783033028298 60.97072322765259 L 2089.6099532841376 61.07041575470979 L 2089.739391400218 61.170698417315876 L 2089.8666047073684 61.271561187288164 L 2089.9915804843627 61.3729939784337 L 2090.1143062337283 61.47498664755789 L 2090.2347696829925 61.577528995478836 L 2090.3529587859102 61.68061076804718 L 2090.4688617236698 61.78422165717158 L 2090.5824669060744 61.88835130184945 L 2090.6937629727 61.99298928920311 L 2090.802738794033 62.09812515552101 L 2090.9093834725822 62.203748387304145 L 2091.013686343968 62.30984842231735 L 2091.115636977991 62.416414650645535 L 2091.215225179672 62.52343641575468 L 2091.3124409902744 62.63090301555746 L 2091.407274688298 62.73880370348344 L 2091.4997167904517 62.847127689553744 L 2091.589758052603 62.95586414146005 L 2091.6773894707 63.065002185647764 L 2091.762602281674 63.174530908403426 L 2091.8453879643153 63.28443935694603 L 2091.9257382401242 63.39471654052231 L 2092.0036450741404 63.50535143150581 L 2092.079100675746 63.61633296649962 L 2092.1520974994423 63.72765004744274 L 2092.2226282456086 63.83929154271982 L 2092.290685861229 63.951246288274376 L 2092.356263540599 64.06350308872516 L 2092.4193547260047 64.17605071848564 L 2092.47995310838 64.28887792288667 L 2092.5380526279378 64.40197341930181 L 2092.5936474747746 64.51532589827566 L 2092.6467320894512 64.6289240246548 L 2092.6973011635514 64.74275643872124 L 2092.7453496402095 64.85681175732844 L 2092.7908727146173 64.97107857503958 L 2092.833865834506 65.08554546526814 L 2092.8743247005996 65.20020098142045 L 2092.9122452670445 65.31503365804045 L 2092.947623741816 65.43003201195617 L 2092.9804565870963 65.54518454342806 L 2093.0107405196277 65.66047973729893 L 2093.038472511043 65.77590606414547 L 2093.0636497881655 65.89145198143119 L 2093.0862698332885 66.00710593466063 L 2093.1063303844267 66.12285635853486 L 2093.123829435541 66.23869167810795 L 2093.138765236742 66.35460030994449 L 2093.1511362944616 66.47057066327784 L 2093.1609413716037 66.58659114116935 L 2093.168179487669 66.70265014166789 L 2093.1728499188525 66.81873605897015 L 2093.1749521981146 66.9348372845811 M 2093.1750824950977 103.91451096179999 L 2093.1737983075095 104.03061462555635 L 2093.1699458731614 104.14670667904309 L 2093.163525577294 104.2627755131516 L 2093.154538061932 104.37880952109519 L 2093.1429842258185 104.49479709956978 L 2093.128865224328 104.61072664991414 L 2093.112182469349 104.72658657926989 L 2093.0929376291433 104.8423653017406 L 2093.0711326281785 104.95805123955054 L 2093.0467696469364 105.0736328242023 L 2093.019851121695 105.18909849763378 L 2092.9903797442844 105.3044367133738 L 2092.958358461818 105.41963593769695 L 2092.9237904763972 105.53468465077678 L 2092.8866792447916 105.64957134783783 L 2092.8470284780933 105.76428454030618 L 2092.8048421413464 105.87881275695814 L 2092.7601244531493 105.9931445450675 L 2092.712879885233 106.10726847155073 L 2092.6631131620156 106.22117312411025 L 2092.610829260128 106.33484711237577 L 2092.556033407916 106.44827906904317 L 2092.49873108492 106.56145765101131 L 2092.438928021324 106.67437154051632 L 2092.376630197385 106.78700944626333 L 2092.3118438428332 106.89936010455563 L 2092.2445754362498 107.01141228042103 L 2092.17483170442 107.12315476873529 L 2092.1026196216585 107.23457639534273 L 2092.027946409113 107.34566601817353 L 2091.9508195340436 107.45641252835797 L 2091.871246709073 107.56680485133734 L 2091.789235891417 107.67683194797132 L 2091.7047952820894 107.78648281564195 L 2091.6179333250807 107.89574648935381 L 2091.5286587065143 108.00461204283062 L 2091.4369803537775 108.1130685896077 L 2091.342907434629 108.22110528412082 L 2091.246449356283 108.32871132279051 L 2091.147615764466 108.4358759451026 L 2091.046416542456 108.54258843468413 L 2090.9428618100897 108.6488381203751 L 2090.8369619227547 108.75461437729548 L 2090.7287274703517 108.8599066279077 L 2090.6181692762348 108.96470434307447 L 2090.5052983961323 109.0689970431116 L 2090.3901261170377 109.17277429883598 L 2090.272663956083 109.27602573260853 L 2090.152923659386 109.37874101937192 L 2090.030917200877 109.48090988768304 L 2089.9066567811 109.58252212074024 L 2089.780154825994 109.68356755740487 L 2089.6514239856483 109.78403609321748 L 2089.5204771330405 109.88391768140819 L 2089.3873273627455 109.98320233390143 L 2089.251987989631 110.08188012231469 L 2089.1144725475197 110.17994117895135 L 2088.9747947878427 110.27737569778748 L 2088.832968678259 110.37417393545236 L 2088.689008401261 110.47032621220293 L 2088.5429283527574 110.5658229128916 L 2088.394743140631 110.66065448792793 L 2088.2444675832785 110.7548114542334 L 2088.0921167081315 110.84828439618985 L 2087.93770575015 110.941063966581 L 2087.7812501503017 111.03314088752711 L 2087.622765554016 111.12450595141281 L 2087.4622678096202 111.21515002180787 L 2087.299772966755 111.30506403438078 L 2087.135297274769 111.39423899780519 L 2086.9688571810952 111.48266599465909 L 2086.800469329604 111.57033618231648 L 2086.6301505589395 111.65724079383165 L 2086.457917900838 111.74337113881587 L 2086.2837885784206 111.82871860430642 L 2086.107780004475 111.91327465562787 L 2085.929909779712 111.99703083724555 L 2085.750195691006 112.07997877361109 L 2085.5686557096155 112.16211016999999 L 2085.385307989388 112.24341681334106 L 2085.2001708649423 112.32389057303769 L 2085.0132628498363 112.40352340178099 L 2084.824602634717 112.48230733635444 L 2084.6342090854473 112.56023449843025 L 2084.442101241224 112.63729709535714 L 2084.2482983126715 112.71348742093964 L 2084.0528196799214 112.78879785620869 L 2083.8556848906737 112.8632208701835 L 2083.656913658243 112.93674902062472 L 2083.456525859587 113.00937495477855 L 2083.254541533319 113.08109141011211 L 2083.0509808777024 113.15189121503964 L 2082.845864248634 113.22176728963963 L 2082.6392121576055 113.29071264636286 L 2082.431045269653 113.35872039073111 L 2082.2213844012936 113.42578372202661 L 2082.0102505184377 113.49189593397213 L 2081.7976647342985 113.55705041540155 L 2081.5836483072767 113.62124065092104 L 2081.3682226388373 113.68446022156053 L 2081.151409271368 113.74670280541565 L 2080.933229886023 113.80796217827987 L 2080.713706300561 113.86823221426694 L 2080.492860467157 113.92750688642352 L 2080.2707144702094 113.98578026733178 L 2080.047290524134 114.04304652970217 L 2079.8226109711386 114.09929994695618 L 2079.5966982789914 114.15453489379898 L 2079.3695750387733 114.20874584678191 L 2079.1412639626196 114.26192738485484 L 2078.911787881447 114.31407418990828 L 2078.681169742672 114.36518104730519 L 2078.449432607917 114.4152428464024 L 2078.216599650703 114.46425458106174 L 2077.98269415413 114.51221135015058 L 2077.747739508554 114.55910835803196 L 2077.5117592092433 114.6049409150442 L 2077.2747768540316 114.64970443796976 L 2077.0368161409565 114.69339445049368 L 2076.797900865891 114.7360065836511 L 2076.5580549201636 114.77753657626423 L 2076.3173022881692 114.81798027536838 L 2076.0756670449705 114.85733363662739 L 2075.83317335389 114.8955927247379 L 2075.5898454640947 114.93275371382298 L 2075.3457077081707 114.96881288781469 L 2075.100784499691 115.0037666408257 L 2074.8551003307716 115.03761147750981 L 2074.6086797696253 115.07034401341159 L 2074.361547458102 115.10196097530469 L 2074.1137281092274 115.13245920151928 L 2073.86524650473 115.16183564225817 L 2073.6161274925626 115.19008735990175 L 2073.3663959844193 115.21721152930179 L 2073.116076953243 115.24320543806398 L 2072.8651954307275 115.26806648681908 L 2072.613776504817 115.29179218948295 L 2072.3618453171935 115.31438017350509 L 2072.1094270607664 115.33582818010592 L 2071.856546977151 115.35613406450264 L 2071.603230354145 115.37529579612375 L 2071.3495025231996 115.39331145881205 L 2071.095388856886 115.41017925101629 L 2070.840914766359 115.42589748597129 L 2070.5861056988165 115.44046459186667 L 2070.3309871349525 115.45387911200397 L 2070.07558458641 115.46613970494236 L 2069.8199235932325 115.47724514463276 L 2069.564029721305 115.48719432054045 L 2069.307928559802 115.49598623775614 L 2069.051645718626 115.50362001709544 L 2068.795206825848 115.51009489518677 L 2068.538637525143 115.5154102245477 L 2068.2819634732273 115.51956547364975 L 2068.0252103372927 115.52256022697145 L 2067.768403792438 115.52439418504 L 2067.5115695191053 115.52506716446106 L 2067.254733200506 115.52457909793732 L 2066.9979205200593 115.52293003427498 L 2066.7411571588186 115.52012013837903 L 2066.484468792906 115.51614969123673 L 2066.2278810909443 115.51101908988952 L 2065.97141971149 115.50472884739318 L 2065.715110300467 115.4972795927668 L 2065.4589784886034 115.48867207092958 L 2065.2030498888666 115.47890714262655 L 2064.9473500939034 115.4679857843424 L 2064.69190467348 115.45590908820387 L 2064.4367391719256 115.4426782618705 L 2064.181879105578 115.42829462841388 L 2063.927349960231 115.4127596261854 L 2063.6731771885875 115.39607480867232 L 2063.4193862077127 115.3782418443425 L 2063.166002396493 115.35926251647749 L 2062.9130510930986 115.33913872299428 L 2062.6605575924486 115.31787247625543 L 2062.4085471436833 115.29546590286792 L 2062.1570449476376 115.27192124347039 L 2061.9060761543205 115.24724085250918 L 2061.6556658604036 115.2214271980028 L 2061.4058391067065 115.1944828612952 L 2061.1566208756967 115.1664105367976 L 2060.90803608899 115.13721303171906 L 2060.6601096048576 115.10689326578573 L 2060.4128662157414 115.07545427094897 L 2060.166330645774 115.04289919108203 L 2059.920527548307 115.0092312816658 L 2059.6754815034456 114.97445390946316 L 2059.4312170155904 114.93857055218234 L 2059.1877585109855 114.90158479812916 L 2058.94513033528 114.86350034584822 L 2058.7033567510875 114.824321003753 L 2058.4624619355664 114.78405068974506 L 2058.222469977997 114.74269343082224 L 2057.983404877375 114.70025336267598 L 2057.7452905400114 114.65673472927773 L 2057.5081507771415 114.61214188245454 L 2057.2720093025437 114.56647928145395 L 2057.0368897301687 114.51975149249802 L 2056.8028155717784 114.47196318832667 L 2056.5698102345928 114.42311914773052 L 2056.337897018952 114.37322425507293 L 2056.107099115984 114.32228349980157 L 2055.877439605287 114.27030197594954 L 2055.64894145262 114.21728488162587 L 2055.421627507609 114.16323751849586 L 2055.1955205014583 114.10816529125074 L 2054.9706430446804 114.05207370706736 L 2054.747017624833 113.9949683750574 L 2054.5246666042726 113.93685500570646 L 2054.3036122179155 113.87773941030305 L 2054.083876571016 113.81762750035746 L 2053.865481636956 113.75652528701059 L 2053.6484492550467 113.69443888043284 L 2053.4328011283455 113.63137448921314 L 2053.218558821485 113.56733841973806 L 2053.0057437585183 113.5023370755612 L 2052.7943772207736 113.43637695676277 L 2052.5844803447285 113.36946465929971 L 2052.3760741198957 113.301606874346 L 2052.1691793867244 113.2328103876236 L 2051.9638168345155 113.16308207872383 L 2051.7600069993528 113.0924289204195 L 2051.55777026205 113.02085797796754 L 2051.3571268461124 112.94837640840255 L 2051.158096815714 112.8749914598211 L 2050.960700073693 112.8007104706569 L 2050.764956359558 112.72554086894695 L 2050.5708852475177 112.64949017158878 L 2050.378506144522 112.57256598358876 L 2050.18783828832 112.49477599730159 L 2049.9989007455392 112.41612799166106 L 2049.811712409776 112.3366298314022 L 2049.6262919997084 112.2562894662748 L 2049.4426580572226 112.1751149302484 L 2049.2608289455598 112.09311434070896 L 2049.0808228474793 112.01029589764713 L 2048.9026577634418 111.92666788283817 L 2048.7263515098066 111.84223865901389 L 2048.551921717052 111.7570166690263 L 2048.379385828013 111.67101043500338 L 2048.208761096133 111.58422855749687 L 2048.0400645837444 111.4966797146222 L 2047.8733131603572 111.40837266119071 L 2047.708523500975 111.31931622783415 L 2047.5457120844264 111.22951932012163 L 2047.3848951917173 111.13899091766909 L 2047.226088904403 111.04774007324134 L 2047.06930910298 110.9557759118468 L 2046.9145714652977 110.86310762982494 L 2046.7618914649909 110.76974449392677 L 2046.6112843699323 110.67569584038806 L 2046.4627652407062 110.58097107399578 L 2046.3163489291014 110.48557966714766 L 2046.1720500766273 110.38953115890487 L 2046.0298831130488 110.2928351540382 L 2045.8898622549439 110.19550132206757 L 2045.7520015042815 110.09753939629505 L 2045.616314647022 109.99895917283158 L 2045.4828152517377 109.89977050961737 L 2045.3515166682575 109.79998332543607 L 2045.22243202633 109.69960759892295 L 2045.0955742343115 109.59865336756702 L 2044.970955977876 109.4971307267073 L 2044.848589718745 109.39504982852324 L 2044.7284876934425 109.29242088101961 L 2044.610661912071 109.18925414700563 L 2044.4951241571105 109.08555994306874 L 2044.38188598224 108.98134863854291 L 2044.2709587111829 108.87663065447177 L 2044.1623534365735 108.77141646256644 L 2044.0560810188492 108.66571658415843 L 2043.9521520851629 108.55954158914753 L 2043.8505770283216 108.45290209494473 L 2043.751366005746 108.3458087654106 L 2043.654528938456 108.23827230978884 L 2043.5600755100775 108.1303034816354 L 2043.4680151658745 108.02191307774314 L 2043.378357111805 107.9131119370621 L 2043.2911103135993 107.80391093961568 L 2043.206283495865 107.69432100541265 L 2043.123885141213 107.58435309335508 L 2043.0439234894097 107.47401820014255 L 2042.9664065365541 107.36332735917243 L 2042.891342034277 107.25229163943658 L 2042.8187374889656 107.14092214441445 L 2042.748600161014 107.0292300109627 L 2042.680937064097 106.91722640820164 L 2042.6157549644674 106.80492253639821 L 2042.5530603802813 106.69232962584596 L 2042.4928595809445 106.57945893574217 L 2042.435158586487 106.46632175306175 L 2042.3799631669601 106.35292939142872 L 2042.3272788418597 106.23929318998472 L 2042.2771108795741 106.12542451225522 L 2042.2294642968584 106.0113347450131 L 2042.1843438583307 105.89703529714001 L 2042.1417540759974 105.78253759848548 L 2042.1016992088012 105.66785309872397 L 2042.0641832621955 105.55299326620987 L 2042.0292099877436 105.43796958683073 L 2041.996782882744 105.32279356285864 L 2041.9669051898798 105.2074767118 L 2041.9395798968958 105.09203056524383 L 2041.9148097362981 104.97646666770858 L 2041.8925971850826 104.8607965754877 L 2041.8729444644855 104.74503185549402 L 2041.8558535397628 104.62918408410306 L 2041.8413261199926 104.51326484599544 L 2041.8293636579047 104.39728573299836 L 2041.8199673497352 104.28125834292646 L 2041.8131381351075 104.16519427842208 L 2041.8088766969372 104.04910514579494 L 2041.8071834613645 103.93300255386156" stroke-miterlimit="10" stroke-width="2.990598758" stroke-dasharray=""/></g><g><g/><text fill="black" stroke="none" font-family="sans-serif" font-size="11pt" font-style="normal" font-weight="normal" text-decoration="normal" x="2034.7889072184416" y="134.401026536" text-anchor="start" dominant-baseline="alphabetic">Database</text></g></g><g><path fill="white" stroke="black" paint-order="fill stroke markers" d=" M 421.27148851494144 197.73135317599997 L 438.86324591494144 197.73135317599997 L 438.86324591494144 707.892317776 L 421.27148851494144 707.892317776 L 421.27148851494144 197.73135317599997" stroke-miterlimit="10" stroke-width="1.4659797833333332" stroke-dasharray=""/><path fill="white" stroke="black" paint-order="fill stroke markers" d=" M 714.7852298788737 246.98827389599995 L 732.3769872788737 246.98827389599995 L 732.3769872788737 658.635397056 L 714.7852298788737 658.635397056 L 714.7852298788737 246.98827389599995" stroke-miterlimit="10" stroke-width="1.4659797833333332" stroke-dasharray=""/><path fill="white" stroke="black" paint-order="fill stroke markers" d=" M 421.27148851494144 757.1492384960001 L 438.86324591494144 757.1492384960001 L 438.86324591494144 1886.540063575999 L 421.27148851494144 1886.540063575999 L 421.27148851494144 757.1492384960001" stroke-miterlimit="10" stroke-width="1.4659797833333332" stroke-dasharray=""/><path fill="white" stroke="black" paint-order="fill stroke markers" d=" M 714.7852298788737 806.4061592160001 L 732.3769872788737 806.4061592160001 L 732.3769872788737 1837.2831428559991 L 714.7852298788737 1837.2831428559991 L 714.7852298788737 806.4061592160001" stroke-miterlimit="10" stroke-width="1.4659797833333332" stroke-dasharray=""/><path fill="white" stroke="black" paint-order="fill stroke markers" d=" M 430.06736721494144 954.1769213760002 L 447.65912461494145 954.1769213760002 L 447.65912461494145 1267.310203096 L 430.06736721494144 1267.310203096 L 430.06736721494144 954.1769213760002" stroke-miterlimit="10" stroke-width="1.4659797833333332" stroke-dasharray=""/><path fill="white" stroke="black" paint-order="fill stroke markers" d=" M 723.5811085788737 954.1769213760002 L 741.1728659788737 954.1769213760002 L 741.1728659788737 1267.310203096 L 723.5811085788737 1267.310203096 L 723.5811085788737 954.1769213760002" stroke-miterlimit="10" stroke-width="1.4659797833333332" stroke-dasharray=""/><path fill="white" stroke="black" paint-order="fill stroke markers" d=" M 147.87074926409505 1003.4338420960003 L 165.46250666409506 1003.4338420960003 L 165.46250666409506 1267.310203096 L 147.87074926409505 1267.310203096 L 147.87074926409505 1003.4338420960003" stroke-miterlimit="10" stroke-width="1.4659797833333332" stroke-dasharray=""/><path fill="white" stroke="black" paint-order="fill stroke markers" d=" M 976.688406057259 1316.5671238159998 L 994.280163457259 1316.5671238159998 L 994.280163457259 1930.519457075999 L 976.688406057259 1930.519457075999 L 976.688406057259 1316.5671238159998" stroke-miterlimit="10" stroke-width="1.4659797833333332" stroke-dasharray=""/><path fill="white" stroke="black" paint-order="fill stroke markers" d=" M 1804.4999430761889 1365.8240445359997 L 1822.0917004761889 1365.8240445359997 L 1822.0917004761889 1598.0352422159995 L 1804.4999430761889 1598.0352422159995 L 1804.4999430761889 1365.8240445359997" stroke-miterlimit="10" stroke-width="1.4659797833333332" stroke-dasharray=""/><path fill="white" stroke="black" paint-order="fill stroke markers" d=" M 1813.2958217761889 1432.6727226559997 L 1830.8875791761889 1432.6727226559997 L 1830.8875791761889 1548.7783214959995 L 1813.2958217761889 1548.7783214959995 L 1813.2958217761889 1432.6727226559997" stroke-miterlimit="10" stroke-width="1.4659797833333332" stroke-dasharray=""/><g><g><rect fill="white" stroke="none" x="131.28002894522461" y="174.86206855599997" width="183.60250890945312" height="22.86928462"/></g><text fill="black" stroke="none" font-family="sans-serif" font-size="11pt" font-style="normal" font-weight="normal" text-decoration="normal" x="133.91879255522463" y="190.69465021599999" text-anchor="start" dominant-baseline="alphabetic">selectTime(time : Integer)</text></g><g><path fill="none" stroke="black" paint-order="fill stroke markers" d=" M 24.891078284960937 197.73135317599997 L 418.3395289482748 197.73135317599997" stroke-miterlimit="10" stroke-width="1.4659797833333332" stroke-dasharray=""/><g transform="translate(421.27148851494144,197.73135317599997) translate(-421.27148851494144,-197.73135317599997)"><path fill="black" stroke="none" paint-order="stroke fill markers" d=" M 406.6116906816081 190.4014542593333 L 421.27148851494144 197.73135317599997 L 406.6116906816081 205.06125209266665 Z"/></g></g><g><g><rect fill="white" stroke="none" x="464.07809818827474" y="224.11898927599995" width="225.49227941726562" height="22.86928462"/></g><text fill="black" stroke="none" font-family="sans-serif" font-size="11pt" font-style="normal" font-weight="normal" text-decoration="normal" x="466.71686179827475" y="239.95157093599997" text-anchor="start" dominant-baseline="alphabetic">selectAllBooking(time : Integer)</text></g><g><path fill="none" stroke="black" paint-order="fill stroke markers" d=" M 438.86324591494144 246.98827389599995 L 711.853270312207 246.98827389599995" stroke-miterlimit="10" stroke-width="1.4659797833333332" stroke-dasharray=""/><g transform="translate(714.7852298788737,246.98827389599995) translate(-714.7852298788737,-246.98827389599995)"><path fill="black" stroke="none" paint-order="stroke fill markers" d=" M 700.1254320455404 239.65837497933327 L 714.7852298788737 246.98827389599995 L 700.1254320455404 254.31817281266663 Z"/></g></g><g><g><rect fill="white" stroke="none" x="1073.5115013987831" y="320.87365497599995" width="96.35844457839843" height="22.86928462"/></g><text fill="black" stroke="none" font-family="sans-serif" font-size="11pt" font-style="normal" font-weight="normal" text-decoration="normal" x="1076.1502650087832" y="336.70623663599997" text-anchor="start" dominant-baseline="alphabetic">getBooking()</text></g><g><path fill="none" stroke="black" paint-order="fill stroke markers" d=" M 732.3769872788737 343.7429395959999 L 1508.0725005304246 343.7429395959999" stroke-miterlimit="10" stroke-width="1.4659797833333332" stroke-dasharray=""/><g transform="translate(1511.0044600970912,343.7429395959999) translate(-1511.0044600970912,-343.7429395959999)"><path fill="black" stroke="none" paint-order="stroke fill markers" d=" M 1496.3446622637578 336.4130406793333 L 1511.0044600970912 343.7429395959999 L 1496.3446622637578 351.0728385126666 Z"/></g></g><g><g><rect fill="white" stroke="none" x="873.3857426933672" y="370.13057569599994" width="80.173767454375" height="22.86928462"/></g><text fill="black" stroke="none" font-family="sans-serif" font-size="11pt" font-style="normal" font-weight="normal" text-decoration="normal" x="876.0245063033672" y="385.96315735599995" text-anchor="start" dominant-baseline="alphabetic">getRoom()</text></g><g><path fill="none" stroke="black" paint-order="fill stroke markers" d=" M 732.3769872788737 392.9998603159999 L 1091.636305995569 392.9998603159999" stroke-miterlimit="10" stroke-width="1.4659797833333332" stroke-dasharray=""/><g transform="translate(1094.5682655622356,392.9998603159999) translate(-1094.5682655622356,-392.9998603159999)"><path fill="black" stroke="none" paint-order="stroke fill markers" d=" M 1079.9084677289022 385.66996139933326 L 1094.5682655622356 392.9998603159999 L 1079.9084677289022 400.32975923266656 Z"/></g></g><g><g><rect fill="white" stroke="none" x="753.193900202207" y="493.2728774959999" width="148.341247923125" height="22.86928462"/></g><text fill="black" stroke="none" font-family="sans-serif" font-size="11pt" font-style="normal" font-weight="normal" text-decoration="normal" x="755.832663812207" y="509.10545915599994" text-anchor="start" dominant-baseline="alphabetic">matchRoomStatus() </text></g><g><path fill="none" stroke="black" paint-order="fill stroke markers" d=" M 732.3769872788737 516.1421621159999 L 802.7440168788737 516.1421621159999 L 802.7440168788737 533.7339195159999 L 735.3089468455404 533.7339195159999" stroke-miterlimit="10" stroke-width="1.4659797833333332" stroke-dasharray=""/><g transform="translate(732.3769872788737,533.7339195159999) translate(-732.3769872788737,-533.7339195159999)"><path fill="black" stroke="none" paint-order="stroke fill markers" d=" M 747.036785112207 526.4040205993332 L 732.3769872788737 533.7339195159999 L 747.036785112207 541.0638184326666 Z"/></g></g><g><g><rect fill="white" stroke="none" x="544.4610632761654" y="586.5091917159999" width="64.72634924148437" height="22.86928462"/></g><text fill="black" stroke="none" font-family="sans-serif" font-size="11pt" font-style="normal" font-weight="normal" text-decoration="normal" x="547.0998268861654" y="602.3417733759999" text-anchor="start" dominant-baseline="alphabetic">update()</text></g><g><path fill="none" stroke="black" paint-order="fill stroke markers" d=" M 714.7852298788737 609.378476336 L 441.7952054816081 609.378476336" stroke-miterlimit="10" stroke-width="1.4659797833333332" stroke-dasharray=""/><g transform="translate(438.86324591494144,609.378476336) translate(-438.86324591494144,-609.378476336)"><path fill="black" stroke="none" paint-order="stroke fill markers" d=" M 453.5230437482748 602.0485774193332 L 438.86324591494144 609.378476336 L 453.5230437482748 616.7083752526667 Z"/></g></g><g><g><rect fill="white" stroke="none" x="574.1854742869076" y="635.766112436" width="5.27752722" height="22.86928462"/></g><text fill="black" stroke="none" font-family="sans-serif" font-size="11pt" font-style="normal" font-weight="normal" text-decoration="normal" x="576.8242378969076" y="651.5986940959999" text-anchor="start" dominant-baseline="alphabetic"></text></g><g><path fill="none" stroke="black" paint-order="fill stroke markers" d=" M 714.7852298788737 658.635397056 L 441.7952054816081 658.635397056" stroke-miterlimit="10" stroke-width="1.4659797833333332" stroke-dasharray="7.0367029599999995"/><g transform="translate(438.86324591494144,658.635397056) translate(-438.86324591494144,-658.635397056)"><path fill="black" stroke="none" paint-order="stroke fill markers" d=" M 453.5230437482748 651.3054981393333 L 438.86324591494144 658.635397056 L 453.5230437482748 665.9652959726667 Z"/></g></g><g><g><rect fill="white" stroke="none" x="220.44251978995118" y="685.023033156" width="5.27752722" height="22.86928462"/></g><text fill="black" stroke="none" font-family="sans-serif" font-size="11pt" font-style="normal" font-weight="normal" text-decoration="normal" x="223.0812833999512" y="700.855614816" text-anchor="start" dominant-baseline="alphabetic"></text></g><g><path fill="none" stroke="black" paint-order="fill stroke markers" d=" M 421.27148851494144 707.892317776 L 27.823037851627603 707.892317776" stroke-miterlimit="10" stroke-width="1.4659797833333332" stroke-dasharray="7.0367029599999995"/><g transform="translate(24.891078284960937,707.892317776) translate(-24.891078284960937,-707.892317776)"><path fill="black" stroke="none" paint-order="stroke fill markers" d=" M 39.55087611829427 700.5624188593333 L 24.891078284960937 707.892317776 L 39.55087611829427 715.2222166926667 Z"/></g></g><g><g><rect fill="white" stroke="none" x="120.91852534415041" y="734.279953876" width="204.32551611160156" height="22.86928462"/></g><text fill="black" stroke="none" font-family="sans-serif" font-size="11pt" font-style="normal" font-weight="normal" text-decoration="normal" x="123.55728895415041" y="750.112535536" text-anchor="start" dominant-baseline="alphabetic">mousePress(roomId:Integer)</text></g><g><path fill="none" stroke="black" paint-order="fill stroke markers" d=" M 24.891078284960937 757.1492384960001 L 418.3395289482748 757.1492384960001" stroke-miterlimit="10" stroke-width="1.4659797833333332" stroke-dasharray=""/><g transform="translate(421.27148851494144,757.1492384960001) translate(-421.27148851494144,-757.1492384960001)"><path fill="black" stroke="none" paint-order="stroke fill markers" d=" M 406.6116906816081 749.8193395793334 L 421.27148851494144 757.1492384960001 L 406.6116906816081 764.4791374126668 Z"/></g></g><g><g><rect fill="white" stroke="none" x="484.48252476298177" y="783.5368745960001" width="184.68342626785156" height="22.86928462"/></g><text fill="black" stroke="none" font-family="sans-serif" font-size="11pt" font-style="normal" font-weight="normal" text-decoration="normal" x="487.1212883729818" y="799.369456256" text-anchor="start" dominant-baseline="alphabetic">getDetail(roomId:Integer)</text></g><g><path fill="none" stroke="black" paint-order="fill stroke markers" d=" M 438.86324591494144 806.4061592160001 L 711.853270312207 806.4061592160001" stroke-miterlimit="10" stroke-width="1.4659797833333332" stroke-dasharray=""/><g transform="translate(714.7852298788737,806.4061592160001) translate(-714.7852298788737,-806.4061592160001)"><path fill="black" stroke="none" paint-order="stroke fill markers" d=" M 700.1254320455404 799.0762602993334 L 714.7852298788737 806.4061592160001 L 700.1254320455404 813.7360581326668 Z"/></g></g><g><g><rect fill="white" stroke="none" x="189.06455958487305" y="832.7937953160001" width="68.03344763015625" height="22.86928462"/></g><text fill="black" stroke="none" font-family="sans-serif" font-size="11pt" font-style="normal" font-weight="normal" text-decoration="normal" x="191.70332319487306" y="848.6263769760001" text-anchor="start" dominant-baseline="alphabetic">checkin()</text></g><g><path fill="none" stroke="black" paint-order="fill stroke markers" d=" M 24.891078284960937 855.6630799360001 L 418.3395289482748 855.6630799360001" stroke-miterlimit="10" stroke-width="1.4659797833333332" stroke-dasharray=""/><g transform="translate(421.27148851494144,855.6630799360001) translate(-421.27148851494144,-855.6630799360001)"><path fill="black" stroke="none" paint-order="stroke fill markers" d=" M 406.6116906816081 848.3331810193334 L 421.27148851494144 855.6630799360001 L 406.6116906816081 862.9929788526669 Z"/></g></g><g><g><rect fill="white" stroke="none" x="542.8075140818295" y="882.0507160360002" width="68.03344763015625" height="22.86928462"/></g><text fill="black" stroke="none" font-family="sans-serif" font-size="11pt" font-style="normal" font-weight="normal" text-decoration="normal" x="545.4462776918294" y="897.8832976960001" text-anchor="start" dominant-baseline="alphabetic">checkin()</text></g><g><path fill="none" stroke="black" paint-order="fill stroke markers" d=" M 438.86324591494144 904.9200006560002 L 711.853270312207 904.9200006560002" stroke-miterlimit="10" stroke-width="1.4659797833333332" stroke-dasharray=""/><g transform="translate(714.7852298788737,904.9200006560002) translate(-714.7852298788737,-904.9200006560002)"><path fill="black" stroke="none" paint-order="stroke fill markers" d=" M 700.1254320455404 897.5901017393335 L 714.7852298788737 904.9200006560002 L 700.1254320455404 912.2498995726669 Z"/></g></g><g><g><rect fill="white" stroke="none" x="532.0543662925717" y="931.3076367560002" width="107.13150060867187" height="22.86928462"/></g><text fill="black" stroke="none" font-family="sans-serif" font-size="11pt" font-style="normal" font-weight="normal" text-decoration="normal" x="534.6931299025716" y="947.1402184160002" text-anchor="start" dominant-baseline="alphabetic">validateInput()</text></g><g><path fill="none" stroke="black" paint-order="fill stroke markers" d=" M 723.5811085788737 954.1769213760002 L 450.5910841816081 954.1769213760002" stroke-miterlimit="10" stroke-width="1.4659797833333332" stroke-dasharray=""/><g transform="translate(447.65912461494145,954.1769213760002) translate(-447.65912461494145,-954.1769213760002)"><path fill="black" stroke="none" paint-order="stroke fill markers" d=" M 462.3189224482748 946.8470224593335 L 447.65912461494145 954.1769213760002 L 462.3189224482748 961.5068202926669 Z"/></g></g><g><g><rect fill="white" stroke="none" x="190.67735893742844" y="980.5645574760002" width="214.17515600417968" height="22.86928462"/></g><text fill="black" stroke="none" font-family="sans-serif" font-size="11pt" font-style="normal" font-weight="normal" text-decoration="normal" x="193.31612254742845" y="996.3971391360002" text-anchor="start" dominant-baseline="alphabetic">Alert(comfirmation:AlertType)</text></g><g><path fill="none" stroke="black" paint-order="fill stroke markers" d=" M 430.06736721494144 1003.4338420960003 L 168.39446623076174 1003.4338420960003" stroke-miterlimit="10" stroke-width="1.4659797833333332" stroke-dasharray=""/><g transform="translate(165.46250666409506,1003.4338420960003) translate(-165.46250666409506,-1003.4338420960003)"><path fill="black" stroke="none" paint-order="stroke fill markers" d=" M 180.1223044974284 996.1039431793336 L 165.46250666409506 1003.4338420960003 L 180.1223044974284 1010.763741012667 Z"/></g></g><g><g><rect fill="white" stroke="none" x="83.742150164528" y="1029.8214781960003" width="5.27752722" height="22.86928462"/></g><text fill="black" stroke="none" font-family="sans-serif" font-size="11pt" font-style="normal" font-weight="normal" text-decoration="normal" x="86.380913774528" y="1045.6540598560002" text-anchor="start" dominant-baseline="alphabetic"></text></g><g><path fill="none" stroke="black" paint-order="fill stroke markers" d=" M 147.87074926409505 1052.6907628160002 L 27.823037851627603 1052.6907628160002" stroke-miterlimit="10" stroke-width="1.4659797833333332" stroke-dasharray=""/><g transform="translate(24.891078284960937,1052.6907628160002) translate(-24.891078284960937,-1052.6907628160002)"><path fill="black" stroke="none" paint-order="stroke fill markers" d=" M 39.55087611829427 1045.3608638993335 L 24.891078284960937 1052.6907628160002 L 39.55087611829427 1060.020661732667 Z"/></g></g><g><g><rect fill="white" stroke="none" x="83.742150164528" y="1079.0783989160002" width="5.27752722" height="22.86928462"/></g><text fill="black" stroke="none" font-family="sans-serif" font-size="11pt" font-style="normal" font-weight="normal" text-decoration="normal" x="86.380913774528" y="1094.9109805760002" text-anchor="start" dominant-baseline="alphabetic"></text></g><g><path fill="none" stroke="black" paint-order="fill stroke markers" d=" M 24.891078284960937 1101.947683536 L 144.93878969742838 1101.947683536" stroke-miterlimit="10" stroke-width="1.4659797833333332" stroke-dasharray="7.0367029599999995"/><g transform="translate(147.87074926409505,1101.947683536) translate(-147.87074926409505,-1101.947683536)"><path fill="black" stroke="none" paint-order="stroke fill markers" d=" M 133.21095143076172 1094.6177846193334 L 147.87074926409505 1101.947683536 L 133.21095143076172 1109.2775824526668 Z"/></g></g><path fill="white" stroke="black" paint-order="fill stroke markers" d=" M 82.08828509677083 1128.3353196360001 L 215.41238917141928 1128.3353196360001 L 231.24497083141927 1144.167901296 L 231.24497083141927 1168.796361656 L 82.08828509677083 1168.796361656 L 82.08828509677083 1128.3353196360001 M 215.41238917141928 1128.3353196360001 L 215.41238917141928 1144.167901296 L 231.24497083141927 1144.167901296" stroke-miterlimit="10" stroke-width="1.4659797833333332" stroke-dasharray=""/><g><text fill="black" stroke="none" font-family="sans-serif" font-size="11pt" font-style="normal" font-weight="normal" text-decoration="normal" x="106.71674545677084" y="1152.9637799959999" text-anchor="start" dominant-baseline="alphabetic">Stuff press OK</text></g><g><g><rect fill="white" stroke="none" x="257.2306960345964" y="1195.183997756" width="81.06848180984375" height="22.86928462"/></g><text fill="black" stroke="none" font-family="sans-serif" font-size="11pt" font-style="normal" font-weight="normal" text-decoration="normal" x="259.8694596445964" y="1211.016579416" text-anchor="start" dominant-baseline="alphabetic">return true</text></g><g><path fill="none" stroke="black" paint-order="fill stroke markers" d=" M 165.46250666409506 1218.053282376 L 427.1354076482748 1218.053282376" stroke-miterlimit="10" stroke-width="1.4659797833333332" stroke-dasharray="7.0367029599999995"/><g transform="translate(430.06736721494144,1218.053282376) translate(-430.06736721494144,-1218.053282376)"><path fill="black" stroke="none" paint-order="stroke fill markers" d=" M 415.4075693816081 1210.7233834593333 L 430.06736721494144 1218.053282376 L 415.4075693816081 1225.3831812926667 Z"/></g></g><g><g><rect fill="white" stroke="none" x="545.0858756919857" y="1244.440918476" width="81.06848180984375" height="22.86928462"/></g><text fill="black" stroke="none" font-family="sans-serif" font-size="11pt" font-style="normal" font-weight="normal" text-decoration="normal" x="547.7246393019857" y="1260.273500136" text-anchor="start" dominant-baseline="alphabetic">return true</text></g><g><path fill="none" stroke="black" paint-order="fill stroke markers" d=" M 447.65912461494145 1267.310203096 L 720.649149012207 1267.310203096" stroke-miterlimit="10" stroke-width="1.4659797833333332" stroke-dasharray="7.0367029599999995"/><g transform="translate(723.5811085788737,1267.310203096) translate(-723.5811085788737,-1267.310203096)"><path fill="black" stroke="none" paint-order="stroke fill markers" d=" M 708.9213107455404 1259.9803041793332 L 723.5811085788737 1267.310203096 L 708.9213107455404 1274.6401020126666 Z"/></g></g><g><g><rect fill="white" stroke="none" x="757.591839552207" y="1293.697839196" width="193.88171423171875" height="22.86928462"/></g><text fill="black" stroke="none" font-family="sans-serif" font-size="11pt" font-style="normal" font-weight="normal" text-decoration="normal" x="760.230603162207" y="1309.5304208559999" text-anchor="start" dominant-baseline="alphabetic">updateBooking(b:Booking)</text></g><g><path fill="none" stroke="black" paint-order="fill stroke markers" d=" M 732.3769872788737 1316.5671238159998 L 973.7564464905923 1316.5671238159998" stroke-miterlimit="10" stroke-width="1.4659797833333332" stroke-dasharray=""/><g transform="translate(976.688406057259,1316.5671238159998) translate(-976.688406057259,-1316.5671238159998)"><path fill="black" stroke="none" paint-order="stroke fill markers" d=" M 962.0286082239257 1309.2372248993331 L 976.688406057259 1316.5671238159998 L 962.0286082239257 1323.8970227326665 Z"/></g></g><g><g><rect fill="white" stroke="none" x="1302.4491961508645" y="1342.9547599159998" width="193.88171423171875" height="22.86928462"/></g><text fill="black" stroke="none" font-family="sans-serif" font-size="11pt" font-style="normal" font-weight="normal" text-decoration="normal" x="1305.0879597608646" y="1358.7873415759998" text-anchor="start" dominant-baseline="alphabetic">updateBooking(b:Booking)</text></g><g><path fill="none" stroke="black" paint-order="fill stroke markers" d=" M 994.280163457259 1365.8240445359997 L 1801.5679835095223 1365.8240445359997" stroke-miterlimit="10" stroke-width="1.4659797833333332" stroke-dasharray=""/><g transform="translate(1804.4999430761889,1365.8240445359997) translate(-1804.4999430761889,-1365.8240445359997)"><path fill="black" stroke="none" paint-order="stroke fill markers" d=" M 1789.8401452428554 1358.494145619333 L 1804.4999430761889 1365.8240445359997 L 1789.8401452428554 1373.1539434526665 Z"/></g></g><g><g><rect fill="white" stroke="none" x="1851.7044920995222" y="1392.2116806359998" width="197.75424230789062" height="22.86928462"/></g><text fill="black" stroke="none" font-family="sans-serif" font-size="11pt" font-style="normal" font-weight="normal" text-decoration="normal" x="1854.3432557095223" y="1408.0442622959997" text-anchor="start" dominant-baseline="alphabetic">performUpdate(sql : String)</text></g><g><path fill="none" stroke="black" paint-order="fill stroke markers" d=" M 1822.0917004761889 1415.0809652559997 L 1901.254608776189 1415.0809652559997 L 1901.254608776189 1432.6727226559997 L 1833.8195387428555 1432.6727226559997" stroke-miterlimit="10" stroke-width="1.4659797833333332" stroke-dasharray=""/><g transform="translate(1830.8875791761889,1432.6727226559997) translate(-1830.8875791761889,-1432.6727226559997)"><path fill="black" stroke="none" paint-order="stroke fill markers" d=" M 1845.5473770095223 1425.342823739333 L 1830.8875791761889 1432.6727226559997 L 1845.5473770095223 1440.0026215726664 Z"/></g></g><g><g><rect fill="white" stroke="none" x="1851.7044920995222" y="1459.0603587559997" width="194.96971166824218" height="22.86928462"/></g><text fill="black" stroke="none" font-family="sans-serif" font-size="11pt" font-style="normal" font-weight="normal" text-decoration="normal" x="1854.3432557095223" y="1474.8929404159996" text-anchor="start" dominant-baseline="alphabetic">executeUpdate(sql : String)</text></g><g><path fill="none" stroke="black" paint-order="fill stroke markers" d=" M 1830.8875791761889 1481.9296433759996 L 2064.5591571244313 1481.9296433759996" stroke-miterlimit="10" stroke-width="1.4659797833333332" stroke-dasharray=""/><g transform="translate(2067.491116691098,1481.9296433759996) translate(-2067.491116691098,-1481.9296433759996)"><path fill="black" stroke="none" paint-order="stroke fill markers" d=" M 2052.8313188577645 1474.599744459333 L 2067.491116691098 1481.9296433759996 L 2052.8313188577645 1489.2595422926663 Z"/></g></g><g><g><rect fill="white" stroke="none" x="1851.7044920995222" y="1508.3172794759996" width="5.27752722" height="22.86928462"/></g><text fill="black" stroke="none" font-family="sans-serif" font-size="11pt" font-style="normal" font-weight="normal" text-decoration="normal" x="1854.3432557095223" y="1524.1498611359996" text-anchor="start" dominant-baseline="alphabetic"></text></g><g><path fill="none" stroke="black" paint-order="fill stroke markers" d=" M 1830.8875791761889 1531.1865640959995 L 1901.254608776189 1531.1865640959995 L 1901.254608776189 1548.7783214959995 L 1833.8195387428555 1548.7783214959995" stroke-miterlimit="10" stroke-width="1.4659797833333332" stroke-dasharray="7.0367029599999995"/><g transform="translate(1830.8875791761889,1548.7783214959995) translate(-1830.8875791761889,-1548.7783214959995)"><path fill="black" stroke="none" paint-order="stroke fill markers" d=" M 1845.5473770095223 1541.4484225793328 L 1830.8875791761889 1548.7783214959995 L 1845.5473770095223 1556.1082204126662 Z"/></g></g><g><g><rect fill="white" stroke="none" x="1396.7512896567239" y="1575.1659575959995" width="5.27752722" height="22.86928462"/></g><text fill="black" stroke="none" font-family="sans-serif" font-size="11pt" font-style="normal" font-weight="normal" text-decoration="normal" x="1399.390053266724" y="1590.9985392559995" text-anchor="start" dominant-baseline="alphabetic"></text></g><g><path fill="none" stroke="black" paint-order="fill stroke markers" d=" M 1804.4999430761889 1598.0352422159995 L 997.2121230239258 1598.0352422159995" stroke-miterlimit="10" stroke-width="1.4659797833333332" stroke-dasharray="7.0367029599999995"/><g transform="translate(994.280163457259,1598.0352422159995) translate(-994.280163457259,-1598.0352422159995)"><path fill="black" stroke="none" paint-order="stroke fill markers" d=" M 1008.9399612905924 1590.7053432993328 L 994.280163457259 1598.0352422159995 L 1008.9399612905924 1605.3651411326662 Z"/></g></g><g><g><rect fill="white" stroke="none" x="851.8939330580664" y="1624.4228783159995" width="5.27752722" height="22.86928462"/></g><text fill="black" stroke="none" font-family="sans-serif" font-size="11pt" font-style="normal" font-weight="normal" text-decoration="normal" x="854.5326966680664" y="1640.2554599759994" text-anchor="start" dominant-baseline="alphabetic"></text></g><g><path fill="none" stroke="black" paint-order="fill stroke markers" d=" M 976.688406057259 1647.2921629359994 L 735.3089468455404 1647.2921629359994" stroke-miterlimit="10" stroke-width="1.4659797833333332" stroke-dasharray="7.0367029599999995"/><g transform="translate(732.3769872788737,1647.2921629359994) translate(-732.3769872788737,-1647.2921629359994)"><path fill="black" stroke="none" paint-order="stroke fill markers" d=" M 747.036785112207 1639.9622640193327 L 732.3769872788737 1647.2921629359994 L 747.036785112207 1654.622061852666 Z"/></g></g><g><g><rect fill="white" stroke="none" x="753.193900202207" y="1721.1775440159993" width="183.75277746414062" height="22.86928462"/></g><text fill="black" stroke="none" font-family="sans-serif" font-size="11pt" font-style="normal" font-weight="normal" text-decoration="normal" x="755.832663812207" y="1737.0101256759992" text-anchor="start" dominant-baseline="alphabetic">refreshRoomStatus()        </text></g><g><path fill="none" stroke="black" paint-order="fill stroke markers" d=" M 732.3769872788737 1744.0468286359992 L 802.7440168788737 1744.0468286359992 L 802.7440168788737 1761.6385860359992 L 735.3089468455404 1761.6385860359992" stroke-miterlimit="10" stroke-width="1.4659797833333332" stroke-dasharray=""/><g transform="translate(732.3769872788737,1761.6385860359992) translate(-732.3769872788737,-1761.6385860359992)"><path fill="black" stroke="none" paint-order="stroke fill markers" d=" M 747.036785112207 1754.3086871193325 L 732.3769872788737 1761.6385860359992 L 747.036785112207 1768.968484952666 Z"/></g></g><g><g><rect fill="white" stroke="none" x="574.1854742869076" y="1814.4138582359992" width="5.27752722" height="22.86928462"/></g><text fill="black" stroke="none" font-family="sans-serif" font-size="11pt" font-style="normal" font-weight="normal" text-decoration="normal" x="576.8242378969076" y="1830.2464398959992" text-anchor="start" dominant-baseline="alphabetic"></text></g><g><path fill="none" stroke="black" paint-order="fill stroke markers" d=" M 714.7852298788737 1837.2831428559991 L 441.7952054816081 1837.2831428559991" stroke-miterlimit="10" stroke-width="1.4659797833333332" stroke-dasharray="7.0367029599999995"/><g transform="translate(438.86324591494144,1837.2831428559991) translate(-438.86324591494144,-1837.2831428559991)"><path fill="black" stroke="none" paint-order="stroke fill markers" d=" M 453.5230437482748 1829.9532439393324 L 438.86324591494144 1837.2831428559991 L 453.5230437482748 1844.6130417726658 Z"/></g></g><g><g><rect fill="white" stroke="none" x="220.44251978995118" y="1863.6707789559991" width="5.27752722" height="22.86928462"/></g><text fill="black" stroke="none" font-family="sans-serif" font-size="11pt" font-style="normal" font-weight="normal" text-decoration="normal" x="223.0812833999512" y="1879.503360615999" text-anchor="start" dominant-baseline="alphabetic"></text></g><g><path fill="none" stroke="black" paint-order="fill stroke markers" d=" M 421.27148851494144 1886.540063575999 L 27.823037851627603 1886.540063575999" stroke-miterlimit="10" stroke-width="1.4659797833333332" stroke-dasharray="7.0367029599999995"/><g transform="translate(24.891078284960937,1886.540063575999) translate(-24.891078284960937,-1886.540063575999)"><path fill="black" stroke="none" paint-order="stroke fill markers" d=" M 39.55087611829427 1879.2101646593323 L 24.891078284960937 1886.540063575999 L 39.55087611829427 1893.8699624926658 Z"/></g></g><g><g/><path fill="none" stroke="black" paint-order="fill stroke markers" d=" M 662.0099576788737 273.37590999599996 L 1572.5756109970912 273.37590999599996 L 1572.5756109970912 419.3874964159999 L 662.0099576788737 419.3874964159999 L 662.0099576788737 273.37590999599996 Z" stroke-miterlimit="10" stroke-width="2.5131082" stroke-dasharray=""/><path fill="white" stroke="black" paint-order="fill stroke markers" d=" M 662.0099576788737 273.37590999599996 L 662.0099576788737 294.48601887599995 L 723.8952394466471 294.48601887599995 L 734.4502938866472 283.93096443599995 L 734.4502938866472 273.37590999599996 L 662.0099576788737 273.37590999599996" stroke-miterlimit="10" stroke-width="2.5131082" stroke-dasharray=""/><text fill="black" stroke="none" font-family="sans-serif" font-size="8.8pt" font-style="normal" font-weight="bold" text-decoration="normal" x="679.6017150788737" y="287.44931591599993" text-anchor="start" dominant-baseline="alphabetic">loop</text><text fill="black" stroke="none" font-family="sans-serif" font-size="8.8pt" font-style="normal" font-weight="bold" text-decoration="normal" x="752.0420512866472" y="287.44931591599993" text-anchor="start" dominant-baseline="alphabetic">[for each current Booking and current Room]</text></g><g><g/><path fill="none" stroke="black" paint-order="fill stroke markers" d=" M 662.0099576788737 445.7751325159999 L 907.692263215332 445.7751325159999 L 907.692263215332 560.1215556159999 L 662.0099576788737 560.1215556159999 L 662.0099576788737 445.7751325159999 Z" stroke-miterlimit="10" stroke-width="2.5131082" stroke-dasharray=""/><path fill="white" stroke="black" paint-order="fill stroke markers" d=" M 662.0099576788737 445.7751325159999 L 662.0099576788737 466.8852413959999 L 774.6812807064127 466.8852413959999 L 785.2363351464128 456.3301869559999 L 785.2363351464128 445.7751325159999 L 662.0099576788737 445.7751325159999" stroke-miterlimit="10" stroke-width="2.5131082" stroke-dasharray=""/><text fill="black" stroke="none" font-family="sans-serif" font-size="8.8pt" font-style="normal" font-weight="bold" text-decoration="normal" x="679.6017150788737" y="459.8485384359999" text-anchor="start" dominant-baseline="alphabetic">expandable−</text><text fill="black" stroke="none" font-family="sans-serif" font-size="8.8pt" font-style="normal" font-weight="bold" text-decoration="normal" x="802.8280925464128" y="459.8485384359999" text-anchor="start" dominant-baseline="alphabetic">[see 11 - Display Booked Room BCE]</text></g><g><g/><path fill="none" stroke="black" paint-order="fill stroke markers" d=" M 662.0099576788737 1673.6797990359992 L 943.1037927563476 1673.6797990359992 L 943.1037927563476 1788.0262221359992 L 662.0099576788737 1788.0262221359992 L 662.0099576788737 1673.6797990359992 Z" stroke-miterlimit="10" stroke-width="2.5131082" stroke-dasharray=""/><path fill="white" stroke="black" paint-order="fill stroke markers" d=" M 662.0099576788737 1673.6797990359992 L 662.0099576788737 1694.7899079159993 L 774.6812807064127 1694.7899079159993 L 785.2363351464128 1684.2348534759992 L 785.2363351464128 1673.6797990359992 L 662.0099576788737 1673.6797990359992" stroke-miterlimit="10" stroke-width="2.5131082" stroke-dasharray=""/><text fill="black" stroke="none" font-family="sans-serif" font-size="8.8pt" font-style="normal" font-weight="bold" text-decoration="normal" x="679.6017150788737" y="1687.7532049559993" text-anchor="start" dominant-baseline="alphabetic">expandable−</text><text fill="black" stroke="none" font-family="sans-serif" font-size="8.8pt" font-style="normal" font-weight="bold" text-decoration="normal" x="802.8280925464128" y="1687.7532049559993" text-anchor="start" dominant-baseline="alphabetic">[see 09 - Display All Room Status BCE]</text></g></g><g/><g/><g/><g/><g/><g/><g/><g/><g/><g/><g/><g/></g></svg>