<svg version="1.1" xmlns="http://www.w3.org/2000/svg" xmlns:xlink="http://www.w3.org/1999/xlink" width="1928" height="2051"><defs/><g><g/><g/><g/><g/><g/><g/><g/><g/><g/><g/><g/><g/><g/><g/><g/><g/><g/><g/><g/><g/><g/><g/><g/><g/><g/><g/><g/><g/><g/><g/><g/><g/><g/><g><rect fill="white" stroke="none" x="0" y="0" width="1928" height="2051"/></g><g><text fill="black" stroke="none" font-family="sans-serif" font-size="16.5pt" font-style="normal" font-weight="normal" text-decoration="normal" x="801.7439215171098" y="26.3876361" text-anchor="start" dominant-baseline="alphabetic">Remove An Existing Room BCE</text></g><g/><g><path fill="none" stroke="black" paint-order="fill stroke markers" d=" M 24.840976051074218 139.67855375599999 L 24.840976051074218 2051.550747987999" stroke-miterlimit="10" stroke-width="1.4659797833333332" stroke-dasharray="13.532121076923076,5.863919133333333"/><path fill="none" stroke="black" paint-order="fill stroke markers" d=" M 102.33611479873048 632.9514312519999 L 102.33611479873048 2051.550747987999" stroke-miterlimit="10" stroke-width="1.4659797833333332" stroke-dasharray="13.532121076923076,5.863919133333333"/><path fill="none" stroke="black" paint-order="fill stroke markers" d=" M 214.06718444373374 1149.093593368 L 214.06718444373374 2051.550747987999" stroke-miterlimit="10" stroke-width="1.4659797833333332" stroke-dasharray="13.532121076923076,5.863919133333333"/><path fill="none" stroke="black" paint-order="fill stroke markers" d=" M 527.7955605903145 139.67855375599999 L 527.7955605903145 2051.550747987999" stroke-miterlimit="10" stroke-width="1.4659797833333332" stroke-dasharray="13.532121076923076,5.863919133333333"/><path fill="none" stroke="black" paint-order="fill stroke markers" d=" M 893.4495912608875 139.67855375599999 L 893.4495912608875 2051.550747987999" stroke-miterlimit="10" stroke-width="1.4659797833333332" stroke-dasharray="13.532121076923076,5.863919133333333"/><path fill="none" stroke="black" paint-order="fill stroke markers" d=" M 1251.3872445082834 139.67855375599999 L 1251.3872445082834 2051.550747987999" stroke-miterlimit="10" stroke-width="1.4659797833333332" stroke-dasharray="13.532121076923076,5.863919133333333"/><path fill="none" stroke="black" paint-order="fill stroke markers" d=" M 1360.47122531326 139.67855375599999 L 1360.47122531326 2051.550747987999" stroke-miterlimit="10" stroke-width="1.4659797833333332" stroke-dasharray="13.532121076923076,5.863919133333333"/><path fill="none" stroke="black" paint-order="fill stroke markers" d=" M 1488.252695237674 139.67855375599999 L 1488.252695237674 2051.550747987999" stroke-miterlimit="10" stroke-width="1.4659797833333332" stroke-dasharray="13.532121076923076,5.863919133333333"/><path fill="none" stroke="black" paint-order="fill stroke markers" d=" M 1630.3932327443108 139.67855375599999 L 1630.3932327443108 2051.550747987999" stroke-miterlimit="10" stroke-width="1.4659797833333332" stroke-dasharray="13.532121076923076,5.863919133333333"/><path fill="none" stroke="black" paint-order="fill stroke markers" d=" M 1884.5885276592196 139.67855375599999 L 1884.5885276592196 2051.550747987999" stroke-miterlimit="10" stroke-width="1.4659797833333332" stroke-dasharray="13.532121076923076,5.863919133333333"/></g><g><g><path fill="white" stroke="black" paint-order="fill stroke markers" d=" M 34.86827776907422 65.265419954 A 10.027301717999999 10.027301717999999 0 1 1 34.868272755423774 65.25539265395321 M 24.840976051074218 75.29272167199998 L 24.840976051074218 96.75466569999998 M 12.17491072307422 83.033094928 L 37.50704137907422 83.033094928 M 24.840976051074218 96.75466569999998 L 12.17491072307422 116.80926913599998 M 24.840976051074218 96.75466569999998 L 37.50704137907422 116.80926913599998" stroke-miterlimit="10" stroke-width="2.990598758" stroke-dasharray=""/></g><g><g/><text fill="black" stroke="none" font-family="sans-serif" font-size="11pt" font-style="normal" font-weight="normal" text-decoration="normal" x="8.7958787" y="134.401026536" text-anchor="start" dominant-baseline="alphabetic">Boss</text></g><g><path fill="white" stroke="black" paint-order="fill stroke markers" d=" M 562.7151990293145 89.19021001799997 A 26.123759739 26.123759739 0 1 1 562.7151859674357 89.16408626261492 M 494.37122153031453 61.57115089999997 L 494.37122153031453 116.80926913599997 M 492.8759221513145 89.19021001799997 L 510.4676795513145 89.19021001799997" stroke-miterlimit="10" stroke-width="2.990598758" stroke-dasharray=""/></g><g><g/><text fill="black" stroke="none" font-family="sans-serif" font-size="11pt" font-style="normal" font-weight="normal" text-decoration="normal" x="504.12340330271684" y="134.401026536" text-anchor="start" dominant-baseline="alphabetic">BossUI</text></g><g><path fill="white" stroke="black" paint-order="fill stroke markers" d=" M 919.5733509998875 89.19021001799997 A 26.123759739 26.123759739 0 1 1 919.5733379380086 89.16408626261492 M 889.9312397808875 63.06645027899997 L 900.4862942208875 54.27057157899998 M 889.9312397808875 63.06645027899997 L 900.4862942208875 71.86232897899997" stroke-miterlimit="10" stroke-width="2.990598758" stroke-dasharray=""/></g><g><g/><text fill="black" stroke="none" font-family="sans-serif" font-size="11pt" font-style="normal" font-weight="normal" text-decoration="normal" x="827.1360612926258" y="134.401026536" text-anchor="start" dominant-baseline="alphabetic">ReservationSystem</text></g><path fill="none" stroke="none"/><g><path fill="white" stroke="black" paint-order="fill stroke markers" d=" M 1213.130532883092 92.18080877599999 L 1289.6439561334748 92.18080877599999 L 1289.6439561334748 139.67855375599999 L 1213.130532883092 139.67855375599999 L 1213.130532883092 92.18080877599999 Z" stroke-miterlimit="10" stroke-width="2.814681184" stroke-dasharray=""/></g><g><g/><text fill="black" stroke="none" font-family="sans-serif" font-size="11pt" font-style="normal" font-weight="normal" text-decoration="normal" x="1232.217589662092" y="122.08679635600001" text-anchor="start" dominant-baseline="alphabetic">Hotel</text></g><g><path fill="white" stroke="black" paint-order="fill stroke markers" d=" M 1386.59498505226 86.79773101159998 A 26.123759739 26.123759739 0 1 1 1386.5949719903813 86.77160725621492 M 1332.85216619526 115.31396975699997 L 1385.09968567326 115.31396975699997" stroke-miterlimit="10" stroke-width="2.990598758" stroke-dasharray=""/></g><g><g/><text fill="black" stroke="none" font-family="sans-serif" font-size="11pt" font-style="normal" font-weight="normal" text-decoration="normal" x="1307.2357135334748" y="134.401026536" text-anchor="start" dominant-baseline="alphabetic">Room (current)</text></g><g><path fill="white" stroke="black" paint-order="fill stroke markers" d=" M 1514.376454976674 86.79773101159998 A 26.123759739 26.123759739 0 1 1 1514.3764419147954 86.77160725621492 M 1460.633636119674 115.31396975699997 L 1512.881155597674 115.31396975699997" stroke-miterlimit="10" stroke-width="2.990598758" stroke-dasharray=""/></g><g><g/><text fill="black" stroke="none" font-family="sans-serif" font-size="11pt" font-style="normal" font-weight="normal" text-decoration="normal" x="1431.2984944930452" y="134.401026536" text-anchor="start" dominant-baseline="alphabetic">Room (selected)</text></g><path fill="none" stroke="none"/><g><path fill="white" stroke="black" paint-order="fill stroke markers" d=" M 1562.798653382303 92.18080877599999 L 1697.9878121063186 92.18080877599999 L 1697.9878121063186 139.67855375599999 L 1562.798653382303 139.67855375599999 L 1562.798653382303 92.18080877599999 Z" stroke-miterlimit="10" stroke-width="2.814681184" stroke-dasharray=""/></g><g><g/><text fill="black" stroke="none" font-family="sans-serif" font-size="11pt" font-style="normal" font-weight="normal" text-decoration="normal" x="1581.885710161303" y="122.08679635600001" text-anchor="start" dominant-baseline="alphabetic">RoomMapper</text></g><g><path fill="white" stroke="black" paint-order="fill stroke markers" d=" M 1858.9045618552195 105.19870925199999 L 1858.9045618552195 68.25601871199999 L 1910.2724934632197 68.25601871199999 L 1910.2724934632197 105.19870925199999" stroke-miterlimit="10" stroke-width="2.990598758" stroke-dasharray=""/><path fill="white" stroke="black" paint-order="fill stroke markers" d=" M 1910.2724934632197 66.97182042179999 L 1910.271209275631 67.08792408555635 L 1910.267356841283 67.20401613904309 L 1910.2609365454157 67.3200849731516 L 1910.2519490300533 67.43611898109519 L 1910.24039519394 67.55210655956978 L 1910.2262761924496 67.66803610991414 L 1910.2095934374709 67.78389603926989 L 1910.190348597265 67.8996747617406 L 1910.1685435963 68.01536069955054 L 1910.144180615058 68.1309422842023 L 1910.1172620898167 68.24640795763378 L 1910.087790712406 68.3617461733738 L 1910.0557694299398 68.47694539769695 L 1910.0212014445187 68.59199411077678 L 1909.984090212913 68.70688080783783 L 1909.944439446215 68.82159400030618 L 1909.9022531094681 68.93612221695814 L 1909.8575354212708 69.0504540050675 L 1909.8102908533547 69.16457793155072 L 1909.7605241301374 69.27848258411025 L 1909.7082402282495 69.39215657237577 L 1909.6534443760377 69.50558852904317 L 1909.5961420530416 69.61876711101131 L 1909.5363389894458 69.73168100051632 L 1909.4740411655066 69.84431890626333 L 1909.4092548109547 69.95666956455563 L 1909.3419864043715 70.06872174042103 L 1909.2722426725418 70.18046422873529 L 1909.2000305897802 70.29188585534273 L 1909.125357377235 70.40297547817353 L 1909.0482305021656 70.51372198835797 L 1908.9686576771946 70.62411431133734 L 1908.8866468595388 70.73414140797132 L 1908.8022062502112 70.84379227564195 L 1908.7153442932024 70.95305594935381 L 1908.6260696746358 71.06192150283061 L 1908.534391321899 71.1703780496077 L 1908.4403184027508 71.27841474412082 L 1908.3438603244047 71.38602078279051 L 1908.245026732588 71.4931854051026 L 1908.1438275105777 71.59989789468413 L 1908.0402727782116 71.7061475803751 L 1907.9343728908766 71.81192383729548 L 1907.8261384384732 71.9172160879077 L 1907.7155802443567 72.02201380307447 L 1907.602709364254 72.12630650311159 L 1907.4875370851591 72.23008375883597 L 1907.3700749242043 72.33333519260853 L 1907.2503346275075 72.43605047937191 L 1907.1283281689987 72.53821934768304 L 1907.0040677492218 72.63983158074024 L 1906.8775657941158 72.74087701740487 L 1906.74883495377 72.84134555321748 L 1906.617888101162 72.94122714140819 L 1906.4847383308675 73.04051179390143 L 1906.3493989577523 73.13918958231469 L 1906.2118835156416 73.23725063895135 L 1906.0722057559644 73.33468515778748 L 1905.9303796463807 73.43148339545236 L 1905.786419369383 73.52763567220293 L 1905.6403393208793 73.6231323728916 L 1905.4921541087524 73.71796394792793 L 1905.3418785514002 73.8121209142334 L 1905.1895276762532 73.90559385618985 L 1905.0351167182719 73.998373426581 L 1904.8786611184237 74.09045034752711 L 1904.7201765221375 74.18181541141281 L 1904.5596787777417 74.27245948180787 L 1904.3971839348765 74.36237349438078 L 1904.232708242891 74.45154845780519 L 1904.0662681492172 74.53997545465909 L 1903.8978802977256 74.62764564231648 L 1903.7275615270614 74.71455025383165 L 1903.5553288689596 74.80068059881587 L 1903.3811995465423 74.88602806430642 L 1903.2051909725967 74.97058411562787 L 1903.0273207478338 75.05434029724555 L 1902.8476066591277 75.13728823361109 L 1902.6660666777373 75.21941962999999 L 1902.4827189575096 75.30072627334106 L 1902.2975818330638 75.38120003303769 L 1902.1106738179583 75.46083286178099 L 1901.9220136028384 75.53961679635444 L 1901.731620053569 75.61754395843025 L 1901.5395122093457 75.69460655535714 L 1901.3457092807935 75.77079688093964 L 1901.1502306480431 75.84610731620869 L 1900.9530958587955 75.9205303301835 L 1900.7543246263647 75.99405848062472 L 1900.5539368277089 76.06668441477855 L 1900.3519525014406 76.13840087011211 L 1900.148391845824 76.20920067503964 L 1899.9432752167556 76.27907674963963 L 1899.736623125727 76.34802210636286 L 1899.5284562377751 76.4160298507311 L 1899.318795369415 76.48309318202661 L 1899.1076614865594 76.54920539397213 L 1898.8950757024202 76.61435987540155 L 1898.6810592753986 76.67855011092104 L 1898.4656336069593 76.74176968156053 L 1898.2488202394893 76.80401226541565 L 1898.0306408541448 76.86527163827986 L 1897.8111172686827 76.92554167426694 L 1897.5902714352783 76.98481634642351 L 1897.3681254383312 77.04308972733178 L 1897.1447014922558 77.10035598970217 L 1896.9200219392603 77.15660940695618 L 1896.6941092471131 77.21184435379898 L 1896.4669860068952 77.26605530678191 L 1896.2386749307411 77.31923684485484 L 1896.0091988495683 77.37138364990828 L 1895.7785807107937 77.42249050730518 L 1895.546843576039 77.4725523064024 L 1895.3140106188243 77.52156404106174 L 1895.0801051222518 77.56952081015058 L 1894.8451504766758 77.61641781803196 L 1894.6091701773653 77.6622503750442 L 1894.3721878221534 77.70701389796976 L 1894.1342271090782 77.75070391049368 L 1893.8953118340128 77.7933160436511 L 1893.6554658882853 77.83484603626422 L 1893.414713256291 77.87528973536838 L 1893.173078013092 77.91464309662739 L 1892.9305843220113 77.9529021847379 L 1892.6872564322161 77.99006317382297 L 1892.4431186762927 78.02612234781469 L 1892.1981954678126 78.0610761008257 L 1891.9525112988933 78.09492093750981 L 1891.7060907377468 78.12765347341158 L 1891.4589584262235 78.15927043530469 L 1891.211139077349 78.18976866151928 L 1890.9626574728513 78.21914510225817 L 1890.7135384606843 78.24739681990175 L 1890.463806952541 78.27452098930179 L 1890.2134879213645 78.30051489806398 L 1889.9626063988494 78.32537594681908 L 1889.7111874729385 78.34910164948295 L 1889.4592562853154 78.37168963350508 L 1889.2068380288883 78.39313764010592 L 1888.953957945273 78.41344352450264 L 1888.7006413222668 78.43260525612375 L 1888.446913491321 78.45062091881205 L 1888.1927998250076 78.46748871101629 L 1887.938325734481 78.48320694597129 L 1887.6835166669384 78.49777405186667 L 1887.428398103074 78.51118857200397 L 1887.172995554532 78.52344916494236 L 1886.917334561354 78.53455460463276 L 1886.6614406894266 78.54450378054045 L 1886.4053395279236 78.55329569775614 L 1886.1490566867476 78.56092947709544 L 1885.8926177939693 78.56740435518677 L 1885.6360484932643 78.57271968454769 L 1885.379374441349 78.57687493364975 L 1885.1226213054142 78.57986968697145 L 1884.8658147605602 78.58170364504 L 1884.608980487227 78.58237662446106 L 1884.3521441686278 78.58188855793732 L 1884.095331488181 78.58023949427498 L 1883.8385681269401 78.57742959837903 L 1883.5818797610275 78.57345915123673 L 1883.325292059066 78.56832854988951 L 1883.0688306796117 78.56203830739318 L 1882.812521268589 78.5545890527668 L 1882.5563894567254 78.54598153092958 L 1882.3004608569886 78.53621660262655 L 1882.0447610620251 78.5252952443424 L 1881.7893156416017 78.51321854820387 L 1881.5341501400474 78.4999877218705 L 1881.2792900736997 78.48560408841388 L 1881.0247609283529 78.4700690861854 L 1880.7705881567092 78.45338426867232 L 1880.5167971758342 78.4355513043425 L 1880.2634133646145 78.41657197647748 L 1880.01046206122 78.39644818299428 L 1879.7579685605704 78.37518193625543 L 1879.505958111805 78.35277536286792 L 1879.254455915759 78.32923070347039 L 1879.0034871224425 78.30455031250918 L 1878.753076828525 78.2787366580028 L 1878.5032500748282 78.2517923212952 L 1878.2540318438184 78.2237199967976 L 1878.0054470571117 78.19452249171906 L 1877.7575205729793 78.16420272578573 L 1877.5102771838629 78.13276373094897 L 1877.2637416138955 78.10020865108203 L 1877.0179385164288 78.0665407416658 L 1876.7728924715675 78.03176336946316 L 1876.5286279837119 77.99588001218234 L 1876.2851694791075 77.95889425812916 L 1876.0425413034013 77.92080980584822 L 1875.8007677192093 77.881630463753 L 1875.5598729036883 77.84136014974506 L 1875.3198809461187 77.80000289082224 L 1875.0808158454968 77.75756282267598 L 1874.8427015081331 77.71404418927773 L 1874.605561745263 77.66945134245454 L 1874.3694202706654 77.62378874145395 L 1874.1343006982906 77.57706095249802 L 1873.9002265399 77.52927264832667 L 1873.6672212027145 77.48042860773052 L 1873.4353079870737 77.43053371507293 L 1873.2045100841056 77.37959295980157 L 1872.9748505734085 77.32761143594954 L 1872.746352420742 77.27459434162587 L 1872.5190384757307 77.22054697849586 L 1872.29293146958 77.16547475125074 L 1872.068054012802 77.10938316706736 L 1871.8444285929547 77.0522778350574 L 1871.6220775723943 76.99416446570646 L 1871.401023186037 76.93504887030305 L 1871.1812875391377 76.87493696035746 L 1870.9628926050775 76.81383474701059 L 1870.7458602231684 76.75174834043284 L 1870.530212096467 76.68868394921314 L 1870.315969789607 76.62464787973806 L 1870.10315472664 76.5596465355612 L 1869.8917881888951 76.49368641676277 L 1869.6818913128502 76.42677411929971 L 1869.4734850880175 76.358916334346 L 1869.2665903548464 76.2901198476236 L 1869.0612278026372 76.22039153872383 L 1868.8574179674745 76.14973838041949 L 1868.6551812301718 76.07816743796754 L 1868.454537814234 76.00568586840255 L 1868.255507783836 75.9323009198211 L 1868.0581110418145 75.8580199306569 L 1867.8623673276797 75.78285032894695 L 1867.6682962156394 75.70679963158878 L 1867.4759171126436 75.62987544358876 L 1867.2852492564418 75.55208545730159 L 1867.096311713661 75.47343745166106 L 1866.909123377898 75.3939392914022 L 1866.7237029678301 75.31359892627479 L 1866.540069025344 75.2324243902484 L 1866.3582399136812 75.15042380070896 L 1866.178233815601 75.06760535764712 L 1866.0000687315635 74.98397734283817 L 1865.8237624779283 74.89954811901389 L 1865.649332685174 74.8143261290263 L 1865.4767967961343 74.72831989500338 L 1865.3061720642547 74.64153801749687 L 1865.137475551866 74.5539891746222 L 1864.9707241284789 74.46568212119071 L 1864.8059344690967 74.37662568783415 L 1864.6431230525482 74.28682878012162 L 1864.482306159839 74.19630037766909 L 1864.3234998725247 74.10504953324134 L 1864.1667200711017 74.0130853718468 L 1864.0119824334195 73.92041708982494 L 1863.8593024331126 73.82705395392676 L 1863.708695338054 73.73300530038806 L 1863.560176208828 73.63828053399578 L 1863.4137598972231 73.54288912714766 L 1863.269461044749 73.44684061890487 L 1863.1272940811705 73.3501446140382 L 1862.9872732230656 73.25281078206757 L 1862.8494124724032 73.15484885629505 L 1862.7137256151436 73.05626863283157 L 1862.5802262198595 72.95707996961737 L 1862.4489276363793 72.85729278543607 L 1862.3198429944516 72.75691705892295 L 1862.1929852024332 72.65596282756702 L 1862.0683669459977 72.5544401867073 L 1861.9460006868667 72.45235928852324 L 1861.8258986615642 72.34973034101961 L 1861.7080728801927 72.24656360700563 L 1861.5925351252322 72.14286940306874 L 1861.4792969503617 72.03865809854291 L 1861.3683696793046 71.93394011447177 L 1861.2597644046953 71.82872592256643 L 1861.153491986971 71.72302604415843 L 1861.0495630532846 71.61685104914753 L 1860.9479879964433 71.51021155494473 L 1860.8487769738676 71.4031182254106 L 1860.7519399065777 71.29558176978884 L 1860.6574864781992 71.1876129416354 L 1860.5654261339962 71.07922253774314 L 1860.4757680799266 70.9704213970621 L 1860.388521281721 70.86122039961568 L 1860.3036944639866 70.75163046541265 L 1860.2212961093346 70.64166255335508 L 1860.1413344575315 70.53132766014255 L 1860.0638175046759 70.42063681917243 L 1859.9887530023984 70.30960109943658 L 1859.9161484570873 70.19823160441445 L 1859.8460111291358 70.0865394709627 L 1859.7783480322187 69.97453586820164 L 1859.7131659325892 69.86223199639821 L 1859.650471348403 69.74963908584596 L 1859.5902705490662 69.63676839574217 L 1859.5325695546087 69.52363121306175 L 1859.4773741350818 69.41023885142872 L 1859.4246898099814 69.29660264998472 L 1859.3745218476959 69.18273397225522 L 1859.3268752649801 69.0686442050131 L 1859.2817548264525 68.95434475714 L 1859.239165044119 68.83984705848547 L 1859.1991101769229 68.72516255872397 L 1859.1615942303172 68.61030272620987 L 1859.1266209558653 68.49527904683073 L 1859.0941938508656 68.38010302285863 L 1859.0643161580015 68.2647861718 L 1859.0369908650175 68.14934002524383 L 1859.0122207044199 68.03377612770858 L 1858.9900081532044 67.9181060354877 L 1858.9703554326072 67.80234131549402 L 1858.9532645078846 67.68649354410306 L 1858.9387370881143 67.57057430599544 L 1858.9267746260264 67.45459519299835 L 1858.917378317857 67.33856780292646 L 1858.9105491032292 67.22250373842208 L 1858.906287665059 67.10641460579494 L 1858.9045944294862 66.99031201386155 L 1858.905469565833 66.87420757278437 L 1858.908912986587 66.75811289291076 L 1858.9149243474085 66.64203958361193 L 1858.9235030471666 66.52599925212212 L 1858.9346482279984 66.41000350237775 L 1858.9483587753953 66.29406393385715 L 1858.9646333183136 66.17819214042055 L 1858.983470229313 66.06239970915072 L 1859.0048676247181 65.94669821919432 L 1859.0288233648068 65.8310992406039 L 1859.0553350540251 65.71561433318102 L 1859.0844000412267 65.60025504532017 L 1859.1160154199365 65.48503291285398 L 1859.150178028643 65.36995945789971 L 1859.1868844511143 65.25504618770695 L 1859.2261310167385 65.14030459350695 L 1859.2679138008914 65.02574614936354 L 1859.31222862533 64.91138231102563 L 1859.3590710586084 64.79722451478179 L 1859.4084364165221 64.68328417631649 L 1859.460319762577 64.56957268956862 L 1859.5147159084813 64.45610142559212 L 1859.5716194146662 64.3428817314188 L 1859.631024590828 64.22992492892377 L 1859.6929254964987 64.1172423136931 L 1859.7573159416395 64.00484515389444 L 1859.8241894872594 63.89274468915009 L 1859.8935394460598 63.78095212941312 L 1859.9653588831022 63.66947865384635 L 1860.0396406165032 63.558335409704426 L 1860.116377218151 63.447533511219156 L 1860.1955610144494 63.337084038488044 L 1860.277184087085 63.226998036366325 L 1860.3612382738183 63.11728651336247 L 1860.447715169301 63.00796044053737 L 1860.5366061259153 62.899030750407185 L 1860.6279022546398 62.790508335850156 L 1860.7215944259376 62.682404049017315 L 1860.8176732706697 62.57472870024724 L 1860.9161291810317 62.4674930569851 L 1861.0169523115146 62.36070784270584 L 1861.1201325798893 62.25438373584191 L 1861.225659668215 62.148531368715396 L 1861.3335230238708 62.04316132647479 L 1861.443711860611 61.938284146036516 L 1861.556215159644 61.83391031503122 L 1861.6710216707331 61.73005027075502 L 1861.7881199133233 61.6267143991258 L 1861.9074981776878 61.52391303364461 L 1862.0291445260998 61.42165645436233 L 1862.1530467940256 61.31995488685167 L 1862.2791925913416 61.21881850118463 L 1862.4075693035736 61.1182574109155 L 1862.5381640931569 61.018281672069506 L 1862.6709639007217 60.91890128213721 L 1862.8059554463978 60.82012617907481 L 1862.9431252311429 60.72196624031029 L 1863.0824595380932 60.62443128175571 L 1863.2239444339339 60.52753105682567 L 1863.3675657702934 60.431275255461905 L 1863.5133091851576 60.33567350316434 L 1863.6611601043066 60.24073536002853 L 1863.8111037427718 60.14647031978968 L 1863.963125106314 60.05288780887326 L 1864.117208992924 59.959997185452366 L 1864.273339994341 59.86780773851195 L 1864.4315024975954 59.77632868691987 L 1864.5916806865685 59.68556917850505 L 1864.7538585435746 59.59553828914271 L 1864.9180198509637 59.50624502184675 L 1865.0841481927414 59.41769830586949 L 1865.2522269562123 59.32990699580875 L 1865.42223933364 59.24287987072236 L 1865.5941683239282 59.15662563325033 L 1865.7679967343215 59.0711529087445 L 1865.9437071821235 58.986470244406114 L 1866.121282096436 58.90258610843103 L 1866.3007037199154 58.81950888916295 L 1866.481954110549 58.737246894254554 L 1866.6650151434487 58.65580834983679 L 1866.8498685126638 58.57520139969624 L 1867.0364957330112 58.49543410446074 L 1867.2248781419246 58.41651444079334 L 1867.4149969013201 58.33845030059465 L 1867.6068329994803 58.26124949021362 L 1867.800367252955 58.18491972966697 L 1867.9955803084804 58.10946865186714 L 1868.1924526449131 58.03490380185903 L 1868.3909645751842 57.96123263606552 L 1868.5910962482658 57.88846252154177 L 1868.7928276511573 57.816600735238616 L 1868.9961386108864 57.74565446327479 L 1869.2010087965268 57.67563080021837 L 1869.4074177212306 57.60653674837731 L 1869.6153447442773 57.53837921709922 L 1869.824769073138 57.47116502208042 L 1870.035669765554 57.40490088468441 L 1870.2480257316322 57.3395934312697 L 1870.4618157359528 57.27524919252721 L 1870.6770183996932 57.21187460282721 L 1870.893612202767 57.14947599957584 L 1871.1115754859738 57.088059622581426 L 1871.3308864531675 57.02763161343051 L 1871.5515231734337 56.96819801487362 L 1871.7734635832842 56.9097647702211 L 1871.996685488863 56.85233772274873 L 1872.221166568166 56.79592261511338 L 1872.4468843732718 56.74052508877882 L 1872.6738163325883 56.6861506834515 L 1872.9019397531085 56.63280483652666 L 1873.1312318226805 56.58049288254453 L 1873.3616696122886 56.52922005265691 L 1873.5932300783454 56.47899147410408 L 1873.8258900649978 56.42981216970201 L 1874.0596263064408 56.38168705734017 L 1874.294415429245 56.334620949489704 L 1874.5302339546936 56.28861855272216 L 1874.767058301131 56.24368446723889 L 1875.0048647863196 56.199823186410995 L 1875.2436296298092 56.157039096329996 L 1875.4833289553142 56.11533647536926 L 1875.723938793102 56.07471949375613 L 1875.9654350823894 56.035192213154914 L 1876.2077936737485 55.99675858626073 L 1876.4509903315222 55.959422456404255 L 1876.6950007362475 55.923187557167346 L 1876.939800487087 55.88805751200974 L 1877.18536510427 55.85403583390668 L 1877.4316700315392 55.82112592499761 L 1877.6786906386071 55.78933107624601 L 1877.9264022236189 55.758654467110254 L 1878.1747800156224 55.72909916522569 L 1878.4237991770456 55.70066812609789 L 1878.6734348061798 55.67336419280706 L 1878.92366193967 55.64719009572377 L 1879.1744555550113 55.62214845223594 L 1879.4257905730515 55.598241766487035 L 1879.677641860498 55.57547242912571 L 1879.929984232432 55.55384271706673 L 1880.1827924548265 55.533354793263264 L 1880.43604124707 55.51401070649064 L 1880.6897052844945 55.4958123911414 L 1880.9437592009074 55.47876166703191 L 1881.1981775911288 55.46286023922039 L 1881.4529350135317 55.44810969783636 L 1881.708005992586 55.434511517921656 L 1881.9633650214068 55.42206705928295 L 1882.2189865643038 55.41077756635575 L 1882.4748450593354 55.40064416807991 L 1882.7309149208659 55.39166787778682 L 1882.987170542122 55.38384959309805 L 1883.2435862977554 55.37719009583553 L 1883.5001365464043 55.37169005194345 L 1883.7567956332573 55.36735001142162 L 1884.01353789262 55.36417040827046 L 1884.27033765048 55.36215156044765 L 1884.5271692270758 55.36129366983628 L 1884.7840069394638 55.3615968222247 L 1885.0408251040865 55.363060987297914 L 1885.2975980393417 55.36568601864066 L 1885.5543000681498 55.369471653751965 L 1885.8109055205216 55.37441751407148 L 1886.067388736126 55.3805231050173 L 1886.3237240668554 55.38778781603543 L 1886.5798858793898 55.39621092066079 L 1886.8358485577617 55.40579157658996 L 1887.0915865059164 55.41652882576533 L 1887.3470741502724 55.428421594470926 L 1887.602285942278 55.44146869343979 L 1887.8571963609668 55.45566881797289 L 1888.1117799155093 55.47102054806961 L 1888.3660111477623 55.48752234856974 L 1888.6198646348141 55.50517256930697 L 1888.8733149915279 55.52396944527395 L 1889.1263368730793 55.54391109679874 L 1889.3789049774905 55.56499552973279 L 1889.630994048162 55.587220635650404 L 1889.8825788763966 55.61058419205949 L 1890.1336343039213 55.63508386262389 L 1890.3841352254024 55.660717197396956 L 1890.6340565909563 55.687481633066575 L 1890.8833734086552 55.715374493211485 L 1891.1320607470248 55.744392988568904 L 1891.3800937375386 55.7745342173135 L 1891.627447577104 55.8057951653475 L 1891.8740975305434 55.83817270660215 L 1892.120018933067 55.871663603350314 L 1892.3651871927395 55.90626450653023 L 1892.6095777929393 55.941971956080394 L 1892.8531662948096 55.97878238128563 L 1893.0959283397037 56.01669210113408 L 1893.337839651619 56.055697324685354 L 1893.5788760396265 56.095794151449596 L 1893.8190134002878 56.136978571777554 L 1894.058227720067 56.17924646726151 L 1894.2964950777314 56.22259361114713 L 1894.533791646744 56.267015668756166 L 1894.7700936976455 56.31250819791986 L 1895.0053776004277 56.35906664942321 L 1895.2396198268966 56.40668636745987 L 1895.4727969530245 56.455362590097714 L 1895.7048856612932 56.505090449755045 L 1895.9358627430254 56.55586497368733 L 1896.1657051007053 56.60768108448449 L 1896.3943897502886 56.66053360057863 L 1896.6218938235008 56.71441723676219 L 1896.8481945701246 56.76932660471643 L 1897.0732693602736 56.82525621355034 L 1897.2970956866563 56.88220047034963 L 1897.5196511668269 56.940153680736074 L 1897.7409135454225 56.999110049436936 L 1897.9608606963898 57.05906368086447 L 1898.1794706251972 57.120008579705484 L 1898.3967214710333 57.1819386515209 L 1898.6125915089954 57.244847703355134 L 1898.827059152259 57.308729444355436 L 1899.0401029542386 57.373577486400926 L 1899.2517016107317 57.439385344741446 L 1899.461833962049 57.506146438646006 L 1899.6704789951305 57.57385409206084 L 1899.8776158456465 57.642501534277045 L 1900.0832238000849 57.712081900607586 L 1900.287282297821 57.78258823307383 L 1900.4897709331758 57.854013481101276 L 1900.6906694574543 57.92635050222464 L 1900.8899577809711 57.99959206280211 L 1901.0876159750605 58.07373083873863 L 1901.2836242740673 58.14875941621842 L 1901.4779630773253 58.224670292446234 L 1901.6706129511158 58.30145587639771 L 1901.8615546306123 58.379108489578456 L 1902.0507690218058 58.45762036679186 L 1902.2382372034147 58.53698365691561 L 1902.4239404287773 58.61719042368684 L 1902.6078601277256 58.698232646495725 L 1902.7899779084435 58.7801022211875 L 1902.970275559304 58.86279096087293 L 1903.1487350506925 58.94629059674695 L 1903.3253385368089 59.03059277891555 L 1903.5000683574513 59.115689077230776 L 1903.6729070397835 59.2015709821337 L 1903.8438373000813 59.2882299055054 L 1904.012842045461 59.375657181525774 L 1904.1799043755889 59.46384406754005 L 1904.3450075843714 59.55278174493313 L 1904.508135161625 59.642461320011385 L 1904.6692707947277 59.73287382489204 L 1904.828398370251 59.82401021839995 L 1904.9855019755698 59.91586138697171 L 1905.1405659004542 60.008418145567006 L 1905.2935746386413 60.10167123858711 L 1905.4445128893844 60.195611340800426 L 1905.5933655589845 60.29022905827503 L 1905.7401177622987 60.385514929318006 L 1905.8847548242288 60.48145942542166 L 1906.027262281189 60.57805295221634 L 1906.1676258825528 60.67528585042985 L 1906.3058315920766 60.77314839685341 L 1906.441865589305 60.87163080531391 L 1906.5757142709515 60.97072322765259 L 1906.7073642522591 61.07041575470979 L 1906.83680236834 61.170698417315876 L 1906.96401567549 61.271561187288164 L 1907.0889914524846 61.3729939784337 L 1907.2117172018502 61.47498664755789 L 1907.3321806511142 61.577528995478836 L 1907.4503697540317 61.68061076804718 L 1907.5662726917915 61.78422165717158 L 1907.679877874196 61.88835130184945 L 1907.7911739408216 61.99298928920311 L 1907.9001497621548 62.09812515552101 L 1908.0067944407037 62.203748387304145 L 1908.11109731209 62.30984842231735 L 1908.2130479461127 62.416414650645535 L 1908.312636147794 62.52343641575468 L 1908.4098519583963 62.63090301555746 L 1908.5046856564197 62.73880370348344 L 1908.5971277585736 62.847127689553744 L 1908.6871690207245 62.95586414146005 L 1908.7748004388213 63.065002185647764 L 1908.8600132497957 63.174530908403426 L 1908.942798932437 63.28443935694603 L 1909.023149208246 63.39471654052231 L 1909.1010560422624 63.50535143150581 L 1909.1765116438673 63.61633296649962 L 1909.2495084675638 63.72765004744274 L 1909.3200392137303 63.83929154271982 L 1909.3880968293508 63.951246288274376 L 1909.4536745087205 64.06350308872516 L 1909.5167656941262 64.17605071848564 L 1909.577364076502 64.28887792288667 L 1909.6354635960597 64.40197341930181 L 1909.6910584428963 64.51532589827566 L 1909.7441430575732 64.6289240246548 L 1909.7947121316731 64.74275643872124 L 1909.842760608331 64.85681175732844 L 1909.888283682739 64.97107857503958 L 1909.931276802628 65.08554546526814 L 1909.971735668721 65.20020098142045 L 1910.0096562351662 65.31503365804045 L 1910.0450347099377 65.43003201195617 L 1910.0778675552178 65.54518454342806 L 1910.1081514877496 65.66047973729893 L 1910.1358834791647 65.77590606414547 L 1910.161060756287 65.89145198143119 L 1910.1836808014102 66.00710593466063 L 1910.2037413525484 66.12285635853486 L 1910.2212404036632 66.23869167810795 L 1910.2361762048638 66.35460030994449 L 1910.248547262583 66.47057066327784 L 1910.2583523397252 66.58659114116935 L 1910.2655904557907 66.70265014166789 L 1910.2702608869743 66.81873605897015 L 1910.2723631662361 66.9348372845811 M 1910.2724934632197 103.91451096179999 L 1910.271209275631 104.03061462555635 L 1910.267356841283 104.14670667904309 L 1910.2609365454157 104.2627755131516 L 1910.2519490300533 104.37880952109519 L 1910.24039519394 104.49479709956978 L 1910.2262761924496 104.61072664991414 L 1910.2095934374709 104.72658657926989 L 1910.190348597265 104.8423653017406 L 1910.1685435963 104.95805123955054 L 1910.144180615058 105.0736328242023 L 1910.1172620898167 105.18909849763378 L 1910.087790712406 105.3044367133738 L 1910.0557694299398 105.41963593769695 L 1910.0212014445187 105.53468465077678 L 1909.984090212913 105.64957134783783 L 1909.944439446215 105.76428454030618 L 1909.9022531094681 105.87881275695814 L 1909.8575354212708 105.9931445450675 L 1909.8102908533547 106.10726847155073 L 1909.7605241301374 106.22117312411025 L 1909.7082402282495 106.33484711237577 L 1909.6534443760377 106.44827906904317 L 1909.5961420530416 106.56145765101131 L 1909.5363389894458 106.67437154051632 L 1909.4740411655066 106.78700944626333 L 1909.4092548109547 106.89936010455563 L 1909.3419864043715 107.01141228042103 L 1909.2722426725418 107.12315476873529 L 1909.2000305897802 107.23457639534273 L 1909.125357377235 107.34566601817353 L 1909.0482305021656 107.45641252835797 L 1908.9686576771946 107.56680485133734 L 1908.8866468595388 107.67683194797132 L 1908.8022062502112 107.78648281564195 L 1908.7153442932024 107.89574648935381 L 1908.6260696746358 108.00461204283062 L 1908.534391321899 108.1130685896077 L 1908.4403184027508 108.22110528412082 L 1908.3438603244047 108.32871132279051 L 1908.245026732588 108.4358759451026 L 1908.1438275105777 108.54258843468413 L 1908.0402727782116 108.6488381203751 L 1907.9343728908766 108.75461437729548 L 1907.8261384384732 108.8599066279077 L 1907.7155802443567 108.96470434307447 L 1907.602709364254 109.0689970431116 L 1907.4875370851591 109.17277429883598 L 1907.3700749242043 109.27602573260853 L 1907.2503346275075 109.37874101937192 L 1907.1283281689987 109.48090988768304 L 1907.0040677492218 109.58252212074024 L 1906.8775657941158 109.68356755740487 L 1906.74883495377 109.78403609321748 L 1906.617888101162 109.88391768140819 L 1906.4847383308675 109.98320233390143 L 1906.3493989577523 110.08188012231469 L 1906.2118835156416 110.17994117895135 L 1906.0722057559644 110.27737569778748 L 1905.9303796463807 110.37417393545236 L 1905.786419369383 110.47032621220293 L 1905.6403393208793 110.5658229128916 L 1905.4921541087524 110.66065448792793 L 1905.3418785514002 110.7548114542334 L 1905.1895276762532 110.84828439618985 L 1905.0351167182719 110.941063966581 L 1904.8786611184237 111.03314088752711 L 1904.7201765221375 111.12450595141281 L 1904.5596787777417 111.21515002180787 L 1904.3971839348765 111.30506403438078 L 1904.232708242891 111.39423899780519 L 1904.0662681492172 111.48266599465909 L 1903.8978802977256 111.57033618231648 L 1903.7275615270614 111.65724079383165 L 1903.5553288689596 111.74337113881587 L 1903.3811995465423 111.82871860430642 L 1903.2051909725967 111.91327465562787 L 1903.0273207478338 111.99703083724555 L 1902.8476066591277 112.07997877361109 L 1902.6660666777373 112.16211016999999 L 1902.4827189575096 112.24341681334106 L 1902.2975818330638 112.32389057303769 L 1902.1106738179583 112.40352340178099 L 1901.9220136028384 112.48230733635444 L 1901.731620053569 112.56023449843025 L 1901.5395122093457 112.63729709535714 L 1901.3457092807935 112.71348742093964 L 1901.1502306480431 112.78879785620869 L 1900.9530958587955 112.8632208701835 L 1900.7543246263647 112.93674902062472 L 1900.5539368277089 113.00937495477855 L 1900.3519525014406 113.08109141011211 L 1900.148391845824 113.15189121503964 L 1899.9432752167556 113.22176728963963 L 1899.736623125727 113.29071264636286 L 1899.5284562377751 113.35872039073111 L 1899.318795369415 113.42578372202661 L 1899.1076614865594 113.49189593397213 L 1898.8950757024202 113.55705041540155 L 1898.6810592753986 113.62124065092104 L 1898.4656336069593 113.68446022156053 L 1898.2488202394893 113.74670280541565 L 1898.0306408541448 113.80796217827987 L 1897.8111172686827 113.86823221426694 L 1897.5902714352783 113.92750688642352 L 1897.3681254383312 113.98578026733178 L 1897.1447014922558 114.04304652970217 L 1896.9200219392603 114.09929994695618 L 1896.6941092471131 114.15453489379898 L 1896.4669860068952 114.20874584678191 L 1896.2386749307411 114.26192738485484 L 1896.0091988495683 114.31407418990828 L 1895.7785807107937 114.36518104730519 L 1895.546843576039 114.4152428464024 L 1895.3140106188243 114.46425458106174 L 1895.0801051222518 114.51221135015058 L 1894.8451504766758 114.55910835803196 L 1894.6091701773653 114.6049409150442 L 1894.3721878221534 114.64970443796976 L 1894.1342271090782 114.69339445049368 L 1893.8953118340128 114.7360065836511 L 1893.6554658882853 114.77753657626423 L 1893.414713256291 114.81798027536838 L 1893.173078013092 114.85733363662739 L 1892.9305843220113 114.8955927247379 L 1892.6872564322161 114.93275371382298 L 1892.4431186762927 114.96881288781469 L 1892.1981954678126 115.0037666408257 L 1891.9525112988933 115.03761147750981 L 1891.7060907377468 115.07034401341159 L 1891.4589584262235 115.10196097530469 L 1891.211139077349 115.13245920151928 L 1890.9626574728513 115.16183564225817 L 1890.7135384606843 115.19008735990175 L 1890.463806952541 115.21721152930179 L 1890.2134879213645 115.24320543806398 L 1889.9626063988494 115.26806648681908 L 1889.7111874729385 115.29179218948295 L 1889.4592562853154 115.31438017350509 L 1889.2068380288883 115.33582818010592 L 1888.953957945273 115.35613406450264 L 1888.7006413222668 115.37529579612375 L 1888.446913491321 115.39331145881205 L 1888.1927998250076 115.41017925101629 L 1887.938325734481 115.42589748597129 L 1887.6835166669384 115.44046459186667 L 1887.428398103074 115.45387911200397 L 1887.172995554532 115.46613970494236 L 1886.917334561354 115.47724514463276 L 1886.6614406894266 115.48719432054045 L 1886.4053395279236 115.49598623775614 L 1886.1490566867476 115.50362001709544 L 1885.8926177939693 115.51009489518677 L 1885.6360484932643 115.5154102245477 L 1885.379374441349 115.51956547364975 L 1885.1226213054142 115.52256022697145 L 1884.8658147605602 115.52439418504 L 1884.608980487227 115.52506716446106 L 1884.3521441686278 115.52457909793732 L 1884.095331488181 115.52293003427498 L 1883.8385681269401 115.52012013837903 L 1883.5818797610275 115.51614969123673 L 1883.325292059066 115.51101908988952 L 1883.0688306796117 115.50472884739318 L 1882.812521268589 115.4972795927668 L 1882.5563894567254 115.48867207092958 L 1882.3004608569886 115.47890714262655 L 1882.0447610620251 115.4679857843424 L 1881.7893156416017 115.45590908820387 L 1881.5341501400474 115.4426782618705 L 1881.2792900736997 115.42829462841388 L 1881.0247609283529 115.4127596261854 L 1880.7705881567092 115.39607480867232 L 1880.5167971758342 115.3782418443425 L 1880.2634133646145 115.35926251647749 L 1880.01046206122 115.33913872299428 L 1879.7579685605704 115.31787247625543 L 1879.505958111805 115.29546590286792 L 1879.254455915759 115.27192124347039 L 1879.0034871224425 115.24724085250918 L 1878.753076828525 115.2214271980028 L 1878.5032500748282 115.1944828612952 L 1878.2540318438184 115.1664105367976 L 1878.0054470571117 115.13721303171906 L 1877.7575205729793 115.10689326578573 L 1877.5102771838629 115.07545427094897 L 1877.2637416138955 115.04289919108203 L 1877.0179385164288 115.0092312816658 L 1876.7728924715675 114.97445390946316 L 1876.5286279837119 114.93857055218234 L 1876.2851694791075 114.90158479812916 L 1876.0425413034013 114.86350034584822 L 1875.8007677192093 114.824321003753 L 1875.5598729036883 114.78405068974506 L 1875.3198809461187 114.74269343082224 L 1875.0808158454968 114.70025336267598 L 1874.8427015081331 114.65673472927773 L 1874.605561745263 114.61214188245454 L 1874.3694202706654 114.56647928145395 L 1874.1343006982906 114.51975149249802 L 1873.9002265399 114.47196318832667 L 1873.6672212027145 114.42311914773052 L 1873.4353079870737 114.37322425507293 L 1873.2045100841056 114.32228349980157 L 1872.9748505734085 114.27030197594954 L 1872.746352420742 114.21728488162587 L 1872.5190384757307 114.16323751849586 L 1872.29293146958 114.10816529125074 L 1872.068054012802 114.05207370706736 L 1871.8444285929547 113.9949683750574 L 1871.6220775723943 113.93685500570646 L 1871.401023186037 113.87773941030305 L 1871.1812875391377 113.81762750035746 L 1870.9628926050775 113.75652528701059 L 1870.7458602231684 113.69443888043284 L 1870.530212096467 113.63137448921314 L 1870.315969789607 113.56733841973806 L 1870.10315472664 113.5023370755612 L 1869.8917881888951 113.43637695676277 L 1869.6818913128502 113.36946465929971 L 1869.4734850880175 113.301606874346 L 1869.2665903548464 113.2328103876236 L 1869.0612278026372 113.16308207872383 L 1868.8574179674745 113.0924289204195 L 1868.6551812301718 113.02085797796754 L 1868.454537814234 112.94837640840255 L 1868.255507783836 112.8749914598211 L 1868.0581110418145 112.8007104706569 L 1867.8623673276797 112.72554086894695 L 1867.6682962156394 112.64949017158878 L 1867.4759171126436 112.57256598358876 L 1867.2852492564418 112.49477599730159 L 1867.096311713661 112.41612799166106 L 1866.909123377898 112.3366298314022 L 1866.7237029678301 112.2562894662748 L 1866.540069025344 112.1751149302484 L 1866.3582399136812 112.09311434070896 L 1866.178233815601 112.01029589764713 L 1866.0000687315635 111.92666788283817 L 1865.8237624779283 111.84223865901389 L 1865.649332685174 111.7570166690263 L 1865.4767967961343 111.67101043500338 L 1865.3061720642547 111.58422855749687 L 1865.137475551866 111.4966797146222 L 1864.9707241284789 111.40837266119071 L 1864.8059344690967 111.31931622783415 L 1864.6431230525482 111.22951932012163 L 1864.482306159839 111.13899091766909 L 1864.3234998725247 111.04774007324134 L 1864.1667200711017 110.9557759118468 L 1864.0119824334195 110.86310762982494 L 1863.8593024331126 110.76974449392677 L 1863.708695338054 110.67569584038806 L 1863.560176208828 110.58097107399578 L 1863.4137598972231 110.48557966714766 L 1863.269461044749 110.38953115890487 L 1863.1272940811705 110.2928351540382 L 1862.9872732230656 110.19550132206757 L 1862.8494124724032 110.09753939629505 L 1862.7137256151436 109.99895917283158 L 1862.5802262198595 109.89977050961737 L 1862.4489276363793 109.79998332543607 L 1862.3198429944516 109.69960759892295 L 1862.1929852024332 109.59865336756702 L 1862.0683669459977 109.4971307267073 L 1861.9460006868667 109.39504982852324 L 1861.8258986615642 109.29242088101961 L 1861.7080728801927 109.18925414700563 L 1861.5925351252322 109.08555994306874 L 1861.4792969503617 108.98134863854291 L 1861.3683696793046 108.87663065447177 L 1861.2597644046953 108.77141646256644 L 1861.153491986971 108.66571658415843 L 1861.0495630532846 108.55954158914753 L 1860.9479879964433 108.45290209494473 L 1860.8487769738676 108.3458087654106 L 1860.7519399065777 108.23827230978884 L 1860.6574864781992 108.1303034816354 L 1860.5654261339962 108.02191307774314 L 1860.4757680799266 107.9131119370621 L 1860.388521281721 107.80391093961568 L 1860.3036944639866 107.69432100541265 L 1860.2212961093346 107.58435309335508 L 1860.1413344575315 107.47401820014255 L 1860.0638175046759 107.36332735917243 L 1859.9887530023984 107.25229163943658 L 1859.9161484570873 107.14092214441445 L 1859.8460111291358 107.0292300109627 L 1859.7783480322187 106.91722640820164 L 1859.7131659325892 106.80492253639821 L 1859.650471348403 106.69232962584596 L 1859.5902705490662 106.57945893574217 L 1859.5325695546087 106.46632175306175 L 1859.4773741350818 106.35292939142872 L 1859.4246898099814 106.23929318998472 L 1859.3745218476959 106.12542451225522 L 1859.3268752649801 106.0113347450131 L 1859.2817548264525 105.89703529714001 L 1859.239165044119 105.78253759848548 L 1859.1991101769229 105.66785309872397 L 1859.1615942303172 105.55299326620987 L 1859.1266209558653 105.43796958683073 L 1859.0941938508656 105.32279356285864 L 1859.0643161580015 105.2074767118 L 1859.0369908650175 105.09203056524383 L 1859.0122207044199 104.97646666770858 L 1858.9900081532044 104.8607965754877 L 1858.9703554326072 104.74503185549402 L 1858.9532645078846 104.62918408410306 L 1858.9387370881143 104.51326484599544 L 1858.9267746260264 104.39728573299836 L 1858.917378317857 104.28125834292646 L 1858.9105491032292 104.16519427842208 L 1858.906287665059 104.04910514579494 L 1858.9045944294862 103.93300255386156" stroke-miterlimit="10" stroke-width="2.990598758" stroke-dasharray=""/></g><g><g/><text fill="black" stroke="none" font-family="sans-serif" font-size="11pt" font-style="normal" font-weight="normal" text-decoration="normal" x="1851.8863181865634" y="134.401026536" text-anchor="start" dominant-baseline="alphabetic">Database</text></g></g><g><path fill="white" stroke="black" paint-order="fill stroke markers" d=" M 518.9996818903145 197.73135317599997 L 536.5914392903145 197.73135317599997 L 536.5914392903145 1989.9795970879989 L 518.9996818903145 1989.9795970879989 L 518.9996818903145 197.73135317599997" stroke-miterlimit="10" stroke-width="1.4659797833333332" stroke-dasharray=""/><path fill="white" stroke="black" paint-order="fill stroke markers" d=" M 884.6537125608875 313.83695201599994 L 902.2454699608875 313.83695201599994 L 902.2454699608875 461.6077141759999 L 884.6537125608875 461.6077141759999 L 884.6537125608875 313.83695201599994" stroke-miterlimit="10" stroke-width="1.4659797833333332" stroke-dasharray=""/><path fill="white" stroke="black" paint-order="fill stroke markers" d=" M 1351.67534661326 363.0938727359999 L 1369.26710401326 363.0938727359999 L 1369.26710401326 412.3507934559999 L 1351.67534661326 412.3507934559999 L 1351.67534661326 363.0938727359999" stroke-miterlimit="10" stroke-width="1.4659797833333332" stroke-dasharray=""/><path fill="white" stroke="black" paint-order="fill stroke markers" d=" M 93.54023609873047 632.9514312519999 L 111.13199349873048 632.9514312519999 L 111.13199349873048 682.208351972 L 93.54023609873047 682.208351972 L 93.54023609873047 632.9514312519999" stroke-miterlimit="10" stroke-width="1.4659797833333332" stroke-dasharray=""/><path fill="white" stroke="black" paint-order="fill stroke markers" d=" M 93.54023609873047 731.465272692 L 111.13199349873048 731.465272692 L 111.13199349873048 879.2360348520001 L 93.54023609873047 879.2360348520001 L 93.54023609873047 731.465272692" stroke-miterlimit="10" stroke-width="1.4659797833333332" stroke-dasharray=""/><path fill="white" stroke="black" paint-order="fill stroke markers" d=" M 884.6537125608875 928.4929555720001 L 902.2454699608875 928.4929555720001 L 902.2454699608875 2033.9589905879989 L 884.6537125608875 2033.9589905879989 L 884.6537125608875 928.4929555720001" stroke-miterlimit="10" stroke-width="1.4659797833333332" stroke-dasharray=""/><path fill="white" stroke="black" paint-order="fill stroke markers" d=" M 893.4495912608875 995.3416336920002 L 911.0413486608875 995.3416336920002 L 911.0413486608875 1940.722676367999 L 893.4495912608875 1940.722676367999 L 893.4495912608875 995.3416336920002" stroke-miterlimit="10" stroke-width="1.4659797833333332" stroke-dasharray=""/><path fill="white" stroke="black" paint-order="fill stroke markers" d=" M 527.7955605903145 1044.598554412 L 545.3873179903145 1044.598554412 L 545.3873179903145 1511.4837958079995 L 527.7955605903145 1511.4837958079995 L 527.7955605903145 1044.598554412" stroke-miterlimit="10" stroke-width="1.4659797833333332" stroke-dasharray=""/><path fill="white" stroke="black" paint-order="fill stroke markers" d=" M 205.27130574373373 1149.093593368 L 222.86306314373374 1149.093593368 L 222.86306314373374 1198.350514088 L 205.27130574373373 1198.350514088 L 205.27130574373373 1149.093593368" stroke-miterlimit="10" stroke-width="1.4659797833333332" stroke-dasharray=""/><path fill="white" stroke="black" paint-order="fill stroke markers" d=" M 205.27130574373373 1247.6074348079999 L 222.86306314373374 1247.6074348079999 L 222.86306314373374 1462.2268750879996 L 205.27130574373373 1462.2268750879996 L 205.27130574373373 1247.6074348079999" stroke-miterlimit="10" stroke-width="1.4659797833333332" stroke-dasharray=""/><path fill="white" stroke="black" paint-order="fill stroke markers" d=" M 1242.5913658082834 1560.7407165279994 L 1260.1831232082834 1560.7407165279994 L 1260.1831232082834 1891.465755647999 L 1242.5913658082834 1891.465755647999 L 1242.5913658082834 1560.7407165279994" stroke-miterlimit="10" stroke-width="1.4659797833333332" stroke-dasharray=""/><path fill="white" stroke="black" paint-order="fill stroke markers" d=" M 1621.5973540443108 1609.9976372479994 L 1639.1891114443108 1609.9976372479994 L 1639.1891114443108 1842.208834927999 L 1621.5973540443108 1842.208834927999 L 1621.5973540443108 1609.9976372479994" stroke-miterlimit="10" stroke-width="1.4659797833333332" stroke-dasharray=""/><path fill="white" stroke="black" paint-order="fill stroke markers" d=" M 1630.3932327443108 1676.8463153679993 L 1647.9849901443108 1676.8463153679993 L 1647.9849901443108 1792.9519142079992 L 1630.3932327443108 1792.9519142079992 L 1630.3932327443108 1676.8463153679993" stroke-miterlimit="10" stroke-width="1.4659797833333332" stroke-dasharray=""/><g><g><rect fill="white" stroke="none" x="209.06323497739356" y="174.86206855599997" width="125.71418798660156" height="22.86928462"/></g><text fill="black" stroke="none" font-family="sans-serif" font-size="11pt" font-style="normal" font-weight="normal" text-decoration="normal" x="211.70199858739358" y="190.69465021599999" text-anchor="start" dominant-baseline="alphabetic">mouseClick(arg,i)</text></g><g><path fill="none" stroke="black" paint-order="fill stroke markers" d=" M 24.840976051074218 197.73135317599997 L 516.0677223236478 197.73135317599997" stroke-miterlimit="10" stroke-width="1.4659797833333332" stroke-dasharray=""/><g transform="translate(518.9996818903145,197.73135317599997) translate(-518.9996818903145,-197.73135317599997)"><path fill="black" stroke="none" paint-order="stroke fill markers" d=" M 504.33988405698113 190.4014542593333 L 518.9996818903145 197.73135317599997 L 504.33988405698113 205.06125209266665 Z"/></g></g><g><g><rect fill="white" stroke="none" x="557.4083522136478" y="224.11898927599998" width="230.67483556960937" height="22.86928462"/></g><text fill="black" stroke="none" font-family="sans-serif" font-size="11pt" font-style="normal" font-weight="normal" text-decoration="normal" x="560.0471158236478" y="239.951570936" text-anchor="start" dominant-baseline="alphabetic">RoomButtonActionListener(i:int)</text></g><g><path fill="none" stroke="black" paint-order="fill stroke markers" d=" M 536.5914392903145 246.98827389599995 L 606.9584688903145 246.98827389599995 L 606.9584688903145 264.58003129599996 L 539.5233988569812 264.58003129599996" stroke-miterlimit="10" stroke-width="1.4659797833333332" stroke-dasharray=""/><g transform="translate(536.5914392903145,264.58003129599996) translate(-536.5914392903145,-264.58003129599996)"><path fill="black" stroke="none" paint-order="stroke fill markers" d=" M 551.2512371236478 257.2501323793333 L 536.5914392903145 264.58003129599996 L 551.2512371236478 271.9099302126666 Z"/></g></g><g><g><rect fill="white" stroke="none" x="652.9336871935308" y="290.96766739599997" width="115.37777746414062" height="22.86928462"/></g><text fill="black" stroke="none" font-family="sans-serif" font-size="11pt" font-style="normal" font-weight="normal" text-decoration="normal" x="655.5724508035307" y="306.800249056" text-anchor="start" dominant-baseline="alphabetic">getRoom(id:int)</text></g><g><path fill="none" stroke="black" paint-order="fill stroke markers" d=" M 536.5914392903145 313.83695201599994 L 881.7217529942208 313.83695201599994" stroke-miterlimit="10" stroke-width="1.4659797833333332" stroke-dasharray=""/><g transform="translate(884.6537125608875,313.83695201599994) translate(-884.6537125608875,-313.83695201599994)"><path fill="black" stroke="none" paint-order="stroke fill markers" d=" M 869.9939147275542 306.5070530993333 L 884.6537125608875 313.83695201599994 L 869.9939147275542 321.1668509326666 Z"/></g></g><g><g><rect fill="white" stroke="none" x="1069.2715195550034" y="340.22458811599995" width="115.37777746414062" height="22.86928462"/></g><text fill="black" stroke="none" font-family="sans-serif" font-size="11pt" font-style="normal" font-weight="normal" text-decoration="normal" x="1071.9102831650034" y="356.05716977599997" text-anchor="start" dominant-baseline="alphabetic">getRoom(id:int)</text></g><g><path fill="none" stroke="black" paint-order="fill stroke markers" d=" M 902.2454699608875 363.0938727359999 L 1348.7433870465934 363.0938727359999" stroke-miterlimit="10" stroke-width="1.4659797833333332" stroke-dasharray=""/><g transform="translate(1351.67534661326,363.0938727359999) translate(-1351.67534661326,-363.0938727359999)"><path fill="black" stroke="none" paint-order="stroke fill markers" d=" M 1337.0155487799266 355.7639738193333 L 1351.67534661326 363.0938727359999 L 1337.0155487799266 370.4237716526666 Z"/></g></g><g><g><rect fill="white" stroke="none" x="1070.7568711175034" y="389.48150883599993" width="112.40707433914062" height="22.86928462"/></g><text fill="black" stroke="none" font-family="sans-serif" font-size="11pt" font-style="normal" font-weight="normal" text-decoration="normal" x="1073.3956347275034" y="405.31409049599995" text-anchor="start" dominant-baseline="alphabetic">return r : Room</text></g><g><path fill="none" stroke="black" paint-order="fill stroke markers" d=" M 1351.67534661326 412.3507934559999 L 905.1774295275542 412.3507934559999" stroke-miterlimit="10" stroke-width="1.4659797833333332" stroke-dasharray=""/><g transform="translate(902.2454699608875,412.3507934559999) translate(-902.2454699608875,-412.3507934559999)"><path fill="black" stroke="none" paint-order="stroke fill markers" d=" M 916.9052677942208 405.02089453933326 L 902.2454699608875 412.3507934559999 L 916.9052677942208 419.68069237266656 Z"/></g></g><g><g><rect fill="white" stroke="none" x="654.4190387560308" y="438.7384295559999" width="112.40707433914062" height="22.86928462"/></g><text fill="black" stroke="none" font-family="sans-serif" font-size="11pt" font-style="normal" font-weight="normal" text-decoration="normal" x="657.0578023660307" y="454.57101121599993" text-anchor="start" dominant-baseline="alphabetic">return r : Room</text></g><g><path fill="none" stroke="black" paint-order="fill stroke markers" d=" M 884.6537125608875 461.6077141759999 L 539.5233988569812 461.6077141759999" stroke-miterlimit="10" stroke-width="1.4659797833333332" stroke-dasharray=""/><g transform="translate(536.5914392903145,461.6077141759999) translate(-536.5914392903145,-461.6077141759999)"><path fill="black" stroke="none" paint-order="stroke fill markers" d=" M 551.2512371236478 454.27781525933324 L 536.5914392903145 461.6077141759999 L 551.2512371236478 468.93761309266654 Z"/></g></g><g><g><rect fill="white" stroke="none" x="557.4083522136478" y="487.9953502759999" width="243.1157840559375" height="22.86928462"/></g><text fill="black" stroke="none" font-family="sans-serif" font-size="11pt" font-style="normal" font-weight="normal" text-decoration="normal" x="560.0471158236478" y="503.8279319359999" text-anchor="start" dominant-baseline="alphabetic">actionPerformed(arg:ActionEvent)</text></g><g><path fill="none" stroke="black" paint-order="fill stroke markers" d=" M 536.5914392903145 510.86463489599987 L 606.9584688903145 510.86463489599987 L 606.9584688903145 528.4563922959999 L 539.5233988569812 528.4563922959999" stroke-miterlimit="10" stroke-width="1.4659797833333332" stroke-dasharray=""/><g transform="translate(536.5914392903145,528.4563922959999) translate(-536.5914392903145,-528.4563922959999)"><path fill="black" stroke="none" paint-order="stroke fill markers" d=" M 551.2512371236478 521.1264933793332 L 536.5914392903145 528.4563922959999 L 551.2512371236478 535.7862912126666 Z"/></g></g><g><path fill="white" stroke="black" paint-order="fill stroke markers" d=" M 137.2557532377305 580.9677881349999 A 26.123759739 26.123759739 0 1 1 137.2557401758517 580.9416643796148 M 68.91177573873047 553.3487290169999 L 68.91177573873047 608.5868472529999 M 67.41647635973047 580.9677881349999 L 85.00823375973047 580.9677881349999" stroke-miterlimit="10" stroke-width="2.990598758" stroke-dasharray=""/></g><g><g/><text fill="black" stroke="none" font-family="sans-serif" font-size="11pt" font-style="normal" font-weight="normal" text-decoration="normal" x="58.477830802148446" y="626.1786046529999" text-anchor="start" dominant-baseline="alphabetic">RoomDialog</text></g><g><g><rect fill="white" stroke="none" x="281.2037830194346" y="571.0284452039999" width="102.78651464675781" height="22.86928462"/></g><text fill="black" stroke="none" font-family="sans-serif" font-size="11pt" font-style="normal" font-weight="normal" text-decoration="normal" x="283.8425466294346" y="586.8610268639999" text-anchor="start" dominant-baseline="alphabetic">RoomDialog()</text></g><g><path fill="none" stroke="black" paint-order="fill stroke markers" d=" M 518.9996818903145 593.897729824 L 149.1263583619792 593.897729824" stroke-miterlimit="10" stroke-width="1.4659797833333332" stroke-dasharray=""/><g transform="translate(146.1943987953125,593.897729824) translate(-146.1943987953125,-593.897729824)"><path fill="black" stroke="none" paint-order="stroke fill markers" d=" M 160.85419662864584 586.5678309073332 L 146.1943987953125 593.897729824 L 160.85419662864584 601.2276287406667 Z"/></g></g><g><g><rect fill="white" stroke="none" x="312.4270740845225" y="659.3390673519999" width="5.27752722" height="22.86928462"/></g><text fill="black" stroke="none" font-family="sans-serif" font-size="11pt" font-style="normal" font-weight="normal" text-decoration="normal" x="315.0658376945225" y="675.1716490119999" text-anchor="start" dominant-baseline="alphabetic"></text></g><g><path fill="none" stroke="black" paint-order="fill stroke markers" d=" M 111.13199349873048 682.208351972 L 516.0677223236478 682.208351972" stroke-miterlimit="10" stroke-width="1.4659797833333332" stroke-dasharray="7.0367029599999995"/><g transform="translate(518.9996818903145,682.208351972) translate(-518.9996818903145,-682.208351972)"><path fill="black" stroke="none" paint-order="stroke fill markers" d=" M 504.33988405698113 674.8784530553332 L 518.9996818903145 682.208351972 L 504.33988405698113 689.5382508886667 Z"/></g></g><g><g><rect fill="white" stroke="none" x="258.62247813725685" y="708.595988072" width="112.88671911453125" height="22.86928462"/></g><text fill="black" stroke="none" font-family="sans-serif" font-size="11pt" font-style="normal" font-weight="normal" text-decoration="normal" x="261.26124174725686" y="724.4285697319999" text-anchor="start" dominant-baseline="alphabetic">showAndWait()</text></g><g><path fill="none" stroke="black" paint-order="fill stroke markers" d=" M 518.9996818903145 731.465272692 L 114.06395306539714 731.465272692" stroke-miterlimit="10" stroke-width="1.4659797833333332" stroke-dasharray=""/><g transform="translate(111.13199349873048,731.465272692) translate(-111.13199349873048,-731.465272692)"><path fill="black" stroke="none" paint-order="stroke fill markers" d=" M 125.79179133206381 724.1353737753333 L 111.13199349873048 731.465272692 L 125.79179133206381 738.7951716086667 Z"/></g></g><g><g><rect fill="white" stroke="none" x="56.55184246490235" y="757.852908792" width="5.27752722" height="22.86928462"/></g><text fill="black" stroke="none" font-family="sans-serif" font-size="11pt" font-style="normal" font-weight="normal" text-decoration="normal" x="59.19060607490235" y="773.685490452" text-anchor="start" dominant-baseline="alphabetic"></text></g><g><path fill="none" stroke="black" paint-order="fill stroke markers" d=" M 93.54023609873047 780.722193412 L 27.772935617740885 780.722193412" stroke-miterlimit="10" stroke-width="1.4659797833333332" stroke-dasharray=""/><g transform="translate(24.840976051074218,780.722193412) translate(-24.840976051074218,-780.722193412)"><path fill="black" stroke="none" paint-order="stroke fill markers" d=" M 39.50077388440755 773.3922944953333 L 24.840976051074218 780.722193412 L 39.50077388440755 788.0520923286667 Z"/></g></g><g><g><rect fill="white" stroke="none" x="56.55184246490235" y="807.109829512" width="5.27752722" height="22.86928462"/></g><text fill="black" stroke="none" font-family="sans-serif" font-size="11pt" font-style="normal" font-weight="normal" text-decoration="normal" x="59.19060607490235" y="822.942411172" text-anchor="start" dominant-baseline="alphabetic"></text></g><g><path fill="none" stroke="black" paint-order="fill stroke markers" d=" M 24.840976051074218 829.9791141320001 L 90.60827653206381 829.9791141320001" stroke-miterlimit="10" stroke-width="1.4659797833333332" stroke-dasharray="7.0367029599999995"/><g transform="translate(93.54023609873047,829.9791141320001) translate(-93.54023609873047,-829.9791141320001)"><path fill="black" stroke="none" paint-order="stroke fill markers" d=" M 78.88043826539715 822.6492152153334 L 93.54023609873047 829.9791141320001 L 78.88043826539715 837.3090130486668 Z"/></g></g><g><g><rect fill="white" stroke="none" x="312.4270740845225" y="856.3667502320001" width="5.27752722" height="22.86928462"/></g><text fill="black" stroke="none" font-family="sans-serif" font-size="11pt" font-style="normal" font-weight="normal" text-decoration="normal" x="315.0658376945225" y="872.199331892" text-anchor="start" dominant-baseline="alphabetic"></text></g><g><path fill="none" stroke="black" paint-order="fill stroke markers" d=" M 111.13199349873048 879.2360348520001 L 516.0677223236478 879.2360348520001" stroke-miterlimit="10" stroke-width="1.4659797833333332" stroke-dasharray="7.0367029599999995"/><g transform="translate(518.9996818903145,879.2360348520001) translate(-518.9996818903145,-879.2360348520001)"><path fill="black" stroke="none" paint-order="stroke fill markers" d=" M 504.33988405698113 871.9061359353334 L 518.9996818903145 879.2360348520001 L 504.33988405698113 886.5659337686668 Z"/></g></g><g><g><rect fill="white" stroke="none" x="651.3052081896245" y="905.6236709520001" width="118.63473547195312" height="22.86928462"/></g><text fill="black" stroke="none" font-family="sans-serif" font-size="11pt" font-style="normal" font-weight="normal" text-decoration="normal" x="653.9439717996245" y="921.4562526120001" text-anchor="start" dominant-baseline="alphabetic">cancelSelected()</text></g><g><path fill="none" stroke="black" paint-order="fill stroke markers" d=" M 536.5914392903145 928.4929555720001 L 881.7217529942208 928.4929555720001" stroke-miterlimit="10" stroke-width="1.4659797833333332" stroke-dasharray=""/><g transform="translate(884.6537125608875,928.4929555720001) translate(-884.6537125608875,-928.4929555720001)"><path fill="black" stroke="none" paint-order="stroke fill markers" d=" M 869.9939147275542 921.1630566553334 L 884.6537125608875 928.4929555720001 L 869.9939147275542 935.8228544886668 Z"/></g></g><g><g><rect fill="white" stroke="none" x="931.8582615842208" y="954.8805916720002" width="304.5759891340625" height="22.86928462"/></g><text fill="black" stroke="none" font-family="sans-serif" font-size="11pt" font-style="normal" font-weight="normal" text-decoration="normal" x="934.4970251942208" y="970.7131733320001" text-anchor="start" dominant-baseline="alphabetic">observerMessage(s : String, true : Boolean)</text></g><g><path fill="none" stroke="black" paint-order="fill stroke markers" d=" M 902.2454699608875 977.7498762920002 L 981.4083782608875 977.7498762920002 L 981.4083782608875 995.3416336920002 L 913.9733082275542 995.3416336920002" stroke-miterlimit="10" stroke-width="1.4659797833333332" stroke-dasharray=""/><g transform="translate(911.0413486608875,995.3416336920002) translate(-911.0413486608875,-995.3416336920002)"><path fill="black" stroke="none" paint-order="stroke fill markers" d=" M 925.7011464942208 988.0117347753335 L 911.0413486608875 995.3416336920002 L 925.7011464942208 1002.6715326086669 Z"/></g></g><g><g><rect fill="white" stroke="none" x="570.602170263648" y="1021.7292697920001" width="297.6325687239063" height="22.86928462"/></g><text fill="black" stroke="none" font-family="sans-serif" font-size="11pt" font-style="normal" font-weight="normal" text-decoration="normal" x="573.2409338736479" y="1037.561851452" text-anchor="start" dominant-baseline="alphabetic">message(message : String, true : Boolean)</text></g><g><path fill="none" stroke="black" paint-order="fill stroke markers" d=" M 893.4495912608875 1044.598554412 L 548.3192775569812 1044.598554412" stroke-miterlimit="10" stroke-width="1.4659797833333332" stroke-dasharray=""/><g transform="translate(545.3873179903145,1044.598554412) translate(-545.3873179903145,-1044.598554412)"><path fill="black" stroke="none" paint-order="stroke fill markers" d=" M 560.0471158236478 1037.2686554953334 L 545.3873179903145 1044.598554412 L 560.0471158236478 1051.9284533286668 Z"/></g></g><g><path fill="white" stroke="black" paint-order="fill stroke markers" d=" M 248.98682288273375 1097.1099502509999 A 26.123759739 26.123759739 0 1 1 248.98680982085494 1097.0838264956149 M 180.64284538373371 1069.4908911329999 L 180.64284538373371 1124.7290093689999 M 179.14754600473373 1097.1099502509999 L 196.73930340473373 1097.1099502509999" stroke-miterlimit="10" stroke-width="2.990598758" stroke-dasharray=""/></g><g><g/><text fill="black" stroke="none" font-family="sans-serif" font-size="11pt" font-style="normal" font-weight="normal" text-decoration="normal" x="197.27048491980796" y="1142.3207667689999" text-anchor="start" dominant-baseline="alphabetic">Alert</text></g><g><g><rect fill="white" stroke="none" x="275.6969745350671" y="1087.17060732" width="222.48579443191406" height="22.86928462"/></g><text fill="black" stroke="none" font-family="sans-serif" font-size="11pt" font-style="normal" font-weight="normal" text-decoration="normal" x="278.3357381450671" y="1103.00318898" text-anchor="start" dominant-baseline="alphabetic">Alert( confirmation : AlertType)</text></g><g><path fill="none" stroke="black" paint-order="fill stroke markers" d=" M 527.7955605903145 1110.03989194 L 249.0161424784004 1110.03989194" stroke-miterlimit="10" stroke-width="1.4659797833333332" stroke-dasharray=""/><g transform="translate(246.08418291173373,1110.03989194) translate(-246.08418291173373,-1110.03989194)"><path fill="black" stroke="none" paint-order="stroke fill markers" d=" M 260.74398074506706 1102.7099930233333 L 246.08418291173373 1110.03989194 L 260.74398074506706 1117.3697908566667 Z"/></g></g><g><g><rect fill="white" stroke="none" x="372.6905482570241" y="1175.481229468" width="5.27752722" height="22.86928462"/></g><text fill="black" stroke="none" font-family="sans-serif" font-size="11pt" font-style="normal" font-weight="normal" text-decoration="normal" x="375.3293118670241" y="1191.313811128" text-anchor="start" dominant-baseline="alphabetic"></text></g><g><path fill="none" stroke="black" paint-order="fill stroke markers" d=" M 222.86306314373374 1198.350514088 L 524.8636010236478 1198.350514088" stroke-miterlimit="10" stroke-width="1.4659797833333332" stroke-dasharray="7.0367029599999995"/><g transform="translate(527.7955605903145,1198.350514088) translate(-527.7955605903145,-1198.350514088)"><path fill="black" stroke="none" paint-order="stroke fill markers" d=" M 513.1357627569812 1191.0206151713332 L 527.7955605903145 1198.350514088 L 513.1357627569812 1205.6804130046667 Z"/></g></g><g><g><rect fill="white" stroke="none" x="317.1214564601491" y="1224.738150188" width="116.41571081375" height="22.86928462"/></g><text fill="black" stroke="none" font-family="sans-serif" font-size="11pt" font-style="normal" font-weight="normal" text-decoration="normal" x="319.7602200701491" y="1240.570731848" text-anchor="start" dominant-baseline="alphabetic">showAndWait();</text></g><g><path fill="none" stroke="black" paint-order="fill stroke markers" d=" M 527.7955605903145 1247.6074348079999 L 225.79502271040042 1247.6074348079999" stroke-miterlimit="10" stroke-width="1.4659797833333332" stroke-dasharray=""/><g transform="translate(222.86306314373374,1247.6074348079999) translate(-222.86306314373374,-1247.6074348079999)"><path fill="black" stroke="none" paint-order="stroke fill markers" d=" M 237.52286097706707 1240.2775358913332 L 222.86306314373374 1247.6074348079999 L 237.52286097706707 1254.9373337246666 Z"/></g></g><g><g><rect fill="white" stroke="none" x="112.41737728740398" y="1273.995070908" width="5.27752722" height="22.86928462"/></g><text fill="black" stroke="none" font-family="sans-serif" font-size="11pt" font-style="normal" font-weight="normal" text-decoration="normal" x="115.05614089740398" y="1289.8276525679998" text-anchor="start" dominant-baseline="alphabetic"></text></g><g><path fill="none" stroke="black" paint-order="fill stroke markers" d=" M 205.27130574373373 1296.8643555279998 L 27.772935617740885 1296.8643555279998" stroke-miterlimit="10" stroke-width="1.4659797833333332" stroke-dasharray=""/><g transform="translate(24.840976051074218,1296.8643555279998) translate(-24.840976051074218,-1296.8643555279998)"><path fill="black" stroke="none" paint-order="stroke fill markers" d=" M 39.50077388440755 1289.534456611333 L 24.840976051074218 1296.8643555279998 L 39.50077388440755 1304.1942544446665 Z"/></g></g><g><g><rect fill="white" stroke="none" x="112.41737728740398" y="1323.2519916279998" width="5.27752722" height="22.86928462"/></g><text fill="black" stroke="none" font-family="sans-serif" font-size="11pt" font-style="normal" font-weight="normal" text-decoration="normal" x="115.05614089740398" y="1339.0845732879998" text-anchor="start" dominant-baseline="alphabetic"></text></g><g><path fill="none" stroke="black" paint-order="fill stroke markers" d=" M 24.840976051074218 1346.1212762479997 L 202.33934617706706 1346.1212762479997" stroke-miterlimit="10" stroke-width="1.4659797833333332" stroke-dasharray="7.0367029599999995"/><g transform="translate(205.27130574373373,1346.1212762479997) translate(-205.27130574373373,-1346.1212762479997)"><path fill="black" stroke="none" paint-order="stroke fill markers" d=" M 190.6115079104004 1338.791377331333 L 205.27130574373373 1346.1212762479997 L 190.6115079104004 1353.4511751646664 Z"/></g></g><path fill="white" stroke="black" paint-order="fill stroke markers" d=" M 136.14596132738606 1372.5089123479997 L 276.15582590008137 1372.5089123479997 L 291.9884075600814 1388.3414940079997 L 291.9884075600814 1412.9699543679997 L 136.14596132738606 1412.9699543679997 L 136.14596132738606 1372.5089123479997 M 276.15582590008137 1372.5089123479997 L 276.15582590008137 1388.3414940079997 L 291.9884075600814 1388.3414940079997" stroke-miterlimit="10" stroke-width="1.4659797833333332" stroke-dasharray=""/><g><text fill="black" stroke="none" font-family="sans-serif" font-size="11pt" font-style="normal" font-weight="normal" text-decoration="normal" x="160.77442168738608" y="1397.1373727079995" text-anchor="start" dominant-baseline="alphabetic">user selects OK</text></g><g><g><rect fill="white" stroke="none" x="334.7950709621022" y="1439.3575904679997" width="81.06848180984375" height="22.86928462"/></g><text fill="black" stroke="none" font-family="sans-serif" font-size="11pt" font-style="normal" font-weight="normal" text-decoration="normal" x="337.4338345721022" y="1455.1901721279996" text-anchor="start" dominant-baseline="alphabetic">return true</text></g><g><path fill="none" stroke="black" paint-order="fill stroke markers" d=" M 222.86306314373374 1462.2268750879996 L 524.8636010236478 1462.2268750879996" stroke-miterlimit="10" stroke-width="1.4659797833333332" stroke-dasharray="7.0367029599999995"/><g transform="translate(527.7955605903145,1462.2268750879996) translate(-527.7955605903145,-1462.2268750879996)"><path fill="black" stroke="none" paint-order="stroke fill markers" d=" M 513.1357627569812 1454.8969761713329 L 527.7955605903145 1462.2268750879996 L 513.1357627569812 1469.5567740046663 Z"/></g></g><g><g><rect fill="white" stroke="none" x="678.8842137206792" y="1488.6145111879996" width="81.06848180984375" height="22.86928462"/></g><text fill="black" stroke="none" font-family="sans-serif" font-size="11pt" font-style="normal" font-weight="normal" text-decoration="normal" x="681.5229773306792" y="1504.4470928479996" text-anchor="start" dominant-baseline="alphabetic">return true</text></g><g><path fill="none" stroke="black" paint-order="fill stroke markers" d=" M 545.3873179903145 1511.4837958079995 L 890.5176316942208 1511.4837958079995" stroke-miterlimit="10" stroke-width="1.4659797833333332" stroke-dasharray="7.0367029599999995"/><g transform="translate(893.4495912608875,1511.4837958079995) translate(-893.4495912608875,-1511.4837958079995)"><path fill="black" stroke="none" paint-order="stroke fill markers" d=" M 878.7897934275542 1504.1538968913328 L 893.4495912608875 1511.4837958079995 L 878.7897934275542 1518.8136947246662 Z"/></g></g><g><g><rect fill="white" stroke="none" x="944.8504146695074" y="1537.8714319079995" width="263.9318851301563" height="22.86928462"/></g><text fill="black" stroke="none" font-family="sans-serif" font-size="11pt" font-style="normal" font-weight="normal" text-decoration="normal" x="947.4891782795073" y="1553.7040135679995" text-anchor="start" dominant-baseline="alphabetic">removeRoom(selectedRoom : Room)</text></g><g><path fill="none" stroke="black" paint-order="fill stroke markers" d=" M 911.0413486608875 1560.7407165279994 L 1239.6594062416168 1560.7407165279994" stroke-miterlimit="10" stroke-width="1.4659797833333332" stroke-dasharray=""/><g transform="translate(1242.5913658082834,1560.7407165279994) translate(-1242.5913658082834,-1560.7407165279994)"><path fill="black" stroke="none" paint-order="stroke fill markers" d=" M 1227.93156797495 1553.4108176113327 L 1242.5913658082834 1560.7407165279994 L 1227.93156797495 1568.0706154446661 Z"/></g></g><g><g><rect fill="white" stroke="none" x="1360.6601893107306" y="1587.1283526279994" width="160.4600986311328" height="22.86928462"/></g><text fill="black" stroke="none" font-family="sans-serif" font-size="11pt" font-style="normal" font-weight="normal" text-decoration="normal" x="1363.2989529207307" y="1602.9609342879994" text-anchor="start" dominant-baseline="alphabetic">deleteRoom(r : Room)</text></g><g><path fill="none" stroke="black" paint-order="fill stroke markers" d=" M 1260.1831232082834 1609.9976372479994 L 1618.6653944776442 1609.9976372479994" stroke-miterlimit="10" stroke-width="1.4659797833333332" stroke-dasharray=""/><g transform="translate(1621.5973540443108,1609.9976372479994) translate(-1621.5973540443108,-1609.9976372479994)"><path fill="black" stroke="none" paint-order="stroke fill markers" d=" M 1606.9375562109774 1602.6677383313327 L 1621.5973540443108 1609.9976372479994 L 1606.9375562109774 1617.327536164666 Z"/></g></g><g><g><rect fill="white" stroke="none" x="1668.8019030676442" y="1636.3852733479994" width="197.75424230789062" height="22.86928462"/></g><text fill="black" stroke="none" font-family="sans-serif" font-size="11pt" font-style="normal" font-weight="normal" text-decoration="normal" x="1671.4406666776442" y="1652.2178550079993" text-anchor="start" dominant-baseline="alphabetic">performUpdate(sql : String)</text></g><g><path fill="none" stroke="black" paint-order="fill stroke markers" d=" M 1639.1891114443108 1659.2545579679993 L 1718.3520197443108 1659.2545579679993 L 1718.3520197443108 1676.8463153679993 L 1650.9169497109774 1676.8463153679993" stroke-miterlimit="10" stroke-width="1.4659797833333332" stroke-dasharray=""/><g transform="translate(1647.9849901443108,1676.8463153679993) translate(-1647.9849901443108,-1676.8463153679993)"><path fill="black" stroke="none" paint-order="stroke fill markers" d=" M 1662.6447879776442 1669.5164164513326 L 1647.9849901443108 1676.8463153679993 L 1662.6447879776442 1684.176214284666 Z"/></g></g><g><g><rect fill="white" stroke="none" x="1668.801903067644" y="1703.2339514679993" width="194.96971166824218" height="22.86928462"/></g><text fill="black" stroke="none" font-family="sans-serif" font-size="11pt" font-style="normal" font-weight="normal" text-decoration="normal" x="1671.440666677644" y="1719.0665331279993" text-anchor="start" dominant-baseline="alphabetic">executeUpdate(sql : String)</text></g><g><path fill="none" stroke="black" paint-order="fill stroke markers" d=" M 1647.9849901443108 1726.1032360879992 L 1881.656568092553 1726.1032360879992" stroke-miterlimit="10" stroke-width="1.4659797833333332" stroke-dasharray=""/><g transform="translate(1884.5885276592196,1726.1032360879992) translate(-1884.5885276592196,-1726.1032360879992)"><path fill="black" stroke="none" paint-order="stroke fill markers" d=" M 1869.9287298258862 1718.7733371713325 L 1884.5885276592196 1726.1032360879992 L 1869.9287298258862 1733.433135004666 Z"/></g></g><g><g><rect fill="white" stroke="none" x="1668.8019030676442" y="1752.4908721879992" width="5.27752722" height="22.86928462"/></g><text fill="black" stroke="none" font-family="sans-serif" font-size="11pt" font-style="normal" font-weight="normal" text-decoration="normal" x="1671.4406666776442" y="1768.3234538479992" text-anchor="start" dominant-baseline="alphabetic"></text></g><g><path fill="none" stroke="black" paint-order="fill stroke markers" d=" M 1647.9849901443108 1775.3601568079991 L 1718.3520197443108 1775.3601568079991 L 1718.3520197443108 1792.9519142079992 L 1650.9169497109774 1792.9519142079992" stroke-miterlimit="10" stroke-width="1.4659797833333332" stroke-dasharray="7.0367029599999995"/><g transform="translate(1647.9849901443108,1792.9519142079992) translate(-1647.9849901443108,-1792.9519142079992)"><path fill="black" stroke="none" paint-order="stroke fill markers" d=" M 1662.6447879776442 1785.6220152913324 L 1647.9849901443108 1792.9519142079992 L 1662.6447879776442 1800.2818131246659 Z"/></g></g><g><g><rect fill="white" stroke="none" x="1438.251475016297" y="1819.3395503079992" width="5.27752722" height="22.86928462"/></g><text fill="black" stroke="none" font-family="sans-serif" font-size="11pt" font-style="normal" font-weight="normal" text-decoration="normal" x="1440.890238626297" y="1835.1721319679991" text-anchor="start" dominant-baseline="alphabetic"></text></g><g><path fill="none" stroke="black" paint-order="fill stroke markers" d=" M 1621.5973540443108 1842.208834927999 L 1263.11508277495 1842.208834927999" stroke-miterlimit="10" stroke-width="1.4659797833333332" stroke-dasharray="7.0367029599999995"/><g transform="translate(1260.1831232082834,1842.208834927999) translate(-1260.1831232082834,-1842.208834927999)"><path fill="black" stroke="none" paint-order="stroke fill markers" d=" M 1274.8429210416168 1834.8789360113324 L 1260.1831232082834 1842.208834927999 L 1274.8429210416168 1849.5387338446658 Z"/></g></g><g><g><rect fill="white" stroke="none" x="1074.1775936245854" y="1868.596471027999" width="5.27752722" height="22.86928462"/></g><text fill="black" stroke="none" font-family="sans-serif" font-size="11pt" font-style="normal" font-weight="normal" text-decoration="normal" x="1076.8163572345854" y="1884.429052687999" text-anchor="start" dominant-baseline="alphabetic"></text></g><g><path fill="none" stroke="black" paint-order="fill stroke markers" d=" M 1242.5913658082834 1891.465755647999 L 913.9733082275542 1891.465755647999" stroke-miterlimit="10" stroke-width="1.4659797833333332" stroke-dasharray="7.0367029599999995"/><g transform="translate(911.0413486608875,1891.465755647999) translate(-911.0413486608875,-1891.465755647999)"><path fill="black" stroke="none" paint-order="stroke fill markers" d=" M 925.7011464942208 1884.1358567313323 L 911.0413486608875 1891.465755647999 L 925.7011464942208 1898.7956545646657 Z"/></g></g><g><g><rect fill="white" stroke="none" x="712.381751665601" y="1917.853391747999" width="5.27752722" height="22.86928462"/></g><text fill="black" stroke="none" font-family="sans-serif" font-size="11pt" font-style="normal" font-weight="normal" text-decoration="normal" x="715.0205152756009" y="1933.685973407999" text-anchor="start" dominant-baseline="alphabetic"></text></g><g><path fill="none" stroke="black" paint-order="fill stroke markers" d=" M 893.4495912608875 1940.722676367999 L 539.5233988569812 1940.722676367999" stroke-miterlimit="10" stroke-width="1.4659797833333332" stroke-dasharray="7.0367029599999995"/><g transform="translate(536.5914392903145,1940.722676367999) translate(-536.5914392903145,-1940.722676367999)"><path fill="black" stroke="none" paint-order="stroke fill markers" d=" M 551.2512371236478 1933.3927774513322 L 536.5914392903145 1940.722676367999 L 551.2512371236478 1948.0525752846656 Z"/></g></g><g><g><rect fill="white" stroke="none" x="269.28156536069434" y="1967.110312467999" width="5.27752722" height="22.86928462"/></g><text fill="black" stroke="none" font-family="sans-serif" font-size="11pt" font-style="normal" font-weight="normal" text-decoration="normal" x="271.92032897069436" y="1982.942894127999" text-anchor="start" dominant-baseline="alphabetic"></text></g><g><path fill="none" stroke="black" paint-order="fill stroke markers" d=" M 518.9996818903145 1989.9795970879989 L 27.772935617740885 1989.9795970879989" stroke-miterlimit="10" stroke-width="1.4659797833333332" stroke-dasharray="7.0367029599999995"/><g transform="translate(24.840976051074218,1989.9795970879989) translate(-24.840976051074218,-1989.9795970879989)"><path fill="black" stroke="none" paint-order="stroke fill markers" d=" M 39.50077388440755 1982.6496981713321 L 24.840976051074218 1989.9795970879989 L 39.50077388440755 1997.3094960046656 Z"/></g></g></g><g/><g/><g/><g/><g/><g/><g/><g/></g></svg>