<svg version="1.1" xmlns="http://www.w3.org/2000/svg" xmlns:xlink="http://www.w3.org/1999/xlink" width="1279" height="1541"><defs/><g><g/><g/><g/><g/><g/><g/><g/><g/><g/><g/><g/><g/><g/><g/><g/><g/><g/><g/><g/><g/><g/><g/><g/><g><rect fill="white" stroke="none" x="0" y="0" width="1279" height="1541"/></g><g><text fill="black" stroke="none" font-family="sans-serif" font-size="16.5pt" font-style="normal" font-weight="normal" text-decoration="normal" x="512.064828581957" y="26.3876361" text-anchor="start" dominant-baseline="alphabetic">Add A New Room BCE 2</text></g><g/><g><path fill="none" stroke="black" paint-order="fill stroke markers" d=" M 24.840976051074218 139.67855375599999 L 24.840976051074218 1541.3897833879994" stroke-miterlimit="10" stroke-width="1.4659797833333332" stroke-dasharray="13.532121076923076,5.863919133333333"/><path fill="none" stroke="black" paint-order="fill stroke markers" d=" M 90.49482927014844 952.0659104879999 L 90.49482927014844 1541.3897833879994" stroke-miterlimit="10" stroke-width="1.4659797833333332" stroke-dasharray="13.532121076923076,5.863919133333333"/><path fill="none" stroke="black" paint-order="fill stroke markers" d=" M 239.5443003403138 302.22639213199994 L 239.5443003403138 1541.3897833879994" stroke-miterlimit="10" stroke-width="1.4659797833333332" stroke-dasharray="13.532121076923076,5.863919133333333"/><path fill="none" stroke="black" paint-order="fill stroke markers" d=" M 445.4146822303203 139.67855375599999 L 445.4146822303203 1541.3897833879994" stroke-miterlimit="10" stroke-width="1.4659797833333332" stroke-dasharray="13.532121076923076,5.863919133333333"/><path fill="none" stroke="black" paint-order="fill stroke markers" d=" M 863.6313960063619 139.67855375599999 L 863.6313960063619 1541.3897833879994" stroke-miterlimit="10" stroke-width="1.4659797833333332" stroke-dasharray="13.532121076923076,5.863919133333333"/></g><g><g><path fill="white" stroke="black" paint-order="fill stroke markers" d=" M 34.86827776907422 65.265419954 A 10.027301717999999 10.027301717999999 0 1 1 34.868272755423774 65.25539265395321 M 24.840976051074218 75.29272167199998 L 24.840976051074218 96.75466569999998 M 12.17491072307422 83.033094928 L 37.50704137907422 83.033094928 M 24.840976051074218 96.75466569999998 L 12.17491072307422 116.80926913599998 M 24.840976051074218 96.75466569999998 L 37.50704137907422 116.80926913599998" stroke-miterlimit="10" stroke-width="2.990598758" stroke-dasharray=""/></g><g><g/><text fill="black" stroke="none" font-family="sans-serif" font-size="11pt" font-style="normal" font-weight="normal" text-decoration="normal" x="8.7958787" y="134.401026536" text-anchor="start" dominant-baseline="alphabetic">Boss</text></g><g><path fill="white" stroke="black" paint-order="fill stroke markers" d=" M 480.3343206693203 89.19021001799997 A 26.123759739 26.123759739 0 1 1 480.33430760744153 89.16408626261492 M 411.99034317032033 61.57115089999997 L 411.99034317032033 116.80926913599997 M 410.4950437913203 89.19021001799997 L 428.0868011913203 89.19021001799997" stroke-miterlimit="10" stroke-width="2.990598758" stroke-dasharray=""/></g><g><g/><text fill="black" stroke="none" font-family="sans-serif" font-size="11pt" font-style="normal" font-weight="normal" text-decoration="normal" x="421.74252494272264" y="134.401026536" text-anchor="start" dominant-baseline="alphabetic">BossUI</text></g><g><path fill="white" stroke="black" paint-order="fill stroke markers" d=" M 889.7551557453619 89.19021001799997 A 26.123759739 26.123759739 0 1 1 889.7551426834831 89.16408626261492 M 860.1130445263619 63.06645027899997 L 870.668098966362 54.27057157899998 M 860.1130445263619 63.06645027899997 L 870.668098966362 71.86232897899997" stroke-miterlimit="10" stroke-width="2.990598758" stroke-dasharray=""/></g><g><g/><text fill="black" stroke="none" font-family="sans-serif" font-size="11pt" font-style="normal" font-weight="normal" text-decoration="normal" x="797.3178660381002" y="134.401026536" text-anchor="start" dominant-baseline="alphabetic">ReservationSystem</text></g></g><g><path fill="white" stroke="black" paint-order="fill stroke markers" d=" M 436.6188035303203 197.73135317599997 L 454.2105609303203 197.73135317599997 L 454.2105609303203 1479.8186324879994 L 436.6188035303203 1479.8186324879994 L 436.6188035303203 197.73135317599997" stroke-miterlimit="10" stroke-width="1.4659797833333332" stroke-dasharray=""/><path fill="white" stroke="black" paint-order="fill stroke markers" d=" M 230.7484216403138 302.22639213199994 L 248.3401790403138 302.22639213199994 L 248.3401790403138 351.4833128519999 L 230.7484216403138 351.4833128519999 L 230.7484216403138 302.22639213199994" stroke-miterlimit="10" stroke-width="1.4659797833333332" stroke-dasharray=""/><path fill="white" stroke="black" paint-order="fill stroke markers" d=" M 230.7484216403138 400.7402335719999 L 248.3401790403138 400.7402335719999 L 248.3401790403138 548.5109957319999 L 230.7484216403138 548.5109957319999 L 230.7484216403138 400.7402335719999" stroke-miterlimit="10" stroke-width="1.4659797833333332" stroke-dasharray=""/><path fill="white" stroke="black" paint-order="fill stroke markers" d=" M 854.8355173063619 597.7679164519999 L 872.4272747063619 597.7679164519999 L 872.4272747063619 1430.5617117679994 L 854.8355173063619 1430.5617117679994 L 854.8355173063619 597.7679164519999" stroke-miterlimit="10" stroke-width="1.4659797833333332" stroke-dasharray=""/><path fill="white" stroke="black" paint-order="fill stroke markers" d=" M 863.6313960063619 664.6165945719999 L 881.2231534063619 664.6165945719999 L 881.2231534063619 1381.3047910479995 L 863.6313960063619 1381.3047910479995 L 863.6313960063619 664.6165945719999" stroke-miterlimit="10" stroke-width="1.4659797833333332" stroke-dasharray=""/><path fill="white" stroke="black" paint-order="fill stroke markers" d=" M 872.4272747063619 798.3139508119998 L 890.0190321063619 798.3139508119998 L 890.0190321063619 1314.4561129279996 L 872.4272747063619 1314.4561129279996 L 872.4272747063619 798.3139508119998" stroke-miterlimit="10" stroke-width="1.4659797833333332" stroke-dasharray=""/><path fill="white" stroke="black" paint-order="fill stroke markers" d=" M 445.4146822303203 847.5708715319998 L 463.0064396303203 847.5708715319998 L 463.0064396303203 1247.6074348079997 L 445.4146822303203 1247.6074348079997 L 445.4146822303203 847.5708715319998" stroke-miterlimit="10" stroke-width="1.4659797833333332" stroke-dasharray=""/><path fill="white" stroke="black" paint-order="fill stroke markers" d=" M 81.69895057014844 952.0659104879999 L 99.29070797014845 952.0659104879999 L 99.29070797014845 1001.3228312079999 L 81.69895057014844 1001.3228312079999 L 81.69895057014844 952.0659104879999" stroke-miterlimit="10" stroke-width="1.4659797833333332" stroke-dasharray=""/><path fill="white" stroke="black" paint-order="fill stroke markers" d=" M 81.69895057014844 1050.579751928 L 99.29070797014845 1050.579751928 L 99.29070797014845 1198.3505140879997 L 81.69895057014844 1198.3505140879997 L 81.69895057014844 1050.579751928" stroke-miterlimit="10" stroke-width="1.4659797833333332" stroke-dasharray=""/><g><g><rect fill="white" stroke="none" x="188.79261086087303" y="174.86206855599997" width="83.87455785964843" height="22.86928462"/></g><text fill="black" stroke="none" font-family="sans-serif" font-size="11pt" font-style="normal" font-weight="normal" text-decoration="normal" x="191.43137447087304" y="190.69465021599999" text-anchor="start" dominant-baseline="alphabetic">addRoom()</text></g><g><path fill="none" stroke="black" paint-order="fill stroke markers" d=" M 24.840976051074218 197.73135317599997 L 433.68684396365364 197.73135317599997" stroke-miterlimit="10" stroke-width="1.4659797833333332" stroke-dasharray=""/><g transform="translate(436.6188035303203,197.73135317599997) translate(-436.6188035303203,-197.73135317599997)"><path fill="black" stroke="none" paint-order="stroke fill markers" d=" M 421.95900569698694 190.4014542593333 L 436.6188035303203 197.73135317599997 L 421.95900569698694 205.06125209266665 Z"/></g></g><g><path fill="white" stroke="black" paint-order="fill stroke markers" d=" M 274.4639387793138 250.24274901499996 A 26.123759739 26.123759739 0 1 1 274.463925717435 250.21662525961491 M 206.1199612803138 222.62368989699996 L 206.1199612803138 277.86180813299995 M 204.6246619013138 250.24274901499996 L 222.2164193013138 250.24274901499996" stroke-miterlimit="10" stroke-width="2.990598758" stroke-dasharray=""/></g><g><g/><text fill="black" stroke="none" font-family="sans-serif" font-size="11pt" font-style="normal" font-weight="normal" text-decoration="normal" x="195.68601634373178" y="295.4535655329999" text-anchor="start" dominant-baseline="alphabetic">RoomDialog</text></g><g><g><rect fill="white" stroke="none" x="308.61743661022916" y="240.30340608399993" width="102.78651464675781" height="22.86928462"/></g><text fill="black" stroke="none" font-family="sans-serif" font-size="11pt" font-style="normal" font-weight="normal" text-decoration="normal" x="311.2562002202292" y="256.1359877439999" text-anchor="start" dominant-baseline="alphabetic">RoomDialog()</text></g><g><path fill="none" stroke="black" paint-order="fill stroke markers" d=" M 436.6188035303203 263.17269070399993 L 286.3345439035625 263.17269070399993" stroke-miterlimit="10" stroke-width="1.4659797833333332" stroke-dasharray=""/><g transform="translate(283.40258433689587,263.17269070399993) translate(-283.40258433689587,-263.17269070399993)"><path fill="black" stroke="none" paint-order="stroke fill markers" d=" M 298.0623821702292 255.84279178733325 L 283.40258433689587 263.17269070399993 L 298.0623821702292 270.5025896206666 Z"/></g></g><g><g><rect fill="white" stroke="none" x="339.84072767531705" y="328.61402823199995" width="5.27752722" height="22.86928462"/></g><text fill="black" stroke="none" font-family="sans-serif" font-size="11pt" font-style="normal" font-weight="normal" text-decoration="normal" x="342.47949128531707" y="344.44660989199997" text-anchor="start" dominant-baseline="alphabetic"></text></g><g><path fill="none" stroke="black" paint-order="fill stroke markers" d=" M 248.3401790403138 351.4833128519999 L 433.68684396365364 351.4833128519999" stroke-miterlimit="10" stroke-width="1.4659797833333332" stroke-dasharray="7.0367029599999995"/><g transform="translate(436.6188035303203,351.4833128519999) translate(-436.6188035303203,-351.4833128519999)"><path fill="black" stroke="none" paint-order="stroke fill markers" d=" M 421.95900569698694 344.1534139353333 L 436.6188035303203 351.4833128519999 L 421.95900569698694 358.8132117686666 Z"/></g></g><g><g><rect fill="white" stroke="none" x="286.03613172805143" y="377.87094895199994" width="112.88671911453125" height="22.86928462"/></g><text fill="black" stroke="none" font-family="sans-serif" font-size="11pt" font-style="normal" font-weight="normal" text-decoration="normal" x="288.67489533805144" y="393.70353061199995" text-anchor="start" dominant-baseline="alphabetic">showAndWait()</text></g><g><path fill="none" stroke="black" paint-order="fill stroke markers" d=" M 436.6188035303203 400.7402335719999 L 251.2721386069805 400.7402335719999" stroke-miterlimit="10" stroke-width="1.4659797833333332" stroke-dasharray=""/><g transform="translate(248.3401790403138,400.7402335719999) translate(-248.3401790403138,-400.7402335719999)"><path fill="black" stroke="none" paint-order="stroke fill markers" d=" M 262.99997687364714 393.41033465533326 L 248.3401790403138 400.7402335719999 L 262.99997687364714 408.07013248866656 Z"/></g></g><g><g><rect fill="white" stroke="none" x="125.15593523569402" y="427.1278696719999" width="5.27752722" height="22.86928462"/></g><text fill="black" stroke="none" font-family="sans-serif" font-size="11pt" font-style="normal" font-weight="normal" text-decoration="normal" x="127.79469884569401" y="442.96045133199993" text-anchor="start" dominant-baseline="alphabetic"></text></g><g><path fill="none" stroke="black" paint-order="fill stroke markers" d=" M 230.7484216403138 449.9971542919999 L 27.772935617740885 449.9971542919999" stroke-miterlimit="10" stroke-width="1.4659797833333332" stroke-dasharray=""/><g transform="translate(24.840976051074218,449.9971542919999) translate(-24.840976051074218,-449.9971542919999)"><path fill="black" stroke="none" paint-order="stroke fill markers" d=" M 39.50077388440755 442.66725537533324 L 24.840976051074218 449.9971542919999 L 39.50077388440755 457.32705320866654 Z"/></g></g><g><g><rect fill="white" stroke="none" x="125.15593523569402" y="476.3847903919999" width="5.27752722" height="22.86928462"/></g><text fill="black" stroke="none" font-family="sans-serif" font-size="11pt" font-style="normal" font-weight="normal" text-decoration="normal" x="127.79469884569401" y="492.2173720519999" text-anchor="start" dominant-baseline="alphabetic"></text></g><g><path fill="none" stroke="black" paint-order="fill stroke markers" d=" M 24.840976051074218 499.2540750119999 L 227.81646207364713 499.2540750119999" stroke-miterlimit="10" stroke-width="1.4659797833333332" stroke-dasharray="7.0367029599999995"/><g transform="translate(230.7484216403138,499.2540750119999) translate(-230.7484216403138,-499.2540750119999)"><path fill="black" stroke="none" paint-order="stroke fill markers" d=" M 216.08862380698048 491.9241760953332 L 230.7484216403138 499.2540750119999 L 216.08862380698048 506.5839739286665 Z"/></g></g><g><g><rect fill="white" stroke="none" x="339.84072767531705" y="525.6417111119998" width="5.27752722" height="22.86928462"/></g><text fill="black" stroke="none" font-family="sans-serif" font-size="11pt" font-style="normal" font-weight="normal" text-decoration="normal" x="342.47949128531707" y="541.4742927719998" text-anchor="start" dominant-baseline="alphabetic"></text></g><g><path fill="none" stroke="black" paint-order="fill stroke markers" d=" M 248.3401790403138 548.5109957319999 L 433.68684396365364 548.5109957319999" stroke-miterlimit="10" stroke-width="1.4659797833333332" stroke-dasharray="7.0367029599999995"/><g transform="translate(436.6188035303203,548.5109957319999) translate(-436.6188035303203,-548.5109957319999)"><path fill="black" stroke="none" paint-order="stroke fill markers" d=" M 421.95900569698694 541.1810968153331 L 436.6188035303203 548.5109957319999 L 421.95900569698694 555.8408946486666 Z"/></g></g><g><g><rect fill="white" stroke="none" x="479.4254132036536" y="574.8986318319999" width="350.195251829375" height="22.86928462"/></g><text fill="black" stroke="none" font-family="sans-serif" font-size="11pt" font-style="normal" font-weight="normal" text-decoration="normal" x="482.0641768136536" y="590.7312134919998" text-anchor="start" dominant-baseline="alphabetic">addRoom(roomNumber:int, price:int, type:String)</text></g><g><path fill="none" stroke="black" paint-order="fill stroke markers" d=" M 454.2105609303203 597.7679164519999 L 851.9035577396952 597.7679164519999" stroke-miterlimit="10" stroke-width="1.4659797833333332" stroke-dasharray=""/><g transform="translate(854.8355173063619,597.7679164519999) translate(-854.8355173063619,-597.7679164519999)"><path fill="black" stroke="none" paint-order="stroke fill markers" d=" M 840.1757194730286 590.4380175353332 L 854.8355173063619 597.7679164519999 L 840.1757194730286 605.0978153686666 Z"/></g></g><g><g><rect fill="white" stroke="none" x="902.0400663296953" y="624.1555525519999" width="187.5037235090625" height="22.86928462"/></g><text fill="black" stroke="none" font-family="sans-serif" font-size="11pt" font-style="normal" font-weight="normal" text-decoration="normal" x="904.6788299396952" y="639.9881342119999" text-anchor="start" dominant-baseline="alphabetic">checkIllegalPrice(price:int)</text></g><g><path fill="none" stroke="black" paint-order="fill stroke markers" d=" M 872.4272747063619 647.0248371719999 L 951.5901830063619 647.0248371719999 L 951.5901830063619 664.6165945719999 L 884.1551129730286 664.6165945719999" stroke-miterlimit="10" stroke-width="1.4659797833333332" stroke-dasharray=""/><g transform="translate(881.2231534063619,664.6165945719999) translate(-881.2231534063619,-664.6165945719999)"><path fill="black" stroke="none" paint-order="stroke fill markers" d=" M 895.8829512396952 657.2866956553332 L 881.2231534063619 664.6165945719999 L 895.8829512396952 671.9464934886666 Z"/></g></g><path fill="white" stroke="black" paint-order="fill stroke markers" d=" M 634.8941709979244 691.0042306719998 L 1076.5360393547994 691.0042306719998 L 1092.3686210147994 706.8368123319998 L 1092.3686210147994 731.4652726919999 L 634.8941709979244 731.4652726919999 L 634.8941709979244 691.0042306719998 M 1076.5360393547994 691.0042306719998 L 1076.5360393547994 706.8368123319998 L 1092.3686210147994 706.8368123319998" stroke-miterlimit="10" stroke-width="1.4659797833333332" stroke-dasharray=""/><g><text fill="black" stroke="none" font-family="sans-serif" font-size="11pt" font-style="normal" font-weight="normal" text-decoration="normal" x="659.5226313579244" y="715.6326910319999" text-anchor="start" dominant-baseline="alphabetic">The user inputs the room’s price with a negative number</text></g><g><g><rect fill="white" stroke="none" x="910.8359450296953" y="757.8529087919998" width="362.9940189192188" height="22.86928462"/></g><text fill="black" stroke="none" font-family="sans-serif" font-size="11pt" font-style="normal" font-weight="normal" text-decoration="normal" x="913.4747086396952" y="773.6854904519997" text-anchor="start" dominant-baseline="alphabetic">observerMessage(message : String, false : Boolean)</text></g><g><path fill="none" stroke="black" paint-order="fill stroke markers" d=" M 881.2231534063619 780.7221934119998 L 960.3860617063619 780.7221934119998 L 960.3860617063619 798.3139508119998 L 892.9509916730286 798.3139508119998" stroke-miterlimit="10" stroke-width="1.4659797833333332" stroke-dasharray=""/><g transform="translate(890.0190321063619,798.3139508119998) translate(-890.0190321063619,-798.3139508119998)"><path fill="black" stroke="none" paint-order="stroke fill markers" d=" M 904.6788299396952 790.9840518953331 L 890.0190321063619 798.3139508119998 L 904.6788299396952 805.6438497286665 Z"/></g></g><g><g><rect fill="white" stroke="none" x="517.0108175573646" y="824.7015869119998" width="301.41207922195315" height="22.86928462"/></g><text fill="black" stroke="none" font-family="sans-serif" font-size="11pt" font-style="normal" font-weight="normal" text-decoration="normal" x="519.6495811673645" y="840.5341685719998" text-anchor="start" dominant-baseline="alphabetic">message(message : String, false : Boolean)</text></g><g><path fill="none" stroke="black" paint-order="fill stroke markers" d=" M 872.4272747063619 847.5708715319998 L 465.93839919698695 847.5708715319998" stroke-miterlimit="10" stroke-width="1.4659797833333332" stroke-dasharray=""/><g transform="translate(463.0064396303203,847.5708715319998) translate(-463.0064396303203,-847.5708715319998)"><path fill="black" stroke="none" paint-order="stroke fill markers" d=" M 477.66623746365366 840.2409726153331 L 463.0064396303203 847.5708715319998 L 477.66623746365366 854.9007704486665 Z"/></g></g><g><path fill="white" stroke="black" paint-order="fill stroke markers" d=" M 125.41446770914845 900.0822673709998 A 26.123759739 26.123759739 0 1 1 125.41445464726966 900.0561436156148 M 57.070490210148435 872.4632082529998 L 57.070490210148435 927.7013264889998 M 55.57519083114843 900.0822673709998 L 73.16694823114844 900.0822673709998" stroke-miterlimit="10" stroke-width="2.990598758" stroke-dasharray=""/></g><g><g/><text fill="black" stroke="none" font-family="sans-serif" font-size="11pt" font-style="normal" font-weight="normal" text-decoration="normal" x="73.69812974622266" y="945.2930838889998" text-anchor="start" dominant-baseline="alphabetic">Alert</text></g><g><g><rect fill="white" stroke="none" x="189.33095347140232" y="890.1429244399999" width="189.26460302566406" height="22.86928462"/></g><text fill="black" stroke="none" font-family="sans-serif" font-size="11pt" font-style="normal" font-weight="normal" text-decoration="normal" x="191.96971708140234" y="905.9755060999998" text-anchor="start" dominant-baseline="alphabetic">Alert( warning : AlertType)</text></g><g><path fill="none" stroke="black" paint-order="fill stroke markers" d=" M 445.4146822303203 913.0122090599999 L 125.4437873048151 913.0122090599999" stroke-miterlimit="10" stroke-width="1.4659797833333332" stroke-dasharray=""/><g transform="translate(122.51182773814844,913.0122090599999) translate(-122.51182773814844,-913.0122090599999)"><path fill="black" stroke="none" paint-order="stroke fill markers" d=" M 137.17162557148177 905.6823101433332 L 122.51182773814844 913.0122090599999 L 137.17162557148177 920.3421079766666 Z"/></g></g><g><g><rect fill="white" stroke="none" x="269.71393149023436" y="978.4535465879999" width="5.27752722" height="22.86928462"/></g><text fill="black" stroke="none" font-family="sans-serif" font-size="11pt" font-style="normal" font-weight="normal" text-decoration="normal" x="272.35269510023437" y="994.2861282479998" text-anchor="start" dominant-baseline="alphabetic"></text></g><g><path fill="none" stroke="black" paint-order="fill stroke markers" d=" M 99.29070797014845 1001.3228312079999 L 442.48272266365365 1001.3228312079999" stroke-miterlimit="10" stroke-width="1.4659797833333332" stroke-dasharray="7.0367029599999995"/><g transform="translate(445.4146822303203,1001.3228312079999) translate(-445.4146822303203,-1001.3228312079999)"><path fill="black" stroke="none" paint-order="stroke fill markers" d=" M 430.75488439698694 993.9929322913332 L 445.4146822303203 1001.3228312079999 L 430.75488439698694 1008.6527301246666 Z"/></g></g><g><g><rect fill="white" stroke="none" x="214.14483969335936" y="1027.710467308" width="116.41571081375" height="22.86928462"/></g><text fill="black" stroke="none" font-family="sans-serif" font-size="11pt" font-style="normal" font-weight="normal" text-decoration="normal" x="216.78360330335937" y="1043.543048968" text-anchor="start" dominant-baseline="alphabetic">showAndWait();</text></g><g><path fill="none" stroke="black" paint-order="fill stroke markers" d=" M 445.4146822303203 1050.579751928 L 102.22266753681511 1050.579751928" stroke-miterlimit="10" stroke-width="1.4659797833333332" stroke-dasharray=""/><g transform="translate(99.29070797014845,1050.579751928) translate(-99.29070797014845,-1050.579751928)"><path fill="black" stroke="none" paint-order="stroke fill markers" d=" M 113.95050580348178 1043.2498530113332 L 99.29070797014845 1050.579751928 L 113.95050580348178 1057.9096508446667 Z"/></g></g><g><g><rect fill="white" stroke="none" x="50.63119970061133" y="1076.967388028" width="5.27752722" height="22.86928462"/></g><text fill="black" stroke="none" font-family="sans-serif" font-size="11pt" font-style="normal" font-weight="normal" text-decoration="normal" x="53.26996331061133" y="1092.799969688" text-anchor="start" dominant-baseline="alphabetic"></text></g><g><path fill="none" stroke="black" paint-order="fill stroke markers" d=" M 81.69895057014844 1099.8366726479999 L 27.772935617740885 1099.8366726479999" stroke-miterlimit="10" stroke-width="1.4659797833333332" stroke-dasharray=""/><g transform="translate(24.840976051074218,1099.8366726479999) translate(-24.840976051074218,-1099.8366726479999)"><path fill="black" stroke="none" paint-order="stroke fill markers" d=" M 39.50077388440755 1092.5067737313332 L 24.840976051074218 1099.8366726479999 L 39.50077388440755 1107.1665715646666 Z"/></g></g><g><g><rect fill="white" stroke="none" x="50.63119970061133" y="1126.2243087479999" width="5.27752722" height="22.86928462"/></g><text fill="black" stroke="none" font-family="sans-serif" font-size="11pt" font-style="normal" font-weight="normal" text-decoration="normal" x="53.26996331061133" y="1142.0568904079998" text-anchor="start" dominant-baseline="alphabetic"></text></g><g><path fill="none" stroke="black" paint-order="fill stroke markers" d=" M 24.840976051074218 1149.0935933679998 L 78.76699100348178 1149.0935933679998" stroke-miterlimit="10" stroke-width="1.4659797833333332" stroke-dasharray="7.0367029599999995"/><g transform="translate(81.69895057014844,1149.0935933679998) translate(-81.69895057014844,-1149.0935933679998)"><path fill="black" stroke="none" paint-order="stroke fill markers" d=" M 67.03915273681511 1141.763694451333 L 81.69895057014844 1149.0935933679998 L 67.03915273681511 1156.4234922846665 Z"/></g></g><g><g><rect fill="white" stroke="none" x="226.47486441259764" y="1175.4812294679998" width="91.75566137527343" height="22.86928462"/></g><text fill="black" stroke="none" font-family="sans-serif" font-size="11pt" font-style="normal" font-weight="normal" text-decoration="normal" x="229.11362802259765" y="1191.3138111279998" text-anchor="start" dominant-baseline="alphabetic">return result</text></g><g><path fill="none" stroke="black" paint-order="fill stroke markers" d=" M 99.29070797014845 1198.3505140879997 L 442.48272266365365 1198.3505140879997" stroke-miterlimit="10" stroke-width="1.4659797833333332" stroke-dasharray="7.0367029599999995"/><g transform="translate(445.4146822303203,1198.3505140879997) translate(-445.4146822303203,-1198.3505140879997)"><path fill="black" stroke="none" paint-order="stroke fill markers" d=" M 430.75488439698694 1191.020615171333 L 445.4146822303203 1198.3505140879997 L 430.75488439698694 1205.6804130046664 Z"/></g></g><g><g><rect fill="white" stroke="none" x="625.2928533850013" y="1224.7381501879997" width="84.84800756667968" height="22.86928462"/></g><text fill="black" stroke="none" font-family="sans-serif" font-size="11pt" font-style="normal" font-weight="normal" text-decoration="normal" x="627.9316169950013" y="1240.5707318479997" text-anchor="start" dominant-baseline="alphabetic">return false</text></g><g><path fill="none" stroke="black" paint-order="fill stroke markers" d=" M 463.0064396303203 1247.6074348079997 L 869.4953151396952 1247.6074348079997" stroke-miterlimit="10" stroke-width="1.4659797833333332" stroke-dasharray="7.0367029599999995"/><g transform="translate(872.4272747063619,1247.6074348079997) translate(-872.4272747063619,-1247.6074348079997)"><path fill="black" stroke="none" paint-order="stroke fill markers" d=" M 857.7674768730286 1240.277535891333 L 872.4272747063619 1247.6074348079997 L 857.7674768730286 1254.9373337246664 Z"/></g></g><g><g><rect fill="white" stroke="none" x="910.8359450296953" y="1273.9950709079997" width="84.84800756667968" height="22.86928462"/></g><text fill="black" stroke="none" font-family="sans-serif" font-size="11pt" font-style="normal" font-weight="normal" text-decoration="normal" x="913.4747086396952" y="1289.8276525679996" text-anchor="start" dominant-baseline="alphabetic">return false</text></g><g><path fill="none" stroke="black" paint-order="fill stroke markers" d=" M 890.0190321063619 1296.8643555279996 L 960.3860617063619 1296.8643555279996 L 960.3860617063619 1314.4561129279996 L 892.9509916730286 1314.4561129279996" stroke-miterlimit="10" stroke-width="1.4659797833333332" stroke-dasharray="7.0367029599999995"/><g transform="translate(890.0190321063619,1314.4561129279996) translate(-890.0190321063619,-1314.4561129279996)"><path fill="black" stroke="none" paint-order="stroke fill markers" d=" M 904.6788299396952 1307.1262140113329 L 890.0190321063619 1314.4561129279996 L 904.6788299396952 1321.7860118446663 Z"/></g></g><g><g><rect fill="white" stroke="none" x="902.0400663296953" y="1340.8437490279996" width="81.06848180984375" height="22.86928462"/></g><text fill="black" stroke="none" font-family="sans-serif" font-size="11pt" font-style="normal" font-weight="normal" text-decoration="normal" x="904.6788299396952" y="1356.6763306879996" text-anchor="start" dominant-baseline="alphabetic">return true</text></g><g><path fill="none" stroke="black" paint-order="fill stroke markers" d=" M 881.2231534063619 1363.7130336479995 L 951.5901830063619 1363.7130336479995 L 951.5901830063619 1381.3047910479995 L 884.1551129730286 1381.3047910479995" stroke-miterlimit="10" stroke-width="1.4659797833333332" stroke-dasharray="7.0367029599999995"/><g transform="translate(881.2231534063619,1381.3047910479995) translate(-881.2231534063619,-1381.3047910479995)"><path fill="black" stroke="none" paint-order="stroke fill markers" d=" M 895.8829512396952 1373.9748921313328 L 881.2231534063619 1381.3047910479995 L 895.8829512396952 1388.6346899646662 Z"/></g></g><g><g><rect fill="white" stroke="none" x="612.0990353350013" y="1407.6924271479995" width="84.84800756667968" height="22.86928462"/></g><text fill="black" stroke="none" font-family="sans-serif" font-size="11pt" font-style="normal" font-weight="normal" text-decoration="normal" x="614.7377989450013" y="1423.5250088079995" text-anchor="start" dominant-baseline="alphabetic">return false</text></g><g><path fill="none" stroke="black" paint-order="fill stroke markers" d=" M 854.8355173063619 1430.5617117679994 L 457.14252049698695 1430.5617117679994" stroke-miterlimit="10" stroke-width="1.4659797833333332" stroke-dasharray="7.0367029599999995"/><g transform="translate(454.2105609303203,1430.5617117679994) translate(-454.2105609303203,-1430.5617117679994)"><path fill="black" stroke="none" paint-order="stroke fill markers" d=" M 468.87035876365366 1423.2318128513327 L 454.2105609303203 1430.5617117679994 L 468.87035876365366 1437.8916106846661 Z"/></g></g><g><g><rect fill="white" stroke="none" x="228.09112618069724" y="1456.9493478679994" width="5.27752722" height="22.86928462"/></g><text fill="black" stroke="none" font-family="sans-serif" font-size="11pt" font-style="normal" font-weight="normal" text-decoration="normal" x="230.72988979069726" y="1472.7819295279994" text-anchor="start" dominant-baseline="alphabetic"></text></g><g><path fill="none" stroke="black" paint-order="fill stroke markers" d=" M 436.6188035303203 1479.8186324879994 L 27.772935617740885 1479.8186324879994" stroke-miterlimit="10" stroke-width="1.4659797833333332" stroke-dasharray="7.0367029599999995"/><g transform="translate(24.840976051074218,1479.8186324879994) translate(-24.840976051074218,-1479.8186324879994)"><path fill="black" stroke="none" paint-order="stroke fill markers" d=" M 39.50077388440755 1472.4887335713327 L 24.840976051074218 1479.8186324879994 L 39.50077388440755 1487.148531404666 Z"/></g></g></g><g/><g/><g/></g></svg>