<svg version="1.1" xmlns="http://www.w3.org/2000/svg" xmlns:xlink="http://www.w3.org/1999/xlink" width="1408" height="934"><defs/><g><g/><g/><g/><g/><g/><g/><g/><g/><g/><g/><g/><g/><g/><g/><g><rect fill="white" stroke="none" x="0" y="0" width="1408" height="934"/></g><g><text fill="black" stroke="none" font-family="sans-serif" font-size="16.5pt" font-style="normal" font-weight="normal" text-decoration="normal" x="587.3173722259257" y="26.3876361" text-anchor="start" dominant-baseline="alphabetic">Clear Room Satus BCE</text></g><g/><g><path fill="none" stroke="black" paint-order="fill stroke markers" d=" M 24.891078284960937 139.67855375599999 L 24.891078284960937 934.8259882360001" stroke-miterlimit="10" stroke-width="1.4659797833333332" stroke-dasharray="13.532121076923076,5.863919133333333"/><path fill="none" stroke="black" paint-order="fill stroke markers" d=" M 153.62234380755208 139.67855375599999 L 153.62234380755208 934.8259882360001" stroke-miterlimit="10" stroke-width="1.4659797833333332" stroke-dasharray="13.532121076923076,5.863919133333333"/><path fill="none" stroke="black" paint-order="fill stroke markers" d=" M 291.14948803014323 139.67855375599999 L 291.14948803014323 934.8259882360001" stroke-miterlimit="10" stroke-width="1.4659797833333332" stroke-dasharray="13.532121076923076,5.863919133333333"/><path fill="none" stroke="black" paint-order="fill stroke markers" d=" M 566.2037764753255 139.67855375599999 L 566.2037764753255 934.8259882360001" stroke-miterlimit="10" stroke-width="1.4659797833333332" stroke-dasharray="13.532121076923076,5.863919133333333"/><path fill="none" stroke="black" paint-order="fill stroke markers" d=" M 818.0512320347657 139.67855375599999 L 818.0512320347657 934.8259882360001" stroke-miterlimit="10" stroke-width="1.4659797833333332" stroke-dasharray="13.532121076923076,5.863919133333333"/><path fill="none" stroke="black" paint-order="fill stroke markers" d=" M 951.6377710937826 139.67855375599999 L 951.6377710937826 934.8259882360001" stroke-miterlimit="10" stroke-width="1.4659797833333332" stroke-dasharray="13.532121076923076,5.863919133333333"/><path fill="none" stroke="black" paint-order="fill stroke markers" d=" M 1109.9629857244427 139.67855375599999 L 1109.9629857244427 934.8259882360001" stroke-miterlimit="10" stroke-width="1.4659797833333332" stroke-dasharray="13.532121076923076,5.863919133333333"/><path fill="none" stroke="black" paint-order="fill stroke markers" d=" M 1364.1582806393515 139.67855375599999 L 1364.1582806393515 934.8259882360001" stroke-miterlimit="10" stroke-width="1.4659797833333332" stroke-dasharray="13.532121076923076,5.863919133333333"/></g><g><g><path fill="white" stroke="black" paint-order="fill stroke markers" d=" M 34.91838000296094 65.265419954 A 10.027301717999999 10.027301717999999 0 1 1 34.91837498931049 65.25539265395321 M 24.891078284960937 75.29272167199998 L 24.891078284960937 96.75466569999998 M 12.225012956960938 83.033094928 L 37.557143612960935 83.033094928 M 24.891078284960937 96.75466569999998 L 12.225012956960938 116.80926913599998 M 24.891078284960937 96.75466569999998 L 37.557143612960935 116.80926913599998" stroke-miterlimit="10" stroke-width="2.990598758" stroke-dasharray=""/></g><g><g/><text fill="black" stroke="none" font-family="sans-serif" font-size="11pt" font-style="normal" font-weight="normal" text-decoration="normal" x="8.7958787" y="134.401026536" text-anchor="start" dominant-baseline="alphabetic">Staff</text></g><g><path fill="white" stroke="black" paint-order="fill stroke markers" d=" M 188.5419822465521 89.19021001799997 A 26.123759739 26.123759739 0 1 1 188.5419691846733 89.16408626261492 M 120.19800474755208 61.57115089999997 L 120.19800474755208 116.80926913599997 M 118.70270536855207 89.19021001799997 L 136.29446276855208 89.19021001799997" stroke-miterlimit="10" stroke-width="2.990598758" stroke-dasharray=""/></g><g><g/><text fill="black" stroke="none" font-family="sans-serif" font-size="11pt" font-style="normal" font-weight="normal" text-decoration="normal" x="136.8256442836263" y="134.401026536" text-anchor="start" dominant-baseline="alphabetic">Alert</text></g><g><path fill="white" stroke="black" paint-order="fill stroke markers" d=" M 326.0691264691432 89.19021001799997 A 26.123759739 26.123759739 0 1 1 326.06911340726447 89.16408626261492 M 257.72514897014327 61.57115089999997 L 257.72514897014327 116.80926913599997 M 256.22984959114325 89.19021001799997 L 273.82160699114326 89.19021001799997" stroke-miterlimit="10" stroke-width="2.990598758" stroke-dasharray=""/></g><g><g/><text fill="black" stroke="none" font-family="sans-serif" font-size="11pt" font-style="normal" font-weight="normal" text-decoration="normal" x="267.42722850865886" y="134.401026536" text-anchor="start" dominant-baseline="alphabetic">StaffUI</text></g><g><path fill="white" stroke="black" paint-order="fill stroke markers" d=" M 592.3275362143255 89.19021001799997 A 26.123759739 26.123759739 0 1 1 592.3275231524467 89.16408626261492 M 562.6854249953255 63.06645027899997 L 573.2404794353256 54.27057157899998 M 562.6854249953255 63.06645027899997 L 573.2404794353256 71.86232897899997" stroke-miterlimit="10" stroke-width="2.990598758" stroke-dasharray=""/></g><g><g/><text fill="black" stroke="none" font-family="sans-serif" font-size="11pt" font-style="normal" font-weight="normal" text-decoration="normal" x="511.87663566722006" y="134.401026536" text-anchor="start" dominant-baseline="alphabetic">BookingSystem</text></g><path fill="none" stroke="none"/><g><path fill="white" stroke="black" paint-order="fill stroke markers" d=" M 779.7945204095743 92.18080877599999 L 856.3079436599571 92.18080877599999 L 856.3079436599571 139.67855375599999 L 779.7945204095743 139.67855375599999 L 779.7945204095743 92.18080877599999 Z" stroke-miterlimit="10" stroke-width="2.814681184" stroke-dasharray=""/></g><g><g/><text fill="black" stroke="none" font-family="sans-serif" font-size="11pt" font-style="normal" font-weight="normal" text-decoration="normal" x="798.8815771885743" y="122.08679635600001" text-anchor="start" dominant-baseline="alphabetic">Hotel</text></g><g><path fill="white" stroke="black" paint-order="fill stroke markers" d=" M 977.7615308327826 86.79773101159998 A 26.123759739 26.123759739 0 1 1 977.7615177709038 86.77160725621492 M 924.0187119757826 115.31396975699997 L 976.2662314537826 115.31396975699997" stroke-miterlimit="10" stroke-width="2.990598758" stroke-dasharray=""/></g><g><g/><text fill="black" stroke="none" font-family="sans-serif" font-size="11pt" font-style="normal" font-weight="normal" text-decoration="normal" x="886.591231787142" y="134.401026536" text-anchor="start" dominant-baseline="alphabetic">Booking (selected)</text></g><path fill="none" stroke="none"/><g><path fill="white" stroke="black" paint-order="fill stroke markers" d=" M 1034.276067800423 92.18080877599999 L 1185.6499036484622 92.18080877599999 L 1185.6499036484622 139.67855375599999 L 1034.276067800423 139.67855375599999 L 1034.276067800423 92.18080877599999 Z" stroke-miterlimit="10" stroke-width="2.814681184" stroke-dasharray=""/></g><g><g/><text fill="black" stroke="none" font-family="sans-serif" font-size="11pt" font-style="normal" font-weight="normal" text-decoration="normal" x="1053.3631245794231" y="122.08679635600001" text-anchor="start" dominant-baseline="alphabetic">BookingMapper</text></g><g><path fill="white" stroke="black" paint-order="fill stroke markers" d=" M 1338.4743148353514 105.19870925199999 L 1338.4743148353514 68.25601871199999 L 1389.8422464433515 68.25601871199999 L 1389.8422464433515 105.19870925199999" stroke-miterlimit="10" stroke-width="2.990598758" stroke-dasharray=""/><path fill="white" stroke="black" paint-order="fill stroke markers" d=" M 1389.8422464433515 66.97182042179999 L 1389.8409622557629 67.08792408555635 L 1389.8371098214147 67.20401613904309 L 1389.8306895255475 67.3200849731516 L 1389.8217020101852 67.43611898109519 L 1389.8101481740719 67.55210655956978 L 1389.7960291725815 67.66803610991414 L 1389.7793464176027 67.78389603926989 L 1389.7601015773969 67.8996747617406 L 1389.7382965764318 68.01536069955054 L 1389.71393359519 68.1309422842023 L 1389.6870150699485 68.24640795763378 L 1389.657543692538 68.3617461733738 L 1389.6255224100717 68.47694539769695 L 1389.5909544246506 68.59199411077678 L 1389.553843193045 68.70688080783783 L 1389.5141924263469 68.82159400030618 L 1389.4720060896 68.93612221695814 L 1389.4272884014026 69.0504540050675 L 1389.3800438334865 69.16457793155072 L 1389.3302771102692 69.27848258411025 L 1389.2779932083813 69.39215657237577 L 1389.2231973561695 69.50558852904317 L 1389.1658950331735 69.61876711101131 L 1389.1060919695776 69.73168100051632 L 1389.0437941456385 69.84431890626333 L 1388.9790077910866 69.95666956455563 L 1388.9117393845033 70.06872174042103 L 1388.8419956526736 70.18046422873529 L 1388.769783569912 70.29188585534273 L 1388.695110357367 70.40297547817353 L 1388.6179834822974 70.51372198835797 L 1388.5384106573265 70.62411431133734 L 1388.4563998396707 70.73414140797132 L 1388.371959230343 70.84379227564195 L 1388.2850972733343 70.95305594935381 L 1388.1958226547677 71.06192150283061 L 1388.1041443020308 71.1703780496077 L 1388.0100713828826 71.27841474412082 L 1387.9136133045365 71.38602078279051 L 1387.8147797127199 71.4931854051026 L 1387.7135804907095 71.59989789468413 L 1387.6100257583435 71.7061475803751 L 1387.5041258710085 71.81192383729548 L 1387.395891418605 71.9172160879077 L 1387.2853332244886 72.02201380307447 L 1387.1724623443858 72.12630650311159 L 1387.057290065291 72.23008375883597 L 1386.9398279043362 72.33333519260853 L 1386.8200876076394 72.43605047937191 L 1386.6980811491305 72.53821934768304 L 1386.5738207293537 72.63983158074024 L 1386.4473187742476 72.74087701740487 L 1386.3185879339019 72.84134555321748 L 1386.1876410812938 72.94122714140819 L 1386.0544913109993 73.04051179390143 L 1385.9191519378842 73.13918958231469 L 1385.7816364957735 73.23725063895135 L 1385.6419587360963 73.33468515778748 L 1385.5001326265126 73.43148339545236 L 1385.356172349515 73.52763567220293 L 1385.2100923010112 73.6231323728916 L 1385.0619070888843 73.71796394792793 L 1384.911631531532 73.8121209142334 L 1384.759280656385 73.90559385618985 L 1384.6048696984037 73.998373426581 L 1384.4484140985555 74.09045034752711 L 1384.2899295022694 74.18181541141281 L 1384.1294317578736 74.27245948180787 L 1383.9669369150083 74.36237349438078 L 1383.8024612230229 74.45154845780519 L 1383.636021129349 74.53997545465909 L 1383.4676332778574 74.62764564231648 L 1383.2973145071933 74.71455025383165 L 1383.1250818490914 74.80068059881587 L 1382.9509525266742 74.88602806430642 L 1382.7749439527286 74.97058411562787 L 1382.5970737279656 75.05434029724555 L 1382.4173596392595 75.13728823361109 L 1382.2358196578691 75.21941962999999 L 1382.0524719376415 75.30072627334106 L 1381.8673348131956 75.38120003303769 L 1381.6804267980901 75.46083286178099 L 1381.4917665829703 75.53961679635444 L 1381.3013730337009 75.61754395843025 L 1381.1092651894776 75.69460655535714 L 1380.9154622609253 75.77079688093964 L 1380.719983628175 75.84610731620869 L 1380.5228488389273 75.9205303301835 L 1380.3240776064965 75.99405848062472 L 1380.1236898078407 76.06668441477855 L 1379.9217054815724 76.13840087011211 L 1379.718144825956 76.20920067503964 L 1379.5130281968875 76.27907674963963 L 1379.3063761058588 76.34802210636286 L 1379.098209217907 76.4160298507311 L 1378.888548349547 76.48309318202661 L 1378.6774144666913 76.54920539397213 L 1378.464828682552 76.61435987540155 L 1378.2508122555305 76.67855011092104 L 1378.0353865870911 76.74176968156053 L 1377.8185732196212 76.80401226541565 L 1377.6003938342767 76.86527163827986 L 1377.3808702488145 76.92554167426694 L 1377.1600244154101 76.98481634642351 L 1376.937878418463 77.04308972733178 L 1376.7144544723876 77.10035598970217 L 1376.4897749193922 77.15660940695618 L 1376.263862227245 77.21184435379898 L 1376.036738987027 77.26605530678191 L 1375.808427910873 77.31923684485484 L 1375.5789518297001 77.37138364990828 L 1375.3483336909255 77.42249050730518 L 1375.1165965561709 77.4725523064024 L 1374.8837635989562 77.52156404106174 L 1374.6498581023836 77.56952081015058 L 1374.4149034568077 77.61641781803196 L 1374.1789231574971 77.6622503750442 L 1373.9419408022852 77.70701389796976 L 1373.70398008921 77.75070391049368 L 1373.4650648141446 77.7933160436511 L 1373.2252188684172 77.83484603626422 L 1372.9844662364228 77.87528973536838 L 1372.7428309932238 77.91464309662739 L 1372.5003373021432 77.9529021847379 L 1372.257009412348 77.99006317382297 L 1372.0128716564245 78.02612234781469 L 1371.7679484479445 78.0610761008257 L 1371.5222642790252 78.09492093750981 L 1371.2758437178786 78.12765347341158 L 1371.0287114063553 78.15927043530469 L 1370.7808920574807 78.18976866151928 L 1370.5324104529832 78.21914510225817 L 1370.2832914408161 78.24739681990175 L 1370.033559932673 78.27452098930179 L 1369.7832409014964 78.30051489806398 L 1369.5323593789813 78.32537594681908 L 1369.2809404530703 78.34910164948295 L 1369.0290092654473 78.37168963350508 L 1368.7765910090202 78.39313764010592 L 1368.5237109254049 78.41344352450264 L 1368.2703943023987 78.43260525612375 L 1368.016666471453 78.45062091881205 L 1367.7625528051394 78.46748871101629 L 1367.5080787146128 78.48320694597129 L 1367.2532696470703 78.49777405186667 L 1366.9981510832058 78.51118857200397 L 1366.7427485346639 78.52344916494236 L 1366.4870875414858 78.53455460463276 L 1366.2311936695585 78.54450378054045 L 1365.9750925080555 78.55329569775614 L 1365.7188096668795 78.56092947709544 L 1365.4623707741011 78.56740435518677 L 1365.2058014733961 78.57271968454769 L 1364.9491274214809 78.57687493364975 L 1364.692374285546 78.57986968697145 L 1364.435567740692 78.58170364504 L 1364.1787334673588 78.58237662446106 L 1363.9218971487596 78.58188855793732 L 1363.665084468313 78.58023949427498 L 1363.408321107072 78.57742959837903 L 1363.1516327411593 78.57345915123673 L 1362.8950450391978 78.56832854988951 L 1362.6385836597435 78.56203830739318 L 1362.382274248721 78.5545890527668 L 1362.1261424368572 78.54598153092958 L 1361.8702138371204 78.53621660262655 L 1361.614514042157 78.5252952443424 L 1361.3590686217335 78.51321854820387 L 1361.1039031201792 78.4999877218705 L 1360.8490430538316 78.48560408841388 L 1360.5945139084847 78.4700690861854 L 1360.340341136841 78.45338426867232 L 1360.086550155966 78.4355513043425 L 1359.8331663447464 78.41657197647748 L 1359.580215041352 78.39644818299428 L 1359.3277215407022 78.37518193625543 L 1359.075711091937 78.35277536286792 L 1358.824208895891 78.32923070347039 L 1358.5732401025743 78.30455031250918 L 1358.322829808657 78.2787366580028 L 1358.07300305496 78.2517923212952 L 1357.8237848239503 78.2237199967976 L 1357.5752000372436 78.19452249171906 L 1357.3272735531111 78.16420272578573 L 1357.0800301639947 78.13276373094897 L 1356.8334945940273 78.10020865108203 L 1356.5876914965606 78.0665407416658 L 1356.3426454516994 78.03176336946316 L 1356.0983809638437 77.99588001218234 L 1355.8549224592393 77.95889425812916 L 1355.6122942835332 77.92080980584822 L 1355.3705206993411 77.881630463753 L 1355.1296258838202 77.84136014974506 L 1354.8896339262506 77.80000289082224 L 1354.6505688256286 77.75756282267598 L 1354.412454488265 77.71404418927773 L 1354.1753147253949 77.66945134245454 L 1353.9391732507972 77.62378874145395 L 1353.7040536784225 77.57706095249802 L 1353.4699795200318 77.52927264832667 L 1353.2369741828463 77.48042860773052 L 1353.0050609672055 77.43053371507293 L 1352.7742630642374 77.37959295980157 L 1352.5446035535404 77.32761143594954 L 1352.3161054008738 77.27459434162587 L 1352.0887914558625 77.22054697849586 L 1351.8626844497119 77.16547475125074 L 1351.6378069929337 77.10938316706736 L 1351.4141815730866 77.0522778350574 L 1351.1918305525262 76.99416446570646 L 1350.970776166169 76.93504887030305 L 1350.7510405192695 76.87493696035746 L 1350.5326455852094 76.81383474701059 L 1350.3156132033002 76.75174834043284 L 1350.099965076599 76.68868394921314 L 1349.8857227697388 76.62464787973806 L 1349.6729077067719 76.5596465355612 L 1349.461541169027 76.49368641676277 L 1349.251644292982 76.42677411929971 L 1349.0432380681493 76.358916334346 L 1348.8363433349782 76.2901198476236 L 1348.630980782769 76.22039153872383 L 1348.4271709476063 76.14973838041949 L 1348.2249342103037 76.07816743796754 L 1348.024290794366 76.00568586840255 L 1347.825260763968 75.9323009198211 L 1347.6278640219464 75.8580199306569 L 1347.4321203078116 75.78285032894695 L 1347.2380491957713 75.70679963158878 L 1347.0456700927755 75.62987544358876 L 1346.8550022365737 75.55208545730159 L 1346.6660646937928 75.47343745166106 L 1346.4788763580298 75.3939392914022 L 1346.293455947962 75.31359892627479 L 1346.109822005476 75.2324243902484 L 1345.927992893813 75.15042380070896 L 1345.747986795733 75.06760535764712 L 1345.5698217116953 74.98397734283817 L 1345.3935154580602 74.89954811901389 L 1345.2190856653058 74.8143261290263 L 1345.0465497762661 74.72831989500338 L 1344.8759250443866 74.64153801749687 L 1344.7072285319978 74.5539891746222 L 1344.5404771086107 74.46568212119071 L 1344.3756874492285 74.37662568783415 L 1344.21287603268 74.28682878012162 L 1344.0520591399709 74.19630037766909 L 1343.8932528526566 74.10504953324134 L 1343.7364730512336 74.0130853718468 L 1343.5817354135513 73.92041708982494 L 1343.4290554132444 73.82705395392676 L 1343.2784483181858 73.73300530038806 L 1343.1299291889597 73.63828053399578 L 1342.983512877355 73.54288912714766 L 1342.839214024881 73.44684061890487 L 1342.6970470613023 73.3501446140382 L 1342.5570262031974 73.25281078206757 L 1342.419165452535 73.15484885629505 L 1342.2834785952755 73.05626863283157 L 1342.1499791999913 72.95707996961737 L 1342.0186806165111 72.85729278543607 L 1341.8895959745835 72.75691705892295 L 1341.762738182565 72.65596282756702 L 1341.6381199261295 72.5544401867073 L 1341.5157536669985 72.45235928852324 L 1341.395651641696 72.34973034101961 L 1341.2778258603246 72.24656360700563 L 1341.162288105364 72.14286940306874 L 1341.0490499304935 72.03865809854291 L 1340.9381226594364 71.93394011447177 L 1340.829517384827 71.82872592256643 L 1340.7232449671028 71.72302604415843 L 1340.6193160334165 71.61685104914753 L 1340.5177409765752 71.51021155494473 L 1340.4185299539995 71.4031182254106 L 1340.3216928867096 71.29558176978884 L 1340.227239458331 71.1876129416354 L 1340.135179114128 71.07922253774314 L 1340.0455210600585 70.9704213970621 L 1339.958274261853 70.86122039961568 L 1339.8734474441185 70.75163046541265 L 1339.7910490894665 70.64166255335508 L 1339.7110874376633 70.53132766014255 L 1339.6335704848077 70.42063681917243 L 1339.5585059825303 70.30960109943658 L 1339.4859014372191 70.19823160441445 L 1339.4157641092677 70.0865394709627 L 1339.3481010123505 69.97453586820164 L 1339.282918912721 69.86223199639821 L 1339.2202243285349 69.74963908584596 L 1339.160023529198 69.63676839574217 L 1339.1023225347406 69.52363121306175 L 1339.0471271152137 69.41023885142872 L 1338.9944427901132 69.29660264998472 L 1338.9442748278277 69.18273397225522 L 1338.896628245112 69.0686442050131 L 1338.8515078065843 68.95434475714 L 1338.808918024251 68.83984705848547 L 1338.7688631570547 68.72516255872397 L 1338.731347210449 68.61030272620987 L 1338.6963739359971 68.49527904683073 L 1338.6639468309975 68.38010302285863 L 1338.6340691381333 68.2647861718 L 1338.6067438451494 68.14934002524383 L 1338.5819736845517 68.03377612770858 L 1338.5597611333362 67.9181060354877 L 1338.540108412739 67.80234131549402 L 1338.5230174880164 67.68649354410306 L 1338.5084900682461 67.57057430599544 L 1338.4965276061582 67.45459519299835 L 1338.4871312979888 67.33856780292646 L 1338.480302083361 67.22250373842208 L 1338.4760406451908 67.10641460579494 L 1338.474347409618 66.99031201386155 L 1338.475222545965 66.87420757278437 L 1338.4786659667188 66.75811289291076 L 1338.4846773275403 66.64203958361193 L 1338.4932560272985 66.52599925212212 L 1338.5044012081303 66.41000350237775 L 1338.5181117555271 66.29406393385715 L 1338.5343862984455 66.17819214042055 L 1338.553223209445 66.06239970915072 L 1338.57462060485 65.94669821919432 L 1338.5985763449387 65.8310992406039 L 1338.625088034157 65.71561433318102 L 1338.6541530213585 65.60025504532017 L 1338.6857684000684 65.48503291285398 L 1338.719931008775 65.36995945789971 L 1338.7566374312462 65.25504618770695 L 1338.7958839968703 65.14030459350695 L 1338.8376667810232 65.02574614936354 L 1338.8819816054618 64.91138231102563 L 1338.9288240387402 64.79722451478179 L 1338.978189396654 64.68328417631649 L 1339.0300727427089 64.56957268956862 L 1339.0844688886132 64.45610142559212 L 1339.141372394798 64.3428817314188 L 1339.2007775709599 64.22992492892377 L 1339.2626784766305 64.1172423136931 L 1339.3270689217713 64.00484515389444 L 1339.3939424673913 63.89274468915009 L 1339.4632924261916 63.78095212941312 L 1339.535111863234 63.66947865384635 L 1339.609393596635 63.558335409704426 L 1339.6861301982829 63.447533511219156 L 1339.7653139945812 63.337084038488044 L 1339.846937067217 63.226998036366325 L 1339.9309912539502 63.11728651336247 L 1340.017468149433 63.00796044053737 L 1340.1063591060472 62.899030750407185 L 1340.1976552347717 62.790508335850156 L 1340.2913474060695 62.682404049017315 L 1340.3874262508016 62.57472870024724 L 1340.4858821611635 62.4674930569851 L 1340.5867052916465 62.36070784270584 L 1340.6898855600211 62.25438373584191 L 1340.7954126483469 62.148531368715396 L 1340.9032760040027 62.04316132647479 L 1341.013464840743 61.938284146036516 L 1341.1259681397758 61.83391031503122 L 1341.240774650865 61.73005027075502 L 1341.3578728934551 61.6267143991258 L 1341.4772511578196 61.52391303364461 L 1341.5988975062317 61.42165645436233 L 1341.7227997741575 61.31995488685167 L 1341.8489455714735 61.21881850118463 L 1341.9773222837055 61.1182574109155 L 1342.1079170732887 61.018281672069506 L 1342.2407168808536 60.91890128213721 L 1342.3757084265296 60.82012617907481 L 1342.5128782112747 60.72196624031029 L 1342.652212518225 60.62443128175571 L 1342.7936974140657 60.52753105682567 L 1342.9373187504252 60.431275255461905 L 1343.0830621652894 60.33567350316434 L 1343.2309130844385 60.24073536002853 L 1343.3808567229037 60.14647031978968 L 1343.5328780864459 60.05288780887326 L 1343.6869619730558 59.959997185452366 L 1343.843092974473 59.86780773851195 L 1344.0012554777272 59.77632868691987 L 1344.1614336667003 59.68556917850505 L 1344.3236115237064 59.59553828914271 L 1344.4877728310955 59.50624502184675 L 1344.6539011728732 59.41769830586949 L 1344.8219799363442 59.32990699580875 L 1344.9919923137718 59.24287987072236 L 1345.16392130406 59.15662563325033 L 1345.3377497144534 59.0711529087445 L 1345.5134601622553 58.986470244406114 L 1345.691035076568 58.90258610843103 L 1345.8704567000473 58.81950888916295 L 1346.0517070906808 58.737246894254554 L 1346.2347681235806 58.65580834983679 L 1346.4196214927956 58.57520139969624 L 1346.606248713143 58.49543410446074 L 1346.7946311220564 58.41651444079334 L 1346.984749881452 58.33845030059465 L 1347.1765859796121 58.26124949021362 L 1347.370120233087 58.18491972966697 L 1347.5653332886122 58.10946865186714 L 1347.762205625045 58.03490380185903 L 1347.960717555316 57.96123263606552 L 1348.1608492283976 57.88846252154177 L 1348.3625806312891 57.816600735238616 L 1348.5658915910183 57.74565446327479 L 1348.7707617766587 57.67563080021837 L 1348.9771707013624 57.60653674837731 L 1349.1850977244092 57.53837921709922 L 1349.3945220532698 57.47116502208042 L 1349.605422745686 57.40490088468441 L 1349.817778711764 57.3395934312697 L 1350.0315687160846 57.27524919252721 L 1350.246771379825 57.21187460282721 L 1350.4633651828988 57.14947599957584 L 1350.6813284661057 57.088059622581426 L 1350.9006394332994 57.02763161343051 L 1351.1212761535655 56.96819801487362 L 1351.343216563416 56.9097647702211 L 1351.5664384689949 56.85233772274873 L 1351.7909195482978 56.79592261511338 L 1352.0166373534037 56.74052508877882 L 1352.2435693127202 56.6861506834515 L 1352.4716927332404 56.63280483652666 L 1352.7009848028124 56.58049288254453 L 1352.9314225924204 56.52922005265691 L 1353.1629830584773 56.47899147410408 L 1353.3956430451296 56.42981216970201 L 1353.6293792865727 56.38168705734017 L 1353.8641684093768 56.334620949489704 L 1354.0999869348254 56.28861855272216 L 1354.336811281263 56.24368446723889 L 1354.5746177664514 56.199823186410995 L 1354.813382609941 56.157039096329996 L 1355.053081935446 56.11533647536926 L 1355.2936917732338 56.07471949375613 L 1355.5351880625212 56.035192213154914 L 1355.7775466538803 55.99675858626073 L 1356.020743311654 55.959422456404255 L 1356.2647537163793 55.923187557167346 L 1356.509553467219 55.88805751200974 L 1356.7551180844018 55.85403583390668 L 1357.001423011671 55.82112592499761 L 1357.248443618739 55.78933107624601 L 1357.4961552037507 55.758654467110254 L 1357.7445329957543 55.72909916522569 L 1357.9935521571774 55.70066812609789 L 1358.2431877863116 55.67336419280706 L 1358.4934149198018 55.64719009572377 L 1358.7442085351431 55.62214845223594 L 1358.9955435531833 55.598241766487035 L 1359.2473948406298 55.57547242912571 L 1359.4997372125638 55.55384271706673 L 1359.7525454349584 55.533354793263264 L 1360.005794227202 55.51401070649064 L 1360.2594582646263 55.4958123911414 L 1360.5135121810392 55.47876166703191 L 1360.7679305712606 55.46286023922039 L 1361.0226879936636 55.44810969783636 L 1361.277758972718 55.434511517921656 L 1361.5331180015387 55.42206705928295 L 1361.7887395444357 55.41077756635575 L 1362.0445980394672 55.40064416807991 L 1362.3006679009977 55.39166787778682 L 1362.5569235222538 55.38384959309805 L 1362.8133392778873 55.37719009583553 L 1363.0698895265361 55.37169005194345 L 1363.3265486133891 55.36735001142162 L 1363.5832908727518 55.36417040827046 L 1363.840090630612 55.36215156044765 L 1364.0969222072076 55.36129366983628 L 1364.3537599195956 55.3615968222247 L 1364.6105780842183 55.363060987297914 L 1364.8673510194735 55.36568601864066 L 1365.1240530482817 55.369471653751965 L 1365.3806585006535 55.37441751407148 L 1365.637141716258 55.3805231050173 L 1365.8934770469873 55.38778781603543 L 1366.1496388595217 55.39621092066079 L 1366.4056015378935 55.40579157658996 L 1366.6613394860483 55.41652882576533 L 1366.9168271304043 55.428421594470926 L 1367.17203892241 55.44146869343979 L 1367.4269493410986 55.45566881797289 L 1367.681532895641 55.47102054806961 L 1367.9357641278941 55.48752234856974 L 1368.189617614946 55.50517256930697 L 1368.4430679716597 55.52396944527395 L 1368.696089853211 55.54391109679874 L 1368.9486579576223 55.56499552973279 L 1369.2007470282938 55.587220635650404 L 1369.4523318565284 55.61058419205949 L 1369.7033872840532 55.63508386262389 L 1369.9538882055342 55.660717197396956 L 1370.2038095710882 55.687481633066575 L 1370.453126388787 55.715374493211485 L 1370.7018137271566 55.744392988568904 L 1370.9498467176704 55.7745342173135 L 1371.1972005572359 55.8057951653475 L 1371.4438505106752 55.83817270660215 L 1371.689771913199 55.871663603350314 L 1371.9349401728714 55.90626450653023 L 1372.1793307730711 55.941971956080394 L 1372.4229192749415 55.97878238128563 L 1372.6656813198356 56.01669210113408 L 1372.907592631751 56.055697324685354 L 1373.1486290197583 56.095794151449596 L 1373.3887663804196 56.136978571777554 L 1373.6279807001988 56.17924646726151 L 1373.8662480578632 56.22259361114713 L 1374.1035446268759 56.267015668756166 L 1374.3398466777774 56.31250819791986 L 1374.5751305805595 56.35906664942321 L 1374.8093728070285 56.40668636745987 L 1375.0425499331564 56.455362590097714 L 1375.274638641425 56.505090449755045 L 1375.5056157231572 56.55586497368733 L 1375.7354580808371 56.60768108448449 L 1375.9641427304205 56.66053360057863 L 1376.1916468036327 56.71441723676219 L 1376.4179475502565 56.76932660471643 L 1376.6430223404054 56.82525621355034 L 1376.8668486667882 56.88220047034963 L 1377.0894041469587 56.940153680736074 L 1377.3106665255543 56.999110049436936 L 1377.5306136765216 57.05906368086447 L 1377.749223605329 57.120008579705484 L 1377.9664744511651 57.1819386515209 L 1378.1823444891272 57.244847703355134 L 1378.3968121323908 57.308729444355436 L 1378.6098559343704 57.373577486400926 L 1378.8214545908636 57.439385344741446 L 1379.0315869421809 57.506146438646006 L 1379.2402319752623 57.57385409206084 L 1379.4473688257783 57.642501534277045 L 1379.6529767802167 57.712081900607586 L 1379.857035277953 57.78258823307383 L 1380.0595239133077 57.854013481101276 L 1380.2604224375862 57.92635050222464 L 1380.459710761103 57.99959206280211 L 1380.6573689551924 58.07373083873863 L 1380.8533772541991 58.14875941621842 L 1381.0477160574571 58.224670292446234 L 1381.2403659312477 58.30145587639771 L 1381.4313076107442 58.379108489578456 L 1381.6205220019376 58.45762036679186 L 1381.8079901835465 58.53698365691561 L 1381.9936934089092 58.61719042368684 L 1382.1776131078575 58.698232646495725 L 1382.3597308885753 58.7801022211875 L 1382.5400285394358 58.86279096087293 L 1382.7184880308243 58.94629059674695 L 1382.8950915169407 59.03059277891555 L 1383.069821337583 59.115689077230776 L 1383.2426600199153 59.2015709821337 L 1383.4135902802132 59.2882299055054 L 1383.5825950255928 59.375657181525774 L 1383.7496573557207 59.46384406754005 L 1383.9147605645032 59.55278174493313 L 1384.0778881417568 59.642461320011385 L 1384.2390237748596 59.73287382489204 L 1384.398151350383 59.82401021839995 L 1384.5552549557017 59.91586138697171 L 1384.710318880586 60.008418145567006 L 1384.8633276187732 60.10167123858711 L 1385.0142658695163 60.195611340800426 L 1385.1631185391163 60.29022905827503 L 1385.3098707424306 60.385514929318006 L 1385.4545078043607 60.48145942542166 L 1385.5970152613208 60.57805295221634 L 1385.7373788626846 60.67528585042985 L 1385.8755845722085 60.77314839685341 L 1386.011618569437 60.87163080531391 L 1386.1454672510833 60.97072322765259 L 1386.277117232391 61.07041575470979 L 1386.4065553484718 61.170698417315876 L 1386.5337686556218 61.271561187288164 L 1386.6587444326165 61.3729939784337 L 1386.781470181982 61.47498664755789 L 1386.901933631246 61.577528995478836 L 1387.0201227341636 61.68061076804718 L 1387.1360256719233 61.78422165717158 L 1387.249630854328 61.88835130184945 L 1387.3609269209535 61.99298928920311 L 1387.4699027422866 62.09812515552101 L 1387.5765474208356 62.203748387304145 L 1387.6808502922217 62.30984842231735 L 1387.7828009262446 62.416414650645535 L 1387.8823891279258 62.52343641575468 L 1387.9796049385282 62.63090301555746 L 1388.0744386365516 62.73880370348344 L 1388.1668807387055 62.847127689553744 L 1388.2569220008563 62.95586414146005 L 1388.3445534189532 63.065002185647764 L 1388.4297662299275 63.174530908403426 L 1388.5125519125688 63.28443935694603 L 1388.5929021883778 63.39471654052231 L 1388.6708090223942 63.50535143150581 L 1388.7462646239992 63.61633296649962 L 1388.8192614476957 63.72765004744274 L 1388.8897921938621 63.83929154271982 L 1388.9578498094827 63.951246288274376 L 1389.0234274888523 64.06350308872516 L 1389.086518674258 64.17605071848564 L 1389.1471170566338 64.28887792288667 L 1389.2052165761916 64.40197341930181 L 1389.2608114230281 64.51532589827566 L 1389.313896037705 64.6289240246548 L 1389.364465111805 64.74275643872124 L 1389.4125135884628 64.85681175732844 L 1389.4580366628709 64.97107857503958 L 1389.5010297827598 65.08554546526814 L 1389.541488648853 65.20020098142045 L 1389.579409215298 65.31503365804045 L 1389.6147876900695 65.43003201195617 L 1389.6476205353497 65.54518454342806 L 1389.6779044678815 65.66047973729893 L 1389.7056364592966 65.77590606414547 L 1389.730813736419 65.89145198143119 L 1389.753433781542 66.00710593466063 L 1389.7734943326802 66.12285635853486 L 1389.790993383795 66.23869167810795 L 1389.8059291849956 66.35460030994449 L 1389.818300242715 66.47057066327784 L 1389.828105319857 66.58659114116935 L 1389.8353434359226 66.70265014166789 L 1389.840013867106 66.81873605897015 L 1389.842116146368 66.9348372845811 M 1389.8422464433515 103.91451096179999 L 1389.8409622557629 104.03061462555635 L 1389.8371098214147 104.14670667904309 L 1389.8306895255475 104.2627755131516 L 1389.8217020101852 104.37880952109519 L 1389.8101481740719 104.49479709956978 L 1389.7960291725815 104.61072664991414 L 1389.7793464176027 104.72658657926989 L 1389.7601015773969 104.8423653017406 L 1389.7382965764318 104.95805123955054 L 1389.71393359519 105.0736328242023 L 1389.6870150699485 105.18909849763378 L 1389.657543692538 105.3044367133738 L 1389.6255224100717 105.41963593769695 L 1389.5909544246506 105.53468465077678 L 1389.553843193045 105.64957134783783 L 1389.5141924263469 105.76428454030618 L 1389.4720060896 105.87881275695814 L 1389.4272884014026 105.9931445450675 L 1389.3800438334865 106.10726847155073 L 1389.3302771102692 106.22117312411025 L 1389.2779932083813 106.33484711237577 L 1389.2231973561695 106.44827906904317 L 1389.1658950331735 106.56145765101131 L 1389.1060919695776 106.67437154051632 L 1389.0437941456385 106.78700944626333 L 1388.9790077910866 106.89936010455563 L 1388.9117393845033 107.01141228042103 L 1388.8419956526736 107.12315476873529 L 1388.769783569912 107.23457639534273 L 1388.695110357367 107.34566601817353 L 1388.6179834822974 107.45641252835797 L 1388.5384106573265 107.56680485133734 L 1388.4563998396707 107.67683194797132 L 1388.371959230343 107.78648281564195 L 1388.2850972733343 107.89574648935381 L 1388.1958226547677 108.00461204283062 L 1388.1041443020308 108.1130685896077 L 1388.0100713828826 108.22110528412082 L 1387.9136133045365 108.32871132279051 L 1387.8147797127199 108.4358759451026 L 1387.7135804907095 108.54258843468413 L 1387.6100257583435 108.6488381203751 L 1387.5041258710085 108.75461437729548 L 1387.395891418605 108.8599066279077 L 1387.2853332244886 108.96470434307447 L 1387.1724623443858 109.0689970431116 L 1387.057290065291 109.17277429883598 L 1386.9398279043362 109.27602573260853 L 1386.8200876076394 109.37874101937192 L 1386.6980811491305 109.48090988768304 L 1386.5738207293537 109.58252212074024 L 1386.4473187742476 109.68356755740487 L 1386.3185879339019 109.78403609321748 L 1386.1876410812938 109.88391768140819 L 1386.0544913109993 109.98320233390143 L 1385.9191519378842 110.08188012231469 L 1385.7816364957735 110.17994117895135 L 1385.6419587360963 110.27737569778748 L 1385.5001326265126 110.37417393545236 L 1385.356172349515 110.47032621220293 L 1385.2100923010112 110.5658229128916 L 1385.0619070888843 110.66065448792793 L 1384.911631531532 110.7548114542334 L 1384.759280656385 110.84828439618985 L 1384.6048696984037 110.941063966581 L 1384.4484140985555 111.03314088752711 L 1384.2899295022694 111.12450595141281 L 1384.1294317578736 111.21515002180787 L 1383.9669369150083 111.30506403438078 L 1383.8024612230229 111.39423899780519 L 1383.636021129349 111.48266599465909 L 1383.4676332778574 111.57033618231648 L 1383.2973145071933 111.65724079383165 L 1383.1250818490914 111.74337113881587 L 1382.9509525266742 111.82871860430642 L 1382.7749439527286 111.91327465562787 L 1382.5970737279656 111.99703083724555 L 1382.4173596392595 112.07997877361109 L 1382.2358196578691 112.16211016999999 L 1382.0524719376415 112.24341681334106 L 1381.8673348131956 112.32389057303769 L 1381.6804267980901 112.40352340178099 L 1381.4917665829703 112.48230733635444 L 1381.3013730337009 112.56023449843025 L 1381.1092651894776 112.63729709535714 L 1380.9154622609253 112.71348742093964 L 1380.719983628175 112.78879785620869 L 1380.5228488389273 112.8632208701835 L 1380.3240776064965 112.93674902062472 L 1380.1236898078407 113.00937495477855 L 1379.9217054815724 113.08109141011211 L 1379.718144825956 113.15189121503964 L 1379.5130281968875 113.22176728963963 L 1379.3063761058588 113.29071264636286 L 1379.098209217907 113.35872039073111 L 1378.888548349547 113.42578372202661 L 1378.6774144666913 113.49189593397213 L 1378.464828682552 113.55705041540155 L 1378.2508122555305 113.62124065092104 L 1378.0353865870911 113.68446022156053 L 1377.8185732196212 113.74670280541565 L 1377.6003938342767 113.80796217827987 L 1377.3808702488145 113.86823221426694 L 1377.1600244154101 113.92750688642352 L 1376.937878418463 113.98578026733178 L 1376.7144544723876 114.04304652970217 L 1376.4897749193922 114.09929994695618 L 1376.263862227245 114.15453489379898 L 1376.036738987027 114.20874584678191 L 1375.808427910873 114.26192738485484 L 1375.5789518297001 114.31407418990828 L 1375.3483336909255 114.36518104730519 L 1375.1165965561709 114.4152428464024 L 1374.8837635989562 114.46425458106174 L 1374.6498581023836 114.51221135015058 L 1374.4149034568077 114.55910835803196 L 1374.1789231574971 114.6049409150442 L 1373.9419408022852 114.64970443796976 L 1373.70398008921 114.69339445049368 L 1373.4650648141446 114.7360065836511 L 1373.2252188684172 114.77753657626423 L 1372.9844662364228 114.81798027536838 L 1372.7428309932238 114.85733363662739 L 1372.5003373021432 114.8955927247379 L 1372.257009412348 114.93275371382298 L 1372.0128716564245 114.96881288781469 L 1371.7679484479445 115.0037666408257 L 1371.5222642790252 115.03761147750981 L 1371.2758437178786 115.07034401341159 L 1371.0287114063553 115.10196097530469 L 1370.7808920574807 115.13245920151928 L 1370.5324104529832 115.16183564225817 L 1370.2832914408161 115.19008735990175 L 1370.033559932673 115.21721152930179 L 1369.7832409014964 115.24320543806398 L 1369.5323593789813 115.26806648681908 L 1369.2809404530703 115.29179218948295 L 1369.0290092654473 115.31438017350509 L 1368.7765910090202 115.33582818010592 L 1368.5237109254049 115.35613406450264 L 1368.2703943023987 115.37529579612375 L 1368.016666471453 115.39331145881205 L 1367.7625528051394 115.41017925101629 L 1367.5080787146128 115.42589748597129 L 1367.2532696470703 115.44046459186667 L 1366.9981510832058 115.45387911200397 L 1366.7427485346639 115.46613970494236 L 1366.4870875414858 115.47724514463276 L 1366.2311936695585 115.48719432054045 L 1365.9750925080555 115.49598623775614 L 1365.7188096668795 115.50362001709544 L 1365.4623707741011 115.51009489518677 L 1365.2058014733961 115.5154102245477 L 1364.9491274214809 115.51956547364975 L 1364.692374285546 115.52256022697145 L 1364.435567740692 115.52439418504 L 1364.1787334673588 115.52506716446106 L 1363.9218971487596 115.52457909793732 L 1363.665084468313 115.52293003427498 L 1363.408321107072 115.52012013837903 L 1363.1516327411593 115.51614969123673 L 1362.8950450391978 115.51101908988952 L 1362.6385836597435 115.50472884739318 L 1362.382274248721 115.4972795927668 L 1362.1261424368572 115.48867207092958 L 1361.8702138371204 115.47890714262655 L 1361.614514042157 115.4679857843424 L 1361.3590686217335 115.45590908820387 L 1361.1039031201792 115.4426782618705 L 1360.8490430538316 115.42829462841388 L 1360.5945139084847 115.4127596261854 L 1360.340341136841 115.39607480867232 L 1360.086550155966 115.3782418443425 L 1359.8331663447464 115.35926251647749 L 1359.580215041352 115.33913872299428 L 1359.3277215407022 115.31787247625543 L 1359.075711091937 115.29546590286792 L 1358.824208895891 115.27192124347039 L 1358.5732401025743 115.24724085250918 L 1358.322829808657 115.2214271980028 L 1358.07300305496 115.1944828612952 L 1357.8237848239503 115.1664105367976 L 1357.5752000372436 115.13721303171906 L 1357.3272735531111 115.10689326578573 L 1357.0800301639947 115.07545427094897 L 1356.8334945940273 115.04289919108203 L 1356.5876914965606 115.0092312816658 L 1356.3426454516994 114.97445390946316 L 1356.0983809638437 114.93857055218234 L 1355.8549224592393 114.90158479812916 L 1355.6122942835332 114.86350034584822 L 1355.3705206993411 114.824321003753 L 1355.1296258838202 114.78405068974506 L 1354.8896339262506 114.74269343082224 L 1354.6505688256286 114.70025336267598 L 1354.412454488265 114.65673472927773 L 1354.1753147253949 114.61214188245454 L 1353.9391732507972 114.56647928145395 L 1353.7040536784225 114.51975149249802 L 1353.4699795200318 114.47196318832667 L 1353.2369741828463 114.42311914773052 L 1353.0050609672055 114.37322425507293 L 1352.7742630642374 114.32228349980157 L 1352.5446035535404 114.27030197594954 L 1352.3161054008738 114.21728488162587 L 1352.0887914558625 114.16323751849586 L 1351.8626844497119 114.10816529125074 L 1351.6378069929337 114.05207370706736 L 1351.4141815730866 113.9949683750574 L 1351.1918305525262 113.93685500570646 L 1350.970776166169 113.87773941030305 L 1350.7510405192695 113.81762750035746 L 1350.5326455852094 113.75652528701059 L 1350.3156132033002 113.69443888043284 L 1350.099965076599 113.63137448921314 L 1349.8857227697388 113.56733841973806 L 1349.6729077067719 113.5023370755612 L 1349.461541169027 113.43637695676277 L 1349.251644292982 113.36946465929971 L 1349.0432380681493 113.301606874346 L 1348.8363433349782 113.2328103876236 L 1348.630980782769 113.16308207872383 L 1348.4271709476063 113.0924289204195 L 1348.2249342103037 113.02085797796754 L 1348.024290794366 112.94837640840255 L 1347.825260763968 112.8749914598211 L 1347.6278640219464 112.8007104706569 L 1347.4321203078116 112.72554086894695 L 1347.2380491957713 112.64949017158878 L 1347.0456700927755 112.57256598358876 L 1346.8550022365737 112.49477599730159 L 1346.6660646937928 112.41612799166106 L 1346.4788763580298 112.3366298314022 L 1346.293455947962 112.2562894662748 L 1346.109822005476 112.1751149302484 L 1345.927992893813 112.09311434070896 L 1345.747986795733 112.01029589764713 L 1345.5698217116953 111.92666788283817 L 1345.3935154580602 111.84223865901389 L 1345.2190856653058 111.7570166690263 L 1345.0465497762661 111.67101043500338 L 1344.8759250443866 111.58422855749687 L 1344.7072285319978 111.4966797146222 L 1344.5404771086107 111.40837266119071 L 1344.3756874492285 111.31931622783415 L 1344.21287603268 111.22951932012163 L 1344.0520591399709 111.13899091766909 L 1343.8932528526566 111.04774007324134 L 1343.7364730512336 110.9557759118468 L 1343.5817354135513 110.86310762982494 L 1343.4290554132444 110.76974449392677 L 1343.2784483181858 110.67569584038806 L 1343.1299291889597 110.58097107399578 L 1342.983512877355 110.48557966714766 L 1342.839214024881 110.38953115890487 L 1342.6970470613023 110.2928351540382 L 1342.5570262031974 110.19550132206757 L 1342.419165452535 110.09753939629505 L 1342.2834785952755 109.99895917283158 L 1342.1499791999913 109.89977050961737 L 1342.0186806165111 109.79998332543607 L 1341.8895959745835 109.69960759892295 L 1341.762738182565 109.59865336756702 L 1341.6381199261295 109.4971307267073 L 1341.5157536669985 109.39504982852324 L 1341.395651641696 109.29242088101961 L 1341.2778258603246 109.18925414700563 L 1341.162288105364 109.08555994306874 L 1341.0490499304935 108.98134863854291 L 1340.9381226594364 108.87663065447177 L 1340.829517384827 108.77141646256644 L 1340.7232449671028 108.66571658415843 L 1340.6193160334165 108.55954158914753 L 1340.5177409765752 108.45290209494473 L 1340.4185299539995 108.3458087654106 L 1340.3216928867096 108.23827230978884 L 1340.227239458331 108.1303034816354 L 1340.135179114128 108.02191307774314 L 1340.0455210600585 107.9131119370621 L 1339.958274261853 107.80391093961568 L 1339.8734474441185 107.69432100541265 L 1339.7910490894665 107.58435309335508 L 1339.7110874376633 107.47401820014255 L 1339.6335704848077 107.36332735917243 L 1339.5585059825303 107.25229163943658 L 1339.4859014372191 107.14092214441445 L 1339.4157641092677 107.0292300109627 L 1339.3481010123505 106.91722640820164 L 1339.282918912721 106.80492253639821 L 1339.2202243285349 106.69232962584596 L 1339.160023529198 106.57945893574217 L 1339.1023225347406 106.46632175306175 L 1339.0471271152137 106.35292939142872 L 1338.9944427901132 106.23929318998472 L 1338.9442748278277 106.12542451225522 L 1338.896628245112 106.0113347450131 L 1338.8515078065843 105.89703529714001 L 1338.808918024251 105.78253759848548 L 1338.7688631570547 105.66785309872397 L 1338.731347210449 105.55299326620987 L 1338.6963739359971 105.43796958683073 L 1338.6639468309975 105.32279356285864 L 1338.6340691381333 105.2074767118 L 1338.6067438451494 105.09203056524383 L 1338.5819736845517 104.97646666770858 L 1338.5597611333362 104.8607965754877 L 1338.540108412739 104.74503185549402 L 1338.5230174880164 104.62918408410306 L 1338.5084900682461 104.51326484599544 L 1338.4965276061582 104.39728573299836 L 1338.4871312979888 104.28125834292646 L 1338.480302083361 104.16519427842208 L 1338.4760406451908 104.04910514579494 L 1338.474347409618 103.93300255386156" stroke-miterlimit="10" stroke-width="2.990598758" stroke-dasharray=""/></g><g><g/><text fill="black" stroke="none" font-family="sans-serif" font-size="11pt" font-style="normal" font-weight="normal" text-decoration="normal" x="1331.4560711666952" y="134.401026536" text-anchor="start" dominant-baseline="alphabetic">Database</text></g></g><g><path fill="white" stroke="black" paint-order="fill stroke markers" d=" M 282.35360933014323 197.73135317599997 L 299.94536673014323 197.73135317599997 L 299.94536673014323 873.254837336 L 282.35360933014323 873.254837336 L 282.35360933014323 197.73135317599997" stroke-miterlimit="10" stroke-width="1.4659797833333332" stroke-dasharray=""/><path fill="white" stroke="black" paint-order="fill stroke markers" d=" M 557.4078977753255 246.98827389599995 L 574.9996551753255 246.98827389599995 L 574.9996551753255 823.997916616 L 557.4078977753255 823.997916616 L 557.4078977753255 246.98827389599995" stroke-miterlimit="10" stroke-width="1.4659797833333332" stroke-dasharray=""/><path fill="white" stroke="black" paint-order="fill stroke markers" d=" M 809.2553533347657 444.0159567759999 L 826.8471107347657 444.0159567759999 L 826.8471107347657 774.740995896 L 809.2553533347657 774.740995896 L 809.2553533347657 444.0159567759999" stroke-miterlimit="10" stroke-width="1.4659797833333332" stroke-dasharray=""/><path fill="white" stroke="black" paint-order="fill stroke markers" d=" M 1101.1671070244427 493.27287749599986 L 1118.7588644244427 493.27287749599986 L 1118.7588644244427 725.4840751759999 L 1101.1671070244427 725.4840751759999 L 1101.1671070244427 493.27287749599986" stroke-miterlimit="10" stroke-width="1.4659797833333332" stroke-dasharray=""/><path fill="white" stroke="black" paint-order="fill stroke markers" d=" M 1109.9629857244427 560.1215556159998 L 1127.5547431244427 560.1215556159998 L 1127.5547431244427 676.2271544559999 L 1109.9629857244427 676.2271544559999 L 1109.9629857244427 560.1215556159998" stroke-miterlimit="10" stroke-width="1.4659797833333332" stroke-dasharray=""/><g><g><rect fill="white" stroke="none" x="45.707991208294274" y="174.86206855599997" width="215.82870519851562" height="22.86928462"/></g><text fill="black" stroke="none" font-family="sans-serif" font-size="11pt" font-style="normal" font-weight="normal" text-decoration="normal" x="48.34675481829427" y="190.69465021599999" text-anchor="start" dominant-baseline="alphabetic">clearRoomStatus(rno: Integer)</text></g><g><path fill="none" stroke="black" paint-order="fill stroke markers" d=" M 24.891078284960937 197.73135317599997 L 279.4216497634766 197.73135317599997" stroke-miterlimit="10" stroke-width="1.4659797833333332" stroke-dasharray=""/><g transform="translate(282.35360933014323,197.73135317599997) translate(-282.35360933014323,-197.73135317599997)"><path fill="black" stroke="none" paint-order="stroke fill markers" d=" M 267.6938114968099 190.4014542593333 L 282.35360933014323 197.73135317599997 L 267.6938114968099 205.06125209266665 Z"/></g></g><g><g><rect fill="white" stroke="none" x="320.7622796534766" y="224.11898927599995" width="215.82870519851562" height="22.86928462"/></g><text fill="black" stroke="none" font-family="sans-serif" font-size="11pt" font-style="normal" font-weight="normal" text-decoration="normal" x="323.4010432634766" y="239.95157093599997" text-anchor="start" dominant-baseline="alphabetic">clearRoomStatus(rno: Integer)</text></g><g><path fill="none" stroke="black" paint-order="fill stroke markers" d=" M 299.94536673014323 246.98827389599995 L 554.4759382086588 246.98827389599995" stroke-miterlimit="10" stroke-width="1.4659797833333332" stroke-dasharray=""/><g transform="translate(557.4078977753255,246.98827389599995) translate(-557.4078977753255,-246.98827389599995)"><path fill="black" stroke="none" paint-order="stroke fill markers" d=" M 542.7480999419922 239.65837497933327 L 557.4078977753255 246.98827389599995 L 542.7480999419922 254.31817281266663 Z"/></g></g><g><g><rect fill="white" stroke="none" x="426.0378686427344" y="273.37590999599996" width="5.27752722" height="22.86928462"/></g><text fill="black" stroke="none" font-family="sans-serif" font-size="11pt" font-style="normal" font-weight="normal" text-decoration="normal" x="428.6766322527344" y="289.208491656" text-anchor="start" dominant-baseline="alphabetic"></text></g><g><path fill="none" stroke="black" paint-order="fill stroke markers" d=" M 557.4078977753255 296.24519461599994 L 302.8773262968099 296.24519461599994" stroke-miterlimit="10" stroke-width="1.4659797833333332" stroke-dasharray="7.0367029599999995"/><g transform="translate(299.94536673014323,296.24519461599994) translate(-299.94536673014323,-296.24519461599994)"><path fill="black" stroke="none" paint-order="stroke fill markers" d=" M 314.6051645634766 288.9152956993333 L 299.94536673014323 296.24519461599994 L 314.6051645634766 303.5750935326666 Z"/></g></g><g><g><rect fill="white" stroke="none" x="334.32704558365236" y="322.63283071599994" width="188.69917333816406" height="22.86928462"/></g><text fill="black" stroke="none" font-family="sans-serif" font-size="11pt" font-style="normal" font-weight="normal" text-decoration="normal" x="336.9658091936524" y="338.46541237599996" text-anchor="start" dominant-baseline="alphabetic">selectBooking(b: Booking)</text></g><g><path fill="none" stroke="black" paint-order="fill stroke markers" d=" M 299.94536673014323 345.5021153359999 L 554.4759382086588 345.5021153359999" stroke-miterlimit="10" stroke-width="1.4659797833333332" stroke-dasharray=""/><g transform="translate(557.4078977753255,345.5021153359999) translate(-557.4078977753255,-345.5021153359999)"><path fill="black" stroke="none" paint-order="stroke fill markers" d=" M 542.7480999419922 338.17221641933327 L 557.4078977753255 345.5021153359999 L 542.7480999419922 352.83201425266657 Z"/></g></g><g><g><rect fill="white" stroke="none" x="659.3449656988705" y="371.8897514359999" width="207.94749487136718" height="22.86928462"/></g><text fill="black" stroke="none" font-family="sans-serif" font-size="11pt" font-style="normal" font-weight="normal" text-decoration="normal" x="661.9837293088705" y="387.72233309599994" text-anchor="start" dominant-baseline="alphabetic">updateStatus(status: Integer)</text></g><g><path fill="none" stroke="black" paint-order="fill stroke markers" d=" M 574.9996551753255 394.7590360559999 L 948.7058115271159 394.7590360559999" stroke-miterlimit="10" stroke-width="1.4659797833333332" stroke-dasharray=""/><g transform="translate(951.6377710937826,394.7590360559999) translate(-951.6377710937826,-394.7590360559999)"><path fill="black" stroke="none" paint-order="stroke fill markers" d=" M 936.9779732604493 387.42913713933325 L 951.6377710937826 394.7590360559999 L 936.9779732604493 402.08893497266655 Z"/></g></g><g><g><rect fill="white" stroke="none" x="595.8165680986589" y="421.1466721559999" width="192.62187231277343" height="22.86928462"/></g><text fill="black" stroke="none" font-family="sans-serif" font-size="11pt" font-style="normal" font-weight="normal" text-decoration="normal" x="598.4553317086588" y="436.9792538159999" text-anchor="start" dominant-baseline="alphabetic">cancelBooking(b: Booking)</text></g><g><path fill="none" stroke="black" paint-order="fill stroke markers" d=" M 574.9996551753255 444.0159567759999 L 806.323393768099 444.0159567759999" stroke-miterlimit="10" stroke-width="1.4659797833333332" stroke-dasharray=""/><g transform="translate(809.2553533347657,444.0159567759999) translate(-809.2553533347657,-444.0159567759999)"><path fill="black" stroke="none" paint-order="stroke fill markers" d=" M 794.5955555014324 436.68605785933323 L 809.2553533347657 444.0159567759999 L 794.5955555014324 451.34585569266653 Z"/></g></g><g><g><rect fill="white" stroke="none" x="867.6961727232175" y="470.4035928759999" width="192.62187231277343" height="22.86928462"/></g><text fill="black" stroke="none" font-family="sans-serif" font-size="11pt" font-style="normal" font-weight="normal" text-decoration="normal" x="870.3349363332175" y="486.2361745359999" text-anchor="start" dominant-baseline="alphabetic">cancelBooking(b: Booking)</text></g><g><path fill="none" stroke="black" paint-order="fill stroke markers" d=" M 826.8471107347657 493.27287749599986 L 1098.235147457776 493.27287749599986" stroke-miterlimit="10" stroke-width="1.4659797833333332" stroke-dasharray=""/><g transform="translate(1101.1671070244427,493.27287749599986) translate(-1101.1671070244427,-493.27287749599986)"><path fill="black" stroke="none" paint-order="stroke fill markers" d=" M 1086.5073091911092 485.9429785793332 L 1101.1671070244427 493.27287749599986 L 1086.5073091911092 500.6027764126665 Z"/></g></g><g><g><rect fill="white" stroke="none" x="1148.371656047776" y="519.6605135959998" width="197.75424230789062" height="22.86928462"/></g><text fill="black" stroke="none" font-family="sans-serif" font-size="11pt" font-style="normal" font-weight="normal" text-decoration="normal" x="1151.010419657776" y="535.4930952559997" text-anchor="start" dominant-baseline="alphabetic">performUpdate(sql : String)</text></g><g><path fill="none" stroke="black" paint-order="fill stroke markers" d=" M 1118.7588644244427 542.5297982159998 L 1197.9217727244427 542.5297982159998 L 1197.9217727244427 560.1215556159998 L 1130.4867026911093 560.1215556159998" stroke-miterlimit="10" stroke-width="1.4659797833333332" stroke-dasharray=""/><g transform="translate(1127.5547431244427,560.1215556159998) translate(-1127.5547431244427,-560.1215556159998)"><path fill="black" stroke="none" paint-order="stroke fill markers" d=" M 1142.214540957776 552.7916566993331 L 1127.5547431244427 560.1215556159998 L 1142.214540957776 567.4514545326665 Z"/></g></g><g><g><rect fill="white" stroke="none" x="1148.3716560477758" y="586.5091917159998" width="194.96971166824218" height="22.86928462"/></g><text fill="black" stroke="none" font-family="sans-serif" font-size="11pt" font-style="normal" font-weight="normal" text-decoration="normal" x="1151.0104196577759" y="602.3417733759998" text-anchor="start" dominant-baseline="alphabetic">executeUpdate(sql : String)</text></g><g><path fill="none" stroke="black" paint-order="fill stroke markers" d=" M 1127.5547431244427 609.3784763359998 L 1361.2263210726849 609.3784763359998" stroke-miterlimit="10" stroke-width="1.4659797833333332" stroke-dasharray=""/><g transform="translate(1364.1582806393515,609.3784763359998) translate(-1364.1582806393515,-609.3784763359998)"><path fill="black" stroke="none" paint-order="stroke fill markers" d=" M 1349.498482806018 602.0485774193331 L 1364.1582806393515 609.3784763359998 L 1349.498482806018 616.7083752526665 Z"/></g></g><g><g><rect fill="white" stroke="none" x="1148.371656047776" y="635.7661124359998" width="5.27752722" height="22.86928462"/></g><text fill="black" stroke="none" font-family="sans-serif" font-size="11pt" font-style="normal" font-weight="normal" text-decoration="normal" x="1151.010419657776" y="651.5986940959998" text-anchor="start" dominant-baseline="alphabetic"></text></g><g><path fill="none" stroke="black" paint-order="fill stroke markers" d=" M 1127.5547431244427 658.6353970559999 L 1197.9217727244427 658.6353970559999 L 1197.9217727244427 676.2271544559999 L 1130.4867026911093 676.2271544559999" stroke-miterlimit="10" stroke-width="1.4659797833333332" stroke-dasharray="7.0367029599999995"/><g transform="translate(1127.5547431244427,676.2271544559999) translate(-1127.5547431244427,-676.2271544559999)"><path fill="black" stroke="none" paint-order="stroke fill markers" d=" M 1142.214540957776 668.8972555393332 L 1127.5547431244427 676.2271544559999 L 1142.214540957776 683.5570533726666 Z"/></g></g><g><g><rect fill="white" stroke="none" x="961.3683452696042" y="702.6147905559999" width="5.27752722" height="22.86928462"/></g><text fill="black" stroke="none" font-family="sans-serif" font-size="11pt" font-style="normal" font-weight="normal" text-decoration="normal" x="964.0071088796042" y="718.4473722159998" text-anchor="start" dominant-baseline="alphabetic"></text></g><g><path fill="none" stroke="black" paint-order="fill stroke markers" d=" M 1101.1671070244427 725.4840751759999 L 829.7790703014324 725.4840751759999" stroke-miterlimit="10" stroke-width="1.4659797833333332" stroke-dasharray="7.0367029599999995"/><g transform="translate(826.8471107347657,725.4840751759999) translate(-826.8471107347657,-725.4840751759999)"><path fill="black" stroke="none" paint-order="stroke fill markers" d=" M 841.506908568099 718.1541762593332 L 826.8471107347657 725.4840751759999 L 841.506908568099 732.8139740926666 Z"/></g></g><g><g><rect fill="white" stroke="none" x="689.4887406450456" y="751.8717112759999" width="5.27752722" height="22.86928462"/></g><text fill="black" stroke="none" font-family="sans-serif" font-size="11pt" font-style="normal" font-weight="normal" text-decoration="normal" x="692.1275042550456" y="767.7042929359999" text-anchor="start" dominant-baseline="alphabetic"></text></g><g><path fill="none" stroke="black" paint-order="fill stroke markers" d=" M 809.2553533347657 774.740995896 L 577.9316147419922 774.740995896" stroke-miterlimit="10" stroke-width="1.4659797833333332" stroke-dasharray="7.0367029599999995"/><g transform="translate(574.9996551753255,774.740995896) translate(-574.9996551753255,-774.740995896)"><path fill="black" stroke="none" paint-order="stroke fill markers" d=" M 589.6594530086588 767.4110969793333 L 574.9996551753255 774.740995896 L 589.6594530086588 782.0708948126667 Z"/></g></g><g><g><rect fill="white" stroke="none" x="426.0378686427344" y="801.128631996" width="5.27752722" height="22.86928462"/></g><text fill="black" stroke="none" font-family="sans-serif" font-size="11pt" font-style="normal" font-weight="normal" text-decoration="normal" x="428.6766322527344" y="816.9612136559999" text-anchor="start" dominant-baseline="alphabetic"></text></g><g><path fill="none" stroke="black" paint-order="fill stroke markers" d=" M 557.4078977753255 823.997916616 L 302.8773262968099 823.997916616" stroke-miterlimit="10" stroke-width="1.4659797833333332" stroke-dasharray="7.0367029599999995"/><g transform="translate(299.94536673014323,823.997916616) translate(-299.94536673014323,-823.997916616)"><path fill="black" stroke="none" paint-order="stroke fill markers" d=" M 314.6051645634766 816.6680176993333 L 299.94536673014323 823.997916616 L 314.6051645634766 831.3278155326667 Z"/></g></g><g><g><rect fill="white" stroke="none" x="150.98358019755207" y="850.385552716" width="5.27752722" height="22.86928462"/></g><text fill="black" stroke="none" font-family="sans-serif" font-size="11pt" font-style="normal" font-weight="normal" text-decoration="normal" x="153.62234380755208" y="866.218134376" text-anchor="start" dominant-baseline="alphabetic"></text></g><g><path fill="none" stroke="black" paint-order="fill stroke markers" d=" M 282.35360933014323 873.254837336 L 27.823037851627603 873.254837336" stroke-miterlimit="10" stroke-width="1.4659797833333332" stroke-dasharray="7.0367029599999995"/><g transform="translate(24.891078284960937,873.254837336) translate(-24.891078284960937,-873.254837336)"><path fill="black" stroke="none" paint-order="stroke fill markers" d=" M 39.55087611829427 865.9249384193333 L 24.891078284960937 873.254837336 L 39.55087611829427 880.5847362526667 Z"/></g></g></g><g/><g/><g/><g/><g/><g/><g/><g/></g></svg>