<svg version="1.1" xmlns="http://www.w3.org/2000/svg" xmlns:xlink="http://www.w3.org/1999/xlink" width="1374" height="2738"><defs/><g><g/><g/><g/><g/><g/><g/><g/><g/><g/><g/><g/><g/><g/><g/><g/><g/><g/><g/><g/><g/><g/><g/><g/><g/><g/><g/><g/><g/><g/><g/><g/><g/><g/><g/><g/><g/><g/><g/><g><rect fill="white" stroke="none" x="0" y="0" width="1374" height="2738"/></g><g><text fill="black" stroke="none" font-family="sans-serif" font-size="16.5pt" font-style="normal" font-weight="normal" text-decoration="normal" x="536.7267957069089" y="26.3876361" text-anchor="start" dominant-baseline="alphabetic">get Customer Expanded BCE</text></g><g/><g><path fill="none" stroke="black" paint-order="fill stroke markers" d=" M 79.1629083 138.798965886 L 79.1629083 2738.016305250798" stroke-miterlimit="10" stroke-width="1.4659797833333332" stroke-dasharray="13.532121076923076,5.863919133333333"/><path fill="none" stroke="black" paint-order="fill stroke markers" d=" M 498.2917098908854 138.798965886 L 498.2917098908854 2738.016305250798" stroke-miterlimit="10" stroke-width="1.4659797833333332" stroke-dasharray="13.532121076923076,5.863919133333333"/><path fill="none" stroke="black" paint-order="fill stroke markers" d=" M 1004.7317848070313 138.798965886 L 1004.7317848070313 2738.016305250798" stroke-miterlimit="10" stroke-width="1.4659797833333332" stroke-dasharray="13.532121076923076,5.863919133333333"/><path fill="none" stroke="black" paint-order="fill stroke markers" d=" M 1286.1686325388177 880.7489259883998 L 1286.1686325388177 2738.016305250798" stroke-miterlimit="10" stroke-width="1.4659797833333332" stroke-dasharray="13.532121076923076,5.863919133333333"/><path fill="none" stroke="black" paint-order="fill stroke markers" d=" M 1286.1686325388177 2284.1489643307987 L 1286.1686325388177 2738.016305250798" stroke-miterlimit="10" stroke-width="1.4659797833333332" stroke-dasharray="13.532121076923076,5.863919133333333"/></g><g><path fill="none" stroke="none"/><g><path fill="white" stroke="black" paint-order="fill stroke markers" d=" M 40.90619667480859 91.301220906 L 117.4196199251914 91.301220906 L 117.4196199251914 138.798965886 L 40.90619667480859 138.798965886 L 40.90619667480859 91.301220906 Z" stroke-miterlimit="10" stroke-width="2.814681184" stroke-dasharray=""/></g><g><g/><text fill="black" stroke="none" font-family="sans-serif" font-size="11pt" font-style="normal" font-weight="normal" text-decoration="normal" x="59.99325345380859" y="121.207208486" text-anchor="start" dominant-baseline="alphabetic">Hotel</text></g><path fill="none" stroke="none"/><g><path fill="white" stroke="black" paint-order="fill stroke markers" d=" M 417.64058908600646 91.301220906 L 578.9428306957643 91.301220906 L 578.9428306957643 138.798965886 L 417.64058908600646 138.798965886 L 417.64058908600646 91.301220906 Z" stroke-miterlimit="10" stroke-width="2.814681184" stroke-dasharray=""/></g><g><g/><text fill="black" stroke="none" font-family="sans-serif" font-size="11pt" font-style="normal" font-weight="normal" text-decoration="normal" x="436.7276458650065" y="121.207208486" text-anchor="start" dominant-baseline="alphabetic">CustomerMapper</text></g><g><path fill="white" stroke="black" paint-order="fill stroke markers" d=" M 979.0478190030313 104.31912138199999 L 979.0478190030313 67.37643084199999 L 1030.4157506110314 67.37643084199999 L 1030.4157506110314 104.31912138199999" stroke-miterlimit="10" stroke-width="2.990598758" stroke-dasharray=""/><path fill="white" stroke="black" paint-order="fill stroke markers" d=" M 1030.4157506110314 66.0922325518 L 1030.4144664234427 66.20833621555636 L 1030.4106139890946 66.3244282690431 L 1030.4041936932274 66.4404971031516 L 1030.395206177865 66.5565311110952 L 1030.3836523417517 66.67251868956978 L 1030.3695333402613 66.78844823991415 L 1030.3528505852826 66.9043081692699 L 1030.3336057450767 67.0200868917406 L 1030.3118007441117 67.13577282955055 L 1030.2874377628698 67.25135441420231 L 1030.2605192376284 67.36682008763378 L 1030.2310478602178 67.48215830337381 L 1030.1990265777515 67.59735752769696 L 1030.1644585923304 67.71240624077679 L 1030.1273473607248 67.82729293783784 L 1030.0876965940267 67.94200613030618 L 1030.0455102572798 68.05653434695814 L 1030.0007925690825 68.1708661350675 L 1029.9535480011664 68.28499006155073 L 1029.903781277949 68.39889471411026 L 1029.8514973760612 68.51256870237577 L 1029.7967015238494 68.62600065904317 L 1029.7393992008533 68.73917924101131 L 1029.6795961372575 68.85209313051632 L 1029.6172983133183 68.96473103626333 L 1029.5525119587664 69.07708169455563 L 1029.4852435521832 69.18913387042103 L 1029.4154998203535 69.3008763587353 L 1029.343287737592 69.41229798534273 L 1029.2686145250468 69.52338760817354 L 1029.1914876499773 69.63413411835798 L 1029.1119148250064 69.74452644133734 L 1029.0299040073505 69.85455353797133 L 1028.9454633980229 69.96420440564195 L 1028.8586014410141 70.07346807935382 L 1028.7693268224475 70.18233363283062 L 1028.6776484697107 70.29079017960771 L 1028.5835755505625 70.39882687412083 L 1028.4871174722164 70.50643291279052 L 1028.3882838803997 70.6135975351026 L 1028.2870846583894 70.72031002468414 L 1028.1835299260233 70.82655971037511 L 1028.0776300386883 70.93233596729549 L 1027.969395586285 71.03762821790771 L 1027.8588373921684 71.14242593307448 L 1027.7459665120657 71.2467186331116 L 1027.6307942329709 71.35049588883598 L 1027.513332072016 71.45374732260854 L 1027.3935917753192 71.55646260937192 L 1027.2715853168104 71.65863147768304 L 1027.1473248970335 71.76024371074024 L 1027.0208229419275 71.86128914740488 L 1026.8920921015817 71.96175768321748 L 1026.7611452489737 72.0616392714082 L 1026.6279954786792 72.16092392390144 L 1026.492656105564 72.25960171231469 L 1026.3551406634533 72.35766276895136 L 1026.2154629037761 72.45509728778748 L 1026.0736367941925 72.55189552545237 L 1025.9296765171948 72.64804780220294 L 1025.783596468691 72.74354450289161 L 1025.635411256564 72.83837607792793 L 1025.485135699212 72.93253304423341 L 1025.332784824065 73.02600598618986 L 1025.1783738660836 73.118785556581 L 1025.0219182662354 73.21086247752712 L 1024.8634336699492 73.30222754141282 L 1024.7029359255534 73.39287161180788 L 1024.5404410826882 73.48278562438078 L 1024.3759653907027 73.5719605878052 L 1024.209525297029 73.66038758465909 L 1024.0411374455373 73.74805777231649 L 1023.8708186748731 73.83496238383165 L 1023.6985860167712 73.92109272881588 L 1023.524456694354 74.00644019430642 L 1023.3484481204085 74.09099624562788 L 1023.1705778956455 74.17475242724555 L 1022.9908638069393 74.2577003636111 L 1022.809323825549 74.33983176 L 1022.6259761053212 74.42113840334106 L 1022.4408389808756 74.50161216303769 L 1022.25393096577 74.58124499178099 L 1022.0652707506503 74.66002892635444 L 1021.8748772013806 74.73795608843025 L 1021.6827693571576 74.81501868535715 L 1021.4889664286052 74.89120901093965 L 1021.2934877958548 74.9665194462087 L 1021.0963530066072 75.0409424601835 L 1020.8975817741765 75.11447061062472 L 1020.6971939755206 75.18709654477856 L 1020.4952096492523 75.25881300011211 L 1020.2916489936359 75.32961280503964 L 1020.0865323645675 75.39948887963963 L 1019.8798802735387 75.46843423636287 L 1019.6717133855867 75.53644198073111 L 1019.4620525172269 75.60350531202661 L 1019.250918634371 75.66961752397214 L 1019.0383328502318 75.73477200540155 L 1018.8243164232103 75.79896224092104 L 1018.608890754771 75.86218181156053 L 1018.392077387301 75.92442439541566 L 1018.1738980019566 75.98568376827987 L 1017.9543744164944 76.04595380426694 L 1017.7335285830901 76.10522847642352 L 1017.5113825861429 76.16350185733178 L 1017.2879586400674 76.22076811970217 L 1017.063279087072 76.27702153695618 L 1016.8373663949249 76.33225648379899 L 1016.610243154707 76.38646743678191 L 1016.3819320785528 76.43964897485485 L 1016.1524559973801 76.49179577990829 L 1015.9218378586054 76.54290263730519 L 1015.6901007238507 76.59296443640241 L 1015.4572677666362 76.64197617106174 L 1015.2233622700635 76.68993294015058 L 1014.9884076244874 76.73682994803197 L 1014.7524273251769 76.7826625050442 L 1014.515444969965 76.82742602796976 L 1014.2774842568898 76.87111604049369 L 1014.0385689818244 76.91372817365111 L 1013.7987230360972 76.95525816626423 L 1013.5579704041027 76.99570186536839 L 1013.3163351609037 77.03505522662739 L 1013.073841469823 77.0733143147379 L 1012.8305135800279 77.11047530382298 L 1012.5863758241043 77.1465344778147 L 1012.3414526156245 77.1814882308257 L 1012.0957684467052 77.21533306750982 L 1011.8493478855585 77.24806560341159 L 1011.6022155740352 77.2796825653047 L 1011.3543962251607 77.31018079151929 L 1011.105914620663 77.33955723225817 L 1010.8567956084959 77.36780894990176 L 1010.6070641003528 77.3949331193018 L 1010.3567450691763 77.42092702806399 L 1010.1058635466611 77.44578807681908 L 1009.8544446207503 77.46951377948295 L 1009.602513433127 77.49210176350509 L 1009.3500951767 77.51354977010593 L 1009.0972150930846 77.53385565450264 L 1008.8438984700786 77.55301738612376 L 1008.5901706391329 77.57103304881205 L 1008.3360569728193 77.58790084101629 L 1008.0815828822927 77.6036190759713 L 1007.82677381475 77.61818618186668 L 1007.5716552508858 77.63160070200398 L 1007.3162527023437 77.64386129494237 L 1007.0605917091657 77.65496673463277 L 1006.8046978372383 77.66491591054046 L 1006.5485966757352 77.67370782775615 L 1006.2923138345593 77.68134160709545 L 1006.035874941781 77.68781648518677 L 1005.7793056410761 77.6931318145477 L 1005.5226315891606 77.69728706364975 L 1005.265878453226 77.70028181697145 L 1005.0090719083718 77.70211577504 L 1004.7522376350386 77.70278875446107 L 1004.4954013164396 77.70230068793732 L 1004.2385886359926 77.70065162427498 L 1003.9818252747518 77.69784172837903 L 1003.7251369088393 77.69387128123674 L 1003.4685492068777 77.68874067988952 L 1003.2120878274234 77.68245043739319 L 1002.9557784164007 77.6750011827668 L 1002.6996466045371 77.66639366092959 L 1002.4437180048002 77.65662873262656 L 1002.1880182098369 77.64570737434241 L 1001.9325727894134 77.63363067820387 L 1001.6774072878591 77.6203998518705 L 1001.4225472215113 77.60601621841388 L 1001.1680180761645 77.59048121618541 L 1000.9138453045209 77.57379639867233 L 1000.660054323646 77.5559634343425 L 1000.4066705124263 77.53698410647749 L 1000.1537192090318 77.51686031299428 L 999.9012257083822 77.49559406625544 L 999.6492152596169 77.47318749286792 L 999.3977130635708 77.44964283347039 L 999.1467442702541 77.42496244250918 L 998.8963339763369 77.3991487880028 L 998.6465072226398 77.3722044512952 L 998.3972889916303 77.3441321267976 L 998.1487042049234 77.31493462171906 L 997.9007777207909 77.28461485578573 L 997.6535343316746 77.25317586094897 L 997.4069987617072 77.22062078108203 L 997.1611956642405 77.18695287166581 L 996.9161496193792 77.15217549946317 L 996.6718851315236 77.11629214218235 L 996.4284266269191 77.07930638812917 L 996.1857984512131 77.04122193584823 L 995.9440248670211 77.002042593753 L 995.7031300514999 76.96177227974506 L 995.4631380939305 76.92041502082225 L 995.2240729933085 76.87797495267598 L 994.9859586559448 76.83445631927773 L 994.7488188930748 76.78986347245454 L 994.5126774184771 76.74420087145396 L 994.2775578461022 76.69747308249802 L 994.0434836877117 76.64968477832667 L 993.8104783505262 76.60084073773052 L 993.5785651348854 76.55094584507293 L 993.3477672319173 76.50000508980158 L 993.1181077212202 76.44802356594954 L 992.8896095685536 76.39500647162588 L 992.6622956235424 76.34095910849587 L 992.4361886173916 76.28588688125075 L 992.2113111606136 76.22979529706737 L 991.9876857407666 76.1726899650574 L 991.7653347202059 76.11457659570647 L 991.5442803338489 76.05546100030305 L 991.3245446869494 75.99534909035746 L 991.1061497528893 75.9342468770106 L 990.88911737098 75.87216047043285 L 990.6734692442787 75.80909607921315 L 990.4592269374186 75.74506000973807 L 990.2464118744517 75.6800586655612 L 990.0350453367068 75.61409854676278 L 989.8251484606618 75.54718624929971 L 989.6167422358293 75.47932846434601 L 989.4098475026581 75.4105319776236 L 989.204484950449 75.34080366872384 L 989.0006751152862 75.2701505104195 L 988.7984383779834 75.19857956796754 L 988.5977949620458 75.12609799840256 L 988.3987649316476 75.05271304982111 L 988.2013681896264 74.9784320606569 L 988.0056244754913 74.90326245894695 L 987.8115533634513 74.82721176158879 L 987.6191742604552 74.75028757358876 L 987.4285064042534 74.67249758730159 L 987.2395688614727 74.59384958166106 L 987.0523805257095 74.51435142140221 L 986.8669601156417 74.4340110562748 L 986.6833261731558 74.3528365202484 L 986.501497061493 74.27083593070897 L 986.3214909634128 74.18801748764713 L 986.1433258793752 74.10438947283818 L 985.9670196257399 74.01996024901389 L 985.7925898329856 73.9347382590263 L 985.620053943946 73.84873202500339 L 985.4494292120664 73.76195014749688 L 985.2807326996777 73.67440130462221 L 985.1139812762906 73.58609425119072 L 984.9491916169084 73.49703781783415 L 984.7863802003598 73.40724091012163 L 984.6255633076507 73.3167125076691 L 984.4667570203364 73.22546166324135 L 984.3099772189134 73.1334975018468 L 984.1552395812311 73.04082921982494 L 984.0025595809243 72.94746608392677 L 983.8519524858657 72.85341743038806 L 983.7034333566396 72.75869266399579 L 983.5570170450349 72.66330125714767 L 983.4127181925608 72.56725274890488 L 983.2705512289822 72.4705567440382 L 983.1305303708772 72.37322291206758 L 982.9926696202149 72.27526098629505 L 982.8569827629553 72.17668076283158 L 982.7234833676713 72.07749209961737 L 982.5921847841909 71.97770491543608 L 982.4631001422632 71.87732918892296 L 982.3362423502449 71.77637495756703 L 982.2116240938093 71.6748523167073 L 982.0892578346784 71.57277141852325 L 981.9691558093759 71.47014247101961 L 981.8513300280044 71.36697573700563 L 981.7357922730439 71.26328153306875 L 981.6225540981734 71.15907022854292 L 981.5116268271163 71.05435224447177 L 981.403021552507 70.94913805256644 L 981.2967491347827 70.84343817415844 L 981.1928202010963 70.73726317914753 L 981.0912451442549 70.63062368494474 L 980.9920341216795 70.5235303554106 L 980.8951970543893 70.41599389978884 L 980.8007436260108 70.3080250716354 L 980.7086832818079 70.19963466774314 L 980.6190252277383 70.0908335270621 L 980.5317784295328 69.98163252961568 L 980.4469516117985 69.87204259541265 L 980.3645532571462 69.76207468335508 L 980.284591605343 69.65173979014256 L 980.2070746524876 69.54104894917243 L 980.1320101502102 69.43001322943658 L 980.0594056048989 69.31864373441445 L 979.9892682769475 69.20695160096271 L 979.9216051800304 69.09494799820165 L 979.856423080401 68.98264412639821 L 979.7937284962147 68.87005121584596 L 979.733527696878 68.75718052574217 L 979.6758267024204 68.64404334306175 L 979.6206312828934 68.53065098142872 L 979.567946957793 68.41701477998473 L 979.5177789955077 68.30314610225523 L 979.4701324127918 68.1890563350131 L 979.4250119742642 68.07475688714001 L 979.3824221919309 67.96025918848548 L 979.3423673247347 67.84557468872397 L 979.304851378129 67.73071485620987 L 979.2698781036771 67.61569117683074 L 979.2374509986773 67.50051515285864 L 979.2075733058132 67.3851983018 L 979.1802480128291 67.26975215524384 L 979.1554778522316 67.15418825770858 L 979.133265301016 67.0385181654877 L 979.1136125804189 66.92275344549402 L 979.0965216556963 66.80690567410306 L 979.081994235926 66.69098643599544 L 979.0700317738381 66.57500732299836 L 979.0606354656687 66.45897993292647 L 979.053806251041 66.34291586842208 L 979.0495448128706 66.22682673579494 L 979.0478515772978 66.11072414386156 L 979.0487267136448 65.99461970278438 L 979.0521701343987 65.87852502291076 L 979.0581814952202 65.76245171361194 L 979.0667601949783 65.64641138212212 L 979.0779053758101 65.53041563237775 L 979.091615923207 65.41447606385715 L 979.1078904661255 65.29860427042055 L 979.1267273771249 65.18281183915073 L 979.1481247725297 65.06711034919432 L 979.1720805126184 64.95151137060391 L 979.198592201837 64.83602646318103 L 979.2276571890383 64.72066717532017 L 979.2592725677481 64.60544504285399 L 979.2934351764549 64.49037158789972 L 979.330141598926 64.37545831770696 L 979.3693881645502 64.26071672350696 L 979.4111709487032 64.14615827936355 L 979.4554857731416 64.03179444102564 L 979.50232820642 63.917636644781794 L 979.5516935643338 63.80369630631649 L 979.6035769103887 63.68998481956863 L 979.6579730562931 63.57651355559212 L 979.7148765624778 63.46329386141881 L 979.7742817386396 63.35033705892376 L 979.8361826443105 63.237654443693096 L 979.9005730894512 63.125257283894435 L 979.9674466350712 63.0131568191501 L 980.0367965938715 62.90136425941313 L 980.1086160309139 62.78989078384635 L 980.1828977643148 62.67874753970443 L 980.2596343659626 62.56794564121916 L 980.3388181622612 62.45749616848805 L 980.4204412348968 62.34741016636633 L 980.5044954216302 62.23769864336248 L 980.5909723171128 62.12837257053737 L 980.6798632737272 62.01944288040719 L 980.7711594024515 61.91092046585016 L 980.8648515737493 61.80281617901732 L 980.9609304184814 61.69514083024725 L 981.0593863288434 61.587905186985104 L 981.1602094593262 61.48111997270585 L 981.263389727701 61.37479586584192 L 981.3689168160266 61.2689434987154 L 981.4767801716824 61.16357345647479 L 981.5869690084227 61.05869627603652 L 981.6994723074555 60.954322445031224 L 981.8142788185447 60.85046240075503 L 981.931377061135 60.74712652912581 L 982.0507553254996 60.644325163644616 L 982.1724016739115 60.54206858436233 L 982.2963039418372 60.440367016851674 L 982.4224497391534 60.339230631184634 L 982.5508264513853 60.2386695409155 L 982.6814212409687 60.13869380206951 L 982.8142210485333 60.03931341213722 L 982.9492125942094 59.94053830907482 L 983.0863823789546 59.84237837031029 L 983.2257166859049 59.74484341175572 L 983.3672015817456 59.64794318682568 L 983.5108229181051 59.55168738546191 L 983.6565663329693 59.45608563316434 L 983.8044172521184 59.361147490028536 L 983.9543608905835 59.266882449789684 L 984.1063822541258 59.173299938873264 L 984.2604661407356 59.08040931545237 L 984.4165971421527 58.988219868511955 L 984.5747596454071 58.89674081691987 L 984.73493783438 58.805981308505054 L 984.8971156913864 58.715950419142715 L 985.0612769987754 58.62665715184676 L 985.2274053405531 58.5381104358695 L 985.395484104024 58.450319125808754 L 985.5654964814516 58.36329200072237 L 985.7374254717399 58.277037763250334 L 985.9112538821332 58.19156503874451 L 986.0869643299353 58.10688237440612 L 986.2645392442478 58.022998238431036 L 986.4439608677271 57.93992101916295 L 986.6252112583608 57.85765902425456 L 986.8082722912603 57.776220479836795 L 986.9931256604754 57.695613529696246 L 987.1797528808229 57.61584623446075 L 987.3681352897364 57.53692657079335 L 987.558254049132 57.45886243059466 L 987.7500901472921 57.38166162021363 L 987.9436244007668 57.30533185966698 L 988.1388374562921 57.229880781867145 L 988.335709792725 57.155315931859036 L 988.534221722996 57.08164476606552 L 988.7343533960775 57.008874651541774 L 988.9360847989689 56.93701286523862 L 989.1393957586981 56.866066593274795 L 989.3442659443385 56.79604293021838 L 989.5506748690423 56.726948878377314 L 989.758601892089 56.658791347099225 L 989.9680262209496 56.591577152080426 L 990.1789269133657 56.525313014684414 L 990.3912828794439 56.4600055612697 L 990.6050728837644 56.39566132252722 L 990.820275547505 56.332286732827214 L 991.0368693505787 56.26988812957585 L 991.2548326337857 56.20847175258143 L 991.4741436009791 56.14804374343051 L 991.6947803212453 56.08861014487363 L 991.9167207310959 56.03017690022111 L 992.1399426366748 55.972749852748734 L 992.3644237159776 55.91633474511339 L 992.5901415210835 55.86093721877882 L 992.8170734803999 55.80656281345151 L 993.0451969009201 55.753216966526665 L 993.2744889704923 55.70090501254454 L 993.5049267601001 55.649632182656916 L 993.7364872261571 55.59940360410408 L 993.9691472128095 55.550224299702016 L 994.2028834542524 55.50209918734018 L 994.4376725770566 55.45503307948971 L 994.6734911025054 55.40903068272217 L 994.9103154489427 55.3640965972389 L 995.1481219341313 55.320235316411 L 995.3868867776208 55.27745122633 L 995.626586103126 55.23574860536927 L 995.8671959409138 55.19513162375613 L 996.1086922302011 55.15560434315492 L 996.3510508215602 55.11717071626074 L 996.594247479334 55.07983458640426 L 996.8382578840592 55.04359968716735 L 997.0830576348989 55.00846964200974 L 997.3286222520818 54.974447963906684 L 997.5749271793509 54.941538054997615 L 997.8219477864188 54.90974320624601 L 998.0696593714306 54.87906659711026 L 998.3180371634342 54.849511295225696 L 998.5670563248573 54.82108025609789 L 998.8166919539914 54.79377632280706 L 999.0669190874816 54.76760222572378 L 999.3177127028231 54.742560582235946 L 999.5690477208632 54.71865389648704 L 999.8208990083097 54.695884559125716 L 1000.0732413802436 54.674254847066734 L 1000.3260496026382 54.65376692326327 L 1000.5792983948818 54.63442283649064 L 1000.8329624323062 54.616224521141405 L 1001.0870163487191 54.599173797031916 L 1001.3414347389404 54.583272369220396 L 1001.5961921613433 54.56852182783636 L 1001.8512631403978 54.55492364792166 L 1002.1066221692186 54.54247918928296 L 1002.3622437121154 54.53118969635575 L 1002.6181022071472 54.52105629807991 L 1002.8741720686776 54.51208000778683 L 1003.1304276899338 54.504261723098054 L 1003.3868434455671 54.497602225835536 L 1003.643393694216 54.49210218194346 L 1003.9000527810691 54.487762141421626 L 1004.1567950404317 54.484582538270466 L 1004.4135947982917 54.482563690447655 L 1004.6704263748875 54.481705799836284 L 1004.9272640872754 54.4820089522247 L 1005.1840822518982 54.48347311729792 L 1005.4408551871534 54.486098148640664 L 1005.6975572159614 54.48988378375197 L 1005.9541626683334 54.49482964407149 L 1006.2106458839379 54.50093523501731 L 1006.466981214667 54.50819994603543 L 1006.7231430272014 54.5166230506608 L 1006.9791057055734 54.52620370658997 L 1007.2348436537281 54.53694095576534 L 1007.490331298084 54.54883372447093 L 1007.7455430900897 54.56188082343979 L 1008.0004535087785 54.5760809479729 L 1008.255037063321 54.591432678069616 L 1008.5092682955739 54.607934478569746 L 1008.7631217826258 54.62558469930698 L 1009.0165721393397 54.644381575273954 L 1009.2695940208908 54.66432322679874 L 1009.5221621253022 54.685407659732796 L 1009.7742511959738 54.70763276565041 L 1010.0258360242084 54.7309963220595 L 1010.2768914517329 54.75549599262389 L 1010.527392373214 54.78112932739696 L 1010.777313738768 54.80789376306658 L 1011.0266305564669 54.83578662321149 L 1011.2753178948365 54.86480511856891 L 1011.5233508853502 54.89494634731351 L 1011.7707047249157 54.9262072953475 L 1012.0173546783552 54.95858483660216 L 1012.2632760808788 54.99207573335032 L 1012.5084443405513 55.02667663653023 L 1012.752834940751 55.0623840860804 L 1012.9964234426213 55.09919451128564 L 1013.2391854875154 55.13710423113409 L 1013.4810967994309 55.17610945468536 L 1013.7221331874382 55.2162062814496 L 1013.9622705480995 55.25739070177756 L 1014.2014848678787 55.29965859726151 L 1014.4397522255431 55.34300574114714 L 1014.6770487945556 55.38742779875617 L 1014.9133508454571 55.43292032791987 L 1015.1486347482394 55.47947877942322 L 1015.3828769747082 55.527098497459875 L 1015.6160541008362 55.57577472009772 L 1015.848142809105 55.62550257975505 L 1016.0791198908371 55.67627710368733 L 1016.3089622485169 55.728093214484495 L 1016.5376468981002 55.78094573057864 L 1016.7651509713126 55.83482936676219 L 1016.9914517179363 55.88973873471644 L 1017.2165265080853 55.945668343550345 L 1017.4403528344682 56.002612600349636 L 1017.6629083146387 56.06056581073608 L 1017.8841706932343 56.11952217943694 L 1018.1041178442016 56.179475810864474 L 1018.3227277730088 56.24042070970549 L 1018.5399786188451 56.30235078152091 L 1018.755848656807 56.36525983335514 L 1018.9703163000706 56.42914157435544 L 1019.1833601020503 56.49398961640093 L 1019.3949587585435 56.55979747474145 L 1019.6050911098608 56.62655856864601 L 1019.8137361429422 56.69426622206085 L 1020.0208729934582 56.76291366427705 L 1020.2264809478964 56.83249403060759 L 1020.4305394456328 56.903000363073836 L 1020.6330280809876 56.97442561110128 L 1020.833926605266 57.04676263222465 L 1021.033214928783 57.120004192802114 L 1021.2308731228723 57.19414296873864 L 1021.4268814218791 57.26917154621842 L 1021.621220225137 57.34508242244624 L 1021.8138700989276 57.421868006397716 L 1022.004811778424 57.49952061957846 L 1022.1940261696175 57.57803249679186 L 1022.3814943512264 57.657395786915615 L 1022.567197576589 57.73760255368685 L 1022.7511172755375 57.81864477649573 L 1022.9332350562552 57.9005143511875 L 1023.1135327071157 57.983203090872934 L 1023.2919921985043 58.06670272674695 L 1023.4685956846206 58.15100490891555 L 1023.643325505263 58.23610120723078 L 1023.8161641875952 58.32198311213371 L 1023.987094447893 58.40864203550541 L 1024.1560991932727 58.49606931152578 L 1024.3231615234006 58.58425619754006 L 1024.488264732183 58.67319387493313 L 1024.6513923094367 58.76287345001139 L 1024.8125279425394 58.853285954892044 L 1024.9716555180628 58.944422348399954 L 1025.1287591233815 59.03627351697172 L 1025.283823048266 59.12883027556701 L 1025.436831786453 59.222083368587114 L 1025.5877700371962 59.31602347080043 L 1025.7366227067962 59.41064118827504 L 1025.8833749101104 59.50592705931801 L 1026.0280119720405 59.60187155542167 L 1026.1705194290007 59.698465082216345 L 1026.3108830303645 59.79569798042986 L 1026.4490887398883 59.89356052685341 L 1026.5851227371168 59.99204293531392 L 1026.7189714187632 60.0911353576526 L 1026.8506214000708 60.1908278847098 L 1026.9800595161516 60.29111054731588 L 1027.1072728233016 60.39197331728817 L 1027.2322486002963 60.4934061084337 L 1027.354974349662 60.5953987775579 L 1027.475437798926 60.69794112547884 L 1027.5936269018434 60.80102289804719 L 1027.7095298396032 60.90463378717158 L 1027.8231350220078 61.00876343184945 L 1027.9344310886333 61.113401419203115 L 1028.0434069099665 61.218537285521016 L 1028.1500515885155 61.32416051730415 L 1028.2543544599016 61.43026055231736 L 1028.3563050939244 61.53682678064554 L 1028.4558932956056 61.643848545754686 L 1028.553109106208 61.75131514555746 L 1028.6479428042314 61.85921583348345 L 1028.7403849063853 61.96753981955375 L 1028.8304261685362 62.07627627146005 L 1028.918057586633 62.18541431564777 L 1029.0032703976074 62.29494303840343 L 1029.0860560802487 62.404851486946036 L 1029.1664063560577 62.515128670522316 L 1029.244313190074 62.62576356150581 L 1029.319768791679 62.736745096499625 L 1029.3927656153755 62.84806217744274 L 1029.463296361542 62.959703672719826 L 1029.5313539771626 63.07165841827438 L 1029.5969316565322 63.18391521872516 L 1029.660022841938 63.29646284848565 L 1029.7206212243136 63.409290052886675 L 1029.7787207438714 63.52238554930181 L 1029.834315590708 63.63573802827567 L 1029.887400205385 63.7493361546548 L 1029.9379692794848 63.86316856872124 L 1029.9860177561427 63.97722388732845 L 1030.0315408305507 64.09149070503959 L 1030.0745339504397 64.20595759526815 L 1030.1149928165328 64.32061311142046 L 1030.1529133829779 64.43544578804045 L 1030.1882918577494 64.55044414195618 L 1030.2211247030295 64.66559667342807 L 1030.2514086355613 64.78089186729893 L 1030.2791406269764 64.89631819414548 L 1030.3043179040988 65.0118641114312 L 1030.326937949222 65.12751806466063 L 1030.34699850036 65.24326848853487 L 1030.3644975514749 65.35910380810796 L 1030.3794333526755 65.47501243994449 L 1030.3918044103948 65.59098279327785 L 1030.401609487537 65.70700327116936 L 1030.4088476036025 65.8230622716679 L 1030.413518034786 65.93914818897015 L 1030.4156203140478 66.05524941458111 M 1030.4157506110314 103.0349230918 L 1030.4144664234427 103.15102675555636 L 1030.4106139890946 103.2671188090431 L 1030.4041936932274 103.3831876431516 L 1030.395206177865 103.4992216510952 L 1030.3836523417517 103.61520922956979 L 1030.3695333402613 103.73113877991415 L 1030.3528505852826 103.8469987092699 L 1030.3336057450767 103.9627774317406 L 1030.3118007441117 104.07846336955055 L 1030.2874377628698 104.19404495420231 L 1030.2605192376284 104.30951062763378 L 1030.2310478602178 104.42484884337381 L 1030.1990265777515 104.54004806769696 L 1030.1644585923304 104.65509678077679 L 1030.1273473607248 104.76998347783784 L 1030.0876965940267 104.88469667030618 L 1030.0455102572798 104.99922488695815 L 1030.0007925690825 105.1135566750675 L 1029.9535480011664 105.22768060155073 L 1029.903781277949 105.34158525411026 L 1029.8514973760612 105.45525924237577 L 1029.7967015238494 105.56869119904317 L 1029.7393992008533 105.68186978101132 L 1029.6795961372575 105.79478367051632 L 1029.6172983133183 105.90742157626333 L 1029.5525119587664 106.01977223455563 L 1029.4852435521832 106.13182441042103 L 1029.4154998203535 106.2435668987353 L 1029.343287737592 106.35498852534273 L 1029.2686145250468 106.46607814817354 L 1029.1914876499773 106.57682465835798 L 1029.1119148250064 106.68721698133734 L 1029.0299040073505 106.79724407797133 L 1028.9454633980229 106.90689494564195 L 1028.8586014410141 107.01615861935382 L 1028.7693268224475 107.12502417283062 L 1028.6776484697107 107.23348071960771 L 1028.5835755505625 107.34151741412083 L 1028.4871174722164 107.44912345279052 L 1028.3882838803997 107.5562880751026 L 1028.2870846583894 107.66300056468414 L 1028.1835299260233 107.76925025037511 L 1028.0776300386883 107.87502650729549 L 1027.969395586285 107.98031875790771 L 1027.8588373921684 108.08511647307448 L 1027.7459665120657 108.1894091731116 L 1027.6307942329709 108.29318642883598 L 1027.513332072016 108.39643786260854 L 1027.3935917753192 108.49915314937192 L 1027.2715853168104 108.60132201768305 L 1027.1473248970335 108.70293425074024 L 1027.0208229419275 108.80397968740488 L 1026.8920921015817 108.90444822321749 L 1026.7611452489737 109.0043298114082 L 1026.6279954786792 109.10361446390144 L 1026.492656105564 109.20229225231469 L 1026.3551406634533 109.30035330895136 L 1026.2154629037761 109.39778782778748 L 1026.0736367941925 109.49458606545237 L 1025.9296765171948 109.59073834220294 L 1025.783596468691 109.68623504289161 L 1025.635411256564 109.78106661792793 L 1025.485135699212 109.87522358423341 L 1025.332784824065 109.96869652618986 L 1025.1783738660836 110.061476096581 L 1025.0219182662354 110.15355301752712 L 1024.8634336699492 110.24491808141282 L 1024.7029359255534 110.33556215180788 L 1024.5404410826882 110.42547616438078 L 1024.3759653907027 110.5146511278052 L 1024.209525297029 110.60307812465909 L 1024.0411374455373 110.69074831231649 L 1023.8708186748731 110.77765292383165 L 1023.6985860167712 110.86378326881588 L 1023.524456694354 110.94913073430642 L 1023.3484481204085 111.03368678562788 L 1023.1705778956455 111.11744296724555 L 1022.9908638069393 111.2003909036111 L 1022.809323825549 111.2825223 L 1022.6259761053212 111.36382894334106 L 1022.4408389808756 111.44430270303769 L 1022.25393096577 111.52393553178099 L 1022.0652707506503 111.60271946635444 L 1021.8748772013806 111.68064662843025 L 1021.6827693571576 111.75770922535715 L 1021.4889664286052 111.83389955093965 L 1021.2934877958548 111.9092099862087 L 1021.0963530066072 111.9836330001835 L 1020.8975817741765 112.05716115062472 L 1020.6971939755206 112.12978708477856 L 1020.4952096492523 112.20150354011211 L 1020.2916489936359 112.27230334503965 L 1020.0865323645675 112.34217941963963 L 1019.8798802735387 112.41112477636287 L 1019.6717133855867 112.47913252073111 L 1019.4620525172269 112.54619585202661 L 1019.250918634371 112.61230806397214 L 1019.0383328502318 112.67746254540155 L 1018.8243164232103 112.74165278092104 L 1018.608890754771 112.80487235156053 L 1018.392077387301 112.86711493541566 L 1018.1738980019566 112.92837430827987 L 1017.9543744164944 112.98864434426694 L 1017.7335285830901 113.04791901642352 L 1017.5113825861429 113.10619239733178 L 1017.2879586400674 113.16345865970217 L 1017.063279087072 113.21971207695618 L 1016.8373663949249 113.27494702379899 L 1016.610243154707 113.32915797678191 L 1016.3819320785528 113.38233951485485 L 1016.1524559973801 113.43448631990829 L 1015.9218378586054 113.48559317730519 L 1015.6901007238507 113.53565497640241 L 1015.4572677666362 113.58466671106174 L 1015.2233622700635 113.63262348015058 L 1014.9884076244874 113.67952048803197 L 1014.7524273251769 113.7253530450442 L 1014.515444969965 113.77011656796977 L 1014.2774842568898 113.81380658049369 L 1014.0385689818244 113.85641871365111 L 1013.7987230360972 113.89794870626423 L 1013.5579704041027 113.93839240536839 L 1013.3163351609037 113.9777457666274 L 1013.073841469823 114.0160048547379 L 1012.8305135800279 114.05316584382298 L 1012.5863758241043 114.0892250178147 L 1012.3414526156245 114.12417877082571 L 1012.0957684467052 114.15802360750982 L 1011.8493478855585 114.19075614341159 L 1011.6022155740352 114.2223731053047 L 1011.3543962251607 114.25287133151929 L 1011.105914620663 114.28224777225817 L 1010.8567956084959 114.31049948990176 L 1010.6070641003528 114.3376236593018 L 1010.3567450691763 114.36361756806399 L 1010.1058635466611 114.38847861681909 L 1009.8544446207503 114.41220431948295 L 1009.602513433127 114.43479230350509 L 1009.3500951767 114.45624031010593 L 1009.0972150930846 114.47654619450265 L 1008.8438984700786 114.49570792612376 L 1008.5901706391329 114.51372358881206 L 1008.3360569728193 114.5305913810163 L 1008.0815828822927 114.5463096159713 L 1007.82677381475 114.56087672186668 L 1007.5716552508858 114.57429124200398 L 1007.3162527023437 114.58655183494237 L 1007.0605917091657 114.59765727463277 L 1006.8046978372383 114.60760645054046 L 1006.5485966757352 114.61639836775615 L 1006.2923138345593 114.62403214709545 L 1006.035874941781 114.63050702518677 L 1005.7793056410761 114.6358223545477 L 1005.5226315891606 114.63997760364975 L 1005.265878453226 114.64297235697146 L 1005.0090719083718 114.64480631504 L 1004.7522376350386 114.64547929446107 L 1004.4954013164396 114.64499122793733 L 1004.2385886359926 114.64334216427498 L 1003.9818252747518 114.64053226837903 L 1003.7251369088393 114.63656182123674 L 1003.4685492068777 114.63143121988952 L 1003.2120878274234 114.62514097739319 L 1002.9557784164007 114.6176917227668 L 1002.6996466045371 114.60908420092959 L 1002.4437180048002 114.59931927262656 L 1002.1880182098369 114.58839791434241 L 1001.9325727894134 114.57632121820387 L 1001.6774072878591 114.5630903918705 L 1001.4225472215113 114.54870675841389 L 1001.1680180761645 114.53317175618541 L 1000.9138453045209 114.51648693867233 L 1000.660054323646 114.4986539743425 L 1000.4066705124263 114.47967464647749 L 1000.1537192090318 114.45955085299428 L 999.9012257083822 114.43828460625544 L 999.6492152596169 114.41587803286792 L 999.3977130635708 114.3923333734704 L 999.1467442702541 114.36765298250918 L 998.8963339763369 114.3418393280028 L 998.6465072226398 114.3148949912952 L 998.3972889916303 114.2868226667976 L 998.1487042049234 114.25762516171906 L 997.9007777207909 114.22730539578573 L 997.6535343316746 114.19586640094897 L 997.4069987617072 114.16331132108203 L 997.1611956642405 114.12964341166581 L 996.9161496193792 114.09486603946317 L 996.6718851315236 114.05898268218235 L 996.4284266269191 114.02199692812917 L 996.1857984512131 113.98391247584823 L 995.9440248670211 113.944733133753 L 995.7031300514999 113.90446281974506 L 995.4631380939305 113.86310556082225 L 995.2240729933085 113.82066549267599 L 994.9859586559448 113.77714685927774 L 994.7488188930748 113.73255401245454 L 994.5126774184771 113.68689141145396 L 994.2775578461022 113.64016362249802 L 994.0434836877117 113.59237531832667 L 993.8104783505262 113.54353127773052 L 993.5785651348854 113.49363638507293 L 993.3477672319173 113.44269562980158 L 993.1181077212202 113.39071410594954 L 992.8896095685536 113.33769701162588 L 992.6622956235424 113.28364964849587 L 992.4361886173916 113.22857742125075 L 992.2113111606136 113.17248583706737 L 991.9876857407666 113.1153805050574 L 991.7653347202059 113.05726713570647 L 991.5442803338489 112.99815154030306 L 991.3245446869494 112.93803963035747 L 991.1061497528893 112.8769374170106 L 990.88911737098 112.81485101043285 L 990.6734692442787 112.75178661921315 L 990.4592269374186 112.68775054973807 L 990.2464118744517 112.6227492055612 L 990.0350453367068 112.55678908676278 L 989.8251484606618 112.48987678929971 L 989.6167422358293 112.42201900434601 L 989.4098475026581 112.3532225176236 L 989.204484950449 112.28349420872384 L 989.0006751152862 112.2128410504195 L 988.7984383779834 112.14127010796754 L 988.5977949620458 112.06878853840256 L 988.3987649316476 111.99540358982111 L 988.2013681896264 111.9211226006569 L 988.0056244754913 111.84595299894696 L 987.8115533634513 111.76990230158879 L 987.6191742604552 111.69297811358877 L 987.4285064042534 111.6151881273016 L 987.2395688614727 111.53654012166106 L 987.0523805257095 111.45704196140221 L 986.8669601156417 111.3767015962748 L 986.6833261731558 111.2955270602484 L 986.501497061493 111.21352647070897 L 986.3214909634128 111.13070802764713 L 986.1433258793752 111.04708001283818 L 985.9670196257399 110.96265078901389 L 985.7925898329856 110.8774287990263 L 985.620053943946 110.79142256500339 L 985.4494292120664 110.70464068749688 L 985.2807326996777 110.61709184462221 L 985.1139812762906 110.52878479119072 L 984.9491916169084 110.43972835783416 L 984.7863802003598 110.34993145012163 L 984.6255633076507 110.2594030476691 L 984.4667570203364 110.16815220324135 L 984.3099772189134 110.0761880418468 L 984.1552395812311 109.98351975982494 L 984.0025595809243 109.89015662392677 L 983.8519524858657 109.79610797038806 L 983.7034333566396 109.70138320399579 L 983.5570170450349 109.60599179714767 L 983.4127181925608 109.50994328890488 L 983.2705512289822 109.4132472840382 L 983.1305303708772 109.31591345206758 L 982.9926696202149 109.21795152629505 L 982.8569827629553 109.11937130283158 L 982.7234833676713 109.02018263961737 L 982.5921847841909 108.92039545543608 L 982.4631001422632 108.82001972892296 L 982.3362423502449 108.71906549756703 L 982.2116240938093 108.6175428567073 L 982.0892578346784 108.51546195852325 L 981.9691558093759 108.41283301101961 L 981.8513300280044 108.30966627700563 L 981.7357922730439 108.20597207306875 L 981.6225540981734 108.10176076854292 L 981.5116268271163 107.99704278447177 L 981.403021552507 107.89182859256644 L 981.2967491347827 107.78612871415844 L 981.1928202010963 107.67995371914753 L 981.0912451442549 107.57331422494474 L 980.9920341216795 107.4662208954106 L 980.8951970543893 107.35868443978885 L 980.8007436260108 107.2507156116354 L 980.7086832818079 107.14232520774314 L 980.6190252277383 107.0335240670621 L 980.5317784295328 106.92432306961568 L 980.4469516117985 106.81473313541265 L 980.3645532571462 106.70476522335508 L 980.284591605343 106.59443033014256 L 980.2070746524876 106.48373948917244 L 980.1320101502102 106.37270376943658 L 980.0594056048989 106.26133427441445 L 979.9892682769475 106.14964214096271 L 979.9216051800304 106.03763853820165 L 979.856423080401 105.92533466639821 L 979.7937284962147 105.81274175584596 L 979.733527696878 105.69987106574217 L 979.6758267024204 105.58673388306175 L 979.6206312828934 105.47334152142872 L 979.567946957793 105.35970531998473 L 979.5177789955077 105.24583664225523 L 979.4701324127918 105.1317468750131 L 979.4250119742642 105.01744742714001 L 979.3824221919309 104.90294972848548 L 979.3423673247347 104.78826522872397 L 979.304851378129 104.67340539620987 L 979.2698781036771 104.55838171683074 L 979.2374509986773 104.44320569285864 L 979.2075733058132 104.3278888418 L 979.1802480128291 104.21244269524384 L 979.1554778522316 104.09687879770858 L 979.133265301016 103.9812087054877 L 979.1136125804189 103.86544398549403 L 979.0965216556963 103.74959621410306 L 979.081994235926 103.63367697599544 L 979.0700317738381 103.51769786299836 L 979.0606354656687 103.40167047292647 L 979.053806251041 103.28560640842208 L 979.0495448128706 103.16951727579495 L 979.0478515772978 103.05341468386156" stroke-miterlimit="10" stroke-width="2.990598758" stroke-dasharray=""/></g><g><g/><text fill="black" stroke="none" font-family="sans-serif" font-size="11pt" font-style="normal" font-weight="normal" text-decoration="normal" x="972.0295753343751" y="133.521438666" text-anchor="start" dominant-baseline="alphabetic">Database</text></g></g><g><path fill="white" stroke="black" paint-order="fill stroke markers" d=" M 489.4958311908854 244.349510286 L 507.0875885908854 244.349510286 L 507.0875885908854 427.30378724599996 L 489.4958311908854 427.30378724599996 L 489.4958311908854 244.349510286" stroke-miterlimit="10" stroke-width="1.4659797833333332" stroke-dasharray=""/><path fill="white" stroke="black" paint-order="fill stroke markers" d=" M 489.4958311908854 524.058452946 L 507.0875885908854 524.058452946 L 507.0875885908854 1046.1114455483998 L 489.4958311908854 1046.1114455483998 L 489.4958311908854 524.058452946" stroke-miterlimit="10" stroke-width="1.4659797833333332" stroke-dasharray=""/><path fill="white" stroke="black" paint-order="fill stroke markers" d=" M 498.2917098908854 724.6044873059998 L 515.8834672908854 724.6044873059998 L 515.8834672908854 996.8545248283999 L 498.2917098908854 996.8545248283999 L 498.2917098908854 724.6044873059998" stroke-miterlimit="10" stroke-width="1.4659797833333332" stroke-dasharray=""/><path fill="white" stroke="black" paint-order="fill stroke markers" d=" M 1277.3727538388177 880.7489259883998 L 1294.9645112388177 880.7489259883998 L 1294.9645112388177 930.0058467083999 L 1277.3727538388177 930.0058467083999 L 1277.3727538388177 880.7489259883998" stroke-miterlimit="10" stroke-width="1.4659797833333332" stroke-dasharray=""/><path fill="white" stroke="black" paint-order="fill stroke markers" d=" M 489.4958311908854 1142.8661112483996 L 507.0875885908854 1142.8661112483996 L 507.0875885908854 2650.0575182507982 L 489.4958311908854 2650.0575182507982 L 489.4958311908854 1142.8661112483996" stroke-miterlimit="10" stroke-width="1.4659797833333332" stroke-dasharray=""/><path fill="white" stroke="black" paint-order="fill stroke markers" d=" M 498.2917098908854 1343.4121456083994 L 515.8834672908854 1343.4121456083994 L 515.8834672908854 1459.5177444483993 L 498.2917098908854 1459.5177444483993 L 498.2917098908854 1343.4121456083994" stroke-miterlimit="10" stroke-width="1.4659797833333332" stroke-dasharray=""/><path fill="white" stroke="black" paint-order="fill stroke markers" d=" M 498.2917098908854 1593.2151006883992 L 515.8834672908854 1593.2151006883992 L 515.8834672908854 2600.8005975307983 L 498.2917098908854 2600.8005975307983 L 498.2917098908854 1593.2151006883992" stroke-miterlimit="10" stroke-width="1.4659797833333332" stroke-dasharray=""/><path fill="white" stroke="black" paint-order="fill stroke markers" d=" M 507.0875885908854 1927.4584912883988 L 524.6793459908854 1927.4584912883988 L 524.6793459908854 2533.9519194107984 L 507.0875885908854 2533.9519194107984 L 507.0875885908854 1927.4584912883988" stroke-miterlimit="10" stroke-width="1.4659797833333332" stroke-dasharray=""/><path fill="white" stroke="black" paint-order="fill stroke markers" d=" M 515.8834672908854 2128.0045256483986 L 533.4752246908854 2128.0045256483986 L 533.4752246908854 2400.2545631707985 L 515.8834672908854 2400.2545631707985 L 515.8834672908854 2128.0045256483986" stroke-miterlimit="10" stroke-width="1.4659797833333332" stroke-dasharray=""/><path fill="white" stroke="black" paint-order="fill stroke markers" d=" M 1277.3727538388177 2284.1489643307987 L 1294.9645112388177 2284.1489643307987 L 1294.9645112388177 2333.4058850507986 L 1277.3727538388177 2333.4058850507986 L 1277.3727538388177 2284.1489643307987" stroke-miterlimit="10" stroke-width="1.4659797833333332" stroke-dasharray=""/><g><g><rect fill="white" stroke="none" x="102.4279108229427" y="221.480225666" width="363.802917845" height="22.86928462"/></g><text fill="black" stroke="none" font-family="sans-serif" font-size="11pt" font-style="normal" font-weight="normal" text-decoration="normal" x="105.0666744329427" y="237.312807326" text-anchor="start" dominant-baseline="alphabetic">getCustomer(name : String, phone : String, VIP: int)</text></g><g><path fill="none" stroke="black" paint-order="fill stroke markers" d=" M 79.1629083 244.349510286 L 486.56387162421873 244.349510286" stroke-miterlimit="10" stroke-width="1.4659797833333332" stroke-dasharray=""/><g transform="translate(489.4958311908854,244.349510286) translate(-489.4958311908854,-244.349510286)"><path fill="black" stroke="none" paint-order="stroke fill markers" d=" M 474.836033357552 237.01961136933332 L 489.4958311908854 244.349510286 L 474.836033357552 251.67940920266668 Z"/></g></g><g><g><rect fill="white" stroke="none" x="527.9045015142187" y="270.737146386" width="439.3863529035938" height="22.86928462"/></g><text fill="black" stroke="none" font-family="sans-serif" font-size="11pt" font-style="normal" font-weight="normal" text-decoration="normal" x="530.5432651242187" y="286.569728046" text-anchor="start" dominant-baseline="alphabetic">getFromCacheByDetails(name : String, phone : String, VIP: int)</text></g><g><path fill="none" stroke="black" paint-order="fill stroke markers" d=" M 507.0875885908854 293.606431006 L 577.4546181908854 293.606431006 L 577.4546181908854 311.198188406 L 510.01954815755204 311.198188406" stroke-miterlimit="10" stroke-width="1.4659797833333332" stroke-dasharray=""/><g transform="translate(507.0875885908854,311.198188406) translate(-507.0875885908854,-311.198188406)"><path fill="black" stroke="none" paint-order="stroke fill markers" d=" M 521.7473864242187 303.86828948933334 L 507.0875885908854 311.198188406 L 521.7473864242187 318.52808732266664 Z"/></g></g><path fill="white" stroke="black" paint-order="fill stroke markers" d=" M 489.4958311908854 357.81634551599996 L 480.6999524908854 357.81634551599996 M 255.43729446619787 337.585824506 L 464.86737083088536 337.585824506 L 480.6999524908854 353.418406166 L 480.6999524908854 378.046866526 L 255.43729446619787 378.046866526 L 255.43729446619787 337.585824506 M 464.86737083088536 337.585824506 L 464.86737083088536 353.418406166 L 480.6999524908854 353.418406166" stroke-miterlimit="10" stroke-width="1.4659797833333332" stroke-dasharray=""/><g><text fill="black" stroke="none" font-family="sans-serif" font-size="11pt" font-style="normal" font-weight="normal" text-decoration="normal" x="280.06575482619786" y="362.21428486599996" text-anchor="start" dominant-baseline="alphabetic">Customer found in cache</text></g><g><g><rect fill="white" stroke="none" x="214.19240667255207" y="404.434502626" width="140.27392614578125" height="22.86928462"/></g><text fill="black" stroke="none" font-family="sans-serif" font-size="11pt" font-style="normal" font-weight="normal" text-decoration="normal" x="216.83117028255208" y="420.267084286" text-anchor="start" dominant-baseline="alphabetic">return c : Customer</text></g><g><path fill="none" stroke="black" paint-order="fill stroke markers" d=" M 489.4958311908854 427.30378724599996 L 82.09486786666666 427.30378724599996" stroke-miterlimit="10" stroke-width="1.4659797833333332" stroke-dasharray="7.0367029599999995"/><g transform="translate(79.1629083,427.30378724599996) translate(-79.1629083,-427.30378724599996)"><path fill="black" stroke="none" paint-order="stroke fill markers" d=" M 93.82270613333333 419.9738883293333 L 79.1629083 427.30378724599996 L 93.82270613333333 434.6336861626666 Z"/></g></g><g><g><rect fill="white" stroke="none" x="99.97982122333333" y="501.189168326" width="368.6990970442188" height="22.86928462"/></g><text fill="black" stroke="none" font-family="sans-serif" font-size="11pt" font-style="normal" font-weight="normal" text-decoration="normal" x="102.61858483333333" y="517.021749986" text-anchor="start" dominant-baseline="alphabetic">getCustomer(name : String, phone : String, VIP: int))</text></g><g><path fill="none" stroke="black" paint-order="fill stroke markers" d=" M 79.1629083 524.058452946 L 486.56387162421873 524.058452946" stroke-miterlimit="10" stroke-width="1.4659797833333332" stroke-dasharray=""/><g transform="translate(489.4958311908854,524.058452946) translate(-489.4958311908854,-524.058452946)"><path fill="black" stroke="none" paint-order="stroke fill markers" d=" M 474.836033357552 516.7285540293333 L 489.4958311908854 524.058452946 L 474.836033357552 531.3883518626667 Z"/></g></g><g><g><rect fill="white" stroke="none" x="527.9045015142187" y="550.4460890459999" width="444.2825321028125" height="22.86928462"/></g><text fill="black" stroke="none" font-family="sans-serif" font-size="11pt" font-style="normal" font-weight="normal" text-decoration="normal" x="530.5432651242187" y="566.2786707059998" text-anchor="start" dominant-baseline="alphabetic">getFromCacheByDetails(name : String, phone : String, VIP: int))</text></g><g><path fill="none" stroke="black" paint-order="fill stroke markers" d=" M 507.0875885908854 573.3153736659999 L 577.4546181908854 573.3153736659999 L 577.4546181908854 590.9071310659999 L 510.01954815755204 590.9071310659999" stroke-miterlimit="10" stroke-width="1.4659797833333332" stroke-dasharray=""/><g transform="translate(507.0875885908854,590.9071310659999) translate(-507.0875885908854,-590.9071310659999)"><path fill="black" stroke="none" paint-order="stroke fill markers" d=" M 521.7473864242187 583.5772321493332 L 507.0875885908854 590.9071310659999 L 521.7473864242187 598.2370299826666 Z"/></g></g><path fill="white" stroke="black" paint-order="fill stroke markers" d=" M 489.4958311908854 637.5252881759999 L 480.6999524908854 637.5252881759999 M 227.28411148279946 617.2947671659998 L 464.86737083088536 617.2947671659998 L 480.6999524908854 633.1273488259998 L 480.6999524908854 657.7558091859999 L 227.28411148279946 657.7558091859999 L 227.28411148279946 617.2947671659998 M 464.86737083088536 617.2947671659998 L 464.86737083088536 633.1273488259998 L 480.6999524908854 633.1273488259998" stroke-miterlimit="10" stroke-width="1.4659797833333332" stroke-dasharray=""/><g><text fill="black" stroke="none" font-family="sans-serif" font-size="11pt" font-style="normal" font-weight="normal" text-decoration="normal" x="251.91257184279948" y="641.9232275259999" text-anchor="start" dominant-baseline="alphabetic">Customer not found in cache</text></g><g><g><rect fill="white" stroke="none" x="536.7003802142187" y="684.1434452859997" width="180.38847387527343" height="22.86928462"/></g><text fill="black" stroke="none" font-family="sans-serif" font-size="11pt" font-style="normal" font-weight="normal" text-decoration="normal" x="539.3391438242187" y="699.9760269459997" text-anchor="start" dominant-baseline="alphabetic">getCustomer(sql : String)</text></g><g><path fill="none" stroke="black" paint-order="fill stroke markers" d=" M 507.0875885908854 707.0127299059998 L 586.2504968908854 707.0127299059998 L 586.2504968908854 724.6044873059998 L 518.8154268575521 724.6044873059998" stroke-miterlimit="10" stroke-width="1.4659797833333332" stroke-dasharray=""/><g transform="translate(515.8834672908854,724.6044873059998) translate(-515.8834672908854,-724.6044873059998)"><path fill="black" stroke="none" paint-order="stroke fill markers" d=" M 530.5432651242187 717.2745883893331 L 515.8834672908854 724.6044873059998 L 530.5432651242187 731.9343862226665 Z"/></g></g><g><g><rect fill="white" stroke="none" x="667.2787409789975" y="750.9921234059998" width="186.05777013992187" height="22.86928462"/></g><text fill="black" stroke="none" font-family="sans-serif" font-size="11pt" font-style="normal" font-weight="normal" text-decoration="normal" x="669.9175045889974" y="766.8247050659998" text-anchor="start" dominant-baseline="alphabetic">executeQuery(sql : String)</text></g><g><path fill="none" stroke="black" paint-order="fill stroke markers" d=" M 515.8834672908854 773.8614080259998 L 1001.7998252403646 773.8614080259998" stroke-miterlimit="10" stroke-width="1.4659797833333332" stroke-dasharray=""/><g transform="translate(1004.7317848070313,773.8614080259998) translate(-1004.7317848070313,-773.8614080259998)"><path fill="black" stroke="none" paint-order="stroke fill markers" d=" M 990.071986973698 766.5315091093331 L 1004.7317848070313 773.8614080259998 L 990.071986973698 781.1913069426665 Z"/></g></g><g><path fill="white" stroke="black" paint-order="fill stroke markers" d=" M 1312.2923922778177 826.3728038649999 A 26.123759739 26.123759739 0 1 1 1312.292379215939 826.3466801096149 M 1258.5495734208178 854.8890426103999 L 1310.7970928988177 854.8890426103999" stroke-miterlimit="10" stroke-width="2.990598758" stroke-dasharray=""/></g><g><g/><text fill="black" stroke="none" font-family="sans-serif" font-size="11pt" font-style="normal" font-weight="normal" text-decoration="normal" x="1282.492897065185" y="873.9760993893999" text-anchor="start" dominant-baseline="alphabetic">c</text></g><g><g><rect fill="white" stroke="none" x="649.2019938063985" y="817.6297004371999" width="476.0290530989063" height="22.86928462"/></g><text fill="black" stroke="none" font-family="sans-serif" font-size="11pt" font-style="normal" font-weight="normal" text-decoration="normal" x="651.8407574163984" y="833.4622820971998" text-anchor="start" dominant-baseline="alphabetic">PersistentCustomer(oid: int, name : String, number : String, VIP: int)</text></g><g><path fill="none" stroke="black" paint-order="fill stroke markers" d=" M 515.8834672908854 840.4989850571999 L 1255.6176138541512 840.4989850571999" stroke-miterlimit="10" stroke-width="1.4659797833333332" stroke-dasharray=""/><g transform="translate(1258.5495734208178,840.4989850571999) translate(-1258.5495734208178,-840.4989850571999)"><path fill="black" stroke="none" paint-order="stroke fill markers" d=" M 1243.8897755874843 833.1690861405332 L 1258.5495734208178 840.4989850571999 L 1243.8897755874843 847.8288839738666 Z"/></g></g><g><g><rect fill="white" stroke="none" x="893.9893469548516" y="907.1365620883998" width="5.27752722" height="22.86928462"/></g><text fill="black" stroke="none" font-family="sans-serif" font-size="11pt" font-style="normal" font-weight="normal" text-decoration="normal" x="896.6281105648516" y="922.9691437483998" text-anchor="start" dominant-baseline="alphabetic"></text></g><g><path fill="none" stroke="black" paint-order="fill stroke markers" d=" M 1277.3727538388177 930.0058467083999 L 518.8154268575521 930.0058467083999" stroke-miterlimit="10" stroke-width="1.4659797833333332" stroke-dasharray="7.0367029599999995"/><g transform="translate(515.8834672908854,930.0058467083999) translate(-515.8834672908854,-930.0058467083999)"><path fill="black" stroke="none" paint-order="stroke fill markers" d=" M 530.5432651242187 922.6759477917332 L 515.8834672908854 930.0058467083999 L 530.5432651242187 937.3357456250666 Z"/></g></g><g><g><rect fill="white" stroke="none" x="536.7003802142187" y="956.3934828083999" width="60.009079344023434" height="22.86928462"/></g><text fill="black" stroke="none" font-family="sans-serif" font-size="11pt" font-style="normal" font-weight="normal" text-decoration="normal" x="539.3391438242187" y="972.2260644683998" text-anchor="start" dominant-baseline="alphabetic">return c</text></g><g><path fill="none" stroke="black" paint-order="fill stroke markers" d=" M 515.8834672908854 979.2627674283999 L 586.2504968908854 979.2627674283999 L 586.2504968908854 996.8545248283999 L 518.8154268575521 996.8545248283999" stroke-miterlimit="10" stroke-width="1.4659797833333332" stroke-dasharray="7.0367029599999995"/><g transform="translate(515.8834672908854,996.8545248283999) translate(-515.8834672908854,-996.8545248283999)"><path fill="black" stroke="none" paint-order="stroke fill markers" d=" M 530.5432651242187 989.5246259117332 L 515.8834672908854 996.8545248283999 L 530.5432651242187 1004.1844237450666 Z"/></g></g><g><g><rect fill="white" stroke="none" x="214.19240667255207" y="1023.2421609283998" width="140.27392614578125" height="22.86928462"/></g><text fill="black" stroke="none" font-family="sans-serif" font-size="11pt" font-style="normal" font-weight="normal" text-decoration="normal" x="216.83117028255208" y="1039.0747425883997" text-anchor="start" dominant-baseline="alphabetic">return c : Customer</text></g><g><path fill="none" stroke="black" paint-order="fill stroke markers" d=" M 489.4958311908854 1046.1114455483998 L 82.09486786666666 1046.1114455483998" stroke-miterlimit="10" stroke-width="1.4659797833333332" stroke-dasharray="7.0367029599999995"/><g transform="translate(79.1629083,1046.1114455483998) translate(-79.1629083,-1046.1114455483998)"><path fill="black" stroke="none" paint-order="stroke fill markers" d=" M 93.82270613333333 1038.7815466317331 L 79.1629083 1046.1114455483998 L 93.82270613333333 1053.4413444650665 Z"/></g></g><g><g><rect fill="white" stroke="none" x="169.59681798847004" y="1119.9968266283997" width="229.4651035139453" height="22.86928462"/></g><text fill="black" stroke="none" font-family="sans-serif" font-size="11pt" font-style="normal" font-weight="normal" text-decoration="normal" x="172.23558159847005" y="1135.8294082883997" text-anchor="start" dominant-baseline="alphabetic">getCustomer(name, phone, VIP)</text></g><g><path fill="none" stroke="black" paint-order="fill stroke markers" d=" M 79.1629083 1142.8661112483996 L 486.56387162421873 1142.8661112483996" stroke-miterlimit="10" stroke-width="1.4659797833333332" stroke-dasharray=""/><g transform="translate(489.4958311908854,1142.8661112483996) translate(-489.4958311908854,-1142.8661112483996)"><path fill="black" stroke="none" paint-order="stroke fill markers" d=" M 474.836033357552 1135.536212331733 L 489.4958311908854 1142.8661112483996 L 474.836033357552 1150.1960101650664 Z"/></g></g><g><g><rect fill="white" stroke="none" x="527.9045015142187" y="1169.2537473483997" width="305.04852331375" height="22.86928462"/></g><text fill="black" stroke="none" font-family="sans-serif" font-size="11pt" font-style="normal" font-weight="normal" text-decoration="normal" x="530.5432651242187" y="1185.0863290083996" text-anchor="start" dominant-baseline="alphabetic">getFromCacheByDetails(name, phone, VIP)</text></g><g><path fill="none" stroke="black" paint-order="fill stroke markers" d=" M 507.0875885908854 1192.1230319683996 L 577.4546181908854 1192.1230319683996 L 577.4546181908854 1209.7147893683996 L 510.01954815755204 1209.7147893683996" stroke-miterlimit="10" stroke-width="1.4659797833333332" stroke-dasharray=""/><g transform="translate(507.0875885908854,1209.7147893683996) translate(-507.0875885908854,-1209.7147893683996)"><path fill="black" stroke="none" paint-order="stroke fill markers" d=" M 521.7473864242187 1202.3848904517329 L 507.0875885908854 1209.7147893683996 L 521.7473864242187 1217.0446882850663 Z"/></g></g><path fill="white" stroke="black" paint-order="fill stroke markers" d=" M 489.4958311908854 1256.3329464783994 L 480.6999524908854 1256.3329464783994 M 227.28411148279946 1236.1024254683996 L 464.86737083088536 1236.1024254683996 L 480.6999524908854 1251.9350071283995 L 480.6999524908854 1276.5634674883995 L 227.28411148279946 1276.5634674883995 L 227.28411148279946 1236.1024254683996 M 464.86737083088536 1236.1024254683996 L 464.86737083088536 1251.9350071283995 L 480.6999524908854 1251.9350071283995" stroke-miterlimit="10" stroke-width="1.4659797833333332" stroke-dasharray=""/><g><text fill="black" stroke="none" font-family="sans-serif" font-size="11pt" font-style="normal" font-weight="normal" text-decoration="normal" x="251.91257184279948" y="1260.7308858283993" text-anchor="start" dominant-baseline="alphabetic">Customer not found in cache</text></g><g><g><rect fill="white" stroke="none" x="536.7003802142187" y="1302.9511035883995" width="180.38847387527343" height="22.86928462"/></g><text fill="black" stroke="none" font-family="sans-serif" font-size="11pt" font-style="normal" font-weight="normal" text-decoration="normal" x="539.3391438242187" y="1318.7836852483995" text-anchor="start" dominant-baseline="alphabetic">getCustomer(sql : String)</text></g><g><path fill="none" stroke="black" paint-order="fill stroke markers" d=" M 507.0875885908854 1325.8203882083994 L 586.2504968908854 1325.8203882083994 L 586.2504968908854 1343.4121456083994 L 518.8154268575521 1343.4121456083994" stroke-miterlimit="10" stroke-width="1.4659797833333332" stroke-dasharray=""/><g transform="translate(515.8834672908854,1343.4121456083994) translate(-515.8834672908854,-1343.4121456083994)"><path fill="black" stroke="none" paint-order="stroke fill markers" d=" M 530.5432651242187 1336.0822466917327 L 515.8834672908854 1343.4121456083994 L 530.5432651242187 1350.7420445250661 Z"/></g></g><g><g><rect fill="white" stroke="none" x="667.2787409789975" y="1369.7997817083995" width="186.05777013992187" height="22.86928462"/></g><text fill="black" stroke="none" font-family="sans-serif" font-size="11pt" font-style="normal" font-weight="normal" text-decoration="normal" x="669.9175045889974" y="1385.6323633683994" text-anchor="start" dominant-baseline="alphabetic">executeQuery(sql : String)</text></g><g><path fill="none" stroke="black" paint-order="fill stroke markers" d=" M 515.8834672908854 1392.6690663283994 L 1001.7998252403646 1392.6690663283994" stroke-miterlimit="10" stroke-width="1.4659797833333332" stroke-dasharray=""/><g transform="translate(1004.7317848070313,1392.6690663283994) translate(-1004.7317848070313,-1392.6690663283994)"><path fill="black" stroke="none" paint-order="stroke fill markers" d=" M 990.071986973698 1385.3391674117327 L 1004.7317848070313 1392.6690663283994 L 990.071986973698 1399.998965245066 Z"/></g></g><g><g><rect fill="white" stroke="none" x="536.7003802142187" y="1419.0567024283994" width="5.27752722" height="22.86928462"/></g><text fill="black" stroke="none" font-family="sans-serif" font-size="11pt" font-style="normal" font-weight="normal" text-decoration="normal" x="539.3391438242187" y="1434.8892840883993" text-anchor="start" dominant-baseline="alphabetic"></text></g><g><path fill="none" stroke="black" paint-order="fill stroke markers" d=" M 515.8834672908854 1441.9259870483993 L 586.2504968908854 1441.9259870483993 L 586.2504968908854 1459.5177444483993 L 518.8154268575521 1459.5177444483993" stroke-miterlimit="10" stroke-width="1.4659797833333332" stroke-dasharray="7.0367029599999995"/><g transform="translate(515.8834672908854,1459.5177444483993) translate(-515.8834672908854,-1459.5177444483993)"><path fill="black" stroke="none" paint-order="stroke fill markers" d=" M 530.5432651242187 1452.1878455317326 L 515.8834672908854 1459.5177444483993 L 530.5432651242187 1466.847643365066 Z"/></g></g><path fill="white" stroke="black" paint-order="fill stroke markers" d=" M 489.4958311908854 1506.1359015583992 L 480.6999524908854 1506.1359015583992 M 203.8195729085807 1485.9053805483993 L 464.86737083088536 1485.9053805483993 L 480.6999524908854 1501.7379622083993 L 480.6999524908854 1526.3664225683992 L 203.8195729085807 1526.3664225683992 L 203.8195729085807 1485.9053805483993 M 464.86737083088536 1485.9053805483993 L 464.86737083088536 1501.7379622083993 L 480.6999524908854 1501.7379622083993" stroke-miterlimit="10" stroke-width="1.4659797833333332" stroke-dasharray=""/><g><text fill="black" stroke="none" font-family="sans-serif" font-size="11pt" font-style="normal" font-weight="normal" text-decoration="normal" x="228.44803326858073" y="1510.533840908399" text-anchor="start" dominant-baseline="alphabetic">Customer not found in database</text></g><g><g><rect fill="white" stroke="none" x="536.7003802142187" y="1552.7540586683992" width="367.5037235090625" height="22.86928462"/></g><text fill="black" stroke="none" font-family="sans-serif" font-size="11pt" font-style="normal" font-weight="normal" text-decoration="normal" x="539.3391438242187" y="1568.5866403283992" text-anchor="start" dominant-baseline="alphabetic">addCustomer(name : String, phone : String, VIP: int)</text></g><g><path fill="none" stroke="black" paint-order="fill stroke markers" d=" M 507.0875885908854 1575.6233432883992 L 586.2504968908854 1575.6233432883992 L 586.2504968908854 1593.2151006883992 L 518.8154268575521 1593.2151006883992" stroke-miterlimit="10" stroke-width="1.4659797833333332" stroke-dasharray=""/><g transform="translate(515.8834672908854,1593.2151006883992) translate(-515.8834672908854,-1593.2151006883992)"><path fill="black" stroke="none" paint-order="stroke fill markers" d=" M 530.5432651242187 1585.8852017717325 L 515.8834672908854 1593.2151006883992 L 530.5432651242187 1600.5449996050659 Z"/></g></g><g><g><rect fill="white" stroke="none" x="536.7003802142187" y="1619.6027367883992" width="444.2825321028125" height="22.86928462"/></g><text fill="black" stroke="none" font-family="sans-serif" font-size="11pt" font-style="normal" font-weight="normal" text-decoration="normal" x="539.3391438242187" y="1635.4353184483991" text-anchor="start" dominant-baseline="alphabetic">getFromCacheByDetails(name : String, phone : String, VIP: int))</text></g><g><path fill="none" stroke="black" paint-order="fill stroke markers" d=" M 515.8834672908854 1642.472021408399 L 586.2504968908854 1642.472021408399 L 586.2504968908854 1660.063778808399 L 518.8154268575521 1660.063778808399" stroke-miterlimit="10" stroke-width="1.4659797833333332" stroke-dasharray=""/><g transform="translate(515.8834672908854,1660.063778808399) translate(-515.8834672908854,-1660.063778808399)"><path fill="black" stroke="none" paint-order="stroke fill markers" d=" M 530.5432651242187 1652.7338798917324 L 515.8834672908854 1660.063778808399 L 530.5432651242187 1667.3936777250658 Z"/></g></g><path fill="white" stroke="black" paint-order="fill stroke markers" d=" M 427.0813022042252 1686.451414908399 L 553.6695359175455 1686.451414908399 L 569.5021175775455 1702.283996568399 L 569.5021175775455 1726.912456928399 L 427.0813022042252 1726.912456928399 L 427.0813022042252 1686.451414908399 M 553.6695359175455 1686.451414908399 L 553.6695359175455 1702.283996568399 L 569.5021175775455 1702.283996568399" stroke-miterlimit="10" stroke-width="1.4659797833333332" stroke-dasharray=""/><g><text fill="black" stroke="none" font-family="sans-serif" font-size="11pt" font-style="normal" font-weight="normal" text-decoration="normal" x="451.70976256422523" y="1711.0798752683988" text-anchor="start" dominant-baseline="alphabetic">still not there</text></g><g><g><rect fill="white" stroke="none" x="662.8227702148373" y="1753.300093028399" width="194.96971166824218" height="22.86928462"/></g><text fill="black" stroke="none" font-family="sans-serif" font-size="11pt" font-style="normal" font-weight="normal" text-decoration="normal" x="665.4615338248373" y="1769.132674688399" text-anchor="start" dominant-baseline="alphabetic">executeUpdate(sql : String)</text></g><g><path fill="none" stroke="black" paint-order="fill stroke markers" d=" M 515.8834672908854 1776.169377648399 L 1001.7998252403646 1776.169377648399" stroke-miterlimit="10" stroke-width="1.4659797833333332" stroke-dasharray=""/><g transform="translate(1004.7317848070313,1776.169377648399) translate(-1004.7317848070313,-1776.169377648399)"><path fill="black" stroke="none" paint-order="stroke fill markers" d=" M 990.071986973698 1768.8394787317322 L 1004.7317848070313 1776.169377648399 L 990.071986973698 1783.4992765650657 Z"/></g></g><path fill="white" stroke="black" paint-order="fill stroke markers" d=" M 162.64683107385412 1802.557013748399 L 818.1040070479166 1802.557013748399 L 833.9365887079166 1818.389595408399 L 833.9365887079166 1860.609813168399 L 162.64683107385412 1860.609813168399 L 162.64683107385412 1802.557013748399 M 818.1040070479166 1802.557013748399 L 818.1040070479166 1818.389595408399 L 833.9365887079166 1818.389595408399" stroke-miterlimit="10" stroke-width="1.4659797833333332" stroke-dasharray=""/><g><text fill="black" stroke="none" font-family="sans-serif" font-size="11pt" font-style="normal" font-weight="normal" text-decoration="normal" x="187.27529143385414" y="1827.1854741083987" text-anchor="start" dominant-baseline="alphabetic">inserted into database</text><text fill="black" stroke="none" font-family="sans-serif" font-size="11pt" font-style="normal" font-weight="normal" text-decoration="normal" x="187.27529143385414" y="1844.7772315083987" text-anchor="start" dominant-baseline="alphabetic">Object is not created because we need to know what oid was generated by the database</text></g><g><g><rect fill="white" stroke="none" x="545.4962589142187" y="1886.997449268399" width="363.802917845" height="22.86928462"/></g><text fill="black" stroke="none" font-family="sans-serif" font-size="11pt" font-style="normal" font-weight="normal" text-decoration="normal" x="548.1350225242187" y="1902.8300309283989" text-anchor="start" dominant-baseline="alphabetic">getCustomer(name : String, phone : String, VIP: int)</text></g><g><path fill="none" stroke="black" paint-order="fill stroke markers" d=" M 515.8834672908854 1909.8667338883988 L 595.0463755908854 1909.8667338883988 L 595.0463755908854 1927.4584912883988 L 527.6113055575521 1927.4584912883988" stroke-miterlimit="10" stroke-width="1.4659797833333332" stroke-dasharray=""/><g transform="translate(524.6793459908854,1927.4584912883988) translate(-524.6793459908854,-1927.4584912883988)"><path fill="black" stroke="none" paint-order="stroke fill markers" d=" M 539.3391438242187 1920.128592371732 L 524.6793459908854 1927.4584912883988 L 539.3391438242187 1934.7883902050655 Z"/></g></g><g><g><rect fill="white" stroke="none" x="545.4962589142187" y="1953.8461273883988" width="439.3863529035938" height="22.86928462"/></g><text fill="black" stroke="none" font-family="sans-serif" font-size="11pt" font-style="normal" font-weight="normal" text-decoration="normal" x="548.1350225242187" y="1969.6787090483988" text-anchor="start" dominant-baseline="alphabetic">getFromCacheByDetails(name : String, phone : String, VIP: int)</text></g><g><path fill="none" stroke="black" paint-order="fill stroke markers" d=" M 524.6793459908854 1976.7154120083987 L 595.0463755908854 1976.7154120083987 L 595.0463755908854 1994.3071694083987 L 527.6113055575521 1994.3071694083987" stroke-miterlimit="10" stroke-width="1.4659797833333332" stroke-dasharray=""/><g transform="translate(524.6793459908854,1994.3071694083987) translate(-524.6793459908854,-1994.3071694083987)"><path fill="black" stroke="none" paint-order="stroke fill markers" d=" M 539.3391438242187 1986.977270491732 L 524.6793459908854 1994.3071694083987 L 539.3391438242187 2001.6370683250655 Z"/></g></g><path fill="white" stroke="black" paint-order="fill stroke markers" d=" M 417.9366946602799 2020.6948055083988 L 562.8141434614909 2020.6948055083988 L 578.6467251214908 2036.5273871683987 L 578.6467251214908 2061.1558475283987 L 417.9366946602799 2061.1558475283987 L 417.9366946602799 2020.6948055083988 M 562.8141434614909 2020.6948055083988 L 562.8141434614909 2036.5273871683987 L 578.6467251214908 2036.5273871683987" stroke-miterlimit="10" stroke-width="1.4659797833333332" stroke-dasharray=""/><g><text fill="black" stroke="none" font-family="sans-serif" font-size="11pt" font-style="normal" font-weight="normal" text-decoration="normal" x="442.5651550202799" y="2045.3232658683985" text-anchor="start" dominant-baseline="alphabetic">not in cache yet</text></g><g><g><rect fill="white" stroke="none" x="554.2921376142187" y="2087.5434836283985" width="180.38847387527343" height="22.86928462"/></g><text fill="black" stroke="none" font-family="sans-serif" font-size="11pt" font-style="normal" font-weight="normal" text-decoration="normal" x="556.9309012242187" y="2103.3760652883984" text-anchor="start" dominant-baseline="alphabetic">getCustomer(sql : String)</text></g><g><path fill="none" stroke="black" paint-order="fill stroke markers" d=" M 524.6793459908854 2110.4127682483986 L 603.8422542908854 2110.4127682483986 L 603.8422542908854 2128.0045256483986 L 536.4071842575521 2128.0045256483986" stroke-miterlimit="10" stroke-width="1.4659797833333332" stroke-dasharray=""/><g transform="translate(533.4752246908854,2128.0045256483986) translate(-533.4752246908854,-2128.0045256483986)"><path fill="black" stroke="none" paint-order="stroke fill markers" d=" M 548.1350225242187 2120.674626731732 L 533.4752246908854 2128.0045256483986 L 548.1350225242187 2135.334424565065 Z"/></g></g><g><g><rect fill="white" stroke="none" x="676.0746196789975" y="2154.3921617483984" width="186.05777013992187" height="22.86928462"/></g><text fill="black" stroke="none" font-family="sans-serif" font-size="11pt" font-style="normal" font-weight="normal" text-decoration="normal" x="678.7133832889974" y="2170.2247434083984" text-anchor="start" dominant-baseline="alphabetic">executeQuery(sql : String)</text></g><g><path fill="none" stroke="black" paint-order="fill stroke markers" d=" M 533.4752246908854 2177.2614463683985 L 1001.7998252403646 2177.2614463683985" stroke-miterlimit="10" stroke-width="1.4659797833333332" stroke-dasharray=""/><g transform="translate(1004.7317848070313,2177.2614463683985) translate(-1004.7317848070313,-2177.2614463683985)"><path fill="black" stroke="none" paint-order="stroke fill markers" d=" M 990.071986973698 2169.931547451732 L 1004.7317848070313 2177.2614463683985 L 990.071986973698 2184.591345285065 Z"/></g></g><g><path fill="white" stroke="black" paint-order="fill stroke markers" d=" M 1312.2923922778177 2229.7728422073988 A 26.123759739 26.123759739 0 1 1 1312.292379215939 2229.7467184520137 M 1258.5495734208178 2258.289080952799 L 1310.7970928988177 2258.289080952799" stroke-miterlimit="10" stroke-width="2.990598758" stroke-dasharray=""/></g><g><g/><text fill="black" stroke="none" font-family="sans-serif" font-size="11pt" font-style="normal" font-weight="normal" text-decoration="normal" x="1282.492897065185" y="2277.3761377317987" text-anchor="start" dominant-baseline="alphabetic">c</text></g><g><g><rect fill="white" stroke="none" x="657.9978725063985" y="2221.0297387795986" width="476.0290530989063" height="22.86928462"/></g><text fill="black" stroke="none" font-family="sans-serif" font-size="11pt" font-style="normal" font-weight="normal" text-decoration="normal" x="660.6366361163984" y="2236.8623204395985" text-anchor="start" dominant-baseline="alphabetic">PersistentCustomer(oid: int, name : String, number : String, VIP: int)</text></g><g><path fill="none" stroke="black" paint-order="fill stroke markers" d=" M 533.4752246908854 2243.8990233995987 L 1255.6176138541512 2243.8990233995987" stroke-miterlimit="10" stroke-width="1.4659797833333332" stroke-dasharray=""/><g transform="translate(1258.5495734208178,2243.8990233995987) translate(-1258.5495734208178,-2243.8990233995987)"><path fill="black" stroke="none" paint-order="stroke fill markers" d=" M 1243.8897755874843 2236.5691244829322 L 1258.5495734208178 2243.8990233995987 L 1243.8897755874843 2251.228922316265 Z"/></g></g><g><g><rect fill="white" stroke="none" x="902.7852256548516" y="2310.5366004307984" width="5.27752722" height="22.86928462"/></g><text fill="black" stroke="none" font-family="sans-serif" font-size="11pt" font-style="normal" font-weight="normal" text-decoration="normal" x="905.4239892648516" y="2326.3691820907984" text-anchor="start" dominant-baseline="alphabetic"></text></g><g><path fill="none" stroke="black" paint-order="fill stroke markers" d=" M 1277.3727538388177 2333.4058850507986 L 536.4071842575521 2333.4058850507986" stroke-miterlimit="10" stroke-width="1.4659797833333332" stroke-dasharray="7.0367029599999995"/><g transform="translate(533.4752246908854,2333.4058850507986) translate(-533.4752246908854,-2333.4058850507986)"><path fill="black" stroke="none" paint-order="stroke fill markers" d=" M 548.1350225242187 2326.075986134132 L 533.4752246908854 2333.4058850507986 L 548.1350225242187 2340.735783967465 Z"/></g></g><g><g><rect fill="white" stroke="none" x="554.2921376142187" y="2359.7935211507984" width="60.009079344023434" height="22.86928462"/></g><text fill="black" stroke="none" font-family="sans-serif" font-size="11pt" font-style="normal" font-weight="normal" text-decoration="normal" x="556.9309012242187" y="2375.6261028107983" text-anchor="start" dominant-baseline="alphabetic">return c</text></g><g><path fill="none" stroke="black" paint-order="fill stroke markers" d=" M 533.4752246908854 2382.6628057707985 L 603.8422542908854 2382.6628057707985 L 603.8422542908854 2400.2545631707985 L 536.4071842575521 2400.2545631707985" stroke-miterlimit="10" stroke-width="1.4659797833333332" stroke-dasharray="7.0367029599999995"/><g transform="translate(533.4752246908854,2400.2545631707985) translate(-533.4752246908854,-2400.2545631707985)"><path fill="black" stroke="none" paint-order="stroke fill markers" d=" M 548.1350225242187 2392.924664254132 L 533.4752246908854 2400.2545631707985 L 548.1350225242187 2407.584462087465 Z"/></g></g><g><g><rect fill="white" stroke="none" x="545.4962589142187" y="2426.6421992707983" width="189.8731082746875" height="22.86928462"/></g><text fill="black" stroke="none" font-family="sans-serif" font-size="11pt" font-style="normal" font-weight="normal" text-decoration="normal" x="548.1350225242187" y="2442.4747809307983" text-anchor="start" dominant-baseline="alphabetic">addToCache(c : Customer)</text></g><g><path fill="none" stroke="black" paint-order="fill stroke markers" d=" M 524.6793459908854 2449.5114838907984 L 595.0463755908854 2449.5114838907984 L 595.0463755908854 2467.1032412907985 L 527.6113055575521 2467.1032412907985" stroke-miterlimit="10" stroke-width="1.4659797833333332" stroke-dasharray=""/><g transform="translate(524.6793459908854,2467.1032412907985) translate(-524.6793459908854,-2467.1032412907985)"><path fill="black" stroke="none" paint-order="stroke fill markers" d=" M 539.3391438242187 2459.773342374132 L 524.6793459908854 2467.1032412907985 L 539.3391438242187 2474.433140207465 Z"/></g></g><g><g><rect fill="white" stroke="none" x="545.4962589142187" y="2493.4908773907982" width="60.009079344023434" height="22.86928462"/></g><text fill="black" stroke="none" font-family="sans-serif" font-size="11pt" font-style="normal" font-weight="normal" text-decoration="normal" x="548.1350225242187" y="2509.323459050798" text-anchor="start" dominant-baseline="alphabetic">return c</text></g><g><path fill="none" stroke="black" paint-order="fill stroke markers" d=" M 524.6793459908854 2516.3601620107984 L 595.0463755908854 2516.3601620107984 L 595.0463755908854 2533.9519194107984 L 527.6113055575521 2533.9519194107984" stroke-miterlimit="10" stroke-width="1.4659797833333332" stroke-dasharray="7.0367029599999995"/><g transform="translate(524.6793459908854,2533.9519194107984) translate(-524.6793459908854,-2533.9519194107984)"><path fill="black" stroke="none" paint-order="stroke fill markers" d=" M 539.3391438242187 2526.622020494132 L 524.6793459908854 2533.9519194107984 L 539.3391438242187 2541.281818327465 Z"/></g></g><g><g><rect fill="white" stroke="none" x="536.7003802142187" y="2560.339555510798" width="60.009079344023434" height="22.86928462"/></g><text fill="black" stroke="none" font-family="sans-serif" font-size="11pt" font-style="normal" font-weight="normal" text-decoration="normal" x="539.3391438242187" y="2576.172137170798" text-anchor="start" dominant-baseline="alphabetic">return c</text></g><g><path fill="none" stroke="black" paint-order="fill stroke markers" d=" M 515.8834672908854 2583.2088401307983 L 586.2504968908854 2583.2088401307983 L 586.2504968908854 2600.8005975307983 L 518.8154268575521 2600.8005975307983" stroke-miterlimit="10" stroke-width="1.4659797833333332" stroke-dasharray="7.0367029599999995"/><g transform="translate(515.8834672908854,2600.8005975307983) translate(-515.8834672908854,-2600.8005975307983)"><path fill="black" stroke="none" paint-order="stroke fill markers" d=" M 530.5432651242187 2593.470698614132 L 515.8834672908854 2600.8005975307983 L 530.5432651242187 2608.130496447465 Z"/></g></g><g><g><rect fill="white" stroke="none" x="214.19240667255207" y="2627.188233630798" width="140.27392614578125" height="22.86928462"/></g><text fill="black" stroke="none" font-family="sans-serif" font-size="11pt" font-style="normal" font-weight="normal" text-decoration="normal" x="216.83117028255208" y="2643.020815290798" text-anchor="start" dominant-baseline="alphabetic">return c : Customer</text></g><g><path fill="none" stroke="black" paint-order="fill stroke markers" d=" M 489.4958311908854 2650.0575182507982 L 82.09486786666666 2650.0575182507982" stroke-miterlimit="10" stroke-width="1.4659797833333332" stroke-dasharray="7.0367029599999995"/><g transform="translate(79.1629083,2650.0575182507982) translate(-79.1629083,-2650.0575182507982)"><path fill="black" stroke="none" paint-order="stroke fill markers" d=" M 93.82270613333333 2642.7276193341318 L 79.1629083 2650.0575182507982 L 93.82270613333333 2657.3874171674647 Z"/></g></g><g><g/><path fill="none" stroke="black" paint-order="fill stroke markers" d=" M 17.591757400000006 173.98248068599997 L 1347.7397834388178 173.98248068599997 L 1347.7397834388178 2676.445154350798 L 17.591757400000006 2676.445154350798 L 17.591757400000006 173.98248068599997 Z" stroke-miterlimit="10" stroke-width="2.5131082" stroke-dasharray=""/><path fill="white" stroke="black" paint-order="fill stroke markers" d=" M 17.591757400000006 173.98248068599997 L 17.591757400000006 195.09258956599996 L 67.87877256621094 195.09258956599996 L 78.43382700621095 184.53753512599997 L 78.43382700621095 173.98248068599997 L 17.591757400000006 173.98248068599997" stroke-miterlimit="10" stroke-width="2.5131082" stroke-dasharray=""/><text fill="black" stroke="none" font-family="sans-serif" font-size="8.8pt" font-style="normal" font-weight="bold" text-decoration="normal" x="35.183514800000005" y="188.05588660599994" text-anchor="start" dominant-baseline="alphabetic">alt</text><text fill="black" stroke="none" font-family="sans-serif" font-size="8.8pt" font-style="normal" font-weight="bold" text-decoration="normal" x="96.02558440621095" y="188.05588660599994" text-anchor="start" dominant-baseline="alphabetic">[customer already in cache]</text><g><path fill="none" stroke="black" paint-order="fill stroke markers" d=" M 17.591757400000006 453.69142334599997 L 1347.7397834388178 453.69142334599997" stroke-miterlimit="10" stroke-width="2.5131082" stroke-dasharray="4.39793935"/></g><g/><text fill="black" stroke="none" font-family="sans-serif" font-size="8.8pt" font-style="normal" font-weight="bold" text-decoration="normal" x="96.02558440621095" y="467.76482926599994" text-anchor="start" dominant-baseline="alphabetic">[customer not already in cache]</text><g><path fill="none" stroke="black" paint-order="fill stroke markers" d=" M 17.591757400000006 1072.4990816483996 L 1347.7397834388178 1072.4990816483996" stroke-miterlimit="10" stroke-width="2.5131082" stroke-dasharray="4.39793935"/></g><g/><text fill="black" stroke="none" font-family="sans-serif" font-size="8.8pt" font-style="normal" font-weight="bold" text-decoration="normal" x="96.02558440621095" y="1086.5724875683998" text-anchor="start" dominant-baseline="alphabetic">[customer not already in cache or database]</text></g><g/><g/></g><g/><g/><g/></g></svg>